<svg width="191" height="62" viewBox="0 0 191 62" fill="none" xmlns="http://www.w3.org/2000/svg">
<path d="M94.9411 11.752L94.6763 11.2832L94.9411 11.752Z" fill="url(#paint0_radial_13:306)"/>
<path d="M59.8931 42.4978C59.8926 42.6978 59.8602 42.8964 59.7969 43.0862C59.7289 43.2831 59.6291 43.4676 59.5014 43.6323C59.3596 43.8111 59.1873 43.9635 58.9925 44.0824C58.7679 44.2189 58.521 44.3149 58.2632 44.3661V44.4129C58.5043 44.4438 58.7406 44.5044 58.9667 44.5934C59.1889 44.6817 59.3931 44.8095 59.5694 44.9709C59.7484 45.1338 59.8921 45.3316 59.9916 45.5522C60.1031 45.8069 60.1576 46.083 60.1511 46.3609C60.161 46.7356 60.0624 47.1052 59.8673 47.4252C59.676 47.7261 59.4185 47.9794 59.1145 48.1659C58.7882 48.3645 58.4318 48.5086 58.0592 48.5926C57.6748 48.6828 57.2814 48.7284 56.8866 48.7285H56.3847C56.1854 48.7285 55.979 48.7168 55.7632 48.7051C55.5475 48.6934 55.3294 48.6793 55.1136 48.6605C54.9204 48.6445 54.7284 48.6155 54.5391 48.5738V40.7209C54.8486 40.6694 55.2145 40.6272 55.6319 40.5967C56.0494 40.5662 56.4973 40.5498 56.9757 40.5498C57.3136 40.5514 57.6509 40.5804 57.9841 40.6365C58.3109 40.687 58.6275 40.789 58.9222 40.9389C59.2003 41.0772 59.4415 41.2797 59.6257 41.5297C59.8152 41.8159 59.9088 42.1549 59.8931 42.4978ZM56.3026 44.1387C56.4457 44.1387 56.6122 44.1387 56.8022 44.1223C56.9921 44.1059 57.1492 44.0965 57.2712 44.0824C57.4561 44.0297 57.6364 43.9623 57.8106 43.8808C57.9728 43.8065 58.1237 43.7094 58.2585 43.5925C58.3856 43.4844 58.4901 43.3521 58.5657 43.2034C58.6462 43.023 58.6844 42.8266 58.6775 42.6291C58.6706 42.4317 58.6187 42.2385 58.5258 42.0641C58.4259 41.91 58.2867 41.7854 58.1225 41.7031C57.9436 41.6158 57.7521 41.5573 57.5549 41.5297C57.3405 41.4993 57.1242 41.4845 56.9077 41.4851C56.6427 41.4851 56.3988 41.4851 56.176 41.5015C55.9532 41.5179 55.7843 41.5273 55.6694 41.5414V44.1387H56.3026ZM55.6718 47.7158C55.7488 47.7336 55.8273 47.7446 55.9063 47.7487L56.251 47.7721C56.3753 47.7721 56.4996 47.7862 56.6239 47.7885H56.9687C57.2178 47.7887 57.4663 47.7619 57.7097 47.7088C57.9323 47.6615 58.145 47.5758 58.3382 47.4556C58.5146 47.345 58.6637 47.1959 58.7744 47.0196C58.8881 46.8285 58.945 46.609 58.9386 46.3867C58.9523 46.1289 58.8833 45.8735 58.7416 45.6577C58.6082 45.4779 58.4305 45.3357 58.2257 45.2451C58.0025 45.1463 57.765 45.0838 57.5221 45.0599C57.2571 45.0341 56.9968 45.0201 56.7412 45.0201H55.6718V47.7158Z" fill="white"/>
<path d="M62.9795 40.6533H67.7988V41.6564H64.1146V44.0658H67.4752V45.0689H64.1146V47.6307H67.8668V48.6338H62.9889L62.9795 40.6533Z" fill="white"/>
<path d="M71.4683 44.9027V44.0144H71.9373C72.0475 44.0144 72.1601 44.0144 72.2797 44.0027C72.3993 43.991 72.5142 43.9887 72.6198 43.9863C72.7102 43.9837 72.8004 43.9743 72.8895 43.9582C73.2661 43.917 73.6264 43.7825 73.9378 43.5668C74.0739 43.4762 74.1849 43.3526 74.2604 43.2075C74.3359 43.0624 74.3733 42.9006 74.3693 42.7371C74.3775 42.5359 74.3321 42.3362 74.2379 42.1582C74.1515 42.0043 74.0262 41.8758 73.8744 41.7855C73.7067 41.6873 73.5236 41.6184 73.3327 41.5816C73.1189 41.5386 72.9012 41.5174 72.6831 41.5184C72.2971 41.5141 71.9116 41.5462 71.5316 41.6144C71.2745 41.6583 71.0229 41.7298 70.7812 41.8277L70.4716 40.916C70.5838 40.8568 70.7027 40.8112 70.8257 40.7801C71.0078 40.7281 71.1926 40.6858 71.3792 40.6535C71.5879 40.616 71.8201 40.5832 72.0827 40.5574C72.3422 40.5311 72.6028 40.5178 72.8637 40.5176C73.1966 40.518 73.5288 40.5501 73.8557 40.6137C74.1623 40.6715 74.4566 40.7817 74.7257 40.9395C74.9779 41.088 75.1909 41.2945 75.3472 41.5418C75.5288 41.8565 75.6104 42.2189 75.5811 42.581C75.5518 42.9431 75.413 43.2877 75.183 43.5691C74.859 43.941 74.4227 44.1977 73.9401 44.3004V44.3449C74.4547 44.3973 74.9397 44.6106 75.3261 44.9543C75.4996 45.1249 75.6351 45.3302 75.7236 45.5568C75.8121 45.7834 75.8517 46.0261 75.8397 46.2691C75.8503 46.6616 75.7521 47.0493 75.5559 47.3894C75.3691 47.703 75.1133 47.9699 74.8078 48.1699C74.4878 48.385 74.1332 48.5436 73.7595 48.6386C73.3669 48.7373 72.9636 48.7869 72.5588 48.7863C72.0972 48.7929 71.6358 48.7599 71.1798 48.6879C70.8724 48.6411 70.5706 48.5625 70.2793 48.4535L70.5631 47.4738C70.8281 47.5688 71.1013 47.6394 71.3792 47.6847C71.799 47.7555 72.2245 47.7877 72.6503 47.7808C72.8875 47.7798 73.1238 47.7498 73.3538 47.6918C73.5792 47.6345 73.7943 47.5428 73.9917 47.4199C74.1804 47.2997 74.3405 47.1397 74.4607 46.9511C74.5818 46.7523 74.6428 46.5228 74.6366 46.2902C74.6492 46.0914 74.6063 45.893 74.5127 45.7172C74.4192 45.5413 74.2786 45.3948 74.1066 45.2941C73.6509 45.0562 73.1456 44.9285 72.6315 44.9215L72.3688 44.9051C72.2938 44.9051 72.2023 44.9051 72.0945 44.9051L71.4683 44.9027Z" fill="white"/>
<path d="M85.6901 50.085H84.9044L84.7098 48.6271H78.6546L78.4717 50.085H77.686V47.624H78.5749C78.698 47.4432 78.8033 47.2509 78.8891 47.0497C79.0684 46.6345 79.2097 46.2038 79.3112 45.763C79.4731 45.0677 79.593 44.3633 79.67 43.6536C79.7756 42.6548 79.821 41.6507 79.8061 40.6465H84.5574V47.6169H85.6901V50.085ZM83.4106 47.624V41.6567H80.8473C80.8176 42.4614 80.7699 43.1809 80.7043 43.8153C80.6386 44.4497 80.5604 45.0091 80.4697 45.4935C80.3912 45.918 80.2847 46.3369 80.1508 46.7474C80.0533 47.0499 79.9293 47.3432 79.7803 47.624H83.4106Z" fill="white"/>
<path d="M88.1616 40.6533H92.9833V41.6564H89.3014V44.0658H92.6644V45.0689H89.3014V47.6307H93.0396V48.6338H88.1616V40.6533Z" fill="white"/>
<path d="M98.145 44.5722L95.5114 40.6533H96.8692L98.5882 43.2737L98.8978 43.9347L99.1933 43.2737L100.994 40.6533H102.247L99.5263 44.4925L102.364 48.627H101.03L99.1276 45.8472L98.7735 45.1441L98.4546 45.8472L96.5057 48.627H95.2534L98.145 44.5722Z" fill="white"/>
<path d="M104.172 44.6405C104.163 44.0484 104.246 43.4586 104.418 42.8919C104.561 42.4152 104.8 41.9731 105.122 41.5934C105.43 41.2403 105.816 40.9635 106.25 40.7847C106.73 40.5924 107.243 40.4976 107.76 40.5057C108.302 40.4943 108.84 40.5973 109.338 40.8081C109.774 40.9979 110.16 41.2859 110.466 41.6496C110.779 42.0336 111.008 42.4781 111.14 42.9552C111.292 43.5038 111.367 44.0712 111.36 44.6405C111.373 45.232 111.293 45.8219 111.125 46.3892C110.983 46.8659 110.744 47.3081 110.422 47.6877C110.11 48.0392 109.723 48.3156 109.289 48.4964C108.809 48.6886 108.296 48.7835 107.779 48.7753C107.236 48.788 106.696 48.6849 106.196 48.473C105.762 48.283 105.379 47.994 105.077 47.6291C104.768 47.2447 104.542 46.8012 104.411 46.3259C104.252 45.7782 104.172 45.2108 104.172 44.6405ZM105.38 44.6405C105.378 45.048 105.426 45.4542 105.523 45.85C105.609 46.2047 105.755 46.5418 105.957 46.8462C106.146 47.1283 106.4 47.3607 106.698 47.5236C107.159 47.7516 107.682 47.8253 108.189 47.7337C108.696 47.6421 109.159 47.3901 109.512 47.015C109.942 46.5087 110.156 45.7172 110.155 44.6405C110.157 44.237 110.11 43.8347 110.014 43.4428C109.929 43.0879 109.782 42.7508 109.58 42.4466C109.389 42.1642 109.136 41.9299 108.839 41.7621C108.378 41.53 107.853 41.4548 107.345 41.5479C106.837 41.641 106.374 41.8972 106.025 42.2778C105.596 42.7888 105.389 43.5787 105.389 44.6405H105.38Z" fill="white"/>
<path d="M120.82 50.085H120.034L119.842 48.6271H113.78L113.597 50.085H112.811V47.624H113.7C113.822 47.443 113.926 47.2507 114.012 47.0497C114.191 46.6345 114.332 46.2038 114.434 45.763C114.598 45.0682 114.718 44.3636 114.793 43.6536C114.898 42.6548 114.944 41.6507 114.929 40.6465H119.694V47.6169H120.831L120.82 50.085ZM118.543 47.624V41.6567H115.977C115.947 42.4614 115.9 43.1809 115.836 43.8153C115.772 44.4497 115.694 45.0091 115.602 45.4935C115.523 45.9181 115.415 46.337 115.28 46.7474C115.184 47.0498 115.06 47.3431 114.912 47.624H118.543Z" fill="white"/>
<path d="M131.563 46.5203H128.437L127.6 48.6299H126.462L129.746 40.543H130.339L133.622 48.6299H132.414L131.563 46.5203ZM128.775 45.5826H131.235L130.32 43.316L130.015 42.0971H129.994L129.689 43.3394L128.775 45.5826Z" fill="white"/>
<path d="M142.597 43.4896L142.722 42.2144H142.677L142.187 43.3185L139.964 46.851H139.628L137.283 43.3068L136.814 42.2262H136.758L136.941 43.4779V48.6348H135.876V40.665H136.73L139.431 44.7319L139.853 45.5969H139.877L140.276 44.7085L142.839 40.665H143.739V48.6348H142.6L142.597 43.4896Z" fill="white"/>
<path d="M150.222 47.7491C150.057 47.7741 149.891 47.7897 149.725 47.796C149.546 47.796 149.373 47.8077 149.206 47.8077C148.829 47.8104 148.455 47.7444 148.102 47.6132C147.763 47.4869 147.457 47.2867 147.206 47.0272C146.939 46.7439 146.734 46.4088 146.603 46.0427C146.306 45.1414 146.306 44.1687 146.603 43.2675C146.739 42.8828 146.952 42.5301 147.229 42.2314C147.501 41.9464 147.832 41.7234 148.198 41.5775C148.595 41.4189 149.018 41.3393 149.445 41.3431C149.551 41.3431 149.68 41.3431 149.844 41.3431C149.971 41.3474 150.098 41.3631 150.222 41.3899V40.4102H151.291V41.4228C151.464 41.3829 151.64 41.3585 151.816 41.3501C152.013 41.3501 152.178 41.3337 152.307 41.3337C152.687 41.3311 153.064 41.4003 153.418 41.5376C153.759 41.6712 154.066 41.8795 154.316 42.147C154.582 42.4342 154.786 42.7734 154.914 43.1432C155.067 43.5824 155.141 44.045 155.132 44.5098C155.14 44.9899 155.057 45.4672 154.886 45.9161C154.74 46.3014 154.515 46.6524 154.227 46.9475C153.952 47.222 153.622 47.4353 153.259 47.5733C152.884 47.7149 152.487 47.7864 152.086 47.7843C151.997 47.7843 151.866 47.7843 151.695 47.7655C151.557 47.7612 151.421 47.7407 151.289 47.7046V48.832H150.219L150.222 47.7491ZM149.415 46.9194H149.807C149.954 46.9213 150.102 46.8999 150.243 46.8561V42.283C150.144 42.2689 150.025 42.2572 149.886 42.2502C149.748 42.2431 149.619 42.2385 149.497 42.2385C149.233 42.2362 148.97 42.2864 148.726 42.3861C148.486 42.4895 148.272 42.6448 148.099 42.8409C147.91 43.0624 147.766 43.3188 147.675 43.5956C147.566 43.9331 147.513 44.2864 147.52 44.641C147.516 44.9589 147.563 45.2753 147.658 45.5786C147.74 45.8416 147.872 46.086 148.048 46.2982C148.212 46.4977 148.419 46.6578 148.653 46.767C148.893 46.8729 149.153 46.9249 149.415 46.9194ZM152.142 42.2314C152.028 42.2314 151.88 42.2314 151.699 42.2431C151.554 42.2454 151.41 42.2643 151.27 42.2994V46.8795C151.376 46.8981 151.484 46.9075 151.591 46.9076H151.971C152.239 46.9082 152.504 46.8572 152.752 46.7576C152.996 46.6577 153.215 46.5066 153.395 46.3146C153.591 46.1012 153.739 45.8488 153.831 45.5739C154.036 44.9295 154.046 44.239 153.861 43.5886C153.781 43.3264 153.654 43.0809 153.486 42.8643C153.33 42.6649 153.129 42.5044 152.9 42.3955C152.663 42.2854 152.404 42.2317 152.142 42.2385V42.2314Z" fill="white"/>
<path d="M163.12 43.3626L163.188 42.486H163.144L162.595 43.3861L158.505 48.6367H157.801V40.667H158.941V45.9762L158.838 46.8412H158.894L159.464 45.9411L163.545 40.667H164.248V48.6367H163.108L163.12 43.3626Z" fill="white"/>
<path d="M167.428 40.6533H172.259V41.6566H168.568V43.8318C168.704 43.8084 168.873 43.7873 169.075 43.7638C169.273 43.7406 169.473 43.7288 169.673 43.7287C170.079 43.7277 170.486 43.7662 170.885 43.8435C171.244 43.909 171.589 44.0401 171.9 44.2303C172.191 44.4119 172.433 44.6622 172.604 44.9593C172.788 45.3099 172.878 45.7026 172.864 46.0985C172.878 46.4864 172.797 46.8718 172.626 47.2206C172.455 47.5694 172.201 47.8707 171.886 48.0979C171.573 48.3216 171.221 48.4854 170.847 48.5808C170.443 48.689 170.026 48.7426 169.607 48.7402H169.121C168.936 48.7402 168.744 48.7261 168.547 48.712C168.35 48.698 168.153 48.6769 167.961 48.6534C167.782 48.6346 167.605 48.6049 167.431 48.5644L167.428 40.6533ZM169.741 47.7275C169.988 47.7289 170.235 47.6982 170.475 47.6361C170.693 47.5838 170.9 47.4908 171.084 47.3619C171.257 47.2395 171.4 47.0792 171.502 46.8931C171.608 46.6886 171.661 46.4602 171.654 46.2297C171.667 45.956 171.608 45.6836 171.483 45.4398C171.374 45.2428 171.211 45.0804 171.014 44.971C170.807 44.8628 170.582 44.7944 170.35 44.7694C170.088 44.7341 169.823 44.7169 169.558 44.7178C169.483 44.7178 169.396 44.7178 169.302 44.7296L169.011 44.7506C168.921 44.7565 168.832 44.7683 168.744 44.7858L168.568 44.8186V47.6572C168.639 47.6746 168.711 47.6856 168.784 47.69L169.079 47.7135C169.187 47.7135 169.297 47.7252 169.41 47.7252L169.741 47.7275Z" fill="white"/>
<path d="M180.782 43.3626L180.852 42.486H180.805L180.259 43.3861L176.166 48.6367H175.463V40.667H176.603V45.9762L176.499 46.8412H176.556L177.126 45.9411L181.206 40.667H181.91V48.6367H180.77L180.782 43.3626Z" fill="white"/>
<path d="M190.171 48.6281H189.031V45.2386L187.812 45.4871L185.683 48.6328H184.36L186.297 45.8457L187.05 45.3441C186.766 45.2955 186.49 45.2096 186.229 45.0886C185.984 44.9728 185.763 44.814 185.575 44.6198C185.386 44.427 185.239 44.1982 185.141 43.947C184.902 43.2691 184.941 42.5244 185.249 41.8749C185.417 41.5637 185.658 41.2982 185.952 41.1013C186.273 40.8939 186.629 40.7484 187.003 40.6724C187.426 40.5829 187.858 40.5389 188.29 40.5411C188.569 40.5411 188.879 40.5552 189.228 40.5809C189.552 40.6065 189.873 40.6543 190.19 40.7239L190.171 48.6281ZM188.211 41.5537C187.955 41.5532 187.7 41.576 187.448 41.6217C187.221 41.6602 187.003 41.7396 186.804 41.8561C186.619 41.9687 186.464 42.1248 186.353 42.3109C186.232 42.5374 186.172 42.7923 186.182 43.0492C186.174 43.2937 186.23 43.5361 186.344 43.7525C186.446 43.9451 186.597 44.107 186.782 44.2213C186.982 44.3442 187.202 44.43 187.432 44.4744C187.692 44.5294 187.957 44.5561 188.222 44.5541H189.031V41.6217C188.92 41.5903 188.805 41.5714 188.689 41.5654C188.569 41.5584 188.408 41.5537 188.211 41.5537Z" fill="white"/>
<path d="M58.3728 15.6006H71.8106V29.9244H73.7289V36.832H69.3787L69.123 33.5177H59.142L58.8864 36.8438H54.5361V29.9244H56.1989C56.6901 29.3673 57.0685 28.7201 57.3128 28.0188C57.5409 27.3972 57.6829 26.7474 57.7349 26.0874L58.3728 15.6006ZM67.2024 29.9244V19.1821H62.4722L62.0899 25.5764C62.0275 26.663 61.7668 27.7291 61.3207 28.722C61.1462 29.1419 60.9326 29.5444 60.6828 29.9244H67.2024Z" fill="white"/>
<path d="M91.9004 28.6477C91.9004 30.4385 91.4954 31.7386 90.6856 32.5481C89.8757 33.3575 88.5741 33.7591 86.7809 33.7529H80.3833C78.5916 33.7529 77.2908 33.3481 76.4809 32.5387C75.6711 31.7292 75.2661 30.4291 75.2661 28.6383V20.4626C75.2661 18.6718 75.6711 17.3709 76.4809 16.5599C77.2908 15.7489 78.5916 15.3441 80.3833 15.3457H86.7809C88.5726 15.3457 89.8741 15.7504 90.6856 16.5599C91.497 17.3693 91.9019 18.6702 91.9004 20.4626V28.6477ZM87.2945 20.4626C87.2945 19.4391 86.7824 18.9273 85.7584 18.9273H81.4081C80.3825 18.9273 79.8705 19.4391 79.872 20.4626V28.6477C79.872 29.6697 80.384 30.1807 81.4081 30.1807H85.7584C86.7809 30.1807 87.2929 29.6697 87.2945 28.6477V20.4626Z" fill="white"/>
<path d="M99.0569 22.5015H105.199C106.987 22.5015 108.288 22.9062 109.101 23.7157C109.914 24.5252 110.319 25.8254 110.316 27.6162V28.3851C110.316 30.1728 109.911 31.473 109.101 32.2856C108.291 33.0982 106.994 33.5092 105.208 33.5186H94.458V15.6006H108.672V19.1823H99.0569V22.5015ZM105.71 27.6162C105.71 26.5942 105.198 26.0824 104.174 26.0809H99.0569V29.9181H104.174C105.2 29.9181 105.712 29.4071 105.71 28.3851V27.6162Z" fill="white"/>
<path d="M112.629 15.6006H123.377C125.169 15.6006 126.47 16.0061 127.281 16.8172C128.093 17.6282 128.498 18.9284 128.496 20.7177V23.275C128.496 25.0659 128.091 26.3661 127.281 27.1755C126.472 27.985 125.17 28.3905 123.377 28.3921H117.235V33.5186H112.629V15.6006ZM123.886 20.7177C123.886 19.6925 123.374 19.1807 122.35 19.1823H117.235V24.808H122.354C123.377 24.808 123.889 24.2963 123.89 23.2727L123.886 20.7177Z" fill="white"/>
<path d="M135.407 21.7397H141.293C143.085 21.7397 144.386 22.1452 145.196 22.9562C146.006 23.7673 146.411 25.0674 146.413 26.8567V28.3921C146.413 30.1798 146.007 31.48 145.196 32.2926C144.384 33.1052 143.083 33.5139 141.291 33.5186H130.799V15.6006H135.407V21.7397ZM141.805 26.8567C141.805 25.8316 141.293 25.3198 140.271 25.3214H135.407V29.9251H140.271C141.293 29.9251 141.805 29.4141 141.805 28.3921V26.8567ZM153.061 33.5068H148.458V15.6006H153.064L153.061 33.5068Z" fill="white"/>
<path d="M171.757 33.5186H167.139V26.2285H160.735V33.5186H156.133V15.6006H160.735V22.6328H167.132V15.6006H171.757V33.5186Z" fill="white"/>
<path d="M190.171 33.5186H185.565V27.635H182.111L178.912 33.5186H174.048L177.386 27.3678C176.291 27.1115 175.509 26.5911 175.04 25.8066C174.571 25.0221 174.326 23.9204 174.304 22.5015V20.7177C174.304 18.9268 174.71 17.6266 175.521 16.8172C176.333 16.0077 177.633 15.6021 179.423 15.6006H190.171V33.5186ZM178.912 22.5015C178.912 23.5235 179.423 24.0345 180.446 24.0345H185.565V19.1823H180.446C179.423 19.1823 178.912 19.6941 178.912 20.7177V22.5015Z" fill="white"/>
<path d="M49.4266 8.94683C39.7997 9.62189 24.7672 0 24.7672 0C24.7672 0 9.73465 9.62189 0.107752 8.94683C0.107752 8.94683 -1.41191 44.2279 24.7672 61.4512C50.9462 44.2279 49.4266 8.94683 49.4266 8.94683ZM36.6548 43.1942L36.4203 43.5997C36.2467 43.8997 36.0708 44.1974 35.8926 44.4927C32.8861 49.4455 29.1503 51.6019 24.7625 54.9303C20.3747 51.6019 16.6388 49.4455 13.6323 44.4927C13.4541 44.1974 13.2782 43.8997 13.1047 43.5997L12.8701 43.1942C10.2631 38.5126 8.29591 33.5027 7.0213 28.2984C5.76869 23.2732 5.03705 18.1324 4.83795 12.9573C8.82473 12.3877 13.44 10.822 18.6345 8.26943C21.1204 7.06933 23.2592 5.85986 24.7672 4.96682C26.2751 5.8622 28.4139 7.07637 30.8904 8.28115C36.0849 10.822 40.7096 12.3901 44.687 12.969C44.4876 18.1441 43.7559 23.2848 42.5036 28.3102C41.228 33.5104 39.2609 38.5163 36.6548 43.1942Z" fill="white"/>
<path d="M36.7345 33.4834V29.5337H34.0001V10.9834H16.803V24.6278C16.803 26.0795 16.5849 27.2609 16.1487 28.1719C15.7125 29.0829 15.2568 29.5369 14.7815 29.5337H12.7998V33.4787H14.0943V34.7726H12.7998V40.0583V41.4318H14.0568V41.0662H16.3738V41.4318H17.6308V41.0662H19.4507V41.4318H20.7054V38.1104H28.829V41.0709V41.4365H30.086V41.0709H32.4054V41.4365H33.6624V41.0709H35.4846V41.4365H36.7416V34.7772H35.447V33.4834H36.7345ZM20.7054 34.8898H16.9765V31.1745H20.7054V34.8898ZM27.2718 29.1962H22.2602V25.202C22.2602 23.0925 22.8543 20.9204 24.0425 18.6858C25.126 16.9668 26.2032 15.2377 27.2742 13.4985L27.2718 29.1962ZM32.5531 34.8898H28.829V31.1745H32.5555L32.5531 34.8898Z" fill="white"/>
<defs>
<radialGradient id="paint0_radial_13:306" cx="0" cy="0" r="1" gradientUnits="userSpaceOnUse" gradientTransform="translate(94.8099 11.5176) scale(0.18986)">
<stop offset="0.3" stop-color="#004331"/>
<stop offset="0.91" stop-color="#698929"/>
</radialGradient>
</defs>
</svg>
