<svg width="152" height="49" viewBox="0 0 152 49" fill="none" xmlns="http://www.w3.org/2000/svg">
<path d="M75.7263 9.371L75.5151 8.99719L75.7263 9.371Z" fill="url(#paint0_radial_13:346)"/>
<path d="M47.7794 33.8874C47.7791 34.0468 47.7532 34.2052 47.7028 34.3565C47.6485 34.5135 47.5689 34.6607 47.4671 34.792C47.354 34.9345 47.2167 35.056 47.0614 35.1508C46.8822 35.2597 46.6854 35.3362 46.4798 35.377V35.4144C46.672 35.4389 46.8605 35.4873 47.0408 35.5583C47.2179 35.6286 47.3808 35.7306 47.5214 35.8592C47.6641 35.9891 47.7786 36.1468 47.858 36.3227C47.9469 36.5258 47.9903 36.7459 47.9851 36.9675C47.993 37.2662 47.9145 37.5609 47.7589 37.8161C47.6063 38.056 47.401 38.258 47.1586 38.4067C46.8984 38.565 46.6142 38.6798 46.3171 38.7468C46.0106 38.8187 45.6969 38.8551 45.3821 38.8552H44.9819C44.823 38.8552 44.6584 38.8459 44.4864 38.8365C44.3143 38.8272 44.1404 38.816 43.9684 38.801C43.8143 38.7882 43.6612 38.7651 43.5103 38.7319V32.4707C43.7571 32.4295 44.0488 32.3959 44.3817 32.3716C44.7145 32.3473 45.0717 32.3342 45.4532 32.3342C45.7226 32.3355 45.9915 32.3587 46.2573 32.4034C46.5178 32.4436 46.7703 32.525 47.0053 32.6445C47.227 32.7547 47.4193 32.9162 47.5662 33.1155C47.7173 33.3437 47.792 33.614 47.7794 33.8874ZM44.9165 35.1957C45.0306 35.1957 45.1633 35.1957 45.3148 35.1826C45.4663 35.1695 45.5915 35.1621 45.6888 35.1508C45.8362 35.1088 45.98 35.0551 46.1189 34.9901C46.2483 34.9308 46.3685 34.8534 46.476 34.7602C46.5774 34.674 46.6607 34.5686 46.721 34.45C46.7852 34.3061 46.8157 34.1495 46.8102 33.9921C46.8047 33.8347 46.7633 33.6806 46.6892 33.5416C46.6096 33.4188 46.4985 33.3194 46.3676 33.2538C46.225 33.1842 46.0722 33.1375 45.9151 33.1155C45.7441 33.0913 45.5716 33.0794 45.3989 33.08C45.1876 33.08 44.9932 33.08 44.8155 33.093C44.6379 33.1061 44.5032 33.1136 44.4116 33.1248V35.1957H44.9165ZM44.4135 38.0478C44.4749 38.062 44.5375 38.0707 44.6005 38.074L44.8753 38.0927C44.9745 38.0927 45.0736 38.1039 45.1727 38.1058H45.4476C45.6462 38.1059 45.8444 38.0846 46.0385 38.0422C46.216 38.0045 46.3855 37.9362 46.5396 37.8404C46.6803 37.7521 46.7992 37.6333 46.8874 37.4927C46.9781 37.3403 47.0235 37.1653 47.0183 36.9881C47.0293 36.7825 46.9742 36.5789 46.8613 36.4068C46.7549 36.2634 46.6132 36.1501 46.4499 36.0779C46.2719 35.9991 46.0825 35.9493 45.8889 35.9302C45.6776 35.9097 45.47 35.8984 45.2662 35.8984H44.4135V38.0478Z" fill="#010705"/>
<path d="M50.2402 32.416H54.0831V33.216H51.1453V35.1373H53.825V35.9372H51.1453V37.9801H54.1373V38.78H50.2477L50.2402 32.416Z" fill="#010705"/>
<path d="M57.0096 35.8045V35.0962H57.3836C57.4715 35.0962 57.5613 35.0962 57.6566 35.0868C57.752 35.0775 57.8436 35.0756 57.9278 35.0738C57.9999 35.0717 58.0718 35.0642 58.1428 35.0513C58.4431 35.0185 58.7304 34.9112 58.9787 34.7392C59.0873 34.6669 59.1758 34.5684 59.236 34.4527C59.2961 34.337 59.326 34.2079 59.3228 34.0776C59.3293 33.9171 59.2932 33.7579 59.2181 33.6159C59.1491 33.4932 59.0492 33.3907 58.9282 33.3188C58.7945 33.2404 58.6484 33.1855 58.4962 33.1561C58.3257 33.1218 58.1522 33.1049 57.9783 33.1057C57.6705 33.1023 57.3631 33.1279 57.0601 33.1823C56.8551 33.2173 56.6544 33.2743 56.4617 33.3524L56.2149 32.6253C56.3043 32.5781 56.3991 32.5417 56.4972 32.5169C56.6424 32.4755 56.7897 32.4418 56.9385 32.416C57.105 32.3861 57.2901 32.3599 57.4995 32.3394C57.7064 32.3184 57.9143 32.3078 58.1222 32.3076C58.3878 32.3079 58.6526 32.3336 58.9133 32.3842C59.1577 32.4303 59.3924 32.5182 59.607 32.644C59.8081 32.7625 59.9779 32.9272 60.1026 33.1244C60.2474 33.3753 60.3125 33.6643 60.2891 33.9531C60.2657 34.2419 60.155 34.5167 59.9717 34.7411C59.7132 35.0377 59.3654 35.2423 58.9806 35.3242V35.3597C59.3909 35.4015 59.7776 35.5716 60.0857 35.8457C60.2241 35.9817 60.3321 36.1454 60.4027 36.3261C60.4733 36.5068 60.5048 36.7004 60.4953 36.8942C60.5037 37.2071 60.4254 37.5163 60.269 37.7876C60.12 38.0376 59.916 38.2505 59.6725 38.41C59.4173 38.5815 59.1346 38.7079 58.8366 38.7838C58.5235 38.8624 58.2019 38.902 57.8792 38.9015C57.5111 38.9067 57.1432 38.8805 56.7796 38.823C56.5344 38.7857 56.2938 38.7231 56.0615 38.6361L56.2878 37.8549C56.4991 37.9306 56.717 37.9869 56.9385 38.0231C57.2733 38.0795 57.6126 38.1052 57.9521 38.0997C58.1413 38.0988 58.3296 38.075 58.5131 38.0287C58.6928 37.983 58.8643 37.9099 59.0217 37.8119C59.1722 37.716 59.2998 37.5884 59.3957 37.4381C59.4922 37.2795 59.5409 37.0965 59.536 36.911C59.546 36.7525 59.5118 36.5943 59.4372 36.454C59.3626 36.3138 59.2505 36.197 59.1133 36.1167C58.75 35.9269 58.3471 35.8251 57.9371 35.8195L57.7277 35.8064C57.6678 35.8064 57.5949 35.8064 57.5089 35.8064L57.0096 35.8045Z" fill="#010705"/>
<path d="M68.3496 39.937H67.7231L67.5679 38.7745H62.7396L62.5937 39.937H61.9673V37.9746H62.676C62.7742 37.8304 62.8581 37.6771 62.9266 37.5167C63.0696 37.1855 63.1822 36.8421 63.2632 36.4906C63.3923 35.9361 63.4878 35.3744 63.5493 34.8085C63.6335 34.012 63.6697 33.2113 63.6578 32.4105H67.4464V37.969H68.3496V39.937ZM66.5319 37.9746V33.2161H64.488C64.4644 33.8578 64.4263 34.4316 64.374 34.9374C64.3216 35.4433 64.2593 35.8894 64.187 36.2756C64.1244 36.6142 64.0394 36.9482 63.9327 37.2756C63.8549 37.5168 63.756 37.7507 63.6372 37.9746H66.5319Z" fill="#010705"/>
<path d="M70.3203 32.416H74.165V33.216H71.2291V35.1373H73.9107V35.9372H71.2291V37.9801H74.2099V38.78H70.3203V32.416Z" fill="#010705"/>
<path d="M78.2808 35.541L76.1808 32.416H77.2635L78.6342 34.5056L78.8811 35.0326L79.1167 34.5056L80.5528 32.416H81.5514L79.3822 35.4775L81.6449 38.7744H80.5809L79.0643 36.5578L78.7819 35.9971L78.5276 36.5578L76.9737 38.7744H75.9751L78.2808 35.541Z" fill="#010705"/>
<path d="M83.0869 35.5955C83.0799 35.1234 83.1461 34.653 83.2833 34.2012C83.3968 33.8211 83.5878 33.4685 83.8443 33.1658C84.0902 32.8843 84.3981 32.6635 84.7437 32.521C85.1264 32.3677 85.5358 32.2921 85.948 32.2985C86.3798 32.2894 86.8087 32.3715 87.2065 32.5396C87.5541 32.691 87.862 32.9206 88.106 33.2106C88.3551 33.5168 88.5378 33.8713 88.6427 34.2517C88.7645 34.689 88.8237 35.1415 88.8185 35.5955C88.8285 36.0671 88.7654 36.5374 88.6315 36.9898C88.518 37.3699 88.327 37.7225 88.0705 38.0252C87.8219 38.3055 87.5131 38.5259 87.1673 38.67C86.7846 38.8233 86.3752 38.8989 85.963 38.8924C85.5299 38.9025 85.0996 38.8203 84.7007 38.6513C84.3548 38.4999 84.0493 38.2694 83.8088 37.9785C83.5626 37.672 83.3818 37.3183 83.2777 36.9393C83.1509 36.5026 83.0867 36.0502 83.0869 35.5955ZM84.05 35.5955C84.0486 35.9204 84.0869 36.2443 84.164 36.5599C84.2324 36.8427 84.3495 37.1115 84.51 37.3542C84.6606 37.5792 84.8633 37.7645 85.1009 37.8944C85.469 38.0762 85.8859 38.1349 86.2899 38.0619C86.6939 37.9888 87.0638 37.7879 87.3449 37.4888C87.6877 37.0851 87.8585 36.454 87.8573 35.5955C87.8592 35.2737 87.8215 34.953 87.7451 34.6404C87.6771 34.3575 87.56 34.0886 87.3991 33.8461C87.247 33.621 87.0448 33.4341 86.8082 33.3003C86.4404 33.1153 86.0222 33.0553 85.6172 33.1295C85.2121 33.2037 84.8424 33.4081 84.5642 33.7115C84.222 34.119 84.0575 34.7488 84.0575 35.5955H84.05Z" fill="#010705"/>
<path d="M96.3616 39.937H95.7352L95.5818 38.7745H90.7479L90.602 39.937H89.9756V37.9746H90.6843C90.7817 37.8302 90.8649 37.6769 90.933 37.5167C91.076 37.1855 91.1887 36.8421 91.2696 36.4906C91.4006 35.9365 91.4961 35.3747 91.5557 34.8085C91.6399 34.012 91.6761 33.2113 91.6642 32.4105H95.464V37.969H96.3709L96.3616 39.937ZM94.5458 37.9746V33.2161H92.5001C92.4764 33.8578 92.439 34.4316 92.3879 34.9374C92.3368 35.4433 92.2744 35.8894 92.2009 36.2756C92.1377 36.6143 92.0521 36.9483 91.9447 37.2756C91.8675 37.5167 91.7692 37.7506 91.6511 37.9746H94.5458Z" fill="#010705"/>
<path d="M104.928 37.0942H102.435L101.768 38.7764H100.861L103.479 32.3282H103.952L106.57 38.7764H105.607L104.928 37.0942ZM102.705 36.3466H104.666L103.937 34.5393L103.694 33.5674H103.677L103.434 34.558L102.705 36.3466Z" fill="#010705"/>
<path d="M113.726 34.6779L113.825 33.6612H113.79L113.399 34.5415L111.626 37.3581H111.359L109.489 34.5322L109.115 33.6705H109.07L109.216 34.6686V38.7804H108.367V32.4258H109.047L111.202 35.6685L111.538 36.3582H111.557L111.875 35.6498L113.919 32.4258H114.637V38.7804H113.728L113.726 34.6779Z" fill="#010705"/>
<path d="M119.806 38.0739C119.674 38.0938 119.542 38.1063 119.409 38.1113C119.267 38.1113 119.129 38.1207 118.996 38.1207C118.695 38.1228 118.397 38.0702 118.115 37.9655C117.845 37.8649 117.601 37.7052 117.401 37.4983C117.188 37.2724 117.025 37.0052 116.92 36.7133C116.683 35.9947 116.683 35.219 116.92 34.5004C117.028 34.1937 117.198 33.9125 117.42 33.6743C117.637 33.447 117.9 33.2692 118.192 33.1528C118.508 33.0264 118.846 32.9629 119.187 32.9659C119.271 32.9659 119.374 32.9659 119.505 32.9659C119.606 32.9694 119.707 32.9819 119.806 33.0033V32.222H120.658V33.0295C120.796 32.9976 120.936 32.9783 121.077 32.9715C121.234 32.9715 121.365 32.9584 121.468 32.9584C121.771 32.9564 122.072 33.0115 122.354 33.121C122.627 33.2276 122.871 33.3936 123.071 33.607C123.283 33.836 123.445 34.1064 123.548 34.4013C123.669 34.7515 123.728 35.1203 123.721 35.491C123.728 35.8738 123.661 36.2544 123.525 36.6124C123.408 36.9196 123.229 37.1995 123 37.4347C122.78 37.6536 122.517 37.8237 122.227 37.9338C121.929 38.0467 121.612 38.1037 121.292 38.102C121.221 38.102 121.117 38.102 120.98 38.087C120.871 38.0836 120.762 38.0673 120.657 38.0384V38.9374H119.804L119.806 38.0739ZM119.162 37.4123H119.475C119.593 37.4139 119.71 37.3968 119.823 37.3618V33.7154C119.744 33.7042 119.649 33.6948 119.538 33.6892C119.428 33.6836 119.325 33.6799 119.228 33.6799C119.017 33.6781 118.808 33.7181 118.613 33.7976C118.421 33.88 118.251 34.0039 118.113 34.1602C117.962 34.3369 117.847 34.5413 117.775 34.762C117.688 35.0311 117.646 35.3128 117.651 35.5956C117.649 35.8491 117.686 36.1014 117.762 36.3432C117.827 36.5529 117.932 36.7478 118.072 36.917C118.203 37.0761 118.368 37.2038 118.555 37.2908C118.746 37.3753 118.953 37.4167 119.162 37.4123ZM121.337 33.6743C121.246 33.6743 121.128 33.6743 120.984 33.6836C120.868 33.6854 120.754 33.7005 120.642 33.7285V37.3805C120.726 37.3953 120.812 37.4028 120.898 37.403H121.201C121.414 37.4034 121.625 37.3628 121.823 37.2833C122.018 37.2037 122.192 37.0832 122.336 36.9301C122.492 36.76 122.611 36.5587 122.684 36.3395C122.847 35.8256 122.855 35.2751 122.708 34.7564C122.644 34.5473 122.543 34.3516 122.409 34.1789C122.284 34.0199 122.124 33.8919 121.941 33.8051C121.752 33.7173 121.546 33.6745 121.337 33.6799V33.6743Z" fill="#010705"/>
<path d="M130.091 34.5767L130.145 33.8777H130.11L129.672 34.5954L126.411 38.782H125.85V32.4274H126.759V36.6607L126.677 37.3504H126.722L127.176 36.6327L130.43 32.4274H130.991V38.782H130.082L130.091 34.5767Z" fill="#010705"/>
<path d="M133.526 32.416H137.379V33.216H134.435V34.9504C134.544 34.9317 134.678 34.9149 134.839 34.8962C134.997 34.8777 135.157 34.8683 135.316 34.8682C135.64 34.8674 135.964 34.8981 136.283 34.9597C136.569 35.012 136.844 35.1165 137.092 35.2681C137.324 35.4129 137.517 35.6126 137.653 35.8494C137.801 36.129 137.872 36.4421 137.861 36.7577C137.872 37.0671 137.807 37.3744 137.671 37.6525C137.535 37.9306 137.332 38.1709 137.081 38.352C136.831 38.5304 136.55 38.661 136.253 38.737C135.93 38.8233 135.598 38.8661 135.264 38.8641H134.876C134.729 38.8641 134.575 38.8529 134.418 38.8417C134.261 38.8305 134.104 38.8137 133.951 38.795C133.809 38.78 133.668 38.7563 133.528 38.7239L133.526 32.416ZM135.37 38.0567C135.568 38.0578 135.764 38.0333 135.955 37.9838C136.13 37.9421 136.295 37.8679 136.442 37.7651C136.58 37.6676 136.694 37.5397 136.775 37.3913C136.859 37.2283 136.901 37.0462 136.896 36.8624C136.906 36.6441 136.859 36.427 136.76 36.2325C136.672 36.0755 136.543 35.946 136.386 35.8587C136.221 35.7725 136.041 35.7179 135.856 35.698C135.647 35.6699 135.436 35.6561 135.224 35.6569C135.164 35.6569 135.095 35.6569 135.02 35.6662L134.789 35.6831C134.717 35.6877 134.646 35.6971 134.575 35.7111L134.435 35.7373V38.0006C134.492 38.0145 134.549 38.0233 134.607 38.0268L134.843 38.0455C134.929 38.0455 135.017 38.0548 135.107 38.0548L135.37 38.0567Z" fill="#010705"/>
<path d="M144.174 34.5767L144.23 33.8777H144.192L143.757 34.5954L140.494 38.782H139.933V32.4274H140.841V36.6607L140.759 37.3504H140.804L141.258 36.6327L144.512 32.4274H145.073V38.782H144.164L144.174 34.5767Z" fill="#010705"/>
<path d="M151.661 38.7748H150.752V36.0722L149.78 36.2703L148.082 38.7786H147.027L148.572 36.5563L149.172 36.1563C148.946 36.1176 148.726 36.0491 148.518 35.9526C148.323 35.8603 148.146 35.7337 147.996 35.5788C147.846 35.4251 147.728 35.2427 147.65 35.0424C147.46 34.5019 147.491 33.9081 147.736 33.3902C147.87 33.1421 148.063 32.9304 148.297 32.7734C148.552 32.608 148.837 32.492 149.135 32.4314C149.472 32.3601 149.816 32.325 150.161 32.3267C150.384 32.3267 150.631 32.3379 150.909 32.3585C151.167 32.3789 151.423 32.417 151.676 32.4725L151.661 38.7748ZM150.098 33.1341C149.894 33.1337 149.691 33.1519 149.49 33.1883C149.309 33.219 149.135 33.2823 148.976 33.3752C148.828 33.465 148.705 33.5895 148.617 33.7378C148.52 33.9185 148.473 34.1217 148.48 34.3266C148.474 34.5215 148.518 34.7148 148.609 34.8873C148.69 35.0409 148.811 35.1699 148.959 35.2611C149.118 35.3591 149.294 35.4275 149.477 35.4629C149.684 35.5068 149.895 35.5281 150.107 35.5265H150.752V33.1883C150.663 33.1633 150.572 33.1482 150.479 33.1435C150.384 33.1379 150.255 33.1341 150.098 33.1341Z" fill="#010705"/>
<path d="M46.5676 12.4401H57.2827V23.8616H58.8123V29.3696H55.3435L55.1396 26.7268H47.181L46.9771 29.379H43.5083V23.8616H44.8341C45.2259 23.4174 45.5275 22.9013 45.7224 22.3421C45.9042 21.8465 46.0175 21.3283 46.059 20.802L46.5676 12.4401ZM53.6081 23.8616V15.2959H49.8364L49.5315 20.3946C49.4818 21.2611 49.2739 22.1111 48.9182 22.9028C48.779 23.2376 48.6087 23.5586 48.4095 23.8616H53.6081Z" fill="#010705"/>
<path d="M73.301 22.8431C73.301 24.271 72.9781 25.3077 72.3323 25.9532C71.6865 26.5986 70.6487 26.9188 69.2188 26.9138H64.1174C62.6888 26.9138 61.6515 26.5911 61.0058 25.9457C60.36 25.3003 60.0371 24.2636 60.0371 22.8356V16.3165C60.0371 14.8886 60.36 13.8513 61.0058 13.2046C61.6515 12.5579 62.6888 12.2352 64.1174 12.2365H69.2188C70.6475 12.2365 71.6853 12.5592 72.3323 13.2046C72.9793 13.85 73.3022 14.8873 73.301 16.3165V22.8431ZM69.6283 16.3165C69.6283 15.5004 69.22 15.0923 68.4035 15.0923H64.9346C64.1168 15.0923 63.7085 15.5004 63.7098 16.3165V22.8431C63.7098 23.658 64.1181 24.0655 64.9346 24.0655H68.4035C69.2188 24.0655 69.6271 23.658 69.6283 22.8431V16.3165Z" fill="#010705"/>
<path d="M79.0084 17.9424H83.9059C85.332 17.9424 86.3693 18.2652 87.0175 18.9106C87.6658 19.556 87.9887 20.5927 87.9862 22.0206V22.6337C87.9862 24.0591 87.6633 25.0958 87.0175 25.7437C86.3718 26.3916 85.337 26.7193 83.9134 26.7268H75.3413V12.4401H86.6753V15.2959H79.0084V17.9424ZM84.3135 22.0206C84.3135 21.2058 83.9052 20.7977 83.0887 20.7964H79.0084V23.856H83.0887C83.9065 23.856 84.3148 23.4486 84.3135 22.6337V22.0206Z" fill="#010705"/>
<path d="M89.8296 12.4401H98.3998C99.8284 12.4401 100.866 12.7634 101.513 13.4101C102.16 14.0568 102.483 15.0934 102.482 16.5201V18.5592C102.482 19.9872 102.159 21.0238 101.513 21.6693C100.868 22.3147 99.8297 22.638 98.3998 22.6393H93.5023V26.7268H89.8296V12.4401ZM98.8055 16.5201C98.8055 15.7027 98.3973 15.2947 97.5807 15.2959H93.5023V19.7816H97.5845C98.3998 19.7816 98.808 19.3735 98.8093 18.5574L98.8055 16.5201Z" fill="#010705"/>
<path d="M107.993 17.335H112.687C114.115 17.335 115.152 17.6584 115.798 18.305C116.444 18.9517 116.767 19.9884 116.769 21.4151V22.6393C116.769 24.0647 116.445 25.1014 115.798 25.7493C115.151 26.3973 114.113 26.7231 112.685 26.7268H104.318V12.4401H107.993V17.335ZM113.094 21.4151C113.094 20.5977 112.687 20.1896 111.871 20.1909H107.993V23.8616H111.871C112.687 23.8616 113.094 23.4542 113.094 22.6393V21.4151ZM122.07 26.7175H118.399V12.4401H122.072L122.07 26.7175Z" fill="#010705"/>
<path d="M136.978 26.7268H133.296V20.9142H128.189V26.7268H124.52V12.4401H128.189V18.0471H133.29V12.4401H136.978V26.7268Z" fill="#010705"/>
<path d="M151.661 26.7268H147.988V22.0356H145.234L142.683 26.7268H138.805L141.466 21.8225C140.593 21.6182 139.97 21.2033 139.596 20.5778C139.222 19.9523 139.026 19.0738 139.009 17.9424V16.5201C139.009 15.0922 139.332 14.0555 139.979 13.4101C140.626 12.7646 141.663 12.4413 143.091 12.4401H151.661V26.7268ZM142.683 17.9424C142.683 18.7573 143.091 19.1648 143.906 19.1648H147.988V15.2959H143.906C143.091 15.2959 142.683 15.704 142.683 16.5201V17.9424Z" fill="#010705"/>
<path d="M39.4337 7.13403C31.7574 7.67231 19.7708 0 19.7708 0C19.7708 0 7.78414 7.67231 0.107838 7.13403C0.107838 7.13403 -1.10391 35.2665 19.7708 49C40.6455 35.2665 39.4337 7.13403 39.4337 7.13403ZM29.2498 34.4422L29.0628 34.7656C28.9244 35.0048 28.7841 35.2422 28.642 35.4777C26.2447 39.4269 23.2658 41.1464 19.767 43.8004C16.2683 41.1464 13.2894 39.4269 10.8921 35.4777C10.7499 35.2422 10.6097 35.0048 10.4713 34.7656L10.2843 34.4422C8.20548 30.7092 6.63692 26.7144 5.62057 22.5646C4.62176 18.5576 4.03837 14.4584 3.87961 10.3319C7.05859 9.87775 10.7387 8.62925 14.8808 6.59389C16.8629 5.63695 18.5684 4.67254 19.7708 3.96045C20.9732 4.67441 22.6786 5.64256 24.6533 6.60323C28.7953 8.62925 32.483 9.87962 35.6545 10.3413C35.4955 14.4677 34.9121 18.5669 33.9135 22.574C32.8964 26.7205 31.3278 30.7121 29.2498 34.4422Z" fill="#2AB46C"/>
<path d="M29.3131 26.699V23.5497H27.1327V8.7583H13.4201V19.6378C13.4201 20.7954 13.2462 21.7374 12.8984 22.4638C12.5506 23.1902 12.1872 23.5522 11.8082 23.5497H10.228V26.6952H11.2603V27.7269H10.228V31.9416V33.0368H11.2303V32.7453H13.0779V33.0368H14.0802V32.7453H15.5313V33.0368H16.5318V30.3884H23.0094V32.749V33.0406H24.0117V32.749H25.8611V33.0406H26.8634V32.749H28.3164V33.0406H29.3187V27.7307H28.2865V26.699H29.3131ZM16.5318 27.8204H13.5585V24.858H16.5318V27.8204ZM21.7677 23.2806H17.7716V20.0958C17.7716 18.4136 18.2453 16.6817 19.1928 14.8999C20.0567 13.5293 20.9156 12.1506 21.7696 10.7638L21.7677 23.2806ZM25.9789 27.8204H23.0094V24.858H25.9808L25.9789 27.8204Z" fill="#2AB46C"/>
<defs>
<radialGradient id="paint0_radial_13:346" cx="0" cy="0" r="1" gradientUnits="userSpaceOnUse" gradientTransform="translate(75.6217 9.18409) scale(0.151391)">
<stop offset="0.3" stop-color="#004331"/>
<stop offset="0.91" stop-color="#698929"/>
</radialGradient>
</defs>
</svg>
