<svg width="25" height="21" viewBox="0 0 25 21" fill="none" xmlns="http://www.w3.org/2000/svg">
<path fill-rule="evenodd" clip-rule="evenodd" d="M4.93787 8.53374C6.12244 12.6961 6.49629 13.7179 6.91175 15.0901C8.09789 19.0079 8.38577 19.7879 8.70396 20.1891C8.77395 20.2773 8.95543 20.454 9.16125 20.496C9.33504 20.5314 9.47574 20.4648 9.5691 20.4116C9.66246 20.3583 9.86328 20.2225 9.99757 20.0889C11.5304 18.5641 15.0029 14.5633 16.5791 12.6845C17.2459 11.8895 17.2716 11.3822 17.0664 11.08C16.6206 10.4233 18.9801 10.9246 18.1061 10.652C16.7384 10.2253 18.3772 10.4584 17.0465 10.0468C15.5087 9.57111 13.4139 11.343 11.2949 13.3755C10.9922 13.6781 9.93266 15.645 9.7813 15.9476C9.7589 15.9769 9.43242 16.7207 9.32723 16.7041C9.22203 16.6876 9.07536 15.8211 9.0364 15.7434C8.98116 15.6333 8.74295 13.352 8.32175 8.89959C8.26493 8.24318 8.0928 7.74778 7.80546 7.41334C7.48864 7.04464 7.97553 8.01925 7.35956 7.62592C6.60406 7.14347 6.62619 7.43289 6.30007 7.77722C6.13022 7.95658 4.72657 7.87339 4.93787 8.53374Z" fill="black"/>
<path fill-rule="evenodd" clip-rule="evenodd" d="M1.89563 9.2015C8.51409 6.31907 12.9274 4.41879 15.1357 3.50067C21.4406 0.879255 22.7507 0.423888 23.6046 0.408852C23.7924 0.405545 24.2124 0.452071 24.4844 0.672704C24.714 0.859003 24.7772 1.11067 24.8075 1.28729C24.8377 1.46393 24.8754 1.8663 24.8454 2.1807C24.5038 5.76923 23.0254 14.4776 22.2733 18.4968C21.955 20.1975 21.3284 20.7677 20.7217 20.8235C19.4033 20.9448 18.4021 19.9525 17.1252 19.1158C15.127 17.8065 13.9982 16.9914 12.0586 15.7138C9.81708 14.2372 11.2701 13.4257 12.5476 12.0994C12.8819 11.7523 18.6909 6.47064 18.8033 5.99151C18.8174 5.9316 18.8304 5.70823 18.6977 5.59028C18.5649 5.47236 18.369 5.51266 18.2276 5.54477C18.0272 5.59022 14.8351 7.69928 8.65125 11.8719C7.74518 12.4938 6.9245 12.7969 6.18919 12.781C5.37857 12.7635 3.81925 12.3228 2.66006 11.9462C1.23827 11.4842 0.108258 11.2399 0.206657 10.4553C0.257909 10.0466 0.820903 9.6287 1.89563 9.2015Z" fill="black"/>
</svg>
