<svg width="23" height="22" viewBox="0 0 23 22" fill="none" xmlns="http://www.w3.org/2000/svg">
<path d="M19.3485 3.24157C17.3158 1.21672 14.6056 0.0917969 11.7448 0.0917969C5.7973 0.0917969 0.979092 4.89146 0.979092 10.816C0.979092 12.6909 1.50609 14.5658 2.4095 16.1406L0.903809 21.6903L6.62544 20.1904C8.20641 21.0153 9.93794 21.4653 11.7448 21.4653C17.6922 21.4653 22.5105 16.6656 22.5105 10.741C22.4352 7.96624 21.3812 5.26643 19.3485 3.24157ZM16.9394 14.6407C16.7136 15.2407 15.6596 15.8407 15.1326 15.9157C14.6809 15.9907 14.0786 15.9907 13.4763 15.8407C13.0999 15.6907 12.5729 15.5407 11.9706 15.2407C9.26039 14.1158 7.52886 11.416 7.37829 11.191C7.22772 11.041 6.249 9.7661 6.249 8.4162C6.249 7.0663 6.92658 6.46634 7.15242 6.16635C7.37829 5.86639 7.67943 5.86639 7.90527 5.86639C8.05584 5.86639 8.28167 5.86639 8.43224 5.86639C8.58281 5.86639 8.80868 5.79141 9.03452 6.31635C9.26039 6.84132 9.78737 8.19122 9.86267 8.2662C9.93794 8.4162 9.93794 8.5662 9.86267 8.71619C9.78737 8.86616 9.7121 9.01615 9.56153 9.16615C9.41096 9.31615 9.26039 9.54112 9.18509 9.61611C9.03452 9.7661 8.88395 9.9161 9.03452 10.1411C9.18509 10.4411 9.7121 11.266 10.5402 12.016C11.5942 12.9159 12.4223 13.2159 12.7235 13.3659C13.0246 13.5159 13.1752 13.4408 13.3258 13.2908C13.4763 13.1409 14.0033 12.5409 14.1539 12.2409C14.3044 11.9409 14.5303 12.016 14.7562 12.0909C14.982 12.1659 16.3371 12.8409 16.563 12.9909C16.8641 13.1409 17.0147 13.2159 17.09 13.2908C17.1653 13.5159 17.1653 14.0408 16.9394 14.6407Z" fill="black"/>
</svg>
