<?xml version="1.0" standalone="no"?>
<!DOCTYPE svg PUBLIC "-//W3C//DTD SVG 1.1//EN" "http://www.w3.org/Graphics/SVG/1.1/DTD/svg11.dtd" >
<svg xmlns="http://www.w3.org/2000/svg" xmlns:xlink="http://www.w3.org/1999/xlink" version="1.1">
<metadata>
Created by FontForge 20170731 at Fri Jun 11 10:21:52 2021
 By Aleksey,,,
Copyright (c) 2021 by Fontfabric. All rights reserved.
</metadata>
<defs>
<font id="CodeNext-SemiBold" horiz-adv-x="750" >
  <font-face 
    font-family="Code Next"
    font-weight="600"
    font-stretch="normal"
    units-per-em="1000"
    panose-1="0 0 0 0 0 0 0 0 0 0"
    ascent="800"
    descent="-200"
    x-height="530"
    cap-height="700"
    bbox="-476 -291 2007 947"
    underline-thickness="50"
    underline-position="-175"
    unicode-range="U+000D-FB02"
  />
<missing-glyph horiz-adv-x="544" 
d="M19 0v700h506v-700h-506zM272 411l149 223h-298zM87 132l145 218l-145 218v-436zM458 132v436l-146 -218zM123 66h298l-149 223z" />
    <glyph glyph-name="fi" unicode="fi" horiz-adv-x="669" 
d="M536 587q-32 0 -52 20t-20 51t20 51t52 20t52.5 -20t20.5 -51t-20.5 -51t-52.5 -20zM592 528v-528h-111v435h-245v-435h-111v435h-103v93h103v20q0 78 46.5 120t136.5 42q17 0 34.5 -1.5t36.5 -3.5v-87q-28 3 -50 3q-54 0 -74 -18.5t-20 -60.5v-14h357z" />
    <glyph glyph-name="fl" unicode="fl" horiz-adv-x="671" 
d="M125 548q0 78 46.5 120t136.5 42q17 0 34.5 -1.5t36.5 -3.5v-87q-27 3 -50 3q-54 0 -74 -19t-20 -61v-13h139v-93h-138v-435h-111v435h-103v94h103v19zM478 700h111v-700h-111v700z" />
    <glyph glyph-name="f_f" unicode="ff" horiz-adv-x="753" 
d="M685 624q-54 0 -74 -18.5t-20 -61.5v-14h138v-93h-137v-437h-111v437h-245v-437h-111v437h-103v93h103v10q0 79 46 121t134 42q32 0 66 -6v-87q-25 3 -45 3q-53 0 -72 -18.5t-19 -61.5v-7h246v25q0 79 46.5 121t136.5 42q32 0 71 -6v-87q-28 3 -50 3z" />
    <glyph glyph-name="f_f_i" unicode="ffi" horiz-adv-x="1024" 
d="M892 589q-32 0 -52.5 20t-20.5 51t20.5 51t52.5 20t52 -20t20 -51t-20 -51t-52 -20zM947 530v-530h-111v437h-244v-437h-111v437h-245v-437h-111v437h-103v93h103v10q0 79 46 121t134 42q32 0 66 -6v-87q-25 3 -45 3q-53 0 -72 -18.5t-19 -61.5v-6h246v24q0 79 46.5 121
t136.5 42q32 0 71 -6v-87q-28 3 -50 3q-54 0 -74 -18.5t-20 -61.5v-14h356z" />
    <glyph glyph-name="f_f_l" unicode="ffl" horiz-adv-x="1026" 
d="M481 551q0 79 46.5 121t136.5 42q32 0 71 -6v-87q-28 3 -50 3q-54 0 -74 -18.5t-20 -61.5v-14h138v-93h-137v-437h-111v437h-245v-437h-111v437h-103v93h103v10q0 79 46 121t134 42q32 0 66 -6v-87q-25 3 -45 3q-53 0 -72 -18.5t-19 -61.5v-7h246v25zM834 700h111v-700
h-111v700z" />
    <glyph glyph-name=".notdef" horiz-adv-x="544" 
d="M19 0v700h506v-700h-506zM272 411l149 223h-298zM87 132l145 218l-145 218v-436zM458 132v436l-146 -218zM123 66h298l-149 223z" />
    <glyph glyph-name=".null" horiz-adv-x="0" 
 />
    <glyph glyph-name=".null" horiz-adv-x="0" 
 />
    <glyph glyph-name="uni000D" unicode="&#xd;" horiz-adv-x="266" 
 />
    <glyph glyph-name="space" unicode=" " horiz-adv-x="266" 
 />
    <glyph glyph-name="exclam" unicode="!" horiz-adv-x="286" 
d="M92 187l-8 219v294h118v-294l-8 -219h-102zM143 -8q-30 0 -49.5 19.5t-19.5 48.5q0 30 19.5 49t49.5 19t49.5 -19t19.5 -49q0 -29 -19.5 -48.5t-49.5 -19.5z" />
    <glyph glyph-name="quotedbl" unicode="&#x22;" horiz-adv-x="372" 
d="M50 478v222h105v-222h-105zM217 478v222h105v-222h-105z" />
    <glyph glyph-name="numbersign" unicode="#" horiz-adv-x="633" 
d="M583 422h-88l-22 -144h76v-100h-92l-27 -178h-104l28 178h-123l-27 -178h-104l27 178h-77v100h93l22 144h-83v100h99l27 178h104l-28 -178h122l28 178h104l-27 -178h72v-100zM370 278l22 144h-124l-21 -144h123z" />
    <glyph glyph-name="dollar" unicode="$" horiz-adv-x="608" 
d="M568 202q0 -43 -15.5 -79.5t-43.5 -63.5t-68 -44t-88 -23v-82h-96v84q-92 13 -147.5 72t-61.5 153h117q4 -42 28 -70t64 -39v201q-98 21 -149 69t-51 127q0 41 14.5 75t41 60t63 42.5t81.5 22.5v86h96v-87q84 -14 137 -68t63 -138h-116q-5 34 -27 57t-57 34v-184
q106 -22 160.5 -71.5t54.5 -133.5zM175 509q0 -31 18.5 -49t63.5 -32v166q-39 -8 -60.5 -30t-21.5 -55zM353 107q45 8 70 32t25 61q0 33 -22 55.5t-73 36.5v-185z" />
    <glyph glyph-name="percent" unicode="%" horiz-adv-x="899" 
d="M216 377q-36 0 -67 12.5t-53.5 35t-35.5 53t-13 66.5t13 66t35.5 52.5t53.5 35t67 12.5t67 -12.5t53.5 -35t35 -52.5t12.5 -66t-12.5 -66.5t-35 -53t-53.5 -35t-67 -12.5zM210 0l388 700h92l-389 -700h-91zM216 462q35 0 58 23.5t23 58.5q0 36 -23 59t-58 23t-58 -23
t-23 -59t23 -59t58 -23zM683 -10q-36 0 -67 12.5t-53.5 35t-35.5 53t-13 66.5t13 66t35.5 52.5t53.5 35t67 12.5t67 -12.5t53.5 -35t35.5 -52.5t13 -66t-13 -66.5t-35.5 -53t-53.5 -35t-67 -12.5zM683 75q36 0 58.5 23.5t22.5 58.5q0 36 -22.5 59t-58.5 23q-35 0 -58 -23
t-23 -59t23 -59t58 -23z" />
    <glyph glyph-name="ampersand" unicode="&#x26;" horiz-adv-x="631" 
d="M524 120q23 -25 47 -51.5t51 -55.5v-13h-123l-46 49q-41 -29 -90.5 -44t-107.5 -15q-49 0 -89 13.5t-68.5 38.5t-44 60.5t-15.5 79.5q0 37 10.5 66.5t28 54t41 44t49.5 36.5q-42 59 -55.5 97.5t-13.5 72.5q0 39 13.5 68.5t38 49t59 29.5t75.5 10q43 0 78.5 -11.5
t60.5 -32t39 -49.5t14 -64q0 -37 -13.5 -65.5t-36 -52t-51 -43t-58.5 -37.5q26 -31 57.5 -68.5t73.5 -83.5q13 26 20 56t7 64h109q0 -60 -15.5 -111t-44.5 -92zM287 613q-36 0 -57.5 -18.5t-21.5 -48.5q0 -20 10.5 -45.5t38.5 -66.5q23 13 43 25.5t35 26t23.5 29t8.5 34.5
q0 29 -22.5 46.5t-57.5 17.5zM267 93q64 0 115 34q-48 53 -86 96t-67 78q-34 -23 -56 -50.5t-22 -65.5q0 -43 30.5 -67.5t85.5 -24.5z" />
    <glyph glyph-name="quotesingle" unicode="'" horiz-adv-x="205" 
d="M50 478v222h105v-222h-105z" />
    <glyph glyph-name="parenleft" unicode="(" horiz-adv-x="401" 
d="M369 -168q-75 38 -133 90.5t-98 116.5t-61 138.5t-21 156.5q0 81 20.5 155.5t60.5 139t97.5 117.5t130.5 91v-129q-92 -60 -142 -157.5t-50 -216.5q0 -118 51 -215.5t145 -157.5v-129z" />
    <glyph glyph-name="parenright" unicode=")" horiz-adv-x="401" 
d="M33 -39q94 60 144.5 157.5t50.5 215.5q0 119 -50 216.5t-141 157.5v129q73 -38 130.5 -91t97 -117.5t60 -139t20.5 -155.5q0 -82 -21 -156.5t-61 -138.5t-98 -116.5t-132 -90.5v129z" />
    <glyph glyph-name="asterisk" unicode="*" horiz-adv-x="396" 
d="M125 368l-63 46l74 101l-116 35l23 74l115 -38v122h81v-122l113 38l24 -74l-116 -35l75 -101l-64 -46l-73 104z" />
    <glyph glyph-name="plus" unicode="+" horiz-adv-x="490" 
d="M442 395v-97h-147v-157h-100v157h-147v97h147v155h100v-155h147z" />
    <glyph glyph-name="comma" unicode="," horiz-adv-x="305" 
d="M67 -110v8l47 219h117v-26l-64 -201h-100z" />
    <glyph glyph-name="hyphen" unicode="-" horiz-adv-x="408" 
d="M48 243v103h313v-103h-313z" />
    <glyph glyph-name="period" unicode="." horiz-adv-x="268" 
d="M134 -8q-30 0 -49.5 19.5t-19.5 48.5q0 30 19.5 49t49.5 19t49.5 -19t19.5 -49q0 -29 -19.5 -48.5t-49.5 -19.5z" />
    <glyph glyph-name="slash" unicode="/" horiz-adv-x="428" 
d="M19 -50v12l281 794h109v-12l-280 -794h-110z" />
    <glyph glyph-name="zero" unicode="0" horiz-adv-x="674" 
d="M337 -10q-66 0 -118 25t-87.5 72t-54.5 113.5t-19 149.5t19 150t54.5 113.5t87.5 71.5t118 25t117.5 -25t87.5 -71.5t54.5 -113.5t18.5 -150t-18.5 -149.5t-54.5 -113.5t-87.5 -72t-117.5 -25zM337 101q80 0 120 65.5t40 183.5q0 119 -40 184t-120 65q-81 0 -121 -65
t-40 -184q0 -118 40 -183.5t121 -65.5z" />
    <glyph glyph-name="one" unicode="1" horiz-adv-x="406" 
d="M241 700h77v-700h-115v371l1 173l-142 -90l-53 83z" />
    <glyph glyph-name="two" unicode="2" horiz-adv-x="568" 
d="M313 110h211v-110h-487v77l261 244q29 27 48.5 48.5t31.5 41t17 37.5t5 37q0 52 -31 82t-86 30q-57 0 -88.5 -33.5t-31.5 -95.5h-114q0 55 16.5 100t47 76.5t73.5 48.5t97 17t97 -16.5t74 -45.5t47.5 -69.5t16.5 -88.5q0 -64 -33.5 -122.5t-111.5 -129.5l-145 -131z" />
    <glyph glyph-name="three" unicode="3" horiz-adv-x="562" 
d="M412 366q54 -25 83 -70.5t29 -103.5q0 -45 -18 -82t-50 -63.5t-77 -41.5t-99 -15q-55 0 -99.5 15t-76 43t-49 66.5t-19.5 86.5h117q2 -45 34.5 -72t89.5 -27q60 0 94.5 27.5t34.5 75.5t-35 76t-97 28h-72v106h72q48 0 78.5 26t30.5 68q0 41 -30.5 67t-81.5 26
q-49 0 -77.5 -24t-29.5 -61h-116q1 44 17.5 79.5t46 61t70.5 39t92 13.5q50 0 91.5 -14t71 -39t46 -59.5t16.5 -76.5q0 -50 -22 -89.5t-65 -65.5z" />
    <glyph glyph-name="four" unicode="4" horiz-adv-x="580" 
d="M468 261h89v-107h-89v-154h-116v154h-344v87l363 459h97v-439zM356 259v79l1 179l-206 -258h205z" />
    <glyph glyph-name="five" unicode="5" horiz-adv-x="579" 
d="M299 476q53 0 97 -18t76 -50.5t50 -76.5t18 -97t-18.5 -98t-51.5 -77.5t-78.5 -50.5t-99.5 -18t-98.5 15t-77 43t-51 66.5t-18.5 84.5h115q2 -43 39 -70.5t91 -27.5q29 0 53 10t41 27.5t27 42t10 53.5q0 59 -35.5 96t-96.5 37q-63 0 -117 -47h-112l34 380h405v-109h-304
l-7 -75l-7 -68q57 28 116 28z" />
    <glyph glyph-name="six" unicode="6" horiz-adv-x="595" 
d="M325 465q50 0 92.5 -17.5t73.5 -48.5t48 -74t17 -94q0 -53 -19 -97.5t-53.5 -77t-81.5 -50.5t-103 -18q-57 0 -104 18t-81 50t-53 76.5t-19 98.5q0 26 5 50t16 50.5t29 57.5t44 70l164 241h130v-12l-160 -229q27 6 55 6zM299 99q63 0 101.5 36t38.5 96t-38.5 96
t-101.5 36t-101.5 -36t-38.5 -96t38.5 -96t101.5 -36z" />
    <glyph glyph-name="seven" unicode="7" horiz-adv-x="546" 
d="M29 700h496v-77l-326 -623h-124v12l306 578h-352v110z" />
    <glyph glyph-name="eight" unicode="8" horiz-adv-x="595" 
d="M444 368q53 -26 83 -71t30 -103q0 -45 -19 -82.5t-53.5 -64.5t-82.5 -42t-105 -15t-104.5 15t-82 42t-53.5 64.5t-19 82.5q0 58 30 103t83 71q-38 26 -59.5 64.5t-21.5 85.5q0 41 17 76.5t47.5 61t72 40t90.5 14.5t90.5 -14.5t72 -40t48 -61t17.5 -76.5
q0 -47 -21.5 -85.5t-59.5 -64.5zM297 606q-52 0 -84 -26.5t-32 -70.5t32 -70.5t84 -26.5q53 0 85 26.5t32 70.5t-32 70.5t-85 26.5zM297 100q66 0 103.5 28.5t37.5 77.5q0 48 -37.5 76.5t-103.5 28.5q-65 0 -103 -28.5t-38 -76.5q0 -49 38 -77.5t103 -28.5z" />
    <glyph glyph-name="nine" unicode="9" horiz-adv-x="599" 
d="M298 712q57 0 104 -18t81 -50t53 -76.5t19 -98.5q0 -25 -4.5 -49.5t-15.5 -51t-29 -57.5t-44 -70l-164 -241h-131v12l160 228q-14 -2 -27.5 -3.5t-27.5 -1.5q-50 0 -92.5 17.5t-73 48.5t-48 74t-17.5 94q0 53 19.5 97.5t53.5 77t81.5 50.5t102.5 18zM299 337q63 0 101 36
t38 96t-38 96t-101 36t-101.5 -36t-38.5 -96t38.5 -96t101.5 -36z" />
    <glyph glyph-name="colon" unicode=":" horiz-adv-x="268" 
d="M134 367q-30 0 -49.5 19.5t-19.5 49.5q0 29 19.5 48.5t49.5 19.5t49.5 -19.5t19.5 -48.5q0 -30 -19.5 -49.5t-49.5 -19.5zM134 -8q-30 0 -49.5 19.5t-19.5 48.5q0 30 19.5 49t49.5 19t49.5 -19t19.5 -49q0 -29 -19.5 -48.5t-49.5 -19.5z" />
    <glyph glyph-name="semicolon" unicode=";" horiz-adv-x="306" 
d="M172 367q-30 0 -49.5 19.5t-19.5 49.5q0 29 19.5 48.5t49.5 19.5t49.5 -19.5t19.5 -48.5q0 -30 -19.5 -49.5t-49.5 -19.5zM67 -110v8l47 219h117v-26l-64 -201h-100z" />
    <glyph glyph-name="less" unicode="&#x3c;" horiz-adv-x="472" 
d="M421 462l-234 -115l234 -116v-120h-12l-379 199v75l379 197h12v-120z" />
    <glyph glyph-name="equal" unicode="=" horiz-adv-x="478" 
d="M48 376v94h382v-94h-382zM48 188v94h382v-94h-382z" />
    <glyph glyph-name="greater" unicode="&#x3e;" horiz-adv-x="471" 
d="M63 582l379 -197v-75l-379 -199h-13v120l234 116l-234 115v120h13z" />
    <glyph glyph-name="question" unicode="?" horiz-adv-x="520" 
d="M198 187v30q0 57 21 93t73 68q49 30 68 55t19 61q0 48 -31 75.5t-86 27.5q-58 0 -89 -33.5t-31 -94.5h-114q0 55 16.5 99.5t47 76t73.5 48.5t97 17t97.5 -15t74 -43t47 -67.5t16.5 -88.5q0 -61 -26 -103t-88 -80q-39 -25 -54 -48t-15 -59v-19h-116zM256 -8
q-30 0 -49.5 19.5t-19.5 48.5q0 30 19.5 49t49.5 19t49.5 -19t19.5 -49q0 -29 -19.5 -48.5t-49.5 -19.5z" />
    <glyph glyph-name="at" unicode="@" horiz-adv-x="832" 
d="M450 8q79 0 145 19.5t126 56.5l40 -73q-67 -45 -143 -67t-169 -22q-91 0 -164.5 26.5t-125.5 75t-80.5 117.5t-28.5 153q0 85 29.5 156t82.5 122.5t126 80t159 28.5q79 0 144.5 -24.5t113 -68.5t74 -105t26.5 -134q0 -53 -13.5 -97t-38.5 -76t-59 -49.5t-76 -17.5
q-37 0 -62.5 16t-32.5 42q-26 -28 -59.5 -43t-70.5 -15q-33 0 -60.5 12t-47.5 33.5t-31 51.5t-11 65q0 50 14 91.5t39.5 71.5t60.5 46.5t77 16.5q34 0 63.5 -13.5t49.5 -37.5l12 36h78l-45 -225q-14 -67 33 -67q40 0 65.5 44t25.5 114q0 56 -19.5 101.5t-55 78t-85.5 50.5
t-110 18q-65 0 -120 -22.5t-95 -62.5t-62.5 -96t-22.5 -123q0 -66 22 -118.5t61.5 -89t95.5 -56.5t125 -20zM413 196q22 0 41 10t33 28t22 42.5t8 52.5q0 36 -20.5 58.5t-53.5 22.5q-22 0 -41 -10t-33 -28t-22 -42t-8 -53q0 -36 21 -58.5t53 -22.5z" />
    <glyph glyph-name="A" unicode="A" horiz-adv-x="661" 
d="M376 700l276 -688v-12h-123l-57 150h-283l-58 -150h-122v12l276 688h91zM330 522l-102 -266h205z" />
    <glyph glyph-name="B" unicode="B" horiz-adv-x="624" 
d="M491 373q45 -24 70 -69t25 -102q0 -46 -15 -83t-43 -63.5t-66.5 -41t-85.5 -14.5h-288v700h272q43 0 79 -13t61.5 -37t40 -58t14.5 -75q0 -45 -16.5 -81.5t-47.5 -62.5zM203 590v-174h148q43 0 64.5 23.5t21.5 64.5t-23.5 63.5t-65.5 22.5h-145zM366 111q47 0 74 25.5
t27 74.5q0 47 -26 73t-73 26h-165v-199h163z" />
    <glyph glyph-name="C" unicode="C" horiz-adv-x="781" 
d="M400 -10q-76 0 -140 27t-110.5 75t-73 114t-26.5 144t26.5 144t73 114t110.5 75t140 27q63 0 119 -18.5t100.5 -53t75.5 -83t45 -108.5h-121q-23 69 -80.5 108.5t-135.5 39.5q-51 0 -93.5 -18t-73.5 -50.5t-48 -77.5t-17 -99t17 -99t48 -77.5t73.5 -50.5t93.5 -18
q78 0 136.5 41.5t82.5 113.5h119q-13 -61 -44.5 -111t-76 -85.5t-100.5 -54.5t-120 -19z" />
    <glyph glyph-name="D" unicode="D" horiz-adv-x="745" 
d="M88 0v700h247q80 0 146 -25.5t113.5 -72t74 -110.5t26.5 -142t-26.5 -142t-74 -110.5t-113.5 -72t-146 -25.5h-247zM205 113h123q57 0 102.5 17t77.5 48t49 75t17 97q0 54 -17 97.5t-49 74.5t-77.5 48t-102.5 17h-123v-474z" />
    <glyph glyph-name="E" unicode="E" horiz-adv-x="573" 
d="M205 113h319v-113h-436v700h429v-112h-312v-179h292v-111h-292v-185z" />
    <glyph glyph-name="F" unicode="F" horiz-adv-x="544" 
d="M501 588h-296v-192h270v-111h-270v-285h-117v700h413v-112z" />
    <glyph glyph-name="G" unicode="G" horiz-adv-x="797" 
d="M751 361q1 -82 -24.5 -150.5t-72 -117.5t-111 -76t-142.5 -27q-76 0 -140.5 27t-111 75t-73 114t-26.5 144t26 144t72.5 114t111 75t140.5 27q62 0 117 -18t99 -51t76 -80t47 -106h-122q-26 66 -82 103t-131 37q-51 0 -94 -18t-74 -50.5t-48 -77.5t-17 -99t17 -99
t48 -77.5t74 -50.5t94 -18q78 0 136.5 40t81.5 110h-248v106h377z" />
    <glyph glyph-name="H" unicode="H" horiz-adv-x="722" 
d="M517 700h118v-700h-118v299h-312v-299h-117v700h117v-288h312v288z" />
    <glyph glyph-name="I" unicode="I" horiz-adv-x="466" 
d="M292 108h121v-108h-360v108h121v486h-119v106h356v-106h-119v-486z" />
    <glyph glyph-name="J" unicode="J" horiz-adv-x="491" 
d="M123 700h292v-419q0 -141 -68 -215.5t-211 -74.5q-49 0 -106 9v115q50 -9 88 -9q95 0 137 48.5t42 133.5v301h-174v111z" />
    <glyph glyph-name="K" unicode="K" horiz-adv-x="630" 
d="M343 356l272 -344v-12h-140l-269 352v-352h-118v700h118v-346l258 346h135v-12z" />
    <glyph glyph-name="L" unicode="L" horiz-adv-x="548" 
d="M205 113h321v-113h-438v700h117v-587z" />
    <glyph glyph-name="M" unicode="M" horiz-adv-x="850" 
d="M670 700h92v-700h-118v472l-186 -267h-65l-188 268v-473h-117v700h92l246 -355z" />
    <glyph glyph-name="N" unicode="N" horiz-adv-x="722" 
d="M635 700v-700h-91l-339 467v-467h-117v700h89l340 -469v469h118z" />
    <glyph glyph-name="O" unicode="O" horiz-adv-x="813" 
d="M407 -10q-78 0 -143.5 27t-113 75t-74 114t-26.5 144t26.5 144t74 114t113 75t143.5 27q77 0 142.5 -27t113 -75t74 -114t26.5 -144t-26.5 -144t-74 -114t-113 -75t-142.5 -27zM407 105q52 0 95 18t74 50.5t48.5 77.5t17.5 99t-17.5 99t-48.5 77.5t-74 50.5t-95 18
t-95 -18t-74.5 -50.5t-49 -77.5t-17.5 -99t17.5 -99t49 -77.5t74.5 -50.5t95 -18z" />
    <glyph glyph-name="P" unicode="P" horiz-adv-x="601" 
d="M347 700q53 0 96 -17.5t74 -49t47.5 -75.5t16.5 -98t-16.5 -97.5t-47.5 -75t-74 -48.5t-96 -17h-142v-222h-117v700h259zM334 331q60 0 93.5 34.5t33.5 94.5q0 59 -33.5 94t-93.5 35h-129v-258h129z" />
    <glyph glyph-name="Q" unicode="Q" horiz-adv-x="816" 
d="M795 -41v-13h-122l-82 94q-40 -24 -86.5 -37t-97.5 -13q-78 0 -143.5 27t-113 75t-74 114t-26.5 144t26.5 144t74 114t113 75t143.5 27q77 0 142.5 -27t113 -75t74 -114t26.5 -144q0 -74 -24.5 -136t-68.5 -110zM171 350q0 -54 17.5 -99t49 -77.5t74.5 -50.5t95 -18
q30 0 57.5 6.5t51.5 17.5l-145 168v12h121l101 -116q23 32 36 71.5t13 85.5q0 54 -17.5 99t-48.5 77.5t-74 50.5t-95 18t-95 -18t-74.5 -50.5t-49 -77.5t-17.5 -99z" />
    <glyph glyph-name="R" unicode="R" horiz-adv-x="623" 
d="M602 12v-12h-138l-235 301v57h113q54 0 85.5 30t31.5 84t-33 85t-88 31h-133v-588h-117v700h254q59 0 103 -19t74 -50t45 -71.5t15 -83.5q0 -37 -11.5 -72t-34 -63.5t-57 -48.5t-79.5 -28z" />
    <glyph glyph-name="S" unicode="S" horiz-adv-x="608" 
d="M308 -10q-57 0 -103 16t-80 45.5t-54 72t-23 95.5h117q5 -54 43 -85t100 -31q66 0 103 26t37 71q0 42 -35.5 66.5t-120.5 38.5q-114 18 -172.5 66t-58.5 136q0 45 18 82.5t50 64.5t77 41.5t99 14.5q108 0 174.5 -56.5t77.5 -153.5h-118q-9 50 -44 74t-92 24
q-58 0 -91 -23.5t-33 -65.5q0 -20 7.5 -35.5t25 -27t47 -20t72.5 -15.5q117 -19 177 -70t60 -139q0 -48 -19 -87.5t-53.5 -67t-82 -42.5t-105.5 -15z" />
    <glyph glyph-name="T" unicode="T" horiz-adv-x="567" 
d="M541 700v-111h-198v-589h-118v589h-198v111h514z" />
    <glyph glyph-name="U" unicode="U" horiz-adv-x="694" 
d="M347 -8q-61 0 -111 18t-85 51.5t-54.5 81.5t-19.5 107v450h118v-437q0 -74 41 -114.5t111 -40.5t111 40.5t41 114.5v437h118v-450q0 -59 -19.5 -107t-55 -81.5t-85 -51.5t-110.5 -18z" />
    <glyph glyph-name="V" unicode="V" horiz-adv-x="662" 
d="M528 700h121v-12l-275 -688h-86l-274 688v12h122l196 -511l139 360z" />
    <glyph glyph-name="W" unicode="W" horiz-adv-x="987" 
d="M854 700h117v-12l-224 -688h-86l-100 239l-67 159l-68 -159l-99 -239h-86l-226 688v12h121l55 -177l102 -320l162 373h78l162 -374l101 319z" />
    <glyph glyph-name="X" unicode="X" horiz-adv-x="662" 
d="M407 364l236 -352v-12h-134l-138 211l-40 60l-38 -60l-140 -211h-134v12l236 351l-216 325v12h132l111 -169l50 -75l49 75l112 169h132v-12z" />
    <glyph glyph-name="Y" unicode="Y" horiz-adv-x="634" 
d="M624 700v-13l-247 -403v-284h-118v280l-248 408v12h131l102 -173l73 -123l176 296h131z" />
    <glyph glyph-name="Z" unicode="Z" horiz-adv-x="596" 
d="M563 113v-113h-529v72l359 517h-345v111h510v-71l-358 -516h363z" />
    <glyph glyph-name="bracketleft" unicode="[" horiz-adv-x="312" 
d="M88 -122v934h204v-100h-90v-734h92v-100h-206z" />
    <glyph glyph-name="backslash" unicode="\" horiz-adv-x="428" 
d="M299 -50l-280 794v12h109l281 -794v-12h-110z" />
    <glyph glyph-name="bracketright" unicode="]" horiz-adv-x="312" 
d="M224 -122h-206v100h92v734h-90v100h204v-934z" />
    <glyph glyph-name="asciicircum" unicode="^" horiz-adv-x="525" 
d="M303 700l202 -370v-8h-122l-53 99l-68 129l-122 -228h-120v8l202 370h81z" />
    <glyph glyph-name="underscore" unicode="_" horiz-adv-x="480" 
d="M0 -139v104h480v-104h-480z" />
    <glyph glyph-name="grave" unicode="`" horiz-adv-x="405" 
d="M284 583h-107l-100 132v8h131l76 -133v-7z" />
    <glyph glyph-name="a" unicode="a" horiz-adv-x="681" 
d="M495 530h105v-530h-105l-2 62q-35 -35 -81.5 -53.5t-102.5 -18.5q-59 0 -108 20.5t-84 57.5t-54.5 87t-19.5 110t20 110.5t55 87t84 57t107 20.5q56 0 102.5 -18.5t81.5 -52.5zM323 94q37 0 67.5 12.5t53 35t35 54t12.5 69.5t-12.5 69.5t-35 54t-53 35t-67.5 12.5
q-36 0 -67 -12.5t-53 -35t-34.5 -54t-12.5 -69.5t12.5 -69.5t34.5 -54t53 -35t67 -12.5z" />
    <glyph glyph-name="b" unicode="b" horiz-adv-x="682" 
d="M374 540q58 0 106.5 -20.5t84 -57t55 -87t19.5 -110.5q0 -59 -19.5 -109.5t-54.5 -87t-83.5 -57.5t-107.5 -21q-57 0 -104 19t-82 54l-2 -63h-105v700h111v-229q35 33 81 51t101 18zM359 94q37 0 67.5 12.5t53 35t35 54t12.5 69.5t-12.5 69.5t-35 54t-53 35t-67.5 12.5
t-68 -12.5t-53.5 -35t-35 -54t-12.5 -69.5t12.5 -69.5t35 -54t53.5 -35t68 -12.5z" />
    <glyph glyph-name="c" unicode="c" horiz-adv-x="620" 
d="M318 -10q-60 0 -110.5 20t-87 56.5t-57 87t-20.5 110.5q0 61 20 112t56.5 87.5t87 56.5t111.5 20q51 0 95 -14.5t78.5 -41.5t58.5 -65t34 -86h-111q-18 49 -58 76t-95 27q-37 0 -67 -12.5t-52 -35t-34 -54t-12 -70.5q0 -38 12 -69t34 -53.5t52 -35t67 -12.5q57 0 96.5 27
t56.5 77h112q-10 -48 -34 -86.5t-58.5 -65.5t-79 -41.5t-95.5 -14.5z" />
    <glyph glyph-name="d" unicode="d" horiz-adv-x="682" 
d="M490 700h111v-700h-105l-2 63q-35 -35 -82 -54t-104 -19q-58 0 -107 21t-84 57.5t-54.5 87t-19.5 109.5q0 60 19.5 110.5t55 87t84 57t106.5 20.5q55 0 101 -18t81 -51v229zM323 94q37 0 68 12.5t53.5 35t35 54t12.5 69.5t-12.5 69.5t-35 54t-53.5 35t-68 12.5
t-67.5 -12.5t-53 -35t-35 -54t-12.5 -69.5t12.5 -69.5t35 -54t53 -35t67.5 -12.5z" />
    <glyph glyph-name="e" unicode="e" horiz-adv-x="634" 
d="M157 228q11 -62 54 -99t107 -37q48 0 85 19t56 51h120q-28 -80 -97.5 -126t-163.5 -46q-60 0 -110 20.5t-87 57t-57.5 87t-20.5 110.5t20.5 110.5t57.5 87t87 57t110 20.5q65 0 118 -22.5t89.5 -63.5t55 -98.5t12.5 -127.5h-436zM318 438q-61 0 -102.5 -33.5t-55.5 -90.5
h320q-14 55 -56.5 89.5t-105.5 34.5z" />
    <glyph glyph-name="f" unicode="f" horiz-adv-x="397" 
d="M329 621q-54 0 -74 -19t-20 -61v-13h139v-93h-138v-435h-111v435h-103v94h103v19q0 78 46.5 120t136.5 42q17 0 34.5 -1.5t36.5 -3.5v-87q-27 3 -50 3z" />
    <glyph glyph-name="g" unicode="g" horiz-adv-x="672" 
d="M486 530h105v-453q0 -59 -20.5 -104.5t-57 -77t-85.5 -48t-106 -16.5q-48 0 -91.5 10.5t-78 32.5t-58 55t-30.5 77h112q6 -20 19.5 -34t32 -23t41 -13.5t45.5 -4.5q36 0 66.5 9t53 27t35 44.5t12.5 61.5v23q-35 -32 -80.5 -50t-97.5 -18q-56 0 -103.5 19t-82.5 53
t-54.5 81t-19.5 102t19.5 102t54 81.5t82.5 54t104 19.5q54 0 100 -19t81 -52zM319 126q36 0 66 11.5t51.5 32t33.5 49t12 63.5q0 72 -45 114t-118 42q-36 0 -66 -11.5t-51.5 -32.5t-33.5 -49.5t-12 -62.5t12 -62.5t33.5 -49.5t51.5 -32.5t66 -11.5z" />
    <glyph glyph-name="h" unicode="h" horiz-adv-x="658" 
d="M366 539q109 0 164 -62.5t55 -177.5v-299h-111v291q0 147 -129 147q-70 0 -111.5 -40t-41.5 -107v-291h-111v700h111v-235q33 35 77.5 54.5t96.5 19.5z" />
    <glyph glyph-name="i" unicode="i" horiz-adv-x="274" 
d="M136 590q-33 0 -54.5 21t-21.5 53t21.5 54t54.5 22q34 0 55.5 -22t21.5 -54t-21.5 -53t-55.5 -21zM81 0v530h111v-530h-111z" />
    <glyph glyph-name="j" unicode="j" horiz-adv-x="275" 
d="M137 590q-33 0 -54.5 21t-21.5 53t21.5 54t54.5 22q34 0 55.5 -22t21.5 -54t-21.5 -53t-55.5 -21zM18 -168q-14 0 -29 1.5t-32 3.5v98q19 -3 38 -3q46 0 66.5 19t20.5 64v515h111v-527q0 -89 -43.5 -130t-131.5 -41z" />
    <glyph glyph-name="k" unicode="k" horiz-adv-x="553" 
d="M81 0v700h111v-700h-111zM324 269l215 -261v-8h-134l-201 252v26l190 252h128v-8z" />
    <glyph glyph-name="l" unicode="l" horiz-adv-x="274" 
d="M81 0v700h111v-700h-111z" />
    <glyph glyph-name="m" unicode="m" horiz-adv-x="1009" 
d="M726 539q103 0 156 -61t53 -179v-299h-111v293q0 145 -118 145q-66 0 -104 -39.5t-38 -105.5v-293h-111v293q0 145 -119 145q-65 0 -103.5 -39.5t-38.5 -105.5v-293h-111v530h109l1 -65q31 36 73 55t92 19q124 0 175 -93q76 93 195 93z" />
    <glyph glyph-name="n" unicode="n" horiz-adv-x="658" 
d="M370 539q104 0 159.5 -62.5t55.5 -177.5v-299h-111v291q0 147 -129 147q-70 0 -111.5 -40t-41.5 -107v-291h-111v530h109l1 -65q33 35 77.5 54.5t101.5 19.5z" />
    <glyph glyph-name="o" unicode="o" horiz-adv-x="646" 
d="M323 -10q-61 0 -112.5 20.5t-89 57t-58 87t-20.5 110.5t20.5 110.5t58 87t89 57t112.5 20.5t112.5 -20.5t88.5 -57t58 -87t21 -110.5t-21 -110.5t-58 -87t-88.5 -57t-112.5 -20.5zM323 94q36 0 67 12.5t53 35.5t34.5 54.5t12.5 68.5q0 38 -12.5 69t-34.5 54t-53 35.5
t-67 12.5t-67 -12.5t-53 -35.5t-34.5 -54t-12.5 -69q0 -37 12.5 -68.5t34.5 -54.5t53 -35.5t67 -12.5z" />
    <glyph glyph-name="p" unicode="p" horiz-adv-x="682" 
d="M374 540q58 0 106.5 -20.5t84 -57t55 -87t19.5 -110.5q0 -59 -19.5 -109.5t-54.5 -87t-83.5 -57.5t-107.5 -21q-55 0 -101 18t-81 51v-216h-111v687h105l2 -63q35 35 82 54t104 19zM359 94q37 0 67.5 12.5t53 35t35 54t12.5 69.5t-12.5 69.5t-35 54t-53 35t-67.5 12.5
t-68 -12.5t-53.5 -35t-35 -54t-12.5 -69.5t12.5 -69.5t35 -54t53.5 -35t68 -12.5z" />
    <glyph glyph-name="q" unicode="q" horiz-adv-x="682" 
d="M496 530h105v-687h-111v216q-35 -33 -81 -51t-101 -18q-58 0 -107 21t-84 57.5t-54.5 87t-19.5 109.5q0 60 19.5 110.5t55 87t84 57t106.5 20.5q57 0 104 -19t82 -54zM323 94q37 0 68 12.5t53.5 35t35 54t12.5 69.5t-12.5 69.5t-35 54t-53.5 35t-68 12.5t-67.5 -12.5
t-53 -35t-35 -54t-12.5 -69.5t12.5 -69.5t35 -54t53 -35t67.5 -12.5z" />
    <glyph glyph-name="r" unicode="r" horiz-adv-x="433" 
d="M343 538q29 0 64 -8v-101q-14 3 -28 5t-28 2q-35 0 -64 -11t-50 -31t-33 -49t-12 -64v-281h-111v530h108l2 -67q57 75 152 75z" />
    <glyph glyph-name="s" unicode="s" horiz-adv-x="535" 
d="M270 -9q-102 0 -161.5 46.5t-63.5 128.5h112q3 -38 33.5 -57.5t81.5 -19.5t82 15.5t31 47.5q0 14 -5.5 24t-20 17.5t-38.5 13t-61 10.5q-55 8 -94.5 21.5t-65 33t-37 46.5t-11.5 62q0 39 17 69t46 50t69 30.5t86 10.5q94 0 150.5 -44t61.5 -120h-110q-4 32 -31 49.5
t-74 17.5q-49 0 -76 -16t-27 -45q0 -15 6.5 -25.5t21.5 -18.5t39.5 -14t60.5 -11q46 -6 84 -17t65 -29t41.5 -45t14.5 -65q0 -42 -17.5 -73t-48 -51.5t-72 -31t-89.5 -10.5z" />
    <glyph glyph-name="t" unicode="t" horiz-adv-x="415" 
d="M327 96q11 0 23.5 1t26.5 3v-100q-18 -2 -36 -3.5t-33 -1.5q-93 0 -140 42t-47 133v267h-103v93h103v121l111 12v-133h138v-93h-138v-254q0 -47 22.5 -67t72.5 -20z" />
    <glyph glyph-name="u" unicode="u" horiz-adv-x="646" 
d="M462 530h111v-530h-109l-1 65q-68 -74 -177 -74q-103 0 -158 62t-55 178v299h111v-293q0 -145 127 -145q69 0 110 39.5t41 106.5v292z" />
    <glyph glyph-name="v" unicode="v" horiz-adv-x="553" 
d="M423 530h117v-8l-220 -522h-87l-220 522v8h118l88 -224l58 -151l58 152z" />
    <glyph glyph-name="w" unicode="w" horiz-adv-x="857" 
d="M728 530h115v-7l-186 -523h-93l-77 187l-59 151l-59 -151l-78 -187h-91l-185 523v7h115l121 -367l137 334h82l136 -334z" />
    <glyph glyph-name="x" unicode="x" horiz-adv-x="554" 
d="M345 268l189 -260v-8h-126l-133 188l-62 -90l-70 -98h-126v8l188 259l-181 255v8h123l129 -185l127 185h122v-8z" />
    <glyph glyph-name="y" unicode="y" horiz-adv-x="556" 
d="M422 530h121v-8l-300 -679h-120v7l93 207l-203 465v8h121l80 -193l62 -153l63 152z" />
    <glyph glyph-name="z" unicode="z" horiz-adv-x="502" 
d="M471 100v-100h-439v65l275 366h-256v99h413v-61l-278 -369h285z" />
    <glyph glyph-name="braceleft" unicode="{" horiz-adv-x="332" 
d="M314 -22v-100h-88q-56 0 -87.5 32.5t-31.5 93.5v197q0 42 -16.5 65t-62.5 28v95q46 4 62.5 27t16.5 66v204q0 61 31.5 93.5t87.5 32.5h87v-100h-55q-20 0 -28 -8t-8 -28v-212q0 -91 -62 -123q62 -32 62 -123v-204q0 -20 8 -28t28 -8h56z" />
    <glyph glyph-name="bar" unicode="|" horiz-adv-x="293" 
d="M88 -131v912h117v-912h-117z" />
    <glyph glyph-name="braceright" unicode="}" horiz-adv-x="332" 
d="M225 482q0 -43 16.5 -66t62.5 -27v-95q-46 -5 -62.5 -28t-16.5 -65v-197q0 -61 -31.5 -93.5t-87.5 -32.5h-88v100h56q20 0 28 8t8 28v204q0 91 62 123q-62 32 -62 123v212q0 20 -8 28t-28 8h-55v100h87q56 0 87.5 -32.5t31.5 -93.5v-204z" />
    <glyph glyph-name="asciitilde" unicode="~" horiz-adv-x="567" 
d="M381 236q-33 0 -61 13t-54 29q-20 13 -38 22t-35 9q-27 0 -48.5 -14t-42.5 -44l-67 68q33 51 70 77.5t82 26.5q37 0 67.5 -15.5t56.5 -32.5q20 -13 36.5 -22t33.5 -9q23 0 44 12.5t44 44.5l63 -66q-29 -52 -68 -75.5t-83 -23.5z" />
    <glyph glyph-name="uni00A0" unicode="&#xa0;" horiz-adv-x="266" 
 />
    <glyph glyph-name="exclamdown" unicode="&#xa1;" horiz-adv-x="286" 
d="M143 540q30 0 49.5 -19.5t19.5 -48.5q0 -30 -19.5 -49t-49.5 -19t-49.5 19t-19.5 49q0 29 19.5 48.5t49.5 19.5zM194 345l8 -219v-294h-118v294l8 219h102z" />
    <glyph glyph-name="cent" unicode="&#xa2;" horiz-adv-x="620" 
d="M585 198q-17 -82 -74 -137t-145 -68v-83h-96v83q-51 8 -93 31t-71.5 58.5t-46 81.5t-16.5 100t16 100.5t46 82.5t72 59t93 31v78h96v-78q86 -13 143 -67.5t75 -136.5h-110q-14 37 -41.5 62.5t-66.5 35.5v-332q40 10 67 35.5t41 63.5h111zM155 264q0 -63 30.5 -106
t84.5 -58v329q-54 -14 -84.5 -58t-30.5 -107z" />
    <glyph glyph-name="sterling" unicode="&#xa3;" horiz-adv-x="569" 
d="M229 110h321v-110h-520v110h84v170h-78v107h78v121q0 47 16.5 84t45 63.5t67 40.5t83.5 14q44 0 81.5 -13.5t65.5 -39.5t43.5 -63.5t15.5 -85.5h-108q0 48 -27.5 73.5t-69.5 25.5t-70 -28.5t-28 -77.5v-114h186v-107h-186v-170z" />
    <glyph glyph-name="currency" unicode="&#xa4;" horiz-adv-x="539" 
d="M457 363q0 -57 -28 -102l60 -59l-58 -59l-60 61q-22 -13 -47 -20t-54 -7t-54.5 7t-47.5 20l-60 -61l-58 59l60 59q-28 45 -28 102t28 102l-60 59l58 59l60 -61q22 13 47.5 20t54.5 7t54 -7t47 -20l60 61l58 -59l-60 -59q28 -45 28 -102zM168 363q0 -44 28.5 -73t73.5 -29
q44 0 73 29t29 73t-29 73t-73 29q-45 0 -73.5 -29t-28.5 -73z" />
    <glyph glyph-name="yen" unicode="&#xa5;" horiz-adv-x="633" 
d="M623 700v-13l-207 -337h130v-88h-170v-66h170v-89h-170v-107h-118v107h-171v89h171v66h-171v88h129l-205 338v12h131l103 -173l72 -122l72 122l103 173h131z" />
    <glyph glyph-name="brokenbar" unicode="&#xa6;" horiz-adv-x="293" 
d="M88 385v396h117v-396h-117zM88 -131v404h117v-404h-117z" />
    <glyph glyph-name="section" unicode="&#xa7;" horiz-adv-x="524" 
d="M433 249q48 -35 48 -101q0 -75 -58.5 -116.5t-163.5 -41.5q-47 0 -85.5 11.5t-66.5 33t-43.5 52t-15.5 67.5h112q2 -32 28.5 -50t74.5 -18q50 0 78 15t28 42q0 12 -5.5 21t-19 16t-36 12t-57.5 9q-103 14 -147 48.5t-44 102.5q0 63 48 105q-43 33 -43 98q0 73 56.5 114
t157.5 41q45 0 83 -11.5t65 -33t42 -52t15 -67.5h-112q-2 32 -27 50t-70 18q-48 0 -73.5 -14.5t-25.5 -40.5q0 -12 5 -21t17.5 -16t33.5 -11.5t53 -9.5q54 -7 91 -19t59.5 -29.5t32.5 -42.5t10 -60q0 -61 -45 -101zM171 354q0 -26 25.5 -39.5t91.5 -21.5q10 -2 19 -2.5
t18 -2.5q42 23 42 60q0 26 -25 39t-92 22l-37 6q-20 -11 -31 -27t-11 -34z" />
    <glyph glyph-name="dieresis" unicode="&#xa8;" horiz-adv-x="525" 
d="M152 589q-29 0 -49.5 19.5t-20.5 49.5t20.5 49t49.5 19q31 0 51 -19t20 -49t-20 -49.5t-51 -19.5zM389 589q-30 0 -50.5 19.5t-20.5 49.5t20.5 49t50.5 19t50 -19t20 -49t-20 -49.5t-50 -19.5z" />
    <glyph glyph-name="copyright" unicode="&#xa9;" horiz-adv-x="834" 
d="M417 -10q-80 0 -147.5 27t-116 75t-76 114t-27.5 144t27.5 144t76 114t116 75t147.5 27t147.5 -27t116 -75t76 -114t27.5 -144t-27.5 -144t-76 -114t-116 -75t-147.5 -27zM417 67q61 0 112 21t88.5 58.5t58.5 89.5t21 114t-21 113.5t-58 89.5t-88.5 59t-112.5 21
t-112.5 -21t-88.5 -59t-57.5 -89.5t-20.5 -113.5q0 -61 20.5 -113t57.5 -90t88.5 -59t112.5 -21zM419 169q-41 0 -75.5 13.5t-59 37.5t-38 57t-13.5 72q0 40 13.5 73.5t37.5 57.5t58.5 37.5t76.5 13.5q72 0 119.5 -38.5t58.5 -102.5h-86q-11 28 -34 43.5t-57 15.5
q-43 0 -69 -27.5t-26 -72.5q0 -44 26 -71.5t69 -27.5q34 0 57.5 16t33.5 45h88q-12 -66 -60 -104t-120 -38z" />
    <glyph glyph-name="ordfeminine" unicode="&#xaa;" horiz-adv-x="357" 
d="M252 680h71v-280h-71l-1 24q-37 -31 -91 -31q-31 0 -57.5 11t-45 30.5t-29 46.5t-10.5 58q0 32 10.5 59.5t29.5 47t45 30.5t57 11q53 0 91 -32zM167 459q35 0 57.5 23t22.5 58q0 36 -22.5 58.5t-57.5 22.5q-34 0 -56 -22.5t-22 -58.5q0 -35 22 -58t56 -23z" />
    <glyph glyph-name="guillemotleft" unicode="&#xab;" horiz-adv-x="522" 
d="M285 496l-152 -199l152 -200v-10h-124l-148 200v18l148 201h124v-10zM495 506v-10l-152 -199l152 -200v-10h-123l-149 200v18l149 201h123z" />
    <glyph glyph-name="logicalnot" unicode="&#xac;" horiz-adv-x="567" 
d="M410 159v166h-362v99h465v-265h-103z" />
    <glyph glyph-name="uni00AD" unicode="&#xad;" horiz-adv-x="408" 
d="M48 243v103h313v-103h-313z" />
    <glyph glyph-name="registered" unicode="&#xae;" horiz-adv-x="480" 
d="M240 709q46 0 84.5 -16t66.5 -44.5t44 -67.5t16 -86q0 -46 -16 -85.5t-44 -68t-66.5 -44.5t-84.5 -16t-85 16t-67 44.5t-43.5 68t-15.5 85.5q0 47 15.5 86t43.5 67.5t67 44.5t85 16zM240 331q34 0 63 12.5t50.5 34.5t33.5 52t12 65t-12 65t-33.5 52t-50.5 34.5t-63 12.5
t-63 -12.5t-50.5 -34.5t-33.5 -52t-12 -65t12 -65t33.5 -52t50.5 -34.5t63 -12.5zM326 533q0 -24 -14 -42t-38 -25l59 -77v-4h-50l-68 90v23h32q15 0 24.5 9.5t9.5 23.5q0 15 -10 23.5t-24 8.5h-37v-68l1 -14v-96h-45v222h82q35 0 56.5 -20.5t21.5 -53.5z" />
    <glyph glyph-name="macron" unicode="&#xaf;" horiz-adv-x="453" 
d="M71 609v80h311v-80h-311z" />
    <glyph glyph-name="degree" unicode="&#xb0;" horiz-adv-x="406" 
d="M203 377q-36 0 -67 12.5t-53.5 35t-35.5 53t-13 66.5t13 66t35.5 52.5t53.5 35t67 12.5t67 -12.5t53.5 -35t35.5 -52.5t13 -66t-13 -66.5t-35.5 -53t-53.5 -35t-67 -12.5zM203 462q35 0 58 23.5t23 58.5q0 36 -23 59t-58 23t-58 -23t-23 -59t23 -59t58 -23z" />
    <glyph glyph-name="plusminus" unicode="&#xb1;" horiz-adv-x="495" 
d="M196 175v150h-146v101h146v153h103v-153h146v-101h-146v-150h-103zM48 101h400v-101h-400v101z" />
    <glyph glyph-name="twosuperior" unicode="&#xb2;" horiz-adv-x="313" 
d="M194 475h95v-75h-269v54l134 125q28 26 39 42t11 33q0 20 -13 33t-35 13q-25 0 -37.5 -15t-12.5 -40h-81q0 60 35.5 96t95.5 36q59 0 94.5 -33.5t35.5 -87.5q0 -37 -17.5 -65.5t-55.5 -63.5l-59 -53z" />
    <glyph glyph-name="threesuperior" unicode="&#xb3;" horiz-adv-x="313" 
d="M234 595q25 -13 41 -37t16 -56q0 -48 -38 -78.5t-99 -30.5t-97 32t-38 85h82q2 -22 15.5 -32.5t36.5 -10.5q25 0 40 12t15 32t-15 32.5t-41 12.5h-37v68h37q21 0 34 12t13 29q0 19 -13.5 30.5t-33.5 11.5q-21 0 -34 -11t-13 -28h-79q2 51 36 80t91 29q55 0 90.5 -28
t35.5 -73q0 -26 -12 -46.5t-33 -34.5z" />
    <glyph glyph-name="acute" unicode="&#xb4;" horiz-adv-x="405" 
d="M121 583v7l75 133h131v-8l-100 -132h-106z" />
    <glyph glyph-name="uni00B5" unicode="&#xb5;" horiz-adv-x="680" 
d="M625 97h10.5t9.5 1v-98q-13 -2 -24.5 -3t-22.5 -1q-48 0 -79.5 18.5t-45.5 53.5q-67 -73 -179 -73q-56 0 -102 23v-175h-111v687h111v-298q0 -136 120 -136q66 0 106 39t40 105v290h111v-380q0 -29 15 -41t41 -12z" />
    <glyph glyph-name="paragraph" unicode="&#xb6;" horiz-adv-x="693" 
d="M605 700v-794h-118v681h-168v-681h-118v382q-39 5 -72 22t-56 43.5t-36 61.5t-13 75q0 45 16.5 83t46 66.5t71.5 44.5t93 16h354z" />
    <glyph glyph-name="periodcentered" unicode="&#xb7;" horiz-adv-x="268" 
d="M134 262q-30 0 -49.5 19.5t-19.5 49.5q0 29 19.5 48.5t49.5 19.5t49.5 -19.5t19.5 -48.5q0 -30 -19.5 -49.5t-49.5 -19.5z" />
    <glyph glyph-name="cedilla" unicode="&#xb8;" horiz-adv-x="297" 
d="M151 -40q45 -2 66 -23.5t21 -53.5q0 -90 -118 -90q-18 0 -42 2.5t-49 7.5v72q17 -5 36 -7.5t36 -2.5q22 0 37.5 5t15.5 20q0 12 -14 17.5t-33 5.5q-11 0 -19.5 -1t-18.5 -3l-13 17l44 88h79z" />
    <glyph glyph-name="onesuperior" unicode="&#xb9;" horiz-adv-x="237" 
d="M130 770h61v-370h-84v176l1 83l-63 -41l-40 61z" />
    <glyph glyph-name="ordmasculine" unicode="&#xba;" horiz-adv-x="336" 
d="M167 393q-33 0 -60 11t-47 30.5t-31 46.5t-11 59t11 59t31 46.5t47 30.5t60 11t61 -11t48 -30.5t31 -46.5t11 -59t-11 -59t-31 -46.5t-48 -30.5t-61 -11zM167 459q35 0 57.5 23t22.5 58t-22.5 58t-57.5 23q-34 0 -56 -23t-22 -58t22 -58t56 -23z" />
    <glyph glyph-name="guillemotright" unicode="&#xbb;" horiz-adv-x="522" 
d="M298 305v-18l-148 -200h-123v10l152 200l-152 199v10h123zM360 506l149 -201v-18l-149 -200h-123v10l152 200l-152 199v10h123z" />
    <glyph glyph-name="onequarter" unicode="&#xbc;" horiz-adv-x="819" 
d="M107 330v176l1 83l-63 -41l-40 61l125 91h61v-370h-84zM488 700h92l-332 -700h-91zM803 148v-74h-43v-74h-80v74h-175v65l179 231h76v-222h43zM685 264l-92 -118h90v37z" />
    <glyph glyph-name="onehalf" unicode="&#xbd;" horiz-adv-x="813" 
d="M107 330v176l1 83l-63 -41l-40 61l125 91h61v-370h-84zM488 700h92l-332 -700h-91zM694 75h95v-75h-269v54l134 125q28 26 39 42t11 33q0 20 -13 33t-35 13q-25 0 -37.5 -15t-12.5 -40h-81q0 60 35.5 96t95.5 36q59 0 94.5 -33.5t35.5 -87.5q0 -37 -17.5 -65.5
t-55.5 -63.5l-59 -53z" />
    <glyph glyph-name="threequarters" unicode="&#xbe;" horiz-adv-x="895" 
d="M291 432q0 -48 -38 -78.5t-99 -30.5t-97 32t-38 85h82q2 -22 15.5 -32.5t36.5 -10.5q25 0 40 12t15 32t-15 32.5t-41 12.5h-37v68h37q21 0 34 12t13 29q0 19 -13.5 30.5t-33.5 11.5q-21 0 -34 -11t-13 -28h-79q2 51 36 80t91 29q55 0 90.5 -28t35.5 -73q0 -26 -12 -46.5
t-33 -34.5q25 -13 41 -37t16 -56zM564 700h92l-332 -700h-91zM879 148v-74h-43v-74h-80v74h-175v65l179 231h76v-222h43zM761 264l-92 -118h90v37z" />
    <glyph glyph-name="questiondown" unicode="&#xbf;" horiz-adv-x="560" 
d="M290 540q30 0 49.5 -19t19.5 -49q0 -29 -19.5 -48.5t-49.5 -19.5t-49.5 19.5t-19.5 48.5q0 30 19.5 49t49.5 19zM348 345v-29q0 -29 -5 -52t-16 -42t-29 -35.5t-44 -32.5q-49 -30 -68 -55t-19 -61q0 -48 31 -75.5t86 -27.5q58 0 89.5 33.5t31.5 94.5h113
q0 -55 -16.5 -99.5t-47 -76t-73.5 -48.5t-97 -17t-97 15t-74 43t-47.5 67.5t-16.5 88.5q0 62 26.5 103.5t87.5 79.5q39 25 54 48t15 59v19h116z" />
    <glyph glyph-name="Agrave" unicode="&#xc0;" horiz-adv-x="661" 
d="M389 762h-102l-112 130v8h126l88 -131v-7zM376 700l276 -688v-12h-123l-57 150h-283l-58 -150h-122v12l276 688h91zM330 522l-102 -266h205z" />
    <glyph glyph-name="Aacute" unicode="&#xc1;" horiz-adv-x="661" 
d="M485 892l-111 -130h-105v7l89 131h127v-8zM376 700l276 -688v-12h-123l-57 150h-283l-58 -150h-122v12l276 688h91zM330 522l-102 -266h205z" />
    <glyph glyph-name="Acircumflex" unicode="&#xc2;" horiz-adv-x="661" 
d="M331 839l-78 -77h-107v9l129 129h114l127 -129v-9h-107zM376 700l276 -688v-12h-123l-57 150h-283l-58 -150h-122v12l276 688h91zM330 522l-102 -266h205z" />
    <glyph glyph-name="Atilde" unicode="&#xc3;" horiz-adv-x="661" 
d="M267 827q-37 0 -37 -61h-76q0 70 26.5 102.5t74.5 32.5q34 0 55 -13.5t38 -28.5q11 -10 22.5 -18t24.5 -8q36 0 36 63h76q0 -135 -99 -135q-33 0 -54.5 13t-37.5 27q-13 11 -24.5 18.5t-24.5 7.5zM376 700l276 -688v-12h-123l-57 150h-283l-58 -150h-122v12l276 688h91z
M330 522l-102 -266h205z" />
    <glyph glyph-name="Adieresis" unicode="&#xc4;" horiz-adv-x="661" 
d="M219 761q-30 0 -49.5 19.5t-19.5 48.5q0 30 19.5 49.5t49.5 19.5t50 -19.5t20 -49.5q0 -29 -20 -48.5t-50 -19.5zM442 761q-30 0 -49.5 19.5t-19.5 48.5q0 30 19.5 49.5t49.5 19.5t50 -19.5t20 -49.5q0 -29 -20 -48.5t-50 -19.5zM376 700l276 -688v-12h-123l-57 150h-283
l-58 -150h-122v12l276 688h91zM330 522l-102 -266h205z" />
    <glyph glyph-name="Aring" unicode="&#xc5;" horiz-adv-x="661" 
d="M331 738q-51 0 -82.5 28.5t-31.5 75.5q0 48 31.5 76.5t82.5 28.5t82.5 -28.5t31.5 -76.5q0 -47 -31.5 -75.5t-82.5 -28.5zM331 890q-22 0 -35 -14t-13 -34t13 -33.5t35 -13.5t35 13.5t13 33.5t-13 34t-35 14zM376 700l276 -688v-12h-123l-57 150h-283l-58 -150h-122v12
l276 688h91zM330 522l-102 -266h205z" />
    <glyph glyph-name="AE" unicode="&#xc6;" horiz-adv-x="912" 
d="M544 113h319v-113h-437v150h-212l-77 -150h-129v12l373 688h475v-112h-312v-179h292v-111h-292v-185zM268 256h158v307z" />
    <glyph glyph-name="Ccedilla" unicode="&#xc7;" horiz-adv-x="781" 
d="M741 260q-12 -57 -40 -104t-67.5 -82t-90 -56t-108.5 -26l-18 -39q94 -3 94 -74q0 -26 -10.5 -42.5t-28 -26t-41.5 -13.5t-51 -4q-20 0 -43.5 2.5t-46.5 7.5v72q26 -6 45 -8t36 -2q53 0 53 21q0 22 -47 22q-20 0 -39 -4l-12 17l32 71q-67 7 -124 37t-97.5 77t-63.5 109.5
t-23 134.5q0 78 26.5 144t73 114t110.5 75t140 27q63 0 119 -18.5t100.5 -53t75.5 -83t45 -108.5h-121q-23 69 -80.5 108.5t-135.5 39.5q-51 0 -93.5 -18t-73.5 -50.5t-48 -77.5t-17 -99t17 -99t48 -77.5t73.5 -50.5t93.5 -18q78 0 136.5 41.5t82.5 113.5h119z" />
    <glyph glyph-name="Egrave" unicode="&#xc8;" horiz-adv-x="573" 
d="M367 762h-102l-112 130v8h126l88 -131v-7zM205 113h319v-113h-436v700h429v-112h-312v-179h292v-111h-292v-185z" />
    <glyph glyph-name="Eacute" unicode="&#xc9;" horiz-adv-x="573" 
d="M463 892l-111 -130h-105v7l89 131h127v-8zM205 113h319v-113h-436v700h429v-112h-312v-179h292v-111h-292v-185z" />
    <glyph glyph-name="Ecircumflex" unicode="&#xca;" horiz-adv-x="573" 
d="M309 839l-78 -77h-107v9l129 129h114l127 -129v-9h-107zM205 113h319v-113h-436v700h429v-112h-312v-179h292v-111h-292v-185z" />
    <glyph glyph-name="Edieresis" unicode="&#xcb;" horiz-adv-x="573" 
d="M197 761q-30 0 -49.5 19.5t-19.5 48.5q0 30 19.5 49.5t49.5 19.5t50 -19.5t20 -49.5q0 -29 -20 -48.5t-50 -19.5zM420 761q-30 0 -49.5 19.5t-19.5 48.5q0 30 19.5 49.5t49.5 19.5t50 -19.5t20 -49.5q0 -29 -20 -48.5t-50 -19.5zM205 113h319v-113h-436v700h429v-112
h-312v-179h292v-111h-292v-185z" />
    <glyph glyph-name="Igrave" unicode="&#xcc;" horiz-adv-x="466" 
d="M291 762h-102l-112 130v8h126l88 -131v-7zM292 108h121v-108h-360v108h121v486h-119v106h356v-106h-119v-486z" />
    <glyph glyph-name="Iacute" unicode="&#xcd;" horiz-adv-x="466" 
d="M387 892l-111 -130h-105v7l89 131h127v-8zM292 108h121v-108h-360v108h121v486h-119v106h356v-106h-119v-486z" />
    <glyph glyph-name="Icircumflex" unicode="&#xce;" horiz-adv-x="466" 
d="M291 900l127 -129v-9h-107l-78 77l-78 -77h-107v9l129 129h114zM292 594v-486h121v-108h-360v108h121v486h-119v106h356v-106h-119z" />
    <glyph glyph-name="Idieresis" unicode="&#xcf;" horiz-adv-x="466" 
d="M121 761q-30 0 -49.5 19.5t-19.5 48.5q0 30 19.5 49.5t49.5 19.5t50 -19.5t20 -49.5q0 -29 -20 -48.5t-50 -19.5zM344 761q-30 0 -49.5 19.5t-19.5 48.5q0 30 19.5 49.5t49.5 19.5t50 -19.5t20 -49.5q0 -29 -20 -48.5t-50 -19.5zM292 594v-486h121v-108h-360v108h121v486
h-119v106h356v-106h-119z" />
    <glyph glyph-name="Eth" unicode="&#xd0;" horiz-adv-x="752" 
d="M343 700q80 0 146 -25.5t113.5 -72t73.5 -110.5t26 -142t-26 -142t-73.5 -110.5t-113.5 -72t-146 -25.5h-248v302h-85v99h85v299h248zM336 113q57 0 102.5 17t77 48t48.5 75t17 97q0 54 -17 97.5t-48.5 74.5t-77 48t-102.5 17h-123v-186h189v-99h-189v-189h123z" />
    <glyph glyph-name="Ntilde" unicode="&#xd1;" horiz-adv-x="722" 
d="M297 827q-37 0 -37 -61h-76q0 70 26.5 102.5t74.5 32.5q34 0 55 -13.5t38 -28.5q11 -10 22.5 -18t24.5 -8q36 0 36 63h76q0 -135 -99 -135q-33 0 -54.5 13t-37.5 27q-13 11 -24.5 18.5t-24.5 7.5zM635 700v-700h-91l-339 467v-467h-117v700h89l340 -469v469h118z" />
    <glyph glyph-name="Ograve" unicode="&#xd2;" horiz-adv-x="813" 
d="M465 762h-102l-112 130v8h126l88 -131v-7zM407 -10q-78 0 -143.5 27t-113 75t-74 114t-26.5 144t26.5 144t74 114t113 75t143.5 27q77 0 142.5 -27t113 -75t74 -114t26.5 -144t-26.5 -144t-74 -114t-113 -75t-142.5 -27zM407 105q52 0 95 18t74 50.5t48.5 77.5t17.5 99
t-17.5 99t-48.5 77.5t-74 50.5t-95 18t-95 -18t-74.5 -50.5t-49 -77.5t-17.5 -99t17.5 -99t49 -77.5t74.5 -50.5t95 -18z" />
    <glyph glyph-name="Oacute" unicode="&#xd3;" horiz-adv-x="813" 
d="M345 762v7l89 131h127v-8l-111 -130h-105zM407 -10q-78 0 -143.5 27t-113 75t-74 114t-26.5 144t26.5 144t74 114t113 75t143.5 27q77 0 142.5 -27t113 -75t74 -114t26.5 -144t-26.5 -144t-74 -114t-113 -75t-142.5 -27zM407 105q52 0 95 18t74 50.5t48.5 77.5t17.5 99
t-17.5 99t-48.5 77.5t-74 50.5t-95 18t-95 -18t-74.5 -50.5t-49 -77.5t-17.5 -99t17.5 -99t49 -77.5t74.5 -50.5t95 -18z" />
    <glyph glyph-name="Ocircumflex" unicode="&#xd4;" horiz-adv-x="813" 
d="M407 839l-78 -77h-107v9l129 129h114l127 -129v-9h-107zM407 710q77 0 142.5 -27t113 -75t74 -114t26.5 -144t-26.5 -144t-74 -114t-113 -75t-142.5 -27q-78 0 -143.5 27t-113 75t-74 114t-26.5 144t26.5 144t74 114t113 75t143.5 27zM407 105q52 0 95 18t74 50.5
t48.5 77.5t17.5 99t-17.5 99t-48.5 77.5t-74 50.5t-95 18t-95 -18t-74.5 -50.5t-49 -77.5t-17.5 -99t17.5 -99t49 -77.5t74.5 -50.5t95 -18z" />
    <glyph glyph-name="Otilde" unicode="&#xd5;" horiz-adv-x="813" 
d="M483 761q-33 0 -54.5 13t-37.5 27q-13 11 -24.5 18.5t-24.5 7.5q-37 0 -37 -61h-76q0 70 26.5 102.5t74.5 32.5q34 0 55 -13.5t38 -28.5q11 -10 22.5 -18t24.5 -8q36 0 36 63h76q0 -135 -99 -135zM407 -10q-78 0 -143.5 27t-113 75t-74 114t-26.5 144t26.5 144t74 114
t113 75t143.5 27q77 0 142.5 -27t113 -75t74 -114t26.5 -144t-26.5 -144t-74 -114t-113 -75t-142.5 -27zM407 105q52 0 95 18t74 50.5t48.5 77.5t17.5 99t-17.5 99t-48.5 77.5t-74 50.5t-95 18t-95 -18t-74.5 -50.5t-49 -77.5t-17.5 -99t17.5 -99t49 -77.5t74.5 -50.5
t95 -18z" />
    <glyph glyph-name="Odieresis" unicode="&#xd6;" horiz-adv-x="813" 
d="M295 761q-30 0 -49.5 19.5t-19.5 48.5q0 30 19.5 49.5t49.5 19.5t50 -19.5t20 -49.5q0 -29 -20 -48.5t-50 -19.5zM518 761q-30 0 -49.5 19.5t-19.5 48.5q0 30 19.5 49.5t49.5 19.5t50 -19.5t20 -49.5q0 -29 -20 -48.5t-50 -19.5zM407 -10q-78 0 -143.5 27t-113 75
t-74 114t-26.5 144t26.5 144t74 114t113 75t143.5 27q77 0 142.5 -27t113 -75t74 -114t26.5 -144t-26.5 -144t-74 -114t-113 -75t-142.5 -27zM407 105q52 0 95 18t74 50.5t48.5 77.5t17.5 99t-17.5 99t-48.5 77.5t-74 50.5t-95 18t-95 -18t-74.5 -50.5t-49 -77.5t-17.5 -99
t17.5 -99t49 -77.5t74.5 -50.5t95 -18z" />
    <glyph glyph-name="multiply" unicode="&#xd7;" horiz-adv-x="418" 
d="M388 456l-110 -110l110 -110l-69 -69l-110 111l-110 -112l-69 70l111 110l-111 110l69 69l110 -110l110 110z" />
    <glyph glyph-name="Oslash" unicode="&#xd8;" horiz-adv-x="813" 
d="M634 633q60 -48 94.5 -120.5t34.5 -162.5q0 -78 -26.5 -144t-74 -114t-113 -75t-142.5 -27q-38 0 -72 6.5t-66 18.5l-46 -79h-114v13l70 118q-60 48 -94.5 121t-34.5 162q0 78 26.5 144t74 114t113 75t143.5 27q37 0 71 -6.5t66 -18.5l46 79h114v-13zM407 600
q-53 0 -97 -18.5t-76 -51.5t-50 -79t-18 -101q0 -57 19 -104.5t54 -80.5l249 422q-36 13 -81 13zM407 100q53 0 97 18.5t75.5 51.5t49.5 79t18 101q0 57 -19 104.5t-54 81.5l-250 -423q19 -6 39.5 -9.5t43.5 -3.5z" />
    <glyph glyph-name="Ugrave" unicode="&#xd9;" horiz-adv-x="694" 
d="M405 762h-102l-112 130v8h126l88 -131v-7zM347 -8q-61 0 -111 18t-85 51.5t-54.5 81.5t-19.5 107v450h118v-437q0 -74 41 -114.5t111 -40.5t111 40.5t41 114.5v437h118v-450q0 -59 -19.5 -107t-55 -81.5t-85 -51.5t-110.5 -18z" />
    <glyph glyph-name="Uacute" unicode="&#xda;" horiz-adv-x="694" 
d="M285 762v7l89 131h127v-8l-111 -130h-105zM347 -8q-61 0 -111 18t-85 51.5t-54.5 81.5t-19.5 107v450h118v-437q0 -74 41 -114.5t111 -40.5t111 40.5t41 114.5v437h118v-450q0 -59 -19.5 -107t-55 -81.5t-85 -51.5t-110.5 -18z" />
    <glyph glyph-name="Ucircumflex" unicode="&#xdb;" horiz-adv-x="694" 
d="M347 839l-78 -77h-107v9l129 129h114l127 -129v-9h-107zM499 700h118v-450q0 -59 -19.5 -107t-55 -81.5t-85 -51.5t-110.5 -18t-111 18t-85 51.5t-54.5 81.5t-19.5 107v450h118v-437q0 -74 41 -114.5t111 -40.5t111 40.5t41 114.5v437z" />
    <glyph glyph-name="Udieresis" unicode="&#xdc;" horiz-adv-x="694" 
d="M235 761q-30 0 -49.5 19.5t-19.5 48.5q0 30 19.5 49.5t49.5 19.5t50 -19.5t20 -49.5q0 -29 -20 -48.5t-50 -19.5zM458 761q-30 0 -49.5 19.5t-19.5 48.5q0 30 19.5 49.5t49.5 19.5t50 -19.5t20 -49.5q0 -29 -20 -48.5t-50 -19.5zM347 -8q-61 0 -111 18t-85 51.5
t-54.5 81.5t-19.5 107v450h118v-437q0 -74 41 -114.5t111 -40.5t111 40.5t41 114.5v437h118v-450q0 -59 -19.5 -107t-55 -81.5t-85 -51.5t-110.5 -18z" />
    <glyph glyph-name="Yacute" unicode="&#xdd;" horiz-adv-x="634" 
d="M472 892l-111 -130h-105v7l89 131h127v-8zM624 700v-13l-247 -403v-284h-118v280l-248 408v12h131l102 -173l73 -123l176 296h131z" />
    <glyph glyph-name="Thorn" unicode="&#xde;" horiz-adv-x="601" 
d="M349 592q52 0 95 -17.5t73.5 -49t47 -75.5t16.5 -98t-16.5 -98t-47 -75.5t-73.5 -49t-95 -17.5h-144v-112h-117v700h117v-108h144zM334 224q60 0 93.5 34t33.5 94q0 59 -33.5 93t-93.5 34h-129v-255h129z" />
    <glyph glyph-name="germandbls" unicode="&#xdf;" horiz-adv-x="621" 
d="M468 388q56 -28 83 -75t27 -110q0 -49 -15.5 -88t-44.5 -66.5t-69.5 -42.5t-91.5 -15q-45 0 -101 9v102q23 -5 45 -7.5t42 -2.5q61 0 92.5 31t31.5 88q0 56 -35 89t-91 33h-72v98h72q44 0 73 29.5t29 76.5q0 52 -31 81t-85 29q-69 0 -102 -41.5t-33 -122.5v-483h-111v481
q0 128 65.5 197t180.5 69q51 0 92.5 -14.5t71 -41t45.5 -63.5t16 -83q0 -49 -21.5 -90.5t-62.5 -66.5z" />
    <glyph glyph-name="agrave" unicode="&#xe0;" horiz-adv-x="681" 
d="M409 583h-107l-100 132v8h131l76 -133v-7zM495 530h105v-530h-105l-2 62q-35 -35 -81.5 -53.5t-102.5 -18.5q-59 0 -108 20.5t-84 57.5t-54.5 87t-19.5 110t20 110.5t55 87t84 57t107 20.5q56 0 102.5 -18.5t81.5 -52.5zM323 94q37 0 67.5 12.5t53 35t35 54t12.5 69.5
t-12.5 69.5t-35 54t-53 35t-67.5 12.5q-36 0 -67 -12.5t-53 -35t-34.5 -54t-12.5 -69.5t12.5 -69.5t34.5 -54t53 -35t67 -12.5z" />
    <glyph glyph-name="aacute" unicode="&#xe1;" horiz-adv-x="681" 
d="M478 715l-100 -132h-106v7l75 133h131v-8zM495 530h105v-530h-105l-2 62q-35 -35 -81.5 -53.5t-102.5 -18.5q-59 0 -108 20.5t-84 57.5t-54.5 87t-19.5 110t20 110.5t55 87t84 57t107 20.5q56 0 102.5 -18.5t81.5 -52.5zM323 94q37 0 67.5 12.5t53 35t35 54t12.5 69.5
t-12.5 69.5t-35 54t-53 35t-67.5 12.5q-36 0 -67 -12.5t-53 -35t-34.5 -54t-12.5 -69.5t12.5 -69.5t34.5 -54t53 -35t67 -12.5z" />
    <glyph glyph-name="acircumflex" unicode="&#xe2;" horiz-adv-x="681" 
d="M340 659l-74 -78h-111v10l129 131h113l127 -131v-10h-110zM495 530h105v-530h-105l-2 62q-35 -35 -81.5 -53.5t-102.5 -18.5q-59 0 -108 20.5t-84 57.5t-54.5 87t-19.5 110t20 110.5t55 87t84 57t107 20.5q56 0 102.5 -18.5t81.5 -52.5zM323 94q37 0 67.5 12.5t53 35
t35 54t12.5 69.5t-12.5 69.5t-35 54t-53 35t-67.5 12.5q-36 0 -67 -12.5t-53 -35t-34.5 -54t-12.5 -69.5t12.5 -69.5t34.5 -54t53 -35t67 -12.5z" />
    <glyph glyph-name="atilde" unicode="&#xe3;" horiz-adv-x="681" 
d="M273 644q-17 0 -26.5 -15.5t-9.5 -45.5h-80q0 71 28.5 104.5t77.5 33.5q35 0 57.5 -13.5t39.5 -28.5q11 -10 23.5 -17t23.5 -7q37 0 37 61h79q0 -68 -26.5 -103t-77.5 -35q-34 0 -56.5 13t-39.5 27q-14 11 -25 18.5t-25 7.5zM495 530h105v-530h-105l-2 62
q-35 -35 -81.5 -53.5t-102.5 -18.5q-59 0 -108 20.5t-84 57.5t-54.5 87t-19.5 110t20 110.5t55 87t84 57t107 20.5q56 0 102.5 -18.5t81.5 -52.5zM323 94q37 0 67.5 12.5t53 35t35 54t12.5 69.5t-12.5 69.5t-35 54t-53 35t-67.5 12.5q-36 0 -67 -12.5t-53 -35t-34.5 -54
t-12.5 -69.5t12.5 -69.5t34.5 -54t53 -35t67 -12.5z" />
    <glyph glyph-name="adieresis" unicode="&#xe4;" horiz-adv-x="681" 
d="M221 589q-29 0 -49.5 19.5t-20.5 49.5t20.5 49t49.5 19q31 0 51 -19t20 -49t-20 -49.5t-51 -19.5zM458 589q-30 0 -50.5 19.5t-20.5 49.5t20.5 49t50.5 19t50 -19t20 -49t-20 -49.5t-50 -19.5zM495 530h105v-530h-105l-2 62q-35 -35 -81.5 -53.5t-102.5 -18.5
q-59 0 -108 20.5t-84 57.5t-54.5 87t-19.5 110t20 110.5t55 87t84 57t107 20.5q56 0 102.5 -18.5t81.5 -52.5zM323 94q37 0 67.5 12.5t53 35t35 54t12.5 69.5t-12.5 69.5t-35 54t-53 35t-67.5 12.5q-36 0 -67 -12.5t-53 -35t-34.5 -54t-12.5 -69.5t12.5 -69.5t34.5 -54
t53 -35t67 -12.5z" />
    <glyph glyph-name="aring" unicode="&#xe5;" horiz-adv-x="681" 
d="M340 579q-51 0 -82.5 29t-31.5 77q0 47 31.5 76t82.5 29t82.5 -29t31.5 -76q0 -48 -31.5 -77t-82.5 -29zM340 732q-23 0 -36 -13.5t-13 -33.5t13 -34t36 -14t36 14t13 34t-13 33.5t-36 13.5zM495 530h105v-530h-105l-2 62q-35 -35 -81.5 -53.5t-102.5 -18.5
q-59 0 -108 20.5t-84 57.5t-54.5 87t-19.5 110t20 110.5t55 87t84 57t107 20.5q56 0 102.5 -18.5t81.5 -52.5zM323 94q37 0 67.5 12.5t53 35t35 54t12.5 69.5t-12.5 69.5t-35 54t-53 35t-67.5 12.5q-36 0 -67 -12.5t-53 -35t-34.5 -54t-12.5 -69.5t12.5 -69.5t34.5 -54
t53 -35t67 -12.5z" />
    <glyph glyph-name="ae" unicode="&#xe6;" horiz-adv-x="1084" 
d="M607 228q11 -62 53.5 -99t107.5 -37q48 0 85 19t56 51h120q-27 -81 -95.5 -126.5t-159.5 -45.5q-54 0 -99.5 17t-80.5 48l-1 -55h-99l-2 61q-35 -34 -81.5 -52.5t-102.5 -18.5q-58 0 -107 20.5t-84 57.5t-54.5 87t-19.5 110t20 110.5t55 87t83.5 57t106.5 20.5
q56 0 102.5 -18.5t81.5 -52.5l2 61h99l1 -55q35 31 80.5 48t99.5 17q65 0 117 -23t87.5 -64.5t52.5 -99t12 -125.5h-436zM768 438q-61 0 -102.5 -33.5t-55.5 -90.5h319q-14 55 -56.5 89.5t-104.5 34.5zM323 94q37 0 67.5 12.5t52.5 35.5t34.5 54.5t12.5 68.5q0 38 -12.5 69
t-34.5 54t-52.5 35.5t-67.5 12.5t-67.5 -12.5t-53 -35.5t-35 -54t-12.5 -69q0 -37 12.5 -68.5t35 -54.5t53 -35.5t67.5 -12.5z" />
    <glyph glyph-name="ccedilla" unicode="&#xe7;" horiz-adv-x="620" 
d="M585 198q-18 -85 -77 -139.5t-146 -65.5l-17 -33q45 -2 66 -23.5t21 -53.5q0 -90 -118 -90q-18 0 -42 2.5t-49 7.5v72q17 -5 36 -7.5t36 -2.5q22 0 37.5 5t15.5 20q0 12 -14 17.5t-33 5.5q-11 0 -19.5 -1t-18.5 -3l-13 17l33 66q-53 6 -97.5 28t-76 57.5t-49 83
t-17.5 103.5q0 61 20 112t56.5 87.5t87 56.5t111.5 20q51 0 95 -14.5t78.5 -41.5t58.5 -65t34 -86h-111q-18 49 -58 76t-95 27q-37 0 -67 -12.5t-52 -35t-34 -54t-12 -70.5q0 -38 12 -69t34 -53.5t52 -35t67 -12.5q57 0 96.5 27t56.5 77h112z" />
    <glyph glyph-name="egrave" unicode="&#xe8;" horiz-adv-x="634" 
d="M387 583h-107l-100 132v8h131l76 -133v-7zM157 228q11 -62 54 -99t107 -37q48 0 85 19t56 51h120q-28 -80 -97.5 -126t-163.5 -46q-60 0 -110 20.5t-87 57t-57.5 87t-20.5 110.5t20.5 110.5t57.5 87t87 57t110 20.5q65 0 118 -22.5t89.5 -63.5t55 -98.5t12.5 -127.5h-436
zM318 438q-61 0 -102.5 -33.5t-55.5 -90.5h320q-14 55 -56.5 89.5t-105.5 34.5z" />
    <glyph glyph-name="eacute" unicode="&#xe9;" horiz-adv-x="634" 
d="M456 715l-100 -132h-106v7l75 133h131v-8zM157 228q11 -62 54 -99t107 -37q48 0 85 19t56 51h120q-28 -80 -97.5 -126t-163.5 -46q-60 0 -110 20.5t-87 57t-57.5 87t-20.5 110.5t20.5 110.5t57.5 87t87 57t110 20.5q65 0 118 -22.5t89.5 -63.5t55 -98.5t12.5 -127.5h-436
zM318 438q-61 0 -102.5 -33.5t-55.5 -90.5h320q-14 55 -56.5 89.5t-105.5 34.5z" />
    <glyph glyph-name="ecircumflex" unicode="&#xea;" horiz-adv-x="634" 
d="M319 659l-74 -78h-111v10l129 131h113l127 -131v-10h-110zM157 228q11 -62 54 -99t107 -37q48 0 85 19t56 51h120q-28 -80 -97.5 -126t-163.5 -46q-60 0 -110 20.5t-87 57t-57.5 87t-20.5 110.5t20.5 110.5t57.5 87t87 57t110 20.5q65 0 118 -22.5t89.5 -63.5t55 -98.5
t12.5 -127.5h-436zM318 438q-61 0 -102.5 -33.5t-55.5 -90.5h320q-14 55 -56.5 89.5t-105.5 34.5z" />
    <glyph glyph-name="edieresis" unicode="&#xeb;" horiz-adv-x="634" 
d="M200 589q-29 0 -49.5 19.5t-20.5 49.5t20.5 49t49.5 19q31 0 51 -19t20 -49t-20 -49.5t-51 -19.5zM437 589q-30 0 -50.5 19.5t-20.5 49.5t20.5 49t50.5 19t50 -19t20 -49t-20 -49.5t-50 -19.5zM157 228q11 -62 54 -99t107 -37q48 0 85 19t56 51h120q-28 -80 -97.5 -126
t-163.5 -46q-60 0 -110 20.5t-87 57t-57.5 87t-20.5 110.5t20.5 110.5t57.5 87t87 57t110 20.5q65 0 118 -22.5t89.5 -63.5t55 -98.5t12.5 -127.5h-436zM318 438q-61 0 -102.5 -33.5t-55.5 -90.5h320q-14 55 -56.5 89.5t-105.5 34.5z" />
    <glyph glyph-name="igrave" unicode="&#xec;" horiz-adv-x="274" 
d="M93 583l-71 133v8h122l46 -134v-7h-97zM81 0v530h111v-530h-111z" />
    <glyph glyph-name="iacute" unicode="&#xed;" horiz-adv-x="274" 
d="M83 583v7l47 134h122v-8l-71 -133h-98zM81 0v530h111v-530h-111z" />
    <glyph glyph-name="icircumflex" unicode="&#xee;" horiz-adv-x="274" 
d="M179 724l109 -132v-9h-110l-42 55l-40 -55h-110v9l109 132h84zM81 0v530h111v-530h-111z" />
    <glyph glyph-name="idieresis" unicode="&#xef;" horiz-adv-x="274" 
d="M32 589q-29 0 -48 19.5t-19 49.5t19 49t48 19t48.5 -19t19.5 -49t-19.5 -49.5t-48.5 -19.5zM241 589q-29 0 -49 19.5t-20 49.5t20 49t49 19t48 -19t19 -49t-19 -49.5t-48 -19.5zM81 0v530h111v-530h-111z" />
    <glyph glyph-name="eth" unicode="&#xf0;" horiz-adv-x="645" 
d="M503 505q56 -66 77.5 -122t21.5 -117q0 -60 -20.5 -111t-58 -87.5t-88.5 -57t-113 -20.5q-61 0 -112.5 20.5t-88.5 57t-57.5 87t-20.5 110.5t21.5 110t59 85.5t89 55t112.5 19.5q7 0 13.5 -0.5t13.5 -0.5l-44 53l-133 -39v63l90 26l-60 72v8h123l41 -49l130 38v-63
l-88 -26zM322 94q36 0 67 12.5t53 35.5t34.5 54.5t12.5 68.5q0 38 -12.5 69t-34.5 54t-53 35.5t-67 12.5t-66.5 -12.5t-52.5 -35.5t-34.5 -54t-12.5 -69q0 -37 12.5 -68.5t34.5 -54.5t52.5 -35.5t66.5 -12.5z" />
    <glyph glyph-name="ntilde" unicode="&#xf1;" horiz-adv-x="658" 
d="M262 644q-17 0 -26.5 -15.5t-9.5 -45.5h-80q0 71 28.5 104.5t77.5 33.5q35 0 57.5 -13.5t39.5 -28.5q11 -10 23.5 -17t23.5 -7q37 0 37 61h79q0 -68 -26.5 -103t-77.5 -35q-34 0 -56.5 13t-39.5 27q-14 11 -25 18.5t-25 7.5zM370 539q104 0 159.5 -62.5t55.5 -177.5v-299
h-111v291q0 147 -129 147q-70 0 -111.5 -40t-41.5 -107v-291h-111v530h109l1 -65q33 35 77.5 54.5t101.5 19.5z" />
    <glyph glyph-name="ograve" unicode="&#xf2;" horiz-adv-x="646" 
d="M391 583h-107l-100 132v8h131l76 -133v-7zM323 -10q-61 0 -112.5 20.5t-89 57t-58 87t-20.5 110.5t20.5 110.5t58 87t89 57t112.5 20.5t112.5 -20.5t88.5 -57t58 -87t21 -110.5t-21 -110.5t-58 -87t-88.5 -57t-112.5 -20.5zM323 94q36 0 67 12.5t53 35.5t34.5 54.5
t12.5 68.5q0 38 -12.5 69t-34.5 54t-53 35.5t-67 12.5t-67 -12.5t-53 -35.5t-34.5 -54t-12.5 -69q0 -37 12.5 -68.5t34.5 -54.5t53 -35.5t67 -12.5z" />
    <glyph glyph-name="oacute" unicode="&#xf3;" horiz-adv-x="646" 
d="M255 583v7l75 133h131v-8l-100 -132h-106zM323 -10q-61 0 -112.5 20.5t-89 57t-58 87t-20.5 110.5t20.5 110.5t58 87t89 57t112.5 20.5t112.5 -20.5t88.5 -57t58 -87t21 -110.5t-21 -110.5t-58 -87t-88.5 -57t-112.5 -20.5zM323 94q36 0 67 12.5t53 35.5t34.5 54.5
t12.5 68.5q0 38 -12.5 69t-34.5 54t-53 35.5t-67 12.5t-67 -12.5t-53 -35.5t-34.5 -54t-12.5 -69q0 -37 12.5 -68.5t34.5 -54.5t53 -35.5t67 -12.5z" />
    <glyph glyph-name="ocircumflex" unicode="&#xf4;" horiz-adv-x="646" 
d="M323 659l-74 -78h-111v10l129 131h113l127 -131v-10h-110zM323 540q61 0 112.5 -20.5t88.5 -57t58 -87t21 -110.5t-21 -110.5t-58 -87t-88.5 -57t-112.5 -20.5t-112.5 20.5t-89 57t-58 87t-20.5 110.5t20.5 110.5t58 87t89 57t112.5 20.5zM323 94q36 0 67 12.5t53 35.5
t34.5 54.5t12.5 68.5q0 38 -12.5 69t-34.5 54t-53 35.5t-67 12.5t-67 -12.5t-53 -35.5t-34.5 -54t-12.5 -69q0 -37 12.5 -68.5t34.5 -54.5t53 -35.5t67 -12.5z" />
    <glyph glyph-name="otilde" unicode="&#xf5;" horiz-adv-x="646" 
d="M401 578q-34 0 -56.5 13t-39.5 27q-14 11 -25 18.5t-25 7.5q-17 0 -26.5 -15.5t-9.5 -45.5h-80q0 71 28.5 104.5t77.5 33.5q35 0 57.5 -13.5t39.5 -28.5q11 -10 23.5 -17t23.5 -7q37 0 37 61h79q0 -68 -26.5 -103t-77.5 -35zM323 -10q-61 0 -112.5 20.5t-89 57t-58 87
t-20.5 110.5t20.5 110.5t58 87t89 57t112.5 20.5t112.5 -20.5t88.5 -57t58 -87t21 -110.5t-21 -110.5t-58 -87t-88.5 -57t-112.5 -20.5zM323 94q36 0 67 12.5t53 35.5t34.5 54.5t12.5 68.5q0 38 -12.5 69t-34.5 54t-53 35.5t-67 12.5t-67 -12.5t-53 -35.5t-34.5 -54
t-12.5 -69q0 -37 12.5 -68.5t34.5 -54.5t53 -35.5t67 -12.5z" />
    <glyph glyph-name="odieresis" unicode="&#xf6;" horiz-adv-x="646" 
d="M204 589q-29 0 -49.5 19.5t-20.5 49.5t20.5 49t49.5 19q31 0 51 -19t20 -49t-20 -49.5t-51 -19.5zM441 589q-30 0 -50.5 19.5t-20.5 49.5t20.5 49t50.5 19t50 -19t20 -49t-20 -49.5t-50 -19.5zM323 -10q-61 0 -112.5 20.5t-89 57t-58 87t-20.5 110.5t20.5 110.5t58 87
t89 57t112.5 20.5t112.5 -20.5t88.5 -57t58 -87t21 -110.5t-21 -110.5t-58 -87t-88.5 -57t-112.5 -20.5zM323 94q36 0 67 12.5t53 35.5t34.5 54.5t12.5 68.5q0 38 -12.5 69t-34.5 54t-53 35.5t-67 12.5t-67 -12.5t-53 -35.5t-34.5 -54t-12.5 -69q0 -37 12.5 -68.5
t34.5 -54.5t53 -35.5t67 -12.5z" />
    <glyph glyph-name="divide" unicode="&#xf7;" horiz-adv-x="478" 
d="M239 470q-30 0 -49.5 19.5t-19.5 48.5q0 30 19.5 49.5t49.5 19.5t49.5 -19.5t19.5 -49.5q0 -29 -19.5 -48.5t-49.5 -19.5zM48 298v97h382v-97h-382zM239 86q-30 0 -49.5 19.5t-19.5 48.5q0 30 19.5 49t49.5 19t49.5 -19t19.5 -49q0 -29 -19.5 -48.5t-49.5 -19.5z" />
    <glyph glyph-name="oslash" unicode="&#xf8;" horiz-adv-x="649" 
d="M505 481q47 -37 73 -92t26 -124q0 -60 -20.5 -110.5t-57.5 -87t-88.5 -57t-112.5 -20.5q-28 0 -53.5 4t-48.5 12l-48 -82h-98v11l67 114q-47 37 -73 92t-26 124q0 60 20.5 110.5t58 87t89 57t112.5 20.5q27 0 52.5 -4t48.5 -12l48 82h98v-11zM325 437q-37 0 -67.5 -13
t-53 -35.5t-35 -54t-12.5 -69.5q0 -37 12 -68t34 -54l169 288q-22 6 -47 6zM325 93q36 0 67 13t53.5 35.5t34.5 54.5t12 69q0 38 -12.5 69t-34.5 54l-169 -288q21 -7 49 -7z" />
    <glyph glyph-name="ugrave" unicode="&#xf9;" horiz-adv-x="646" 
d="M393 583h-107l-100 132v8h131l76 -133v-7zM462 530h111v-530h-109l-1 65q-68 -74 -177 -74q-103 0 -158 62t-55 178v299h111v-293q0 -145 127 -145q69 0 110 39.5t41 106.5v292z" />
    <glyph glyph-name="uacute" unicode="&#xfa;" horiz-adv-x="646" 
d="M462 715l-100 -132h-106v7l75 133h131v-8zM462 530h111v-530h-109l-1 65q-68 -74 -177 -74q-103 0 -158 62t-55 178v299h111v-293q0 -145 127 -145q69 0 110 39.5t41 106.5v292z" />
    <glyph glyph-name="ucircumflex" unicode="&#xfb;" horiz-adv-x="646" 
d="M324 659l-74 -78h-111v10l129 131h113l127 -131v-10h-110zM462 530h111v-530h-109l-1 65q-68 -74 -177 -74q-103 0 -158 62t-55 178v299h111v-293q0 -145 127 -145q69 0 110 39.5t41 106.5v292z" />
    <glyph glyph-name="udieresis" unicode="&#xfc;" horiz-adv-x="646" 
d="M205 589q-29 0 -49.5 19.5t-20.5 49.5t20.5 49t49.5 19q31 0 51 -19t20 -49t-20 -49.5t-51 -19.5zM442 589q-30 0 -50.5 19.5t-20.5 49.5t20.5 49t50.5 19t50 -19t20 -49t-20 -49.5t-50 -19.5zM462 530h111v-530h-109l-1 65q-68 -74 -177 -74q-103 0 -158 62t-55 178v299
h111v-293q0 -145 127 -145q69 0 110 39.5t41 106.5v292z" />
    <glyph glyph-name="yacute" unicode="&#xfd;" horiz-adv-x="556" 
d="M416 715l-100 -132h-106v7l75 133h131v-8zM422 530h121v-8l-300 -679h-120v7l93 207l-203 465v8h121l80 -193l62 -153l63 152z" />
    <glyph glyph-name="thorn" unicode="&#xfe;" horiz-adv-x="682" 
d="M374 540q58 0 106.5 -20.5t84 -57t55 -87t19.5 -110.5q0 -59 -19.5 -109.5t-54.5 -87t-83.5 -57.5t-107.5 -21q-55 0 -101 18t-81 51v-216h-111v857h111v-229q35 33 81 51t101 18zM359 94q37 0 67.5 12.5t53 35t35 54t12.5 69.5t-12.5 69.5t-35 54t-53 35t-67.5 12.5
t-68 -12.5t-53.5 -35t-35 -54t-12.5 -69.5t12.5 -69.5t35 -54t53.5 -35t68 -12.5z" />
    <glyph glyph-name="ydieresis" unicode="&#xff;" horiz-adv-x="556" 
d="M160 589q-29 0 -49.5 19.5t-20.5 49.5t20.5 49t49.5 19q31 0 51 -19t20 -49t-20 -49.5t-51 -19.5zM397 589q-30 0 -50.5 19.5t-20.5 49.5t20.5 49t50.5 19t50 -19t20 -49t-20 -49.5t-50 -19.5zM422 530h121v-8l-300 -679h-120v7l93 207l-203 465v8h121l80 -193l62 -153
l63 152z" />
    <glyph glyph-name="Amacron" unicode="&#x100;" horiz-adv-x="661" 
d="M491 874v-83h-320v83h320zM376 700l276 -688v-12h-123l-57 150h-283l-58 -150h-122v12l276 688h91zM330 522l-102 -266h205z" />
    <glyph glyph-name="amacron" unicode="&#x101;" horiz-adv-x="681" 
d="M496 689v-80h-311v80h311zM495 530h105v-530h-105l-2 62q-35 -35 -81.5 -53.5t-102.5 -18.5q-59 0 -108 20.5t-84 57.5t-54.5 87t-19.5 110t20 110.5t55 87t84 57t107 20.5q56 0 102.5 -18.5t81.5 -52.5zM323 94q37 0 67.5 12.5t53 35t35 54t12.5 69.5t-12.5 69.5t-35 54
t-53 35t-67.5 12.5q-36 0 -67 -12.5t-53 -35t-34.5 -54t-12.5 -69.5t12.5 -69.5t34.5 -54t53 -35t67 -12.5z" />
    <glyph glyph-name="Abreve" unicode="&#x102;" horiz-adv-x="661" 
d="M330 758q-78 0 -122 38t-44 105h89q0 -30 21 -47.5t56 -17.5q36 0 57 17.5t21 47.5h89q0 -66 -44.5 -104.5t-122.5 -38.5zM376 700l276 -688v-12h-123l-57 150h-283l-58 -150h-122v12l276 688h91zM330 522l-102 -266h205z" />
    <glyph glyph-name="abreve" unicode="&#x103;" horiz-adv-x="681" 
d="M340 584q-78 0 -122.5 39t-44.5 105h90q0 -30 21 -47.5t56 -17.5t56 17.5t21 47.5h89q0 -66 -44 -105t-122 -39zM495 530h105v-530h-105l-2 62q-35 -35 -81.5 -53.5t-102.5 -18.5q-59 0 -108 20.5t-84 57.5t-54.5 87t-19.5 110t20 110.5t55 87t84 57t107 20.5
q56 0 102.5 -18.5t81.5 -52.5zM323 94q37 0 67.5 12.5t53 35t35 54t12.5 69.5t-12.5 69.5t-35 54t-53 35t-67.5 12.5q-36 0 -67 -12.5t-53 -35t-34.5 -54t-12.5 -69.5t12.5 -69.5t34.5 -54t53 -35t67 -12.5z" />
    <glyph glyph-name="Aogonek" unicode="&#x104;" horiz-adv-x="661" 
d="M604 -121q22 0 52 9v-78q-23 -8 -41.5 -11.5t-38.5 -3.5q-47 0 -79.5 21t-32.5 65q0 29 17.5 58t59.5 61h-12l-57 150h-283l-58 -150h-122v12l276 688h91l276 -688v-12h1q-45 -30 -66.5 -52t-21.5 -42q1 -27 39 -27zM330 522l-102 -266h205z" />
    <glyph glyph-name="aogonek" unicode="&#x105;" horiz-adv-x="681" 
d="M551 -121q22 0 52 9v-78q-23 -8 -41.5 -11.5t-38.5 -3.5q-47 0 -79.5 21t-32.5 65q0 30 19.5 60t64.5 64l-2 57q-35 -35 -81.5 -53.5t-102.5 -18.5q-59 0 -108 20.5t-84 57.5t-54.5 87t-19.5 110t20 110.5t55 87t84 57t107 20.5q56 0 102.5 -18.5t81.5 -52.5l2 61h105
v-530q-45 -30 -66.5 -52t-21.5 -42q1 -27 39 -27zM323 94q37 0 67.5 12.5t53 35t35 54t12.5 69.5t-12.5 69.5t-35 54t-53 35t-67.5 12.5q-36 0 -67 -12.5t-53 -35t-34.5 -54t-12.5 -69.5t12.5 -69.5t34.5 -54t53 -35t67 -12.5z" />
    <glyph glyph-name="Cacute" unicode="&#x106;" horiz-adv-x="781" 
d="M338 762v7l89 131h127v-8l-111 -130h-105zM400 -10q-76 0 -140 27t-110.5 75t-73 114t-26.5 144t26.5 144t73 114t110.5 75t140 27q63 0 119 -18.5t100.5 -53t75.5 -83t45 -108.5h-121q-23 69 -80.5 108.5t-135.5 39.5q-51 0 -93.5 -18t-73.5 -50.5t-48 -77.5t-17 -99
t17 -99t48 -77.5t73.5 -50.5t93.5 -18q78 0 136.5 41.5t82.5 113.5h119q-13 -61 -44.5 -111t-76 -85.5t-100.5 -54.5t-120 -19z" />
    <glyph glyph-name="cacute" unicode="&#x107;" horiz-adv-x="620" 
d="M249 583v7l75 133h131v-8l-100 -132h-106zM318 -10q-60 0 -110.5 20t-87 56.5t-57 87t-20.5 110.5q0 61 20 112t56.5 87.5t87 56.5t111.5 20q51 0 95 -14.5t78.5 -41.5t58.5 -65t34 -86h-111q-18 49 -58 76t-95 27q-37 0 -67 -12.5t-52 -35t-34 -54t-12 -70.5
q0 -38 12 -69t34 -53.5t52 -35t67 -12.5q57 0 96.5 27t56.5 77h112q-10 -48 -34 -86.5t-58.5 -65.5t-79 -41.5t-95.5 -14.5z" />
    <glyph glyph-name="Ccircumflex" unicode="&#x108;" horiz-adv-x="781" 
d="M400 839l-78 -77h-107v9l129 129h114l127 -129v-9h-107zM741 260q-13 -61 -44.5 -111t-76 -85.5t-100.5 -54.5t-120 -19q-76 0 -140 27t-110.5 75t-73 114t-26.5 144t26.5 144t73 114t110.5 75t140 27q63 0 119 -18.5t100.5 -53t75.5 -83t45 -108.5h-121
q-23 69 -80.5 108.5t-135.5 39.5q-51 0 -93.5 -18t-73.5 -50.5t-48 -77.5t-17 -99t17 -99t48 -77.5t73.5 -50.5t93.5 -18q78 0 136.5 41.5t82.5 113.5h119z" />
    <glyph glyph-name="ccircumflex" unicode="&#x109;" horiz-adv-x="620" 
d="M318 659l-74 -78h-111v10l129 131h113l127 -131v-10h-110zM585 198q-10 -48 -34 -86.5t-58.5 -65.5t-79 -41.5t-95.5 -14.5q-60 0 -110.5 20t-87 56.5t-57 87t-20.5 110.5q0 61 20 112t56.5 87.5t87 56.5t111.5 20q51 0 95 -14.5t78.5 -41.5t58.5 -65t34 -86h-111
q-18 49 -58 76t-95 27q-37 0 -67 -12.5t-52 -35t-34 -54t-12 -70.5q0 -38 12 -69t34 -53.5t52 -35t67 -12.5q57 0 96.5 27t56.5 77h112z" />
    <glyph glyph-name="Cdotaccent" unicode="&#x10a;" horiz-adv-x="781" 
d="M400 761q-32 0 -53.5 21t-21.5 53t21.5 53.5t53.5 21.5t53 -21.5t21 -53.5t-21 -53t-53 -21zM400 -10q-76 0 -140 27t-110.5 75t-73 114t-26.5 144t26.5 144t73 114t110.5 75t140 27q63 0 119 -18.5t100.5 -53t75.5 -83t45 -108.5h-121q-23 69 -80.5 108.5t-135.5 39.5
q-51 0 -93.5 -18t-73.5 -50.5t-48 -77.5t-17 -99t17 -99t48 -77.5t73.5 -50.5t93.5 -18q78 0 136.5 41.5t82.5 113.5h119q-13 -61 -44.5 -111t-76 -85.5t-100.5 -54.5t-120 -19z" />
    <glyph glyph-name="cdotaccent" unicode="&#x10b;" horiz-adv-x="620" 
d="M317 588q-32 0 -52 20.5t-20 51.5q0 32 20 52.5t52 20.5t52.5 -20.5t20.5 -52.5q0 -31 -20.5 -51.5t-52.5 -20.5zM318 -10q-60 0 -110.5 20t-87 56.5t-57 87t-20.5 110.5q0 61 20 112t56.5 87.5t87 56.5t111.5 20q51 0 95 -14.5t78.5 -41.5t58.5 -65t34 -86h-111
q-18 49 -58 76t-95 27q-37 0 -67 -12.5t-52 -35t-34 -54t-12 -70.5q0 -38 12 -69t34 -53.5t52 -35t67 -12.5q57 0 96.5 27t56.5 77h112q-10 -48 -34 -86.5t-58.5 -65.5t-79 -41.5t-95.5 -14.5z" />
    <glyph glyph-name="Ccaron" unicode="&#x10c;" horiz-adv-x="781" 
d="M458 762h-114l-129 129v9h107l78 -78l78 78h107v-9zM741 260q-13 -61 -44.5 -111t-76 -85.5t-100.5 -54.5t-120 -19q-76 0 -140 27t-110.5 75t-73 114t-26.5 144t26.5 144t73 114t110.5 75t140 27q63 0 119 -18.5t100.5 -53t75.5 -83t45 -108.5h-121q-23 69 -80.5 108.5
t-135.5 39.5q-51 0 -93.5 -18t-73.5 -50.5t-48 -77.5t-17 -99t17 -99t48 -77.5t73.5 -50.5t93.5 -18q78 0 136.5 41.5t82.5 113.5h119z" />
    <glyph glyph-name="ccaron" unicode="&#x10d;" horiz-adv-x="620" 
d="M375 588h-114l-128 130v10h110l74 -78l74 78h111v-10zM585 198q-10 -48 -34 -86.5t-58.5 -65.5t-79 -41.5t-95.5 -14.5q-60 0 -110.5 20t-87 56.5t-57 87t-20.5 110.5q0 61 20 112t56.5 87.5t87 56.5t111.5 20q51 0 95 -14.5t78.5 -41.5t58.5 -65t34 -86h-111
q-18 49 -58 76t-95 27q-37 0 -67 -12.5t-52 -35t-34 -54t-12 -70.5q0 -38 12 -69t34 -53.5t52 -35t67 -12.5q57 0 96.5 27t56.5 77h112z" />
    <glyph glyph-name="Dcaron" unicode="&#x10e;" horiz-adv-x="745" 
d="M389 762h-114l-129 129v9h107l78 -78l78 78h107v-9zM335 700q80 0 146 -25.5t113.5 -72t74 -110.5t26.5 -142t-26.5 -142t-74 -110.5t-113.5 -72t-146 -25.5h-247v700h247zM328 113q57 0 102.5 17t77.5 48t49 75t17 97q0 54 -17 97.5t-49 74.5t-77.5 48t-102.5 17h-123
v-474h123z" />
    <glyph glyph-name="dcaron" unicode="&#x10f;" horiz-adv-x="696" 
d="M490 700h111v-700h-105l-2 63q-35 -35 -82 -54t-104 -19q-58 0 -107 21t-84 57.5t-54.5 87t-19.5 109.5q0 60 19.5 110.5t55 87t84 57t106.5 20.5q55 0 101 -18t81 -51v229zM662 700h103v-17l-34 -145h-89v5zM323 94q37 0 68 12.5t53.5 35t35 54t12.5 69.5t-12.5 69.5
t-35 54t-53.5 35t-68 12.5t-67.5 -12.5t-53 -35t-35 -54t-12.5 -69.5t12.5 -69.5t35 -54t53 -35t67.5 -12.5z" />
    <glyph glyph-name="Dcroat" unicode="&#x110;" horiz-adv-x="752" 
d="M343 700q80 0 146 -25.5t113.5 -72t73.5 -110.5t26 -142t-26 -142t-73.5 -110.5t-113.5 -72t-146 -25.5h-248v302h-85v99h85v299h248zM336 113q57 0 102.5 17t77 48t48.5 75t17 97q0 54 -17 97.5t-48.5 74.5t-77 48t-102.5 17h-123v-186h189v-99h-189v-189h123z" />
    <glyph glyph-name="dcroat" unicode="&#x111;" horiz-adv-x="680" 
d="M684 650v-70h-86v-580h-105l-2 62q-35 -34 -81.5 -53t-102.5 -19q-58 0 -106.5 20.5t-83.5 57t-54.5 86.5t-19.5 109q0 60 19.5 110t54.5 86.5t83.5 57t106.5 20.5q54 0 99.5 -18t80.5 -50v111h-140v70h140v50h111v-50h86zM322 94q36 0 67 12.5t53 35t34.5 53.5t12.5 68
q0 38 -12.5 69t-34.5 53.5t-53 35t-67 12.5t-67 -12.5t-53 -35t-34.5 -53.5t-12.5 -69q0 -37 12.5 -68t34.5 -53.5t53 -35t67 -12.5z" />
    <glyph glyph-name="Emacron" unicode="&#x112;" horiz-adv-x="573" 
d="M469 874v-83h-320v83h320zM205 113h319v-113h-436v700h429v-112h-312v-179h292v-111h-292v-185z" />
    <glyph glyph-name="emacron" unicode="&#x113;" horiz-adv-x="634" 
d="M474 689v-80h-311v80h311zM157 228q11 -62 54 -99t107 -37q48 0 85 19t56 51h120q-28 -80 -97.5 -126t-163.5 -46q-60 0 -110 20.5t-87 57t-57.5 87t-20.5 110.5t20.5 110.5t57.5 87t87 57t110 20.5q65 0 118 -22.5t89.5 -63.5t55 -98.5t12.5 -127.5h-436zM318 438
q-61 0 -102.5 -33.5t-55.5 -90.5h320q-14 55 -56.5 89.5t-105.5 34.5z" />
    <glyph glyph-name="Ebreve" unicode="&#x114;" horiz-adv-x="573" 
d="M308 758q-78 0 -122 38t-44 105h89q0 -30 21 -47.5t56 -17.5q36 0 57 17.5t21 47.5h89q0 -66 -44.5 -104.5t-122.5 -38.5zM205 113h319v-113h-436v700h429v-112h-312v-179h292v-111h-292v-185z" />
    <glyph glyph-name="ebreve" unicode="&#x115;" horiz-adv-x="634" 
d="M318 584q-78 0 -122.5 39t-44.5 105h90q0 -30 21 -47.5t56 -17.5t56 17.5t21 47.5h89q0 -66 -44 -105t-122 -39zM157 228q11 -62 54 -99t107 -37q48 0 85 19t56 51h120q-28 -80 -97.5 -126t-163.5 -46q-60 0 -110 20.5t-87 57t-57.5 87t-20.5 110.5t20.5 110.5t57.5 87
t87 57t110 20.5q65 0 118 -22.5t89.5 -63.5t55 -98.5t12.5 -127.5h-436zM318 438q-61 0 -102.5 -33.5t-55.5 -90.5h320q-14 55 -56.5 89.5t-105.5 34.5z" />
    <glyph glyph-name="Edotaccent" unicode="&#x116;" horiz-adv-x="573" 
d="M309 761q-32 0 -53.5 21t-21.5 53t21.5 53.5t53.5 21.5t53 -21.5t21 -53.5t-21 -53t-53 -21zM205 113h319v-113h-436v700h429v-112h-312v-179h292v-111h-292v-185z" />
    <glyph glyph-name="edotaccent" unicode="&#x117;" horiz-adv-x="634" 
d="M318 588q-32 0 -52 20.5t-20 51.5q0 32 20 52.5t52 20.5t52.5 -20.5t20.5 -52.5q0 -31 -20.5 -51.5t-52.5 -20.5zM157 228q11 -62 54 -99t107 -37q48 0 85 19t56 51h120q-28 -80 -97.5 -126t-163.5 -46q-60 0 -110 20.5t-87 57t-57.5 87t-20.5 110.5t20.5 110.5t57.5 87
t87 57t110 20.5q65 0 118 -22.5t89.5 -63.5t55 -98.5t12.5 -127.5h-436zM318 438q-61 0 -102.5 -33.5t-55.5 -90.5h320q-14 55 -56.5 89.5t-105.5 34.5z" />
    <glyph glyph-name="Eogonek" unicode="&#x118;" horiz-adv-x="573" 
d="M475 -121q22 0 52 9v-78q-23 -8 -41.5 -11.5t-38.5 -3.5q-47 0 -79.5 21t-32.5 65q0 29 17.5 58t59.5 61h-324v700h429v-112h-312v-179h292v-111h-292v-185h319v-113q-45 -30 -66.5 -52t-21.5 -42q1 -27 39 -27z" />
    <glyph glyph-name="eogonek" unicode="&#x119;" horiz-adv-x="634" 
d="M157 228q11 -62 54 -99t107 -37q48 0 85 19t56 51h120q-21 -61 -67 -102q-112 -100 -112 -152q0 -29 38 -29q23 0 53 9v-78q-23 -8 -42 -11.5t-39 -3.5q-23 0 -43.5 5.5t-35.5 16.5t-24 27.5t-9 38.5q0 49 46 108q-6 -1 -12.5 -1h-13.5q-60 0 -110 20.5t-87 57t-57.5 87
t-20.5 110.5t20.5 110.5t57.5 87t87 57t110 20.5q65 0 118 -22.5t89.5 -63.5t55 -98.5t12.5 -127.5h-436zM318 438q-61 0 -102.5 -33.5t-55.5 -90.5h320q-14 55 -56.5 89.5t-105.5 34.5z" />
    <glyph glyph-name="Ecaron" unicode="&#x11a;" horiz-adv-x="573" 
d="M367 762h-114l-129 129v9h107l78 -78l78 78h107v-9zM205 113h319v-113h-436v700h429v-112h-312v-179h292v-111h-292v-185z" />
    <glyph glyph-name="ecaron" unicode="&#x11b;" horiz-adv-x="634" 
d="M376 588h-114l-128 130v10h110l74 -78l74 78h111v-10zM157 228q11 -62 54 -99t107 -37q48 0 85 19t56 51h120q-28 -80 -97.5 -126t-163.5 -46q-60 0 -110 20.5t-87 57t-57.5 87t-20.5 110.5t20.5 110.5t57.5 87t87 57t110 20.5q65 0 118 -22.5t89.5 -63.5t55 -98.5
t12.5 -127.5h-436zM318 438q-61 0 -102.5 -33.5t-55.5 -90.5h320q-14 55 -56.5 89.5t-105.5 34.5z" />
    <glyph glyph-name="Gcircumflex" unicode="&#x11c;" horiz-adv-x="797" 
d="M399 839l-78 -77h-107v9l129 129h114l127 -129v-9h-107zM751 361q1 -82 -24.5 -150.5t-72 -117.5t-111 -76t-142.5 -27q-76 0 -140.5 27t-111 75t-73 114t-26.5 144t26 144t72.5 114t111 75t140.5 27q62 0 117 -18t99 -51t76 -80t47 -106h-122q-26 66 -82 103t-131 37
q-51 0 -94 -18t-74 -50.5t-48 -77.5t-17 -99t17 -99t48 -77.5t74 -50.5t94 -18q78 0 136.5 40t81.5 110h-248v106h377z" />
    <glyph glyph-name="gcircumflex" unicode="&#x11d;" horiz-adv-x="672" 
d="M337 659l-74 -78h-111v10l129 131h113l127 -131v-10h-110zM486 530h105v-453q0 -59 -20.5 -104.5t-57 -77t-85.5 -48t-106 -16.5q-48 0 -91.5 10.5t-78 32.5t-58 55t-30.5 77h112q6 -20 19.5 -34t32 -23t41 -13.5t45.5 -4.5q36 0 66.5 9t53 27t35 44.5t12.5 61.5v23
q-35 -32 -80.5 -50t-97.5 -18q-56 0 -103.5 19t-82.5 53t-54.5 81t-19.5 102t19.5 102t54 81.5t82.5 54t104 19.5q54 0 100 -19t81 -52zM319 126q36 0 66 11.5t51.5 32t33.5 49t12 63.5q0 72 -45 114t-118 42q-36 0 -66 -11.5t-51.5 -32.5t-33.5 -49.5t-12 -62.5t12 -62.5
t33.5 -49.5t51.5 -32.5t66 -11.5z" />
    <glyph glyph-name="Gbreve" unicode="&#x11e;" horiz-adv-x="797" 
d="M398 758q-78 0 -122 38t-44 105h89q0 -30 21 -47.5t56 -17.5q36 0 57 17.5t21 47.5h89q0 -66 -44.5 -104.5t-122.5 -38.5zM751 361q1 -82 -24.5 -150.5t-72 -117.5t-111 -76t-142.5 -27q-76 0 -140.5 27t-111 75t-73 114t-26.5 144t26 144t72.5 114t111 75t140.5 27
q62 0 117 -18t99 -51t76 -80t47 -106h-122q-26 66 -82 103t-131 37q-51 0 -94 -18t-74 -50.5t-48 -77.5t-17 -99t17 -99t48 -77.5t74 -50.5t94 -18q78 0 136.5 40t81.5 110h-248v106h377z" />
    <glyph glyph-name="gbreve" unicode="&#x11f;" horiz-adv-x="672" 
d="M337 584q-78 0 -122.5 39t-44.5 105h90q0 -30 21 -47.5t56 -17.5t56 17.5t21 47.5h89q0 -66 -44 -105t-122 -39zM486 530h105v-453q0 -59 -20.5 -104.5t-57 -77t-85.5 -48t-106 -16.5q-48 0 -91.5 10.5t-78 32.5t-58 55t-30.5 77h112q6 -20 19.5 -34t32 -23t41 -13.5
t45.5 -4.5q36 0 66.5 9t53 27t35 44.5t12.5 61.5v23q-35 -32 -80.5 -50t-97.5 -18q-56 0 -103.5 19t-82.5 53t-54.5 81t-19.5 102t19.5 102t54 81.5t82.5 54t104 19.5q54 0 100 -19t81 -52zM319 126q36 0 66 11.5t51.5 32t33.5 49t12 63.5q0 72 -45 114t-118 42
q-36 0 -66 -11.5t-51.5 -32.5t-33.5 -49.5t-12 -62.5t12 -62.5t33.5 -49.5t51.5 -32.5t66 -11.5z" />
    <glyph glyph-name="Gdotaccent" unicode="&#x120;" horiz-adv-x="797" 
d="M399 761q-32 0 -53.5 21t-21.5 53t21.5 53.5t53.5 21.5t53 -21.5t21 -53.5t-21 -53t-53 -21zM751 361q1 -82 -24.5 -150.5t-72 -117.5t-111 -76t-142.5 -27q-76 0 -140.5 27t-111 75t-73 114t-26.5 144t26 144t72.5 114t111 75t140.5 27q62 0 117 -18t99 -51t76 -80
t47 -106h-122q-26 66 -82 103t-131 37q-51 0 -94 -18t-74 -50.5t-48 -77.5t-17 -99t17 -99t48 -77.5t74 -50.5t94 -18q78 0 136.5 40t81.5 110h-248v106h377z" />
    <glyph glyph-name="gdotaccent" unicode="&#x121;" horiz-adv-x="672" 
d="M336 588q-32 0 -52 20.5t-20 51.5q0 32 20 52.5t52 20.5t52.5 -20.5t20.5 -52.5q0 -31 -20.5 -51.5t-52.5 -20.5zM486 530h105v-453q0 -59 -20.5 -104.5t-57 -77t-85.5 -48t-106 -16.5q-48 0 -91.5 10.5t-78 32.5t-58 55t-30.5 77h112q6 -20 19.5 -34t32 -23t41 -13.5
t45.5 -4.5q36 0 66.5 9t53 27t35 44.5t12.5 61.5v23q-35 -32 -80.5 -50t-97.5 -18q-56 0 -103.5 19t-82.5 53t-54.5 81t-19.5 102t19.5 102t54 81.5t82.5 54t104 19.5q54 0 100 -19t81 -52zM319 126q36 0 66 11.5t51.5 32t33.5 49t12 63.5q0 72 -45 114t-118 42
q-36 0 -66 -11.5t-51.5 -32.5t-33.5 -49.5t-12 -62.5t12 -62.5t33.5 -49.5t51.5 -32.5t66 -11.5z" />
    <glyph glyph-name="uni0122" unicode="&#x122;" horiz-adv-x="797" 
d="M751 361q1 -82 -24.5 -150.5t-72 -117.5t-111 -76t-142.5 -27q-76 0 -140.5 27t-111 75t-73 114t-26.5 144t26 144t72.5 114t111 75t140.5 27q62 0 117 -18t99 -51t76 -80t47 -106h-122q-26 66 -82 103t-131 37q-51 0 -94 -18t-74 -50.5t-48 -77.5t-17 -99t17 -99
t48 -77.5t74 -50.5t94 -18q78 0 136.5 40t81.5 110h-248v106h377zM316 -217l33 175h107v-23l-48 -152h-92z" />
    <glyph glyph-name="uni0123" unicode="&#x123;" horiz-adv-x="672" 
d="M406 741l-32 -158h-107v23l47 144h92v-9zM486 530h105v-453q0 -59 -20.5 -104.5t-57 -77t-85.5 -48t-106 -16.5q-48 0 -91.5 10.5t-78 32.5t-58 55t-30.5 77h112q6 -20 19.5 -34t32 -23t41 -13.5t45.5 -4.5q36 0 66.5 9t53 27t35 44.5t12.5 61.5v23q-35 -32 -80.5 -50
t-97.5 -18q-56 0 -103.5 19t-82.5 53t-54.5 81t-19.5 102t19.5 102t54 81.5t82.5 54t104 19.5q54 0 100 -19t81 -52zM319 126q36 0 66 11.5t51.5 32t33.5 49t12 63.5q0 72 -45 114t-118 42q-36 0 -66 -11.5t-51.5 -32.5t-33.5 -49.5t-12 -62.5t12 -62.5t33.5 -49.5
t51.5 -32.5t66 -11.5z" />
    <glyph glyph-name="Hcircumflex" unicode="&#x124;" horiz-adv-x="722" 
d="M362 839l-78 -77h-107v9l129 129h114l127 -129v-9h-107zM517 700h118v-700h-118v299h-312v-299h-117v700h117v-288h312v288z" />
    <glyph glyph-name="hcircumflex" unicode="&#x125;" horiz-adv-x="658" 
d="M211 751l-74 78l-74 -78h-111v10l129 131h113l127 -131v-10h-110zM366 539q109 0 164 -62.5t55 -177.5v-299h-111v291q0 147 -129 147q-70 0 -111.5 -40t-41.5 -107v-291h-111v700h111v-235q33 35 77.5 54.5t96.5 19.5z" />
    <glyph glyph-name="Hbar" unicode="&#x126;" horiz-adv-x="730" 
d="M713 602v-89h-74v-513h-118v299h-312v-299h-118v513h-74v89h74v98h118v-98h312v98h118v-98h74zM209 412h312v101h-312v-101z" />
    <glyph glyph-name="hbar" unicode="&#x127;" horiz-adv-x="650" 
d="M357 534q109 0 164.5 -62.5t55.5 -177.5v-294h-111v286q0 147 -130 147q-69 0 -110.5 -40t-41.5 -107v-286h-111v577h-77v69h77v54h111v-54h175v-69h-175v-116q32 35 77 54t96 19z" />
    <glyph glyph-name="Itilde" unicode="&#x128;" horiz-adv-x="466" 
d="M169 827q-37 0 -37 -61h-76q0 70 26.5 102.5t74.5 32.5q34 0 55 -13.5t38 -28.5q11 -10 22.5 -18t24.5 -8q36 0 36 63h76q0 -135 -99 -135q-33 0 -54.5 13t-37.5 27q-13 11 -24.5 18.5t-24.5 7.5zM292 108h121v-108h-360v108h121v486h-119v106h356v-106h-119v-486z" />
    <glyph glyph-name="itilde" unicode="&#x129;" horiz-adv-x="274" 
d="M203 577q-32 0 -51.5 14t-33.5 29q-11 11 -21.5 18t-21.5 7q-37 0 -37 -62h-72q0 71 27.5 103.5t75.5 32.5q32 0 51.5 -13.5t33.5 -28.5q11 -11 21 -18.5t21 -7.5q37 0 37 63h73q0 -67 -26 -102t-77 -35zM81 0v530h111v-530h-111z" />
    <glyph glyph-name="Imacron" unicode="&#x12a;" horiz-adv-x="466" 
d="M393 874v-83h-320v83h320zM292 108h121v-108h-360v108h121v486h-119v106h356v-106h-119v-486z" />
    <glyph glyph-name="imacron" unicode="&#x12b;" horiz-adv-x="274" 
d="M4 598v80h265v-80h-265zM81 0v530h111v-530h-111z" />
    <glyph glyph-name="Ibreve" unicode="&#x12c;" horiz-adv-x="466" 
d="M233 758q-78 0 -122 38t-44 105h89q0 -30 21 -47.5t56 -17.5q36 0 57 17.5t21 47.5h89q0 -66 -44.5 -104.5t-122.5 -38.5zM292 108h121v-108h-360v108h121v486h-119v106h356v-106h-119v-486z" />
    <glyph glyph-name="ibreve" unicode="&#x12d;" horiz-adv-x="274" 
d="M137 585q-66 0 -104 36.5t-38 99.5h85q0 -29 15.5 -45t41.5 -16t41.5 16t15.5 45h85q0 -63 -38 -99.5t-104 -36.5zM81 0v530h111v-530h-111z" />
    <glyph glyph-name="Iogonek" unicode="&#x12e;" horiz-adv-x="466" 
d="M322 0q-45 -30 -66.5 -52t-21.5 -42q1 -27 39 -27q22 0 52 9v-78q-23 -8 -41.5 -11.5t-38.5 -3.5q-47 0 -79.5 21t-32.5 65q0 29 17.5 58t59.5 61h-157v108h121v486h-119v106h356v-106h-119v-486h121v-108h-91z" />
    <glyph glyph-name="iogonek" unicode="&#x12f;" horiz-adv-x="274" 
d="M136 590q-33 0 -54.5 21t-21.5 53t21.5 54t54.5 22q34 0 55.5 -22t21.5 -54t-21.5 -53t-55.5 -21zM171 -121q23 0 53 9v-78q-23 -8 -42.5 -11.5t-39.5 -3.5q-22 0 -42.5 5t-35.5 15.5t-24 26.5t-9 39q0 29 14.5 56.5t47.5 62.5h-12v530h111v-530q-31 -32 -45 -53t-14 -41
q1 -27 38 -27z" />
    <glyph glyph-name="Idotaccent" unicode="&#x130;" horiz-adv-x="466" 
d="M234 761q-32 0 -53.5 21t-21.5 53t21.5 53.5t53.5 21.5t53 -21.5t21 -53.5t-21 -53t-53 -21zM292 108h121v-108h-360v108h121v486h-119v106h356v-106h-119v-486z" />
    <glyph glyph-name="dotlessi" unicode="&#x131;" horiz-adv-x="274" 
d="M81 0v530h111v-530h-111z" />
    <glyph glyph-name="IJ" unicode="&#x132;" horiz-adv-x="957" 
d="M292 594v-486h121v-108h-360v108h121v486h-119v106h356v-106h-119zM589 700h292v-419q0 -141 -68 -215.5t-211 -74.5q-49 0 -106 9v115q50 -9 88 -9q95 0 137 48.5t42 133.5v301h-174v111z" />
    <glyph glyph-name="ij" unicode="&#x133;" horiz-adv-x="549" 
d="M136 590q-33 0 -54.5 21t-21.5 53t21.5 54t54.5 22q34 0 55.5 -22t21.5 -54t-21.5 -53t-55.5 -21zM412 590q-33 0 -55 21.5t-22 53.5t22 53.5t55 21.5t55 -21.5t22 -53.5t-22 -53.5t-55 -21.5zM81 0v530h111v-530h-111zM292 -168q-14 0 -29 1.5t-32 3.5v98q20 -3 38 -3
q46 0 66.5 19t20.5 64v515h111v-527q0 -89 -43.5 -130t-131.5 -41z" />
    <glyph glyph-name="Jcircumflex" unicode="&#x134;" horiz-adv-x="491" 
d="M327 900l127 -129v-9h-107l-78 77l-78 -77h-107v9l129 129h114zM123 589v111h292v-419q0 -141 -68 -215.5t-211 -74.5q-49 0 -106 9v115q50 -9 88 -9q95 0 137 48.5t42 133.5v301h-174z" />
    <glyph glyph-name="jcircumflex" unicode="&#x135;" horiz-adv-x="275" 
d="M180 724l109 -132v-9h-110l-42 55l-40 -55h-110v9l109 132h84zM82 530h111v-527q0 -89 -43.5 -130t-131.5 -41q-14 0 -29 1.5t-32 3.5v98q19 -3 38 -3q46 0 66.5 19t20.5 64v515z" />
    <glyph glyph-name="uni0136" unicode="&#x136;" horiz-adv-x="630" 
d="M343 356l272 -344v-12h-140l-269 352v-352h-118v700h118v-346l258 346h135v-12zM247 -217l33 175h107v-23l-48 -152h-92z" />
    <glyph glyph-name="uni0137" unicode="&#x137;" horiz-adv-x="553" 
d="M81 0v700h111v-700h-111zM324 269l215 -261v-8h-134l-201 252v26l190 252h128v-8zM197 -217l33 175h107v-23l-48 -152h-92z" />
    <glyph glyph-name="kgreenlandic" unicode="&#x138;" horiz-adv-x="553" 
d="M81 0v530h111v-530h-111zM324 269l215 -261v-8h-133l-202 252v26l191 252h127v-8z" />
    <glyph glyph-name="Lacute" unicode="&#x139;" horiz-adv-x="548" 
d="M301 892l-111 -130h-105v7l89 131h127v-8zM205 113h321v-113h-438v700h117v-587z" />
    <glyph glyph-name="lacute" unicode="&#x13a;" horiz-adv-x="274" 
d="M68 753v7l75 133h131v-8l-100 -132h-106zM81 0v700h111v-700h-111z" />
    <glyph glyph-name="uni013B" unicode="&#x13b;" horiz-adv-x="548" 
d="M205 113h321v-113h-438v700h117v-587zM222 -217l33 175h107v-23l-48 -152h-92z" />
    <glyph glyph-name="uni013C" unicode="&#x13c;" horiz-adv-x="274" 
d="M81 0v700h111v-700h-111zM57 -217l33 175h107v-23l-48 -152h-92z" />
    <glyph glyph-name="Lcaron" unicode="&#x13d;" horiz-adv-x="548" 
d="M205 113h321v-113h-438v700h117v-587zM460 683l-34 -145h-89v5l20 157h103v-17z" />
    <glyph glyph-name="lcaron" unicode="&#x13e;" horiz-adv-x="288" 
d="M81 0v700h111v-700h-111zM233 543l20 157h103v-17l-34 -145h-89v5z" />
    <glyph glyph-name="Ldot" unicode="&#x13f;" horiz-adv-x="548" 
d="M205 113h321v-113h-438v700h117v-587zM401 336q-29 0 -48.5 19.5t-19.5 48.5t19.5 48.5t48.5 19.5q30 0 49.5 -19.5t19.5 -48.5t-19.5 -48.5t-49.5 -19.5z" />
    <glyph glyph-name="ldot" unicode="&#x140;" horiz-adv-x="404" 
d="M81 0v700h111v-700h-111zM335 311q-30 0 -49.5 19t-19.5 48t19.5 48t49.5 19t49.5 -19t19.5 -48t-19.5 -48t-49.5 -19z" />
    <glyph glyph-name="Lslash" unicode="&#x141;" horiz-adv-x="548" 
d="M205 113h321v-113h-438v270l-85 -42v107l85 42v323h117v-266l190 94v-107l-190 -94v-214z" />
    <glyph glyph-name="lslash" unicode="&#x142;" horiz-adv-x="328" 
d="M315 493v-101l-96 -51v-341h-111v283l-96 -51v100l96 51v317h111v-258z" />
    <glyph glyph-name="Nacute" unicode="&#x143;" horiz-adv-x="722" 
d="M516 892l-111 -130h-105v7l89 131h127v-8zM635 700v-700h-91l-339 467v-467h-117v700h89l340 -469v469h118z" />
    <glyph glyph-name="nacute" unicode="&#x144;" horiz-adv-x="658" 
d="M467 715l-100 -132h-106v7l75 133h131v-8zM370 539q104 0 159.5 -62.5t55.5 -177.5v-299h-111v291q0 147 -129 147q-70 0 -111.5 -40t-41.5 -107v-291h-111v530h109l1 -65q33 35 77.5 54.5t101.5 19.5z" />
    <glyph glyph-name="uni0145" unicode="&#x145;" horiz-adv-x="722" 
d="M635 700v-700h-91l-339 467v-467h-117v700h89l340 -469v469h118zM276 -217l33 175h107v-23l-48 -152h-92z" />
    <glyph glyph-name="uni0146" unicode="&#x146;" horiz-adv-x="658" 
d="M370 539q104 0 159.5 -62.5t55.5 -177.5v-299h-111v291q0 147 -129 147q-70 0 -111.5 -40t-41.5 -107v-291h-111v530h109l1 -65q33 35 77.5 54.5t101.5 19.5zM250 -217l33 175h107v-23l-48 -152h-92z" />
    <glyph glyph-name="Ncaron" unicode="&#x147;" horiz-adv-x="722" 
d="M420 762h-114l-129 129v9h107l78 -78l78 78h107v-9zM635 700v-700h-91l-339 467v-467h-117v700h89l340 -469v469h118z" />
    <glyph glyph-name="ncaron" unicode="&#x148;" horiz-adv-x="658" 
d="M387 588h-114l-128 130v10h110l74 -78l74 78h111v-10zM370 539q104 0 159.5 -62.5t55.5 -177.5v-299h-111v291q0 147 -129 147q-70 0 -111.5 -40t-41.5 -107v-291h-111v530h109l1 -65q33 35 77.5 54.5t101.5 19.5z" />
    <glyph glyph-name="napostrophe" unicode="&#x149;" horiz-adv-x="727" 
d="M-19 480l47 220h116v-26l-63 -202h-100v8zM439 537q105 0 160 -62t55 -177v-298h-111v290q0 146 -129 146q-70 0 -111.5 -40t-41.5 -106v-290h-111v528h109l1 -66q33 36 77.5 55.5t101.5 19.5z" />
    <glyph glyph-name="Eng" unicode="&#x14a;" horiz-adv-x="722" 
d="M635 700v-700q0 -44 -15 -80.5t-44 -62.5t-72 -40.5t-99 -14.5q-21 0 -45.5 1.5t-50.5 5.5v108q23 -3 46.5 -4.5t40.5 -1.5q124 0 124 106v16l-315 434v-467h-117v700h89l340 -469v469h118z" />
    <glyph glyph-name="eng" unicode="&#x14b;" horiz-adv-x="658" 
d="M370 539q103 0 159 -61.5t56 -178.5v-297q0 -101 -59 -150.5t-161 -49.5q-15 0 -34.5 1t-42.5 4v99q17 -2 33 -3t27 -1q62 -2 94 23.5t32 88.5v277q0 147 -129 147q-70 0 -111.5 -40t-41.5 -107v-291h-111v530h109l1 -65q33 35 77.5 54.5t101.5 19.5z" />
    <glyph glyph-name="Omacron" unicode="&#x14c;" horiz-adv-x="813" 
d="M247 791v83h320v-83h-320zM407 -10q-78 0 -143.5 27t-113 75t-74 114t-26.5 144t26.5 144t74 114t113 75t143.5 27q77 0 142.5 -27t113 -75t74 -114t26.5 -144t-26.5 -144t-74 -114t-113 -75t-142.5 -27zM407 105q52 0 95 18t74 50.5t48.5 77.5t17.5 99t-17.5 99
t-48.5 77.5t-74 50.5t-95 18t-95 -18t-74.5 -50.5t-49 -77.5t-17.5 -99t17.5 -99t49 -77.5t74.5 -50.5t95 -18z" />
    <glyph glyph-name="omacron" unicode="&#x14d;" horiz-adv-x="646" 
d="M167 609v80h311v-80h-311zM323 -10q-61 0 -112.5 20.5t-89 57t-58 87t-20.5 110.5t20.5 110.5t58 87t89 57t112.5 20.5t112.5 -20.5t88.5 -57t58 -87t21 -110.5t-21 -110.5t-58 -87t-88.5 -57t-112.5 -20.5zM323 94q36 0 67 12.5t53 35.5t34.5 54.5t12.5 68.5
q0 38 -12.5 69t-34.5 54t-53 35.5t-67 12.5t-67 -12.5t-53 -35.5t-34.5 -54t-12.5 -69q0 -37 12.5 -68.5t34.5 -54.5t53 -35.5t67 -12.5z" />
    <glyph glyph-name="Obreve" unicode="&#x14e;" horiz-adv-x="813" 
d="M406 758q-78 0 -122 38t-44 105h89q0 -30 21 -47.5t56 -17.5q36 0 57 17.5t21 47.5h89q0 -66 -44.5 -104.5t-122.5 -38.5zM407 -10q-78 0 -143.5 27t-113 75t-74 114t-26.5 144t26.5 144t74 114t113 75t143.5 27q77 0 142.5 -27t113 -75t74 -114t26.5 -144t-26.5 -144
t-74 -114t-113 -75t-142.5 -27zM407 105q52 0 95 18t74 50.5t48.5 77.5t17.5 99t-17.5 99t-48.5 77.5t-74 50.5t-95 18t-95 -18t-74.5 -50.5t-49 -77.5t-17.5 -99t17.5 -99t49 -77.5t74.5 -50.5t95 -18z" />
    <glyph glyph-name="obreve" unicode="&#x14f;" horiz-adv-x="646" 
d="M323 584q-78 0 -122.5 39t-44.5 105h90q0 -30 21 -47.5t56 -17.5t56 17.5t21 47.5h89q0 -66 -44 -105t-122 -39zM323 -10q-61 0 -112.5 20.5t-89 57t-58 87t-20.5 110.5t20.5 110.5t58 87t89 57t112.5 20.5t112.5 -20.5t88.5 -57t58 -87t21 -110.5t-21 -110.5t-58 -87
t-88.5 -57t-112.5 -20.5zM323 94q36 0 67 12.5t53 35.5t34.5 54.5t12.5 68.5q0 38 -12.5 69t-34.5 54t-53 35.5t-67 12.5t-67 -12.5t-53 -35.5t-34.5 -54t-12.5 -69q0 -37 12.5 -68.5t34.5 -54.5t53 -35.5t67 -12.5z" />
    <glyph glyph-name="Ohungarumlaut" unicode="&#x150;" horiz-adv-x="813" 
d="M262 762v7l77 131h126v-8l-99 -130h-104zM435 762v7l98 131h125v-8l-120 -130h-103zM407 -10q-78 0 -143.5 27t-113 75t-74 114t-26.5 144t26.5 144t74 114t113 75t143.5 27q77 0 142.5 -27t113 -75t74 -114t26.5 -144t-26.5 -144t-74 -114t-113 -75t-142.5 -27zM407 105
q52 0 95 18t74 50.5t48.5 77.5t17.5 99t-17.5 99t-48.5 77.5t-74 50.5t-95 18t-95 -18t-74.5 -50.5t-49 -77.5t-17.5 -99t17.5 -99t49 -77.5t74.5 -50.5t95 -18z" />
    <glyph glyph-name="ohungarumlaut" unicode="&#x151;" horiz-adv-x="646" 
d="M174 583v7l78 133h125v-8l-99 -132h-104zM347 583v7l99 133h125v-8l-121 -132h-103zM323 -10q-61 0 -112.5 20.5t-89 57t-58 87t-20.5 110.5t20.5 110.5t58 87t89 57t112.5 20.5t112.5 -20.5t88.5 -57t58 -87t21 -110.5t-21 -110.5t-58 -87t-88.5 -57t-112.5 -20.5z
M323 94q36 0 67 12.5t53 35.5t34.5 54.5t12.5 68.5q0 38 -12.5 69t-34.5 54t-53 35.5t-67 12.5t-67 -12.5t-53 -35.5t-34.5 -54t-12.5 -69q0 -37 12.5 -68.5t34.5 -54.5t53 -35.5t67 -12.5z" />
    <glyph glyph-name="OE" unicode="&#x152;" horiz-adv-x="969" 
d="M919 113v-113h-422q-41 -10 -90 -10q-78 0 -143.5 27t-113 75t-74 114t-26.5 144t26.5 144t74 114t113 75t143.5 27q50 0 91 -10h414v-112h-312v-179h293v-111h-293v-185h319zM171 350q0 -54 17.5 -99t49 -77.5t74.5 -50.5t95 -18q38 0 76 11v468q-38 11 -76 11
q-52 0 -95 -18t-74.5 -50.5t-49 -77.5t-17.5 -99z" />
    <glyph glyph-name="oe" unicode="&#x153;" horiz-adv-x="1081" 
d="M604 228q11 -62 53.5 -99t107.5 -37q47 0 84 18.5t57 51.5h120q-28 -80 -97 -126t-162 -46q-71 0 -128 28t-93 78q-37 -50 -95 -78t-130 -28q-61 0 -112 20.5t-88 57t-57.5 87t-20.5 110.5t20.5 110.5t57.5 87t88 57t112 20.5q72 0 130 -28t95 -78q36 50 93 78t128 28
q64 0 116.5 -22.5t89.5 -63.5t55 -98.5t12 -127.5h-436zM765 438q-61 0 -102.5 -33.5t-55.5 -90.5h319q-14 55 -56.5 89.5t-104.5 34.5zM323 94q36 0 67 12.5t53 35.5t34.5 54.5t12.5 68.5q0 38 -12.5 69t-34.5 54t-53 35.5t-67 12.5t-67 -12.5t-53 -35.5t-34.5 -54
t-12.5 -69q0 -37 12.5 -68.5t34.5 -54.5t53 -35.5t67 -12.5z" />
    <glyph glyph-name="Racute" unicode="&#x154;" horiz-adv-x="623" 
d="M469 892l-111 -130h-105v7l89 131h127v-8zM602 12v-12h-138l-235 301v57h113q54 0 85.5 30t31.5 84t-33 85t-88 31h-133v-588h-117v700h254q59 0 103 -19t74 -50t45 -71.5t15 -83.5q0 -37 -11.5 -72t-34 -63.5t-57 -48.5t-79.5 -28z" />
    <glyph glyph-name="racute" unicode="&#x155;" horiz-adv-x="433" 
d="M377 715l-100 -132h-106v7l75 133h131v-8zM343 538q29 0 64 -8v-101q-14 3 -28 5t-28 2q-35 0 -64 -11t-50 -31t-33 -49t-12 -64v-281h-111v530h108l2 -67q57 75 152 75z" />
    <glyph glyph-name="uni0156" unicode="&#x156;" horiz-adv-x="623" 
d="M602 12v-12h-138l-235 301v57h113q54 0 85.5 30t31.5 84t-33 85t-88 31h-133v-588h-117v700h254q59 0 103 -19t74 -50t45 -71.5t15 -83.5q0 -37 -11.5 -72t-34 -63.5t-57 -48.5t-79.5 -28zM238 -217l33 175h107v-23l-48 -152h-92z" />
    <glyph glyph-name="uni0157" unicode="&#x157;" horiz-adv-x="433" 
d="M343 538q29 0 64 -8v-101q-14 3 -28 5t-28 2q-35 0 -64 -11t-50 -31t-33 -49t-12 -64v-281h-111v530h108l2 -67q57 75 152 75zM57 -217l33 175h107v-23l-48 -152h-92z" />
    <glyph glyph-name="Rcaron" unicode="&#x158;" horiz-adv-x="623" 
d="M374 762h-114l-129 129v9h107l78 -78l78 78h107v-9zM602 12v-12h-138l-235 301v57h113q54 0 85.5 30t31.5 84t-33 85t-88 31h-133v-588h-117v700h254q59 0 103 -19t74 -50t45 -71.5t15 -83.5q0 -37 -11.5 -72t-34 -63.5t-57 -48.5t-79.5 -28z" />
    <glyph glyph-name="rcaron" unicode="&#x159;" horiz-adv-x="433" 
d="M313 728h111v-10l-127 -130h-114l-128 130v10h110l74 -78zM191 463q57 75 152 75q29 0 64 -8v-101q-14 3 -28 5t-28 2q-35 0 -64 -11t-50 -31t-33 -49t-12 -64v-281h-111v530h108z" />
    <glyph glyph-name="Sacute" unicode="&#x15a;" horiz-adv-x="608" 
d="M246 762v7l89 131h127v-8l-111 -130h-105zM308 -10q-57 0 -103 16t-80 45.5t-54 72t-23 95.5h117q5 -54 43 -85t100 -31q66 0 103 26t37 71q0 42 -35.5 66.5t-120.5 38.5q-114 18 -172.5 66t-58.5 136q0 45 18 82.5t50 64.5t77 41.5t99 14.5q108 0 174.5 -56.5
t77.5 -153.5h-118q-9 50 -44 74t-92 24q-58 0 -91 -23.5t-33 -65.5q0 -20 7.5 -35.5t25 -27t47 -20t72.5 -15.5q117 -19 177 -70t60 -139q0 -48 -19 -87.5t-53.5 -67t-82 -42.5t-105.5 -15z" />
    <glyph glyph-name="sacute" unicode="&#x15b;" horiz-adv-x="535" 
d="M201 583v7l75 133h131v-8l-100 -132h-106zM270 -9q-102 0 -161.5 46.5t-63.5 128.5h112q3 -38 33.5 -57.5t81.5 -19.5t82 15.5t31 47.5q0 14 -5.5 24t-20 17.5t-38.5 13t-61 10.5q-55 8 -94.5 21.5t-65 33t-37 46.5t-11.5 62q0 39 17 69t46 50t69 30.5t86 10.5
q94 0 150.5 -44t61.5 -120h-110q-4 32 -31 49.5t-74 17.5q-49 0 -76 -16t-27 -45q0 -15 6.5 -25.5t21.5 -18.5t39.5 -14t60.5 -11q46 -6 84 -17t65 -29t41.5 -45t14.5 -65q0 -42 -17.5 -73t-48 -51.5t-72 -31t-89.5 -10.5z" />
    <glyph glyph-name="Scircumflex" unicode="&#x15c;" horiz-adv-x="608" 
d="M308 839l-78 -77h-107v9l129 129h114l127 -129v-9h-107zM331 411q117 -19 177 -70t60 -139q0 -48 -19 -87.5t-53.5 -67t-82 -42.5t-105.5 -15q-57 0 -103 16t-80 45.5t-54 72t-23 95.5h117q5 -54 43 -85t100 -31q66 0 103 26t37 71q0 42 -35.5 66.5t-120.5 38.5
q-114 18 -172.5 66t-58.5 136q0 45 18 82.5t50 64.5t77 41.5t99 14.5q108 0 174.5 -56.5t77.5 -153.5h-118q-9 50 -44 74t-92 24q-58 0 -91 -23.5t-33 -65.5q0 -20 7.5 -35.5t25 -27t47 -20t72.5 -15.5z" />
    <glyph glyph-name="scircumflex" unicode="&#x15d;" horiz-adv-x="535" 
d="M270 659l-74 -78h-111v10l129 131h113l127 -131v-10h-110zM292 313q46 -6 84 -17t65 -29t41.5 -45t14.5 -65q0 -42 -17.5 -73t-48 -51.5t-72 -31t-89.5 -10.5q-102 0 -161.5 46.5t-63.5 128.5h112q3 -38 33.5 -57.5t81.5 -19.5t82 15.5t31 47.5q0 14 -5.5 24t-20 17.5
t-38.5 13t-61 10.5q-55 8 -94.5 21.5t-65 33t-37 46.5t-11.5 62q0 39 17 69t46 50t69 30.5t86 10.5q94 0 150.5 -44t61.5 -120h-110q-4 32 -31 49.5t-74 17.5q-49 0 -76 -16t-27 -45q0 -15 6.5 -25.5t21.5 -18.5t39.5 -14t60.5 -11z" />
    <glyph glyph-name="Scedilla" unicode="&#x15e;" horiz-adv-x="608" 
d="M568 202q0 -43 -15.5 -79.5t-43.5 -63.5t-68 -44t-88 -23l-19 -39q94 -3 94 -74q0 -26 -10.5 -42.5t-28 -26t-41.5 -13.5t-51 -4q-20 0 -43.5 2.5t-46.5 7.5v72q26 -6 45 -8t36 -2q53 0 53 21q0 22 -47 22q-20 0 -39 -4l-12 17l32 70q-100 10 -160.5 70t-66.5 158h117
q5 -54 43 -85t100 -31q66 0 103 26t37 71q0 42 -35.5 66.5t-120.5 38.5q-114 18 -172.5 66t-58.5 136q0 45 18 82.5t50 64.5t77 41.5t99 14.5q108 0 174.5 -56.5t77.5 -153.5h-118q-9 50 -44 74t-92 24q-58 0 -91 -23.5t-33 -65.5q0 -20 7.5 -35.5t25 -27t47 -20t72.5 -15.5
q117 -19 177 -70t60 -139z" />
    <glyph glyph-name="scedilla" unicode="&#x15f;" horiz-adv-x="535" 
d="M497 157q0 -37 -13.5 -65.5t-38 -49t-58 -33t-73.5 -16.5l-17 -33q45 -2 66 -23.5t21 -53.5q0 -90 -118 -90q-18 0 -42 2.5t-49 7.5v72q17 -5 36 -7.5t36 -2.5q22 0 37.5 5t15.5 20q0 12 -14 17.5t-33 5.5q-11 0 -19.5 -1t-18.5 -3l-13 17l33 67q-86 8 -136 53t-54 120
h112q3 -38 33.5 -57.5t81.5 -19.5t82 15.5t31 47.5q0 14 -5.5 24t-20 17.5t-38.5 13t-61 10.5q-55 8 -94.5 21.5t-65 33t-37 46.5t-11.5 62q0 39 17 69t46 50t69 30.5t86 10.5q94 0 150.5 -44t61.5 -120h-110q-4 32 -31 49.5t-74 17.5q-49 0 -76 -16t-27 -45
q0 -15 6.5 -25.5t21.5 -18.5t39.5 -14t60.5 -11q46 -6 84 -17t65 -29t41.5 -45t14.5 -65z" />
    <glyph glyph-name="Scaron" unicode="&#x160;" horiz-adv-x="608" 
d="M367 762h-114l-129 129v9h107l78 -78l78 78h107v-9zM331 411q117 -19 177 -70t60 -139q0 -48 -19 -87.5t-53.5 -67t-82 -42.5t-105.5 -15q-57 0 -103 16t-80 45.5t-54 72t-23 95.5h117q5 -54 43 -85t100 -31q66 0 103 26t37 71q0 42 -35.5 66.5t-120.5 38.5
q-114 18 -172.5 66t-58.5 136q0 45 18 82.5t50 64.5t77 41.5t99 14.5q108 0 174.5 -56.5t77.5 -153.5h-118q-9 50 -44 74t-92 24q-58 0 -91 -23.5t-33 -65.5q0 -20 7.5 -35.5t25 -27t47 -20t72.5 -15.5z" />
    <glyph glyph-name="scaron" unicode="&#x161;" horiz-adv-x="535" 
d="M327 588h-114l-128 130v10h110l74 -78l74 78h111v-10zM292 313q46 -6 84 -17t65 -29t41.5 -45t14.5 -65q0 -42 -17.5 -73t-48 -51.5t-72 -31t-89.5 -10.5q-102 0 -161.5 46.5t-63.5 128.5h112q3 -38 33.5 -57.5t81.5 -19.5t82 15.5t31 47.5q0 14 -5.5 24t-20 17.5
t-38.5 13t-61 10.5q-55 8 -94.5 21.5t-65 33t-37 46.5t-11.5 62q0 39 17 69t46 50t69 30.5t86 10.5q94 0 150.5 -44t61.5 -120h-110q-4 32 -31 49.5t-74 17.5q-49 0 -76 -16t-27 -45q0 -15 6.5 -25.5t21.5 -18.5t39.5 -14t60.5 -11z" />
    <glyph glyph-name="uni0162" unicode="&#x162;" horiz-adv-x="567" 
d="M343 0h-21l-22 -47q94 -3 94 -74q0 -26 -10.5 -42.5t-28 -26t-41.5 -13.5t-51 -4q-20 0 -43.5 2.5t-46.5 7.5v72q26 -6 45 -8t36 -2q53 0 53 21q0 22 -47 22q-20 0 -39 -4l-12 17l36 79h-20v589h-198v111h514v-111h-198v-589z" />
    <glyph glyph-name="uni0163" unicode="&#x163;" horiz-adv-x="415" 
d="M307 -5l-18 -35q45 -2 66 -23.5t21 -53.5q0 -90 -118 -90q-18 0 -42 2.5t-49 7.5v72q17 -5 36 -7.5t36 -2.5q22 0 37.5 5t15.5 20q0 12 -14 17.5t-33 5.5q-11 0 -19.5 -1t-18.5 -3l-13 17l39 78q-56 15 -84 55.5t-28 110.5v267h-103v93h103v121l111 12v-133h138v-93h-138
v-254q0 -47 22.5 -67t72.5 -20q11 0 23.5 1t26.5 3v-100q-18 -2 -36 -3.5t-33 -1.5h-1z" />
    <glyph glyph-name="Tcaron" unicode="&#x164;" horiz-adv-x="567" 
d="M342 762h-114l-129 129v9h107l78 -78l78 78h107v-9zM541 700v-111h-198v-589h-118v589h-198v111h514z" />
    <glyph glyph-name="tcaron" unicode="&#x165;" horiz-adv-x="415" 
d="M320 753h103v-17l-34 -145h-89v5zM232 183q0 -47 22.5 -67t72.5 -20q11 0 23.5 1t26.5 3v-100q-18 -2 -36 -3.5t-33 -1.5q-93 0 -140 42t-47 133v267h-103v93h103v121l111 12v-133h138v-93h-138v-254z" />
    <glyph glyph-name="Tbar" unicode="&#x166;" horiz-adv-x="567" 
d="M541 589h-198v-198h121v-97h-121v-294h-118v294h-121v97h121v198h-198v111h514v-111z" />
    <glyph glyph-name="tbar" unicode="&#x167;" horiz-adv-x="416" 
d="M327 96q25 0 48 4v-100q-18 -2 -35 -3.5t-32 -1.5q-93 0 -140 42t-47 133v75h-95v83h95v111h-103v91h103v122l111 12v-134h138v-91h-138v-111h130v-83h-130v-62q0 -47 22.5 -67t72.5 -20z" />
    <glyph glyph-name="Utilde" unicode="&#x168;" horiz-adv-x="694" 
d="M423 761q-33 0 -54.5 13t-37.5 27q-13 11 -24.5 18.5t-24.5 7.5q-37 0 -37 -61h-76q0 70 26.5 102.5t74.5 32.5q34 0 55 -13.5t38 -28.5q11 -10 22.5 -18t24.5 -8q36 0 36 63h76q0 -135 -99 -135zM347 -8q-61 0 -111 18t-85 51.5t-54.5 81.5t-19.5 107v450h118v-437
q0 -74 41 -114.5t111 -40.5t111 40.5t41 114.5v437h118v-450q0 -59 -19.5 -107t-55 -81.5t-85 -51.5t-110.5 -18z" />
    <glyph glyph-name="utilde" unicode="&#x169;" horiz-adv-x="646" 
d="M257 644q-17 0 -26.5 -15.5t-9.5 -45.5h-80q0 71 28.5 104.5t77.5 33.5q35 0 57.5 -13.5t39.5 -28.5q11 -10 23.5 -17t23.5 -7q37 0 37 61h79q0 -68 -26.5 -103t-77.5 -35q-34 0 -56.5 13t-39.5 27q-14 11 -25 18.5t-25 7.5zM462 530h111v-530h-109l-1 65
q-68 -74 -177 -74q-103 0 -158 62t-55 178v299h111v-293q0 -145 127 -145q69 0 110 39.5t41 106.5v292z" />
    <glyph glyph-name="Umacron" unicode="&#x16a;" horiz-adv-x="694" 
d="M187 791v83h320v-83h-320zM347 -8q-61 0 -111 18t-85 51.5t-54.5 81.5t-19.5 107v450h118v-437q0 -74 41 -114.5t111 -40.5t111 40.5t41 114.5v437h118v-450q0 -59 -19.5 -107t-55 -81.5t-85 -51.5t-110.5 -18z" />
    <glyph glyph-name="umacron" unicode="&#x16b;" horiz-adv-x="646" 
d="M480 689v-80h-311v80h311zM462 530h111v-530h-109l-1 65q-68 -74 -177 -74q-103 0 -158 62t-55 178v299h111v-293q0 -145 127 -145q69 0 110 39.5t41 106.5v292z" />
    <glyph glyph-name="Ubreve" unicode="&#x16c;" horiz-adv-x="694" 
d="M346 758q-78 0 -122 38t-44 105h89q0 -30 21 -47.5t56 -17.5q36 0 57 17.5t21 47.5h89q0 -66 -44.5 -104.5t-122.5 -38.5zM347 -8q-61 0 -111 18t-85 51.5t-54.5 81.5t-19.5 107v450h118v-437q0 -74 41 -114.5t111 -40.5t111 40.5t41 114.5v437h118v-450
q0 -59 -19.5 -107t-55 -81.5t-85 -51.5t-110.5 -18z" />
    <glyph glyph-name="ubreve" unicode="&#x16d;" horiz-adv-x="646" 
d="M324 584q-78 0 -122.5 39t-44.5 105h90q0 -30 21 -47.5t56 -17.5t56 17.5t21 47.5h89q0 -66 -44 -105t-122 -39zM462 530h111v-530h-109l-1 65q-68 -74 -177 -74q-103 0 -158 62t-55 178v299h111v-293q0 -145 127 -145q69 0 110 39.5t41 106.5v292z" />
    <glyph glyph-name="Uring" unicode="&#x16e;" horiz-adv-x="694" 
d="M347 738q-51 0 -82.5 28.5t-31.5 75.5q0 48 31.5 76.5t82.5 28.5t82.5 -28.5t31.5 -76.5q0 -47 -31.5 -75.5t-82.5 -28.5zM347 795q22 0 35 13.5t13 33.5t-13 34t-35 14t-35 -14t-13 -34t13 -33.5t35 -13.5zM347 -8q-61 0 -111 18t-85 51.5t-54.5 81.5t-19.5 107v450h118
v-437q0 -74 41 -114.5t111 -40.5t111 40.5t41 114.5v437h118v-450q0 -59 -19.5 -107t-55 -81.5t-85 -51.5t-110.5 -18z" />
    <glyph glyph-name="uring" unicode="&#x16f;" horiz-adv-x="646" 
d="M324 579q-51 0 -82.5 29t-31.5 77q0 47 31.5 76t82.5 29t82.5 -29t31.5 -76q0 -48 -31.5 -77t-82.5 -29zM324 732q-23 0 -36 -13.5t-13 -33.5t13 -34t36 -14t36 14t13 34t-13 33.5t-36 13.5zM462 530h111v-530h-109l-1 65q-68 -74 -177 -74q-103 0 -158 62t-55 178v299
h111v-293q0 -145 127 -145q69 0 110 39.5t41 106.5v292z" />
    <glyph glyph-name="Uhungarumlaut" unicode="&#x170;" horiz-adv-x="694" 
d="M202 762v7l77 131h126v-8l-99 -130h-104zM375 762v7l98 131h125v-8l-120 -130h-103zM347 -8q-61 0 -111 18t-85 51.5t-54.5 81.5t-19.5 107v450h118v-437q0 -74 41 -114.5t111 -40.5t111 40.5t41 114.5v437h118v-450q0 -59 -19.5 -107t-55 -81.5t-85 -51.5t-110.5 -18z
" />
    <glyph glyph-name="uhungarumlaut" unicode="&#x171;" horiz-adv-x="646" 
d="M378 715l-99 -132h-104v7l78 133h125v-8zM348 583v7l99 133h125v-8l-121 -132h-103zM462 530h111v-530h-109l-1 65q-68 -74 -177 -74q-103 0 -158 62t-55 178v299h111v-293q0 -145 127 -145q69 0 110 39.5t41 106.5v292z" />
    <glyph glyph-name="Uogonek" unicode="&#x172;" horiz-adv-x="694" 
d="M499 700h118v-450q0 -75 -31 -131.5t-86 -88.5q-57 -40 -86.5 -68.5t-29.5 -54.5q0 -28 38 -28q23 0 53 9v-78q-23 -8 -42 -11.5t-39 -3.5q-23 0 -43.5 5.5t-35.5 16t-24 27t-9 38.5q0 27 15.5 53.5t47.5 56.5q-61 0 -110.5 18.5t-84.5 52t-54 81t-19 106.5v450h118v-437
q0 -74 41 -114.5t111 -40.5t111 40.5t41 114.5v437z" />
    <glyph glyph-name="uogonek" unicode="&#x173;" horiz-adv-x="646" 
d="M524 -121q22 0 52 9v-78q-23 -8 -41.5 -11.5t-38.5 -3.5q-47 0 -79.5 21t-32.5 65q0 29 18.5 58.5t61.5 62.5l-1 63q-68 -74 -177 -74q-103 0 -158 62t-55 178v299h111v-293q0 -145 127 -145q69 0 110 39.5t41 106.5v292h111v-530q-45 -30 -66.5 -52t-21.5 -42
q1 -27 39 -27z" />
    <glyph glyph-name="Wcircumflex" unicode="&#x174;" horiz-adv-x="987" 
d="M495 839l-78 -77h-107v9l129 129h114l127 -129v-9h-107zM854 700h117v-12l-224 -688h-86l-100 239l-67 159l-68 -159l-99 -239h-86l-226 688v12h121l55 -177l102 -320l162 373h78l162 -374l101 319z" />
    <glyph glyph-name="wcircumflex" unicode="&#x175;" horiz-adv-x="857" 
d="M429 659l-74 -78h-111v10l129 131h113l127 -131v-10h-110zM728 530h115v-7l-186 -523h-93l-77 187l-59 151l-59 -151l-78 -187h-91l-185 523v7h115l51 -155l70 -212l137 334h82l136 -334l71 212z" />
    <glyph glyph-name="Ycircumflex" unicode="&#x176;" horiz-adv-x="634" 
d="M318 839l-78 -77h-107v9l129 129h114l127 -129v-9h-107zM624 700v-13l-247 -403v-284h-118v280l-248 408v12h131l102 -173l73 -123l176 296h131z" />
    <glyph glyph-name="ycircumflex" unicode="&#x177;" horiz-adv-x="556" 
d="M279 659l-74 -78h-111v10l129 131h113l127 -131v-10h-110zM422 530h121v-8l-300 -679h-120v7l93 207l-203 465v8h121l80 -193l62 -153l63 152z" />
    <glyph glyph-name="Ydieresis" unicode="&#x178;" horiz-adv-x="634" 
d="M206 761q-30 0 -49.5 19.5t-19.5 48.5q0 30 19.5 49.5t49.5 19.5t50 -19.5t20 -49.5q0 -29 -20 -48.5t-50 -19.5zM429 761q-30 0 -49.5 19.5t-19.5 48.5q0 30 19.5 49.5t49.5 19.5t50 -19.5t20 -49.5q0 -29 -20 -48.5t-50 -19.5zM624 700v-13l-247 -403v-284h-118v280
l-248 408v12h131l102 -173l73 -123l176 296h131z" />
    <glyph glyph-name="Zacute" unicode="&#x179;" horiz-adv-x="596" 
d="M465 892l-111 -130h-105v7l89 131h127v-8zM563 113v-113h-529v72l359 517h-345v111h510v-71l-358 -516h363z" />
    <glyph glyph-name="zacute" unicode="&#x17a;" horiz-adv-x="502" 
d="M399 715l-100 -132h-106v7l75 133h131v-8zM471 100v-100h-439v65l275 366h-256v99h413v-61l-278 -369h285z" />
    <glyph glyph-name="Zdotaccent" unicode="&#x17b;" horiz-adv-x="596" 
d="M311 761q-32 0 -53.5 21t-21.5 53t21.5 53.5t53.5 21.5t53 -21.5t21 -53.5t-21 -53t-53 -21zM563 113v-113h-529v72l359 517h-345v111h510v-71l-358 -516h363z" />
    <glyph glyph-name="zdotaccent" unicode="&#x17c;" horiz-adv-x="502" 
d="M261 588q-32 0 -52 20.5t-20 51.5q0 32 20 52.5t52 20.5t52.5 -20.5t20.5 -52.5q0 -31 -20.5 -51.5t-52.5 -20.5zM471 100v-100h-439v65l275 366h-256v99h413v-61l-278 -369h285z" />
    <glyph glyph-name="Zcaron" unicode="&#x17d;" horiz-adv-x="596" 
d="M370 762h-114l-129 129v9h107l78 -78l78 78h107v-9zM563 113v-113h-529v72l359 517h-345v111h510v-71l-358 -516h363z" />
    <glyph glyph-name="zcaron" unicode="&#x17e;" horiz-adv-x="502" 
d="M319 588h-114l-128 130v10h110l74 -78l74 78h111v-10zM471 100v-100h-439v65l275 366h-256v99h413v-61l-278 -369h285z" />
    <glyph glyph-name="longs" unicode="&#x17f;" horiz-adv-x="353" 
d="M81 0v543q0 79 46.5 123t136.5 44q17 0 34.5 -1.5t36.5 -3.5v-95q-27 3 -50 3q-50 0 -71.5 -18.5t-21.5 -63.5v-531h-111z" />
    <glyph glyph-name="uni018F" unicode="&#x18f;" horiz-adv-x="796" 
d="M396 710q76 0 140 -27t110.5 -75t73 -114t26.5 -144t-26.5 -144t-73 -113.5t-110.5 -74.5t-140 -27q-81 0 -148 30t-113 83t-69.5 127t-17.5 162h574q-6 45 -25.5 82.5t-49 64t-68 41t-83.5 14.5q-66 0 -119 -28t-79 -77h-130q18 51 50 92t74.5 69.5t94.5 43.5t109 15z
M396 106q43 0 80 13.5t66 37.5t49 58t28 76h-448q9 -41 28.5 -75t48.5 -58.5t66.5 -38t81.5 -13.5z" />
    <glyph glyph-name="florin" unicode="&#x192;" horiz-adv-x="500" 
d="M447 624q-48 0 -73.5 -17.5t-33.5 -62.5l-3 -14h137l-18 -93h-137l-89 -456q-17 -90 -65 -131t-129 -41q-17 0 -35.5 1.5t-38.5 5.5l19 98q23 -3 41 -3q45 0 68 19t31 63l87 444h-104l19 93h103l4 21q18 89 71.5 126t137.5 37q35 0 75 -6l-16 -87q-28 3 -51 3z" />
    <glyph glyph-name="Gcaron" unicode="&#x1e6;" horiz-adv-x="797" 
d="M457 762h-114l-129 129v9h107l78 -78l78 78h107v-9zM751 361q1 -82 -24.5 -150.5t-72 -117.5t-111 -76t-142.5 -27q-76 0 -140.5 27t-111 75t-73 114t-26.5 144t26 144t72.5 114t111 75t140.5 27q62 0 117 -18t99 -51t76 -80t47 -106h-122q-26 66 -82 103t-131 37
q-51 0 -94 -18t-74 -50.5t-48 -77.5t-17 -99t17 -99t48 -77.5t74 -50.5t94 -18q78 0 136.5 40t81.5 110h-248v106h377z" />
    <glyph glyph-name="gcaron" unicode="&#x1e7;" horiz-adv-x="672" 
d="M394 588h-114l-128 130v10h110l74 -78l74 78h111v-10zM486 530h105v-453q0 -59 -20.5 -104.5t-57 -77t-85.5 -48t-106 -16.5q-48 0 -91.5 10.5t-78 32.5t-58 55t-30.5 77h112q6 -20 19.5 -34t32 -23t41 -13.5t45.5 -4.5q36 0 66.5 9t53 27t35 44.5t12.5 61.5v23
q-35 -32 -80.5 -50t-97.5 -18q-56 0 -103.5 19t-82.5 53t-54.5 81t-19.5 102t19.5 102t54 81.5t82.5 54t104 19.5q54 0 100 -19t81 -52zM319 126q36 0 66 11.5t51.5 32t33.5 49t12 63.5q0 72 -45 114t-118 42q-36 0 -66 -11.5t-51.5 -32.5t-33.5 -49.5t-12 -62.5t12 -62.5
t33.5 -49.5t51.5 -32.5t66 -11.5z" />
    <glyph glyph-name="AEacute" unicode="&#x1fc;" horiz-adv-x="912" 
d="M649 892l-111 -130h-105v7l89 131h127v-8zM544 113h319v-113h-437v150h-212l-77 -150h-129v12l373 688h475v-112h-312v-179h292v-111h-292v-185zM268 256h158v307z" />
    <glyph glyph-name="aeacute" unicode="&#x1fd;" horiz-adv-x="1084" 
d="M681 715l-100 -132h-106v7l75 133h131v-8zM607 228q11 -62 53.5 -99t107.5 -37q48 0 85 19t56 51h120q-27 -81 -95.5 -126.5t-159.5 -45.5q-54 0 -99.5 17t-80.5 48l-1 -55h-99l-2 61q-35 -34 -81.5 -52.5t-102.5 -18.5q-58 0 -107 20.5t-84 57.5t-54.5 87t-19.5 110
t20 110.5t55 87t83.5 57t106.5 20.5q56 0 102.5 -18.5t81.5 -52.5l2 61h99l1 -55q35 31 80.5 48t99.5 17q65 0 117 -23t87.5 -64.5t52.5 -99t12 -125.5h-436zM768 438q-61 0 -102.5 -33.5t-55.5 -90.5h319q-14 55 -56.5 89.5t-104.5 34.5zM323 94q37 0 67.5 12.5t52.5 35.5
t34.5 54.5t12.5 68.5q0 38 -12.5 69t-34.5 54t-52.5 35.5t-67.5 12.5t-67.5 -12.5t-53 -35.5t-35 -54t-12.5 -69q0 -37 12.5 -68.5t35 -54.5t53 -35.5t67.5 -12.5z" />
    <glyph glyph-name="Oslashacute" unicode="&#x1fe;" horiz-adv-x="813" 
d="M561 892l-111 -130h-105v7l89 131h127v-8zM634 633q60 -48 94.5 -120.5t34.5 -162.5q0 -78 -26.5 -144t-74 -114t-113 -75t-142.5 -27q-38 0 -72 6.5t-66 18.5l-46 -79h-114v13l70 118q-60 48 -94.5 121t-34.5 162q0 78 26.5 144t74 114t113 75t143.5 27q37 0 71 -6.5
t66 -18.5l46 79h114v-13zM407 600q-53 0 -97 -18.5t-76 -51.5t-50 -79t-18 -101q0 -57 19 -104.5t54 -80.5l249 422q-36 13 -81 13zM407 100q53 0 97 18.5t75.5 51.5t49.5 79t18 101q0 57 -19 104.5t-54 81.5l-250 -423q19 -6 39.5 -9.5t43.5 -3.5z" />
    <glyph glyph-name="oslashacute" unicode="&#x1ff;" horiz-adv-x="649" 
d="M462 715l-100 -132h-106v7l75 133h131v-8zM505 481q47 -37 73 -92t26 -124q0 -60 -20.5 -110.5t-57.5 -87t-88.5 -57t-112.5 -20.5q-28 0 -53.5 4t-48.5 12l-48 -82h-98v11l67 114q-47 37 -73 92t-26 124q0 60 20.5 110.5t58 87t89 57t112.5 20.5q27 0 52.5 -4t48.5 -12
l48 82h98v-11zM325 437q-37 0 -67.5 -13t-53 -35.5t-35 -54t-12.5 -69.5q0 -37 12 -68t34 -54l169 288q-22 6 -47 6zM325 93q36 0 67 13t53.5 35.5t34.5 54.5t12 69q0 38 -12.5 69t-34.5 54l-169 -288q21 -7 49 -7z" />
    <glyph glyph-name="uni0218" unicode="&#x218;" horiz-adv-x="608" 
d="M308 -10q-57 0 -103 16t-80 45.5t-54 72t-23 95.5h117q5 -54 43 -85t100 -31q66 0 103 26t37 71q0 42 -35.5 66.5t-120.5 38.5q-114 18 -172.5 66t-58.5 136q0 45 18 82.5t50 64.5t77 41.5t99 14.5q108 0 174.5 -56.5t77.5 -153.5h-118q-9 50 -44 74t-92 24
q-58 0 -91 -23.5t-33 -65.5q0 -20 7.5 -35.5t25 -27t47 -20t72.5 -15.5q117 -19 177 -70t60 -139q0 -48 -19 -87.5t-53.5 -67t-82 -42.5t-105.5 -15zM232 -217l33 175h107v-23l-48 -152h-92z" />
    <glyph glyph-name="uni0219" unicode="&#x219;" horiz-adv-x="535" 
d="M270 -9q-102 0 -161.5 46.5t-63.5 128.5h112q3 -38 33.5 -57.5t81.5 -19.5t82 15.5t31 47.5q0 14 -5.5 24t-20 17.5t-38.5 13t-61 10.5q-55 8 -94.5 21.5t-65 33t-37 46.5t-11.5 62q0 39 17 69t46 50t69 30.5t86 10.5q94 0 150.5 -44t61.5 -120h-110q-4 32 -31 49.5
t-74 17.5q-49 0 -76 -16t-27 -45q0 -15 6.5 -25.5t21.5 -18.5t39.5 -14t60.5 -11q46 -6 84 -17t65 -29t41.5 -45t14.5 -65q0 -42 -17.5 -73t-48 -51.5t-72 -31t-89.5 -10.5zM193 -217l33 175h107v-23l-48 -152h-92z" />
    <glyph glyph-name="uni021A" unicode="&#x21a;" horiz-adv-x="567" 
d="M541 700v-111h-198v-589h-118v589h-198v111h514zM199 -217l33 175h107v-23l-48 -152h-92z" />
    <glyph glyph-name="uni021B" unicode="&#x21b;" horiz-adv-x="415" 
d="M327 96q11 0 23.5 1t26.5 3v-100q-18 -2 -36 -3.5t-33 -1.5q-93 0 -140 42t-47 133v267h-103v93h103v121l111 12v-133h138v-93h-138v-254q0 -47 22.5 -67t72.5 -20zM185 -217l33 175h107v-23l-48 -152h-92z" />
    <glyph glyph-name="uni0232" unicode="&#x232;" horiz-adv-x="634" 
d="M478 874v-83h-320v83h320zM624 700v-13l-247 -403v-284h-118v280l-248 408v12h131l102 -173l73 -123l176 296h131z" />
    <glyph glyph-name="uni0233" unicode="&#x233;" horiz-adv-x="556" 
d="M434 689v-80h-311v80h311zM422 530h121v-8l-300 -679h-120v7l93 207l-203 465v8h121l80 -193l62 -153l63 152z" />
    <glyph glyph-name="uni0237" unicode="&#x237;" horiz-adv-x="275" 
d="M18 -168q-14 0 -29 1.5t-32 3.5v98q19 -3 38 -3q46 0 66.5 19t20.5 64v515h111v-527q0 -89 -43.5 -130t-131.5 -41z" />
    <glyph glyph-name="uni0259" unicode="&#x259;" horiz-adv-x="634" 
d="M316 540q60 0 110 -20.5t87 -57t57.5 -87t20.5 -110.5t-20.5 -110.5t-57.5 -87t-87 -57t-110 -20.5q-64 0 -117.5 22.5t-90 63.5t-55 98.5t-12.5 127.5h436q-11 62 -54 99t-107 37q-48 0 -85 -19t-56 -51h-120q28 80 97.5 126t163.5 46zM316 92q61 0 102.5 33.5
t55.5 90.5h-319q14 -54 56 -89t105 -35z" />
    <glyph glyph-name="uni02BC" unicode="&#x2bc;" horiz-adv-x="263" 
d="M50 472v8l47 220h116v-26l-63 -202h-100z" />
    <glyph glyph-name="circumflex" unicode="&#x2c6;" horiz-adv-x="538" 
d="M326 722l127 -131v-10h-110l-74 78l-74 -78h-111v10l129 131h113z" />
    <glyph glyph-name="caron" unicode="&#x2c7;" horiz-adv-x="523" 
d="M335 728h111v-10l-127 -130h-114l-128 130v10h110l74 -78z" />
    <glyph glyph-name="breve" unicode="&#x2d8;" horiz-adv-x="404" 
d="M202 584q-78 0 -122.5 39t-44.5 105h90q0 -30 21 -47.5t56 -17.5t56 17.5t21 47.5h89q0 -66 -44 -105t-122 -39z" />
    <glyph glyph-name="dotaccent" unicode="&#x2d9;" horiz-adv-x="331" 
d="M166 588q-32 0 -52 20.5t-20 51.5q0 32 20 52.5t52 20.5t52.5 -20.5t20.5 -52.5q0 -31 -20.5 -51.5t-52.5 -20.5z" />
    <glyph glyph-name="ring" unicode="&#x2da;" horiz-adv-x="328" 
d="M164 579q-51 0 -82.5 29t-31.5 77q0 47 31.5 76t82.5 29t82.5 -29t31.5 -76q0 -48 -31.5 -77t-82.5 -29zM164 637q23 0 36 14t13 34t-13 33.5t-36 13.5t-36 -13.5t-13 -33.5t13 -34t36 -14z" />
    <glyph glyph-name="ogonek" unicode="&#x2db;" horiz-adv-x="302" 
d="M159 -205q-47 0 -79.5 21t-32.5 65q0 35 26 69.5t89 76.5l74 -27q-45 -30 -66.5 -52t-21.5 -42q1 -27 39 -27q22 0 52 9v-78q-23 -8 -41.5 -11.5t-38.5 -3.5z" />
    <glyph glyph-name="tilde" unicode="&#x2dc;" horiz-adv-x="592" 
d="M378 578q-34 0 -56.5 13t-39.5 27q-14 11 -25 18.5t-25 7.5q-17 0 -26.5 -15.5t-9.5 -45.5h-80q0 71 28.5 104.5t77.5 33.5q35 0 57.5 -13.5t39.5 -28.5q11 -10 23.5 -17t23.5 -7q37 0 37 61h79q0 -68 -26.5 -103t-77.5 -35z" />
    <glyph glyph-name="hungarumlaut" unicode="&#x2dd;" horiz-adv-x="595" 
d="M121 583v7l78 133h125v-8l-99 -132h-104zM294 583v7l99 133h125v-8l-121 -132h-103z" />
    <glyph glyph-name="gravecomb" unicode="&#x300;" horiz-adv-x="0" 
d="M-121 583h-107l-100 132v8h131l76 -133v-7z" />
    <glyph glyph-name="acutecomb" unicode="&#x301;" horiz-adv-x="0" 
d="M-284 583v7l75 133h131v-8l-100 -132h-106z" />
    <glyph glyph-name="uni0302" unicode="&#x302;" horiz-adv-x="0" 
d="M-212 722l127 -131v-10h-110l-74 78l-74 -78h-111v10l129 131h113z" />
    <glyph glyph-name="tildecomb" unicode="&#x303;" horiz-adv-x="0" 
d="M-214 578q-34 0 -56.5 13t-39.5 27q-14 11 -25 18.5t-25 7.5q-17 0 -26.5 -15.5t-9.5 -45.5h-80q0 71 28.5 104.5t77.5 33.5q35 0 57.5 -13.5t39.5 -28.5q11 -10 23.5 -17t23.5 -7q37 0 37 61h79q0 -68 -26.5 -103t-77.5 -35z" />
    <glyph glyph-name="uni0304" unicode="&#x304;" horiz-adv-x="0" 
d="M-382 609v80h311v-80h-311z" />
    <glyph glyph-name="uni0306" unicode="&#x306;" horiz-adv-x="0" 
d="M-202 584q-78 0 -122.5 39t-44.5 105h90q0 -30 21 -47.5t56 -17.5t56 17.5t21 47.5h89q0 -66 -44 -105t-122 -39z" />
    <glyph glyph-name="uni0307" unicode="&#x307;" horiz-adv-x="0" 
d="M-165 588q-32 0 -52 20.5t-20 51.5q0 32 20 52.5t52 20.5t52.5 -20.5t20.5 -52.5q0 -31 -20.5 -51.5t-52.5 -20.5z" />
    <glyph glyph-name="uni0308" unicode="&#x308;" horiz-adv-x="0" 
d="M-373 589q-29 0 -49.5 19.5t-20.5 49.5t20.5 49t49.5 19q31 0 51 -19t20 -49t-20 -49.5t-51 -19.5zM-136 589q-30 0 -50.5 19.5t-20.5 49.5t20.5 49t50.5 19t50 -19t20 -49t-20 -49.5t-50 -19.5z" />
    <glyph glyph-name="uni030A" unicode="&#x30a;" horiz-adv-x="0" 
d="M-164 579q-51 0 -82.5 29t-31.5 77q0 47 31.5 76t82.5 29t82.5 -29t31.5 -76q0 -48 -31.5 -77t-82.5 -29zM-164 637q23 0 36 14t13 34t-13 33.5t-36 13.5t-36 -13.5t-13 -33.5t13 -34t36 -14z" />
    <glyph glyph-name="uni030B" unicode="&#x30b;" horiz-adv-x="0" 
d="M-474 583v7l78 133h125v-8l-99 -132h-104zM-301 583v7l99 133h125v-8l-121 -132h-103z" />
    <glyph glyph-name="uni030C" unicode="&#x30c;" horiz-adv-x="0" 
d="M-188 728h111v-10l-127 -130h-114l-128 130v10h110l74 -78z" />
    <glyph glyph-name="uni0312" unicode="&#x312;" horiz-adv-x="0" 
d="M-298 583v23l47 144h92v-9l-32 -158h-107z" />
    <glyph glyph-name="uni0326" unicode="&#x326;" horiz-adv-x="0" 
d="M-198 -217l33 175h107v-23l-48 -152h-92z" />
    <glyph glyph-name="uni0327" unicode="&#x327;" horiz-adv-x="0" 
d="M-146 -40q45 -2 66 -23.5t21 -53.5q0 -90 -118 -90q-18 0 -42 2.5t-49 7.5v72q17 -5 36 -7.5t36 -2.5q22 0 37.5 5t15.5 20q0 12 -14 17.5t-33 5.5q-11 0 -19.5 -1t-18.5 -3l-13 17l44 88h79z" />
    <glyph glyph-name="uni0328" unicode="&#x328;" horiz-adv-x="0" 
d="M-143 -205q-47 0 -79.5 21t-32.5 65q0 35 26 69.5t89 76.5l74 -27q-45 -30 -66.5 -52t-21.5 -42q1 -27 39 -27q22 0 52 9v-78q-23 -8 -41.5 -11.5t-38.5 -3.5z" />
    <glyph glyph-name="uni037E" unicode="&#x37e;" horiz-adv-x="306" 
d="M172 367q-30 0 -49.5 19.5t-19.5 49.5q0 29 19.5 48.5t49.5 19.5t49.5 -19.5t19.5 -48.5q0 -30 -19.5 -49.5t-49.5 -19.5zM67 -110v8l47 219h117v-26l-64 -201h-100z" />
    <glyph glyph-name="tonos" unicode="&#x384;" horiz-adv-x="405" 
d="M121 583v7l75 133h131v-8l-100 -132h-106z" />
    <glyph glyph-name="dieresistonos" unicode="&#x385;" horiz-adv-x="551" 
d="M172 583v7l29 137h117v-8l-52 -136h-94zM98 591q-28 0 -45.5 18.5t-17.5 46.5t17.5 46t45.5 18q27 0 45 -17.5t18 -46.5q0 -28 -18 -46.5t-45 -18.5zM385 591q-28 0 -45.5 18.5t-17.5 46.5t17.5 46t45.5 18t45.5 -18t17.5 -46t-17.5 -46.5t-45.5 -18.5z" />
    <glyph glyph-name="Alphatonos" unicode="&#x386;" horiz-adv-x="661" 
d="M376 700l276 -688v-12h-123l-57 150h-283l-58 -150h-122v12l276 688h91zM182 692l-67 -137h-97v7l42 138h122v-8zM330 522l-102 -266h205z" />
    <glyph glyph-name="anoteleia" unicode="&#x387;" horiz-adv-x="268" 
d="M134 262q-30 0 -49.5 19.5t-19.5 49.5q0 29 19.5 48.5t49.5 19.5t49.5 -19.5t19.5 -48.5q0 -30 -19.5 -49.5t-49.5 -19.5z" />
    <glyph glyph-name="Epsilontonos" unicode="&#x388;" horiz-adv-x="573" 
d="M-110 562l42 138h122v-8l-67 -137h-97v7zM205 113h319v-113h-436v700h429v-112h-312v-179h292v-111h-292v-185z" />
    <glyph glyph-name="Etatonos" unicode="&#x389;" horiz-adv-x="722" 
d="M-110 562l42 138h122v-8l-67 -137h-97v7zM517 700h118v-700h-118v299h-312v-299h-117v700h117v-288h312v288z" />
    <glyph glyph-name="Iotatonos" unicode="&#x38a;" horiz-adv-x="466" 
d="M-132 562l42 138h122v-8l-67 -137h-97v7zM292 108h121v-108h-360v108h121v486h-119v106h356v-106h-119v-486z" />
    <glyph glyph-name="Omicrontonos" unicode="&#x38c;" horiz-adv-x="813" 
d="M407 -10q-78 0 -143.5 27t-113 75t-74 114t-26.5 144t26.5 144t74 114t113 75t143.5 27q77 0 142.5 -27t113 -75t74 -114t26.5 -144t-26.5 -144t-74 -114t-113 -75t-142.5 -27zM-61 555v7l42 138h122v-8l-67 -137h-97zM407 105q52 0 95 18t74 50.5t48.5 77.5t17.5 99
t-17.5 99t-48.5 77.5t-74 50.5t-95 18t-95 -18t-74.5 -50.5t-49 -77.5t-17.5 -99t17.5 -99t49 -77.5t74.5 -50.5t95 -18z" />
    <glyph glyph-name="Upsilontonos" unicode="&#x38e;" horiz-adv-x="634" 
d="M-181 562l43 138h122v-8l-67 -137h-98v7zM624 700v-13l-247 -403v-284h-118v280l-248 408v12h131l102 -173l73 -123l176 296h131z" />
    <glyph glyph-name="Omegatonos" unicode="&#x38f;" horiz-adv-x="833" 
d="M719 112h63v-112h-297v108q80 29 123.5 93t43.5 149q0 54 -17.5 99.5t-48.5 77.5t-74.5 50t-95.5 18t-95 -18t-74 -50t-48.5 -77.5t-17.5 -99.5q0 -85 44 -149.5t122 -92.5v-108h-296v112h63l51 -1q-51 47 -78 111.5t-27 141.5q0 75 27 138.5t74.5 109.5t113 72t141.5 26
q77 0 142.5 -26t113 -72t74.5 -109.5t27 -138.5q0 -76 -27.5 -140.5t-78.5 -112.5zM118 692l-67 -137h-97v7l42 138h122v-8z" />
    <glyph glyph-name="iotadieresistonos" unicode="&#x390;" horiz-adv-x="350" 
d="M63 583v7l29 137h117v-8l-52 -136h-94zM-11 591q-28 0 -45.5 18.5t-17.5 46.5t17.5 46t45.5 18q27 0 45 -17.5t18 -46.5q0 -28 -18 -46.5t-45 -18.5zM276 591q-28 0 -45.5 18.5t-17.5 46.5t17.5 46t45.5 18t45.5 -18t17.5 -46t-17.5 -46.5t-45.5 -18.5zM256 -5
q-94 0 -138.5 46t-44.5 139v350h111v-337q0 -53 22 -75t72 -22q11 0 23.5 1t23.5 3v-100q-18 -2 -35 -3.5t-34 -1.5z" />
    <glyph glyph-name="Alpha" unicode="&#x391;" horiz-adv-x="661" 
d="M376 700l276 -688v-12h-123l-57 150h-283l-58 -150h-122v12l276 688h91zM330 522l-102 -266h205z" />
    <glyph glyph-name="Beta" unicode="&#x392;" horiz-adv-x="624" 
d="M491 373q45 -24 70 -69t25 -102q0 -46 -15 -83t-43 -63.5t-66.5 -41t-85.5 -14.5h-288v700h272q43 0 79 -13t61.5 -37t40 -58t14.5 -75q0 -45 -16.5 -81.5t-47.5 -62.5zM203 590v-174h148q43 0 64.5 23.5t21.5 64.5t-23.5 63.5t-65.5 22.5h-145zM366 111q47 0 74 25.5
t27 74.5q0 47 -26 73t-73 26h-165v-199h163z" />
    <glyph glyph-name="Gamma" unicode="&#x393;" horiz-adv-x="493" 
d="M88 0v700h393v-113h-276v-587h-117z" />
    <glyph glyph-name="uni0394" unicode="&#x394;" horiz-adv-x="684" 
d="M387 700l288 -688v-12h-666v12l289 688h89zM178 111h327l-47 113l-116 288l-117 -288z" />
    <glyph glyph-name="Epsilon" unicode="&#x395;" horiz-adv-x="573" 
d="M205 113h319v-113h-436v700h429v-112h-312v-179h292v-111h-292v-185z" />
    <glyph glyph-name="Zeta" unicode="&#x396;" horiz-adv-x="596" 
d="M563 113v-113h-529v72l359 517h-345v111h510v-71l-358 -516h363z" />
    <glyph glyph-name="Eta" unicode="&#x397;" horiz-adv-x="722" 
d="M517 700h118v-700h-118v299h-312v-299h-117v700h117v-288h312v288z" />
    <glyph glyph-name="Theta" unicode="&#x398;" horiz-adv-x="813" 
d="M407 -10q-78 0 -143.5 27t-113 75t-74 114t-26.5 144t26.5 144t74 114t113 75t143.5 27q77 0 142.5 -27t113 -75t74 -114t26.5 -144t-26.5 -144t-74 -114t-113 -75t-142.5 -27zM407 105q52 0 95 18t74 50.5t48.5 77.5t17.5 99t-17.5 99t-48.5 77.5t-74 50.5t-95 18
t-95 -18t-74.5 -50.5t-49 -77.5t-17.5 -99t17.5 -99t49 -77.5t74.5 -50.5t95 -18zM250 300v100h313v-100h-313z" />
    <glyph glyph-name="Iota" unicode="&#x399;" horiz-adv-x="466" 
d="M292 108h121v-108h-360v108h121v486h-119v106h356v-106h-119v-486z" />
    <glyph glyph-name="Kappa" unicode="&#x39a;" horiz-adv-x="630" 
d="M343 356l272 -344v-12h-140l-269 352v-352h-118v700h118v-346l258 346h135v-12z" />
    <glyph glyph-name="Lambda" unicode="&#x39b;" horiz-adv-x="652" 
d="M371 700l271 -688v-12h-123l-80 210l-113 301l-114 -301l-81 -210h-122v12l273 688h89z" />
    <glyph glyph-name="Mu" unicode="&#x39c;" horiz-adv-x="850" 
d="M670 700h92v-700h-118v472l-186 -267h-65l-188 268v-473h-117v700h92l246 -355z" />
    <glyph glyph-name="Nu" unicode="&#x39d;" horiz-adv-x="722" 
d="M635 700v-700h-91l-339 467v-467h-117v700h89l340 -469v469h118z" />
    <glyph glyph-name="Xi" unicode="&#x39e;" horiz-adv-x="616" 
d="M53 589v111h509v-111h-509zM106 299v108h404v-108h-404zM44 0v113h527v-113h-527z" />
    <glyph glyph-name="Omicron" unicode="&#x39f;" horiz-adv-x="813" 
d="M407 -10q-78 0 -143.5 27t-113 75t-74 114t-26.5 144t26.5 144t74 114t113 75t143.5 27q77 0 142.5 -27t113 -75t74 -114t26.5 -144t-26.5 -144t-74 -114t-113 -75t-142.5 -27zM407 105q52 0 95 18t74 50.5t48.5 77.5t17.5 99t-17.5 99t-48.5 77.5t-74 50.5t-95 18
t-95 -18t-74.5 -50.5t-49 -77.5t-17.5 -99t17.5 -99t49 -77.5t74.5 -50.5t95 -18z" />
    <glyph glyph-name="Pi" unicode="&#x3a0;" horiz-adv-x="707" 
d="M88 0v700h531v-700h-118v587h-296v-587h-117z" />
    <glyph glyph-name="Rho" unicode="&#x3a1;" horiz-adv-x="601" 
d="M347 700q53 0 96 -17.5t74 -49t47.5 -75.5t16.5 -98t-16.5 -97.5t-47.5 -75t-74 -48.5t-96 -17h-142v-222h-117v700h259zM334 331q60 0 93.5 34.5t33.5 94.5q0 59 -33.5 94t-93.5 35h-129v-258h129z" />
    <glyph glyph-name="Sigma" unicode="&#x3a3;" horiz-adv-x="592" 
d="M550 113v-113h-516v71l211 286l-197 275v68h494v-113l-325 1l154 -213v-38l-167 -224h346z" />
    <glyph glyph-name="Tau" unicode="&#x3a4;" horiz-adv-x="567" 
d="M541 700v-111h-198v-589h-118v589h-198v111h514z" />
    <glyph glyph-name="Upsilon" unicode="&#x3a5;" horiz-adv-x="634" 
d="M624 700v-13l-247 -403v-284h-118v280l-248 408v12h131l102 -173l73 -123l176 296h131z" />
    <glyph glyph-name="Phi" unicode="&#x3a6;" horiz-adv-x="797" 
d="M756 353q0 -63 -21 -116.5t-60 -93t-94.5 -62.5t-123.5 -26v-69h-116v68q-72 3 -128 28t-94.5 65t-58 93t-19.5 113t19.5 113.5t58 93.5t94.5 65t128 28v68h116v-69q68 -3 123.5 -26t94.5 -62.5t60 -93t21 -117.5zM160 353q0 -41 12 -75.5t35 -60t57.5 -41t79.5 -18.5
v391q-90 -5 -137 -59t-47 -137zM453 158q88 5 136 57t48 138q0 87 -48 139t-136 57v-391z" />
    <glyph glyph-name="Chi" unicode="&#x3a7;" horiz-adv-x="662" 
d="M407 364l236 -352v-12h-134l-138 211l-40 60l-38 -60l-140 -211h-134v12l236 351l-216 325v12h132l111 -169l50 -75l49 75l112 169h132v-12z" />
    <glyph glyph-name="Psi" unicode="&#x3a8;" horiz-adv-x="832" 
d="M662 700h118v-281q0 -64 -21.5 -114.5t-61.5 -86t-96.5 -55t-126.5 -22.5v-141h-115v141q-70 3 -126.5 22.5t-96.5 55t-62 86t-22 114.5v281h118v-271q0 -84 49 -126.5t140 -47.5v445h115v-445q92 5 140 46.5t48 127.5v271z" />
    <glyph glyph-name="uni03A9" unicode="&#x3a9;" horiz-adv-x="833" 
d="M719 112h63v-112h-297v108q80 29 123.5 93t43.5 149q0 54 -17.5 99.5t-48.5 77.5t-74.5 50t-95.5 18t-95 -18t-74 -50t-48.5 -77.5t-17.5 -99.5q0 -85 44 -149.5t122 -92.5v-108h-296v112h63l51 -1q-51 47 -78 111.5t-27 141.5q0 75 27 138.5t74.5 109.5t113 72t141.5 26
q77 0 142.5 -26t113 -72t74.5 -109.5t27 -138.5q0 -76 -27.5 -140.5t-78.5 -112.5z" />
    <glyph glyph-name="Iotadieresis" unicode="&#x3aa;" horiz-adv-x="466" 
d="M121 761q-30 0 -49.5 19.5t-19.5 48.5q0 30 19.5 49.5t49.5 19.5t50 -19.5t20 -49.5q0 -29 -20 -48.5t-50 -19.5zM344 761q-30 0 -49.5 19.5t-19.5 48.5q0 30 19.5 49.5t49.5 19.5t50 -19.5t20 -49.5q0 -29 -20 -48.5t-50 -19.5zM292 594v-486h121v-108h-360v108h121v486
h-119v106h356v-106h-119z" />
    <glyph glyph-name="Upsilondieresis" unicode="&#x3ab;" horiz-adv-x="634" 
d="M200 761q-30 0 -49.5 19.5t-19.5 48.5q0 30 19.5 49.5t49.5 19.5t50 -19.5t20 -49.5q0 -29 -20 -48.5t-50 -19.5zM423 761q-30 0 -49.5 19.5t-19.5 48.5q0 30 19.5 49.5t49.5 19.5t50 -19.5t20 -49.5q0 -29 -20 -48.5t-50 -19.5zM624 700v-13l-247 -403v-284h-118v280
l-248 408v12h131l102 -173l73 -123l176 296h131z" />
    <glyph glyph-name="alphatonos" unicode="&#x3ac;" horiz-adv-x="711" 
d="M479 715l-100 -132h-106v7l75 133h131v-8zM654 97h11.5t9.5 1v-98q-12 -2 -23 -3t-22 -1q-50 0 -82.5 19t-45.5 55q-36 -38 -85 -59t-109 -21q-58 0 -106.5 20.5t-83.5 57t-55 87t-20 110.5t20 110.5t55 87t83.5 57t106.5 20.5q56 0 103 -18.5t82 -53.5l2 62h104v-380
q0 -53 55 -53zM323 94q37 0 67.5 12.5t52.5 35.5t34.5 54.5t12.5 68.5q0 38 -12.5 69t-34.5 54t-52.5 35.5t-67.5 12.5t-68 -12.5t-53 -35t-34.5 -54t-12.5 -69.5q0 -37 12.5 -68.5t34.5 -54.5t53 -35.5t68 -12.5z" />
    <glyph glyph-name="epsilontonos" unicode="&#x3ad;" horiz-adv-x="507" 
d="M396 715l-100 -132h-106v7l75 133h131v-8zM475 160q-2 -81 -60.5 -125.5t-158.5 -44.5q-50 0 -91 11t-70 32t-45 50t-16 65q0 43 24 78t63 52q-66 39 -66 115q0 33 14.5 60.5t41.5 46.5t64.5 29.5t83.5 10.5q94 0 148.5 -41t57.5 -115h-103q-3 31 -30 46t-71 15
t-71 -17.5t-27 -45.5q0 -29 24 -46.5t65 -17.5h84v-90h-85q-51 0 -79.5 -19t-28.5 -52q0 -32 29.5 -50.5t83.5 -18.5q51 0 82 18.5t32 53.5h105z" />
    <glyph glyph-name="etatonos" unicode="&#x3ae;" horiz-adv-x="690" 
d="M503 715l-100 -132h-106v7l75 133h131v-8zM401 539q104 0 159.5 -61.5t55.5 -178.5v-456h-111v448q0 147 -129 147q-70 0 -111 -40t-41 -107v-291h-111v380q0 26 -14 40t-40 14h-15t-8 -1v97q15 2 26 3t21 1q47 0 79.5 -18.5t46.5 -53.5q71 77 192 77z" />
    <glyph glyph-name="iotatonos" unicode="&#x3af;" horiz-adv-x="350" 
d="M60 583v7l75 133h131v-8l-100 -132h-106zM256 -5q-94 0 -138.5 46t-44.5 139v350h111v-337q0 -53 22 -75t72 -22q11 0 23.5 1t23.5 3v-100q-18 -2 -35 -3.5t-34 -1.5z" />
    <glyph glyph-name="upsilondieresistonos" unicode="&#x3b0;" horiz-adv-x="618" 
d="M244 583v7l29 137h117v-8l-52 -136h-94zM170 591q-28 0 -45.5 18.5t-17.5 46.5t17.5 46t45.5 18q27 0 45 -17.5t18 -46.5q0 -28 -18 -46.5t-45 -18.5zM457 591q-28 0 -45.5 18.5t-17.5 46.5t17.5 46t45.5 18t45.5 -18t17.5 -46t-17.5 -46.5t-45.5 -18.5zM309 -10
q-53 0 -96.5 16.5t-74.5 47t-48 73t-17 93.5v310h111v-301q0 -61 34 -98t91 -37t91 37t34 98v301h111v-310q0 -52 -17 -94.5t-48 -72.5t-74.5 -46.5t-96.5 -16.5z" />
    <glyph glyph-name="alpha" unicode="&#x3b1;" horiz-adv-x="711" 
d="M654 97h11.5t9.5 1v-98q-12 -2 -23 -3t-22 -1q-50 0 -82.5 19t-45.5 55q-36 -38 -85 -59t-109 -21q-58 0 -106.5 20.5t-83.5 57t-55 87t-20 110.5t20 110.5t55 87t83.5 57t106.5 20.5q56 0 103 -18.5t82 -53.5l2 62h104v-380q0 -53 55 -53zM323 94q37 0 67.5 12.5
t52.5 35.5t34.5 54.5t12.5 68.5q0 38 -12.5 69t-34.5 54t-52.5 35.5t-67.5 12.5t-68 -12.5t-53 -35t-34.5 -54t-12.5 -69.5q0 -37 12.5 -68.5t34.5 -54.5t53 -35.5t68 -12.5z" />
    <glyph glyph-name="beta" unicode="&#x3b2;" horiz-adv-x="633" 
d="M487 370q51 -25 77 -67.5t26 -99.5q0 -48 -18 -87.5t-51 -68t-79 -44t-102 -15.5q-33 0 -70.5 6.5t-76.5 20.5v-172h-112v621q0 56 18 101.5t51 78t80 50.5t105 18q49 0 91 -13.5t73 -38.5t48.5 -61.5t17.5 -81.5q0 -46 -21 -83.5t-57 -63.5zM330 89q69 0 109 31.5
t40 83.5q0 53 -32.5 82.5t-92.5 29.5l-82 1v97h81q47 0 75 26.5t28 73.5q0 48 -32.5 75t-88.5 27q-68 0 -105.5 -39t-37.5 -111v-347q32 -14 69 -22t69 -8z" />
    <glyph glyph-name="gamma" unicode="&#x3b3;" horiz-adv-x="543" 
d="M530 530v-8l-203 -459v-220h-111v222l-203 457v8h118l95 -228l46 -112l45 112l96 228h117z" />
    <glyph glyph-name="delta" unicode="&#x3b4;" horiz-adv-x="608" 
d="M425 487q67 -49 104 -113t37 -135q0 -53 -20 -98.5t-55 -79t-83 -52.5t-104 -19q-57 0 -104.5 19t-82.5 52.5t-54.5 79.5t-19.5 100q0 50 17.5 94t48.5 76.5t72 51.5t89 19h14l-192 139v79h426v-98h-153l-100 1zM305 93q32 0 59 11.5t47 31.5t31.5 47.5t11.5 59.5
t-11.5 59t-31.5 46.5t-47 31t-59 11.5t-59 -11.5t-47 -31t-31.5 -46.5t-11.5 -59t11.5 -59.5t31.5 -47.5t47 -31.5t59 -11.5z" />
    <glyph glyph-name="epsilon" unicode="&#x3b5;" horiz-adv-x="507" 
d="M475 160q-2 -81 -60.5 -125.5t-158.5 -44.5q-50 0 -91 11t-70 32t-45 50t-16 65q0 43 24 78t63 52q-66 39 -66 115q0 33 14.5 60.5t41.5 46.5t64.5 29.5t83.5 10.5q94 0 148.5 -41t57.5 -115h-103q-3 31 -30 46t-71 15t-71 -17.5t-27 -45.5q0 -29 24 -46.5t65 -17.5h84
v-90h-85q-51 0 -79.5 -19t-28.5 -52q0 -32 29.5 -50.5t83.5 -18.5q51 0 82 18.5t32 53.5h105z" />
    <glyph glyph-name="zeta" unicode="&#x3b6;" horiz-adv-x="478" 
d="M478 611q-97 -81 -160 -138.5t-100 -101t-51.5 -78.5t-14.5 -70q0 -27 7 -46t23.5 -33.5t43 -24.5t65.5 -18q55 -11 91 -24t57.5 -31.5t30 -43.5t8.5 -61q0 -24 -3.5 -47t-11.5 -51h-103q5 17 8.5 37t3.5 36q0 19 -5.5 32.5t-19.5 23.5t-37 18t-59 16q-111 24 -161.5 73
t-50.5 133q0 45 14.5 88t47 89t84.5 98t128 115l-257 -1v99h422v-89z" />
    <glyph glyph-name="eta" unicode="&#x3b7;" horiz-adv-x="690" 
d="M401 539q104 0 159.5 -61.5t55.5 -178.5v-456h-111v448q0 147 -129 147q-70 0 -111 -40t-41 -107v-291h-111v380q0 26 -14 40t-40 14h-15t-8 -1v97q15 2 26 3t21 1q47 0 79.5 -18.5t46.5 -53.5q71 77 192 77z" />
    <glyph glyph-name="theta" unicode="&#x3b8;" horiz-adv-x="668" 
d="M334 710q64 0 115.5 -25.5t88 -72t56 -113t19.5 -149.5q0 -82 -19.5 -149t-56 -113.5t-88 -72t-115.5 -25.5t-115.5 25.5t-88 72t-56 113.5t-19.5 149q0 83 19.5 149.5t56 113t88 72t115.5 25.5zM334 607q-69 0 -112.5 -55t-52.5 -154h330q-9 99 -52.5 154t-112.5 55z
M334 93q69 0 112.5 55t52.5 154h-330q9 -99 52.5 -154t112.5 -55z" />
    <glyph glyph-name="iota" unicode="&#x3b9;" horiz-adv-x="350" 
d="M256 -5q-94 0 -138.5 46t-44.5 139v350h111v-337q0 -53 22 -75t72 -22q11 0 23.5 1t23.5 3v-100q-18 -2 -35 -3.5t-34 -1.5z" />
    <glyph glyph-name="kappa" unicode="&#x3ba;" horiz-adv-x="553" 
d="M81 0v530h111v-530h-111zM324 269l215 -261v-8h-133l-202 252v26l191 252h127v-8z" />
    <glyph glyph-name="lambda" unicode="&#x3bb;" horiz-adv-x="554" 
d="M542 8v-8h-118l-92 229l-55 146l-56 -146l-91 -229h-118v8l207 493l-17 37q-10 21 -19 35t-19 22.5t-22.5 11.5t-29.5 3q-9 0 -18.5 -1t-19.5 -3v99q14 3 28.5 4t31.5 1q32 0 56.5 -7.5t45 -25.5t38.5 -49t38 -78z" />
    <glyph glyph-name="uni03BC" unicode="&#x3bc;" horiz-adv-x="680" 
d="M625 97h10.5t9.5 1v-98q-13 -2 -24.5 -3t-22.5 -1q-48 0 -79.5 18.5t-45.5 53.5q-67 -73 -179 -73q-56 0 -102 23v-175h-111v687h111v-298q0 -136 120 -136q66 0 106 39t40 105v290h111v-380q0 -29 15 -41t41 -12z" />
    <glyph glyph-name="nu" unicode="&#x3bd;" horiz-adv-x="553" 
d="M423 530h117v-8l-220 -522h-87l-220 522v8h118l88 -224l58 -151l58 152z" />
    <glyph glyph-name="xi" unicode="&#x3be;" horiz-adv-x="533" 
d="M332 94q53 -6 88 -16t57 -28t31 -44.5t9 -64.5q0 -46 -16 -98h-102q5 19 8.5 39t3.5 36q0 19 -5.5 32t-20.5 22t-40.5 14.5t-64.5 9.5q-126 13 -184 61t-58 137q0 57 27.5 102.5t75.5 70.5q-76 52 -76 151q0 43 17 78t48 60.5t74.5 39.5t95.5 14t94.5 -13.5t73.5 -39
t48.5 -61t18.5 -79.5h-107q-2 41 -36.5 65.5t-89.5 24.5q-57 0 -91 -27.5t-34 -72.5q0 -43 31.5 -70t81.5 -27h102v-101h-107q-62 0 -98 -29t-36 -78t41 -73.5t140 -34.5z" />
    <glyph glyph-name="omicron" unicode="&#x3bf;" horiz-adv-x="646" 
d="M323 -10q-61 0 -112.5 20.5t-89 57t-58 87t-20.5 110.5t20.5 110.5t58 87t89 57t112.5 20.5t112.5 -20.5t88.5 -57t58 -87t21 -110.5t-21 -110.5t-58 -87t-88.5 -57t-112.5 -20.5zM323 94q36 0 67 12.5t53 35.5t34.5 54.5t12.5 68.5q0 38 -12.5 69t-34.5 54t-53 35.5
t-67 12.5t-67 -12.5t-53 -35.5t-34.5 -54t-12.5 -69q0 -37 12.5 -68.5t34.5 -54.5t53 -35.5t67 -12.5z" />
    <glyph glyph-name="pi" unicode="&#x3c0;" horiz-adv-x="692" 
d="M662 426h-98v-269q0 -35 15 -47.5t44 -12.5h11t10 1v-98q-12 -2 -23.5 -3t-23.5 -1q-74 0 -109 38.5t-35 113.5v279h-224v-427h-111v426h-96v104h640v-104z" />
    <glyph glyph-name="rho" unicode="&#x3c1;" horiz-adv-x="665" 
d="M346 540q60 0 110.5 -20.5t87.5 -57t57.5 -87t20.5 -110.5t-20.5 -110.5t-57 -87t-86.5 -57t-109 -20.5q-51 0 -92.5 15.5t-74.5 50.5v-213h-112v419q0 62 21 113t57.5 88t87 57t110.5 20zM346 94q35 0 65 12.5t52 35.5t34 54.5t12 68.5q0 38 -12 69t-34 54t-52 35.5
t-65 12.5q-36 0 -66.5 -12.5t-52 -35.5t-34 -54t-12.5 -69q0 -37 12.5 -68.5t34 -54.5t52 -35.5t66.5 -12.5z" />
    <glyph glyph-name="uni03C2" unicode="&#x3c2;" horiz-adv-x="610" 
d="M419 -157q13 36 13 74q0 20 -5.5 34.5t-19.5 25t-38 18t-61 13.5q-139 22 -202 87t-63 179q0 60 20 109t56 84t86 54t111 19q55 0 101.5 -14t81 -42t56.5 -68t28 -93h-110q-7 58 -49.5 85.5t-104.5 27.5q-37 0 -67 -12t-51.5 -33t-33 -51t-11.5 -66t10 -63t33.5 -47.5
t61.5 -35t94 -25.5q52 -10 88 -23t58 -32t32 -45.5t10 -63.5q0 -24 -3.5 -48.5t-11.5 -47.5h-109z" />
    <glyph glyph-name="sigma" unicode="&#x3c3;" horiz-adv-x="659" 
d="M637 426h-63l-47 1q35 -35 52 -79.5t17 -92.5q0 -58 -21 -106.5t-58 -84t-87.5 -55t-110.5 -19.5t-110.5 20t-87.5 56t-57.5 85.5t-20.5 108.5t20.5 108.5t57.5 85.5t87.5 56t110.5 20h318v-104zM319 94q36 0 66 12.5t51.5 34.5t34 52.5t12.5 66.5t-12.5 66.5t-34 52.5
t-51.5 34.5t-66 12.5q-35 0 -65 -12.5t-51.5 -34.5t-34 -52.5t-12.5 -66.5t12.5 -66.5t34 -52.5t51.5 -34.5t65 -12.5z" />
    <glyph glyph-name="tau" unicode="&#x3c4;" horiz-adv-x="520" 
d="M486 426h-185v-233q0 -51 23 -74t77 -23q26 0 48 3v-99q-17 -2 -33.5 -3.5t-33.5 -1.5q-192 0 -192 185v246h-179v104h475v-104z" />
    <glyph glyph-name="upsilon" unicode="&#x3c5;" horiz-adv-x="618" 
d="M309 -10q-53 0 -96.5 16.5t-74.5 47t-48 73t-17 93.5v310h111v-301q0 -61 34 -98t91 -37t91 37t34 98v301h111v-310q0 -52 -17 -94.5t-48 -72.5t-74.5 -46.5t-96.5 -16.5z" />
    <glyph glyph-name="phi" unicode="&#x3c6;" horiz-adv-x="730" 
d="M687 264q0 -58 -20 -107.5t-55 -86t-84 -58t-108 -23.5v-146h-111v147q-58 2 -107 23.5t-84.5 58t-55 86t-19.5 107.5q0 59 19.5 108t55 85.5t84.5 58t107 23.5v160h111v-161q59 -2 108 -23.5t84 -58t55 -85.5t20 -108zM155 265q0 -37 11.5 -68t32.5 -54t49.5 -37
t62.5 -16v350q-34 -2 -62.5 -16t-49.5 -37t-32.5 -54t-11.5 -68zM418 89q35 2 63.5 16t49 37t32 54t11.5 68t-11.5 68.5t-32 54.5t-49 37t-63.5 16v-351z" />
    <glyph glyph-name="chi" unicode="&#x3c7;" horiz-adv-x="558" 
d="M527 -64q9 0 17.5 0.5t21.5 2.5v-97q-20 -4 -35 -5.5t-27 -1.5q-56 0 -85 22t-47 61l-91 189l-80 -149l-63 -115h-119v8l196 345l-98 201q-11 23 -26.5 31.5t-41.5 8.5q-14 0 -38 -3v96q19 4 34.5 5.5t27.5 1.5q52 0 81.5 -19.5t49.5 -63.5l85 -176l66 123l72 129h117v-8
l-189 -333l104 -213q11 -23 26.5 -31.5t41.5 -8.5z" />
    <glyph glyph-name="psi" unicode="&#x3c8;" horiz-adv-x="847" 
d="M662 530h111v-258q0 -133 -76.5 -205t-218.5 -74v-150h-110v150q-142 2 -218.5 74t-76.5 205v258h111v-246q0 -92 42.5 -139.5t141.5 -50.5v536h110v-536q94 3 139 47t45 143v246z" />
    <glyph glyph-name="omega" unicode="&#x3c9;" horiz-adv-x="906" 
d="M782 530q30 -61 46 -129t16 -134q0 -134 -55.5 -205.5t-158.5 -71.5q-63 0 -110 26.5t-67 72.5q-21 -46 -68 -72.5t-110 -26.5q-104 0 -158.5 71t-54.5 206q0 66 15.5 133.5t46.5 129.5h116q-32 -66 -48.5 -133t-16.5 -127q0 -177 112 -177q52 0 81.5 34.5t29.5 95.5v173
h110v-173q0 -61 29.5 -95.5t80.5 -34.5q113 0 113 177q0 60 -17 127t-48 133h116z" />
    <glyph glyph-name="iotadieresis" unicode="&#x3ca;" horiz-adv-x="350" 
d="M24 589q-29 0 -48 19.5t-19 49.5t19 49t48 19t48.5 -19t19.5 -49t-19.5 -49.5t-48.5 -19.5zM233 589q-29 0 -49 19.5t-20 49.5t20 49t49 19t48 -19t19 -49t-19 -49.5t-48 -19.5zM256 -5q-94 0 -138.5 46t-44.5 139v350h111v-337q0 -53 22 -75t72 -22q11 0 23.5 1t23.5 3
v-100q-18 -2 -35 -3.5t-34 -1.5z" />
    <glyph glyph-name="upsilondieresis" unicode="&#x3cb;" horiz-adv-x="618" 
d="M190 589q-29 0 -49.5 19.5t-20.5 49.5t20.5 49t49.5 19q31 0 51 -19t20 -49t-20 -49.5t-51 -19.5zM427 589q-30 0 -50.5 19.5t-20.5 49.5t20.5 49t50.5 19t50 -19t20 -49t-20 -49.5t-50 -19.5zM309 -10q-53 0 -96.5 16.5t-74.5 47t-48 73t-17 93.5v310h111v-301
q0 -61 34 -98t91 -37t91 37t34 98v301h111v-310q0 -52 -17 -94.5t-48 -72.5t-74.5 -46.5t-96.5 -16.5z" />
    <glyph glyph-name="omicrontonos" unicode="&#x3cc;" horiz-adv-x="646" 
d="M255 583v7l75 133h131v-8l-100 -132h-106zM323 -10q-61 0 -112.5 20.5t-89 57t-58 87t-20.5 110.5t20.5 110.5t58 87t89 57t112.5 20.5t112.5 -20.5t88.5 -57t58 -87t21 -110.5t-21 -110.5t-58 -87t-88.5 -57t-112.5 -20.5zM323 94q36 0 67 12.5t53 35.5t34.5 54.5
t12.5 68.5q0 38 -12.5 69t-34.5 54t-53 35.5t-67 12.5t-67 -12.5t-53 -35.5t-34.5 -54t-12.5 -69q0 -37 12.5 -68.5t34.5 -54.5t53 -35.5t67 -12.5z" />
    <glyph glyph-name="upsilontonos" unicode="&#x3cd;" horiz-adv-x="618" 
d="M241 583v7l75 133h131v-8l-100 -132h-106zM309 -10q-53 0 -96.5 16.5t-74.5 47t-48 73t-17 93.5v310h111v-301q0 -61 34 -98t91 -37t91 37t34 98v301h111v-310q0 -52 -17 -94.5t-48 -72.5t-74.5 -46.5t-96.5 -16.5z" />
    <glyph glyph-name="omegatonos" unicode="&#x3ce;" horiz-adv-x="906" 
d="M590 715l-100 -132h-106v7l75 133h131v-8zM782 530q30 -61 46 -129t16 -134q0 -134 -55.5 -205.5t-158.5 -71.5q-63 0 -110 26.5t-67 72.5q-21 -46 -68 -72.5t-110 -26.5q-104 0 -158.5 71t-54.5 206q0 66 15.5 133.5t46.5 129.5h116q-32 -66 -48.5 -133t-16.5 -127
q0 -177 112 -177q52 0 81.5 34.5t29.5 95.5v173h110v-173q0 -61 29.5 -95.5t80.5 -34.5q113 0 113 177q0 60 -17 127t-48 133h116z" />
    <glyph glyph-name="uni03CF" unicode="&#x3cf;" horiz-adv-x="634" 
d="M329 339q29 -45 60 -86t68.5 -80.5t83 -78.5t102.5 -80v-82q-43 -35 -89 -61.5t-98 -45.5t-111.5 -28.5t-128.5 -9.5q-60 0 -102 4t-87 14v102q18 -3 36.5 -6.5t41 -5.5t49.5 -3.5t63 -1.5q45 0 83.5 5t74 15.5t69 27t67.5 39.5q-106 85 -179 176.5t-126 194.5v-348h-118
v700h118v-345l258 345h135v-12z" />
    <glyph glyph-name="uni03D7" unicode="&#x3d7;" horiz-adv-x="560" 
d="M317 260q42 -76 105.5 -137t141.5 -113v-78q-71 -67 -163.5 -106t-219.5 -39q-41 0 -76.5 4t-77.5 15v100q33 -7 68.5 -12t85.5 -5q88 0 150 20.5t117 59.5q-90 65 -150.5 134t-93.5 149v26l191 252h127v-8zM192 530v-530h-111v530h111z" />
    <glyph glyph-name="uni0400" unicode="&#x400;" horiz-adv-x="573" 
d="M367 762h-102l-112 130v8h126l88 -131v-7zM205 113h319v-113h-436v700h429v-112h-312v-179h292v-111h-292v-185z" />
    <glyph glyph-name="uni0401" unicode="&#x401;" horiz-adv-x="573" 
d="M197 761q-30 0 -49.5 19.5t-19.5 48.5q0 30 19.5 49.5t49.5 19.5t50 -19.5t20 -49.5q0 -29 -20 -48.5t-50 -19.5zM420 761q-30 0 -49.5 19.5t-19.5 48.5q0 30 19.5 49.5t49.5 19.5t50 -19.5t20 -49.5q0 -29 -20 -48.5t-50 -19.5zM205 113h319v-113h-436v700h429v-112
h-312v-179h292v-111h-292v-185z" />
    <glyph glyph-name="uni0402" unicode="&#x402;" horiz-adv-x="765" 
d="M482 454q56 0 102 -16t78 -46t49.5 -72.5t17.5 -95.5q0 -115 -60 -173t-170 -58q-40 0 -76 6v112q14 -2 29 -3t31 -1q126 0 126 116q0 118 -137 118q-35 0 -66 -7t-63 -20v-314h-118v589h-198v111h522v-110h-206v-163q66 27 139 27z" />
    <glyph glyph-name="uni0403" unicode="&#x403;" horiz-adv-x="493" 
d="M226 762v7l89 131h127v-8l-111 -130h-105zM88 0v700h393v-113h-276v-587h-117z" />
    <glyph glyph-name="uni0404" unicode="&#x404;" horiz-adv-x="781" 
d="M741 260q-13 -61 -44.5 -111t-76 -85.5t-100.5 -54.5t-120 -19q-76 0 -140 27t-110.5 75t-73 114t-26.5 144t26.5 144t73 114t110.5 75t140 27q63 0 119 -18.5t100.5 -53t75.5 -83t45 -108.5h-120q-24 69 -81.5 109t-135.5 40q-45 0 -83 -14t-68 -39.5t-49.5 -61
t-27.5 -78.5h312v-106h-312q8 -43 27.5 -78.5t49.5 -61t68 -39.5t83 -14q39 0 73.5 11t63 31t49.5 49t33 65h119z" />
    <glyph glyph-name="uni0405" unicode="&#x405;" horiz-adv-x="608" 
d="M308 -10q-57 0 -103 16t-80 45.5t-54 72t-23 95.5h117q5 -54 43 -85t100 -31q66 0 103 26t37 71q0 42 -35.5 66.5t-120.5 38.5q-114 18 -172.5 66t-58.5 136q0 45 18 82.5t50 64.5t77 41.5t99 14.5q108 0 174.5 -56.5t77.5 -153.5h-118q-9 50 -44 74t-92 24
q-58 0 -91 -23.5t-33 -65.5q0 -20 7.5 -35.5t25 -27t47 -20t72.5 -15.5q117 -19 177 -70t60 -139q0 -48 -19 -87.5t-53.5 -67t-82 -42.5t-105.5 -15z" />
    <glyph glyph-name="uni0406" unicode="&#x406;" horiz-adv-x="466" 
d="M292 108h121v-108h-360v108h121v486h-119v106h356v-106h-119v-486z" />
    <glyph glyph-name="uni0407" unicode="&#x407;" horiz-adv-x="466" 
d="M121 761q-30 0 -49.5 19.5t-19.5 48.5q0 30 19.5 49.5t49.5 19.5t50 -19.5t20 -49.5q0 -29 -20 -48.5t-50 -19.5zM344 761q-30 0 -49.5 19.5t-19.5 48.5q0 30 19.5 49.5t49.5 19.5t50 -19.5t20 -49.5q0 -29 -20 -48.5t-50 -19.5zM292 594v-486h121v-108h-360v108h121v486
h-119v106h356v-106h-119z" />
    <glyph glyph-name="uni0408" unicode="&#x408;" horiz-adv-x="491" 
d="M123 700h292v-419q0 -141 -68 -215.5t-211 -74.5q-49 0 -106 9v115q50 -9 88 -9q95 0 137 48.5t42 133.5v301h-174v111z" />
    <glyph glyph-name="uni0409" unicode="&#x409;" horiz-adv-x="1033" 
d="M776 468q51 0 93.5 -16.5t72.5 -47.5t46.5 -74t16.5 -96q0 -52 -16.5 -95t-46.5 -74t-72.5 -48t-93.5 -17h-265v587h-219l-24 -367q-8 -110 -58 -166t-150 -56q-12 0 -22.5 0.5t-18.5 1.5v112q6 -1 15 -1h19q48 0 70.5 29t26.5 88l32 472h447v-232h147zM761 114
q59 0 91.5 32t32.5 89t-32.5 88.5t-91.5 31.5h-132v-241h132z" />
    <glyph glyph-name="uni040A" unicode="&#x40a;" horiz-adv-x="1030" 
d="M772 450q51 0 93.5 -16.5t72.5 -46t46.5 -71t16.5 -91.5t-16.5 -91.5t-46.5 -71t-72.5 -46t-93.5 -16.5h-255v319h-312v-319h-117v700h117v-268h312v268h118v-250h137zM757 114q57 0 91 30t34 82t-34 82t-91 30h-122v-224h122z" />
    <glyph glyph-name="uni040B" unicode="&#x40b;" horiz-adv-x="799" 
d="M476 456q55 0 100 -16.5t76.5 -48t48.5 -77.5t17 -105v-209h-118v194q0 79 -34 113t-101 34q-28 0 -57.5 -6t-64.5 -22v-313h-118v589h-198v111h524v-110h-208v-162q66 28 133 28z" />
    <glyph glyph-name="uni040C" unicode="&#x40c;" horiz-adv-x="630" 
d="M469 892l-111 -130h-105v7l89 131h127v-8zM343 356l272 -344v-12h-140l-269 352v-352h-118v700h118v-346l258 346h135v-12z" />
    <glyph glyph-name="uni040D" unicode="&#x40d;" horiz-adv-x="722" 
d="M420 762h-102l-112 130v8h126l88 -131v-7zM545 700h90v-700h-118v469l-338 -469h-91v700h117v-471z" />
    <glyph glyph-name="uni040E" unicode="&#x40e;" horiz-adv-x="600" 
d="M464 871v-93h-326v93h326zM463 700h123v-12l-309 -688h-124v13l86 186l-225 489v12h125l96 -217l67 -154l65 152z" />
    <glyph glyph-name="uni040F" unicode="&#x40f;" horiz-adv-x="702" 
d="M615 700v-700h-206v-138h-115v138h-206v700h117v-587h292v587h118z" />
    <glyph glyph-name="uni0410" unicode="&#x410;" horiz-adv-x="661" 
d="M376 700l276 -688v-12h-123l-57 150h-283l-58 -150h-122v12l276 688h91zM330 522l-102 -266h205z" />
    <glyph glyph-name="uni0411" unicode="&#x411;" horiz-adv-x="608" 
d="M343 434q53 0 95.5 -15t73.5 -42.5t47.5 -67t16.5 -89.5t-16.5 -91t-47.5 -69.5t-73.5 -44t-95.5 -15.5h-255v700h433v-113h-317v-153h139zM335 113q57 0 90 28.5t33 78.5t-33 78t-90 28h-131v-213h131z" />
    <glyph glyph-name="uni0412" unicode="&#x412;" horiz-adv-x="624" 
d="M491 373q45 -24 70 -69t25 -102q0 -46 -15 -83t-43 -63.5t-66.5 -41t-85.5 -14.5h-288v700h272q43 0 79 -13t61.5 -37t40 -58t14.5 -75q0 -45 -16.5 -81.5t-47.5 -62.5zM203 590v-174h148q43 0 64.5 23.5t21.5 64.5t-23.5 63.5t-65.5 22.5h-145zM366 111q47 0 74 25.5
t27 74.5q0 47 -26 73t-73 26h-165v-199h163z" />
    <glyph glyph-name="uni0413" unicode="&#x413;" horiz-adv-x="493" 
d="M88 0v700h393v-113h-276v-587h-117z" />
    <glyph glyph-name="uni0414" unicode="&#x414;" horiz-adv-x="742" 
d="M627 113h88v-251h-110v138h-475v-138h-111v251h74q14 14 24.5 34t18 49.5t12.5 69t8 92.5l21 342h450v-587zM287 587l-13 -240q-4 -67 -13.5 -129.5t-33.5 -104.5h282v474h-222z" />
    <glyph glyph-name="uni0415" unicode="&#x415;" horiz-adv-x="573" 
d="M205 113h319v-113h-436v700h429v-112h-312v-179h292v-111h-292v-185z" />
    <glyph glyph-name="uni0416" unicode="&#x416;" horiz-adv-x="932" 
d="M32 700h132l242 -347l-253 -353h-138v12l258 345l-241 331v12zM408 0v700h117v-700h-117zM659 356l258 -344v-12h-137l-254 353l242 347h133v-12z" />
    <glyph glyph-name="uni0417" unicode="&#x417;" horiz-adv-x="585" 
d="M442 367q52 -27 78.5 -73t26.5 -98q0 -49 -20 -87t-54.5 -64.5t-82 -40.5t-101.5 -14q-57 0 -103 15t-79 43t-51.5 68t-19.5 89h116q2 -47 38 -74t99 -27t100 26.5t37 72.5q0 49 -37.5 77t-103.5 28h-83v107h83q53 0 85.5 25.5t32.5 67.5t-33 66.5t-88 24.5
q-52 0 -84.5 -23.5t-34.5 -62.5h-115q1 45 18.5 81t48.5 62t74 40t95 14t95.5 -13.5t75 -39t49 -61t17.5 -80.5t-20 -85t-59 -64z" />
    <glyph glyph-name="uni0418" unicode="&#x418;" horiz-adv-x="722" 
d="M545 700h90v-700h-118v469l-338 -469h-91v700h117v-471z" />
    <glyph glyph-name="uni0419" unicode="&#x419;" horiz-adv-x="722" 
d="M525 871v-93h-326v93h326zM545 700h90v-700h-118v469l-338 -469h-91v700h117v-471z" />
    <glyph glyph-name="uni041A" unicode="&#x41a;" horiz-adv-x="630" 
d="M343 356l272 -344v-12h-140l-269 352v-352h-118v700h118v-346l258 346h135v-12z" />
    <glyph glyph-name="uni041B" unicode="&#x41b;" horiz-adv-x="717" 
d="M182 700h447v-700h-118v587h-219l-24 -367q-8 -110 -58 -166t-150 -56q-8 0 -20.5 0.5t-20.5 1.5v112q8 -1 16.5 -1h17.5q48 0 70.5 29t26.5 88z" />
    <glyph glyph-name="uni041C" unicode="&#x41c;" horiz-adv-x="850" 
d="M670 700h92v-700h-118v472l-186 -267h-65l-188 268v-473h-117v700h92l246 -355z" />
    <glyph glyph-name="uni041D" unicode="&#x41d;" horiz-adv-x="722" 
d="M517 700h118v-700h-118v299h-312v-299h-117v700h117v-288h312v288z" />
    <glyph glyph-name="uni041E" unicode="&#x41e;" horiz-adv-x="813" 
d="M407 -10q-78 0 -143.5 27t-113 75t-74 114t-26.5 144t26.5 144t74 114t113 75t143.5 27q77 0 142.5 -27t113 -75t74 -114t26.5 -144t-26.5 -144t-74 -114t-113 -75t-142.5 -27zM407 105q52 0 95 18t74 50.5t48.5 77.5t17.5 99t-17.5 99t-48.5 77.5t-74 50.5t-95 18
t-95 -18t-74.5 -50.5t-49 -77.5t-17.5 -99t17.5 -99t49 -77.5t74.5 -50.5t95 -18z" />
    <glyph glyph-name="uni041F" unicode="&#x41f;" horiz-adv-x="707" 
d="M88 0v700h531v-700h-118v587h-296v-587h-117z" />
    <glyph glyph-name="uni0420" unicode="&#x420;" horiz-adv-x="601" 
d="M347 700q53 0 96 -17.5t74 -49t47.5 -75.5t16.5 -98t-16.5 -97.5t-47.5 -75t-74 -48.5t-96 -17h-142v-222h-117v700h259zM334 331q60 0 93.5 34.5t33.5 94.5q0 59 -33.5 94t-93.5 35h-129v-258h129z" />
    <glyph glyph-name="uni0421" unicode="&#x421;" horiz-adv-x="781" 
d="M400 -10q-76 0 -140 27t-110.5 75t-73 114t-26.5 144t26.5 144t73 114t110.5 75t140 27q63 0 119 -18.5t100.5 -53t75.5 -83t45 -108.5h-121q-23 69 -80.5 108.5t-135.5 39.5q-51 0 -93.5 -18t-73.5 -50.5t-48 -77.5t-17 -99t17 -99t48 -77.5t73.5 -50.5t93.5 -18
q78 0 136.5 41.5t82.5 113.5h119q-13 -61 -44.5 -111t-76 -85.5t-100.5 -54.5t-120 -19z" />
    <glyph glyph-name="uni0422" unicode="&#x422;" horiz-adv-x="567" 
d="M541 700v-111h-198v-589h-118v589h-198v111h514z" />
    <glyph glyph-name="uni0423" unicode="&#x423;" horiz-adv-x="600" 
d="M463 700h123v-12l-309 -688h-124v13l86 186l-225 489v12h125l96 -217l67 -154l65 152z" />
    <glyph glyph-name="uni0424" unicode="&#x424;" horiz-adv-x="797" 
d="M756 353q0 -63 -21 -116.5t-60 -93t-94.5 -62.5t-123.5 -26v-69h-116v68q-72 3 -128 28t-94.5 65t-58 93t-19.5 113t19.5 113.5t58 93.5t94.5 65t128 28v68h116v-69q68 -3 123.5 -26t94.5 -62.5t60 -93t21 -117.5zM160 353q0 -41 12 -75.5t35 -60t57.5 -41t79.5 -18.5
v391q-90 -5 -137 -59t-47 -137zM453 158q88 5 136 57t48 138q0 87 -48 139t-136 57v-391z" />
    <glyph glyph-name="uni0425" unicode="&#x425;" horiz-adv-x="662" 
d="M407 364l236 -352v-12h-134l-138 211l-40 60l-38 -60l-140 -211h-134v12l236 351l-216 325v12h132l111 -169l50 -75l49 75l112 169h132v-12z" />
    <glyph glyph-name="uni0426" unicode="&#x426;" horiz-adv-x="729" 
d="M615 113h88v-251h-111v138h-504v700h117v-587h292v587h118v-587z" />
    <glyph glyph-name="uni0427" unicode="&#x427;" horiz-adv-x="648" 
d="M443 700h118v-700h-118v261q-71 -28 -144 -28q-57 0 -103.5 18t-79.5 52t-51 81.5t-18 105.5v210h118v-196q0 -155 147 -155q34 0 63.5 5t67.5 21v325z" />
    <glyph glyph-name="uni0428" unicode="&#x428;" horiz-adv-x="1043" 
d="M838 700h117v-700h-867v700h117v-587h259v587h115v-587h259v587z" />
    <glyph glyph-name="uni0429" unicode="&#x429;" horiz-adv-x="1070" 
d="M955 113h89v-251h-111v138h-845v700h117v-587h259v587h115v-587h259v587h117v-587z" />
    <glyph glyph-name="uni042A" unicode="&#x42a;" horiz-adv-x="709" 
d="M452 468q51 0 93.5 -17t72.5 -48t46.5 -74t16.5 -95t-16.5 -95t-46.5 -74t-72.5 -48t-93.5 -17h-265v587h-161v113h279v-232h147zM437 114q57 0 90.5 32t33.5 89q0 56 -34 88t-90 32h-132v-241h132z" />
    <glyph glyph-name="uni042B" unicode="&#x42b;" horiz-adv-x="883" 
d="M352 468q51 0 93.5 -17t72.5 -48t46.5 -74t16.5 -95t-16.5 -95t-46.5 -74t-72.5 -48t-93.5 -17h-264v700h117v-232h147zM678 700h118v-700h-118v700zM337 114q57 0 90.5 32t33.5 89q0 56 -34 88t-90 32h-132v-241h132z" />
    <glyph glyph-name="uni042C" unicode="&#x42c;" horiz-adv-x="609" 
d="M352 468q51 0 93.5 -17t72.5 -48t46.5 -74t16.5 -95t-16.5 -95t-46.5 -74t-72.5 -48t-93.5 -17h-264v700h117v-232h147zM337 114q57 0 90.5 32t33.5 89q0 56 -34 88t-90 32h-132v-241h132z" />
    <glyph glyph-name="uni042D" unicode="&#x42d;" horiz-adv-x="781" 
d="M381 710q76 0 140.5 -27t111 -75t72.5 -114t26 -144t-26 -144t-72.5 -114t-111 -75t-140.5 -27q-64 0 -120 19t-100.5 54.5t-75.5 85.5t-45 111h119q24 -72 82.5 -114t136.5 -42q45 0 83.5 14t68 39.5t49.5 61t27 78.5h-312v106h312q-7 43 -27 78.5t-49.5 61t-68 39.5
t-83.5 14q-38 0 -72.5 -10.5t-62.5 -29.5t-48.5 -46.5t-32.5 -62.5h-121q14 60 45.5 108.5t75.5 83t100 53t119 18.5z" />
    <glyph glyph-name="uni042E" unicode="&#x42e;" horiz-adv-x="1058" 
d="M653 710q77 0 142 -27t112.5 -75t74 -114t26.5 -144t-26.5 -144t-74 -114t-112.5 -75t-142 -27q-70 0 -131 23t-107 64t-75.5 97.5t-37.5 124.5h-97v-299h-117v700h117v-288h99q10 66 40 121t75.5 94t105 61t128.5 22zM652 105q51 0 94.5 18t74.5 50.5t48.5 77.5t17.5 99
t-17.5 99t-48.5 77.5t-74.5 50.5t-94.5 18t-94.5 -18t-74.5 -50.5t-48.5 -77.5t-17.5 -99t17.5 -99t48.5 -77.5t74.5 -50.5t94.5 -18z" />
    <glyph glyph-name="uni042F" unicode="&#x42f;" horiz-adv-x="626" 
d="M539 700v-700h-118v589h-136q-29 0 -51 -10t-37 -26t-22.5 -37t-7.5 -44q0 -22 7.5 -43t22.5 -37t37 -26t51 -10h113v-61l-229 -295h-140v12l198 244q-45 9 -78.5 30t-56 50t-34 64.5t-11.5 73.5q0 44 15 84.5t44.5 72t73.5 50.5t101 19h258z" />
    <glyph glyph-name="uni0430" unicode="&#x430;" horiz-adv-x="681" 
d="M495 530h105v-530h-105l-2 62q-35 -35 -81.5 -53.5t-102.5 -18.5q-59 0 -108 20.5t-84 57.5t-54.5 87t-19.5 110t20 110.5t55 87t84 57t107 20.5q56 0 102.5 -18.5t81.5 -52.5zM323 94q37 0 67.5 12.5t53 35t35 54t12.5 69.5t-12.5 69.5t-35 54t-53 35t-67.5 12.5
q-36 0 -67 -12.5t-53 -35t-34.5 -54t-12.5 -69.5t12.5 -69.5t34.5 -54t53 -35t67 -12.5z" />
    <glyph glyph-name="uni0431" unicode="&#x431;" horiz-adv-x="654" 
d="M356 502q56 0 103 -19t80.5 -53t52.5 -80.5t19 -101.5q0 -57 -20.5 -104.5t-57.5 -82t-88 -54t-113 -19.5q-66 0 -118 22t-88 62.5t-55.5 98t-19.5 129.5q0 94 16.5 164.5t54 118.5t98 75t148.5 35l211 19v-109l-200 -16q-104 -9 -152 -47t-58 -106q36 35 84 51.5
t103 16.5zM331 93q37 0 67.5 11.5t52.5 32.5t34.5 49.5t12.5 62.5q0 35 -11.5 63.5t-33.5 49t-52.5 32t-69.5 11.5q-36 0 -66.5 -11.5t-52.5 -32t-34.5 -49t-12.5 -63.5q0 -34 12.5 -62.5t34.5 -49.5t52.5 -32.5t66.5 -11.5z" />
    <glyph glyph-name="uni0432" unicode="&#x432;" horiz-adv-x="574" 
d="M465 281q35 -18 55 -52t20 -76q0 -35 -13 -63t-35.5 -48t-54 -31t-69.5 -11h-287v530h272q75 0 118.5 -37.5t43.5 -100.5q0 -33 -12.5 -62t-37.5 -49zM192 436v-120h146q34 0 50.5 16.5t16.5 44.5q0 59 -69 59h-144zM348 95q39 0 59.5 18.5t20.5 49.5t-20 48.5t-59 17.5
h-157v-134h156z" />
    <glyph glyph-name="uni0433" unicode="&#x433;" horiz-adv-x="452" 
d="M433 530v-104h-241v-426h-111v530h352z" />
    <glyph glyph-name="uni0434" unicode="&#x434;" horiz-adv-x="632" 
d="M524 105h84v-243h-105v138h-385v-138h-103v243h65q17 23 25.5 57.5t11.5 94.5l16 273h391v-425zM237 426l-10 -177q-2 -52 -9 -85.5t-21 -59.5h216v322h-176z" />
    <glyph glyph-name="uni0435" unicode="&#x435;" horiz-adv-x="634" 
d="M157 228q11 -62 54 -99t107 -37q48 0 85 19t56 51h120q-28 -80 -97.5 -126t-163.5 -46q-60 0 -110 20.5t-87 57t-57.5 87t-20.5 110.5t20.5 110.5t57.5 87t87 57t110 20.5q65 0 118 -22.5t89.5 -63.5t55 -98.5t12.5 -127.5h-436zM318 438q-61 0 -102.5 -33.5t-55.5 -90.5
h320q-14 55 -56.5 89.5t-105.5 34.5z" />
    <glyph glyph-name="uni0436" unicode="&#x436;" horiz-adv-x="813" 
d="M31 530h126l182 -252v-26l-192 -252h-133v8l207 260l-190 254v8zM351 0v530h111v-530h-111zM592 269l207 -261v-8h-133l-192 252v26l182 252h126v-8z" />
    <glyph glyph-name="uni0437" unicode="&#x437;" horiz-adv-x="508" 
d="M387 278q39 -17 62.5 -52t23.5 -78q0 -36 -16 -65t-45 -50t-69.5 -32t-90.5 -11q-101 0 -159 45.5t-61 125.5h106q2 -34 32.5 -53.5t81.5 -19.5q54 0 83 18t29 51t-28 51.5t-79 18.5h-85v91h84q42 0 65 17t23 47q0 29 -25.5 46t-72.5 17q-95 0 -101 -62h-103
q3 73 57.5 115t148.5 42q46 0 83.5 -10.5t64.5 -29.5t41.5 -46.5t14.5 -60.5q0 -36 -17.5 -66.5t-47.5 -48.5z" />
    <glyph glyph-name="uni0438" unicode="&#x438;" horiz-adv-x="626" 
d="M457 530h88v-530h-111v220l1 118l-266 -338h-88v530h111v-238l-1 -99z" />
    <glyph glyph-name="uni0439" unicode="&#x439;" horiz-adv-x="626" 
d="M458 702v-92h-294v92h294zM457 530h88v-530h-111v220l1 118l-266 -338h-88v530h111v-238l-1 -99z" />
    <glyph glyph-name="uni043A" unicode="&#x43a;" horiz-adv-x="553" 
d="M81 0v530h111v-530h-111zM324 269l215 -261v-8h-133l-202 252v26l191 252h127v-8z" />
    <glyph glyph-name="uni043B" unicode="&#x43b;" horiz-adv-x="606" 
d="M137 530h388v-530h-111v426h-172l-16 -262q-5 -78 -48 -122t-123 -44q-10 0 -19.5 0.5t-19.5 1.5v101q7 -1 12.5 -1h12.5q29 0 50.5 17.5t24.5 67.5z" />
    <glyph glyph-name="uni043C" unicode="&#x43c;" horiz-adv-x="733" 
d="M561 530h91v-530h-111v335l-150 -203h-48l-151 202v-334h-111v530h91l195 -262z" />
    <glyph glyph-name="uni043D" unicode="&#x43d;" horiz-adv-x="626" 
d="M434 530h111v-530h-111v218h-242v-218h-111v530h111v-207h242v207z" />
    <glyph glyph-name="uni043E" unicode="&#x43e;" horiz-adv-x="646" 
d="M323 -10q-61 0 -112.5 20.5t-89 57t-58 87t-20.5 110.5t20.5 110.5t58 87t89 57t112.5 20.5t112.5 -20.5t88.5 -57t58 -87t21 -110.5t-21 -110.5t-58 -87t-88.5 -57t-112.5 -20.5zM323 94q36 0 67 12.5t53 35.5t34.5 54.5t12.5 68.5q0 38 -12.5 69t-34.5 54t-53 35.5
t-67 12.5t-67 -12.5t-53 -35.5t-34.5 -54t-12.5 -69q0 -37 12.5 -68.5t34.5 -54.5t53 -35.5t67 -12.5z" />
    <glyph glyph-name="uni043F" unicode="&#x43f;" horiz-adv-x="620" 
d="M81 530h458v-530h-111v426h-236v-426h-111v530z" />
    <glyph glyph-name="uni0440" unicode="&#x440;" horiz-adv-x="682" 
d="M374 540q58 0 106.5 -20.5t84 -57t55 -87t19.5 -110.5q0 -59 -19.5 -109.5t-54.5 -87t-83.5 -57.5t-107.5 -21q-55 0 -101 18t-81 51v-216h-111v687h105l2 -63q35 35 82 54t104 19zM359 94q37 0 67.5 12.5t53 35t35 54t12.5 69.5t-12.5 69.5t-35 54t-53 35t-67.5 12.5
t-68 -12.5t-53.5 -35t-35 -54t-12.5 -69.5t12.5 -69.5t35 -54t53.5 -35t68 -12.5z" />
    <glyph glyph-name="uni0441" unicode="&#x441;" horiz-adv-x="620" 
d="M318 -10q-60 0 -110.5 20t-87 56.5t-57 87t-20.5 110.5q0 61 20 112t56.5 87.5t87 56.5t111.5 20q51 0 95 -14.5t78.5 -41.5t58.5 -65t34 -86h-111q-18 49 -58 76t-95 27q-37 0 -67 -12.5t-52 -35t-34 -54t-12 -70.5q0 -38 12 -69t34 -53.5t52 -35t67 -12.5q57 0 96.5 27
t56.5 77h112q-10 -48 -34 -86.5t-58.5 -65.5t-79 -41.5t-95.5 -14.5z" />
    <glyph glyph-name="uni0442" unicode="&#x442;" horiz-adv-x="513" 
d="M494 530v-104h-182v-426h-111v426h-182v104h475z" />
    <glyph glyph-name="uni0443" unicode="&#x443;" horiz-adv-x="556" 
d="M422 530h121v-8l-300 -679h-120v7l93 207l-203 465v8h121l80 -193l62 -153l63 152z" />
    <glyph glyph-name="uni0444" unicode="&#x444;" horiz-adv-x="730" 
d="M687 264q0 -58 -20 -107.5t-55 -86t-84 -58t-108 -23.5v-146h-111v147q-58 2 -107 23.5t-84.5 58t-55 86t-19.5 107.5q0 59 19.5 108t55 85.5t84.5 58t107 23.5v160h111v-161q59 -2 108 -23.5t84 -58t55 -85.5t20 -108zM155 265q0 -37 11.5 -68t32.5 -54t49.5 -37
t62.5 -16v350q-34 -2 -62.5 -16t-49.5 -37t-32.5 -54t-11.5 -68zM418 89q35 2 63.5 16t49 37t32 54t11.5 68t-11.5 68.5t-32 54.5t-49 37t-63.5 16v-351z" />
    <glyph glyph-name="uni0445" unicode="&#x445;" horiz-adv-x="554" 
d="M345 268l189 -260v-8h-126l-70 98l-63 90l-62 -90l-70 -98h-126v8l188 259l-181 255v8h123l129 -185l127 185h122v-8z" />
    <glyph glyph-name="uni0446" unicode="&#x446;" horiz-adv-x="645" 
d="M535 105h86v-243h-106v138h-434v530h111v-425h232v425h111v-425z" />
    <glyph glyph-name="uni0447" unicode="&#x447;" horiz-adv-x="567" 
d="M375 530h111v-530h-111v183q-58 -20 -118 -20q-99 0 -155.5 52t-56.5 152v163h111v-149q0 -59 29.5 -86t85.5 -27q24 0 49.5 4.5t54.5 16.5v241z" />
    <glyph glyph-name="uni0448" unicode="&#x448;" horiz-adv-x="938" 
d="M746 530h111v-530h-776v530h111v-425h222v425h111v-425h221v425z" />
    <glyph glyph-name="uni0449" unicode="&#x449;" horiz-adv-x="967" 
d="M858 105h84v-243h-105v138h-756v530h111v-425h222v425h111v-425h222v425h111v-425z" />
    <glyph glyph-name="uni044A" unicode="&#x44a;" horiz-adv-x="610" 
d="M386 376q44 0 80.5 -13.5t62.5 -38t40 -58.5t14 -75q0 -42 -14 -77t-40 -60.5t-62.5 -39.5t-80.5 -14h-218v429h-144v101h255v-154h107zM382 102q41 0 65 24.5t24 64.5q0 38 -24.5 61t-64.5 23h-104v-173h104z" />
    <glyph glyph-name="uni044B" unicode="&#x44b;" horiz-adv-x="796" 
d="M300 376q44 0 80 -13.5t62 -38t40 -58.5t14 -75q0 -42 -14 -77t-40 -60.5t-62 -39.5t-80 -14h-219v530h111v-154h108zM604 530h111v-530h-111v530zM295 102q41 0 65 24.5t24 64.5q0 38 -24 61t-65 23h-103v-173h103z" />
    <glyph glyph-name="uni044C" unicode="&#x44c;" horiz-adv-x="523" 
d="M300 376q44 0 80 -13.5t62 -38t40 -58.5t14 -75q0 -42 -14 -77t-40 -60.5t-62 -39.5t-80 -14h-219v530h111v-154h108zM295 102q41 0 65 24.5t24 64.5q0 38 -24 61t-65 23h-103v-173h103z" />
    <glyph glyph-name="uni044D" unicode="&#x44d;" horiz-adv-x="620" 
d="M302 540q62 0 112.5 -20.5t86.5 -57t56 -87.5t20 -111t-20 -110.5t-56.5 -86.5t-87 -56.5t-111.5 -20.5q-53 0 -97.5 15t-79 42.5t-58 66t-33.5 84.5h111q18 -48 57.5 -76.5t97.5 -28.5q65 0 108 34.5t55 94.5h-214v94h212q-14 56 -56.5 88.5t-104.5 32.5q-57 0 -97 -28
t-58 -76h-109q10 47 33.5 85t57.5 65t78.5 42t96.5 15z" />
    <glyph glyph-name="uni044E" unicode="&#x44e;" horiz-adv-x="878" 
d="M556 540q61 0 112.5 -20.5t88.5 -57t57.5 -87t20.5 -110.5t-20.5 -110.5t-57.5 -87t-88.5 -57t-112.5 -20.5q-55 0 -102.5 16.5t-83.5 46.5t-59 72t-31 93h-88v-218h-111v530h111v-208h89q9 49 33 89t60 68.5t82 44.5t100 16zM556 94q36 0 67 12.5t53 35.5t34.5 54.5
t12.5 68.5q0 38 -12.5 69t-34.5 54t-53 35.5t-67 12.5t-67 -12.5t-53 -35.5t-34.5 -54t-12.5 -69q0 -37 12.5 -68.5t34.5 -54.5t53 -35.5t67 -12.5z" />
    <glyph glyph-name="uni044F" unicode="&#x44f;" horiz-adv-x="539" 
d="M458 530v-530h-111v433h-102q-43 0 -66.5 -20.5t-23.5 -58.5t23.5 -58.5t66.5 -20.5h80v-51l-168 -224h-128v10l148 184q-60 12 -97.5 55.5t-37.5 109.5q0 38 13 69.5t36.5 54t56 35t71.5 12.5h239z" />
    <glyph glyph-name="uni0450" unicode="&#x450;" horiz-adv-x="634" 
d="M387 583h-107l-100 132v8h131l76 -133v-7zM157 228q11 -62 54 -99t107 -37q48 0 85 19t56 51h120q-28 -80 -97.5 -126t-163.5 -46q-60 0 -110 20.5t-87 57t-57.5 87t-20.5 110.5t20.5 110.5t57.5 87t87 57t110 20.5q65 0 118 -22.5t89.5 -63.5t55 -98.5t12.5 -127.5h-436
zM318 438q-61 0 -102.5 -33.5t-55.5 -90.5h320q-14 55 -56.5 89.5t-105.5 34.5z" />
    <glyph glyph-name="uni0451" unicode="&#x451;" horiz-adv-x="634" 
d="M200 589q-29 0 -49.5 19.5t-20.5 49.5t20.5 49t49.5 19q31 0 51 -19t20 -49t-20 -49.5t-51 -19.5zM437 589q-30 0 -50.5 19.5t-20.5 49.5t20.5 49t50.5 19t50 -19t20 -49t-20 -49.5t-50 -19.5zM157 228q11 -62 54 -99t107 -37q48 0 85 19t56 51h120q-28 -80 -97.5 -126
t-163.5 -46q-60 0 -110 20.5t-87 57t-57.5 87t-20.5 110.5t20.5 110.5t57.5 87t87 57t110 20.5q65 0 118 -22.5t89.5 -63.5t55 -98.5t12.5 -127.5h-436zM318 438q-61 0 -102.5 -33.5t-55.5 -90.5h320q-14 55 -56.5 89.5t-105.5 34.5z" />
    <glyph glyph-name="uni0452" unicode="&#x452;" horiz-adv-x="659" 
d="M367 534q109 0 164 -62.5t55 -177.5v-311q0 -175 -184 -175q-15 0 -31.5 1.5t-34.5 3.5v100q13 -2 24.5 -3t22.5 -1q49 0 70.5 20t21.5 67v290q0 147 -130 147q-69 0 -110.5 -40t-41.5 -107v-286h-111v580h-86v70h86v50h111v-50h166v-70h-166v-120q68 74 174 74z" />
    <glyph glyph-name="uni0453" unicode="&#x453;" horiz-adv-x="452" 
d="M396 715l-100 -132h-106v7l75 133h131v-8zM433 530v-104h-241v-426h-111v530h352z" />
    <glyph glyph-name="uni0454" unicode="&#x454;" horiz-adv-x="620" 
d="M585 198q-10 -46 -33 -84.5t-57.5 -66t-79 -42.5t-97.5 -15q-61 0 -111.5 20.5t-87 56.5t-56.5 86.5t-20 110.5t20 111t56 87.5t87 57t112 20.5q52 0 96.5 -15t78.5 -42t57.5 -65t33.5 -85h-109q-18 48 -58 76t-97 28q-62 0 -104.5 -32t-56.5 -89h212v-94h-214
q11 -61 54.5 -95t108.5 -34q58 0 97.5 28.5t57.5 76.5h110z" />
    <glyph glyph-name="uni0455" unicode="&#x455;" horiz-adv-x="535" 
d="M270 -9q-102 0 -161.5 46.5t-63.5 128.5h112q3 -38 33.5 -57.5t81.5 -19.5t82 15.5t31 47.5q0 14 -5.5 24t-20 17.5t-38.5 13t-61 10.5q-55 8 -94.5 21.5t-65 33t-37 46.5t-11.5 62q0 39 17 69t46 50t69 30.5t86 10.5q94 0 150.5 -44t61.5 -120h-110q-4 32 -31 49.5
t-74 17.5q-49 0 -76 -16t-27 -45q0 -15 6.5 -25.5t21.5 -18.5t39.5 -14t60.5 -11q46 -6 84 -17t65 -29t41.5 -45t14.5 -65q0 -42 -17.5 -73t-48 -51.5t-72 -31t-89.5 -10.5z" />
    <glyph glyph-name="uni0456" unicode="&#x456;" horiz-adv-x="274" 
d="M136 590q-33 0 -54.5 21t-21.5 53t21.5 54t54.5 22q34 0 55.5 -22t21.5 -54t-21.5 -53t-55.5 -21zM81 0v530h111v-530h-111z" />
    <glyph glyph-name="uni0457" unicode="&#x457;" horiz-adv-x="274" 
d="M32 589q-29 0 -48 19.5t-19 49.5t19 49t48 19t48.5 -19t19.5 -49t-19.5 -49.5t-48.5 -19.5zM241 589q-29 0 -49 19.5t-20 49.5t20 49t49 19t48 -19t19 -49t-19 -49.5t-48 -19.5zM81 0v530h111v-530h-111z" />
    <glyph glyph-name="uni0458" unicode="&#x458;" horiz-adv-x="275" 
d="M137 590q-33 0 -54.5 21t-21.5 53t21.5 54t54.5 22q34 0 55.5 -22t21.5 -54t-21.5 -53t-55.5 -21zM18 -168q-14 0 -29 1.5t-32 3.5v98q19 -3 38 -3q46 0 66.5 19t20.5 64v515h111v-527q0 -89 -43.5 -130t-131.5 -41z" />
    <glyph glyph-name="uni0459" unicode="&#x459;" horiz-adv-x="855" 
d="M632 376q44 0 80 -13.5t62 -38t40.5 -58.5t14.5 -75q0 -42 -14.5 -77t-40.5 -60.5t-62 -39.5t-80 -14h-218v426h-173l-15 -262q-5 -80 -48 -123t-119 -43q-11 0 -21.5 0.5t-21.5 1.5v101q6 -1 12 -1h13q29 0 50.5 18t24.5 68l21 344h388v-154h107zM628 102q41 0 65 24.5
t24 64.5q0 38 -24.5 61t-64.5 23h-103v-173h103z" />
    <glyph glyph-name="uni045A" unicode="&#x45a;" horiz-adv-x="875" 
d="M652 356q44 0 80.5 -13t62.5 -36.5t40 -56t14 -72.5t-14 -72.5t-40 -56t-62.5 -36.5t-80.5 -13h-218v228h-242v-228h-111v530h111v-197h242v197h111v-174h107zM648 102q41 0 65 20.5t24 55.5t-24 56t-65 21h-104v-153h104z" />
    <glyph glyph-name="uni045B" unicode="&#x45b;" horiz-adv-x="650" 
d="M357 534q109 0 164.5 -62.5t55.5 -177.5v-294h-111v286q0 147 -130 147q-69 0 -110.5 -40t-41.5 -107v-286h-111v577h-77v69h77v54h111v-54h175v-69h-175v-116q32 35 77 54t96 19z" />
    <glyph glyph-name="uni045C" unicode="&#x45c;" horiz-adv-x="553" 
d="M435 715l-100 -132h-106v7l75 133h131v-8zM81 0v530h111v-530h-111zM324 269l215 -261v-8h-133l-202 252v26l191 252h127v-8z" />
    <glyph glyph-name="uni045D" unicode="&#x45d;" horiz-adv-x="626" 
d="M379 583h-107l-100 132v8h131l76 -133v-7zM457 530h88v-530h-111v220l1 118l-266 -338h-88v530h111v-238l-1 -99z" />
    <glyph glyph-name="uni045E" unicode="&#x45e;" horiz-adv-x="556" 
d="M425 702v-92h-294v92h294zM422 530h121v-8l-300 -679h-120v7l93 207l-203 465v8h121l80 -193l62 -153l63 152z" />
    <glyph glyph-name="uni045F" unicode="&#x45f;" horiz-adv-x="617" 
d="M536 530v-530h-175v-138h-105v138h-175v530h111v-425h233v425h111z" />
    <glyph glyph-name="uni0462" unicode="&#x462;" horiz-adv-x="613" 
d="M356 468q51 0 93.5 -17t72.5 -48t46.5 -74t16.5 -95t-16.5 -95t-46.5 -74t-72.5 -48t-93.5 -17h-264v563h-79v81h79v56h117v-56h148v-81h-148v-95h147zM341 114q57 0 90.5 32t33.5 89q0 56 -34 88t-90 32h-132v-241h132z" />
    <glyph glyph-name="uni0463" unicode="&#x463;" horiz-adv-x="527" 
d="M304 376q44 0 80.5 -13.5t62.5 -38t40 -58.5t14 -75q0 -42 -14 -77t-40 -60.5t-62.5 -39.5t-80.5 -14h-218v460h-69v71h69v169h111v-169h118v-71h-118v-84h107zM300 102q41 0 65 24.5t24 64.5q0 38 -24.5 61t-64.5 23h-104v-173h104z" />
    <glyph glyph-name="uni046A" unicode="&#x46a;" horiz-adv-x="736" 
d="M490 424q89 -15 138.5 -78t49.5 -172v-174h-111v162q0 90 -35 128.5t-107 38.5h-2v-329h-110v329h-2q-72 0 -107 -38.5t-35 -128.5v-162h-111v174q0 109 49.5 172t138.5 78l-163 205v71h570v-71zM244 597l124 -166l124 166h-248z" />
    <glyph glyph-name="uni046B" unicode="&#x46b;" horiz-adv-x="631" 
d="M429 321q69 -13 109 -61t40 -128v-132h-106v122q0 52 -23 82t-82 31v-235h-103v235q-22 0 -41.5 -5.5t-33.5 -18t-22 -34.5t-8 -55v-122h-106v132q0 81 40 128.5t110 60.5l-125 147v62h475v-62zM405 443h-179l41 -51l49 -66l48 66z" />
    <glyph glyph-name="uni0472" unicode="&#x472;" horiz-adv-x="813" 
d="M407 710q77 0 142.5 -27t113 -75t74 -114t26.5 -144t-26.5 -144t-74 -114t-113 -75t-142.5 -27q-78 0 -143.5 27t-113 75t-74 114t-26.5 144t26.5 144t74 114t113 75t143.5 27zM407 595q-45 0 -83.5 -13.5t-68.5 -38.5t-50.5 -60t-28.5 -77q47 24 104 24q51 0 85 -11
t62 -25q24 -12 46.5 -19.5t51.5 -7.5q32 0 61.5 10t51.5 23q-7 44 -27.5 79.5t-50.5 61.5t-69 40t-84 14zM407 105q45 0 83.5 14t68.5 39t50 60t28 77q-22 -12 -47.5 -18.5t-57.5 -6.5q-51 0 -84.5 11t-62.5 25q-24 11 -46.5 19t-51.5 8q-26 0 -56.5 -9t-55.5 -24
q8 -43 28 -79t50 -62t69.5 -40t84.5 -14z" />
    <glyph glyph-name="uni0473" unicode="&#x473;" horiz-adv-x="646" 
d="M323 540q61 0 112.5 -20.5t88.5 -57t58 -87t21 -110.5t-21 -110.5t-58 -87t-88.5 -57t-112.5 -20.5t-112.5 20.5t-89 57t-58 87t-20.5 110.5t20.5 110.5t58 87t89 57t112.5 20.5zM323 439q-64 0 -108.5 -36t-57.5 -96q36 21 80 21q37 0 60 -7t43 -17q17 -8 31.5 -12.5
t34.5 -4.5q28 0 47.5 10t32.5 20q-14 55 -58 88.5t-105 33.5zM323 91q64 0 109 37t57 97q-17 -11 -36.5 -17t-44.5 -6q-37 0 -60 7.5t-43 16.5q-16 8 -32 12.5t-36 4.5q-21 0 -41 -8.5t-37 -20.5q15 -56 59 -89.5t105 -33.5z" />
    <glyph glyph-name="uni0474" unicode="&#x474;" horiz-adv-x="700" 
d="M624 706q34 0 64 -6v-97q-15 2 -23.5 2.5t-16.5 0.5q-17 0 -28.5 -7t-18.5 -24l-227 -575h-86l-274 688v12h122l196 -511l161 423q18 46 49 70t82 24z" />
    <glyph glyph-name="uni0475" unicode="&#x475;" horiz-adv-x="580" 
d="M514 534q12 0 25 -1t29 -3v-97q-8 1 -12.5 1h-13.5q-21 0 -35.5 -10.5t-26.5 -39.5l-160 -384h-87l-220 522v8h118l88 -224l57 -152l104 271q22 57 54 83t80 26z" />
    <glyph glyph-name="uni0490" unicode="&#x490;" horiz-adv-x="493" 
d="M378 800h103v-212h-276v-588h-117v700h290v100z" />
    <glyph glyph-name="uni0491" unicode="&#x491;" horiz-adv-x="446" 
d="M324 634h103v-208h-235v-426h-111v530h243v104z" />
    <glyph glyph-name="uni0492" unicode="&#x492;" horiz-adv-x="505" 
d="M494 589h-276v-198h159v-97h-159v-294h-118v294h-83v97h83v309h394v-111z" />
    <glyph glyph-name="uni0493" unicode="&#x493;" horiz-adv-x="453" 
d="M434 426h-235v-123h150v-85h-150v-218h-111v217h-75v86h75v227h346v-104z" />
    <glyph glyph-name="uni0494" unicode="&#x494;" horiz-adv-x="630" 
d="M344 456q57 0 103.5 -21t78.5 -61t49.5 -97.5t17.5 -130.5q0 -155 -57.5 -233.5t-173.5 -78.5q-22 0 -41.5 1.5t-36.5 5.5v111q14 -2 29.5 -3t31.5 -1q65 0 97 47.5t32 150.5q0 100 -35.5 147.5t-105.5 47.5q-35 0 -66 -7.5t-62 -20.5v-313h-117v700h360v-111h-243v-160
q65 27 139 27z" />
    <glyph glyph-name="uni0495" unicode="&#x495;" horiz-adv-x="590" 
d="M346 373q108 0 156 -69.5t48 -216.5q0 -137 -44.5 -207.5t-140.5 -70.5q-14 0 -30.5 1t-34.5 3v98q24 -3 48 -3q51 0 73 44t22 135q0 98 -26.5 142.5t-88.5 44.5q-63 0 -99.5 -36.5t-36.5 -103.5v-134h-111v530h346v-102h-235v-111q31 30 68 43t86 13z" />
    <glyph glyph-name="uni0496" unicode="&#x496;" horiz-adv-x="965" 
d="M32 700h132l242 -347l-253 -353h-138v12l258 345l-241 331v12zM408 0v700h117v-700h-117zM841 113h121v-251h-109v138h-73l-254 353l242 347h133v-12l-242 -332z" />
    <glyph glyph-name="uni0497" unicode="&#x497;" horiz-adv-x="847" 
d="M31 530h126l182 -252v-26l-192 -252h-133v8l207 260l-190 254v8zM351 0v530h111v-530h-111zM722 105h125v-243h-105v138h-76l-192 252v26l182 252h126v-8l-190 -253z" />
    <glyph glyph-name="uni0498" unicode="&#x498;" horiz-adv-x="585" 
d="M547 196q0 -44 -16.5 -80t-45.5 -62t-69.5 -42t-87.5 -20l-19 -39q94 -3 94 -74q0 -26 -10.5 -42.5t-28 -26t-41.5 -13.5t-51 -4q-20 0 -43.5 2.5t-46.5 7.5v72q26 -6 45 -8t36 -2q53 0 53 21q0 22 -47 22q-20 0 -39 -4l-12 17l32 71q-98 10 -155 66t-59 147h116
q2 -47 38 -74t99 -27t100 26.5t37 72.5q0 49 -37.5 77t-103.5 28h-83v107h83q53 0 85.5 25.5t32.5 67.5t-33 66.5t-88 24.5q-52 0 -84.5 -23.5t-34.5 -62.5h-115q1 45 18.5 81t48.5 62t74 40t95 14t95.5 -13.5t75 -39t49 -61t17.5 -80.5t-20 -85t-59 -64q52 -27 78.5 -73
t26.5 -98z" />
    <glyph glyph-name="uni0499" unicode="&#x499;" horiz-adv-x="508" 
d="M473 148q0 -63 -46.5 -104t-126.5 -51l-17 -33q45 -2 66 -23.5t21 -53.5q0 -90 -118 -90q-18 0 -42 2.5t-49 7.5v72q17 -5 36 -7.5t36 -2.5q22 0 37.5 5t15.5 20q0 12 -14 17.5t-33 5.5q-11 0 -19.5 -1t-18.5 -3l-13 17l33 65q-88 8 -137 52.5t-52 117.5h106
q2 -34 32.5 -53.5t81.5 -19.5q54 0 83 18t29 51t-28 51.5t-79 18.5h-85v91h84q42 0 65 17t23 47q0 29 -25.5 46t-72.5 17q-95 0 -101 -62h-103q3 73 57.5 115t148.5 42q46 0 83.5 -10.5t64.5 -29.5t41.5 -46.5t14.5 -60.5q0 -36 -17.5 -66.5t-47.5 -48.5q39 -17 62.5 -52
t23.5 -78z" />
    <glyph glyph-name="uni049A" unicode="&#x49a;" horiz-adv-x="658" 
d="M535 113h121v-251h-110v138h-71l-269 352v-352h-118v700h118v-346l258 346h135v-12l-256 -332z" />
    <glyph glyph-name="uni049B" unicode="&#x49b;" horiz-adv-x="586" 
d="M81 0v530h111v-530h-111zM459 105h127v-243h-105v138h-75l-202 252v26l191 252h127v-8l-198 -253z" />
    <glyph glyph-name="uni049C" unicode="&#x49c;" horiz-adv-x="664" 
d="M449 357l200 -345v-12h-128l-171 301h-21v-158h-82v158h-41v-301h-118v700h118v-287h41v152h82v-152h22l159 287h123v-12z" />
    <glyph glyph-name="uni049D" unicode="&#x49d;" horiz-adv-x="592" 
d="M401 269l177 -261v-8h-133l-135 216h-14v-122h-71v122h-33v-216h-111v530h111v-216h33v123h71v-123h12l127 216h126v-8z" />
    <glyph glyph-name="uni04A0" unicode="&#x4a0;" horiz-adv-x="768" 
d="M481 356l272 -344v-12h-140l-269 352v-352h-119v587h-213v113h332v-346l258 346h134v-12z" />
    <glyph glyph-name="uni04A1" unicode="&#x4a1;" horiz-adv-x="664" 
d="M303 530v-530h-111v426h-173v104h284zM435 269l215 -261v-8h-133l-202 252v26l191 252h127v-8z" />
    <glyph glyph-name="uni04A2" unicode="&#x4a2;" 
d="M635 113h88v-251h-109v138h-97v299h-312v-299h-117v700h117v-288h312v288h118v-587z" />
    <glyph glyph-name="uni04A3" unicode="&#x4a3;" horiz-adv-x="655" 
d="M545 105h86v-243h-105v138h-92v218h-242v-218h-111v530h111v-207h242v207h111v-425z" />
    <glyph glyph-name="uni04A4" unicode="&#x4a4;" horiz-adv-x="902" 
d="M507 700h384v-113h-266v-587h-118v299h-302v-299h-117v700h117v-288h302v288z" />
    <glyph glyph-name="uni04A5" unicode="&#x4a5;" horiz-adv-x="794" 
d="M775 530v-104h-233v-426h-111v218h-239v-218h-111v530h111v-207h239v207h344z" />
    <glyph glyph-name="uni04AA" unicode="&#x4aa;" horiz-adv-x="781" 
d="M741 260q-12 -57 -40 -104t-67.5 -82t-90 -56t-108.5 -26l-18 -39q94 -3 94 -74q0 -26 -10.5 -42.5t-28 -26t-41.5 -13.5t-51 -4q-20 0 -43.5 2.5t-46.5 7.5v72q26 -6 45 -8t36 -2q53 0 53 21q0 22 -47 22q-20 0 -39 -4l-12 17l32 71q-67 7 -124 37t-97.5 77t-63.5 109.5
t-23 134.5q0 78 26.5 144t73 114t110.5 75t140 27q63 0 119 -18.5t100.5 -53t75.5 -83t45 -108.5h-121q-23 69 -80.5 108.5t-135.5 39.5q-51 0 -93.5 -18t-73.5 -50.5t-48 -77.5t-17 -99t17 -99t48 -77.5t73.5 -50.5t93.5 -18q78 0 136.5 41.5t82.5 113.5h119z" />
    <glyph glyph-name="uni04AB" unicode="&#x4ab;" horiz-adv-x="620" 
d="M585 198q-18 -85 -77 -139.5t-146 -65.5l-17 -33q45 -2 66 -23.5t21 -53.5q0 -90 -118 -90q-18 0 -42 2.5t-49 7.5v72q17 -5 36 -7.5t36 -2.5q22 0 37.5 5t15.5 20q0 12 -14 17.5t-33 5.5q-11 0 -19.5 -1t-18.5 -3l-13 17l33 66q-53 6 -97.5 28t-76 57.5t-49 83
t-17.5 103.5q0 61 20 112t56.5 87.5t87 56.5t111.5 20q51 0 95 -14.5t78.5 -41.5t58.5 -65t34 -86h-111q-18 49 -58 76t-95 27q-37 0 -67 -12.5t-52 -35t-34 -54t-12 -70.5q0 -38 12 -69t34 -53.5t52 -35t67 -12.5q57 0 96.5 27t56.5 77h112z" />
    <glyph glyph-name="uni04AE" unicode="&#x4ae;" horiz-adv-x="634" 
d="M624 700v-13l-247 -403v-284h-118v280l-248 408v12h131l102 -173l73 -123l176 296h131z" />
    <glyph glyph-name="uni04AF" unicode="&#x4af;" horiz-adv-x="543" 
d="M530 530v-8l-203 -459v-220h-111v222l-203 457v8h118l95 -228l46 -112l45 112l96 228h117z" />
    <glyph glyph-name="uni04B0" unicode="&#x4b0;" horiz-adv-x="634" 
d="M624 700v-13l-230 -375h147v-103h-164v-209h-118v209h-164v103h144l-228 376v12h131l102 -173l73 -123l176 296h131z" />
    <glyph glyph-name="uni04B1" unicode="&#x4b1;" horiz-adv-x="543" 
d="M530 530v-8l-191 -431h132v-78h-144v-170h-111v170h-143v78h132l-192 431v8h118l95 -228l46 -112l45 112l96 228h117z" />
    <glyph glyph-name="uni04B2" unicode="&#x4b2;" horiz-adv-x="695" 
d="M575 113h118v-251h-110v138h-74l-138 211l-40 60l-38 -60l-140 -211h-134v12l236 351l-216 325v12h132l111 -169l50 -75l49 75l112 169h132v-12l-218 -324z" />
    <glyph glyph-name="uni04B3" unicode="&#x4b3;" horiz-adv-x="594" 
d="M464 105h129v-243h-105v138h-80l-70 98l-63 90l-62 -90l-70 -98h-126v8l188 259l-181 255v8h123l129 -185l127 185h122v-8l-180 -254z" />
    <glyph glyph-name="uni04B6" unicode="&#x4b6;" horiz-adv-x="675" 
d="M561 113h88v-251h-110v138h-96v261q-71 -28 -144 -28q-57 0 -103.5 18t-79.5 52t-51 81.5t-18 105.5v210h118v-196q0 -155 147 -155q34 0 63.5 5t67.5 21v325h118v-587z" />
    <glyph glyph-name="uni04B7" unicode="&#x4b7;" horiz-adv-x="596" 
d="M486 105h86v-243h-105v138h-92v183q-58 -20 -118 -20q-99 0 -155.5 52t-56.5 152v163h111v-149q0 -59 29.5 -86t85.5 -27q24 0 49.5 4.5t54.5 16.5v241h111v-425z" />
    <glyph glyph-name="uni04B8" unicode="&#x4b8;" horiz-adv-x="648" 
d="M443 700h118v-700h-118v263q-48 -20 -92 -26v-135h-90v133q-51 6 -90.5 26.5t-67 53.5t-42 77t-14.5 98v210h118v-196q0 -127 97 -151v157h89v-158q40 7 92 30v318z" />
    <glyph glyph-name="uni04B9" unicode="&#x4b9;" horiz-adv-x="571" 
d="M378 530h111v-530h-111v183q-17 -6 -34.5 -10t-34.5 -7v-111h-76v109q-85 8 -134.5 60t-49.5 143v163h112v-147q0 -92 72 -110v121h76v-123q31 4 69 21v238z" />
    <glyph glyph-name="uni04BA" unicode="&#x4ba;" horiz-adv-x="648" 
d="M349 467q57 0 103.5 -18t79.5 -52t51 -81t18 -106v-210h-118v196q0 155 -146 155q-35 0 -64.5 -5t-67.5 -21v-325h-117v700h117v-261q71 28 144 28z" />
    <glyph glyph-name="uni04BB" unicode="&#x4bb;" horiz-adv-x="658" 
d="M366 539q109 0 164 -62.5t55 -177.5v-299h-111v291q0 147 -129 147q-70 0 -111.5 -40t-41.5 -107v-291h-111v700h111v-235q33 35 77.5 54.5t96.5 19.5z" />
    <glyph glyph-name="uni04C0" unicode="&#x4c0;" horiz-adv-x="466" 
d="M292 108h121v-108h-360v108h121v486h-119v106h356v-106h-119v-486z" />
    <glyph glyph-name="uni04C1" unicode="&#x4c1;" horiz-adv-x="932" 
d="M629 871v-93h-326v93h326zM32 700h132l242 -347l-253 -353h-138v12l258 345l-241 331v12zM408 0v700h117v-700h-117zM659 356l258 -344v-12h-137l-254 353l242 347h133v-12z" />
    <glyph glyph-name="uni04C2" unicode="&#x4c2;" horiz-adv-x="813" 
d="M554 702v-92h-294v92h294zM31 530h126l182 -252v-26l-192 -252h-133v8l207 260l-190 254v8zM351 0v530h111v-530h-111zM592 269l207 -261v-8h-133l-192 252v26l182 252h126v-8z" />
    <glyph glyph-name="uni04CB" unicode="&#x4cb;" horiz-adv-x="648" 
d="M443 700h118v-700h-84v-138h-110v247h76v154q-72 -30 -144 -30q-57 0 -103.5 18t-79.5 52t-51 81.5t-18 105.5v210h118v-196q0 -156 145 -156q31 0 63 8.5t70 25.5v318z" />
    <glyph glyph-name="uni04CC" unicode="&#x4cc;" horiz-adv-x="567" 
d="M375 530h111v-530h-76v-138h-105v234h70v90q-58 -20 -118 -20q-97 0 -154.5 52t-57.5 151v161h111v-148q0 -114 115 -114q25 0 50 5.5t54 18.5v238z" />
    <glyph glyph-name="uni04CF" unicode="&#x4cf;" horiz-adv-x="274" 
d="M81 0v700h111v-700h-111z" />
    <glyph glyph-name="uni04D0" unicode="&#x4d0;" horiz-adv-x="661" 
d="M330 758q-78 0 -122 38t-44 105h89q0 -30 21 -47.5t56 -17.5q36 0 57 17.5t21 47.5h89q0 -66 -44.5 -104.5t-122.5 -38.5zM376 700l276 -688v-12h-123l-57 150h-283l-58 -150h-122v12l276 688h91zM330 522l-102 -266h205z" />
    <glyph glyph-name="uni04D1" unicode="&#x4d1;" horiz-adv-x="681" 
d="M340 584q-78 0 -122.5 39t-44.5 105h90q0 -30 21 -47.5t56 -17.5t56 17.5t21 47.5h89q0 -66 -44 -105t-122 -39zM495 530h105v-530h-105l-2 62q-35 -35 -81.5 -53.5t-102.5 -18.5q-59 0 -108 20.5t-84 57.5t-54.5 87t-19.5 110t20 110.5t55 87t84 57t107 20.5
q56 0 102.5 -18.5t81.5 -52.5zM323 94q37 0 67.5 12.5t53 35t35 54t12.5 69.5t-12.5 69.5t-35 54t-53 35t-67.5 12.5q-36 0 -67 -12.5t-53 -35t-34.5 -54t-12.5 -69.5t12.5 -69.5t34.5 -54t53 -35t67 -12.5z" />
    <glyph glyph-name="uni04D2" unicode="&#x4d2;" horiz-adv-x="661" 
d="M219 761q-30 0 -49.5 19.5t-19.5 48.5q0 30 19.5 49.5t49.5 19.5t50 -19.5t20 -49.5q0 -29 -20 -48.5t-50 -19.5zM442 761q-30 0 -49.5 19.5t-19.5 48.5q0 30 19.5 49.5t49.5 19.5t50 -19.5t20 -49.5q0 -29 -20 -48.5t-50 -19.5zM376 700l276 -688v-12h-123l-57 150h-283
l-58 -150h-122v12l276 688h91zM330 522l-102 -266h205z" />
    <glyph glyph-name="uni04D3" unicode="&#x4d3;" horiz-adv-x="681" 
d="M221 589q-29 0 -49.5 19.5t-20.5 49.5t20.5 49t49.5 19q31 0 51 -19t20 -49t-20 -49.5t-51 -19.5zM458 589q-30 0 -50.5 19.5t-20.5 49.5t20.5 49t50.5 19t50 -19t20 -49t-20 -49.5t-50 -19.5zM495 530h105v-530h-105l-2 62q-35 -35 -81.5 -53.5t-102.5 -18.5
q-59 0 -108 20.5t-84 57.5t-54.5 87t-19.5 110t20 110.5t55 87t84 57t107 20.5q56 0 102.5 -18.5t81.5 -52.5zM323 94q37 0 67.5 12.5t53 35t35 54t12.5 69.5t-12.5 69.5t-35 54t-53 35t-67.5 12.5q-36 0 -67 -12.5t-53 -35t-34.5 -54t-12.5 -69.5t12.5 -69.5t34.5 -54
t53 -35t67 -12.5z" />
    <glyph glyph-name="uni04D4" unicode="&#x4d4;" horiz-adv-x="912" 
d="M544 113h319v-113h-437v150h-212l-77 -150h-129v12l373 688h475v-112h-312v-179h292v-111h-292v-185zM268 256h158v307z" />
    <glyph glyph-name="uni04D5" unicode="&#x4d5;" horiz-adv-x="1084" 
d="M607 228q11 -62 53.5 -99t107.5 -37q48 0 85 19t56 51h120q-27 -81 -95.5 -126.5t-159.5 -45.5q-54 0 -99.5 17t-80.5 48l-1 -55h-99l-2 61q-35 -34 -81.5 -52.5t-102.5 -18.5q-58 0 -107 20.5t-84 57.5t-54.5 87t-19.5 110t20 110.5t55 87t83.5 57t106.5 20.5
q56 0 102.5 -18.5t81.5 -52.5l2 61h99l1 -55q35 31 80.5 48t99.5 17q65 0 117 -23t87.5 -64.5t52.5 -99t12 -125.5h-436zM768 438q-61 0 -102.5 -33.5t-55.5 -90.5h319q-14 55 -56.5 89.5t-104.5 34.5zM323 94q37 0 67.5 12.5t52.5 35.5t34.5 54.5t12.5 68.5q0 38 -12.5 69
t-34.5 54t-52.5 35.5t-67.5 12.5t-67.5 -12.5t-53 -35.5t-35 -54t-12.5 -69q0 -37 12.5 -68.5t35 -54.5t53 -35.5t67.5 -12.5z" />
    <glyph glyph-name="uni04D6" unicode="&#x4d6;" horiz-adv-x="573" 
d="M308 758q-78 0 -122 38t-44 105h89q0 -30 21 -47.5t56 -17.5q36 0 57 17.5t21 47.5h89q0 -66 -44.5 -104.5t-122.5 -38.5zM205 113h319v-113h-436v700h429v-112h-312v-179h292v-111h-292v-185z" />
    <glyph glyph-name="uni04D7" unicode="&#x4d7;" horiz-adv-x="634" 
d="M318 584q-78 0 -122.5 39t-44.5 105h90q0 -30 21 -47.5t56 -17.5t56 17.5t21 47.5h89q0 -66 -44 -105t-122 -39zM157 228q11 -62 54 -99t107 -37q48 0 85 19t56 51h120q-28 -80 -97.5 -126t-163.5 -46q-60 0 -110 20.5t-87 57t-57.5 87t-20.5 110.5t20.5 110.5t57.5 87
t87 57t110 20.5q65 0 118 -22.5t89.5 -63.5t55 -98.5t12.5 -127.5h-436zM318 438q-61 0 -102.5 -33.5t-55.5 -90.5h320q-14 55 -56.5 89.5t-105.5 34.5z" />
    <glyph glyph-name="uni04D8" unicode="&#x4d8;" horiz-adv-x="796" 
d="M396 710q76 0 140 -27t110.5 -75t73 -114t26.5 -144t-26.5 -144t-73 -113.5t-110.5 -74.5t-140 -27q-81 0 -148 30t-113 83t-69.5 127t-17.5 162h574q-6 45 -25.5 82.5t-49 64t-68 41t-83.5 14.5q-66 0 -119 -28t-79 -77h-130q18 51 50 92t74.5 69.5t94.5 43.5t109 15z
M396 106q43 0 80 13.5t66 37.5t49 58t28 76h-448q9 -41 28.5 -75t48.5 -58.5t66.5 -38t81.5 -13.5z" />
    <glyph glyph-name="uni04D9" unicode="&#x4d9;" horiz-adv-x="634" 
d="M316 540q60 0 110 -20.5t87 -57t57.5 -87t20.5 -110.5t-20.5 -110.5t-57.5 -87t-87 -57t-110 -20.5q-64 0 -117.5 22.5t-90 63.5t-55 98.5t-12.5 127.5h436q-11 62 -54 99t-107 37q-48 0 -85 -19t-56 -51h-120q28 80 97.5 126t163.5 46zM316 92q61 0 102.5 33.5
t55.5 90.5h-319q14 -54 56 -89t105 -35z" />
    <glyph glyph-name="uni04DC" unicode="&#x4dc;" horiz-adv-x="932" 
d="M354 761q-30 0 -49.5 19.5t-19.5 48.5q0 30 19.5 49.5t49.5 19.5t50 -19.5t20 -49.5q0 -29 -20 -48.5t-50 -19.5zM577 761q-30 0 -49.5 19.5t-19.5 48.5q0 30 19.5 49.5t49.5 19.5t50 -19.5t20 -49.5q0 -29 -20 -48.5t-50 -19.5zM32 700h132l242 -347l-253 -353h-138v12
l258 345l-241 331v12zM408 0v700h117v-700h-117zM659 356l258 -344v-12h-137l-254 353l242 347h133v-12z" />
    <glyph glyph-name="uni04DD" unicode="&#x4dd;" horiz-adv-x="813" 
d="M288 726q31 0 51 -19t20 -49t-20 -49.5t-51 -19.5q-29 0 -49.5 19.5t-20.5 49.5t20.5 49t49.5 19zM595 658q0 -30 -20 -49.5t-50 -19.5t-50.5 19.5t-20.5 49.5t20.5 49t50.5 19t50 -19t20 -49zM31 530h126l182 -252v-26l-192 -252h-133v8l207 260l-190 254v8zM351 0v530
h111v-530h-111zM592 269l207 -261v-8h-133l-192 252v26l182 252h126v-8z" />
    <glyph glyph-name="uni04DE" unicode="&#x4de;" horiz-adv-x="585" 
d="M181 761q-30 0 -49.5 19.5t-19.5 48.5q0 30 19.5 49.5t49.5 19.5t50 -19.5t20 -49.5q0 -29 -20 -48.5t-50 -19.5zM404 761q-30 0 -49.5 19.5t-19.5 48.5q0 30 19.5 49.5t49.5 19.5t50 -19.5t20 -49.5q0 -29 -20 -48.5t-50 -19.5zM442 367q52 -27 78.5 -73t26.5 -98
q0 -49 -20 -87t-54.5 -64.5t-82 -40.5t-101.5 -14q-57 0 -103 15t-79 43t-51.5 68t-19.5 89h116q2 -47 38 -74t99 -27t100 26.5t37 72.5q0 49 -37.5 77t-103.5 28h-83v107h83q53 0 85.5 25.5t32.5 67.5t-33 66.5t-88 24.5q-52 0 -84.5 -23.5t-34.5 -62.5h-115q1 45 18.5 81
t48.5 62t74 40t95 14t95.5 -13.5t75 -39t49 -61t17.5 -80.5t-20 -85t-59 -64z" />
    <glyph glyph-name="uni04DF" unicode="&#x4df;" horiz-adv-x="508" 
d="M130 589q-29 0 -49.5 19.5t-20.5 49.5t20.5 49t49.5 19q31 0 51 -19t20 -49t-20 -49.5t-51 -19.5zM367 589q-30 0 -50.5 19.5t-20.5 49.5t20.5 49t50.5 19t50 -19t20 -49t-20 -49.5t-50 -19.5zM387 278q39 -17 62.5 -52t23.5 -78q0 -36 -16 -65t-45 -50t-69.5 -32
t-90.5 -11q-101 0 -159 45.5t-61 125.5h106q2 -34 32.5 -53.5t81.5 -19.5q54 0 83 18t29 51t-28 51.5t-79 18.5h-85v91h84q42 0 65 17t23 47q0 29 -25.5 46t-72.5 17q-95 0 -101 -62h-103q3 73 57.5 115t148.5 42q46 0 83.5 -10.5t64.5 -29.5t41.5 -46.5t14.5 -60.5
q0 -36 -17.5 -66.5t-47.5 -48.5z" />
    <glyph glyph-name="uni04E2" unicode="&#x4e2;" horiz-adv-x="722" 
d="M522 874v-83h-320v83h320zM545 700h90v-700h-118v469l-338 -469h-91v700h117v-471z" />
    <glyph glyph-name="uni04E3" unicode="&#x4e3;" horiz-adv-x="626" 
d="M466 689v-80h-311v80h311zM457 530h88v-530h-111v220l1 118l-266 -338h-88v530h111v-238l-1 -99z" />
    <glyph glyph-name="uni04E4" unicode="&#x4e4;" horiz-adv-x="722" 
d="M250 761q-30 0 -49.5 19.5t-19.5 48.5q0 30 19.5 49.5t49.5 19.5t50 -19.5t20 -49.5q0 -29 -20 -48.5t-50 -19.5zM473 761q-30 0 -49.5 19.5t-19.5 48.5q0 30 19.5 49.5t49.5 19.5t50 -19.5t20 -49.5q0 -29 -20 -48.5t-50 -19.5zM545 700h90v-700h-118v469l-338 -469h-91
v700h117v-471z" />
    <glyph glyph-name="uni04E5" unicode="&#x4e5;" horiz-adv-x="626" 
d="M192 589q-29 0 -49.5 19.5t-20.5 49.5t20.5 49t49.5 19q31 0 51 -19t20 -49t-20 -49.5t-51 -19.5zM429 589q-30 0 -50.5 19.5t-20.5 49.5t20.5 49t50.5 19t50 -19t20 -49t-20 -49.5t-50 -19.5zM457 530h88v-530h-111v220l1 118l-266 -338h-88v530h111v-238l-1 -99z" />
    <glyph glyph-name="uni04E6" unicode="&#x4e6;" horiz-adv-x="813" 
d="M295 761q-30 0 -49.5 19.5t-19.5 48.5q0 30 19.5 49.5t49.5 19.5t50 -19.5t20 -49.5q0 -29 -20 -48.5t-50 -19.5zM518 761q-30 0 -49.5 19.5t-19.5 48.5q0 30 19.5 49.5t49.5 19.5t50 -19.5t20 -49.5q0 -29 -20 -48.5t-50 -19.5zM407 -10q-78 0 -143.5 27t-113 75
t-74 114t-26.5 144t26.5 144t74 114t113 75t143.5 27q77 0 142.5 -27t113 -75t74 -114t26.5 -144t-26.5 -144t-74 -114t-113 -75t-142.5 -27zM407 105q52 0 95 18t74 50.5t48.5 77.5t17.5 99t-17.5 99t-48.5 77.5t-74 50.5t-95 18t-95 -18t-74.5 -50.5t-49 -77.5t-17.5 -99
t17.5 -99t49 -77.5t74.5 -50.5t95 -18z" />
    <glyph glyph-name="uni04E7" unicode="&#x4e7;" horiz-adv-x="646" 
d="M204 589q-29 0 -49.5 19.5t-20.5 49.5t20.5 49t49.5 19q31 0 51 -19t20 -49t-20 -49.5t-51 -19.5zM441 589q-30 0 -50.5 19.5t-20.5 49.5t20.5 49t50.5 19t50 -19t20 -49t-20 -49.5t-50 -19.5zM323 -10q-61 0 -112.5 20.5t-89 57t-58 87t-20.5 110.5t20.5 110.5t58 87
t89 57t112.5 20.5t112.5 -20.5t88.5 -57t58 -87t21 -110.5t-21 -110.5t-58 -87t-88.5 -57t-112.5 -20.5zM323 94q36 0 67 12.5t53 35.5t34.5 54.5t12.5 68.5q0 38 -12.5 69t-34.5 54t-53 35.5t-67 12.5t-67 -12.5t-53 -35.5t-34.5 -54t-12.5 -69q0 -37 12.5 -68.5
t34.5 -54.5t53 -35.5t67 -12.5z" />
    <glyph glyph-name="uni04E8" unicode="&#x4e8;" horiz-adv-x="813" 
d="M407 710q77 0 142.5 -27t113 -75t74 -114t26.5 -144t-26.5 -144t-74 -114t-113 -75t-142.5 -27q-78 0 -143.5 27t-113 75t-74 114t-26.5 144t26.5 144t74 114t113 75t143.5 27zM407 596q-46 0 -85.5 -14.5t-70 -40.5t-50.5 -62.5t-27 -80.5h465q-7 44 -27 80.5
t-50.5 62.5t-69.5 40.5t-85 14.5zM407 104q46 0 85 14.5t69.5 40.5t50.5 62.5t27 80.5h-465q7 -44 27 -80.5t50.5 -62.5t70 -40.5t85.5 -14.5z" />
    <glyph glyph-name="uni04E9" unicode="&#x4e9;" horiz-adv-x="652" 
d="M326 540q61 0 112.5 -20.5t88.5 -57t58 -87t21 -110.5t-21 -110.5t-58 -87t-88.5 -57t-112.5 -20.5t-112.5 20.5t-89 57t-58 87t-20.5 110.5t20.5 110.5t58 87t89 57t112.5 20.5zM326 436q-62 0 -105.5 -35t-56.5 -93h324q-13 58 -56.5 93t-105.5 35zM326 94
q62 0 105.5 35t56.5 93h-324q13 -58 56.5 -93t105.5 -35z" />
    <glyph glyph-name="uni04EE" unicode="&#x4ee;" horiz-adv-x="600" 
d="M461 874v-83h-320v83h320zM463 700h123v-12l-309 -688h-124v13l86 186l-225 489v12h125l96 -217l67 -154l65 152z" />
    <glyph glyph-name="uni04EF" unicode="&#x4ef;" horiz-adv-x="556" 
d="M434 689v-80h-311v80h311zM422 530h121v-8l-300 -679h-120v7l93 207l-203 465v8h121l80 -193l62 -153l63 152z" />
    <glyph glyph-name="uni04F0" unicode="&#x4f0;" horiz-adv-x="600" 
d="M189 761q-30 0 -49.5 19.5t-19.5 48.5q0 30 19.5 49.5t49.5 19.5t50 -19.5t20 -49.5q0 -29 -20 -48.5t-50 -19.5zM412 761q-30 0 -49.5 19.5t-19.5 48.5q0 30 19.5 49.5t49.5 19.5t50 -19.5t20 -49.5q0 -29 -20 -48.5t-50 -19.5zM463 700h123v-12l-309 -688h-124v13
l86 186l-225 489v12h125l96 -217l67 -154l65 152z" />
    <glyph glyph-name="uni04F1" unicode="&#x4f1;" horiz-adv-x="556" 
d="M160 589q-29 0 -49.5 19.5t-20.5 49.5t20.5 49t49.5 19q31 0 51 -19t20 -49t-20 -49.5t-51 -19.5zM397 589q-30 0 -50.5 19.5t-20.5 49.5t20.5 49t50.5 19t50 -19t20 -49t-20 -49.5t-50 -19.5zM422 530h121v-8l-300 -679h-120v7l93 207l-203 465v8h121l80 -193l62 -153
l63 152z" />
    <glyph glyph-name="uni04F2" unicode="&#x4f2;" horiz-adv-x="600" 
d="M360 892l-99 -130h-104v7l77 131h126v-8zM330 762v7l98 131h125v-8l-120 -130h-103zM463 700h123v-12l-309 -688h-124v13l86 186l-225 489v12h125l96 -217l67 -154l65 152z" />
    <glyph glyph-name="uni04F3" unicode="&#x4f3;" horiz-adv-x="556" 
d="M332 715l-99 -132h-104v7l78 133h125v-8zM302 583v7l99 133h125v-8l-121 -132h-103zM422 530h121v-8l-300 -679h-120v7l93 207l-203 465v8h121l80 -193l62 -153l63 152z" />
    <glyph glyph-name="uni04F4" unicode="&#x4f4;" horiz-adv-x="648" 
d="M193 761q-30 0 -49.5 19.5t-19.5 48.5q0 30 19.5 49.5t49.5 19.5t50 -19.5t20 -49.5q0 -29 -20 -48.5t-50 -19.5zM416 761q-30 0 -49.5 19.5t-19.5 48.5q0 30 19.5 49.5t49.5 19.5t50 -19.5t20 -49.5q0 -29 -20 -48.5t-50 -19.5zM443 700h118v-700h-118v261
q-71 -28 -144 -28q-57 0 -103.5 18t-79.5 52t-51 81.5t-18 105.5v210h118v-196q0 -155 147 -155q34 0 63.5 5t67.5 21v325z" />
    <glyph glyph-name="uni04F5" unicode="&#x4f5;" horiz-adv-x="567" 
d="M149 589q-29 0 -49.5 19.5t-20.5 49.5t20.5 49t49.5 19q31 0 51 -19t20 -49t-20 -49.5t-51 -19.5zM386 589q-30 0 -50.5 19.5t-20.5 49.5t20.5 49t50.5 19t50 -19t20 -49t-20 -49.5t-50 -19.5zM375 530h111v-530h-111v183q-58 -20 -118 -20q-99 0 -155.5 52t-56.5 152
v163h111v-149q0 -59 29.5 -86t85.5 -27q24 0 49.5 4.5t54.5 16.5v241z" />
    <glyph glyph-name="uni04F8" unicode="&#x4f8;" horiz-adv-x="883" 
d="M330 761q-30 0 -49.5 19.5t-19.5 48.5q0 30 19.5 49.5t49.5 19.5t50 -19.5t20 -49.5q0 -29 -20 -48.5t-50 -19.5zM553 898q30 0 50 -19.5t20 -49.5q0 -29 -20 -48.5t-50 -19.5t-49.5 19.5t-19.5 48.5q0 30 19.5 49.5t49.5 19.5zM352 468q51 0 93.5 -17t72.5 -48t46.5 -74
t16.5 -95t-16.5 -95t-46.5 -74t-72.5 -48t-93.5 -17h-264v700h117v-232h147zM678 700h118v-700h-118v700zM337 114q57 0 90.5 32t33.5 89q0 56 -34 88t-90 32h-132v-241h132z" />
    <glyph glyph-name="uni04F9" unicode="&#x4f9;" horiz-adv-x="796" 
d="M281 589q-29 0 -49.5 19.5t-20.5 49.5t20.5 49t49.5 19q31 0 51 -19t20 -49t-20 -49.5t-51 -19.5zM518 726q30 0 50 -19t20 -49t-20 -49.5t-50 -19.5t-50.5 19.5t-20.5 49.5t20.5 49t50.5 19zM300 376q44 0 80 -13.5t62 -38t40 -58.5t14 -75q0 -42 -14 -77t-40 -60.5
t-62 -39.5t-80 -14h-219v530h111v-154h108zM604 530h111v-530h-111v530zM295 102q41 0 65 24.5t24 64.5q0 38 -24 61t-65 23h-103v-173h103z" />
    <glyph glyph-name="Wgrave" unicode="&#x1e80;" horiz-adv-x="987" 
d="M553 762h-102l-112 130v8h126l88 -131v-7zM854 700h117v-12l-224 -688h-86l-100 239l-67 159l-68 -159l-99 -239h-86l-226 688v12h121l55 -177l102 -320l162 373h78l162 -374l101 319z" />
    <glyph glyph-name="wgrave" unicode="&#x1e81;" horiz-adv-x="857" 
d="M498 583h-107l-100 132v8h131l76 -133v-7zM728 530h115v-7l-186 -523h-93l-77 187l-59 151l-59 -151l-78 -187h-91l-185 523v7h115l51 -155l70 -212l137 334h82l136 -334l71 212z" />
    <glyph glyph-name="Wacute" unicode="&#x1e82;" horiz-adv-x="987" 
d="M649 892l-111 -130h-105v7l89 131h127v-8zM854 700h117v-12l-224 -688h-86l-100 239l-67 159l-68 -159l-99 -239h-86l-226 688v12h121l55 -177l102 -320l162 373h78l162 -374l101 319z" />
    <glyph glyph-name="wacute" unicode="&#x1e83;" horiz-adv-x="857" 
d="M567 715l-100 -132h-106v7l75 133h131v-8zM728 530h115v-7l-186 -523h-93l-77 187l-59 151l-59 -151l-78 -187h-91l-185 523v7h115l51 -155l70 -212l137 334h82l136 -334l71 212z" />
    <glyph glyph-name="Wdieresis" unicode="&#x1e84;" horiz-adv-x="987" 
d="M383 761q-30 0 -49.5 19.5t-19.5 48.5q0 30 19.5 49.5t49.5 19.5t50 -19.5t20 -49.5q0 -29 -20 -48.5t-50 -19.5zM606 761q-30 0 -49.5 19.5t-19.5 48.5q0 30 19.5 49.5t49.5 19.5t50 -19.5t20 -49.5q0 -29 -20 -48.5t-50 -19.5zM854 700h117v-12l-224 -688h-86l-100 239
l-67 159l-68 -159l-99 -239h-86l-226 688v12h121l55 -177l102 -320l162 373h78l162 -374l101 319z" />
    <glyph glyph-name="wdieresis" unicode="&#x1e85;" horiz-adv-x="857" 
d="M310 589q-29 0 -49.5 19.5t-20.5 49.5t20.5 49t49.5 19q31 0 51 -19t20 -49t-20 -49.5t-51 -19.5zM547 589q-30 0 -50.5 19.5t-20.5 49.5t20.5 49t50.5 19t50 -19t20 -49t-20 -49.5t-50 -19.5zM728 530h115v-7l-186 -523h-93l-77 187l-59 151l-59 -151l-78 -187h-91
l-185 523v7h115l51 -155l70 -212l137 334h82l136 -334l71 212z" />
    <glyph glyph-name="Germandbls" unicode="&#x1e9e;" horiz-adv-x="660" 
d="M458 447q83 -13 129 -69t46 -144q0 -118 -64.5 -180t-183.5 -62q-47 0 -88 7v115q38 -7 72 -7q72 0 107.5 30t35.5 97q0 63 -36.5 90.5t-102.5 27.5h-44l-21 40l118 195h-127q-55 0 -79.5 -25.5t-24.5 -78.5v-483h-118v486q0 103 55.5 158.5t159.5 55.5h291v-47z" />
    <glyph glyph-name="uni1EBC" unicode="&#x1ebc;" horiz-adv-x="573" 
d="M244 827q-37 0 -37 -61h-76q0 70 26.5 102.5t74.5 32.5q34 0 55 -13.5t38 -28.5q11 -10 22.5 -18t24.5 -8q36 0 36 63h76q0 -135 -99 -135q-33 0 -54.5 13t-37.5 27q-13 11 -24.5 18.5t-24.5 7.5zM205 113h319v-113h-436v700h429v-112h-312v-179h292v-111h-292v-185z" />
    <glyph glyph-name="uni1EBD" unicode="&#x1ebd;" horiz-adv-x="634" 
d="M251 644q-17 0 -26.5 -15.5t-9.5 -45.5h-80q0 71 28.5 104.5t77.5 33.5q35 0 57.5 -13.5t39.5 -28.5q11 -10 23.5 -17t23.5 -7q37 0 37 61h79q0 -68 -26.5 -103t-77.5 -35q-34 0 -56.5 13t-39.5 27q-14 11 -25 18.5t-25 7.5zM157 228q11 -62 54 -99t107 -37q48 0 85 19
t56 51h120q-28 -80 -97.5 -126t-163.5 -46q-60 0 -110 20.5t-87 57t-57.5 87t-20.5 110.5t20.5 110.5t57.5 87t87 57t110 20.5q65 0 118 -22.5t89.5 -63.5t55 -98.5t12.5 -127.5h-436zM318 438q-61 0 -102.5 -33.5t-55.5 -90.5h320q-14 55 -56.5 89.5t-105.5 34.5z" />
    <glyph glyph-name="Ygrave" unicode="&#x1ef2;" horiz-adv-x="634" 
d="M376 762h-102l-112 130v8h126l88 -131v-7zM624 700v-13l-247 -403v-284h-118v280l-248 408v12h131l102 -173l73 -123l176 296h131z" />
    <glyph glyph-name="ygrave" unicode="&#x1ef3;" horiz-adv-x="556" 
d="M347 583h-107l-100 132v8h131l76 -133v-7zM422 530h121v-8l-300 -679h-120v7l93 207l-203 465v8h121l80 -193l62 -153l63 152z" />
    <glyph glyph-name="uni1EF8" unicode="&#x1ef8;" horiz-adv-x="634" 
d="M254 827q-37 0 -37 -61h-76q0 70 26.5 102.5t74.5 32.5q34 0 55 -13.5t38 -28.5q11 -10 22.5 -18t24.5 -8q36 0 36 63h76q0 -135 -99 -135q-33 0 -54.5 13t-37.5 27q-13 11 -24.5 18.5t-24.5 7.5zM624 700v-13l-247 -403v-284h-118v280l-248 408v12h131l102 -173l73 -123
l176 296h131z" />
    <glyph glyph-name="uni1EF9" unicode="&#x1ef9;" horiz-adv-x="556" 
d="M211 644q-17 0 -26.5 -15.5t-9.5 -45.5h-80q0 71 28.5 104.5t77.5 33.5q35 0 57.5 -13.5t39.5 -28.5q11 -10 23.5 -17t23.5 -7q37 0 37 61h79q0 -68 -26.5 -103t-77.5 -35q-34 0 -56.5 13t-39.5 27q-14 11 -25 18.5t-25 7.5zM422 530h121v-8l-300 -679h-120v7l93 207
l-203 465v8h121l80 -193l62 -153l63 152z" />
    <glyph glyph-name="uni2009" unicode="&#x2009;" horiz-adv-x="14" 
 />
    <glyph glyph-name="uni200B" unicode="&#x200b;" horiz-adv-x="0" 
 />
    <glyph glyph-name="endash" unicode="&#x2013;" horiz-adv-x="564" 
d="M48 243v103h469v-103h-469z" />
    <glyph glyph-name="emdash" unicode="&#x2014;" horiz-adv-x="798" 
d="M48 243v103h702v-103h-702z" />
    <glyph glyph-name="uni2015" unicode="&#x2015;" horiz-adv-x="718" 
d="M43 243v103h632v-103h-632z" />
    <glyph glyph-name="quoteleft" unicode="&#x2018;" horiz-adv-x="305" 
d="M238 700v-8l-47 -220h-116v26l63 202h100z" />
    <glyph glyph-name="quoteright" unicode="&#x2019;" horiz-adv-x="305" 
d="M67 472v8l47 220h117v-26l-64 -202h-100z" />
    <glyph glyph-name="quotesinglbase" unicode="&#x201a;" horiz-adv-x="305" 
d="M67 -110v8l47 219h117v-26l-64 -201h-100z" />
    <glyph glyph-name="quotedblleft" unicode="&#x201c;" horiz-adv-x="469" 
d="M238 700v-8l-47 -220h-116v26l63 202h100zM402 700v-8l-47 -220h-116v26l63 202h100z" />
    <glyph glyph-name="quotedblright" unicode="&#x201d;" horiz-adv-x="469" 
d="M67 472v8l47 220h117v-26l-64 -202h-100zM231 472v8l47 220h117v-26l-64 -202h-100z" />
    <glyph glyph-name="quotedblbase" unicode="&#x201e;" horiz-adv-x="469" 
d="M67 -110v8l47 219h117v-26l-64 -201h-100zM231 -110v8l47 219h117v-26l-64 -201h-100z" />
    <glyph glyph-name="dagger" unicode="&#x2020;" horiz-adv-x="483" 
d="M465 491v-101h-165v-443h-117v443h-164v101h164v209h117v-209h165z" />
    <glyph glyph-name="daggerdbl" unicode="&#x2021;" horiz-adv-x="499" 
d="M473 392h-165v-134h165v-101h-165v-210h-117v210h-164v101h164v134h-164v101h164v207h117v-207h165v-101z" />
    <glyph glyph-name="bullet" unicode="&#x2022;" horiz-adv-x="296" 
d="M148 245q-36 0 -59.5 23.5t-23.5 58.5q0 36 23.5 59t59.5 23t59.5 -23t23.5 -59q0 -35 -23.5 -58.5t-59.5 -23.5z" />
    <glyph glyph-name="ellipsis" unicode="&#x2026;" horiz-adv-x="730" 
d="M134 -8q-30 0 -49.5 19.5t-19.5 48.5q0 30 19.5 49t49.5 19t49.5 -19t19.5 -49q0 -29 -19.5 -48.5t-49.5 -19.5zM361 -8q-30 0 -49.5 19.5t-19.5 48.5q0 30 19.5 49t49.5 19t49.5 -19t19.5 -49q0 -29 -19.5 -48.5t-49.5 -19.5zM596 -8q-30 0 -49.5 19.5t-19.5 48.5
q0 30 19.5 49t49.5 19t49.5 -19t19.5 -49q0 -29 -19.5 -48.5t-49.5 -19.5z" />
    <glyph glyph-name="perthousand" unicode="&#x2030;" horiz-adv-x="1305" 
d="M216 377q-36 0 -67 12.5t-53.5 35t-35.5 53t-13 66.5t13 66t35.5 52.5t53.5 35t67 12.5t67 -12.5t53.5 -35t35 -52.5t12.5 -66t-12.5 -66.5t-35 -53t-53.5 -35t-67 -12.5zM210 0l388 700h92l-389 -700h-91zM216 462q35 0 58 23.5t23 58.5q0 36 -23 59t-58 23t-58 -23
t-23 -59t23 -59t58 -23zM683 -10q-36 0 -67 12.5t-53.5 35t-35.5 53t-13 66.5t13 66t35.5 52.5t53.5 35t67 12.5t67 -12.5t53.5 -35t35.5 -52.5t13 -66t-13 -66.5t-35.5 -53t-53.5 -35t-67 -12.5zM1085 -10q-36 0 -67 12.5t-53.5 35t-35.5 53t-13 66.5t13 66t35.5 52.5
t53.5 35t67 12.5t67 -12.5t53.5 -35t35.5 -52.5t13 -66t-13 -66.5t-35.5 -53t-53.5 -35t-67 -12.5zM683 75q36 0 58.5 23.5t22.5 58.5q0 36 -22.5 59t-58.5 23q-35 0 -58 -23t-23 -59t23 -59t58 -23zM1085 75q36 0 58.5 23.5t22.5 58.5q0 36 -22.5 59t-58.5 23
q-35 0 -58 -23t-23 -59t23 -59t58 -23z" />
    <glyph glyph-name="minute" unicode="&#x2032;" horiz-adv-x="297" 
d="M67 472v8l47 220h117v-26l-64 -202h-100z" />
    <glyph glyph-name="second" unicode="&#x2033;" horiz-adv-x="469" 
d="M67 472v8l47 220h117v-26l-64 -202h-100zM231 472v8l47 220h117v-26l-64 -202h-100z" />
    <glyph glyph-name="guilsinglleft" unicode="&#x2039;" horiz-adv-x="312" 
d="M285 506v-10l-152 -199l152 -200v-10h-124l-148 200v18l148 201h124z" />
    <glyph glyph-name="guilsinglright" unicode="&#x203a;" horiz-adv-x="312" 
d="M151 506l148 -201v-18l-148 -200h-124v10l152 200l-152 199v10h124z" />
    <glyph glyph-name="uni203D" unicode="&#x203d;" horiz-adv-x="526" 
d="M266 710q54 0 98 -15t74.5 -42.5t47.5 -66.5t17 -88q0 -30 -6 -55t-19 -46.5t-34.5 -41.5t-53.5 -41q-22 -14 -36.5 -25.5t-23.5 -23t-13 -23.5t-4 -27v-28h-101l-2 200v143h104v-156q46 32 60.5 59t14.5 61q0 51 -32.5 79.5t-90.5 28.5q-60 0 -94 -35t-34 -98h-110
q0 55 17 99.5t48 76t75 48.5t98 17zM264 128q30 0 49.5 -19t19.5 -49q0 -29 -19.5 -48.5t-49.5 -19.5t-49.5 19.5t-19.5 48.5q0 30 19.5 49t49.5 19z" />
    <glyph glyph-name="fraction" unicode="&#x2044;" horiz-adv-x="263" 
d="M-80 0l331 700h92l-332 -700h-91z" />
    <glyph glyph-name="uni2070" unicode="&#x2070;" horiz-adv-x="370" 
d="M184 393q-72 0 -113 51t-41 141t41 141t113 51q73 0 114.5 -51t41.5 -141t-41.5 -141t-114.5 -51zM184 471q35 0 52.5 29t17.5 85t-17.5 85t-52.5 29q-34 0 -51 -29t-17 -85t17 -85t51 -29z" />
    <glyph glyph-name="uni2074" unicode="&#x2074;" horiz-adv-x="319" 
d="M303 548v-74h-43v-74h-80v74h-175v65l179 231h76v-222h43zM185 664l-92 -118h90v37z" />
    <glyph glyph-name="uni2075" unicode="&#x2075;" horiz-adv-x="328" 
d="M181 649q27 0 50 -9.5t39.5 -26.5t25.5 -40t9 -51q0 -57 -38 -93t-99 -36q-60 0 -97 31.5t-39 83.5h80q2 -18 17.5 -30t38.5 -12q25 0 40.5 16t15.5 41t-15.5 41.5t-40.5 16.5q-27 0 -50 -21h-80l20 210h224v-73h-156l-7 -63q32 15 62 15z" />
    <glyph glyph-name="uni2076" unicode="&#x2076;" horiz-adv-x="329" 
d="M186 645q54 0 88.5 -34t34.5 -88q0 -28 -10.5 -52t-29.5 -41.5t-45 -27t-57 -9.5q-65 0 -104 35.5t-39 94.5q0 29 11.5 56.5t40.5 69.5l81 121h93v-6l-83 -120q5 1 9.5 1h9.5zM166 466q26 0 43 16t17 42q0 25 -17 41t-43 16q-27 0 -43.5 -16t-16.5 -41q0 -26 16.5 -42
t43.5 -16z" />
    <glyph glyph-name="uni2077" unicode="&#x2077;" horiz-adv-x="293" 
d="M13 770h272v-52l-162 -318h-88v7l149 288h-171v75z" />
    <glyph glyph-name="uni2078" unicode="&#x2078;" horiz-adv-x="335" 
d="M253 594q27 -14 42 -38.5t15 -53.5q0 -24 -10.5 -44t-29.5 -34.5t-45 -22.5t-57 -8q-63 0 -103 30.5t-40 78.5q0 61 58 92q-42 30 -42 80q0 45 35 74t92 29q56 0 91 -29t35 -74q0 -48 -41 -80zM168 709q-22 0 -36 -11.5t-14 -31.5t13.5 -31.5t36.5 -11.5q22 0 35.5 11.5
t13.5 31.5t-14 31.5t-35 11.5zM168 464q26 0 42.5 13t16.5 34t-16.5 34t-42.5 13q-27 0 -43 -13t-16 -34t16 -34t43 -13z" />
    <glyph glyph-name="uni2079" unicode="&#x2079;" horiz-adv-x="329" 
d="M163 777q32 0 58 -9.5t44.5 -26.5t29 -41.5t10.5 -53.5t-13 -56.5t-38 -65.5l-81 -124h-98l85 126q-5 -1 -9 -1h-9q-54 0 -88 33.5t-34 87.5q0 29 10.5 53.5t29.5 41.5t45.5 26.5t57.5 9.5zM162 589q27 0 44 16t17 41q0 26 -17 41.5t-44 15.5q-26 0 -42.5 -15.5
t-16.5 -41.5q0 -25 16 -41t43 -16z" />
    <glyph glyph-name="uni2080" unicode="&#x2080;" horiz-adv-x="370" 
d="M184 -77q-72 0 -113 51t-41 141t41 141t113 51q73 0 114.5 -51t41.5 -141t-41.5 -141t-114.5 -51zM184 1q35 0 52.5 29t17.5 85t-17.5 85t-52.5 29q-34 0 -51 -29t-17 -85t17 -85t51 -29z" />
    <glyph glyph-name="uni2081" unicode="&#x2081;" horiz-adv-x="237" 
d="M130 300h61v-370h-84v176l1 83l-63 -41l-40 61z" />
    <glyph glyph-name="uni2082" unicode="&#x2082;" horiz-adv-x="313" 
d="M194 5h95v-75h-269v54l134 125q28 26 39 42t11 33q0 20 -13 33t-35 13q-25 0 -37.5 -15t-12.5 -40h-81q0 60 35.5 96t95.5 36q59 0 94.5 -33.5t35.5 -87.5q0 -37 -17.5 -65.5t-55.5 -63.5l-59 -53z" />
    <glyph glyph-name="uni2083" unicode="&#x2083;" horiz-adv-x="313" 
d="M234 125q25 -13 41 -37t16 -56q0 -48 -38 -78.5t-99 -30.5t-97 32t-38 85h82q2 -22 15.5 -32.5t36.5 -10.5q25 0 40 12t15 32t-15 32.5t-41 12.5h-37v68h37q21 0 34 12t13 29q0 19 -13.5 30.5t-33.5 11.5q-21 0 -34 -11t-13 -28h-79q2 51 36 80t91 29q55 0 90.5 -28
t35.5 -73q0 -26 -12 -46.5t-33 -34.5z" />
    <glyph glyph-name="uni2084" unicode="&#x2084;" horiz-adv-x="319" 
d="M303 78v-74h-43v-74h-80v74h-175v65l179 231h76v-222h43zM185 194l-92 -118h90v37z" />
    <glyph glyph-name="uni2085" unicode="&#x2085;" horiz-adv-x="328" 
d="M181 179q27 0 50 -9.5t39.5 -26.5t25.5 -40t9 -51q0 -57 -38 -93t-99 -36q-60 0 -97 31.5t-39 83.5h80q2 -18 17.5 -30t38.5 -12q25 0 40.5 16t15.5 41t-15.5 41.5t-40.5 16.5q-27 0 -50 -21h-80l20 210h224v-73h-156l-7 -63q32 15 62 15z" />
    <glyph glyph-name="uni2086" unicode="&#x2086;" horiz-adv-x="329" 
d="M186 175q54 0 88.5 -34t34.5 -88q0 -28 -10.5 -52t-29.5 -41.5t-45 -27t-57 -9.5q-65 0 -104 35.5t-39 94.5q0 29 11.5 56.5t40.5 69.5l81 121h93v-6l-83 -120q5 1 9.5 1h9.5zM166 -4q26 0 43 16t17 42q0 25 -17 41t-43 16q-27 0 -43.5 -16t-16.5 -41q0 -26 16.5 -42
t43.5 -16z" />
    <glyph glyph-name="uni2087" unicode="&#x2087;" horiz-adv-x="293" 
d="M13 300h272v-52l-162 -318h-88v7l149 288h-171v75z" />
    <glyph glyph-name="uni2088" unicode="&#x2088;" horiz-adv-x="335" 
d="M253 124q27 -14 42 -38.5t15 -53.5q0 -24 -10.5 -44t-29.5 -34.5t-45 -22.5t-57 -8q-63 0 -103 30.5t-40 78.5q0 61 58 92q-42 30 -42 80q0 45 35 74t92 29q56 0 91 -29t35 -74q0 -48 -41 -80zM168 239q-22 0 -36 -11.5t-14 -31.5t13.5 -31.5t36.5 -11.5q22 0 35.5 11.5
t13.5 31.5t-14 31.5t-35 11.5zM168 -6q26 0 42.5 13t16.5 34t-16.5 34t-42.5 13q-27 0 -43 -13t-16 -34t16 -34t43 -13z" />
    <glyph glyph-name="uni2089" unicode="&#x2089;" horiz-adv-x="329" 
d="M163 307q32 0 58 -9.5t44.5 -26.5t29 -41.5t10.5 -53.5t-13 -56.5t-38 -65.5l-81 -124h-98l85 126q-5 -1 -9 -1h-9q-54 0 -88 33.5t-34 87.5q0 29 10.5 53.5t29.5 41.5t45.5 26.5t57.5 9.5zM162 119q27 0 44 16t17 41q0 26 -17 41.5t-44 15.5q-26 0 -42.5 -15.5
t-16.5 -41.5q0 -25 16 -41t43 -16z" />
    <glyph glyph-name="uni20A9" unicode="&#x20a9;" horiz-adv-x="1043" 
d="M1028 391h-129l-28 -85h157v-97h-188l-67 -209h-86l-100 239l-65 159l-165 -398h-86l-67 209h-189v97h157l-27 85h-130v97h99l-65 200v12h121l54 -177l101 -320l159 373h77l160 -375l99 320l57 179h117v-12l-64 -200h98v-97z" />
    <glyph glyph-name="uni20AA" unicode="&#x20aa;" horiz-adv-x="849" 
d="M88 0v651h352q72 0 105 -33t33 -105v-332h-100v306q0 39 -14 53t-53 14h-224v-554h-99zM282 0v470h100v-373h224q38 0 52 14t14 53v487h100v-513q0 -72 -33 -105t-105 -33h-352z" />
    <glyph glyph-name="Euro" unicode="&#x20ac;" horiz-adv-x="833" 
d="M793 259q-13 -61 -44.5 -110.5t-76 -85t-100.5 -54.5t-120 -19q-60 0 -112.5 17t-95.5 48t-74.5 75t-48.5 97h-125l19 89h88q-1 8 -1 16.5v17.5v17.5t1 16.5h-105l20 89h103q17 53 48.5 97t74.5 75t95.5 48t112.5 17q63 0 119 -18.5t100.5 -53t75.5 -82.5t45 -108h-119
q-24 69 -82 109t-136 40q-71 0 -124.5 -33.5t-82.5 -90.5h274l-20 -89h-279q-1 -8 -1.5 -16.5t-0.5 -17.5t0.5 -17.5t1.5 -16.5h263l-20 -89h-218q29 -57 82.5 -90.5t124.5 -33.5q79 0 138 42t83 114h117z" />
    <glyph glyph-name="uni20AE" unicode="&#x20ae;" horiz-adv-x="578" 
d="M546 589h-198v-115l141 42v-93l-141 -42v-78l141 42v-93l-141 -42v-210h-118v175l-141 -42v93l141 42v79l-141 -42v93l141 42v149h-198v111h514v-111z" />
    <glyph glyph-name="uni20B4" unicode="&#x20b4;" horiz-adv-x="693" 
d="M665 462v-81h-637v81h432q17 19 17 47q0 43 -34.5 65.5t-88.5 22.5q-25 0 -48 -5t-41.5 -16t-31 -27.5t-17.5 -39.5h-117q6 50 28.5 88t57 63t77.5 37.5t91 12.5t91.5 -13t77 -38t53.5 -62t20 -84q0 -29 -7 -51h77zM28 256v81h637v-81h-441q-8 -11 -13 -24.5t-5 -30.5
q0 -50 39 -73.5t99 -23.5q59 0 98.5 27t44.5 80h118q-3 -52 -23.5 -93.5t-55 -69.5t-80.5 -43t-102 -15t-103 14.5t-81.5 41.5t-54 65.5t-19.5 86.5q0 32 10 58h-68z" />
    <glyph glyph-name="uni20B8" unicode="&#x20b8;" horiz-adv-x="513" 
d="M19 700h475v-101h-475v101zM19 428v102h475v-102h-182v-428h-111v428h-182z" />
    <glyph glyph-name="uni20B9" unicode="&#x20b9;" horiz-adv-x="497" 
d="M469 600h-131q15 -18 24 -40t14 -45h93v-100h-94q-10 -58 -47 -106t-103 -65l215 -232v-12h-137l-254 278v53h87q48 0 77 24t41 60h-205v100h205q-12 36 -41 60.5t-77 24.5h-87v100h420v-100z" />
    <glyph glyph-name="uni20BA" unicode="&#x20ba;" horiz-adv-x="570" 
d="M439 276h118v-44q0 -56 -18.5 -99.5t-50 -73t-74.5 -44.5t-92 -15h-219v266l-86 -33v100l86 32v75l-86 -33v100l86 32v161h118v-116l203 76v-99l-203 -77v-74l203 76v-99l-203 -77v-197h90q57 0 92.5 30t35.5 93v40z" />
    <glyph glyph-name="uni20BC" unicode="&#x20bc;" horiz-adv-x="763" 
d="M436 583q125 -2 189.5 -85.5t64.5 -242.5v-255h-111v242q0 115 -35.5 172t-108.5 64v-366h-107v366q-75 -7 -109.5 -66.5t-34.5 -169.5v-242h-111v255q0 155 65 239t188 89v117h110v-117z" />
    <glyph glyph-name="uni20BD" unicode="&#x20bd;" horiz-adv-x="595" 
d="M236 263v-58h174v-91h-174v-114h-118v114h-93v91h93v60h-91v97h91v338h225q52 0 95 -15.5t73.5 -44.5t47 -69t16.5 -90q0 -49 -16.5 -89.5t-47 -69t-73.5 -44t-95 -15.5h-107zM236 587v-224h92q60 0 93.5 29.5t33.5 82.5q0 52 -33.5 82t-93.5 30h-92z" />
    <glyph glyph-name="uni20BF" unicode="&#x20bf;" horiz-adv-x="624" 
d="M586 202q0 -81 -44.5 -133t-119.5 -65v-94h-90v90h-55v-90h-90v90h-99v700h99v86h90v-86h55v86h90v-93q62 -16 97.5 -62t35.5 -114q0 -45 -16.5 -81.5t-47.5 -62.5q45 -24 70 -69t25 -102zM202 590v-173h149q42 0 64 22.5t22 63.5t-22 64t-64 23h-149zM368 112
q46 0 72.5 26.5t26.5 72.5t-26.5 72.5t-72.5 26.5h-166v-198h166z" />
    <glyph glyph-name="uni2113" unicode="&#x2113;" horiz-adv-x="501" 
d="M209 198q0 -51 26.5 -75t82.5 -24q55 0 120 22v-106q-42 -11 -73.5 -15.5t-60.5 -4.5q-100 0 -152 45t-52 133v9q-17 -4 -35.5 -6t-37.5 -4v105q20 2 38 4.5t35 5.5v257q0 76 48.5 121t129.5 45q87 0 133.5 -48t46.5 -138q0 -109 -65.5 -190t-183.5 -124v-12zM209 320
q138 64 138 203q0 44 -16.5 64t-51.5 20q-70 0 -70 -74v-213z" />
    <glyph glyph-name="uni2116" unicode="&#x2116;" horiz-adv-x="1087" 
d="M895 382q-36 0 -67 12.5t-53.5 34.5t-35.5 52t-13 65t13 65t35.5 52t53.5 34.5t67 12.5t67 -12.5t53.5 -34.5t35.5 -52t13 -65t-13 -65t-35.5 -52t-53.5 -34.5t-67 -12.5zM517 700h118v-700h-92l-338 466v-466h-117v700h89l340 -469v469zM895 626q-36 0 -58.5 -23
t-22.5 -57t22.5 -57t58.5 -23t58.5 23t22.5 57t-22.5 57t-58.5 23zM740 230v91h310v-91h-310z" />
    </font>
</defs>
</svg>
