<?xml version="1.0" standalone="no"?>
<!DOCTYPE svg PUBLIC "-//W3C//DTD SVG 1.1//EN" "http://www.w3.org/Graphics/SVG/1.1/DTD/svg11.dtd" >
<svg xmlns="http://www.w3.org/2000/svg" xmlns:xlink="http://www.w3.org/1999/xlink" version="1.1">
<metadata>
Created by FontForge 20170731 at Fri Jun 11 10:23:05 2021
 By Aleksey,,,
Copyright (c) 2021 by Fontfabric. All rights reserved.
</metadata>
<defs>
<font id="CodeNext-Book" horiz-adv-x="750" >
  <font-face 
    font-family="Code Next"
    font-weight="300"
    font-stretch="normal"
    units-per-em="1000"
    panose-1="0 0 0 0 0 0 0 0 0 0"
    ascent="800"
    descent="-200"
    x-height="530"
    cap-height="700"
    bbox="-467 -290 1978 929"
    underline-thickness="50"
    underline-position="-175"
    unicode-range="U+000D-FB02"
  />
<missing-glyph horiz-adv-x="521" 
d="M11 0v700h500v-700h-500zM261 395l170 255h-340zM61 95l170 255l-170 255v-510zM461 95v510l-170 -255zM91 50h340l-170 255z" />
    <glyph glyph-name="fi" unicode="fi" horiz-adv-x="634" 
d="M544 530v-530h-68v472h-275v-472h-68v472h-112v58h112v22q0 76 39 117.5t126 41.5q14 0 29.5 -1.5t32.5 -3.5v-57q-15 2 -28 3t-24 1q-63 0 -85 -25t-22 -78v-20h343zM510 705q22 0 36 -14.5t14 -35.5t-14 -35.5t-36 -14.5t-36.5 14.5t-14.5 35.5t14.5 35.5t36.5 14.5z
" />
    <glyph glyph-name="fl" unicode="fl" horiz-adv-x="636" 
d="M133 552q0 76 39 117.5t126 41.5q14 0 29.5 -1.5t32.5 -3.5v-57q-15 2 -28 3t-24 1q-63 0 -85 -25t-22 -78v-20h153v-58h-153v-472h-68v472h-112v58h112v22zM473 700h68v-700h-68v700z" />
    <glyph glyph-name="f_f" unicode="ff" horiz-adv-x="721" 
d="M651 653q-63 0 -85 -25t-22 -78v-20h153v-58h-153v-472h-68v472h-275v-472h-68v472h-112v58h112v8q0 76 37.5 117.5t121.5 41.5q13 0 27 -1.5t30 -3.5v-56q-27 3 -47 3q-59 0 -80 -25t-21 -78v-8h275v24q0 76 39 117.5t126 41.5q14 0 29.5 -1.5t32.5 -3.5v-57
q-15 2 -28 3t-24 1z" />
    <glyph glyph-name="f_f_i" unicode="ffi" horiz-adv-x="977" 
d="M886 530v-530h-68v472h-274v-472h-68v472h-275v-472h-68v472h-112v58h112v8q0 76 37.5 117.5t121.5 41.5q13 0 27 -1.5t30 -3.5v-56q-27 3 -47 3q-59 0 -80 -25t-21 -78v-8h275v24q0 76 39 117.5t126 41.5q14 0 29.5 -1.5t32.5 -3.5v-57q-15 2 -28 3t-24 1q-63 0 -85 -25
t-22 -78v-20h342zM852 710q23 0 37 -14.5t14 -36.5q0 -21 -14 -35t-37 -14q-21 0 -35.5 14t-14.5 35q0 22 14.5 36.5t35.5 14.5z" />
    <glyph glyph-name="f_f_l" unicode="ffl" horiz-adv-x="979" 
d="M476 552q0 76 39 117.5t126 41.5q14 0 29.5 -1.5t32.5 -3.5v-57q-15 2 -28 3t-24 1q-63 0 -85 -25t-22 -78v-20h153v-58h-153v-472h-68v472h-275v-472h-68v472h-112v58h112v8q0 76 37.5 117.5t121.5 41.5q13 0 27 -1.5t30 -3.5v-56q-27 3 -47 3q-59 0 -80 -25t-21 -78v-8
h275v24zM816 700h68v-700h-68v700z" />
    <glyph glyph-name=".notdef" horiz-adv-x="521" 
d="M11 0v700h500v-700h-500zM261 395l170 255h-340zM61 95l170 255l-170 255v-510zM461 95v510l-170 -255zM91 50h340l-170 255z" />
    <glyph glyph-name=".null" horiz-adv-x="0" 
 />
    <glyph glyph-name=".null" horiz-adv-x="0" 
 />
    <glyph glyph-name="uni000D" unicode="&#xd;" horiz-adv-x="261" 
 />
    <glyph glyph-name="space" unicode=" " horiz-adv-x="261" 
 />
    <glyph glyph-name="exclam" unicode="!" horiz-adv-x="223" 
d="M80 163l-4 195v342h72v-342l-4 -195h-64zM112 -8q-21 0 -35 14t-14 34t14 34t35 14q20 0 34 -14t14 -34t-14 -34t-34 -14z" />
    <glyph glyph-name="quotedbl" unicode="&#x22;" horiz-adv-x="310" 
d="M50 488v212h68v-212h-68zM192 488v212h68v-212h-68z" />
    <glyph glyph-name="numbersign" unicode="#" horiz-adv-x="603" 
d="M553 437h-91l-27 -171h85v-63h-95l-32 -203h-65l32 203h-157l-32 -203h-65l32 203h-88v63h98l27 171h-92v63h102l31 200h66l-32 -200h156l32 200h66l-32 -200h81v-63zM396 437h-156l-27 -171h156z" />
    <glyph glyph-name="dollar" unicode="$" horiz-adv-x="623" 
d="M568 192q0 -42 -16 -77.5t-45.5 -61.5t-71 -41.5t-92.5 -19.5v-86h-61v87q-46 4 -85 21.5t-67.5 45t-46 65.5t-20.5 83h72q5 -59 44.5 -97t102.5 -47v265q-47 9 -85.5 24t-65.5 38t-42 54.5t-15 73.5q0 39 15 72t42 58t65.5 40t85.5 19v87h61v-88q86 -8 141.5 -59.5
t66.5 -136.5h-70q-9 54 -45.5 86t-92.5 40v-248q51 -9 93 -24.5t71 -39t45 -56.5t16 -77zM146 519q0 -52 35 -78t101 -40v237q-63 -6 -99.5 -37t-36.5 -82zM343 63q71 6 111 39t40 90q0 56 -40 84.5t-111 42.5v-256z" />
    <glyph glyph-name="percent" unicode="%" horiz-adv-x="887" 
d="M224 384q-36 0 -66.5 12.5t-52 34t-34 51.5t-12.5 65t12.5 65t34.5 52t52 34t66 12t66 -12t51.5 -34t34 -52t12.5 -65t-12.5 -65t-34 -51.5t-51.5 -34t-66 -12.5zM220 0l388 700h60l-389 -700h-59zM224 440q48 0 77.5 30t29.5 77q0 48 -29.5 77.5t-77.5 29.5t-77.5 -29.5
t-29.5 -77.5t29.5 -77.5t77.5 -29.5zM671 -10q-36 0 -66 12.5t-52 34t-34.5 51.5t-12.5 65t12.5 65t34.5 52t52 34t66 12t66 -12t52 -34t34.5 -52t12.5 -65t-12.5 -65t-34 -51.5t-52 -34t-66.5 -12.5zM671 46q48 0 77.5 30t29.5 77q0 48 -29.5 77.5t-77.5 29.5t-77.5 -29.5
t-29.5 -77.5t30 -77.5t77 -29.5z" />
    <glyph glyph-name="ampersand" unicode="&#x26;" horiz-adv-x="625" 
d="M612 7v-7h-81l-63 66q-40 -36 -93 -56t-116 -20q-47 0 -86 13t-66.5 37t-43 58t-15.5 75q0 38 12 69t32 56t46 45t54 38q-24 33 -39.5 59t-25 47.5t-13 40.5t-3.5 37q0 72 48 108.5t123 36.5q39 0 71 -10t55 -29t35.5 -44.5t12.5 -57.5q0 -37 -14.5 -66.5t-37.5 -54
t-53 -44.5t-62 -40q32 -38 74 -86.5t99 -110.5q34 60 34 141h69q0 -57 -14.5 -105.5t-40.5 -87.5zM284 645q-47 0 -75.5 -23.5t-28.5 -61.5q0 -26 15.5 -59.5t53.5 -85.5q28 17 53 33t43.5 33.5t29.5 38t11 45.5q0 35 -28.5 57.5t-73.5 22.5zM266 56q48 0 87 15.5t69 44.5
q-63 66 -109 118.5t-80 94.5q-24 -15 -44.5 -31t-36 -35t-24.5 -41t-9 -48q0 -54 39.5 -86t107.5 -32z" />
    <glyph glyph-name="quotesingle" unicode="'" horiz-adv-x="168" 
d="M50 488v212h68v-212h-68z" />
    <glyph glyph-name="parenleft" unicode="(" horiz-adv-x="382" 
d="M354 -147q-137 75 -210.5 199.5t-73.5 284.5t72.5 285t208.5 200v-80q-102 -65 -155.5 -169.5t-53.5 -235.5t54.5 -235t157.5 -169v-80z" />
    <glyph glyph-name="parenright" unicode=")" horiz-adv-x="382" 
d="M28 -67q103 65 157.5 169t54.5 235t-53.5 235.5t-155.5 169.5v80q136 -75 208.5 -200t72.5 -285t-73.5 -284.5t-210.5 -199.5v80z" />
    <glyph glyph-name="asterisk" unicode="*" horiz-adv-x="378" 
d="M106 381l-42 30l84 114l-128 39l15 50l127 -42v137h54v-137l126 42l16 -50l-128 -39l83 -114l-41 -30l-83 115z" />
    <glyph glyph-name="plus" unicode="+" horiz-adv-x="497" 
d="M443 382v-59h-164v-171h-62v171h-163v59h163v169h62v-169h164z" />
    <glyph glyph-name="comma" unicode="," horiz-adv-x="283" 
d="M80 -112v5l45 196h73v-14l-55 -187h-63z" />
    <glyph glyph-name="hyphen" unicode="-" horiz-adv-x="403" 
d="M54 259v64h295v-64h-295z" />
    <glyph glyph-name="period" unicode="." horiz-adv-x="252" 
d="M126 -8q-20 0 -34 14t-14 34q0 21 14 35t34 14t34 -14t14 -35q0 -20 -14 -34t-34 -14z" />
    <glyph glyph-name="slash" unicode="/" horiz-adv-x="388" 
d="M19 -48v7l284 802h66v-7l-283 -802h-67z" />
    <glyph glyph-name="zero" unicode="0" horiz-adv-x="678" 
d="M339 -11q-63 0 -112.5 25.5t-84 72.5t-53 113.5t-18.5 149.5t18.5 149.5t53 113.5t84 72.5t112.5 25.5t113 -25.5t84.5 -72.5t52.5 -113.5t18 -149.5q0 -82 -18 -149t-52.5 -114t-84.5 -72.5t-113 -25.5zM339 59q95 0 146 77.5t51 213.5q0 137 -50.5 214t-146.5 77
q-95 0 -145.5 -77t-50.5 -214q0 -68 13 -122t38 -91.5t61.5 -57.5t83.5 -20z" />
    <glyph glyph-name="one" unicode="1" horiz-adv-x="379" 
d="M228 700h48v-700h-70v420l1 185l-161 -105l-34 51z" />
    <glyph glyph-name="two" unicode="2" horiz-adv-x="558" 
d="M244 68h266v-68h-469v47l274 256q58 55 87 98t29 95q0 66 -41 105.5t-110 39.5q-72 0 -113 -43.5t-41 -118.5h-69q0 53 16 95.5t45 73t70 47t92 16.5q50 0 91 -16t70 -44t45 -67t16 -86q0 -33 -8.5 -63t-26 -60t-44.5 -60.5t-64 -64.5l-200 -184z" />
    <glyph glyph-name="three" unicode="3" horiz-adv-x="564" 
d="M393 367q58 -23 90.5 -71t32.5 -109q0 -44 -17 -80.5t-48.5 -62.5t-74.5 -40.5t-96 -14.5q-52 0 -95 14.5t-73.5 40.5t-47.5 63.5t-19 82.5h71q2 -60 45.5 -95.5t117.5 -35.5q76 0 121 36.5t45 98.5q0 30 -11.5 55t-31.5 43.5t-48.5 28.5t-63.5 10h-91v67h91q27 0 51 9.5
t41 26t27 39t10 48.5q0 27 -10.5 49.5t-30 38.5t-46.5 25t-60 9q-63 0 -102 -32t-41 -83h-71q2 41 18 74.5t44.5 57.5t67.5 37.5t87 13.5q47 0 86 -13.5t68 -38t45 -58.5t16 -74q0 -52 -25.5 -94t-71.5 -66z" />
    <glyph glyph-name="four" unicode="4" horiz-adv-x="570" 
d="M455 232h90v-66h-90v-166h-71v166h-368v50l383 484h56v-468zM385 231v345l-275 -345h275z" />
    <glyph glyph-name="five" unicode="5" horiz-adv-x="583" 
d="M297 463q53 0 96.5 -18t75.5 -49.5t49.5 -75t17.5 -94.5t-18 -94.5t-50 -75t-76 -49.5t-96 -18q-51 0 -94.5 14.5t-75.5 41t-50 63t-18 79.5h70q2 -28 15 -51.5t35 -40.5t52 -26.5t66 -9.5t67 12.5t53.5 35t35 53t12.5 66.5q0 37 -12 67.5t-34 53t-53 35t-70 12.5
q-41 0 -76 -12.5t-75 -43.5h-67l32 362h389v-68h-326l-11 -118l-8 -88q38 20 72 28.5t72 8.5z" />
    <glyph glyph-name="six" unicode="6" horiz-adv-x="600" 
d="M314 456q52 0 96 -17.5t75.5 -48t49 -73t17.5 -93.5q0 -52 -18.5 -95t-51.5 -74.5t-79 -49t-101 -17.5t-101 17.5t-79 49t-51.5 74.5t-18.5 95q0 24 4.5 47t14.5 47.5t25 51t37 58.5l189 272h81v-7l-176 -250q40 13 87 13zM302 57q40 0 72.5 12t56 34t36.5 53t13 68
q0 38 -13 68.5t-36.5 52.5t-56 34t-72.5 12t-73 -12t-56 -34t-36 -52.5t-13 -68.5q0 -37 13 -68t36 -53t56 -34t73 -12z" />
    <glyph glyph-name="seven" unicode="7" horiz-adv-x="535" 
d="M26 700h486v-48l-350 -652h-77v7l339 625h-398v68z" />
    <glyph glyph-name="eight" unicode="8" horiz-adv-x="599" 
d="M420 368q61 -23 96 -69.5t35 -109.5q0 -45 -18.5 -81.5t-51.5 -63t-79 -41t-102 -14.5t-102.5 14.5t-79.5 41t-51.5 63.5t-18.5 81q0 63 35 109.5t97 69.5q-46 24 -72.5 64.5t-26.5 91.5q0 40 16.5 74.5t46 59.5t69.5 39t87 14t87 -14t69 -39t45.5 -59.5t16.5 -74.5
q0 -51 -26.5 -91.5t-71.5 -64.5zM300 645q-33 0 -60.5 -9t-47 -25.5t-30.5 -39.5t-11 -51q0 -27 11 -50t30.5 -39.5t47 -25.5t60.5 -9t60 9t47 25.5t31 39.5t11 50q0 28 -11 51t-31 39.5t-47 25.5t-60 9zM300 59q82 0 130.5 36.5t48.5 99.5t-48.5 99.5t-130.5 36.5
t-131 -36.5t-49 -99.5t48.5 -99.5t131.5 -36.5z" />
    <glyph glyph-name="nine" unicode="9" horiz-adv-x="604" 
d="M301 712q55 0 101 -17.5t79 -49t51.5 -74.5t18.5 -95q0 -24 -4.5 -47t-14 -47.5t-25 -51t-37.5 -58.5l-189 -272h-81v7l176 250q-40 -13 -88 -13q-52 0 -95.5 17.5t-75 48t-49 73t-17.5 93.5q0 52 18.5 95t51.5 74.5t79 49t101 17.5zM301 309q40 0 73 12t56 34t36 53
t13 68q0 38 -13 68.5t-36.5 52.5t-56 34t-72.5 12t-73 -12t-56 -34t-36 -52.5t-13 -68.5q0 -37 13 -68t36 -53t56 -34t73 -12z" />
    <glyph glyph-name="colon" unicode=":" horiz-adv-x="252" 
d="M126 393q-20 0 -34 14.5t-14 34.5t14 34t34 14t34 -14t14 -34t-14 -34.5t-34 -14.5zM126 -8q-20 0 -34 14t-14 34q0 21 14 35t34 14t34 -14t14 -35q0 -20 -14 -34t-34 -14z" />
    <glyph glyph-name="semicolon" unicode=";" horiz-adv-x="286" 
d="M160 393q-20 0 -34 14t-14 34q0 21 14 35t34 14t34.5 -14t14.5 -35q0 -20 -14.5 -34t-34.5 -14zM80 -112v5l45 196h73v-14l-55 -187h-63z" />
    <glyph glyph-name="less" unicode="&#x3c;" horiz-adv-x="477" 
d="M423 489l-285 -141l285 -142v-74h-9l-381 195v42l381 195h9v-75z" />
    <glyph glyph-name="equal" unicode="=" horiz-adv-x="482" 
d="M54 391v59h374v-59h-374zM54 208v60h374v-60h-374z" />
    <glyph glyph-name="greater" unicode="&#x3e;" horiz-adv-x="477" 
d="M63 564l381 -195v-42l-381 -195h-9v74l285 142l-285 141v75h9z" />
    <glyph glyph-name="question" unicode="?" horiz-adv-x="506" 
d="M208 163v30q0 59 24.5 95t72.5 67t73 63.5t25 84.5q0 63 -41 100.5t-111 37.5q-71 0 -112 -43.5t-41 -118.5h-70q0 53 16 95.5t45.5 73t70.5 47t91 16.5q51 0 92.5 -15t70.5 -42t45 -65.5t16 -85.5q0 -68 -29.5 -111.5t-84.5 -79.5q-40 -26 -60.5 -53.5t-20.5 -71.5v-24
h-72zM244 -8q-20 0 -34 14t-14 34t14 34t34 14q21 0 35 -14t14 -34t-14 -34t-35 -14z" />
    <glyph glyph-name="at" unicode="@" horiz-adv-x="833" 
d="M454 -14q83 0 152 21t129 62l29 -49q-131 -92 -310 -92q-89 0 -161.5 26t-124 74.5t-79.5 117t-28 152.5q0 83 29 153t81 120t123.5 78t156.5 28q77 0 141.5 -24.5t111.5 -68t73 -103.5t26 -132q0 -51 -13.5 -95t-38 -76t-57.5 -50t-72 -18q-38 0 -62 18t-28 47
q-27 -32 -62 -48.5t-74 -16.5q-33 0 -60.5 12t-47 33t-30.5 50.5t-11 64.5q0 50 14 92t39.5 72t60.5 47t77 17t74.5 -19.5t50.5 -52.5l15 59h56l-52 -248q-7 -35 4.5 -54t38.5 -19q25 0 46.5 14.5t37.5 39.5t25 58.5t9 72.5q0 60 -21.5 109.5t-60.5 85.5t-92.5 56t-117.5 20
q-71 0 -130.5 -24t-103 -66.5t-68 -102t-24.5 -130.5q0 -72 23.5 -129.5t67 -98t104 -62t134.5 -21.5zM408 166q29 0 53.5 13t42.5 35.5t28 53.5t10 67q0 47 -27 76.5t-71 29.5q-28 0 -52.5 -13t-42.5 -35.5t-28.5 -53.5t-10.5 -67q0 -47 27 -76.5t71 -29.5z" />
    <glyph glyph-name="A" unicode="A" horiz-adv-x="648" 
d="M350 700l282 -693v-7h-75l-71 179h-324l-72 -179h-74v7l282 693h52zM324 586l-136 -340h272z" />
    <glyph glyph-name="B" unicode="B" horiz-adv-x="631" 
d="M474 372q51 -23 80 -69t29 -106q0 -44 -14.5 -80t-41 -62t-63.5 -40.5t-81 -14.5h-280v700h266q40 0 73.5 -12.5t57.5 -36t37 -56t13 -72.5q0 -50 -20 -89t-56 -62zM174 631v-233h192q53 0 82 32t29 86t-31 84.5t-82 30.5h-190zM377 69q60 0 96.5 34.5t36.5 96.5
q0 60 -36.5 95.5t-97.5 35.5h-202v-262h203z" />
    <glyph glyph-name="C" unicode="C" horiz-adv-x="785" 
d="M406 -11q-74 0 -137.5 27.5t-109.5 75.5t-72 114t-26 144t26 144t72 114t109.5 75.5t137.5 27.5q60 0 113 -17.5t95.5 -49.5t74 -77t47.5 -100h-74q-15 40 -39.5 72t-57.5 54.5t-73 34.5t-84 12q-59 0 -109.5 -21.5t-87 -60.5t-57 -92t-20.5 -116t20.5 -116t57 -92
t87 -60.5t109.5 -21.5q45 0 85 12.5t73 35.5t58 56t40 73h73q-16 -56 -47 -101.5t-74.5 -78t-96.5 -50.5t-113 -18z" />
    <glyph glyph-name="D" unicode="D" horiz-adv-x="752" 
d="M103 0v700h231q80 0 145.5 -25.5t112.5 -72t73 -110.5t26 -142t-26 -142t-73 -110.5t-112.5 -72t-145.5 -25.5h-231zM174 69h156q66 0 119.5 20.5t91 57t57.5 88.5t20 115t-20 115t-57.5 88.5t-91 57t-119.5 20.5h-156v-562z" />
    <glyph glyph-name="E" unicode="E" horiz-adv-x="570" 
d="M174 69h345v-69h-416v700h409v-69h-338v-242h319v-69h-319v-251z" />
    <glyph glyph-name="F" unicode="F" horiz-adv-x="544" 
d="M499 631h-325v-251h299v-69h-299v-311h-71v700h396v-69z" />
    <glyph glyph-name="G" unicode="G" horiz-adv-x="811" 
d="M388 343h368q-2 -78 -28.5 -143t-72.5 -112t-108.5 -73t-137.5 -26t-138.5 27.5t-110 75.5t-73 114t-26.5 144t26.5 144t73 114t110.5 75.5t139 27.5q59 0 111.5 -17t95.5 -48.5t74.5 -76t48.5 -100.5h-74q-31 80 -99 125.5t-156 45.5q-60 0 -111 -22t-87.5 -60.5
t-57.5 -91.5t-21 -116t21 -116t57.5 -91.5t87.5 -60.5t111 -22q50 0 94.5 15.5t80 43.5t59.5 68t33 88h-290v68z" />
    <glyph glyph-name="H" unicode="H" horiz-adv-x="734" 
d="M559 700h72v-700h-72v321h-385v-321h-71v700h71v-310h385v310z" />
    <glyph glyph-name="I" unicode="I" horiz-adv-x="463" 
d="M268 67h136v-67h-345v67h137v568h-134v65h339v-65h-133v-568z" />
    <glyph glyph-name="J" unicode="J" horiz-adv-x="489" 
d="M132 700h269v-425q0 -139 -67.5 -211.5t-201.5 -72.5q-47 0 -98 9v71q47 -9 87 -9q106 0 157 56t51 161v353h-197v68z" />
    <glyph glyph-name="K" unicode="K" horiz-adv-x="619" 
d="M103 0v700h71v-700h-71zM290 354l311 -347v-7h-88l-302 341v23l290 336h84v-7z" />
    <glyph glyph-name="L" unicode="L" horiz-adv-x="541" 
d="M174 69h345v-69h-416v700h71v-631z" />
    <glyph glyph-name="M" unicode="M" horiz-adv-x="858" 
d="M699 700h56v-700h-71v559l-234 -337h-41l-235 337v-559h-71v700h56l270 -390z" />
    <glyph glyph-name="N" unicode="N" horiz-adv-x="733" 
d="M631 700v-700h-57l-400 556v-556h-71v700h54l402 -559v559h72z" />
    <glyph glyph-name="O" unicode="O" horiz-adv-x="826" 
d="M413 -11q-76 0 -140.5 27.5t-111.5 75.5t-73.5 114t-26.5 144t26.5 144t73.5 114t111.5 75.5t140.5 27.5t140.5 -27.5t112 -75.5t74 -114t26.5 -144t-26.5 -144t-74 -114t-112 -75.5t-140.5 -27.5zM413 60q61 0 112 22t88.5 60.5t58.5 91.5t21 116t-21 116t-58.5 91.5
t-88.5 60.5t-112 22q-60 0 -111.5 -22t-88.5 -60.5t-58 -91.5t-21 -116t21 -116t58 -91.5t88.5 -60.5t111.5 -22z" />
    <glyph glyph-name="P" unicode="P" horiz-adv-x="604" 
d="M352 700q50 0 91.5 -17t71 -47.5t45.5 -72.5t16 -93t-16 -93t-45.5 -72t-71 -47t-91.5 -17h-178v-241h-71v700h249zM345 308q36 0 65.5 11.5t50 33t32 51.5t11.5 66t-11.5 66t-32 51.5t-50 33t-65.5 11.5h-171v-324h171z" />
    <glyph glyph-name="Q" unicode="Q" horiz-adv-x="830" 
d="M799 -47v-7h-76l-102 110q-43 -32 -95.5 -49.5t-112.5 -17.5q-76 0 -140.5 27.5t-111.5 75.5t-73.5 114t-26.5 144t26.5 144t73.5 114t111.5 75.5t140.5 27.5t140.5 -27.5t111.5 -75.5t73.5 -114t26.5 -144q0 -76 -26 -140.5t-72 -112.5zM134 350q0 -63 21 -116t58 -91.5
t88 -60.5t112 -22q46 0 86.5 13t74.5 36l-159 172v7h76l129 -139q34 38 53 89.5t19 111.5q0 63 -21 116t-58 91.5t-88 60.5t-112 22t-112 -22t-88 -60.5t-58 -91.5t-21 -116z" />
    <glyph glyph-name="R" unicode="R" horiz-adv-x="624" 
d="M339 281l255 -274v-7h-86l-282 311v32h124q70 0 111.5 38.5t41.5 105.5q0 66 -42.5 105.5t-113.5 39.5h-173v-632h-71v700h245q56 0 98.5 -18t71.5 -47.5t43.5 -67.5t14.5 -79q0 -42 -14.5 -79.5t-43 -66t-70.5 -45t-98 -16.5h-11z" />
    <glyph glyph-name="S" unicode="S" horiz-adv-x="623" 
d="M316 -9q-53 0 -97.5 15.5t-78 44t-53.5 68.5t-24 89h72q3 -33 17.5 -60t38.5 -46t56 -29.5t69 -10.5q84 0 131 34t47 96q0 32 -12.5 54t-36 37.5t-58 25t-78.5 16.5q-52 8 -94.5 22.5t-72.5 37.5t-46 56t-16 78q0 42 16.5 77t47.5 60t74 39t96 14q102 0 166.5 -52.5
t76.5 -145.5h-72q-12 65 -57.5 96.5t-114.5 31.5q-75 0 -118.5 -32t-43.5 -88q0 -31 11.5 -52.5t34.5 -36t57 -23.5t79 -16q54 -9 97 -24t74 -39t47.5 -57.5t16.5 -78.5t-18 -82.5t-51 -63.5t-79.5 -40.5t-103.5 -14.5z" />
    <glyph glyph-name="T" unicode="T" horiz-adv-x="556" 
d="M528 700v-68h-214v-632h-72v632h-214v68h500z" />
    <glyph glyph-name="U" unicode="U" horiz-adv-x="699" 
d="M350 -7q-59 0 -107 18t-82.5 51.5t-53.5 80.5t-19 105v452h72v-448q0 -43 13.5 -78t38.5 -59.5t60 -38t78 -13.5q42 0 77 13.5t60 38t38.5 59.5t13.5 78v448h72v-452q0 -58 -19 -105t-53 -80.5t-82 -51.5t-107 -18z" />
    <glyph glyph-name="V" unicode="V" horiz-adv-x="648" 
d="M554 700h74v-7l-278 -693h-52l-278 693v7h74l231 -584l187 474z" />
    <glyph glyph-name="W" unicode="W" horiz-adv-x="981" 
d="M888 700h71v-7l-227 -693h-51l-103 251l-87 213l-88 -213l-102 -251h-51l-228 693v7h73l60 -187l126 -384l186 448h48l187 -448l127 391z" />
    <glyph glyph-name="X" unicode="X" horiz-adv-x="644" 
d="M370 364l250 -357v-7h-83l-177 253l-37 54l-217 -307h-83v7l251 357l-230 329v7h83l145 -206l50 -74l51 74l146 206h82v-7z" />
    <glyph glyph-name="Y" unicode="Y" horiz-adv-x="617" 
d="M600 700v-7l-255 -407v-286h-72v283l-256 410v7h81l132 -212l78 -127l79 127l134 212h79z" />
    <glyph glyph-name="Z" unicode="Z" horiz-adv-x="584" 
d="M548 69v-69h-511v46l404 586h-388v68h489v-44l-404 -587h410z" />
    <glyph glyph-name="bracketleft" unicode="[" horiz-adv-x="298" 
d="M103 -106v896h175v-63h-104v-770h105v-63h-176z" />
    <glyph glyph-name="backslash" unicode="\" horiz-adv-x="389" 
d="M302 -48l-283 802v7h67l283 -802v-7h-67z" />
    <glyph glyph-name="bracketright" unicode="]" horiz-adv-x="298" 
d="M195 -106h-176v63h105v770h-104v63h175v-896z" />
    <glyph glyph-name="asciicircum" unicode="^" horiz-adv-x="490" 
d="M269 700l201 -374v-5h-76l-60 114l-90 170l-90 -170l-60 -114h-74v5l201 374h48z" />
    <glyph glyph-name="underscore" unicode="_" horiz-adv-x="455" 
d="M0 -100v64h455v-64h-455z" />
    <glyph glyph-name="grave" unicode="`" horiz-adv-x="353" 
d="M251 587h-70l-93 127v6h85l78 -127v-6z" />
    <glyph glyph-name="a" unicode="a" horiz-adv-x="693" 
d="M530 530h68v-530h-68v93q-35 -48 -89.5 -74.5t-121.5 -26.5q-58 0 -106.5 20.5t-83.5 57t-55 86.5t-20 109t20 109t55 86.5t83.5 57t106.5 20.5q67 0 121.5 -26.5t89.5 -74.5v93zM327 56q44 0 81.5 15.5t64.5 43.5t42.5 66.5t15.5 83.5t-15.5 83.5t-42.5 66.5t-64.5 43.5
t-81.5 15.5t-81.5 -15.5t-64.5 -43.5t-42.5 -66.5t-15.5 -83.5t15.5 -83.5t42.5 -66.5t64.5 -43.5t81.5 -15.5z" />
    <glyph glyph-name="b" unicode="b" horiz-adv-x="694" 
d="M375 538q58 0 106.5 -20.5t84 -57t55 -86.5t19.5 -109t-19.5 -109t-55 -86.5t-84 -57t-106.5 -20.5q-68 0 -122.5 27t-89.5 75v-94h-68v700h68v-264q35 48 89.5 75t122.5 27zM367 56q44 0 81.5 15.5t64.5 43.5t42.5 66.5t15.5 83.5t-15.5 83.5t-42.5 66.5t-64.5 43.5
t-81.5 15.5q-45 0 -82.5 -15.5t-64.5 -43.5t-42.5 -66.5t-15.5 -83.5t15.5 -83.5t42.5 -66.5t64.5 -43.5t82.5 -15.5z" />
    <glyph glyph-name="c" unicode="c" horiz-adv-x="626" 
d="M323 -8q-59 0 -108.5 20t-85 56t-55.5 86t-20 110t20 110.5t55.5 87t85 56.5t108.5 20q48 0 90 -13.5t75 -38t56.5 -60.5t35.5 -81h-68q-22 61 -71 95t-116 34q-45 0 -82 -15.5t-63.5 -43t-41.5 -66t-15 -85.5q0 -46 15 -84t41.5 -65.5t63.5 -43t82 -15.5q69 0 117.5 34
t70.5 96h69q-12 -45 -35.5 -81t-57 -61t-76 -38.5t-90.5 -13.5z" />
    <glyph glyph-name="d" unicode="d" horiz-adv-x="694" 
d="M531 700h68v-700h-68v94q-35 -48 -89.5 -75t-122.5 -27q-58 0 -106.5 20.5t-83.5 57t-55 86.5t-20 109t20 109t55 86.5t83.5 57t106.5 20.5q68 0 122.5 -27t89.5 -75v264zM327 56q45 0 82.5 15.5t64.5 43.5t42.5 66.5t15.5 83.5t-15.5 83.5t-42.5 66.5t-64.5 43.5
t-82.5 15.5q-44 0 -81.5 -15.5t-64.5 -43.5t-42.5 -66.5t-15.5 -83.5t15.5 -83.5t42.5 -66.5t64.5 -43.5t81.5 -15.5z" />
    <glyph glyph-name="e" unicode="e" horiz-adv-x="643" 
d="M124 243q3 -41 19 -75.5t42.5 -59t61.5 -38.5t76 -14q60 0 107.5 26t71.5 74h74q-29 -77 -96 -120.5t-157 -43.5q-58 0 -107.5 20.5t-85.5 56.5t-56 86t-20 110t20 110t56 86t85.5 56.5t107.5 20.5q61 0 112 -21.5t87 -60t55 -93t16 -120.5h-469zM323 474
q-39 0 -73 -12.5t-59.5 -35t-42 -54t-22.5 -70.5h396q-6 38 -23 69.5t-43 54t-60 35.5t-73 13z" />
    <glyph glyph-name="f" unicode="f" horiz-adv-x="378" 
d="M308 653q-63 0 -85 -25t-22 -78v-20h153v-58h-153v-472h-68v472h-112v58h112v22q0 76 39 117.5t126 41.5q14 0 29.5 -1.5t32.5 -3.5v-57q-15 2 -28 3t-24 1z" />
    <glyph glyph-name="g" unicode="g" horiz-adv-x="687" 
d="M524 530h68v-454q0 -57 -19.5 -102t-54.5 -75.5t-83 -47t-105 -16.5q-46 0 -87.5 10t-74.5 29.5t-56.5 49t-33.5 68.5h71q9 -24 26 -41.5t40 -29.5t51 -17.5t59 -5.5q45 0 81.5 11.5t62.5 34.5t40.5 56.5t14.5 76.5v47q-35 -46 -89 -73.5t-119 -27.5q-57 0 -105 20
t-83 54.5t-54.5 81.5t-19.5 101t19.5 101.5t54.5 82t83 54.5t105 20q65 0 119 -27t89 -73v92zM324 86q44 0 81 14.5t63.5 40.5t41.5 61.5t15 77.5t-15 78t-41.5 62t-63.5 40.5t-81 14.5t-81 -15t-63.5 -41t-41.5 -62t-15 -77t15 -76.5t41.5 -61.5t63.5 -41t81 -15z" />
    <glyph glyph-name="h" unicode="h" horiz-adv-x="670" 
d="M358 538q108 0 167 -64t59 -180v-294h-68v291q0 90 -42.5 137t-123.5 47q-42 0 -76.5 -13.5t-59 -37.5t-38 -57.5t-13.5 -74.5v-292h-68v700h68v-264q30 47 81 74.5t114 27.5z" />
    <glyph glyph-name="i" unicode="i" horiz-adv-x="259" 
d="M129 609q-23 0 -38.5 16t-15.5 39t15.5 39t38.5 16q24 0 39.5 -16t15.5 -39t-15.5 -39t-39.5 -16zM95 0v530h68v-530h-68z" />
    <glyph glyph-name="j" unicode="j" horiz-adv-x="259" 
d="M129 609q-23 0 -38.5 16t-15.5 39t15.5 39t38.5 16q24 0 39.5 -16t15.5 -39t-15.5 -39t-39.5 -16zM7 -164q-25 0 -52 3v62q11 -1 21 -1.5t19 -0.5q57 0 78.5 26t21.5 84v521h68v-528q0 -86 -36.5 -126t-119.5 -40z" />
    <glyph glyph-name="k" unicode="k" horiz-adv-x="542" 
d="M95 0v700h68v-700h-68zM274 267l251 -263v-4h-85l-241 255v20l228 255h81v-4z" />
    <glyph glyph-name="l" unicode="l" horiz-adv-x="259" 
d="M95 0v700h68v-700h-68z" />
    <glyph glyph-name="m" unicode="m" horiz-adv-x="1024" 
d="M729 538q100 0 154.5 -64t54.5 -180v-294h-68v292q0 89 -38.5 136t-110.5 47q-77 0 -123.5 -49.5t-46.5 -132.5v-293h-68v292q0 89 -38.5 136t-110.5 47q-39 0 -70.5 -13t-54 -37t-34.5 -57.5t-12 -74.5v-293h-68v530h68v-88q30 46 76 71t103 25q67 0 114 -30t71 -87
q32 55 84.5 86t117.5 31z" />
    <glyph glyph-name="n" unicode="n" horiz-adv-x="670" 
d="M361 538q105 0 164 -64t59 -180v-294h-68v291q0 90 -42.5 137t-123.5 47q-42 0 -76.5 -13.5t-59 -37.5t-38 -57.5t-13.5 -74.5v-292h-68v530h68v-94q29 47 80.5 74.5t117.5 27.5z" />
    <glyph glyph-name="o" unicode="o" horiz-adv-x="654" 
d="M327 -8q-60 0 -110 20.5t-86 57t-56.5 86.5t-20.5 109t20.5 109t56.5 86.5t86 57t110 20.5t110 -20.5t86 -57t56.5 -86.5t20.5 -109t-20.5 -109t-56.5 -86.5t-86 -57t-110 -20.5zM327 56q44 0 81.5 15.5t64.5 43.5t42.5 66.5t15.5 83.5t-15.5 83.5t-42.5 66.5t-64.5 43.5
t-81.5 15.5t-81.5 -15.5t-64.5 -43.5t-42.5 -66.5t-15.5 -83.5t15.5 -83.5t42.5 -66.5t64.5 -43.5t81.5 -15.5z" />
    <glyph glyph-name="p" unicode="p" horiz-adv-x="694" 
d="M375 538q58 0 106.5 -20.5t84 -57t55 -86.5t19.5 -109t-19.5 -109t-55 -86.5t-84 -57t-106.5 -20.5q-68 0 -122.5 27.5t-89.5 75.5v-248h-68v683h68v-95q35 48 89.5 75.5t122.5 27.5zM367 56q45 0 82.5 15.5t64.5 43.5t42 66t15 84t-15 84.5t-42 66t-64.5 43t-82.5 15.5
t-82.5 -15.5t-64.5 -43t-42.5 -66t-15.5 -84.5t15.5 -84t42.5 -66t64.5 -43.5t82.5 -15.5z" />
    <glyph glyph-name="q" unicode="q" horiz-adv-x="694" 
d="M531 530h68v-683h-68v247q-35 -48 -89.5 -75t-122.5 -27q-58 0 -106.5 20.5t-83.5 57t-55 86.5t-20 109t20 109t55 86.5t83.5 57t106.5 20.5q68 0 122.5 -27t89.5 -75v94zM327 56q45 0 82.5 15.5t64.5 43.5t42.5 66.5t15.5 83.5t-15.5 83.5t-42.5 66.5t-64.5 43.5
t-82.5 15.5q-44 0 -81.5 -15.5t-64.5 -43.5t-42.5 -66.5t-15.5 -83.5t15.5 -83.5t42.5 -66.5t64.5 -43.5t81.5 -15.5z" />
    <glyph glyph-name="r" unicode="r" horiz-adv-x="432" 
d="M331 537q17 0 34.5 -2.5t35.5 -7.5v-62q-31 9 -62 9q-38 0 -70.5 -13.5t-56 -38t-36.5 -58.5t-13 -75v-289h-68v530h68v-93q55 100 168 100z" />
    <glyph glyph-name="s" unicode="s" horiz-adv-x="554" 
d="M282 -8q-100 0 -159.5 46.5t-63.5 125.5h70q3 -51 44.5 -79.5t109.5 -28.5q69 0 109.5 23t40.5 68q0 20 -7.5 34.5t-25.5 25t-48 18t-75 13.5q-57 8 -96 20t-64 30t-36 43.5t-11 59.5q0 36 16 64t44 46.5t66.5 28t84.5 9.5q92 0 147 -42t60 -115h-69q-4 44 -41.5 69.5
t-98.5 25.5q-67 0 -103.5 -22.5t-36.5 -63.5q0 -20 7.5 -34.5t25.5 -25t48 -18t74 -12.5q49 -6 87.5 -17t65.5 -28.5t41 -43t14 -61.5q0 -39 -16.5 -69t-46 -50t-70 -30t-87.5 -10z" />
    <glyph glyph-name="t" unicode="t" horiz-adv-x="397" 
d="M307 61q11 0 24.5 0.5t27.5 2.5v-64q-31 -3 -59 -3q-88 0 -128 40.5t-40 128.5v306h-116v58h116v125l68 7v-132h152v-58h-152v-298q0 -60 23.5 -86.5t83.5 -26.5z" />
    <glyph glyph-name="u" unicode="u" horiz-adv-x="657" 
d="M503 530h68v-530h-68v96q-30 -49 -80.5 -76.5t-116.5 -27.5q-104 0 -162 64.5t-58 179.5v294h68v-293q0 -88 42 -135t122 -47q42 0 76 13t58 37t37.5 57.5t13.5 73.5v294z" />
    <glyph glyph-name="v" unicode="v" horiz-adv-x="545" 
d="M527 530v-4l-229 -526h-51l-229 526v4h72l182 -434l182 434h73z" />
    <glyph glyph-name="w" unicode="w" horiz-adv-x="848" 
d="M758 530h70v-4l-192 -526h-52l-84 203l-76 190l-76 -190l-85 -203h-51l-192 526v4h71l149 -426l160 389h49l159 -389z" />
    <glyph glyph-name="x" unicode="x" horiz-adv-x="535" 
d="M308 269l206 -265v-4h-78l-112 142l-58 78l-56 -77l-112 -143h-77v4l204 266l-196 256v4h76l102 -131l60 -82l59 81l102 132h75v-4z" />
    <glyph glyph-name="y" unicode="y" horiz-adv-x="547" 
d="M453 530h76v-4l-322 -679h-74v3l100 209l-215 467v4h75l103 -227l74 -169z" />
    <glyph glyph-name="z" unicode="z" horiz-adv-x="490" 
d="M457 62v-62h-422v42l319 427h-301v61h397v-40l-320 -428h327z" />
    <glyph glyph-name="braceleft" unicode="{" horiz-adv-x="315" 
d="M296 -43v-63h-71q-50 0 -77.5 28.5t-27.5 85.5v189q0 46 -17 77.5t-69 36.5v56q26 2 42.5 11.5t26.5 24.5t13.5 34.5t3.5 42.5v196q0 57 27.5 85.5t77.5 28.5h70v-63h-55q-24 0 -36.5 -11t-12.5 -41v-206q0 -48 -14.5 -80.5t-46.5 -49.5q32 -18 46.5 -50.5t14.5 -79.5
v-201q0 -30 12.5 -40.5t36.5 -10.5h56z" />
    <glyph glyph-name="bar" unicode="|" horiz-adv-x="277" 
d="M103 -136v919h71v-919h-71z" />
    <glyph glyph-name="braceright" unicode="}" horiz-adv-x="315" 
d="M195 480q0 -23 3.5 -42.5t13.5 -34.5t26.5 -24.5t42.5 -11.5v-56q-52 -5 -69 -36.5t-17 -77.5v-189q0 -57 -27.5 -85.5t-77.5 -28.5h-71v63h56q24 0 36.5 10.5t12.5 40.5v201q0 47 14.5 79.5t46.5 50.5q-32 17 -46.5 49.5t-14.5 80.5v206q0 30 -12.5 41t-36.5 11h-55v63
h70q50 0 77.5 -28.5t27.5 -85.5v-196z" />
    <glyph glyph-name="asciitilde" unicode="~" horiz-adv-x="551" 
d="M373 266q-31 0 -57 12t-50 27q-20 12 -39.5 21.5t-40.5 9.5q-29 0 -52 -14t-46 -46l-43 44q29 43 62 65t75 22q32 0 60.5 -13.5t53.5 -29.5q20 -12 38.5 -21.5t38.5 -9.5q26 0 48 13.5t45 45.5l41 -43q-50 -83 -134 -83z" />
    <glyph glyph-name="uni00A0" unicode="&#xa0;" horiz-adv-x="261" 
 />
    <glyph glyph-name="exclamdown" unicode="&#xa1;" horiz-adv-x="223" 
d="M112 541q20 0 34 -14t14 -34q0 -21 -14 -34.5t-34 -13.5q-21 0 -35 13.5t-14 34.5q0 20 14 34t35 14zM144 370l4 -195v-342h-72v342l4 195h64z" />
    <glyph glyph-name="cent" unicode="&#xa2;" horiz-adv-x="626" 
d="M582 186q-21 -81 -81 -133t-148 -60v-87h-60v87q-53 5 -97 27t-75.5 57.5t-49 83t-17.5 103.5t17 104t48.5 83.5t75.5 58t98 27.5v83h60v-83q87 -8 146 -59.5t81 -132.5h-67q-20 54 -61 87t-99 40v-414q59 7 100.5 40t59.5 88h69zM123 264q0 -84 46.5 -139.5t123.5 -66.5
v414q-78 -11 -124 -67t-46 -141z" />
    <glyph glyph-name="sterling" unicode="&#xa3;" horiz-adv-x="556" 
d="M194 69h344v-69h-506v69h91v232h-85v68h85v138q0 48 15.5 86t42.5 64t63 40t77 14q39 0 73 -11.5t60.5 -35.5t43 -59.5t19.5 -83.5h-67q-3 32 -14 55.5t-28 38.5t-39 22.5t-47 7.5q-26 0 -49 -9t-40.5 -27t-28 -45t-10.5 -62v-133h203v-68h-203v-232z" />
    <glyph glyph-name="currency" unicode="&#xa4;" horiz-adv-x="526" 
d="M446 363q0 -62 -33 -109l63 -63l-41 -41l-63 63q-47 -33 -109 -33t-109 33l-63 -63l-41 41l63 63q-33 47 -33 109t33 109l-63 63l41 41l63 -63q47 33 109 33t109 -33l63 63l41 -41l-63 -63q33 -47 33 -109zM137 363q0 -27 9.5 -50t26.5 -40t40 -26.5t50 -9.5t50 9.5
t40 26.5t26.5 40t9.5 50t-9.5 50t-26.5 40t-40 26.5t-50 9.5t-50 -9.5t-40 -26.5t-26.5 -40t-9.5 -50z" />
    <glyph glyph-name="yen" unicode="&#xa5;" horiz-adv-x="617" 
d="M600 700v-7l-227 -363h149v-60h-178v-78h178v-60h-178v-132h-71v132h-178v60h178v78h-178v60h149l-227 363v7h81l132 -212l78 -127l79 127l134 212h79z" />
    <glyph glyph-name="brokenbar" unicode="&#xa6;" horiz-adv-x="277" 
d="M103 389v394h71v-394h-71zM103 -136v405h71v-405h-71z" />
    <glyph glyph-name="section" unicode="&#xa7;" horiz-adv-x="541" 
d="M415 242q68 -35 68 -106q0 -69 -56 -107t-156 -38q-46 0 -84 11.5t-65 32t-42.5 49.5t-16.5 64h70q2 -44 40 -69.5t101 -25.5q66 0 103 21.5t37 59.5q0 34 -32.5 51t-113.5 28q-52 7 -88 18t-58.5 27.5t-33 39t-10.5 53.5q0 73 67 110q-63 34 -63 105q0 68 54 105.5
t151 37.5q44 0 80 -11.5t62.5 -32t41.5 -49.5t15 -64h-69q-2 44 -37.5 69.5t-95.5 25.5q-63 0 -98 -20.5t-35 -58.5q0 -34 30.5 -51.5t106.5 -28.5q54 -7 90.5 -17.5t59 -27t32.5 -39t10 -54.5q0 -71 -65 -108zM146 353q0 -18 7 -30.5t23.5 -22t44 -15.5t68.5 -11l41 -6
q81 21 81 81q0 18 -7 30.5t-23.5 21.5t-43.5 15t-68 11q-13 2 -24 4l-22 4q-37 -12 -57 -33t-20 -49z" />
    <glyph glyph-name="dieresis" unicode="&#xa8;" horiz-adv-x="470" 
d="M131 603q-21 0 -35.5 14.5t-14.5 36.5q0 21 14.5 35.5t35.5 14.5t36 -14.5t15 -35.5q0 -22 -15 -36.5t-36 -14.5zM348 603q-22 0 -36.5 14.5t-14.5 36.5q0 21 14.5 35.5t36.5 14.5q21 0 35.5 -14.5t14.5 -35.5q0 -22 -14.5 -36.5t-35.5 -14.5z" />
    <glyph glyph-name="copyright" unicode="&#xa9;" horiz-adv-x="846" 
d="M423 -11q-78 0 -144.5 27.5t-114.5 75.5t-75.5 114t-27.5 144t27.5 144t75.5 114t114.5 75.5t144.5 27.5t144.5 -27.5t114.5 -75.5t75.5 -114t27.5 -144t-27.5 -144t-75.5 -114t-114.5 -75.5t-144.5 -27.5zM423 41q65 0 121 23t96.5 64.5t63.5 98t23 123.5q0 66 -23 123
t-63.5 98t-96 64.5t-121.5 23.5t-121.5 -23.5t-96 -64.5t-63.5 -98t-23 -123t23 -123t63.5 -98t96 -64.5t121.5 -23.5zM425 163q-41 0 -75.5 14t-59 38.5t-38.5 59t-14 74.5q0 41 13.5 75.5t38.5 59.5t59 39t76 14q69 0 116.5 -36.5t62.5 -98.5h-59q-14 37 -45 58t-74 21
q-57 0 -92 -36.5t-35 -95.5q0 -28 9.5 -52.5t26 -41.5t40 -27t51.5 -10q45 0 75.5 22t44.5 60h59q-15 -64 -63 -100.5t-117 -36.5z" />
    <glyph glyph-name="ordfeminine" unicode="&#xaa;" horiz-adv-x="359" 
d="M270 680h49v-280h-49v37q-19 -20 -45.5 -32t-59.5 -12q-31 0 -57.5 11t-45.5 30.5t-29.5 46.5t-10.5 58q0 32 10.5 59t29.5 47t45.5 31t57.5 11q33 0 59.5 -12t45.5 -32v37zM169 438q45 0 72 28.5t27 73.5t-27 73.5t-72 28.5q-44 0 -72 -28.5t-28 -73.5t28 -73.5
t72 -28.5z" />
    <glyph glyph-name="guillemotleft" unicode="&#xab;" horiz-adv-x="460" 
d="M250 493l-158 -198l158 -196v-6h-78l-157 195v14l157 197h78v-6zM431 499v-6l-159 -198l159 -196v-6h-78l-157 195v14l157 197h78z" />
    <glyph glyph-name="logicalnot" unicode="&#xac;" horiz-adv-x="566" 
d="M444 163v191h-390v60h451v-251h-61z" />
    <glyph glyph-name="uni00AD" unicode="&#xad;" horiz-adv-x="403" 
d="M54 259v64h295v-64h-295z" />
    <glyph glyph-name="registered" unicode="&#xae;" horiz-adv-x="470" 
d="M235 708q44 0 81 -15.5t64 -43.5t42.5 -66t15.5 -83t-15.5 -82.5t-42.5 -65.5t-64 -43.5t-81 -15.5t-81 15.5t-64 43.5t-42.5 65.5t-15.5 82.5t15.5 83t42.5 66t64 43.5t81 15.5zM235 329q35 0 65.5 13t53 36t35 54.5t12.5 67.5q0 37 -12.5 68t-35 54t-53 36t-65.5 13
t-65.5 -13t-52.5 -36t-34.5 -54t-12.5 -68q0 -36 12.5 -67.5t34.5 -54.5t52.5 -36t65.5 -13zM320 543q0 -29 -17.5 -47.5t-47.5 -21.5l72 -84l-1 -4h-38l-81 98v18h38q20 0 31 11t11 29q0 19 -11.5 29.5t-30.5 10.5h-48v-196h-32v229h81q33 0 53.5 -20t20.5 -52z" />
    <glyph glyph-name="macron" unicode="&#xaf;" horiz-adv-x="426" 
d="M65 620v54h296v-54h-296z" />
    <glyph glyph-name="degree" unicode="&#xb0;" horiz-adv-x="394" 
d="M197 384q-36 0 -66.5 12.5t-52 34t-34 51.5t-12.5 65t12.5 65t34.5 52t52 34t66 12t66 -12t52 -34t34.5 -52t12.5 -65t-12.5 -65t-34.5 -51.5t-52 -34t-66 -12.5zM197 440q48 0 77.5 30t29.5 77q0 48 -29.5 77.5t-77.5 29.5t-77.5 -29.5t-29.5 -77.5t29.5 -77.5
t77.5 -29.5z" />
    <glyph glyph-name="plusminus" unicode="&#xb1;" horiz-adv-x="505" 
d="M220 168v169h-162v64h162v166h65v-166h162v-64h-162v-169h-65zM54 64h398v-64h-398v64z" />
    <glyph glyph-name="twosuperior" unicode="&#xb2;" horiz-adv-x="303" 
d="M277 450v-50h-255v35l141 133q29 28 43 48t14 44q0 29 -18.5 47t-49.5 18q-33 0 -51.5 -20t-18.5 -53h-53q0 56 33.5 90.5t89.5 34.5q54 0 88 -32t34 -84q0 -35 -17.5 -64.5t-56.5 -64.5l-89 -82h166z" />
    <glyph glyph-name="threesuperior" unicode="&#xb3;" horiz-adv-x="308" 
d="M221 595q26 -13 43 -37.5t17 -57.5q0 -48 -36 -77.5t-93 -29.5q-58 0 -92 30t-36 80h53q2 -29 22 -44.5t53 -15.5q34 0 55 16.5t21 45.5q0 28 -20 45.5t-51 17.5h-46v47h46q26 0 43 16.5t17 40.5q0 26 -19.5 41.5t-48.5 15.5t-47 -15.5t-19 -38.5h-52q2 48 34.5 75
t84.5 27q51 0 85 -27.5t34 -71.5q0 -26 -13 -48t-35 -35z" />
    <glyph glyph-name="acute" unicode="&#xb4;" horiz-adv-x="353" 
d="M105 587v6l78 127h84v-6l-93 -127h-69z" />
    <glyph glyph-name="uni00B5" unicode="&#xb5;" horiz-adv-x="691" 
d="M632 61h9.5t9.5 1v-62q-10 -2 -18.5 -2h-16.5q-48 0 -77 22.5t-35 65.5q-33 -45 -82.5 -68t-110.5 -23q-47 0 -83 15.5t-65 44.5v-208h-68v683h68v-302q0 -83 40.5 -127t116.5 -44q40 0 73 13t56.5 37t36.5 57.5t13 73.5v292h68v-401q0 -35 17 -51.5t48 -16.5z" />
    <glyph glyph-name="paragraph" unicode="&#xb6;" horiz-adv-x="672" 
d="M569 700v-790h-72v721h-216v-721h-71v396q-40 3 -73.5 18.5t-57.5 41t-37 60.5t-13 76q0 43 15 79.5t42 62.5t65.5 41t84.5 15h333z" />
    <glyph glyph-name="periodcentered" unicode="&#xb7;" horiz-adv-x="252" 
d="M126 280q-20 0 -34 14t-14 34t14 34t34 14t34 -14t14 -34t-14 -34t-34 -14z" />
    <glyph glyph-name="cedilla" unicode="&#xb8;" horiz-adv-x="275" 
d="M121 -46q47 0 69.5 -19t22.5 -51q0 -38 -26.5 -58.5t-77.5 -20.5q-18 0 -40.5 3.5t-45.5 8.5v50q39 -12 75 -12q26 0 42.5 7.5t16.5 25.5q0 17 -16.5 24t-39.5 7q-20 0 -36 -4l-10 15l39 78h54z" />
    <glyph glyph-name="onesuperior" unicode="&#xb9;" horiz-adv-x="217" 
d="M124 770h38v-370h-54v294l-74 -49l-26 41z" />
    <glyph glyph-name="ordmasculine" unicode="&#xba;" horiz-adv-x="338" 
d="M169 393q-32 0 -59 11t-46.5 31t-30.5 47t-11 58q0 32 11 58.5t30.5 46.5t46.5 31t59 11t59 -11t46.5 -31t30.5 -46.5t11 -58.5q0 -31 -11 -58t-30.5 -47t-46.5 -31t-59 -11zM169 438q44 0 72 29t28 73q0 45 -28 73.5t-72 28.5t-72 -28.5t-28 -73.5q0 -44 28 -73t72 -29z
" />
    <glyph glyph-name="guillemotright" unicode="&#xbb;" horiz-adv-x="460" 
d="M264 302v-14l-157 -195h-78v6l158 196l-158 198v6h78zM288 499l156 -197v-14l-156 -195h-79v6l159 196l-159 198v6h79z" />
    <glyph glyph-name="onequarter" unicode="&#xbc;" horiz-adv-x="789" 
d="M108 330v294l-74 -49l-26 41l116 84h38v-370h-54zM487 700h60l-338 -700h-59zM773 133v-50h-45v-83h-53v83h-187v41l195 246h45v-237h45zM551 131h126v35l1 125z" />
    <glyph glyph-name="onehalf" unicode="&#xbd;" horiz-adv-x="783" 
d="M108 330v294l-74 -49l-26 41l116 84h38v-370h-54zM487 700h60l-338 -700h-59zM757 50v-50h-255v35l141 133q29 28 43 48t14 44q0 29 -18.5 47t-49.5 18q-33 0 -51.5 -20t-18.5 -53h-53q0 56 33.5 90.5t89.5 34.5q54 0 88 -32t34 -84q0 -35 -17.5 -64.5t-56.5 -64.5
l-89 -82h166z" />
    <glyph glyph-name="threequarters" unicode="&#xbe;" horiz-adv-x="880" 
d="M281 430q0 -48 -36 -77.5t-93 -29.5q-58 0 -92 30t-36 80h53q2 -29 22 -44.5t53 -15.5q34 0 55 16.5t21 45.5q0 28 -20 45.5t-51 17.5h-46v47h46q26 0 43 16.5t17 40.5q0 26 -19.5 41.5t-48.5 15.5t-47 -15.5t-19 -38.5h-52q2 48 34.5 75t84.5 27q51 0 85 -27.5t34 -71.5
q0 -26 -13 -48t-35 -35q26 -13 43 -37.5t17 -57.5zM578 700h60l-338 -700h-59zM864 133v-50h-45v-83h-53v83h-187v41l195 246h45v-237h45zM642 131h126v35l1 125z" />
    <glyph glyph-name="questiondown" unicode="&#xbf;" horiz-adv-x="551" 
d="M289 541q21 0 34.5 -14t13.5 -34q0 -21 -13.5 -34.5t-34.5 -13.5t-34.5 13.5t-13.5 34.5q0 20 13.5 34t34.5 14zM325 370v-30q0 -59 -24 -95t-73 -67q-48 -31 -73 -64t-25 -84q0 -63 41 -101t111 -38q71 0 112 43.5t41 118.5h70q0 -52 -16 -94.5t-45 -73t-70 -47
t-92 -16.5t-92 14.5t-70.5 41.5t-45.5 65.5t-16 86.5q0 34 7.5 61.5t22 50t36 42t48.5 37.5q40 26 60.5 53t20.5 72v24h72z" />
    <glyph glyph-name="Agrave" unicode="&#xc0;" horiz-adv-x="648" 
d="M371 764h-67l-103 126v6h82l88 -127v-5zM350 700l282 -693v-7h-75l-71 179h-324l-72 -179h-74v7l282 693h52zM324 586l-136 -340h272z" />
    <glyph glyph-name="Aacute" unicode="&#xc1;" horiz-adv-x="648" 
d="M444 890l-102 -126h-69v5l89 127h82v-6zM350 700l282 -693v-7h-75l-71 179h-324l-72 -179h-74v7l282 693h52zM324 586l-136 -340h272z" />
    <glyph glyph-name="Acircumflex" unicode="&#xc2;" horiz-adv-x="648" 
d="M324 854l-92 -90h-69v7l128 125h69l126 -125v-7h-69zM350 700l282 -693v-7h-75l-71 179h-324l-72 -179h-74v7l282 693h52zM324 586l-136 -340h272z" />
    <glyph glyph-name="Atilde" unicode="&#xc3;" horiz-adv-x="648" 
d="M251 847q-48 0 -48 -77h-50q0 64 24.5 94.5t68.5 30.5q33 0 54.5 -16t38.5 -33q13 -14 26.5 -24.5t29.5 -10.5q48 0 48 78h51q0 -125 -93 -125q-33 0 -54.5 15.5t-38.5 32.5q-14 14 -27 24.5t-30 10.5zM350 700l282 -693v-7h-75l-71 179h-324l-72 -179h-74v7l282 693h52z
M324 586l-136 -340h272z" />
    <glyph glyph-name="Adieresis" unicode="&#xc4;" horiz-adv-x="648" 
d="M219 780q-21 0 -35.5 14.5t-14.5 35.5q0 22 14.5 36t35.5 14q22 0 36 -14t14 -36q0 -21 -14 -35.5t-36 -14.5zM429 780q-22 0 -36.5 14.5t-14.5 35.5q0 22 14.5 36t36.5 14q21 0 35.5 -14t14.5 -36q0 -21 -14.5 -35.5t-35.5 -14.5zM350 700l282 -693v-7h-75l-71 179h-324
l-72 -179h-74v7l282 693h52zM324 586l-136 -340h272z" />
    <glyph glyph-name="Aring" unicode="&#xc5;" horiz-adv-x="648" 
d="M324 745q-45 0 -72 25t-27 67q0 41 27 66.5t72 25.5t72 -25.5t27 -66.5q0 -42 -27 -67t-72 -25zM324 889q-25 0 -39 -15.5t-14 -36.5t14 -36.5t39 -15.5t39 15.5t14 36.5t-14 36.5t-39 15.5zM350 700l282 -693v-7h-75l-71 179h-324l-72 -179h-74v7l282 693h52zM324 586
l-136 -340h272z" />
    <glyph glyph-name="AE" unicode="&#xc6;" horiz-adv-x="899" 
d="M504 69h345v-69h-417v179h-242l-98 -179h-78v7l384 693h444v-69h-338v-242h318v-69h-318v-251zM225 246h207v379z" />
    <glyph glyph-name="Ccedilla" unicode="&#xc7;" horiz-adv-x="785" 
d="M737 237q-15 -53 -44 -97t-69.5 -76.5t-90 -51.5t-105.5 -22l-19 -42q96 3 96 -67q0 -21 -9 -35.5t-24.5 -23.5t-36 -13t-43.5 -4q-20 0 -42 3.5t-43 8.5v50q26 -8 45 -10t36 -2q60 0 60 30q0 17 -15 23t-43 6q-19 0 -35 -4l-10 15l30 65q-68 6 -125.5 35.5t-99.5 77
t-65.5 111t-23.5 136.5q0 78 26 144t72 114t109.5 75.5t137.5 27.5q60 0 113 -17.5t95.5 -49.5t74 -77t47.5 -100h-74q-15 40 -39.5 72t-57.5 54.5t-73 34.5t-84 12q-59 0 -109.5 -21.5t-87 -60.5t-57 -92t-20.5 -116t20.5 -116t57 -92t87 -60.5t109.5 -21.5q45 0 85 12.5
t73 35.5t58 56t40 73h73z" />
    <glyph glyph-name="Egrave" unicode="&#xc8;" horiz-adv-x="570" 
d="M361 764h-67l-103 126v6h82l88 -127v-5zM174 69h345v-69h-416v700h409v-69h-338v-242h319v-69h-319v-251z" />
    <glyph glyph-name="Eacute" unicode="&#xc9;" horiz-adv-x="570" 
d="M434 890l-102 -126h-69v5l89 127h82v-6zM174 69h345v-69h-416v700h409v-69h-338v-242h319v-69h-319v-251z" />
    <glyph glyph-name="Ecircumflex" unicode="&#xca;" horiz-adv-x="570" 
d="M313 854l-92 -90h-69v7l128 125h69l126 -125v-7h-69zM174 69h345v-69h-416v700h409v-69h-338v-242h319v-69h-319v-251z" />
    <glyph glyph-name="Edieresis" unicode="&#xcb;" horiz-adv-x="570" 
d="M209 780q-21 0 -35.5 14.5t-14.5 35.5q0 22 14.5 36t35.5 14q22 0 36 -14t14 -36q0 -21 -14 -35.5t-36 -14.5zM419 780q-22 0 -36.5 14.5t-14.5 35.5q0 22 14.5 36t36.5 14q21 0 35.5 -14t14.5 -36q0 -21 -14.5 -35.5t-35.5 -14.5zM174 69h345v-69h-416v700h409v-69h-338
v-242h319v-69h-319v-251z" />
    <glyph glyph-name="Igrave" unicode="&#xcc;" horiz-adv-x="463" 
d="M279 764h-67l-103 126v6h82l88 -127v-5zM268 67h136v-67h-345v67h137v568h-134v65h339v-65h-133v-568z" />
    <glyph glyph-name="Iacute" unicode="&#xcd;" horiz-adv-x="463" 
d="M352 890l-102 -126h-69v5l89 127h82v-6zM268 67h136v-67h-345v67h137v568h-134v65h339v-65h-133v-568z" />
    <glyph glyph-name="Icircumflex" unicode="&#xce;" horiz-adv-x="463" 
d="M231 854l-92 -90h-69v7l128 125h69l126 -125v-7h-69zM268 67h136v-67h-345v67h137v568h-134v65h339v-65h-133v-568z" />
    <glyph glyph-name="Idieresis" unicode="&#xcf;" horiz-adv-x="463" 
d="M127 780q-21 0 -35.5 14.5t-14.5 35.5q0 22 14.5 36t35.5 14q22 0 36 -14t14 -36q0 -21 -14 -35.5t-36 -14.5zM337 780q-22 0 -36.5 14.5t-14.5 35.5q0 22 14.5 36t36.5 14q21 0 35.5 -14t14.5 -36q0 -21 -14.5 -35.5t-35.5 -14.5zM268 67h136v-67h-345v67h137v568h-134
v65h339v-65h-133v-568z" />
    <glyph glyph-name="Eth" unicode="&#xd0;" horiz-adv-x="756" 
d="M339 700q80 0 145.5 -25.5t112.5 -72t73 -110.5t26 -142t-26 -142t-73 -110.5t-112.5 -72t-145.5 -25.5h-232v320h-97v64h97v316h232zM335 69q66 0 119 20.5t90.5 57t58 88.5t20.5 115t-20.5 115t-58 88.5t-90.5 57t-119 20.5h-156v-247h224v-64h-224v-251h156z" />
    <glyph glyph-name="Ntilde" unicode="&#xd1;" horiz-adv-x="733" 
d="M297 847q-48 0 -48 -77h-50q0 64 24.5 94.5t68.5 30.5q33 0 54.5 -16t38.5 -33q13 -14 26.5 -24.5t29.5 -10.5q48 0 48 78h51q0 -125 -93 -125q-33 0 -54.5 15.5t-38.5 32.5q-14 14 -27 24.5t-30 10.5zM631 700v-700h-57l-400 556v-556h-71v700h54l402 -559v559h72z" />
    <glyph glyph-name="Ograve" unicode="&#xd2;" horiz-adv-x="826" 
d="M460 764h-67l-103 126v6h82l88 -127v-5zM413 -11q-76 0 -140.5 27.5t-111.5 75.5t-73.5 114t-26.5 144t26.5 144t73.5 114t111.5 75.5t140.5 27.5t140.5 -27.5t112 -75.5t74 -114t26.5 -144t-26.5 -144t-74 -114t-112 -75.5t-140.5 -27.5zM413 60q61 0 112 22t88.5 60.5
t58.5 91.5t21 116t-21 116t-58.5 91.5t-88.5 60.5t-112 22q-60 0 -111.5 -22t-88.5 -60.5t-58 -91.5t-21 -116t21 -116t58 -91.5t88.5 -60.5t111.5 -22z" />
    <glyph glyph-name="Oacute" unicode="&#xd3;" horiz-adv-x="826" 
d="M362 764v5l89 127h82v-6l-102 -126h-69zM413 -11q-76 0 -140.5 27.5t-111.5 75.5t-73.5 114t-26.5 144t26.5 144t73.5 114t111.5 75.5t140.5 27.5t140.5 -27.5t112 -75.5t74 -114t26.5 -144t-26.5 -144t-74 -114t-112 -75.5t-140.5 -27.5zM413 60q61 0 112 22t88.5 60.5
t58.5 91.5t21 116t-21 116t-58.5 91.5t-88.5 60.5t-112 22q-60 0 -111.5 -22t-88.5 -60.5t-58 -91.5t-21 -116t21 -116t58 -91.5t88.5 -60.5t111.5 -22z" />
    <glyph glyph-name="Ocircumflex" unicode="&#xd4;" horiz-adv-x="826" 
d="M413 854l-92 -90h-69v7l128 125h69l126 -125v-7h-69zM413 711q76 0 140.5 -27.5t112 -75.5t74 -114t26.5 -144t-26.5 -144t-74 -114t-112 -75.5t-140.5 -27.5t-140.5 27.5t-111.5 75.5t-73.5 114t-26.5 144t26.5 144t73.5 114t111.5 75.5t140.5 27.5zM413 60q61 0 112 22
t88.5 60.5t58.5 91.5t21 116t-21 116t-58.5 91.5t-88.5 60.5t-112 22q-60 0 -111.5 -22t-88.5 -60.5t-58 -91.5t-21 -116t21 -116t58 -91.5t88.5 -60.5t111.5 -22z" />
    <glyph glyph-name="Otilde" unicode="&#xd5;" horiz-adv-x="826" 
d="M490 764q-33 0 -54.5 15.5t-38.5 32.5q-14 14 -27 24.5t-30 10.5q-48 0 -48 -77h-50q0 64 24.5 94.5t68.5 30.5q33 0 54.5 -16t38.5 -33q13 -14 26.5 -24.5t29.5 -10.5q48 0 48 78h51q0 -125 -93 -125zM413 -11q-76 0 -140.5 27.5t-111.5 75.5t-73.5 114t-26.5 144
t26.5 144t73.5 114t111.5 75.5t140.5 27.5t140.5 -27.5t112 -75.5t74 -114t26.5 -144t-26.5 -144t-74 -114t-112 -75.5t-140.5 -27.5zM413 60q61 0 112 22t88.5 60.5t58.5 91.5t21 116t-21 116t-58.5 91.5t-88.5 60.5t-112 22q-60 0 -111.5 -22t-88.5 -60.5t-58 -91.5
t-21 -116t21 -116t58 -91.5t88.5 -60.5t111.5 -22z" />
    <glyph glyph-name="Odieresis" unicode="&#xd6;" horiz-adv-x="826" 
d="M308 780q-21 0 -35.5 14.5t-14.5 35.5q0 22 14.5 36t35.5 14q22 0 36 -14t14 -36q0 -21 -14 -35.5t-36 -14.5zM518 780q-22 0 -36.5 14.5t-14.5 35.5q0 22 14.5 36t36.5 14q21 0 35.5 -14t14.5 -36q0 -21 -14.5 -35.5t-35.5 -14.5zM413 -11q-76 0 -140.5 27.5
t-111.5 75.5t-73.5 114t-26.5 144t26.5 144t73.5 114t111.5 75.5t140.5 27.5t140.5 -27.5t112 -75.5t74 -114t26.5 -144t-26.5 -144t-74 -114t-112 -75.5t-140.5 -27.5zM413 60q61 0 112 22t88.5 60.5t58.5 91.5t21 116t-21 116t-58.5 91.5t-88.5 60.5t-112 22
q-60 0 -111.5 -22t-88.5 -60.5t-58 -91.5t-21 -116t21 -116t58 -91.5t88.5 -60.5t111.5 -22z" />
    <glyph glyph-name="multiply" unicode="&#xd7;" horiz-adv-x="390" 
d="M358 472l-120 -120l120 -120l-43 -44l-120 121l-120 -121l-43 44l121 120l-120 119l43 43l119 -119l120 120z" />
    <glyph glyph-name="Oslash" unicode="&#xd8;" horiz-adv-x="826" 
d="M628 642q64 -49 101 -124t37 -168q0 -78 -26.5 -144t-74 -114t-112 -75.5t-140.5 -27.5q-44 0 -84 9.5t-75 26.5l-51 -85h-72v7l68 112q-64 48 -101 123t-37 168q0 78 26.5 144t73.5 114t111.5 75.5t140.5 27.5q44 0 84 -9.5t75 -26.5l51 84h72v-7zM134 350
q0 -72 27.5 -131.5t75.5 -98.5l298 494q-55 26 -122 26q-60 0 -111.5 -22t-88.5 -60.5t-58 -91.5t-21 -116zM413 60q61 0 112 22t88.5 60.5t58.5 91.5t21 116q0 72 -27.5 131.5t-76.5 98.5l-299 -493q27 -13 58 -20t65 -7z" />
    <glyph glyph-name="Ugrave" unicode="&#xd9;" horiz-adv-x="699" 
d="M397 764h-67l-103 126v6h82l88 -127v-5zM350 -7q-59 0 -107 18t-82.5 51.5t-53.5 80.5t-19 105v452h72v-448q0 -43 13.5 -78t38.5 -59.5t60 -38t78 -13.5q42 0 77 13.5t60 38t38.5 59.5t13.5 78v448h72v-452q0 -58 -19 -105t-53 -80.5t-82 -51.5t-107 -18z" />
    <glyph glyph-name="Uacute" unicode="&#xda;" horiz-adv-x="699" 
d="M299 764v5l89 127h82v-6l-102 -126h-69zM350 -7q-59 0 -107 18t-82.5 51.5t-53.5 80.5t-19 105v452h72v-448q0 -43 13.5 -78t38.5 -59.5t60 -38t78 -13.5q42 0 77 13.5t60 38t38.5 59.5t13.5 78v448h72v-452q0 -58 -19 -105t-53 -80.5t-82 -51.5t-107 -18z" />
    <glyph glyph-name="Ucircumflex" unicode="&#xdb;" horiz-adv-x="699" 
d="M349 854l-92 -90h-69v7l128 125h69l126 -125v-7h-69zM539 700h72v-452q0 -58 -19 -105t-53 -80.5t-82 -51.5t-107 -18t-107 18t-82.5 51.5t-53.5 80.5t-19 105v452h72v-448q0 -43 13.5 -78t38.5 -59.5t60 -38t78 -13.5q42 0 77 13.5t60 38t38.5 59.5t13.5 78v448z" />
    <glyph glyph-name="Udieresis" unicode="&#xdc;" horiz-adv-x="699" 
d="M245 780q-21 0 -35.5 14.5t-14.5 35.5q0 22 14.5 36t35.5 14q22 0 36 -14t14 -36q0 -21 -14 -35.5t-36 -14.5zM455 780q-22 0 -36.5 14.5t-14.5 35.5q0 22 14.5 36t36.5 14q21 0 35.5 -14t14.5 -36q0 -21 -14.5 -35.5t-35.5 -14.5zM350 -7q-59 0 -107 18t-82.5 51.5
t-53.5 80.5t-19 105v452h72v-448q0 -43 13.5 -78t38.5 -59.5t60 -38t78 -13.5q42 0 77 13.5t60 38t38.5 59.5t13.5 78v448h72v-452q0 -58 -19 -105t-53 -80.5t-82 -51.5t-107 -18z" />
    <glyph glyph-name="Yacute" unicode="&#xdd;" horiz-adv-x="617" 
d="M429 890l-102 -126h-69v5l89 127h82v-6zM600 700v-7l-255 -407v-286h-72v283l-256 410v7h81l132 -212l78 -127l79 127l134 212h79z" />
    <glyph glyph-name="Thorn" unicode="&#xde;" horiz-adv-x="604" 
d="M354 582q50 0 90.5 -17t70 -47.5t45.5 -72.5t16 -93t-16 -93.5t-45.5 -72.5t-70 -47t-90.5 -17h-180v-122h-71v700h71v-118h180zM345 191q72 0 115.5 44t43.5 117q0 72 -43.5 116t-115.5 44h-171v-321h171z" />
    <glyph glyph-name="germandbls" unicode="&#xdf;" horiz-adv-x="620" 
d="M448 384q60 -25 90.5 -73t30.5 -115q0 -95 -58.5 -149.5t-161.5 -54.5q-24 0 -50 2t-55 6v65q51 -9 100 -9q76 0 116.5 37.5t40.5 106.5q0 33 -11 60.5t-31 47t-47 30t-60 10.5h-88v65h88q26 0 48.5 9.5t39 27t25.5 41.5t9 53q0 63 -39 100t-107 37q-82 0 -123.5 -48.5
t-41.5 -139.5v-493h-68v493q0 121 62 186.5t171 65.5q49 0 88.5 -14t67.5 -40t43 -62.5t15 -81.5q0 -53 -24.5 -96t-69.5 -67z" />
    <glyph glyph-name="agrave" unicode="&#xe0;" horiz-adv-x="693" 
d="M393 587h-70l-93 127v6h85l78 -127v-6zM530 530h68v-530h-68v93q-35 -48 -89.5 -74.5t-121.5 -26.5q-58 0 -106.5 20.5t-83.5 57t-55 86.5t-20 109t20 109t55 86.5t83.5 57t106.5 20.5q67 0 121.5 -26.5t89.5 -74.5v93zM327 56q44 0 81.5 15.5t64.5 43.5t42.5 66.5
t15.5 83.5t-15.5 83.5t-42.5 66.5t-64.5 43.5t-81.5 15.5t-81.5 -15.5t-64.5 -43.5t-42.5 -66.5t-15.5 -83.5t15.5 -83.5t42.5 -66.5t64.5 -43.5t81.5 -15.5z" />
    <glyph glyph-name="aacute" unicode="&#xe1;" horiz-adv-x="693" 
d="M455 714l-93 -127h-69v6l78 127h84v-6zM530 530h68v-530h-68v93q-35 -48 -89.5 -74.5t-121.5 -26.5q-58 0 -106.5 20.5t-83.5 57t-55 86.5t-20 109t20 109t55 86.5t83.5 57t106.5 20.5q67 0 121.5 -26.5t89.5 -74.5v93zM327 56q44 0 81.5 15.5t64.5 43.5t42.5 66.5
t15.5 83.5t-15.5 83.5t-42.5 66.5t-64.5 43.5t-81.5 15.5t-81.5 -15.5t-64.5 -43.5t-42.5 -66.5t-15.5 -83.5t15.5 -83.5t42.5 -66.5t64.5 -43.5t81.5 -15.5z" />
    <glyph glyph-name="acircumflex" unicode="&#xe2;" horiz-adv-x="693" 
d="M342 675l-89 -89h-73v7l128 125h69l127 -125v-7h-73zM530 530h68v-530h-68v93q-35 -48 -89.5 -74.5t-121.5 -26.5q-58 0 -106.5 20.5t-83.5 57t-55 86.5t-20 109t20 109t55 86.5t83.5 57t106.5 20.5q67 0 121.5 -26.5t89.5 -74.5v93zM327 56q44 0 81.5 15.5t64.5 43.5
t42.5 66.5t15.5 83.5t-15.5 83.5t-42.5 66.5t-64.5 43.5t-81.5 15.5t-81.5 -15.5t-64.5 -43.5t-42.5 -66.5t-15.5 -83.5t15.5 -83.5t42.5 -66.5t64.5 -43.5t81.5 -15.5z" />
    <glyph glyph-name="atilde" unicode="&#xe3;" horiz-adv-x="693" 
d="M268 667q-48 0 -48 -77h-49q0 65 24.5 95t68.5 30q33 0 55.5 -15.5t39.5 -33.5q13 -14 26.5 -24t28.5 -10q49 0 49 77h49q0 -62 -24 -93.5t-69 -31.5q-33 0 -55.5 15.5t-39.5 32.5q-14 14 -27 24.5t-29 10.5zM530 530h68v-530h-68v93q-35 -48 -89.5 -74.5t-121.5 -26.5
q-58 0 -106.5 20.5t-83.5 57t-55 86.5t-20 109t20 109t55 86.5t83.5 57t106.5 20.5q67 0 121.5 -26.5t89.5 -74.5v93zM327 56q44 0 81.5 15.5t64.5 43.5t42.5 66.5t15.5 83.5t-15.5 83.5t-42.5 66.5t-64.5 43.5t-81.5 15.5t-81.5 -15.5t-64.5 -43.5t-42.5 -66.5t-15.5 -83.5
t15.5 -83.5t42.5 -66.5t64.5 -43.5t81.5 -15.5z" />
    <glyph glyph-name="adieresis" unicode="&#xe4;" horiz-adv-x="693" 
d="M233 603q-21 0 -35.5 14.5t-14.5 36.5q0 21 14.5 35.5t35.5 14.5t36 -14.5t15 -35.5q0 -22 -15 -36.5t-36 -14.5zM450 603q-22 0 -36.5 14.5t-14.5 36.5q0 21 14.5 35.5t36.5 14.5q21 0 35.5 -14.5t14.5 -35.5q0 -22 -14.5 -36.5t-35.5 -14.5zM530 530h68v-530h-68v93
q-35 -48 -89.5 -74.5t-121.5 -26.5q-58 0 -106.5 20.5t-83.5 57t-55 86.5t-20 109t20 109t55 86.5t83.5 57t106.5 20.5q67 0 121.5 -26.5t89.5 -74.5v93zM327 56q44 0 81.5 15.5t64.5 43.5t42.5 66.5t15.5 83.5t-15.5 83.5t-42.5 66.5t-64.5 43.5t-81.5 15.5t-81.5 -15.5
t-64.5 -43.5t-42.5 -66.5t-15.5 -83.5t15.5 -83.5t42.5 -66.5t64.5 -43.5t81.5 -15.5z" />
    <glyph glyph-name="aring" unicode="&#xe5;" horiz-adv-x="693" 
d="M342 580q-45 0 -72 25t-27 66t27 66t72 25t72 -25t27 -66t-27 -66t-72 -25zM342 722q-25 0 -39 -15t-14 -36t14 -36.5t39 -15.5t39 15.5t14 36.5t-14 36t-39 15zM530 530h68v-530h-68v93q-35 -48 -89.5 -74.5t-121.5 -26.5q-58 0 -106.5 20.5t-83.5 57t-55 86.5t-20 109
t20 109t55 86.5t83.5 57t106.5 20.5q67 0 121.5 -26.5t89.5 -74.5v93zM327 56q44 0 81.5 15.5t64.5 43.5t42.5 66.5t15.5 83.5t-15.5 83.5t-42.5 66.5t-64.5 43.5t-81.5 15.5t-81.5 -15.5t-64.5 -43.5t-42.5 -66.5t-15.5 -83.5t15.5 -83.5t42.5 -66.5t64.5 -43.5t81.5 -15.5
z" />
    <glyph glyph-name="ae" unicode="&#xe6;" horiz-adv-x="1120" 
d="M601 243q3 -41 19 -75.5t42.5 -59t61.5 -38.5t76 -14q61 0 108 26t71 74h74q-29 -77 -95 -120.5t-154 -43.5q-65 0 -118 24.5t-88 69.5v-86h-68v93q-35 -48 -89 -74.5t-122 -26.5q-58 0 -106.5 20.5t-83.5 57t-55 86.5t-20 109t20 109t55 86.5t83.5 57t106.5 20.5
q68 0 122 -26.5t89 -74.5v93h68v-86q35 45 88 69.5t118 24.5q62 0 112 -22t85 -61t53 -93t16 -119h-469zM327 56q44 0 81.5 15.5t64.5 43.5t42.5 66.5t15.5 83.5t-15.5 83.5t-42.5 66.5t-64.5 43.5t-81.5 15.5q-45 0 -82.5 -15.5t-64.5 -43.5t-42 -66.5t-15 -83.5t15 -83.5
t42 -66.5t64.5 -43.5t82.5 -15.5zM800 474q-39 0 -73 -12.5t-59.5 -35t-42 -54t-22.5 -70.5h396q-6 38 -23 69.5t-43.5 54t-60 35.5t-72.5 13z" />
    <glyph glyph-name="ccedilla" unicode="&#xe7;" horiz-adv-x="626" 
d="M582 186q-22 -84 -83 -134.5t-148 -58.5l-20 -39q47 0 69.5 -19t22.5 -51q0 -38 -26.5 -58.5t-77.5 -20.5q-18 0 -40.5 3.5t-45.5 8.5v50q39 -12 75 -12q26 0 42.5 7.5t16.5 25.5q0 17 -16.5 24t-39.5 7q-20 0 -36 -4l-10 15l32 63q-54 4 -98.5 26t-76.5 57.5t-50 83.5
t-18 104q0 60 20 110.5t55.5 87t85 56.5t108.5 20q48 0 90 -13.5t75 -38t56.5 -60.5t35.5 -81h-68q-22 61 -71 95t-116 34q-45 0 -82 -15.5t-63.5 -43t-41.5 -66t-15 -85.5q0 -46 15 -84t41.5 -65.5t63.5 -43t82 -15.5q69 0 117.5 34t70.5 96h69z" />
    <glyph glyph-name="egrave" unicode="&#xe8;" horiz-adv-x="643" 
d="M375 587h-70l-93 127v6h85l78 -127v-6zM124 243q3 -41 19 -75.5t42.5 -59t61.5 -38.5t76 -14q60 0 107.5 26t71.5 74h74q-29 -77 -96 -120.5t-157 -43.5q-58 0 -107.5 20.5t-85.5 56.5t-56 86t-20 110t20 110t56 86t85.5 56.5t107.5 20.5q61 0 112 -21.5t87 -60t55 -93
t16 -120.5h-469zM323 474q-39 0 -73 -12.5t-59.5 -35t-42 -54t-22.5 -70.5h396q-6 38 -23 69.5t-43 54t-60 35.5t-73 13z" />
    <glyph glyph-name="eacute" unicode="&#xe9;" horiz-adv-x="643" 
d="M436 714l-93 -127h-69v6l78 127h84v-6zM124 243q3 -41 19 -75.5t42.5 -59t61.5 -38.5t76 -14q60 0 107.5 26t71.5 74h74q-29 -77 -96 -120.5t-157 -43.5q-58 0 -107.5 20.5t-85.5 56.5t-56 86t-20 110t20 110t56 86t85.5 56.5t107.5 20.5q61 0 112 -21.5t87 -60t55 -93
t16 -120.5h-469zM323 474q-39 0 -73 -12.5t-59.5 -35t-42 -54t-22.5 -70.5h396q-6 38 -23 69.5t-43 54t-60 35.5t-73 13z" />
    <glyph glyph-name="ecircumflex" unicode="&#xea;" horiz-adv-x="643" 
d="M324 675l-89 -89h-73v7l128 125h69l127 -125v-7h-73zM124 243q3 -41 19 -75.5t42.5 -59t61.5 -38.5t76 -14q60 0 107.5 26t71.5 74h74q-29 -77 -96 -120.5t-157 -43.5q-58 0 -107.5 20.5t-85.5 56.5t-56 86t-20 110t20 110t56 86t85.5 56.5t107.5 20.5q61 0 112 -21.5
t87 -60t55 -93t16 -120.5h-469zM323 474q-39 0 -73 -12.5t-59.5 -35t-42 -54t-22.5 -70.5h396q-6 38 -23 69.5t-43 54t-60 35.5t-73 13z" />
    <glyph glyph-name="edieresis" unicode="&#xeb;" horiz-adv-x="643" 
d="M215 603q-21 0 -35.5 14.5t-14.5 36.5q0 21 14.5 35.5t35.5 14.5t36 -14.5t15 -35.5q0 -22 -15 -36.5t-36 -14.5zM432 603q-22 0 -36.5 14.5t-14.5 36.5q0 21 14.5 35.5t36.5 14.5q21 0 35.5 -14.5t14.5 -35.5q0 -22 -14.5 -36.5t-35.5 -14.5zM124 243q3 -41 19 -75.5
t42.5 -59t61.5 -38.5t76 -14q60 0 107.5 26t71.5 74h74q-29 -77 -96 -120.5t-157 -43.5q-58 0 -107.5 20.5t-85.5 56.5t-56 86t-20 110t20 110t56 86t85.5 56.5t107.5 20.5q61 0 112 -21.5t87 -60t55 -93t16 -120.5h-469zM323 474q-39 0 -73 -12.5t-59.5 -35t-42 -54
t-22.5 -70.5h396q-6 38 -23 69.5t-43 54t-60 35.5t-73 13z" />
    <glyph glyph-name="igrave" unicode="&#xec;" horiz-adv-x="259" 
d="M101 587l-63 129v6h79l49 -129v-6h-65zM95 0v530h68v-530h-68z" />
    <glyph glyph-name="iacute" unicode="&#xed;" horiz-adv-x="259" 
d="M92 587v6l50 129h79v-6l-64 -129h-65zM95 0v530h68v-530h-68z" />
    <glyph glyph-name="icircumflex" unicode="&#xee;" horiz-adv-x="259" 
d="M156 722l106 -129v-6h-74l-58 74l-58 -74h-74v6l105 129h53zM95 0v530h68v-530h-68z" />
    <glyph glyph-name="idieresis" unicode="&#xef;" horiz-adv-x="259" 
d="M33 603q-20 0 -34.5 14.5t-14.5 36.5q0 21 14.5 35.5t34.5 14.5q21 0 35.5 -14.5t14.5 -35.5q0 -22 -14.5 -36.5t-35.5 -14.5zM226 603q-21 0 -35.5 14.5t-14.5 36.5q0 21 14.5 35.5t35.5 14.5q20 0 34.5 -14.5t14.5 -35.5q0 -22 -14.5 -36.5t-34.5 -14.5zM95 0v530h68
v-530h-68z" />
    <glyph glyph-name="eth" unicode="&#xf0;" horiz-adv-x="652" 
d="M477 529q37 -40 60.5 -74t37 -65t19 -61t5.5 -64q0 -59 -20.5 -109t-56.5 -86.5t-86 -57t-110 -20.5q-59 0 -109 20.5t-86 57t-56.5 86.5t-20.5 109t20.5 108t57 85t86.5 56t108 20q42 0 77 -14l-74 83l-143 -42v46l111 33l-66 73v4h79l52 -58l138 41v-46l-106 -31z
M326 56q44 0 81.5 15.5t64.5 43.5t42 66.5t15 83.5t-15.5 83t-42.5 65.5t-64 43.5t-81 16t-81.5 -16t-64.5 -43.5t-42 -65.5t-15 -83t15 -83.5t42 -66.5t64.5 -43.5t81.5 -15.5z" />
    <glyph glyph-name="ntilde" unicode="&#xf1;" horiz-adv-x="670" 
d="M262 667q-48 0 -48 -77h-49q0 65 24.5 95t68.5 30q33 0 55.5 -15.5t39.5 -33.5q13 -14 26.5 -24t28.5 -10q49 0 49 77h49q0 -62 -24 -93.5t-69 -31.5q-33 0 -55.5 15.5t-39.5 32.5q-14 14 -27 24.5t-29 10.5zM361 538q105 0 164 -64t59 -180v-294h-68v291q0 90 -42.5 137
t-123.5 47q-42 0 -76.5 -13.5t-59 -37.5t-38 -57.5t-13.5 -74.5v-292h-68v530h68v-94q29 47 80.5 74.5t117.5 27.5z" />
    <glyph glyph-name="ograve" unicode="&#xf2;" horiz-adv-x="654" 
d="M379 587h-70l-93 127v6h85l78 -127v-6zM327 -8q-60 0 -110 20.5t-86 57t-56.5 86.5t-20.5 109t20.5 109t56.5 86.5t86 57t110 20.5t110 -20.5t86 -57t56.5 -86.5t20.5 -109t-20.5 -109t-56.5 -86.5t-86 -57t-110 -20.5zM327 56q44 0 81.5 15.5t64.5 43.5t42.5 66.5
t15.5 83.5t-15.5 83.5t-42.5 66.5t-64.5 43.5t-81.5 15.5t-81.5 -15.5t-64.5 -43.5t-42.5 -66.5t-15.5 -83.5t15.5 -83.5t42.5 -66.5t64.5 -43.5t81.5 -15.5z" />
    <glyph glyph-name="oacute" unicode="&#xf3;" horiz-adv-x="654" 
d="M278 587v6l78 127h84v-6l-93 -127h-69zM327 -8q-60 0 -110 20.5t-86 57t-56.5 86.5t-20.5 109t20.5 109t56.5 86.5t86 57t110 20.5t110 -20.5t86 -57t56.5 -86.5t20.5 -109t-20.5 -109t-56.5 -86.5t-86 -57t-110 -20.5zM327 56q44 0 81.5 15.5t64.5 43.5t42.5 66.5
t15.5 83.5t-15.5 83.5t-42.5 66.5t-64.5 43.5t-81.5 15.5t-81.5 -15.5t-64.5 -43.5t-42.5 -66.5t-15.5 -83.5t15.5 -83.5t42.5 -66.5t64.5 -43.5t81.5 -15.5z" />
    <glyph glyph-name="ocircumflex" unicode="&#xf4;" horiz-adv-x="654" 
d="M327 675l-89 -89h-73v7l128 125h69l127 -125v-7h-73zM327 538q60 0 110 -20.5t86 -57t56.5 -86.5t20.5 -109t-20.5 -109t-56.5 -86.5t-86 -57t-110 -20.5t-110 20.5t-86 57t-56.5 86.5t-20.5 109t20.5 109t56.5 86.5t86 57t110 20.5zM327 56q44 0 81.5 15.5t64.5 43.5
t42.5 66.5t15.5 83.5t-15.5 83.5t-42.5 66.5t-64.5 43.5t-81.5 15.5t-81.5 -15.5t-64.5 -43.5t-42.5 -66.5t-15.5 -83.5t15.5 -83.5t42.5 -66.5t64.5 -43.5t81.5 -15.5z" />
    <glyph glyph-name="otilde" unicode="&#xf5;" horiz-adv-x="654" 
d="M404 584q-33 0 -55.5 15.5t-39.5 32.5q-14 14 -27 24.5t-29 10.5q-48 0 -48 -77h-49q0 65 24.5 95t68.5 30q33 0 55.5 -15.5t39.5 -33.5q13 -14 26.5 -24t28.5 -10q49 0 49 77h49q0 -62 -24 -93.5t-69 -31.5zM327 -8q-60 0 -110 20.5t-86 57t-56.5 86.5t-20.5 109
t20.5 109t56.5 86.5t86 57t110 20.5t110 -20.5t86 -57t56.5 -86.5t20.5 -109t-20.5 -109t-56.5 -86.5t-86 -57t-110 -20.5zM327 56q44 0 81.5 15.5t64.5 43.5t42.5 66.5t15.5 83.5t-15.5 83.5t-42.5 66.5t-64.5 43.5t-81.5 15.5t-81.5 -15.5t-64.5 -43.5t-42.5 -66.5
t-15.5 -83.5t15.5 -83.5t42.5 -66.5t64.5 -43.5t81.5 -15.5z" />
    <glyph glyph-name="odieresis" unicode="&#xf6;" horiz-adv-x="654" 
d="M219 603q-21 0 -35.5 14.5t-14.5 36.5q0 21 14.5 35.5t35.5 14.5t36 -14.5t15 -35.5q0 -22 -15 -36.5t-36 -14.5zM436 603q-22 0 -36.5 14.5t-14.5 36.5q0 21 14.5 35.5t36.5 14.5q21 0 35.5 -14.5t14.5 -35.5q0 -22 -14.5 -36.5t-35.5 -14.5zM327 -8q-60 0 -110 20.5
t-86 57t-56.5 86.5t-20.5 109t20.5 109t56.5 86.5t86 57t110 20.5t110 -20.5t86 -57t56.5 -86.5t20.5 -109t-20.5 -109t-56.5 -86.5t-86 -57t-110 -20.5zM327 56q44 0 81.5 15.5t64.5 43.5t42.5 66.5t15.5 83.5t-15.5 83.5t-42.5 66.5t-64.5 43.5t-81.5 15.5t-81.5 -15.5
t-64.5 -43.5t-42.5 -66.5t-15.5 -83.5t15.5 -83.5t42.5 -66.5t64.5 -43.5t81.5 -15.5z" />
    <glyph glyph-name="divide" unicode="&#xf7;" horiz-adv-x="482" 
d="M241 483q-21 0 -34.5 14t-13.5 34t13.5 34t34.5 14t34.5 -14t13.5 -34t-13.5 -34t-34.5 -14zM54 319v60h375v-60h-375zM241 118q-21 0 -34.5 13.5t-13.5 34.5q0 20 13.5 34t34.5 14t34.5 -14t13.5 -34q0 -21 -13.5 -34.5t-34.5 -13.5z" />
    <glyph glyph-name="oslash" unicode="&#xf8;" horiz-adv-x="659" 
d="M493 488q51 -37 80.5 -94t29.5 -129q0 -59 -20.5 -109t-57 -86.5t-86.5 -57t-110 -20.5t-113 22l-50 -85h-65v6l64 107q-51 37 -80 94.5t-29 128.5q0 59 20.5 109t56.5 86.5t86 57t110 20.5q61 0 114 -22l50 85h64v-6zM125 265q0 -53 20 -95.5t55 -70.5l209 360
q-36 15 -80 15t-81.5 -15.5t-64.5 -43.5t-42.5 -66.5t-15.5 -83.5zM329 56q45 0 82.5 15.5t64.5 43.5t42 66.5t15 83.5q0 53 -20.5 95.5t-55.5 71.5l-209 -361q36 -15 81 -15z" />
    <glyph glyph-name="ugrave" unicode="&#xf9;" horiz-adv-x="657" 
d="M380 587h-70l-93 127v6h85l78 -127v-6zM503 530h68v-530h-68v96q-30 -49 -80.5 -76.5t-116.5 -27.5q-104 0 -162 64.5t-58 179.5v294h68v-293q0 -88 42 -135t122 -47q42 0 76 13t58 37t37.5 57.5t13.5 73.5v294z" />
    <glyph glyph-name="uacute" unicode="&#xfa;" horiz-adv-x="657" 
d="M442 714l-93 -127h-69v6l78 127h84v-6zM503 530h68v-530h-68v96q-30 -49 -80.5 -76.5t-116.5 -27.5q-104 0 -162 64.5t-58 179.5v294h68v-293q0 -88 42 -135t122 -47q42 0 76 13t58 37t37.5 57.5t13.5 73.5v294z" />
    <glyph glyph-name="ucircumflex" unicode="&#xfb;" horiz-adv-x="657" 
d="M329 675l-89 -89h-73v7l128 125h69l127 -125v-7h-73zM503 530h68v-530h-68v96q-30 -49 -80.5 -76.5t-116.5 -27.5q-104 0 -162 64.5t-58 179.5v294h68v-293q0 -88 42 -135t122 -47q42 0 76 13t58 37t37.5 57.5t13.5 73.5v294z" />
    <glyph glyph-name="udieresis" unicode="&#xfc;" horiz-adv-x="657" 
d="M220 603q-21 0 -35.5 14.5t-14.5 36.5q0 21 14.5 35.5t35.5 14.5t36 -14.5t15 -35.5q0 -22 -15 -36.5t-36 -14.5zM437 603q-22 0 -36.5 14.5t-14.5 36.5q0 21 14.5 35.5t36.5 14.5q21 0 35.5 -14.5t14.5 -35.5q0 -22 -14.5 -36.5t-35.5 -14.5zM503 530h68v-530h-68v96
q-30 -49 -80.5 -76.5t-116.5 -27.5q-104 0 -162 64.5t-58 179.5v294h68v-293q0 -88 42 -135t122 -47q42 0 76 13t58 37t37.5 57.5t13.5 73.5v294z" />
    <glyph glyph-name="yacute" unicode="&#xfd;" horiz-adv-x="547" 
d="M387 714l-93 -127h-69v6l78 127h84v-6zM453 530h76v-4l-322 -679h-74v3l100 209l-215 467v4h75l103 -227l74 -169l76 166z" />
    <glyph glyph-name="thorn" unicode="&#xfe;" horiz-adv-x="694" 
d="M375 538q58 0 106.5 -20.5t84 -57t55 -86.5t19.5 -109t-19.5 -109t-55 -86.5t-84 -57t-106.5 -20.5q-68 0 -122.5 27t-89.5 75v-247h-68v853h68v-264q35 48 89.5 75t122.5 27zM367 56q44 0 81.5 15.5t64.5 43.5t42.5 66.5t15.5 83.5t-15.5 83.5t-42.5 66.5t-64.5 43.5
t-81.5 15.5q-45 0 -82.5 -15.5t-64.5 -43.5t-42.5 -66.5t-15.5 -83.5t15.5 -83.5t42.5 -66.5t64.5 -43.5t82.5 -15.5z" />
    <glyph glyph-name="ydieresis" unicode="&#xff;" horiz-adv-x="547" 
d="M165 603q-21 0 -35.5 14.5t-14.5 36.5q0 21 14.5 35.5t35.5 14.5t36 -14.5t15 -35.5q0 -22 -15 -36.5t-36 -14.5zM382 603q-22 0 -36.5 14.5t-14.5 36.5q0 21 14.5 35.5t36.5 14.5q21 0 35.5 -14.5t14.5 -35.5q0 -22 -14.5 -36.5t-35.5 -14.5zM453 530h76v-4l-322 -679
h-74v3l100 209l-215 467v4h75l103 -227l74 -169l76 166z" />
    <glyph glyph-name="Amacron" unicode="&#x100;" horiz-adv-x="648" 
d="M480 860v-54h-311v54h311zM350 700l282 -693v-7h-75l-71 179h-324l-72 -179h-74v7l282 693h52zM324 586l-136 -340h272z" />
    <glyph glyph-name="amacron" unicode="&#x101;" horiz-adv-x="693" 
d="M490 674v-54h-296v54h296zM530 530h68v-530h-68v93q-35 -48 -89.5 -74.5t-121.5 -26.5q-58 0 -106.5 20.5t-83.5 57t-55 86.5t-20 109t20 109t55 86.5t83.5 57t106.5 20.5q67 0 121.5 -26.5t89.5 -74.5v93zM327 56q44 0 81.5 15.5t64.5 43.5t42.5 66.5t15.5 83.5
t-15.5 83.5t-42.5 66.5t-64.5 43.5t-81.5 15.5t-81.5 -15.5t-64.5 -43.5t-42.5 -66.5t-15.5 -83.5t15.5 -83.5t42.5 -66.5t64.5 -43.5t81.5 -15.5z" />
    <glyph glyph-name="Abreve" unicode="&#x102;" horiz-adv-x="648" 
d="M324 763q-69 0 -109.5 35.5t-40.5 95.5h59q0 -37 24.5 -57.5t66.5 -20.5t66.5 20.5t24.5 57.5h58q0 -60 -40 -95.5t-109 -35.5zM350 700l282 -693v-7h-75l-71 179h-324l-72 -179h-74v7l282 693h52zM324 586l-136 -340h272z" />
    <glyph glyph-name="abreve" unicode="&#x103;" horiz-adv-x="693" 
d="M341 593q-69 0 -109 35.5t-40 94.5h58q0 -35 24.5 -56.5t66.5 -21.5t67 21.5t25 56.5h58q0 -58 -40.5 -94t-109.5 -36zM530 530h68v-530h-68v93q-35 -48 -89.5 -74.5t-121.5 -26.5q-58 0 -106.5 20.5t-83.5 57t-55 86.5t-20 109t20 109t55 86.5t83.5 57t106.5 20.5
q67 0 121.5 -26.5t89.5 -74.5v93zM327 56q44 0 81.5 15.5t64.5 43.5t42.5 66.5t15.5 83.5t-15.5 83.5t-42.5 66.5t-64.5 43.5t-81.5 15.5t-81.5 -15.5t-64.5 -43.5t-42.5 -66.5t-15.5 -83.5t15.5 -83.5t42.5 -66.5t64.5 -43.5t81.5 -15.5z" />
    <glyph glyph-name="Aogonek" unicode="&#x104;" horiz-adv-x="648" 
d="M578 -138q25 0 58 11v-51q-20 -8 -37 -11.5t-35 -3.5q-38 0 -65 18t-27 57q0 29 21.5 57.5t63.5 60.5l-71 179h-324l-72 -179h-74v7l282 693h52l282 -693v-7q-45 -32 -71.5 -57t-26.5 -50q1 -31 44 -31zM324 586l-136 -340h272z" />
    <glyph glyph-name="aogonek" unicode="&#x105;" horiz-adv-x="693" 
d="M543 -138q25 0 58 11v-51q-20 -8 -37 -11.5t-35 -3.5q-38 0 -65 18t-27 57q0 30 23.5 60t69.5 64v87q-35 -48 -89.5 -74.5t-121.5 -26.5q-58 0 -106.5 20.5t-83.5 57t-55 86.5t-20 109t20 109t55 86.5t83.5 57t106.5 20.5q67 0 121.5 -26.5t89.5 -74.5v93h68v-530h-1
q-45 -32 -71.5 -57t-26.5 -50q1 -31 44 -31zM327 56q44 0 81.5 15.5t64.5 43.5t42.5 66.5t15.5 83.5t-15.5 83.5t-42.5 66.5t-64.5 43.5t-81.5 15.5t-81.5 -15.5t-64.5 -43.5t-42.5 -66.5t-15.5 -83.5t15.5 -83.5t42.5 -66.5t64.5 -43.5t81.5 -15.5z" />
    <glyph glyph-name="Cacute" unicode="&#x106;" horiz-adv-x="785" 
d="M355 764v5l89 127h82v-6l-102 -126h-69zM406 -11q-74 0 -137.5 27.5t-109.5 75.5t-72 114t-26 144t26 144t72 114t109.5 75.5t137.5 27.5q60 0 113 -17.5t95.5 -49.5t74 -77t47.5 -100h-74q-15 40 -39.5 72t-57.5 54.5t-73 34.5t-84 12q-59 0 -109.5 -21.5t-87 -60.5
t-57 -92t-20.5 -116t20.5 -116t57 -92t87 -60.5t109.5 -21.5q45 0 85 12.5t73 35.5t58 56t40 73h73q-16 -56 -47 -101.5t-74.5 -78t-96.5 -50.5t-113 -18z" />
    <glyph glyph-name="cacute" unicode="&#x107;" horiz-adv-x="626" 
d="M275 587v6l78 127h84v-6l-93 -127h-69zM323 -8q-59 0 -108.5 20t-85 56t-55.5 86t-20 110t20 110.5t55.5 87t85 56.5t108.5 20q48 0 90 -13.5t75 -38t56.5 -60.5t35.5 -81h-68q-22 61 -71 95t-116 34q-45 0 -82 -15.5t-63.5 -43t-41.5 -66t-15 -85.5q0 -46 15 -84
t41.5 -65.5t63.5 -43t82 -15.5q69 0 117.5 34t70.5 96h69q-12 -45 -35.5 -81t-57 -61t-76 -38.5t-90.5 -13.5z" />
    <glyph glyph-name="Ccircumflex" unicode="&#x108;" horiz-adv-x="785" 
d="M405 854l-92 -90h-69v7l128 125h69l126 -125v-7h-69zM737 237q-16 -56 -47 -101.5t-74.5 -78t-96.5 -50.5t-113 -18q-74 0 -137.5 27.5t-109.5 75.5t-72 114t-26 144t26 144t72 114t109.5 75.5t137.5 27.5q60 0 113 -17.5t95.5 -49.5t74 -77t47.5 -100h-74
q-15 40 -39.5 72t-57.5 54.5t-73 34.5t-84 12q-59 0 -109.5 -21.5t-87 -60.5t-57 -92t-20.5 -116t20.5 -116t57 -92t87 -60.5t109.5 -21.5q45 0 85 12.5t73 35.5t58 56t40 73h73z" />
    <glyph glyph-name="ccircumflex" unicode="&#x109;" horiz-adv-x="626" 
d="M324 675l-89 -89h-73v7l128 125h69l127 -125v-7h-73zM582 186q-12 -45 -35.5 -81t-57 -61t-76 -38.5t-90.5 -13.5q-59 0 -108.5 20t-85 56t-55.5 86t-20 110t20 110.5t55.5 87t85 56.5t108.5 20q48 0 90 -13.5t75 -38t56.5 -60.5t35.5 -81h-68q-22 61 -71 95t-116 34
q-45 0 -82 -15.5t-63.5 -43t-41.5 -66t-15 -85.5q0 -46 15 -84t41.5 -65.5t63.5 -43t82 -15.5q69 0 117.5 34t70.5 96h69z" />
    <glyph glyph-name="Cdotaccent" unicode="&#x10a;" horiz-adv-x="785" 
d="M406 782q-23 0 -38.5 15.5t-15.5 38.5t15.5 38.5t38.5 15.5t38 -15.5t15 -38.5t-15 -38.5t-38 -15.5zM406 -11q-74 0 -137.5 27.5t-109.5 75.5t-72 114t-26 144t26 144t72 114t109.5 75.5t137.5 27.5q60 0 113 -17.5t95.5 -49.5t74 -77t47.5 -100h-74q-15 40 -39.5 72
t-57.5 54.5t-73 34.5t-84 12q-59 0 -109.5 -21.5t-87 -60.5t-57 -92t-20.5 -116t20.5 -116t57 -92t87 -60.5t109.5 -21.5q45 0 85 12.5t73 35.5t58 56t40 73h73q-16 -56 -47 -101.5t-74.5 -78t-96.5 -50.5t-113 -18z" />
    <glyph glyph-name="cdotaccent" unicode="&#x10b;" horiz-adv-x="626" 
d="M324 607q-23 0 -38 15t-15 38t15 38.5t38 15.5t38 -15.5t15 -38.5t-15 -38t-38 -15zM323 -8q-59 0 -108.5 20t-85 56t-55.5 86t-20 110t20 110.5t55.5 87t85 56.5t108.5 20q48 0 90 -13.5t75 -38t56.5 -60.5t35.5 -81h-68q-22 61 -71 95t-116 34q-45 0 -82 -15.5
t-63.5 -43t-41.5 -66t-15 -85.5q0 -46 15 -84t41.5 -65.5t63.5 -43t82 -15.5q69 0 117.5 34t70.5 96h69q-12 -45 -35.5 -81t-57 -61t-76 -38.5t-90.5 -13.5z" />
    <glyph glyph-name="Ccaron" unicode="&#x10c;" horiz-adv-x="785" 
d="M441 763h-69l-128 125v7h70l92 -90l92 90h70v-7zM737 237q-16 -56 -47 -101.5t-74.5 -78t-96.5 -50.5t-113 -18q-74 0 -137.5 27.5t-109.5 75.5t-72 114t-26 144t26 144t72 114t109.5 75.5t137.5 27.5q60 0 113 -17.5t95.5 -49.5t74 -77t47.5 -100h-74q-15 40 -39.5 72
t-57.5 54.5t-73 34.5t-84 12q-59 0 -109.5 -21.5t-87 -60.5t-57 -92t-20.5 -116t20.5 -116t57 -92t87 -60.5t109.5 -21.5q45 0 85 12.5t73 35.5t58 56t40 73h73z" />
    <glyph glyph-name="ccaron" unicode="&#x10d;" horiz-adv-x="626" 
d="M359 591h-69l-128 125v7h73l89 -89l89 89h73v-7zM582 186q-12 -45 -35.5 -81t-57 -61t-76 -38.5t-90.5 -13.5q-59 0 -108.5 20t-85 56t-55.5 86t-20 110t20 110.5t55.5 87t85 56.5t108.5 20q48 0 90 -13.5t75 -38t56.5 -60.5t35.5 -81h-68q-22 61 -71 95t-116 34
q-45 0 -82 -15.5t-63.5 -43t-41.5 -66t-15 -85.5q0 -46 15 -84t41.5 -65.5t63.5 -43t82 -15.5q69 0 117.5 34t70.5 96h69z" />
    <glyph glyph-name="Dcaron" unicode="&#x10e;" horiz-adv-x="752" 
d="M371 763h-69l-128 125v7h70l92 -90l92 90h70v-7zM334 700q80 0 145.5 -25.5t112.5 -72t73 -110.5t26 -142t-26 -142t-73 -110.5t-112.5 -72t-145.5 -25.5h-231v700h231zM330 69q66 0 119.5 20.5t91 57t57.5 88.5t20 115t-20 115t-57.5 88.5t-91 57t-119.5 20.5h-156v-562
h156z" />
    <glyph glyph-name="dcaron" unicode="&#x10f;" horiz-adv-x="694" 
d="M531 700h68v-700h-68v94q-35 -48 -89.5 -75t-122.5 -27q-58 0 -106.5 20.5t-83.5 57t-55 86.5t-20 109t20 109t55 86.5t83.5 57t106.5 20.5q68 0 122.5 -27t89.5 -75v264zM680 700h68v-10l-34 -149h-56v4zM327 56q45 0 82.5 15.5t64.5 43.5t42.5 66.5t15.5 83.5
t-15.5 83.5t-42.5 66.5t-64.5 43.5t-82.5 15.5q-44 0 -81.5 -15.5t-64.5 -43.5t-42.5 -66.5t-15.5 -83.5t15.5 -83.5t42.5 -66.5t64.5 -43.5t81.5 -15.5z" />
    <glyph glyph-name="Dcroat" unicode="&#x110;" horiz-adv-x="756" 
d="M339 700q80 0 145.5 -25.5t112.5 -72t73 -110.5t26 -142t-26 -142t-73 -110.5t-112.5 -72t-145.5 -25.5h-232v320h-97v64h97v316h232zM335 69q66 0 119 20.5t90.5 57t58 88.5t20.5 115t-20.5 115t-58 88.5t-90.5 57t-119 20.5h-156v-247h224v-64h-224v-251h156z" />
    <glyph glyph-name="dcroat" unicode="&#x111;" horiz-adv-x="694" 
d="M693 642v-49h-94v-593h-68v94q-35 -48 -89.5 -75t-122.5 -27q-58 0 -106.5 20.5t-83.5 57t-55 86.5t-20 108q0 59 20 109t55 86.5t83.5 57t106.5 20.5q68 0 122.5 -27t89.5 -75v158h-152v49h152v58h68v-58h94zM328 56q44 0 81.5 15.5t64.5 43.5t42.5 66t15.5 83
t-15.5 83.5t-42.5 66.5t-64.5 43.5t-81.5 15.5t-81.5 -15.5t-65 -43.5t-43 -66.5t-15.5 -83.5t15.5 -83t43 -66t65 -43.5t81.5 -15.5z" />
    <glyph glyph-name="Emacron" unicode="&#x112;" horiz-adv-x="570" 
d="M469 860v-54h-311v54h311zM174 69h345v-69h-416v700h409v-69h-338v-242h319v-69h-319v-251z" />
    <glyph glyph-name="emacron" unicode="&#x113;" horiz-adv-x="643" 
d="M471 674v-54h-296v54h296zM124 243q3 -41 19 -75.5t42.5 -59t61.5 -38.5t76 -14q60 0 107.5 26t71.5 74h74q-29 -77 -96 -120.5t-157 -43.5q-58 0 -107.5 20.5t-85.5 56.5t-56 86t-20 110t20 110t56 86t85.5 56.5t107.5 20.5q61 0 112 -21.5t87 -60t55 -93t16 -120.5
h-469zM323 474q-39 0 -73 -12.5t-59.5 -35t-42 -54t-22.5 -70.5h396q-6 38 -23 69.5t-43 54t-60 35.5t-73 13z" />
    <glyph glyph-name="Ebreve" unicode="&#x114;" horiz-adv-x="570" 
d="M314 763q-69 0 -109.5 35.5t-40.5 95.5h59q0 -37 24.5 -57.5t66.5 -20.5t66.5 20.5t24.5 57.5h58q0 -60 -40 -95.5t-109 -35.5zM174 69h345v-69h-416v700h409v-69h-338v-242h319v-69h-319v-251z" />
    <glyph glyph-name="ebreve" unicode="&#x115;" horiz-adv-x="643" 
d="M323 593q-69 0 -109 35.5t-40 94.5h58q0 -35 24.5 -56.5t66.5 -21.5t67 21.5t25 56.5h58q0 -58 -40.5 -94t-109.5 -36zM124 243q3 -41 19 -75.5t42.5 -59t61.5 -38.5t76 -14q60 0 107.5 26t71.5 74h74q-29 -77 -96 -120.5t-157 -43.5q-58 0 -107.5 20.5t-85.5 56.5
t-56 86t-20 110t20 110t56 86t85.5 56.5t107.5 20.5q61 0 112 -21.5t87 -60t55 -93t16 -120.5h-469zM323 474q-39 0 -73 -12.5t-59.5 -35t-42 -54t-22.5 -70.5h396q-6 38 -23 69.5t-43 54t-60 35.5t-73 13z" />
    <glyph glyph-name="Edotaccent" unicode="&#x116;" horiz-adv-x="570" 
d="M314 782q-23 0 -38.5 15.5t-15.5 38.5t15.5 38.5t38.5 15.5t38 -15.5t15 -38.5t-15 -38.5t-38 -15.5zM174 69h345v-69h-416v700h409v-69h-338v-242h319v-69h-319v-251z" />
    <glyph glyph-name="edotaccent" unicode="&#x117;" horiz-adv-x="643" 
d="M323 607q-23 0 -38 15t-15 38t15 38.5t38 15.5t38 -15.5t15 -38.5t-15 -38t-38 -15zM124 243q3 -41 19 -75.5t42.5 -59t61.5 -38.5t76 -14q60 0 107.5 26t71.5 74h74q-29 -77 -96 -120.5t-157 -43.5q-58 0 -107.5 20.5t-85.5 56.5t-56 86t-20 110t20 110t56 86t85.5 56.5
t107.5 20.5q61 0 112 -21.5t87 -60t55 -93t16 -120.5h-469zM323 474q-39 0 -73 -12.5t-59.5 -35t-42 -54t-22.5 -70.5h396q-6 38 -23 69.5t-43 54t-60 35.5t-73 13z" />
    <glyph glyph-name="Eogonek" unicode="&#x118;" horiz-adv-x="570" 
d="M465 -138q25 0 58 11v-51q-20 -8 -37 -11.5t-35 -3.5q-38 0 -65 18t-27 57q0 29 21.5 57.5t63.5 60.5h-341v700h409v-69h-338v-242h319v-69h-319v-251h345v-69q-45 -32 -71.5 -57t-26.5 -50q1 -31 44 -31z" />
    <glyph glyph-name="eogonek" unicode="&#x119;" horiz-adv-x="643" 
d="M124 243q3 -41 19 -75.5t42.5 -59t61.5 -38.5t76 -14q60 0 107.5 26t71.5 74h74q-25 -64 -72 -102q-24 -22 -44.5 -44t-35.5 -42t-23.5 -38.5t-8.5 -33.5q0 -17 12 -25.5t32 -8.5q25 0 58 11v-51q-20 -8 -37 -11.5t-35 -3.5q-38 0 -65.5 19.5t-27.5 58.5q0 25 15 53
t41 60q-30 -6 -62 -6q-58 0 -107.5 20.5t-85.5 56.5t-56 86t-20 110t20 110t56 86t85.5 56.5t107.5 20.5q61 0 112 -21.5t87 -60t55 -93t16 -120.5h-469zM323 474q-39 0 -73 -12.5t-59.5 -35t-42 -54t-22.5 -70.5h396q-6 38 -23 69.5t-43 54t-60 35.5t-73 13z" />
    <glyph glyph-name="Ecaron" unicode="&#x11a;" horiz-adv-x="570" 
d="M349 763h-69l-128 125v7h70l92 -90l92 90h70v-7zM174 69h345v-69h-416v700h409v-69h-338v-242h319v-69h-319v-251z" />
    <glyph glyph-name="ecaron" unicode="&#x11b;" horiz-adv-x="643" 
d="M359 591h-69l-128 125v7h73l89 -89l89 89h73v-7zM124 243q3 -41 19 -75.5t42.5 -59t61.5 -38.5t76 -14q60 0 107.5 26t71.5 74h74q-29 -77 -96 -120.5t-157 -43.5q-58 0 -107.5 20.5t-85.5 56.5t-56 86t-20 110t20 110t56 86t85.5 56.5t107.5 20.5q61 0 112 -21.5t87 -60
t55 -93t16 -120.5h-469zM323 474q-39 0 -73 -12.5t-59.5 -35t-42 -54t-22.5 -70.5h396q-6 38 -23 69.5t-43 54t-60 35.5t-73 13z" />
    <glyph glyph-name="Gcircumflex" unicode="&#x11c;" horiz-adv-x="811" 
d="M408 854l-92 -90h-69v7l128 125h69l126 -125v-7h-69zM388 343h368q-2 -78 -28.5 -143t-72.5 -112t-108.5 -73t-137.5 -26t-138.5 27.5t-110 75.5t-73 114t-26.5 144t26.5 144t73 114t110.5 75.5t139 27.5q59 0 111.5 -17t95.5 -48.5t74.5 -76t48.5 -100.5h-74
q-31 80 -99 125.5t-156 45.5q-60 0 -111 -22t-87.5 -60.5t-57.5 -91.5t-21 -116t21 -116t57.5 -91.5t87.5 -60.5t111 -22q50 0 94.5 15.5t80 43.5t59.5 68t33 88h-290v68z" />
    <glyph glyph-name="gcircumflex" unicode="&#x11d;" horiz-adv-x="687" 
d="M344 675l-89 -89h-73v7l128 125h69l127 -125v-7h-73zM524 530h68v-454q0 -57 -19.5 -102t-54.5 -75.5t-83 -47t-105 -16.5q-46 0 -87.5 10t-74.5 29.5t-56.5 49t-33.5 68.5h71q9 -24 26 -41.5t40 -29.5t51 -17.5t59 -5.5q45 0 81.5 11.5t62.5 34.5t40.5 56.5t14.5 76.5
v47q-35 -46 -89 -73.5t-119 -27.5q-57 0 -105 20t-83 54.5t-54.5 81.5t-19.5 101t19.5 101.5t54.5 82t83 54.5t105 20q65 0 119 -27t89 -73v92zM324 86q44 0 81 14.5t63.5 40.5t41.5 61.5t15 77.5t-15 78t-41.5 62t-63.5 40.5t-81 14.5t-81 -15t-63.5 -41t-41.5 -62t-15 -77
t15 -76.5t41.5 -61.5t63.5 -41t81 -15z" />
    <glyph glyph-name="Gbreve" unicode="&#x11e;" horiz-adv-x="811" 
d="M408 763q-69 0 -109.5 35.5t-40.5 95.5h59q0 -37 24.5 -57.5t66.5 -20.5t66.5 20.5t24.5 57.5h58q0 -60 -40 -95.5t-109 -35.5zM388 343h368q-2 -78 -28.5 -143t-72.5 -112t-108.5 -73t-137.5 -26t-138.5 27.5t-110 75.5t-73 114t-26.5 144t26.5 144t73 114t110.5 75.5
t139 27.5q59 0 111.5 -17t95.5 -48.5t74.5 -76t48.5 -100.5h-74q-31 80 -99 125.5t-156 45.5q-60 0 -111 -22t-87.5 -60.5t-57.5 -91.5t-21 -116t21 -116t57.5 -91.5t87.5 -60.5t111 -22q50 0 94.5 15.5t80 43.5t59.5 68t33 88h-290v68z" />
    <glyph glyph-name="gbreve" unicode="&#x11f;" horiz-adv-x="687" 
d="M343 593q-69 0 -109 35.5t-40 94.5h58q0 -35 24.5 -56.5t66.5 -21.5t67 21.5t25 56.5h58q0 -58 -40.5 -94t-109.5 -36zM524 530h68v-454q0 -57 -19.5 -102t-54.5 -75.5t-83 -47t-105 -16.5q-46 0 -87.5 10t-74.5 29.5t-56.5 49t-33.5 68.5h71q9 -24 26 -41.5t40 -29.5
t51 -17.5t59 -5.5q45 0 81.5 11.5t62.5 34.5t40.5 56.5t14.5 76.5v47q-35 -46 -89 -73.5t-119 -27.5q-57 0 -105 20t-83 54.5t-54.5 81.5t-19.5 101t19.5 101.5t54.5 82t83 54.5t105 20q65 0 119 -27t89 -73v92zM324 86q44 0 81 14.5t63.5 40.5t41.5 61.5t15 77.5t-15 78
t-41.5 62t-63.5 40.5t-81 14.5t-81 -15t-63.5 -41t-41.5 -62t-15 -77t15 -76.5t41.5 -61.5t63.5 -41t81 -15z" />
    <glyph glyph-name="Gdotaccent" unicode="&#x120;" horiz-adv-x="811" 
d="M408 782q-23 0 -38.5 15.5t-15.5 38.5t15.5 38.5t38.5 15.5t38 -15.5t15 -38.5t-15 -38.5t-38 -15.5zM388 343h368q-2 -78 -28.5 -143t-72.5 -112t-108.5 -73t-137.5 -26t-138.5 27.5t-110 75.5t-73 114t-26.5 144t26.5 144t73 114t110.5 75.5t139 27.5q59 0 111.5 -17
t95.5 -48.5t74.5 -76t48.5 -100.5h-74q-31 80 -99 125.5t-156 45.5q-60 0 -111 -22t-87.5 -60.5t-57.5 -91.5t-21 -116t21 -116t57.5 -91.5t87.5 -60.5t111 -22q50 0 94.5 15.5t80 43.5t59.5 68t33 88h-290v68z" />
    <glyph glyph-name="gdotaccent" unicode="&#x121;" horiz-adv-x="687" 
d="M344 607q-23 0 -38 15t-15 38t15 38.5t38 15.5t38 -15.5t15 -38.5t-15 -38t-38 -15zM524 530h68v-454q0 -57 -19.5 -102t-54.5 -75.5t-83 -47t-105 -16.5q-46 0 -87.5 10t-74.5 29.5t-56.5 49t-33.5 68.5h71q9 -24 26 -41.5t40 -29.5t51 -17.5t59 -5.5q45 0 81.5 11.5
t62.5 34.5t40.5 56.5t14.5 76.5v47q-35 -46 -89 -73.5t-119 -27.5q-57 0 -105 20t-83 54.5t-54.5 81.5t-19.5 101t19.5 101.5t54.5 82t83 54.5t105 20q65 0 119 -27t89 -73v92zM324 86q44 0 81 14.5t63.5 40.5t41.5 61.5t15 77.5t-15 78t-41.5 62t-63.5 40.5t-81 14.5
t-81 -15t-63.5 -41t-41.5 -62t-15 -77t15 -76.5t41.5 -61.5t63.5 -41t81 -15z" />
    <glyph glyph-name="uni0122" unicode="&#x122;" horiz-adv-x="811" 
d="M388 343h368q-2 -78 -28.5 -143t-72.5 -112t-108.5 -73t-137.5 -26t-138.5 27.5t-110 75.5t-73 114t-26.5 144t26.5 144t73 114t110.5 75.5t139 27.5q59 0 111.5 -17t95.5 -48.5t74.5 -76t48.5 -100.5h-74q-31 80 -99 125.5t-156 45.5q-60 0 -111 -22t-87.5 -60.5
t-57.5 -91.5t-21 -116t21 -116t57.5 -91.5t87.5 -60.5t111 -22q50 0 94.5 15.5t80 43.5t59.5 68t33 88h-290v68zM345 -206l31 164h68v-14l-41 -150h-58z" />
    <glyph glyph-name="uni0123" unicode="&#x123;" horiz-adv-x="687" 
d="M393 730l-31 -143h-67v15l40 135h58v-7zM524 530h68v-454q0 -57 -19.5 -102t-54.5 -75.5t-83 -47t-105 -16.5q-46 0 -87.5 10t-74.5 29.5t-56.5 49t-33.5 68.5h71q9 -24 26 -41.5t40 -29.5t51 -17.5t59 -5.5q45 0 81.5 11.5t62.5 34.5t40.5 56.5t14.5 76.5v47
q-35 -46 -89 -73.5t-119 -27.5q-57 0 -105 20t-83 54.5t-54.5 81.5t-19.5 101t19.5 101.5t54.5 82t83 54.5t105 20q65 0 119 -27t89 -73v92zM324 86q44 0 81 14.5t63.5 40.5t41.5 61.5t15 77.5t-15 78t-41.5 62t-63.5 40.5t-81 14.5t-81 -15t-63.5 -41t-41.5 -62t-15 -77
t15 -76.5t41.5 -61.5t63.5 -41t81 -15z" />
    <glyph glyph-name="Hcircumflex" unicode="&#x124;" horiz-adv-x="734" 
d="M367 854l-92 -90h-69v7l128 125h69l126 -125v-7h-69zM559 700h72v-700h-72v321h-385v-321h-71v700h71v-310h385v310z" />
    <glyph glyph-name="hcircumflex" unicode="&#x125;" horiz-adv-x="670" 
d="M219 756l-89 89l-89 -89h-73v7l128 125h69l127 -125v-7h-73zM358 538q108 0 167 -64t59 -180v-294h-68v291q0 90 -42.5 137t-123.5 47q-42 0 -76.5 -13.5t-59 -37.5t-38 -57.5t-13.5 -74.5v-292h-68v700h68v-264q30 47 81 74.5t114 27.5z" />
    <glyph glyph-name="Hbar" unicode="&#x126;" horiz-adv-x="735" 
d="M708 579v-60h-76v-519h-72v321h-385v-321h-72v519h-76v60h76v121h72v-121h385v121h72v-121h76zM175 390h385v129h-385v-129z" />
    <glyph glyph-name="hbar" unicode="&#x127;" horiz-adv-x="649" 
d="M348 534q108 0 167 -63.5t59 -180.5v-290h-68v288q0 90 -42.5 137t-123.5 47q-42 0 -76.5 -13.5t-59 -37.5t-38 -58t-13.5 -75v-288h-68v591h-84v47h84v62h68v-62h185v-47h-185v-158q29 47 80.5 74t114.5 27z" />
    <glyph glyph-name="Itilde" unicode="&#x128;" horiz-adv-x="463" 
d="M159 847q-48 0 -48 -77h-50q0 64 24.5 94.5t68.5 30.5q33 0 54.5 -16t38.5 -33q13 -14 26.5 -24.5t29.5 -10.5q48 0 48 78h51q0 -125 -93 -125q-33 0 -54.5 15.5t-38.5 32.5q-14 14 -27 24.5t-30 10.5zM268 67h136v-67h-345v67h137v568h-134v65h339v-65h-133v-568z" />
    <glyph glyph-name="itilde" unicode="&#x129;" horiz-adv-x="259" 
d="M199 583q-30 0 -50 16.5t-35 33.5q-12 14 -24 24t-26 10q-44 0 -44 -77h-50q0 66 24 95.5t65 29.5q30 0 49.5 -15.5t34.5 -33.5q11 -14 23.5 -24.5t26.5 -10.5q43 0 43 78h51q0 -63 -23 -94.5t-65 -31.5zM95 0v530h68v-530h-68z" />
    <glyph glyph-name="Imacron" unicode="&#x12a;" horiz-adv-x="463" 
d="M387 860v-54h-311v54h311zM268 67h136v-67h-345v67h137v568h-134v65h339v-65h-133v-568z" />
    <glyph glyph-name="imacron" unicode="&#x12b;" horiz-adv-x="259" 
d="M5 614v53h248v-53h-248zM95 0v530h68v-530h-68z" />
    <glyph glyph-name="Ibreve" unicode="&#x12c;" horiz-adv-x="463" 
d="M232 763q-69 0 -109.5 35.5t-40.5 95.5h59q0 -37 24.5 -57.5t66.5 -20.5t66.5 20.5t24.5 57.5h58q0 -60 -40 -95.5t-109 -35.5zM268 67h136v-67h-345v67h137v568h-134v65h339v-65h-133v-568z" />
    <glyph glyph-name="ibreve" unicode="&#x12d;" horiz-adv-x="259" 
d="M129 593q-60 0 -94.5 33.5t-34.5 91.5h56q0 -35 19.5 -55t53.5 -20q35 0 54 20t19 55h57q0 -58 -35 -91.5t-95 -33.5zM95 0v530h68v-530h-68z" />
    <glyph glyph-name="Iogonek" unicode="&#x12e;" horiz-adv-x="463" 
d="M304 0q-45 -32 -71.5 -57t-26.5 -50q1 -31 44 -31q25 0 58 11v-51q-20 -8 -37 -11.5t-35 -3.5q-38 0 -65 18t-27 57q0 29 21.5 57.5t63.5 60.5h-170v67h137v568h-134v65h339v-65h-133v-568h136v-67h-100z" />
    <glyph glyph-name="iogonek" unicode="&#x12f;" horiz-adv-x="259" 
d="M129 609q-23 0 -38.5 16t-15.5 39t15.5 39t38.5 16q24 0 39.5 -16t15.5 -39t-15.5 -39t-39.5 -16zM140 -138q14 0 27.5 3t30.5 8v-51q-20 -8 -37 -11.5t-35 -3.5q-38 0 -65 18.5t-27 57.5q0 27 16.5 54.5t49.5 62.5h-5v530h68v-530h1q-32 -34 -50 -58.5t-18 -47.5
q1 -32 44 -32z" />
    <glyph glyph-name="Idotaccent" unicode="&#x130;" horiz-adv-x="463" 
d="M232 782q-23 0 -38.5 15.5t-15.5 38.5t15.5 38.5t38.5 15.5t38 -15.5t15 -38.5t-15 -38.5t-38 -15.5zM268 67h136v-67h-345v67h137v568h-134v65h339v-65h-133v-568z" />
    <glyph glyph-name="dotlessi" unicode="&#x131;" horiz-adv-x="259" 
d="M95 0v530h68v-530h-68z" />
    <glyph glyph-name="IJ" unicode="&#x132;" horiz-adv-x="952" 
d="M268 635v-568h136v-67h-345v67h137v568h-134v65h339v-65h-133zM595 700h269v-425q0 -139 -67.5 -211.5t-201.5 -72.5q-47 0 -98 9v71q47 -9 87 -9q106 0 157 56t51 161v353h-197v68z" />
    <glyph glyph-name="ij" unicode="&#x133;" horiz-adv-x="518" 
d="M129 609q-23 0 -38.5 16t-15.5 39t15.5 39t38.5 16q24 0 39.5 -16t15.5 -39t-15.5 -39t-39.5 -16zM388 609q-23 0 -39 15.5t-16 38.5q0 24 16 40t39 16t39 -16t16 -40q0 -23 -16 -38.5t-39 -15.5zM95 0v530h68v-530h-68zM266 -164q-25 0 -52 3v62q11 -1 21 -1.5t19 -0.5
q57 0 78.5 26t21.5 84v521h68v-528q0 -86 -36.5 -126t-119.5 -40z" />
    <glyph glyph-name="Jcircumflex" unicode="&#x134;" horiz-adv-x="489" 
d="M303 896l126 -125v-7h-69l-93 90l-92 -90h-69v7l128 125h69zM132 632v68h269v-425q0 -139 -67.5 -211.5t-201.5 -72.5q-47 0 -98 9v71q47 -9 87 -9q106 0 157 56t51 161v353h-197z" />
    <glyph glyph-name="jcircumflex" unicode="&#x135;" horiz-adv-x="259" 
d="M156 722l106 -129v-6h-74l-58 74l-58 -74h-74v6l105 129h53zM95 530h68v-528q0 -86 -36.5 -126t-119.5 -40q-25 0 -52 3v62q11 -1 21 -1.5t19 -0.5q57 0 78.5 26t21.5 84v521z" />
    <glyph glyph-name="uni0136" unicode="&#x136;" horiz-adv-x="619" 
d="M103 0v700h71v-700h-71zM290 354l311 -347v-7h-88l-302 341v23l290 336h84v-7zM269 -206l31 164h68v-14l-41 -150h-58z" />
    <glyph glyph-name="uni0137" unicode="&#x137;" horiz-adv-x="542" 
d="M95 0v700h68v-700h-68zM274 267l251 -263v-4h-85l-241 255v20l228 255h81v-4zM211 -206l31 164h68v-14l-41 -150h-58z" />
    <glyph glyph-name="kgreenlandic" unicode="&#x138;" horiz-adv-x="542" 
d="M95 0v530h68v-530h-68zM275 267l250 -263v-4h-85l-241 255v20l229 255h80v-4z" />
    <glyph glyph-name="Lacute" unicode="&#x139;" horiz-adv-x="541" 
d="M261 890l-102 -126h-69v5l89 127h82v-6zM174 69h345v-69h-416v700h71v-631z" />
    <glyph glyph-name="lacute" unicode="&#x13a;" horiz-adv-x="259" 
d="M80 757v6l78 127h84v-6l-93 -127h-69zM95 0v700h68v-700h-68z" />
    <glyph glyph-name="uni013B" unicode="&#x13b;" horiz-adv-x="541" 
d="M174 69h345v-69h-416v700h71v-631zM246 -206l31 164h68v-14l-41 -150h-58z" />
    <glyph glyph-name="uni013C" unicode="&#x13c;" horiz-adv-x="259" 
d="M95 0v700h68v-700h-68zM70 -206l31 164h68v-14l-41 -150h-58z" />
    <glyph glyph-name="Lcaron" unicode="&#x13d;" horiz-adv-x="541" 
d="M174 69h345v-69h-416v700h71v-631zM441 690l-34 -149h-56v4l22 155h68v-10z" />
    <glyph glyph-name="lcaron" unicode="&#x13e;" horiz-adv-x="259" 
d="M95 0v700h68v-700h-68zM221 545l22 155h68v-10l-34 -149h-56v4z" />
    <glyph glyph-name="Ldot" unicode="&#x13f;" horiz-adv-x="541" 
d="M174 69h345v-69h-416v700h71v-631zM388 352q-20 0 -34 14.5t-14 34.5t14 34t34 14t34 -14t14 -34t-14 -34.5t-34 -14.5z" />
    <glyph glyph-name="ldot" unicode="&#x140;" horiz-adv-x="354" 
d="M95 0v700h68v-700h-68zM298 332q-20 0 -33.5 13.5t-13.5 33.5t13.5 33t33.5 13q21 0 34.5 -13t13.5 -33t-13.5 -33.5t-34.5 -13.5z" />
    <glyph glyph-name="Lslash" unicode="&#x141;" horiz-adv-x="541" 
d="M174 69h345v-69h-416v287l-99 -49v68l99 49v345h71v-310l204 100v-68l-204 -100v-253z" />
    <glyph glyph-name="lslash" unicode="&#x142;" horiz-adv-x="306" 
d="M293 473v-66l-106 -57v-350h-68v313l-106 -57v66l106 57v321h68v-284z" />
    <glyph glyph-name="Nacute" unicode="&#x143;" horiz-adv-x="733" 
d="M490 890l-102 -126h-69v5l89 127h82v-6zM631 700v-700h-57l-400 556v-556h-71v700h54l402 -559v559h72z" />
    <glyph glyph-name="nacute" unicode="&#x144;" horiz-adv-x="670" 
d="M448 714l-93 -127h-69v6l78 127h84v-6zM361 538q105 0 164 -64t59 -180v-294h-68v291q0 90 -42.5 137t-123.5 47q-42 0 -76.5 -13.5t-59 -37.5t-38 -57.5t-13.5 -74.5v-292h-68v530h68v-94q29 47 80.5 74.5t117.5 27.5z" />
    <glyph glyph-name="uni0145" unicode="&#x145;" horiz-adv-x="733" 
d="M631 700v-700h-57l-400 556v-556h-71v700h54l402 -559v559h72zM306 -206l31 164h68v-14l-41 -150h-58z" />
    <glyph glyph-name="uni0146" unicode="&#x146;" horiz-adv-x="670" 
d="M361 538q105 0 164 -64t59 -180v-294h-68v291q0 90 -42.5 137t-123.5 47q-42 0 -76.5 -13.5t-59 -37.5t-38 -57.5t-13.5 -74.5v-292h-68v530h68v-94q29 47 80.5 74.5t117.5 27.5zM276 -206l31 164h68v-14l-41 -150h-58z" />
    <glyph glyph-name="Ncaron" unicode="&#x147;" horiz-adv-x="733" 
d="M406 763h-69l-128 125v7h70l92 -90l92 90h70v-7zM631 700v-700h-57l-400 556v-556h-71v700h54l402 -559v559h72z" />
    <glyph glyph-name="ncaron" unicode="&#x148;" horiz-adv-x="670" 
d="M371 591h-69l-128 125v7h73l89 -89l89 89h73v-7zM361 538q105 0 164 -64t59 -180v-294h-68v291q0 90 -42.5 137t-123.5 47q-42 0 -76.5 -13.5t-59 -37.5t-38 -57.5t-13.5 -74.5v-292h-68v530h68v-94q29 47 80.5 74.5t117.5 27.5z" />
    <glyph glyph-name="napostrophe" unicode="&#x149;" horiz-adv-x="705" 
d="M-10 504l45 196h73v-13l-55 -187h-63v4zM396 538q105 0 163.5 -64t58.5 -180v-294h-68v291q0 90 -42 137t-123 47q-42 0 -76.5 -13.5t-59 -37.5t-38 -57.5t-13.5 -74.5v-292h-68v530h68v-94q29 47 80.5 74.5t117.5 27.5z" />
    <glyph glyph-name="Eng" unicode="&#x14a;" horiz-adv-x="733" 
d="M631 700v-700q0 -89 -57 -140.5t-154 -51.5q-20 0 -48.5 2.5t-63.5 7.5v68q28 -5 56 -7.5t49 -2.5q69 0 107.5 33.5t38.5 99.5v12l-385 535v-556h-71v700h54l402 -559v559h72z" />
    <glyph glyph-name="eng" unicode="&#x14b;" horiz-adv-x="670" 
d="M361 538q105 0 164 -64t59 -180v-293q0 -97 -57 -144.5t-152 -47.5q-17 0 -36.5 1t-46.5 5v63q25 -4 42.5 -5t35.5 -1q69 -2 107.5 30.5t38.5 106.5v282q0 90 -42.5 137t-123.5 47q-42 0 -76.5 -13.5t-59 -37.5t-38 -57.5t-13.5 -74.5v-292h-68v530h68v-94q30 48 81 75
t117 27z" />
    <glyph glyph-name="Omacron" unicode="&#x14c;" horiz-adv-x="826" 
d="M258 806v54h311v-54h-311zM413 -11q-76 0 -140.5 27.5t-111.5 75.5t-73.5 114t-26.5 144t26.5 144t73.5 114t111.5 75.5t140.5 27.5t140.5 -27.5t112 -75.5t74 -114t26.5 -144t-26.5 -144t-74 -114t-112 -75.5t-140.5 -27.5zM413 60q61 0 112 22t88.5 60.5t58.5 91.5
t21 116t-21 116t-58.5 91.5t-88.5 60.5t-112 22q-60 0 -111.5 -22t-88.5 -60.5t-58 -91.5t-21 -116t21 -116t58 -91.5t88.5 -60.5t111.5 -22z" />
    <glyph glyph-name="omacron" unicode="&#x14d;" horiz-adv-x="654" 
d="M179 620v54h296v-54h-296zM327 -8q-60 0 -110 20.5t-86 57t-56.5 86.5t-20.5 109t20.5 109t56.5 86.5t86 57t110 20.5t110 -20.5t86 -57t56.5 -86.5t20.5 -109t-20.5 -109t-56.5 -86.5t-86 -57t-110 -20.5zM327 56q44 0 81.5 15.5t64.5 43.5t42.5 66.5t15.5 83.5
t-15.5 83.5t-42.5 66.5t-64.5 43.5t-81.5 15.5t-81.5 -15.5t-64.5 -43.5t-42.5 -66.5t-15.5 -83.5t15.5 -83.5t42.5 -66.5t64.5 -43.5t81.5 -15.5z" />
    <glyph glyph-name="Obreve" unicode="&#x14e;" horiz-adv-x="826" 
d="M413 763q-69 0 -109.5 35.5t-40.5 95.5h59q0 -37 24.5 -57.5t66.5 -20.5t66.5 20.5t24.5 57.5h58q0 -60 -40 -95.5t-109 -35.5zM413 -11q-76 0 -140.5 27.5t-111.5 75.5t-73.5 114t-26.5 144t26.5 144t73.5 114t111.5 75.5t140.5 27.5t140.5 -27.5t112 -75.5t74 -114
t26.5 -144t-26.5 -144t-74 -114t-112 -75.5t-140.5 -27.5zM413 60q61 0 112 22t88.5 60.5t58.5 91.5t21 116t-21 116t-58.5 91.5t-88.5 60.5t-112 22q-60 0 -111.5 -22t-88.5 -60.5t-58 -91.5t-21 -116t21 -116t58 -91.5t88.5 -60.5t111.5 -22z" />
    <glyph glyph-name="obreve" unicode="&#x14f;" horiz-adv-x="654" 
d="M326 593q-69 0 -109 35.5t-40 94.5h58q0 -35 24.5 -56.5t66.5 -21.5t67 21.5t25 56.5h58q0 -58 -40.5 -94t-109.5 -36zM327 -8q-60 0 -110 20.5t-86 57t-56.5 86.5t-20.5 109t20.5 109t56.5 86.5t86 57t110 20.5t110 -20.5t86 -57t56.5 -86.5t20.5 -109t-20.5 -109
t-56.5 -86.5t-86 -57t-110 -20.5zM327 56q44 0 81.5 15.5t64.5 43.5t42.5 66.5t15.5 83.5t-15.5 83.5t-42.5 66.5t-64.5 43.5t-81.5 15.5t-81.5 -15.5t-64.5 -43.5t-42.5 -66.5t-15.5 -83.5t15.5 -83.5t42.5 -66.5t64.5 -43.5t81.5 -15.5z" />
    <glyph glyph-name="Ohungarumlaut" unicode="&#x150;" horiz-adv-x="826" 
d="M298 764v5l86 127h81v-6l-99 -126h-68zM448 764v5l102 127h81v-6l-114 -126h-69zM413 -11q-76 0 -140.5 27.5t-111.5 75.5t-73.5 114t-26.5 144t26.5 144t73.5 114t111.5 75.5t140.5 27.5t140.5 -27.5t112 -75.5t74 -114t26.5 -144t-26.5 -144t-74 -114t-112 -75.5
t-140.5 -27.5zM413 60q61 0 112 22t88.5 60.5t58.5 91.5t21 116t-21 116t-58.5 91.5t-88.5 60.5t-112 22q-60 0 -111.5 -22t-88.5 -60.5t-58 -91.5t-21 -116t21 -116t58 -91.5t88.5 -60.5t111.5 -22z" />
    <glyph glyph-name="ohungarumlaut" unicode="&#x151;" horiz-adv-x="654" 
d="M204 587v6l85 126h82v-6l-99 -126h-68zM353 587v6l102 126h82v-6l-114 -126h-70zM327 -8q-60 0 -110 20.5t-86 57t-56.5 86.5t-20.5 109t20.5 109t56.5 86.5t86 57t110 20.5t110 -20.5t86 -57t56.5 -86.5t20.5 -109t-20.5 -109t-56.5 -86.5t-86 -57t-110 -20.5zM327 56
q44 0 81.5 15.5t64.5 43.5t42.5 66.5t15.5 83.5t-15.5 83.5t-42.5 66.5t-64.5 43.5t-81.5 15.5t-81.5 -15.5t-64.5 -43.5t-42.5 -66.5t-15.5 -83.5t15.5 -83.5t42.5 -66.5t64.5 -43.5t81.5 -15.5z" />
    <glyph glyph-name="OE" unicode="&#x152;" horiz-adv-x="961" 
d="M911 69v-69h-409q-44 -11 -89 -11q-77 0 -142 27.5t-111.5 75.5t-72.5 114t-26 144t26 144t72.5 114t111.5 75.5t142 27.5q44 0 88 -11h403v-69h-338v-242h318v-69h-318v-251h345zM134 350q0 -63 20.5 -116t57 -91.5t88 -60.5t113.5 -22q44 0 81 12v556q-37 12 -81 12
q-62 0 -113.5 -22t-88 -60.5t-57 -91.5t-20.5 -116z" />
    <glyph glyph-name="oe" unicode="&#x153;" horiz-adv-x="1120" 
d="M601 243q3 -41 19 -75.5t42.5 -59t61.5 -38.5t76 -14q60 0 107.5 26t71.5 74h74q-29 -77 -96 -120.5t-157 -43.5q-79 0 -140 35.5t-95 97.5q-34 -61 -96 -97t-142 -36q-60 0 -110 20.5t-86 57t-56.5 86.5t-20.5 109t20.5 109t56.5 86.5t86 57t110 20.5q80 0 142 -36
t96 -97q34 62 95 97.5t140 35.5q61 0 112 -21.5t87 -60t55 -93t16 -120.5h-469zM327 56q44 0 81.5 15.5t64.5 43.5t42.5 66.5t15.5 83.5t-15.5 83.5t-42.5 66.5t-64.5 43.5t-81.5 15.5t-81.5 -15.5t-64.5 -43.5t-42.5 -66.5t-15.5 -83.5t15.5 -83.5t42.5 -66.5t64.5 -43.5
t81.5 -15.5zM800 474q-39 0 -73 -12.5t-59.5 -35t-42 -54t-22.5 -70.5h396q-6 38 -23 69.5t-43 54t-60 35.5t-73 13z" />
    <glyph glyph-name="Racute" unicode="&#x154;" horiz-adv-x="624" 
d="M439 890l-102 -126h-69v5l89 127h82v-6zM339 281l255 -274v-7h-86l-282 311v32h124q70 0 111.5 38.5t41.5 105.5q0 66 -42.5 105.5t-113.5 39.5h-173v-632h-71v700h245q56 0 98.5 -18t71.5 -47.5t43.5 -67.5t14.5 -79q0 -42 -14.5 -79.5t-43 -66t-70.5 -45t-98 -16.5h-11
z" />
    <glyph glyph-name="racute" unicode="&#x155;" horiz-adv-x="432" 
d="M358 714l-93 -127h-69v6l78 127h84v-6zM331 537q17 0 34.5 -2.5t35.5 -7.5v-62q-31 9 -62 9q-38 0 -70.5 -13.5t-56 -38t-36.5 -58.5t-13 -75v-289h-68v530h68v-93q55 100 168 100z" />
    <glyph glyph-name="uni0156" unicode="&#x156;" horiz-adv-x="624" 
d="M339 281l255 -274v-7h-86l-282 311v32h124q70 0 111.5 38.5t41.5 105.5q0 66 -42.5 105.5t-113.5 39.5h-173v-632h-71v700h245q56 0 98.5 -18t71.5 -47.5t43.5 -67.5t14.5 -79q0 -42 -14.5 -79.5t-43 -66t-70.5 -45t-98 -16.5h-11zM262 -206l31 164h68v-14l-41 -150h-58z
" />
    <glyph glyph-name="uni0157" unicode="&#x157;" horiz-adv-x="432" 
d="M331 537q17 0 34.5 -2.5t35.5 -7.5v-62q-31 9 -62 9q-38 0 -70.5 -13.5t-56 -38t-36.5 -58.5t-13 -75v-289h-68v530h68v-93q55 100 168 100zM70 -206l31 164h68v-14l-41 -150h-58z" />
    <glyph glyph-name="Rcaron" unicode="&#x158;" horiz-adv-x="624" 
d="M354 763h-69l-128 125v7h70l92 -90l92 90h70v-7zM339 281l255 -274v-7h-86l-282 311v32h124q70 0 111.5 38.5t41.5 105.5q0 66 -42.5 105.5t-113.5 39.5h-173v-632h-71v700h245q56 0 98.5 -18t71.5 -47.5t43.5 -67.5t14.5 -79q0 -42 -14.5 -79.5t-43 -66t-70.5 -45
t-98 -16.5h-11z" />
    <glyph glyph-name="rcaron" unicode="&#x159;" horiz-adv-x="432" 
d="M334 723h73v-7l-127 -125h-69l-128 125v7h73l89 -89zM163 437q55 100 168 100q17 0 34.5 -2.5t35.5 -7.5v-62q-31 9 -62 9q-38 0 -70.5 -13.5t-56 -38t-36.5 -58.5t-13 -75v-289h-68v530h68v-93z" />
    <glyph glyph-name="Sacute" unicode="&#x15a;" horiz-adv-x="623" 
d="M267 764v5l89 127h82v-6l-102 -126h-69zM316 -9q-53 0 -97.5 15.5t-78 44t-53.5 68.5t-24 89h72q3 -33 17.5 -60t38.5 -46t56 -29.5t69 -10.5q84 0 131 34t47 96q0 32 -12.5 54t-36 37.5t-58 25t-78.5 16.5q-52 8 -94.5 22.5t-72.5 37.5t-46 56t-16 78q0 42 16.5 77
t47.5 60t74 39t96 14q102 0 166.5 -52.5t76.5 -145.5h-72q-12 65 -57.5 96.5t-114.5 31.5q-75 0 -118.5 -32t-43.5 -88q0 -31 11.5 -52.5t34.5 -36t57 -23.5t79 -16q54 -9 97 -24t74 -39t47.5 -57.5t16.5 -78.5t-18 -82.5t-51 -63.5t-79.5 -40.5t-103.5 -14.5z" />
    <glyph glyph-name="sacute" unicode="&#x15b;" horiz-adv-x="554" 
d="M231 587v6l78 127h84v-6l-93 -127h-69zM282 -8q-100 0 -159.5 46.5t-63.5 125.5h70q3 -51 44.5 -79.5t109.5 -28.5q69 0 109.5 23t40.5 68q0 20 -7.5 34.5t-25.5 25t-48 18t-75 13.5q-57 8 -96 20t-64 30t-36 43.5t-11 59.5q0 36 16 64t44 46.5t66.5 28t84.5 9.5
q92 0 147 -42t60 -115h-69q-4 44 -41.5 69.5t-98.5 25.5q-67 0 -103.5 -22.5t-36.5 -63.5q0 -20 7.5 -34.5t25.5 -25t48 -18t74 -12.5q49 -6 87.5 -17t65.5 -28.5t41 -43t14 -61.5q0 -39 -16.5 -69t-46 -50t-70 -30t-87.5 -10z" />
    <glyph glyph-name="Scircumflex" unicode="&#x15c;" horiz-adv-x="623" 
d="M317 854l-92 -90h-69v7l128 125h69l126 -125v-7h-69zM333 391q54 -9 97 -24t74 -39t47.5 -57.5t16.5 -78.5t-18 -82.5t-51 -63.5t-79.5 -40.5t-103.5 -14.5q-53 0 -97.5 15.5t-78 44t-53.5 68.5t-24 89h72q3 -33 17.5 -60t38.5 -46t56 -29.5t69 -10.5q84 0 131 34t47 96
q0 32 -12.5 54t-36 37.5t-58 25t-78.5 16.5q-52 8 -94.5 22.5t-72.5 37.5t-46 56t-16 78q0 42 16.5 77t47.5 60t74 39t96 14q102 0 166.5 -52.5t76.5 -145.5h-72q-12 65 -57.5 96.5t-114.5 31.5q-75 0 -118.5 -32t-43.5 -88q0 -31 11.5 -52.5t34.5 -36t57 -23.5t79 -16z" />
    <glyph glyph-name="scircumflex" unicode="&#x15d;" horiz-adv-x="554" 
d="M280 675l-89 -89h-73v7l128 125h69l127 -125v-7h-73zM294 301q49 -6 87.5 -17t65.5 -28.5t41 -43t14 -61.5q0 -39 -16.5 -69t-46 -50t-70 -30t-87.5 -10q-100 0 -159.5 46.5t-63.5 125.5h70q3 -51 44.5 -79.5t109.5 -28.5q69 0 109.5 23t40.5 68q0 20 -7.5 34.5t-25.5 25
t-48 18t-75 13.5q-57 8 -96 20t-64 30t-36 43.5t-11 59.5q0 36 16 64t44 46.5t66.5 28t84.5 9.5q92 0 147 -42t60 -115h-69q-4 44 -41.5 69.5t-98.5 25.5q-67 0 -103.5 -22.5t-36.5 -63.5q0 -20 7.5 -34.5t25.5 -25t48 -18t74 -12.5z" />
    <glyph glyph-name="Scedilla" unicode="&#x15e;" horiz-adv-x="623" 
d="M568 192q0 -42 -15 -77t-43.5 -60.5t-68.5 -42t-90 -20.5l-21 -44q96 3 96 -67q0 -21 -9 -35.5t-24.5 -23.5t-36 -13t-43.5 -4q-20 0 -42 3.5t-43 8.5v50q26 -8 45 -10t36 -2q60 0 60 30q0 17 -15 23t-43 6q-19 0 -35 -4l-10 15l30 67q-49 3 -90 19.5t-71.5 44.5
t-49 66.5t-22.5 85.5h72q3 -33 17.5 -60t38.5 -46t56 -29.5t69 -10.5q84 0 131 34t47 96q0 32 -12.5 54t-36 37.5t-58 25t-78.5 16.5q-52 8 -94.5 22.5t-72.5 37.5t-46 56t-16 78q0 42 16.5 77t47.5 60t74 39t96 14q102 0 166.5 -52.5t76.5 -145.5h-72q-12 65 -57.5 96.5
t-114.5 31.5q-75 0 -118.5 -32t-43.5 -88q0 -31 11.5 -52.5t34.5 -36t57 -23.5t79 -16q54 -9 97 -24t74 -39t47.5 -57.5t16.5 -78.5z" />
    <glyph glyph-name="scedilla" unicode="&#x15f;" horiz-adv-x="554" 
d="M502 151q0 -36 -14 -64.5t-39.5 -48t-60.5 -31t-76 -14.5l-20 -39q47 0 69.5 -19t22.5 -51q0 -38 -26.5 -58.5t-77.5 -20.5q-18 0 -40.5 3.5t-45.5 8.5v50q39 -12 75 -12q26 0 42.5 7.5t16.5 25.5q0 17 -16.5 24t-39.5 7q-20 0 -36 -4l-10 15l31 63q-89 6 -141.5 51.5
t-56.5 119.5h70q3 -51 44.5 -79.5t109.5 -28.5q69 0 109.5 23t40.5 68q0 20 -7.5 34.5t-25.5 25t-48 18t-75 13.5q-57 8 -96 20t-64 30t-36 43.5t-11 59.5q0 36 16 64t44 46.5t66.5 28t84.5 9.5q92 0 147 -42t60 -115h-69q-4 44 -41.5 69.5t-98.5 25.5q-67 0 -103.5 -22.5
t-36.5 -63.5q0 -20 7.5 -34.5t25.5 -25t48 -18t74 -12.5q49 -6 87.5 -17t65.5 -28.5t41 -43t14 -61.5z" />
    <glyph glyph-name="Scaron" unicode="&#x160;" horiz-adv-x="623" 
d="M353 763h-69l-128 125v7h70l92 -90l92 90h70v-7zM333 391q54 -9 97 -24t74 -39t47.5 -57.5t16.5 -78.5t-18 -82.5t-51 -63.5t-79.5 -40.5t-103.5 -14.5q-53 0 -97.5 15.5t-78 44t-53.5 68.5t-24 89h72q3 -33 17.5 -60t38.5 -46t56 -29.5t69 -10.5q84 0 131 34t47 96
q0 32 -12.5 54t-36 37.5t-58 25t-78.5 16.5q-52 8 -94.5 22.5t-72.5 37.5t-46 56t-16 78q0 42 16.5 77t47.5 60t74 39t96 14q102 0 166.5 -52.5t76.5 -145.5h-72q-12 65 -57.5 96.5t-114.5 31.5q-75 0 -118.5 -32t-43.5 -88q0 -31 11.5 -52.5t34.5 -36t57 -23.5t79 -16z" />
    <glyph glyph-name="scaron" unicode="&#x161;" horiz-adv-x="554" 
d="M315 591h-69l-128 125v7h73l89 -89l89 89h73v-7zM294 301q49 -6 87.5 -17t65.5 -28.5t41 -43t14 -61.5q0 -39 -16.5 -69t-46 -50t-70 -30t-87.5 -10q-100 0 -159.5 46.5t-63.5 125.5h70q3 -51 44.5 -79.5t109.5 -28.5q69 0 109.5 23t40.5 68q0 20 -7.5 34.5t-25.5 25
t-48 18t-75 13.5q-57 8 -96 20t-64 30t-36 43.5t-11 59.5q0 36 16 64t44 46.5t66.5 28t84.5 9.5q92 0 147 -42t60 -115h-69q-4 44 -41.5 69.5t-98.5 25.5q-67 0 -103.5 -22.5t-36.5 -63.5q0 -20 7.5 -34.5t25.5 -25t48 -18t74 -12.5z" />
    <glyph glyph-name="uni0162" unicode="&#x162;" horiz-adv-x="556" 
d="M314 0h-10l-24 -52q96 3 96 -67q0 -21 -9 -35.5t-24.5 -23.5t-36 -13t-43.5 -4q-20 0 -42 3.5t-43 8.5v50q26 -8 45 -10t36 -2q60 0 60 30q0 17 -15 23t-43 6q-19 0 -35 -4l-10 15l34 75h-8v632h-214v68h500v-68h-214v-632z" />
    <glyph glyph-name="uni0163" unicode="&#x163;" horiz-adv-x="397" 
d="M289 -3l-22 -43q47 0 69.5 -19t22.5 -51q0 -38 -26.5 -58.5t-77.5 -20.5q-18 0 -40.5 3.5t-45.5 8.5v50q39 -12 75 -12q26 0 42.5 7.5t16.5 25.5q0 17 -16.5 24t-39.5 7q-20 0 -36 -4l-10 15l37 73q-55 14 -80.5 53.5t-25.5 109.5v306h-116v58h116v125l68 7v-132h152v-58
h-152v-298q0 -60 23.5 -86.5t83.5 -26.5q11 0 24.5 0.5t27.5 2.5v-64q-31 -3 -59 -3h-11z" />
    <glyph glyph-name="Tcaron" unicode="&#x164;" horiz-adv-x="556" 
d="M313 763h-69l-128 125v7h70l92 -90l92 90h70v-7zM528 700v-68h-214v-632h-72v632h-214v68h500z" />
    <glyph glyph-name="tcaron" unicode="&#x165;" horiz-adv-x="397" 
d="M308 750h68v-10l-34 -149h-56v4zM200 174q0 -60 23.5 -86.5t83.5 -26.5q11 0 24.5 0.5t27.5 2.5v-64q-31 -3 -59 -3q-88 0 -128 40.5t-40 128.5v306h-116v58h116v125l68 7v-132h152v-58h-152v-298z" />
    <glyph glyph-name="Tbar" unicode="&#x166;" horiz-adv-x="556" 
d="M528 632h-214v-242h133v-61h-133v-329h-72v329h-133v61h133v242h-214v68h500v-68z" />
    <glyph glyph-name="tbar" unicode="&#x167;" horiz-adv-x="395" 
d="M307 61q11 0 22.5 0.5t25.5 2.5v-64q-30 -3 -55 -3q-88 0 -128 40.5t-40 128.5v104h-107v54h107v148h-116v58h116v125l68 7v-132h152v-58h-152v-148h143v-54h-143v-96q0 -60 23.5 -86.5t83.5 -26.5z" />
    <glyph glyph-name="Utilde" unicode="&#x168;" horiz-adv-x="699" 
d="M427 764q-33 0 -54.5 15.5t-38.5 32.5q-14 14 -27 24.5t-30 10.5q-48 0 -48 -77h-50q0 64 24.5 94.5t68.5 30.5q33 0 54.5 -16t38.5 -33q13 -14 26.5 -24.5t29.5 -10.5q48 0 48 78h51q0 -125 -93 -125zM350 -7q-59 0 -107 18t-82.5 51.5t-53.5 80.5t-19 105v452h72v-448
q0 -43 13.5 -78t38.5 -59.5t60 -38t78 -13.5q42 0 77 13.5t60 38t38.5 59.5t13.5 78v448h72v-452q0 -58 -19 -105t-53 -80.5t-82 -51.5t-107 -18z" />
    <glyph glyph-name="utilde" unicode="&#x169;" horiz-adv-x="657" 
d="M255 667q-48 0 -48 -77h-49q0 65 24.5 95t68.5 30q33 0 55.5 -15.5t39.5 -33.5q13 -14 26.5 -24t28.5 -10q49 0 49 77h49q0 -62 -24 -93.5t-69 -31.5q-33 0 -55.5 15.5t-39.5 32.5q-14 14 -27 24.5t-29 10.5zM503 530h68v-530h-68v96q-30 -49 -80.5 -76.5t-116.5 -27.5
q-104 0 -162 64.5t-58 179.5v294h68v-293q0 -88 42 -135t122 -47q42 0 76 13t58 37t37.5 57.5t13.5 73.5v294z" />
    <glyph glyph-name="Umacron" unicode="&#x16a;" horiz-adv-x="699" 
d="M194 806v54h311v-54h-311zM350 -7q-59 0 -107 18t-82.5 51.5t-53.5 80.5t-19 105v452h72v-448q0 -43 13.5 -78t38.5 -59.5t60 -38t78 -13.5q42 0 77 13.5t60 38t38.5 59.5t13.5 78v448h72v-452q0 -58 -19 -105t-53 -80.5t-82 -51.5t-107 -18z" />
    <glyph glyph-name="umacron" unicode="&#x16b;" horiz-adv-x="657" 
d="M477 674v-54h-296v54h296zM503 530h68v-530h-68v96q-30 -49 -80.5 -76.5t-116.5 -27.5q-104 0 -162 64.5t-58 179.5v294h68v-293q0 -88 42 -135t122 -47q42 0 76 13t58 37t37.5 57.5t13.5 73.5v294z" />
    <glyph glyph-name="Ubreve" unicode="&#x16c;" horiz-adv-x="699" 
d="M350 763q-69 0 -109.5 35.5t-40.5 95.5h59q0 -37 24.5 -57.5t66.5 -20.5t66.5 20.5t24.5 57.5h58q0 -60 -40 -95.5t-109 -35.5zM350 -7q-59 0 -107 18t-82.5 51.5t-53.5 80.5t-19 105v452h72v-448q0 -43 13.5 -78t38.5 -59.5t60 -38t78 -13.5q42 0 77 13.5t60 38
t38.5 59.5t13.5 78v448h72v-452q0 -58 -19 -105t-53 -80.5t-82 -51.5t-107 -18z" />
    <glyph glyph-name="ubreve" unicode="&#x16d;" horiz-adv-x="657" 
d="M328 593q-69 0 -109 35.5t-40 94.5h58q0 -35 24.5 -56.5t66.5 -21.5t67 21.5t25 56.5h58q0 -58 -40.5 -94t-109.5 -36zM503 530h68v-530h-68v96q-30 -49 -80.5 -76.5t-116.5 -27.5q-104 0 -162 64.5t-58 179.5v294h68v-293q0 -88 42 -135t122 -47q42 0 76 13t58 37
t37.5 57.5t13.5 73.5v294z" />
    <glyph glyph-name="Uring" unicode="&#x16e;" horiz-adv-x="699" 
d="M350 745q-45 0 -72 25t-27 67q0 41 27 66.5t72 25.5t72 -25.5t27 -66.5q0 -42 -27 -67t-72 -25zM350 785q25 0 39 15.5t14 36.5t-14 36.5t-39 15.5t-39 -15.5t-14 -36.5t14 -36.5t39 -15.5zM350 -7q-59 0 -107 18t-82.5 51.5t-53.5 80.5t-19 105v452h72v-448
q0 -43 13.5 -78t38.5 -59.5t60 -38t78 -13.5q42 0 77 13.5t60 38t38.5 59.5t13.5 78v448h72v-452q0 -58 -19 -105t-53 -80.5t-82 -51.5t-107 -18z" />
    <glyph glyph-name="uring" unicode="&#x16f;" horiz-adv-x="657" 
d="M329 580q-45 0 -72 25t-27 66t27 66t72 25t72 -25t27 -66t-27 -66t-72 -25zM329 722q-25 0 -39 -15t-14 -36t14 -36.5t39 -15.5t39 15.5t14 36.5t-14 36t-39 15zM503 530h68v-530h-68v96q-30 -49 -80.5 -76.5t-116.5 -27.5q-104 0 -162 64.5t-58 179.5v294h68v-293
q0 -88 42 -135t122 -47q42 0 76 13t58 37t37.5 57.5t13.5 73.5v294z" />
    <glyph glyph-name="Uhungarumlaut" unicode="&#x170;" horiz-adv-x="699" 
d="M235 764v5l86 127h81v-6l-99 -126h-68zM385 764v5l102 127h81v-6l-114 -126h-69zM350 -7q-59 0 -107 18t-82.5 51.5t-53.5 80.5t-19 105v452h72v-448q0 -43 13.5 -78t38.5 -59.5t60 -38t78 -13.5q42 0 77 13.5t60 38t38.5 59.5t13.5 78v448h72v-452q0 -58 -19 -105
t-53 -80.5t-82 -51.5t-107 -18z" />
    <glyph glyph-name="uhungarumlaut" unicode="&#x171;" horiz-adv-x="657" 
d="M373 713l-99 -126h-68v6l85 126h82v-6zM355 587v6l102 126h82v-6l-114 -126h-70zM503 530h68v-530h-68v96q-30 -49 -80.5 -76.5t-116.5 -27.5q-104 0 -162 64.5t-58 179.5v294h68v-293q0 -88 42 -135t122 -47q42 0 76 13t58 37t37.5 57.5t13.5 73.5v294z" />
    <glyph glyph-name="Uogonek" unicode="&#x172;" horiz-adv-x="699" 
d="M539 700h72v-452q0 -73 -29.5 -128.5t-81.5 -87.5q-60 -40 -98.5 -73t-38.5 -65t44 -32q24 0 59 11v-51q-20 -8 -38 -11.5t-35 -3.5q-38 0 -65.5 18.5t-27.5 56.5q0 28 19 55.5t54 56.5q-6 -1 -11.5 -1h-11.5q-59 0 -107 18t-82.5 51.5t-53.5 80.5t-19 105v452h72v-448
q0 -43 13.5 -78t38.5 -59.5t60 -38t78 -13.5q42 0 77 13.5t60 38t38.5 59.5t13.5 78v448z" />
    <glyph glyph-name="uogonek" unicode="&#x173;" horiz-adv-x="657" 
d="M516 -138q25 0 58 11v-51q-20 -8 -37 -11.5t-35 -3.5q-38 0 -65 18t-27 57q0 30 23.5 60t69.5 64v90q-30 -49 -80.5 -76.5t-116.5 -27.5q-104 0 -162 64.5t-58 179.5v294h68v-293q0 -88 42 -135t122 -47q42 0 76 13t58 37t37.5 57.5t13.5 73.5v294h68v-530h-1
q-45 -32 -71.5 -57t-26.5 -50q1 -31 44 -31z" />
    <glyph glyph-name="Wcircumflex" unicode="&#x174;" horiz-adv-x="981" 
d="M491 854l-92 -90h-69v7l128 125h69l126 -125v-7h-69zM888 700h71v-7l-227 -693h-51l-103 251l-87 213l-88 -213l-102 -251h-51l-228 693v7h73l60 -187l126 -384l186 448h48l187 -448l127 391z" />
    <glyph glyph-name="wcircumflex" unicode="&#x175;" horiz-adv-x="848" 
d="M425 675l-89 -89h-73v7l128 125h69l127 -125v-7h-73zM758 530h70v-4l-192 -526h-52l-84 203l-76 190l-76 -190l-85 -203h-51l-192 526v4h71l149 -426l160 389h49l159 -389l83 237z" />
    <glyph glyph-name="Ycircumflex" unicode="&#x176;" horiz-adv-x="617" 
d="M309 854l-92 -90h-69v7l128 125h69l126 -125v-7h-69zM600 700v-7l-255 -407v-286h-72v283l-256 410v7h81l132 -212l78 -127l79 127l134 212h79z" />
    <glyph glyph-name="ycircumflex" unicode="&#x177;" horiz-adv-x="547" 
d="M274 675l-89 -89h-73v7l128 125h69l127 -125v-7h-73zM453 530h76v-4l-322 -679h-74v3l100 209l-215 467v4h75l103 -227l74 -169l76 166z" />
    <glyph glyph-name="Ydieresis" unicode="&#x178;" horiz-adv-x="617" 
d="M204 780q-21 0 -35.5 14.5t-14.5 35.5q0 22 14.5 36t35.5 14q22 0 36 -14t14 -36q0 -21 -14 -35.5t-36 -14.5zM414 780q-22 0 -36.5 14.5t-14.5 35.5q0 22 14.5 36t36.5 14q21 0 35.5 -14t14.5 -36q0 -21 -14.5 -35.5t-35.5 -14.5zM600 700v-7l-255 -407v-286h-72v283
l-256 410v7h81l132 -212l78 -127l79 127l134 212h79z" />
    <glyph glyph-name="Zacute" unicode="&#x179;" horiz-adv-x="584" 
d="M427 890l-102 -126h-69v5l89 127h82v-6zM548 69v-69h-511v46l404 586h-388v68h489v-44l-404 -587h410z" />
    <glyph glyph-name="zacute" unicode="&#x17a;" horiz-adv-x="490" 
d="M369 714l-93 -127h-69v6l78 127h84v-6zM457 62v-62h-422v42l319 427h-301v61h397v-40l-320 -428h327z" />
    <glyph glyph-name="Zdotaccent" unicode="&#x17b;" horiz-adv-x="584" 
d="M306 782q-23 0 -38.5 15.5t-15.5 38.5t15.5 38.5t38.5 15.5t38 -15.5t15 -38.5t-15 -38.5t-38 -15.5zM548 69v-69h-511v46l404 586h-388v68h489v-44l-404 -587h410z" />
    <glyph glyph-name="zdotaccent" unicode="&#x17c;" horiz-adv-x="490" 
d="M256 607q-23 0 -38 15t-15 38t15 38.5t38 15.5t38 -15.5t15 -38.5t-15 -38t-38 -15zM457 62v-62h-422v42l319 427h-301v61h397v-40l-320 -428h327z" />
    <glyph glyph-name="Zcaron" unicode="&#x17d;" horiz-adv-x="584" 
d="M342 763h-69l-128 125v7h70l92 -90l92 90h70v-7zM548 69v-69h-511v46l404 586h-388v68h489v-44l-404 -587h410z" />
    <glyph glyph-name="zcaron" unicode="&#x17e;" horiz-adv-x="490" 
d="M291 591h-69l-128 125v7h73l89 -89l89 89h73v-7zM457 62v-62h-422v42l319 427h-301v61h397v-40l-320 -428h327z" />
    <glyph glyph-name="longs" unicode="&#x17f;" horiz-adv-x="340" 
d="M95 0v550q0 76 39.5 118.5t125.5 42.5q14 0 30 -1.5t33 -3.5v-59q-30 3 -52 3q-60 0 -84 -25.5t-24 -79.5v-545h-68z" />
    <glyph glyph-name="uni018F" unicode="&#x18f;" horiz-adv-x="811" 
d="M402 711q76 0 139.5 -27t110 -75t72.5 -114.5t26 -144.5t-26 -144t-72.5 -114t-110.5 -75t-139 -27q-78 0 -142.5 28.5t-110.5 80t-70.5 122.5t-21.5 156h620q-4 58 -26.5 106.5t-58.5 83t-84.5 54t-105.5 19.5q-83 0 -147 -37t-97 -104h-78q19 49 50.5 88.5t73.5 67
t92 42t106 14.5zM402 60q56 0 103.5 18.5t83.5 51.5t58.5 79.5t28.5 101.5h-546q7 -55 29.5 -101.5t58.5 -79.5t82.5 -51.5t101.5 -18.5z" />
    <glyph glyph-name="florin" unicode="&#x192;" horiz-adv-x="494" 
d="M446 653q-58 0 -86.5 -24.5t-39.5 -78.5l-4 -20h154l-12 -58h-153l-94 -486q-17 -88 -58 -127.5t-121 -39.5q-14 0 -29 1.5t-32 3.5l12 62q24 -3 43 -3q54 0 80.5 26.5t37.5 83.5l93 479h-112l12 58h112l4 22q17 84 64 121.5t128 37.5q15 0 31.5 -1.5t33.5 -3.5l-11 -57
q-14 2 -27.5 3t-25.5 1z" />
    <glyph glyph-name="Gcaron" unicode="&#x1e6;" horiz-adv-x="811" 
d="M444 763h-69l-128 125v7h70l92 -90l92 90h70v-7zM388 343h368q-2 -78 -28.5 -143t-72.5 -112t-108.5 -73t-137.5 -26t-138.5 27.5t-110 75.5t-73 114t-26.5 144t26.5 144t73 114t110.5 75.5t139 27.5q59 0 111.5 -17t95.5 -48.5t74.5 -76t48.5 -100.5h-74
q-31 80 -99 125.5t-156 45.5q-60 0 -111 -22t-87.5 -60.5t-57.5 -91.5t-21 -116t21 -116t57.5 -91.5t87.5 -60.5t111 -22q50 0 94.5 15.5t80 43.5t59.5 68t33 88h-290v68z" />
    <glyph glyph-name="gcaron" unicode="&#x1e7;" horiz-adv-x="687" 
d="M379 591h-69l-128 125v7h73l89 -89l89 89h73v-7zM524 530h68v-454q0 -57 -19.5 -102t-54.5 -75.5t-83 -47t-105 -16.5q-46 0 -87.5 10t-74.5 29.5t-56.5 49t-33.5 68.5h71q9 -24 26 -41.5t40 -29.5t51 -17.5t59 -5.5q45 0 81.5 11.5t62.5 34.5t40.5 56.5t14.5 76.5v47
q-35 -46 -89 -73.5t-119 -27.5q-57 0 -105 20t-83 54.5t-54.5 81.5t-19.5 101t19.5 101.5t54.5 82t83 54.5t105 20q65 0 119 -27t89 -73v92zM324 86q44 0 81 14.5t63.5 40.5t41.5 61.5t15 77.5t-15 78t-41.5 62t-63.5 40.5t-81 14.5t-81 -15t-63.5 -41t-41.5 -62t-15 -77
t15 -76.5t41.5 -61.5t63.5 -41t81 -15z" />
    <glyph glyph-name="AEacute" unicode="&#x1fc;" horiz-adv-x="899" 
d="M601 890l-102 -126h-69v5l89 127h82v-6zM504 69h345v-69h-417v179h-242l-98 -179h-78v7l384 693h444v-69h-338v-242h318v-69h-318v-251zM225 246h207v379z" />
    <glyph glyph-name="aeacute" unicode="&#x1fd;" horiz-adv-x="1120" 
d="M677 714l-93 -127h-69v6l78 127h84v-6zM601 243q3 -41 19 -75.5t42.5 -59t61.5 -38.5t76 -14q61 0 108 26t71 74h74q-29 -77 -95 -120.5t-154 -43.5q-65 0 -118 24.5t-88 69.5v-86h-68v93q-35 -48 -89 -74.5t-122 -26.5q-58 0 -106.5 20.5t-83.5 57t-55 86.5t-20 109
t20 109t55 86.5t83.5 57t106.5 20.5q68 0 122 -26.5t89 -74.5v93h68v-86q35 45 88 69.5t118 24.5q62 0 112 -22t85 -61t53 -93t16 -119h-469zM327 56q44 0 81.5 15.5t64.5 43.5t42.5 66.5t15.5 83.5t-15.5 83.5t-42.5 66.5t-64.5 43.5t-81.5 15.5q-45 0 -82.5 -15.5
t-64.5 -43.5t-42 -66.5t-15 -83.5t15 -83.5t42 -66.5t64.5 -43.5t82.5 -15.5zM800 474q-39 0 -73 -12.5t-59.5 -35t-42 -54t-22.5 -70.5h396q-6 38 -23 69.5t-43.5 54t-60 35.5t-72.5 13z" />
    <glyph glyph-name="Oslashacute" unicode="&#x1fe;" horiz-adv-x="826" 
d="M533 890l-102 -126h-69v5l89 127h82v-6zM628 642q64 -49 101 -124t37 -168q0 -78 -26.5 -144t-74 -114t-112 -75.5t-140.5 -27.5q-44 0 -84 9.5t-75 26.5l-51 -85h-72v7l68 112q-64 48 -101 123t-37 168q0 78 26.5 144t73.5 114t111.5 75.5t140.5 27.5q44 0 84 -9.5
t75 -26.5l51 84h72v-7zM134 350q0 -72 27.5 -131.5t75.5 -98.5l298 494q-55 26 -122 26q-60 0 -111.5 -22t-88.5 -60.5t-58 -91.5t-21 -116zM413 60q61 0 112 22t88.5 60.5t58.5 91.5t21 116q0 72 -27.5 131.5t-76.5 98.5l-299 -493q27 -13 58 -20t65 -7z" />
    <glyph glyph-name="oslashacute" unicode="&#x1ff;" horiz-adv-x="659" 
d="M442 714l-93 -127h-69v6l78 127h84v-6zM493 488q51 -37 80.5 -94t29.5 -129q0 -59 -20.5 -109t-57 -86.5t-86.5 -57t-110 -20.5t-113 22l-50 -85h-65v6l64 107q-51 37 -80 94.5t-29 128.5q0 59 20.5 109t56.5 86.5t86 57t110 20.5q61 0 114 -22l50 85h64v-6zM125 265
q0 -53 20 -95.5t55 -70.5l209 360q-36 15 -80 15t-81.5 -15.5t-64.5 -43.5t-42.5 -66.5t-15.5 -83.5zM329 56q45 0 82.5 15.5t64.5 43.5t42 66.5t15 83.5q0 53 -20.5 95.5t-55.5 71.5l-209 -361q36 -15 81 -15z" />
    <glyph glyph-name="uni0218" unicode="&#x218;" horiz-adv-x="623" 
d="M316 -9q-53 0 -97.5 15.5t-78 44t-53.5 68.5t-24 89h72q3 -33 17.5 -60t38.5 -46t56 -29.5t69 -10.5q84 0 131 34t47 96q0 32 -12.5 54t-36 37.5t-58 25t-78.5 16.5q-52 8 -94.5 22.5t-72.5 37.5t-46 56t-16 78q0 42 16.5 77t47.5 60t74 39t96 14q102 0 166.5 -52.5
t76.5 -145.5h-72q-12 65 -57.5 96.5t-114.5 31.5q-75 0 -118.5 -32t-43.5 -88q0 -31 11.5 -52.5t34.5 -36t57 -23.5t79 -16q54 -9 97 -24t74 -39t47.5 -57.5t16.5 -78.5t-18 -82.5t-51 -63.5t-79.5 -40.5t-103.5 -14.5zM263 -206l31 164h68v-14l-41 -150h-58z" />
    <glyph glyph-name="uni0219" unicode="&#x219;" horiz-adv-x="554" 
d="M282 -8q-100 0 -159.5 46.5t-63.5 125.5h70q3 -51 44.5 -79.5t109.5 -28.5q69 0 109.5 23t40.5 68q0 20 -7.5 34.5t-25.5 25t-48 18t-75 13.5q-57 8 -96 20t-64 30t-36 43.5t-11 59.5q0 36 16 64t44 46.5t66.5 28t84.5 9.5q92 0 147 -42t60 -115h-69q-4 44 -41.5 69.5
t-98.5 25.5q-67 0 -103.5 -22.5t-36.5 -63.5q0 -20 7.5 -34.5t25.5 -25t48 -18t74 -12.5q49 -6 87.5 -17t65.5 -28.5t41 -43t14 -61.5q0 -39 -16.5 -69t-46 -50t-70 -30t-87.5 -10zM224 -206l31 164h68v-14l-41 -150h-58z" />
    <glyph glyph-name="uni021A" unicode="&#x21a;" horiz-adv-x="556" 
d="M528 700v-68h-214v-632h-72v632h-214v68h500zM213 -206l31 164h68v-14l-41 -150h-58z" />
    <glyph glyph-name="uni021B" unicode="&#x21b;" horiz-adv-x="397" 
d="M307 61q11 0 24.5 0.5t27.5 2.5v-64q-31 -3 -59 -3q-88 0 -128 40.5t-40 128.5v306h-116v58h116v125l68 7v-132h152v-58h-152v-298q0 -60 23.5 -86.5t83.5 -26.5zM200 -206l31 164h68v-14l-41 -150h-58z" />
    <glyph glyph-name="uni0232" unicode="&#x232;" horiz-adv-x="617" 
d="M465 860v-54h-311v54h311zM600 700v-7l-255 -407v-286h-72v283l-256 410v7h81l132 -212l78 -127l79 127l134 212h79z" />
    <glyph glyph-name="uni0233" unicode="&#x233;" horiz-adv-x="547" 
d="M422 674v-54h-296v54h296zM453 530h76v-4l-322 -679h-74v3l100 209l-215 467v4h75l103 -227l74 -169l76 166z" />
    <glyph glyph-name="uni0237" unicode="&#x237;" horiz-adv-x="259" 
d="M7 -164q-25 0 -52 3v62q11 -1 21 -1.5t19 -0.5q57 0 78.5 26t21.5 84v521h68v-528q0 -86 -36.5 -126t-119.5 -40z" />
    <glyph glyph-name="uni0259" unicode="&#x259;" horiz-adv-x="643" 
d="M320 538q59 0 108 -20.5t85 -56.5t56 -86t20 -110t-20 -110t-56 -86t-85 -56.5t-108 -20.5q-61 0 -112 21.5t-87 60t-55 93t-16 120.5h469q-3 41 -19 75.5t-42.5 59.5t-61.5 38.5t-76 13.5q-60 0 -107.5 -26t-71.5 -74h-74q29 77 96 120.5t157 43.5zM320 56q39 0 73 12.5
t59.5 35t42 54t22.5 70.5h-396q6 -37 23 -69t43 -54.5t60 -35.5t73 -13z" />
    <glyph glyph-name="uni02BC" unicode="&#x2bc;" horiz-adv-x="219" 
d="M47 500v4l45 196h74v-13l-56 -187h-63z" />
    <glyph glyph-name="circumflex" unicode="&#x2c6;" horiz-adv-x="463" 
d="M267 718l127 -125v-7h-73l-89 89l-89 -89h-73v7l128 125h69z" />
    <glyph glyph-name="caron" unicode="&#x2c7;" horiz-adv-x="461" 
d="M320 723h73v-7l-127 -125h-69l-128 125v7h73l89 -89z" />
    <glyph glyph-name="breve" unicode="&#x2d8;" horiz-adv-x="383" 
d="M191 593q-69 0 -109 35.5t-40 94.5h58q0 -35 24.5 -56.5t66.5 -21.5t67 21.5t25 56.5h58q0 -58 -40.5 -94t-109.5 -36z" />
    <glyph glyph-name="dotaccent" unicode="&#x2d9;" horiz-adv-x="287" 
d="M144 607q-23 0 -38 15t-15 38t15 38.5t38 15.5t38 -15.5t15 -38.5t-15 -38t-38 -15z" />
    <glyph glyph-name="ring" unicode="&#x2da;" horiz-adv-x="298" 
d="M149 580q-45 0 -72 25t-27 66t27 66t72 25t72 -25t27 -66t-27 -66t-72 -25zM149 619q25 0 39 15.5t14 36.5t-14 36t-39 15t-39 -15t-14 -36t14 -36.5t39 -15.5z" />
    <glyph glyph-name="ogonek" unicode="&#x2db;" horiz-adv-x="281" 
d="M145 -193q-38 0 -65 18t-27 57q0 34 29 67.5t86 72.5l45 -22q-45 -32 -71.5 -57t-26.5 -50q1 -31 44 -31q25 0 58 11v-51q-20 -8 -37 -11.5t-35 -3.5z" />
    <glyph glyph-name="tilde" unicode="&#x2dc;" horiz-adv-x="587" 
d="M376 584q-33 0 -55.5 15.5t-39.5 32.5q-14 14 -27 24.5t-29 10.5q-48 0 -48 -77h-49q0 65 24.5 95t68.5 30q33 0 55.5 -15.5t39.5 -33.5q13 -14 26.5 -24t28.5 -10q49 0 49 77h49q0 -62 -24 -93.5t-69 -31.5z" />
    <glyph glyph-name="hungarumlaut" unicode="&#x2dd;" horiz-adv-x="524" 
d="M105 587v6l85 126h82v-6l-99 -126h-68zM254 587v6l102 126h82v-6l-114 -126h-70z" />
    <glyph glyph-name="gravecomb" unicode="&#x300;" horiz-adv-x="0" 
d="M-102 587h-70l-93 127v6h85l78 -127v-6z" />
    <glyph glyph-name="acutecomb" unicode="&#x301;" horiz-adv-x="0" 
d="M-248 587v6l78 127h84v-6l-93 -127h-69z" />
    <glyph glyph-name="uni0302" unicode="&#x302;" horiz-adv-x="0" 
d="M-196 718l127 -125v-7h-73l-89 89l-89 -89h-73v7l128 125h69z" />
    <glyph glyph-name="tildecomb" unicode="&#x303;" horiz-adv-x="0" 
d="M-211 584q-33 0 -55.5 15.5t-39.5 32.5q-14 14 -27 24.5t-29 10.5q-48 0 -48 -77h-49q0 65 24.5 95t68.5 30q33 0 55.5 -15.5t39.5 -33.5q13 -14 26.5 -24t28.5 -10q49 0 49 77h49q0 -62 -24 -93.5t-69 -31.5z" />
    <glyph glyph-name="uni0304" unicode="&#x304;" horiz-adv-x="0" 
d="M-361 620v54h296v-54h-296z" />
    <glyph glyph-name="uni0306" unicode="&#x306;" horiz-adv-x="0" 
d="M-192 593q-69 0 -109 35.5t-40 94.5h58q0 -35 24.5 -56.5t66.5 -21.5t67 21.5t25 56.5h58q0 -58 -40.5 -94t-109.5 -36z" />
    <glyph glyph-name="uni0307" unicode="&#x307;" horiz-adv-x="0" 
d="M-143 607q-23 0 -38 15t-15 38t15 38.5t38 15.5t38 -15.5t15 -38.5t-15 -38t-38 -15z" />
    <glyph glyph-name="uni0308" unicode="&#x308;" horiz-adv-x="0" 
d="M-339 603q-21 0 -35.5 14.5t-14.5 36.5q0 21 14.5 35.5t35.5 14.5t36 -14.5t15 -35.5q0 -22 -15 -36.5t-36 -14.5zM-122 603q-22 0 -36.5 14.5t-14.5 36.5q0 21 14.5 35.5t36.5 14.5q21 0 35.5 -14.5t14.5 -35.5q0 -22 -14.5 -36.5t-35.5 -14.5z" />
    <glyph glyph-name="uni030A" unicode="&#x30a;" horiz-adv-x="0" 
d="M-149 580q-45 0 -72 25t-27 66t27 66t72 25t72 -25t27 -66t-27 -66t-72 -25zM-149 619q25 0 39 15.5t14 36.5t-14 36t-39 15t-39 -15t-14 -36t14 -36.5t39 -15.5z" />
    <glyph glyph-name="uni030B" unicode="&#x30b;" horiz-adv-x="0" 
d="M-419 587v6l85 126h82v-6l-99 -126h-68zM-270 587v6l102 126h82v-6l-114 -126h-70z" />
    <glyph glyph-name="uni030C" unicode="&#x30c;" horiz-adv-x="0" 
d="M-141 723h73v-7l-127 -125h-69l-128 125v7h73l89 -89z" />
    <glyph glyph-name="uni0312" unicode="&#x312;" horiz-adv-x="0" 
d="M-202 587v15l40 135h58v-7l-31 -143h-67z" />
    <glyph glyph-name="uni0326" unicode="&#x326;" horiz-adv-x="0" 
d="M-156 -206l31 164h68v-14l-41 -150h-58z" />
    <glyph glyph-name="uni0327" unicode="&#x327;" horiz-adv-x="0" 
d="M-154 -46q47 0 69.5 -19t22.5 -51q0 -38 -26.5 -58.5t-77.5 -20.5q-18 0 -40.5 3.5t-45.5 8.5v50q39 -12 75 -12q26 0 42.5 7.5t16.5 25.5q0 17 -16.5 24t-39.5 7q-20 0 -36 -4l-10 15l39 78h54z" />
    <glyph glyph-name="uni0328" unicode="&#x328;" horiz-adv-x="0" 
d="M-136 -193q-38 0 -65 18t-27 57q0 34 29 67.5t86 72.5l45 -22q-45 -32 -71.5 -57t-26.5 -50q1 -31 44 -31q25 0 58 11v-51q-20 -8 -37 -11.5t-35 -3.5z" />
    <glyph glyph-name="uni037E" unicode="&#x37e;" horiz-adv-x="286" 
d="M160 393q-20 0 -34 14t-14 34q0 21 14 35t34 14t34.5 -14t14.5 -35q0 -20 -14.5 -34t-34.5 -14zM80 -112v5l45 196h73v-14l-55 -187h-63z" />
    <glyph glyph-name="tonos" unicode="&#x384;" horiz-adv-x="353" 
d="M105 587v6l78 127h84v-6l-93 -127h-69z" />
    <glyph glyph-name="dieresistonos" unicode="&#x385;" horiz-adv-x="434" 
d="M143 587v6l37 129h76v-6l-51 -129h-62zM83 607q-20 0 -33 13.5t-13 33.5t13 33.5t33 13.5t33.5 -13.5t13.5 -33.5t-13.5 -33.5t-33.5 -13.5zM308 607q-20 0 -33 13.5t-13 33.5t13 33.5t33 13.5t33.5 -13.5t13.5 -33.5t-13.5 -33.5t-33.5 -13.5z" />
    <glyph glyph-name="Alphatonos" unicode="&#x386;" horiz-adv-x="648" 
d="M350 700l282 -693v-7h-75l-71 179h-324l-72 -179h-74v7l282 693h52zM170 694l-60 -131h-65v5l46 132h79v-6zM324 586l-136 -340h272z" />
    <glyph glyph-name="anoteleia" unicode="&#x387;" horiz-adv-x="252" 
d="M126 280q-20 0 -34 14t-14 34t14 34t34 14t34 -14t14 -34t-14 -34t-34 -14z" />
    <glyph glyph-name="Epsilontonos" unicode="&#x388;" horiz-adv-x="570" 
d="M-69 568l46 132h79v-6l-60 -131h-65v5zM174 69h345v-69h-416v700h409v-69h-338v-242h319v-69h-319v-251z" />
    <glyph glyph-name="Etatonos" unicode="&#x389;" horiz-adv-x="734" 
d="M-69 568l46 132h79v-6l-60 -131h-65v5zM559 700h72v-700h-72v321h-385v-321h-71v700h71v-310h385v310z" />
    <glyph glyph-name="Iotatonos" unicode="&#x38a;" horiz-adv-x="463" 
d="M-98 568l46 132h79v-6l-60 -131h-65v5zM268 67h136v-67h-345v67h137v568h-134v65h339v-65h-133v-568z" />
    <glyph glyph-name="Omicrontonos" unicode="&#x38c;" horiz-adv-x="826" 
d="M413 -11q-76 0 -140.5 27.5t-111.5 75.5t-73.5 114t-26.5 144t26.5 144t73.5 114t111.5 75.5t140.5 27.5t140.5 -27.5t112 -75.5t74 -114t26.5 -144t-26.5 -144t-74 -114t-112 -75.5t-140.5 -27.5zM-25 563v5l46 132h79v-6l-60 -131h-65zM413 60q61 0 112 22t88.5 60.5
t58.5 91.5t21 116t-21 116t-58.5 91.5t-88.5 60.5t-112 22q-60 0 -111.5 -22t-88.5 -60.5t-58 -91.5t-21 -116t21 -116t58 -91.5t88.5 -60.5t111.5 -22z" />
    <glyph glyph-name="Upsilontonos" unicode="&#x38e;" horiz-adv-x="617" 
d="M-136 568l45 132h79v-6l-60 -131h-64v5zM600 700v-7l-255 -407v-286h-72v283l-256 410v7h81l132 -212l78 -127l79 127l134 212h79z" />
    <glyph glyph-name="Omegatonos" unicode="&#x38f;" horiz-adv-x="848" 
d="M792 68v-68h-292v68q96 31 149.5 105.5t53.5 176.5q0 63 -21 116t-58 92t-88 60.5t-112 21.5t-112 -21.5t-88.5 -60.5t-58.5 -92t-21 -116q0 -51 14.5 -96t41 -81.5t64 -63.5t84.5 -41v-68h-292v68h163q-71 47 -109.5 121t-38.5 167q0 76 27 141t74 112.5t112 74.5
t140 27t139.5 -27t112 -74.5t74 -112.5t26.5 -141q0 -91 -38.5 -166t-109.5 -122h164zM115 700v-6l-60 -131h-65v5l46 132h79z" />
    <glyph glyph-name="iotadieresistonos" unicode="&#x390;" horiz-adv-x="335" 
d="M70 587v6l37 129h76v-6l-51 -129h-62zM10 607q-20 0 -33 13.5t-13 33.5t13 33.5t33 13.5t33.5 -13.5t13.5 -33.5t-13.5 -33.5t-33.5 -13.5zM235 607q-20 0 -33 13.5t-13 33.5t13 33.5t33 13.5t33.5 -13.5t13.5 -33.5t-13.5 -33.5t-33.5 -13.5zM251 -3q-85 0 -125 42.5
t-40 136.5v354h68v-346q0 -68 24.5 -95.5t80.5 -27.5q27 0 51 3v-64q-31 -3 -59 -3z" />
    <glyph glyph-name="Alpha" unicode="&#x391;" horiz-adv-x="648" 
d="M350 700l282 -693v-7h-75l-71 179h-324l-72 -179h-74v7l282 693h52zM324 586l-136 -340h272z" />
    <glyph glyph-name="Beta" unicode="&#x392;" horiz-adv-x="631" 
d="M474 372q51 -23 80 -69t29 -106q0 -44 -14.5 -80t-41 -62t-63.5 -40.5t-81 -14.5h-280v700h266q40 0 73.5 -12.5t57.5 -36t37 -56t13 -72.5q0 -50 -20 -89t-56 -62zM174 631v-233h192q53 0 82 32t29 86t-31 84.5t-82 30.5h-190zM377 69q60 0 96.5 34.5t36.5 96.5
q0 60 -36.5 95.5t-97.5 35.5h-202v-262h203z" />
    <glyph glyph-name="Gamma" unicode="&#x393;" horiz-adv-x="492" 
d="M103 0v700h376v-69h-305v-631h-71z" />
    <glyph glyph-name="uni0394" unicode="&#x394;" horiz-adv-x="667" 
d="M359 700l292 -693v-7h-635v7l292 693h51zM119 69h428l-85 200l-129 311l-129 -311z" />
    <glyph glyph-name="Epsilon" unicode="&#x395;" horiz-adv-x="570" 
d="M174 69h345v-69h-416v700h409v-69h-338v-242h319v-69h-319v-251z" />
    <glyph glyph-name="Zeta" unicode="&#x396;" horiz-adv-x="584" 
d="M548 69v-69h-511v46l404 586h-388v68h489v-44l-404 -587h410z" />
    <glyph glyph-name="Eta" unicode="&#x397;" horiz-adv-x="734" 
d="M559 700h72v-700h-72v321h-385v-321h-71v700h71v-310h385v310z" />
    <glyph glyph-name="Theta" unicode="&#x398;" horiz-adv-x="826" 
d="M413 -11q-76 0 -140.5 27.5t-111.5 75.5t-73.5 114t-26.5 144t26.5 144t73.5 114t111.5 75.5t140.5 27.5t140.5 -27.5t112 -75.5t74 -114t26.5 -144t-26.5 -144t-74 -114t-112 -75.5t-140.5 -27.5zM413 60q61 0 112 22t88.5 60.5t58.5 91.5t21 116t-21 116t-58.5 91.5
t-88.5 60.5t-112 22q-60 0 -111.5 -22t-88.5 -60.5t-58 -91.5t-21 -116t21 -116t58 -91.5t88.5 -60.5t111.5 -22zM225 317v66h376v-66h-376z" />
    <glyph glyph-name="Iota" unicode="&#x399;" horiz-adv-x="463" 
d="M268 67h136v-67h-345v67h137v568h-134v65h339v-65h-133v-568z" />
    <glyph glyph-name="Kappa" unicode="&#x39a;" horiz-adv-x="619" 
d="M103 0v700h71v-700h-71zM290 354l311 -347v-7h-88l-302 341v23l290 336h84v-7z" />
    <glyph glyph-name="Lambda" unicode="&#x39b;" horiz-adv-x="639" 
d="M345 700l278 -693v-7h-75l-76 195l-153 384l-153 -384l-76 -195h-74v7l278 693h51z" />
    <glyph glyph-name="Mu" unicode="&#x39c;" horiz-adv-x="858" 
d="M699 700h56v-700h-71v559l-234 -337h-41l-235 337v-559h-71v700h56l270 -390z" />
    <glyph glyph-name="Nu" unicode="&#x39d;" horiz-adv-x="733" 
d="M631 700v-700h-57l-400 556v-556h-71v700h54l402 -559v559h72z" />
    <glyph glyph-name="Xi" unicode="&#x39e;" horiz-adv-x="593" 
d="M55 632v68h484v-68h-484zM105 320v67h384v-67h-384zM46 0v69h502v-69h-502z" />
    <glyph glyph-name="Omicron" unicode="&#x39f;" horiz-adv-x="826" 
d="M413 -11q-76 0 -140.5 27.5t-111.5 75.5t-73.5 114t-26.5 144t26.5 144t73.5 114t111.5 75.5t140.5 27.5t140.5 -27.5t112 -75.5t74 -114t26.5 -144t-26.5 -144t-74 -114t-112 -75.5t-140.5 -27.5zM413 60q61 0 112 22t88.5 60.5t58.5 91.5t21 116t-21 116t-58.5 91.5
t-88.5 60.5t-112 22q-60 0 -111.5 -22t-88.5 -60.5t-58 -91.5t-21 -116t21 -116t58 -91.5t88.5 -60.5t111.5 -22z" />
    <glyph glyph-name="Pi" unicode="&#x3a0;" horiz-adv-x="718" 
d="M103 0v700h513v-700h-72v631h-370v-631h-71z" />
    <glyph glyph-name="Rho" unicode="&#x3a1;" horiz-adv-x="604" 
d="M352 700q50 0 91.5 -17t71 -47.5t45.5 -72.5t16 -93t-16 -93t-45.5 -72t-71 -47t-91.5 -17h-178v-241h-71v700h249zM345 308q36 0 65.5 11.5t50 33t32 51.5t11.5 66t-11.5 66t-32 51.5t-50 33t-65.5 11.5h-171v-324h171z" />
    <glyph glyph-name="Sigma" unicode="&#x3a3;" horiz-adv-x="579" 
d="M538 69v-69h-497l-1 46l231 312l-219 298v44h477v-69h-373l192 -261v-25l-205 -276h395z" />
    <glyph glyph-name="Tau" unicode="&#x3a4;" horiz-adv-x="556" 
d="M528 700v-68h-214v-632h-72v632h-214v68h500z" />
    <glyph glyph-name="Upsilon" unicode="&#x3a5;" horiz-adv-x="617" 
d="M600 700v-7l-255 -407v-286h-72v283l-256 410v7h81l132 -212l78 -127l79 127l134 212h79z" />
    <glyph glyph-name="Phi" unicode="&#x3a6;" horiz-adv-x="795" 
d="M744 355q0 -65 -22.5 -119t-63 -93.5t-98 -62t-127.5 -25.5v-72h-71v72q-73 2 -131 26t-98 64t-61 93.5t-21 116.5t21 116.5t61 93.5t98 64t131 26v70h71v-70q70 -3 127.5 -25.5t98 -61.5t63 -93t22.5 -120zM124 355q0 -51 16.5 -93.5t47 -73.5t75 -49t100.5 -20v473
q-56 -2 -100.5 -20t-75 -49t-47 -74t-16.5 -94zM432 119q54 2 98.5 19.5t75.5 48.5t48 73.5t17 94.5q0 53 -17 95.5t-48 73.5t-75.5 48.5t-98.5 19.5v-473z" />
    <glyph glyph-name="Chi" unicode="&#x3a7;" horiz-adv-x="644" 
d="M370 364l250 -357v-7h-83l-177 253l-37 54l-217 -307h-83v7l251 357l-230 329v7h83l145 -206l50 -74l51 74l146 206h82v-7z" />
    <glyph glyph-name="Psi" unicode="&#x3a8;" horiz-adv-x="813" 
d="M679 700h72v-259q0 -65 -22 -116.5t-62 -88t-97 -57t-128 -22.5v-157h-71v157q-70 2 -127.5 22t-97.5 57t-62 88.5t-22 116.5v259h72v-253q0 -105 61.5 -160t175.5 -59v472h71v-472q114 4 175.5 58.5t61.5 160.5v253z" />
    <glyph glyph-name="uni03A9" unicode="&#x3a9;" horiz-adv-x="848" 
d="M792 68v-68h-292v68q96 31 149.5 105.5t53.5 176.5q0 63 -21 116t-58 92t-88 60.5t-112 21.5t-112 -21.5t-88.5 -60.5t-58.5 -92t-21 -116q0 -51 14.5 -96t41 -81.5t64 -63.5t84.5 -41v-68h-292v68h163q-71 47 -109.5 121t-38.5 167q0 76 27 141t74 112.5t112 74.5
t140 27t139.5 -27t112 -74.5t74 -112.5t26.5 -141q0 -91 -38.5 -166t-109.5 -122h164z" />
    <glyph glyph-name="Iotadieresis" unicode="&#x3aa;" horiz-adv-x="463" 
d="M127 780q-21 0 -35.5 14.5t-14.5 35.5q0 22 14.5 36t35.5 14q22 0 36 -14t14 -36q0 -21 -14 -35.5t-36 -14.5zM337 780q-22 0 -36.5 14.5t-14.5 35.5q0 22 14.5 36t36.5 14q21 0 35.5 -14t14.5 -36q0 -21 -14.5 -35.5t-35.5 -14.5zM268 67h136v-67h-345v67h137v568h-134
v65h339v-65h-133v-568z" />
    <glyph glyph-name="Upsilondieresis" unicode="&#x3ab;" horiz-adv-x="617" 
d="M191 780q-21 0 -35.5 14.5t-14.5 35.5q0 22 14.5 36t35.5 14q22 0 36 -14t14 -36q0 -21 -14 -35.5t-36 -14.5zM401 780q-22 0 -36.5 14.5t-14.5 35.5q0 22 14.5 36t36.5 14q21 0 35.5 -14t14.5 -36q0 -21 -14.5 -35.5t-35.5 -14.5zM600 700v-7l-255 -407v-286h-72v283
l-256 410v7h81l132 -212l78 -127l79 127l134 212h79z" />
    <glyph glyph-name="alphatonos" unicode="&#x3ac;" horiz-adv-x="722" 
d="M454 714l-93 -127h-69v6l78 127h84v-6zM662 61h9.5t9.5 1v-62q-10 -2 -17.5 -2h-16.5q-104 0 -115 97q-35 -48 -90 -75.5t-123 -27.5q-57 0 -106 20.5t-84 57t-55 86.5t-20 109t20 109t55 86.5t84 57t106 20.5q67 0 121.5 -26.5t89.5 -74.5v93h68v-401q0 -68 64 -68z
M327 56q44 0 81.5 15.5t64.5 43.5t42.5 66.5t15.5 83.5t-15.5 83.5t-42.5 66.5t-64.5 43.5t-81.5 15.5q-45 0 -82.5 -15.5t-64.5 -43.5t-42 -66.5t-15 -83.5t15 -83.5t42 -66.5t64.5 -43.5t82.5 -15.5z" />
    <glyph glyph-name="epsilontonos" unicode="&#x3ad;" horiz-adv-x="514" 
d="M377 714l-93 -127h-69v6l78 127h84v-6zM474 146q-1 -36 -17 -65t-44 -49t-67 -31t-87 -11t-87.5 11t-68 31t-44 48.5t-15.5 63.5q0 46 27.5 82t72.5 52q-38 17 -58 47.5t-20 71.5q0 32 14 58.5t40 45.5t62.5 29t80.5 10t80.5 -10t63 -28.5t41.5 -45t16 -59.5h-64
q-3 39 -41 60.5t-95 21.5q-58 0 -95 -24.5t-37 -62.5q0 -40 32 -64.5t82 -24.5h95v-59h-96q-61 0 -97.5 -25.5t-36.5 -70.5q0 -44 39.5 -70t108.5 -26q33 0 60.5 6.5t47.5 18.5t31 29.5t11 39.5h65z" />
    <glyph glyph-name="etatonos" unicode="&#x3ae;" horiz-adv-x="699" 
d="M483 714l-93 -127h-69v6l78 127h84v-6zM390 538q106 0 164.5 -64t58.5 -180v-447h-68v444q0 90 -43 137t-122 47q-42 0 -76.5 -13t-59 -37t-38 -58t-13.5 -75v-292h-68v401q0 68 -63 68h-13.5t-8.5 -1v62q13 2 20 2h15q48 0 76.5 -23t36.5 -65q34 45 86 69.5t116 24.5z
" />
    <glyph glyph-name="iotatonos" unicode="&#x3af;" horiz-adv-x="335" 
d="M73 587v6l78 127h84v-6l-93 -127h-69zM251 -3q-85 0 -125 42.5t-40 136.5v354h68v-346q0 -68 24.5 -95.5t80.5 -27.5q27 0 51 3v-64q-31 -3 -59 -3z" />
    <glyph glyph-name="upsilondieresistonos" unicode="&#x3b0;" horiz-adv-x="625" 
d="M263 587v6l37 129h76v-6l-51 -129h-62zM203 607q-20 0 -33 13.5t-13 33.5t13 33.5t33 13.5t33.5 -13.5t13.5 -33.5t-13.5 -33.5t-33.5 -13.5zM428 607q-20 0 -33 13.5t-13 33.5t13 33.5t33 13.5t33.5 -13.5t13.5 -33.5t-13.5 -33.5t-33.5 -13.5zM312 -8q-51 0 -92.5 16.5
t-71.5 46.5t-46 72t-16 93v310h68v-306q0 -77 43 -122.5t115 -45.5q73 0 116 45.5t43 122.5v306h68v-310q0 -52 -16 -94t-46 -72t-72 -46t-93 -16z" />
    <glyph glyph-name="alpha" unicode="&#x3b1;" horiz-adv-x="722" 
d="M662 61h9.5t9.5 1v-62q-10 -2 -17.5 -2h-16.5q-104 0 -115 97q-35 -48 -90 -75.5t-123 -27.5q-57 0 -106 20.5t-84 57t-55 86.5t-20 109t20 109t55 86.5t84 57t106 20.5q67 0 121.5 -26.5t89.5 -74.5v93h68v-401q0 -68 64 -68zM327 56q44 0 81.5 15.5t64.5 43.5
t42.5 66.5t15.5 83.5t-15.5 83.5t-42.5 66.5t-64.5 43.5t-81.5 15.5q-45 0 -82.5 -15.5t-64.5 -43.5t-42 -66.5t-15 -83.5t15 -83.5t42 -66.5t64.5 -43.5t82.5 -15.5z" />
    <glyph glyph-name="beta" unicode="&#x3b2;" horiz-adv-x="636" 
d="M468 368q57 -24 87 -69t30 -102q0 -47 -18 -85.5t-50 -66t-76 -42.5t-97 -15q-41 0 -87.5 10.5t-93.5 30.5v-182h-68v619q0 56 17 101t48.5 77.5t76 50t100.5 17.5q48 0 88.5 -13t70 -38t46 -60t16.5 -79q0 -48 -23.5 -89t-66.5 -65zM338 52q41 0 74 10.5t56 29t36 45
t13 59.5q0 60 -41 98t-110 39l-101 1v62h101q56 0 90 35t34 89q0 61 -41.5 95.5t-110.5 34.5q-83 0 -129 -49t-46 -135v-368q43 -23 88.5 -34.5t86.5 -11.5z" />
    <glyph glyph-name="gamma" unicode="&#x3b3;" horiz-adv-x="535" 
d="M517 530v-4l-215 -457v-222h-68v220l-216 459v4h72l112 -245l66 -143l176 388h73z" />
    <glyph glyph-name="delta" unicode="&#x3b4;" horiz-adv-x="620" 
d="M419 493q66 -48 107 -109t41 -140q0 -54 -19.5 -100t-54 -79.5t-81.5 -53t-102 -19.5t-102 19t-81.5 53t-53.5 80.5t-19 100.5q0 51 18.5 96t50.5 78.5t75 53t93 19.5q20 0 36 -3l-222 160v51h413v-62l-302 1zM310 56q40 0 74.5 14.5t59.5 40t39 60t14 74.5t-14.5 74.5
t-39.5 59.5t-59 39.5t-74 14.5t-74 -14.5t-59 -39.5t-39.5 -59.5t-14.5 -74.5t14.5 -74.5t39.5 -60t59 -40t74 -14.5z" />
    <glyph glyph-name="epsilon" unicode="&#x3b5;" horiz-adv-x="514" 
d="M474 146q-1 -36 -17 -65t-44 -49t-67 -31t-87 -11t-87.5 11t-68 31t-44 48.5t-15.5 63.5q0 46 27.5 82t72.5 52q-38 17 -58 47.5t-20 71.5q0 32 14 58.5t40 45.5t62.5 29t80.5 10t80.5 -10t63 -28.5t41.5 -45t16 -59.5h-64q-3 39 -41 60.5t-95 21.5q-58 0 -95 -24.5
t-37 -62.5q0 -40 32 -64.5t82 -24.5h95v-59h-96q-61 0 -97.5 -25.5t-36.5 -70.5q0 -44 39.5 -70t108.5 -26q33 0 60.5 6.5t47.5 18.5t31 29.5t11 39.5h65z" />
    <glyph glyph-name="zeta" unicode="&#x3b6;" horiz-adv-x="466" 
d="M466 644q-103 -87 -170 -150.5t-106.5 -112t-55 -88t-15.5 -78.5q0 -62 36.5 -95t125.5 -49q52 -10 86.5 -21.5t54.5 -27t28.5 -36.5t8.5 -51q0 -43 -13 -88h-65q5 17 8.5 38.5t3.5 38.5q0 18 -6 30.5t-20.5 22.5t-39.5 17.5t-64 14.5q-113 23 -164 71t-51 131
q0 45 15.5 89t52 94.5t96.5 109.5t148 134h-296v62h402v-56z" />
    <glyph glyph-name="eta" unicode="&#x3b7;" horiz-adv-x="699" 
d="M390 538q106 0 164.5 -64t58.5 -180v-447h-68v444q0 90 -43 137t-122 47q-42 0 -76.5 -13t-59 -37t-38 -58t-13.5 -75v-292h-68v401q0 68 -63 68h-13.5t-8.5 -1v62q13 2 20 2h15q48 0 76.5 -23t36.5 -65q34 45 86 69.5t116 24.5z" />
    <glyph glyph-name="theta" unicode="&#x3b8;" horiz-adv-x="669" 
d="M335 708q62 0 111.5 -25t84 -71.5t53.5 -113t19 -148.5t-19 -148.5t-53.5 -113t-84 -71.5t-111.5 -25q-61 0 -111 25t-85 71.5t-54 113t-19 148.5t19 148.5t54 113t85 71.5t111 25zM335 644q-88 0 -140 -70t-58 -193h396q-6 123 -58.5 193t-139.5 70zM335 56
q87 0 139.5 70t58.5 193h-396q6 -123 58 -193t140 -70z" />
    <glyph glyph-name="iota" unicode="&#x3b9;" horiz-adv-x="335" 
d="M251 -3q-85 0 -125 42.5t-40 136.5v354h68v-346q0 -68 24.5 -95.5t80.5 -27.5q27 0 51 3v-64q-31 -3 -59 -3z" />
    <glyph glyph-name="kappa" unicode="&#x3ba;" horiz-adv-x="542" 
d="M95 0v530h68v-530h-68zM275 267l250 -263v-4h-85l-241 255v20l229 255h80v-4z" />
    <glyph glyph-name="lambda" unicode="&#x3bb;" horiz-adv-x="544" 
d="M527 4v-4h-72l-118 276l-62 149l-64 -149l-122 -276h-72v4l223 499l-31 67q-10 24 -19.5 39t-20.5 23.5t-24 12t-31 3.5q-8 0 -18.5 -1t-21.5 -3v63q19 4 48 4t50.5 -6t39 -20.5t33 -40t31.5 -64.5z" />
    <glyph glyph-name="uni03BC" unicode="&#x3bc;" horiz-adv-x="691" 
d="M632 61h9.5t9.5 1v-62q-10 -2 -18.5 -2h-16.5q-48 0 -77 22.5t-35 65.5q-33 -45 -82.5 -68t-110.5 -23q-47 0 -83 15.5t-65 44.5v-208h-68v683h68v-302q0 -83 40.5 -127t116.5 -44q40 0 73 13t56.5 37t36.5 57.5t13 73.5v292h68v-401q0 -35 17 -51.5t48 -16.5z" />
    <glyph glyph-name="nu" unicode="&#x3bd;" horiz-adv-x="545" 
d="M527 530v-4l-229 -526h-51l-229 526v4h72l107 -254l75 -180l182 434h73z" />
    <glyph glyph-name="xi" unicode="&#x3be;" horiz-adv-x="533" 
d="M321 59q57 -6 94.5 -15t59 -23.5t30.5 -36t9 -52.5q0 -19 -3 -39t-11 -46h-65q13 40 13 72q0 19 -6.5 31.5t-23.5 21t-46 14t-75 10.5q-130 13 -189.5 61t-59.5 136q0 60 32 106.5t88 68.5q-44 24 -66.5 64.5t-22.5 93.5q0 42 17 76t47 58t71.5 37.5t90.5 13.5
t89.5 -13.5t70.5 -37.5t47.5 -57.5t18.5 -73.5h-68q-1 26 -13 47.5t-33 37.5t-49.5 24.5t-62.5 8.5t-63 -9t-50 -25.5t-32.5 -40t-11.5 -52.5q0 -27 10 -50t28 -39.5t42 -25.5t52 -9h116v-65h-116q-36 0 -65.5 -9.5t-51 -27.5t-33.5 -43t-12 -56q0 -61 47 -93t156 -43z" />
    <glyph glyph-name="omicron" unicode="&#x3bf;" horiz-adv-x="654" 
d="M327 -8q-60 0 -110 20.5t-86 57t-56.5 86.5t-20.5 109t20.5 109t56.5 86.5t86 57t110 20.5t110 -20.5t86 -57t56.5 -86.5t20.5 -109t-20.5 -109t-56.5 -86.5t-86 -57t-110 -20.5zM327 56q44 0 81.5 15.5t64.5 43.5t42.5 66.5t15.5 83.5t-15.5 83.5t-42.5 66.5t-64.5 43.5
t-81.5 15.5t-81.5 -15.5t-64.5 -43.5t-42.5 -66.5t-15.5 -83.5t15.5 -83.5t42.5 -66.5t64.5 -43.5t81.5 -15.5z" />
    <glyph glyph-name="pi" unicode="&#x3c0;" horiz-adv-x="686" 
d="M653 466h-102v-333q0 -39 16.5 -55.5t51.5 -16.5h10t9 1v-62q-9 -2 -18 -2h-18q-61 0 -90 33.5t-29 97.5v337h-289v-466h-68v466h-101v64h628v-64z" />
    <glyph glyph-name="rho" unicode="&#x3c1;" horiz-adv-x="675" 
d="M352 538q58 0 107.5 -20.5t85.5 -57t56 -86.5t20 -109t-20 -109t-56 -86.5t-85.5 -57t-107.5 -20.5q-131 0 -201 101v-246h-68v416q0 60 20 110.5t56 87t85.5 57t107.5 20.5zM352 56q43 0 79.5 15.5t63.5 43.5t42 66.5t15 83.5t-15 83.5t-42 66.5t-63.5 43.5t-79.5 15.5
t-80 -15.5t-64 -43.5t-42 -66.5t-15 -83.5t15 -83.5t42 -66.5t64 -43.5t80 -15.5z" />
    <glyph glyph-name="uni03C2" unicode="&#x3c2;" horiz-adv-x="612" 
d="M454 -153q13 37 13 74q0 20 -6.5 34.5t-22.5 25t-43.5 17.5t-68.5 12q-142 18 -207 82.5t-65 180.5q0 60 19.5 108.5t55 83.5t84.5 54t109 19q104 0 173.5 -52t83.5 -151h-68q-11 69 -61.5 104t-125.5 35q-45 0 -82 -14.5t-63.5 -41t-41 -63.5t-14.5 -82
q0 -44 12.5 -77.5t39.5 -58.5t70 -41t104 -25q52 -7 87.5 -18t57.5 -27.5t31.5 -39t9.5 -53.5q0 -19 -3.5 -42t-10.5 -44h-67z" />
    <glyph glyph-name="sigma" unicode="&#x3c3;" horiz-adv-x="663" 
d="M632 466h-139q49 -36 75.5 -90.5t26.5 -116.5q0 -58 -20.5 -107t-57 -84.5t-86 -55.5t-107.5 -20t-107.5 20t-85.5 56t-56.5 85.5t-20.5 107.5q0 59 20.5 108t56.5 85t85.5 56t108.5 20h307v-64zM526 261q0 44 -15 81.5t-42 65t-64 43t-81 15.5q-43 0 -80 -15.5t-64 -43
t-42 -65t-15 -81.5q0 -45 15 -82.5t42 -64.5t64 -42.5t80 -15.5q44 0 81 15.5t64 42.5t42 64.5t15 82.5z" />
    <glyph glyph-name="tau" unicode="&#x3c4;" horiz-adv-x="510" 
d="M476 466h-201v-282q0 -67 26 -95.5t87 -28.5q27 0 52 3v-63q-30 -3 -57 -3q-92 0 -134 42.5t-42 136.5v290h-195v64h464v-64z" />
    <glyph glyph-name="upsilon" unicode="&#x3c5;" horiz-adv-x="625" 
d="M312 -8q-51 0 -92.5 16.5t-71.5 46.5t-46 72t-16 93v310h68v-306q0 -77 43 -122.5t115 -45.5q73 0 116 45.5t43 122.5v306h68v-310q0 -52 -16 -94t-46 -72t-72 -46t-93 -16z" />
    <glyph glyph-name="phi" unicode="&#x3c6;" horiz-adv-x="719" 
d="M666 264q0 -58 -20 -107t-56 -85.5t-86 -58t-110 -22.5v-144h-68v145q-60 1 -110 22.5t-86 58t-56 85.5t-20 107t20 107t56 85.5t86 58t110 22.5v162h68v-162q60 -1 110 -22.5t86 -58t56 -86t20 -107.5zM123 265q0 -45 15 -83t41.5 -66t64 -44t82.5 -18v422
q-45 -1 -82.5 -17.5t-64 -44.5t-41.5 -66t-15 -83zM393 53q45 2 82.5 18.5t64 44.5t41.5 66t15 82q0 45 -15 83t-41.5 66t-64 45t-82.5 18v-423z" />
    <glyph glyph-name="chi" unicode="&#x3c7;" horiz-adv-x="536" 
d="M513 -97q16 0 38 3v-62q-14 -2 -26 -3t-22 -1q-47 0 -71.5 18.5t-42.5 54.5l-115 231l-173 -297h-73v4l205 347l-114 231q-14 26 -29 35t-41 9q-13 0 -37 -3v61q14 2 26 3.5t22 1.5q44 0 68.5 -17.5t44.5 -55.5l106 -215l166 282h72v-4l-198 -333l124 -246
q14 -26 28.5 -35t41.5 -9z" />
    <glyph glyph-name="psi" unicode="&#x3c8;" horiz-adv-x="836" 
d="M681 530h68v-262q0 -131 -77 -202t-220 -73v-146h-68v146q-143 2 -220.5 73t-77.5 202v262h68v-255q0 -217 230 -220v586h68v-586q229 3 229 220v255z" />
    <glyph glyph-name="omega" unicode="&#x3c9;" horiz-adv-x="920" 
d="M778 530q33 -62 51 -130.5t18 -137.5q0 -62 -13 -112t-39 -85.5t-64.5 -55t-89.5 -19.5q-63 0 -112 29.5t-69 80.5q-20 -51 -69.5 -80.5t-111.5 -29.5q-51 0 -89.5 19t-64.5 54.5t-39 85.5t-13 112q0 70 17.5 138t51.5 131h73q-35 -67 -54 -135t-19 -133
q0 -100 36.5 -153.5t106.5 -53.5q63 0 102 41t39 108v176h68v-176q0 -67 39 -108t102 -41q69 0 105.5 53.5t36.5 154.5q0 64 -18.5 132.5t-53.5 134.5h73z" />
    <glyph glyph-name="iotadieresis" unicode="&#x3ca;" horiz-adv-x="335" 
d="M24 603q-20 0 -34.5 14.5t-14.5 36.5q0 21 14.5 35.5t34.5 14.5q21 0 35.5 -14.5t14.5 -35.5q0 -22 -14.5 -36.5t-35.5 -14.5zM217 603q-21 0 -35.5 14.5t-14.5 36.5q0 21 14.5 35.5t35.5 14.5q20 0 34.5 -14.5t14.5 -35.5q0 -22 -14.5 -36.5t-34.5 -14.5zM251 -3
q-85 0 -125 42.5t-40 136.5v354h68v-346q0 -68 24.5 -95.5t80.5 -27.5q27 0 51 3v-64q-31 -3 -59 -3z" />
    <glyph glyph-name="upsilondieresis" unicode="&#x3cb;" horiz-adv-x="625" 
d="M204 603q-21 0 -35.5 14.5t-14.5 36.5q0 21 14.5 35.5t35.5 14.5t36 -14.5t15 -35.5q0 -22 -15 -36.5t-36 -14.5zM421 603q-22 0 -36.5 14.5t-14.5 36.5q0 21 14.5 35.5t36.5 14.5q21 0 35.5 -14.5t14.5 -35.5q0 -22 -14.5 -36.5t-35.5 -14.5zM312 -8q-51 0 -92.5 16.5
t-71.5 46.5t-46 72t-16 93v310h68v-306q0 -77 43 -122.5t115 -45.5q73 0 116 45.5t43 122.5v306h68v-310q0 -52 -16 -94t-46 -72t-72 -46t-93 -16z" />
    <glyph glyph-name="omicrontonos" unicode="&#x3cc;" horiz-adv-x="654" 
d="M280 587v6l78 127h84v-6l-93 -127h-69zM327 -8q-60 0 -110 20.5t-86 57t-56.5 86.5t-20.5 109t20.5 109t56.5 86.5t86 57t110 20.5t110 -20.5t86 -57t56.5 -86.5t20.5 -109t-20.5 -109t-56.5 -86.5t-86 -57t-110 -20.5zM327 56q44 0 81.5 15.5t64.5 43.5t42.5 66.5
t15.5 83.5t-15.5 83.5t-42.5 66.5t-64.5 43.5t-81.5 15.5t-81.5 -15.5t-64.5 -43.5t-42.5 -66.5t-15.5 -83.5t15.5 -83.5t42.5 -66.5t64.5 -43.5t81.5 -15.5z" />
    <glyph glyph-name="upsilontonos" unicode="&#x3cd;" horiz-adv-x="625" 
d="M265 587v6l78 127h84v-6l-93 -127h-69zM312 -8q-51 0 -92.5 16.5t-71.5 46.5t-46 72t-16 93v310h68v-306q0 -77 43 -122.5t115 -45.5q73 0 116 45.5t43 122.5v306h68v-310q0 -52 -16 -94t-46 -72t-72 -46t-93 -16z" />
    <glyph glyph-name="omegatonos" unicode="&#x3ce;" horiz-adv-x="920" 
d="M575 714l-93 -127h-69v6l78 127h84v-6zM778 530q33 -62 51 -130.5t18 -137.5q0 -62 -13 -112t-39 -85.5t-64.5 -55t-89.5 -19.5q-63 0 -112 29.5t-69 80.5q-20 -51 -69.5 -80.5t-111.5 -29.5q-51 0 -89.5 19t-64.5 54.5t-39 85.5t-13 112q0 70 17.5 138t51.5 131h73
q-35 -67 -54 -135t-19 -133q0 -100 36.5 -153.5t106.5 -53.5q63 0 102 41t39 108v176h68v-176q0 -67 39 -108t102 -41q69 0 105.5 53.5t36.5 154.5q0 64 -18.5 132.5t-53.5 134.5h73z" />
    <glyph glyph-name="uni03CF" unicode="&#x3cf;" horiz-adv-x="622" 
d="M281 344q32 -49 68 -93t78.5 -85.5t93 -80.5t111.5 -78v-52q-87 -81 -188 -117.5t-233 -36.5q-27 0 -49 1t-41.5 2.5t-38.5 4.5t-40 8v63q18 -3 35.5 -6t37.5 -5t44.5 -3t56.5 -1q51 0 95 6t84.5 19.5t79.5 35.5t79 54q-117 80 -199.5 168.5t-143.5 192.5v23l290 336h84
v-7zM174 700v-700h-71v700h71z" />
    <glyph glyph-name="uni03D7" unicode="&#x3d7;" horiz-adv-x="542" 
d="M267 259q48 -87 117.5 -147.5t163.5 -105.5v-49q-71 -79 -159.5 -117.5t-209.5 -38.5q-35 0 -68 3.5t-69 12.5v63q30 -6 63.5 -10.5t77.5 -4.5q97 0 166 26.5t129 82.5q-100 52 -167.5 120.5t-111.5 160.5v20l229 255h80v-4zM163 530v-530h-68v530h68z" />
    <glyph glyph-name="uni0400" unicode="&#x400;" horiz-adv-x="570" 
d="M361 764h-67l-103 126v6h82l88 -127v-5zM174 69h345v-69h-416v700h409v-69h-338v-242h319v-69h-319v-251z" />
    <glyph glyph-name="uni0401" unicode="&#x401;" horiz-adv-x="570" 
d="M209 780q-21 0 -35.5 14.5t-14.5 35.5q0 22 14.5 36t35.5 14q22 0 36 -14t14 -36q0 -21 -14 -35.5t-36 -14.5zM419 780q-22 0 -36.5 14.5t-14.5 35.5q0 22 14.5 36t36.5 14q21 0 35.5 -14t14.5 -36q0 -21 -14.5 -35.5t-35.5 -14.5zM174 69h345v-69h-416v700h409v-69h-338
v-242h319v-69h-319v-251z" />
    <glyph glyph-name="uni0402" unicode="&#x402;" horiz-adv-x="769" 
d="M476 455q114 0 179 -62t65 -170q0 -113 -57.5 -172t-165.5 -59q-43 0 -78 7v69q17 -2 35 -3.5t35 -1.5q78 0 118 40.5t40 119.5t-45 120t-130 41q-42 0 -80 -8.5t-78 -24.5v-351h-72v632h-214v68h513v-67h-227v-213q81 35 162 35z" />
    <glyph glyph-name="uni0403" unicode="&#x403;" horiz-adv-x="492" 
d="M247 764v5l89 127h82v-6l-102 -126h-69zM103 0v700h376v-69h-305v-631h-71z" />
    <glyph glyph-name="uni0404" unicode="&#x404;" horiz-adv-x="785" 
d="M737 237q-16 -56 -47 -101.5t-74.5 -78t-96.5 -50.5t-113 -18q-74 0 -137.5 27.5t-109.5 75.5t-72 114t-26 144t26 144t72 114t109.5 75.5t137.5 27.5q60 0 113 -17.5t95.5 -49.5t74 -77t47.5 -100h-74q-15 40 -39.5 72t-57.5 54.5t-72.5 34.5t-84.5 12q-55 0 -102.5 -19
t-83.5 -53t-58.5 -81t-27.5 -104h363v-66h-363q5 -57 27.5 -104t58.5 -81t83.5 -53t102.5 -19q45 0 85 12.5t73 35.5t58 56t40 73h73z" />
    <glyph glyph-name="uni0405" unicode="&#x405;" horiz-adv-x="623" 
d="M316 -9q-53 0 -97.5 15.5t-78 44t-53.5 68.5t-24 89h72q3 -33 17.5 -60t38.5 -46t56 -29.5t69 -10.5q84 0 131 34t47 96q0 32 -12.5 54t-36 37.5t-58 25t-78.5 16.5q-52 8 -94.5 22.5t-72.5 37.5t-46 56t-16 78q0 42 16.5 77t47.5 60t74 39t96 14q102 0 166.5 -52.5
t76.5 -145.5h-72q-12 65 -57.5 96.5t-114.5 31.5q-75 0 -118.5 -32t-43.5 -88q0 -31 11.5 -52.5t34.5 -36t57 -23.5t79 -16q54 -9 97 -24t74 -39t47.5 -57.5t16.5 -78.5t-18 -82.5t-51 -63.5t-79.5 -40.5t-103.5 -14.5z" />
    <glyph glyph-name="uni0406" unicode="&#x406;" horiz-adv-x="463" 
d="M268 67h136v-67h-345v67h137v568h-134v65h339v-65h-133v-568z" />
    <glyph glyph-name="uni0407" unicode="&#x407;" horiz-adv-x="463" 
d="M127 780q-21 0 -35.5 14.5t-14.5 35.5q0 22 14.5 36t35.5 14q22 0 36 -14t14 -36q0 -21 -14 -35.5t-36 -14.5zM337 780q-22 0 -36.5 14.5t-14.5 35.5q0 22 14.5 36t36.5 14q21 0 35.5 -14t14.5 -36q0 -21 -14.5 -35.5t-35.5 -14.5zM268 67h136v-67h-345v67h137v568h-134
v65h339v-65h-133v-568z" />
    <glyph glyph-name="uni0408" unicode="&#x408;" horiz-adv-x="489" 
d="M132 700h269v-425q0 -139 -67.5 -211.5t-201.5 -72.5q-47 0 -98 9v71q47 -9 87 -9q106 0 157 56t51 161v353h-197v68z" />
    <glyph glyph-name="uni0409" unicode="&#x409;" horiz-adv-x="1050" 
d="M796 450q49 0 89 -16.5t69 -46t45 -71t16 -91.5q0 -49 -16 -90.5t-45 -71.5t-69 -46.5t-89 -16.5h-255v631h-279l-28 -433q-7 -98 -52 -149t-131 -51h-16.5t-15.5 1v70q5 -1 13 -1.5t16 -0.5q55 0 82 34.5t31 102.5l34 496h418v-250h183zM787 70q72 0 114 42t42 113
t-42 113t-114 42h-174v-310h174z" />
    <glyph glyph-name="uni040A" unicode="&#x40a;" horiz-adv-x="1058" 
d="M804 426q48 0 88.5 -15.5t69.5 -44t45 -67.5t16 -86q0 -46 -16 -85.5t-45 -67.5t-69 -44t-89 -16h-245v345h-385v-345h-71v700h71v-285h385v285h72v-274h173zM795 70q70 0 113 39.5t43 103.5q0 32 -11.5 58.5t-32 45.5t-49 29.5t-63.5 10.5h-164v-287h164z" />
    <glyph glyph-name="uni040B" unicode="&#x40b;" horiz-adv-x="801" 
d="M472 455q109 0 171.5 -61t62.5 -176v-218h-72v209q0 91 -43 133t-125 42q-35 0 -72 -7.5t-80 -26.5v-350h-72v632h-214v68h513v-67h-227v-213q82 35 158 35z" />
    <glyph glyph-name="uni040C" unicode="&#x40c;" horiz-adv-x="619" 
d="M429 890l-102 -126h-69v5l89 127h82v-6zM103 0v700h71v-700h-71zM290 354l311 -347v-7h-88l-302 341v23l290 336h84v-7z" />
    <glyph glyph-name="uni040D" unicode="&#x40d;" horiz-adv-x="733" 
d="M413 764h-67l-103 126v6h82l88 -127v-5zM576 700h55v-700h-72v557l-400 -557h-56v700h71v-561z" />
    <glyph glyph-name="uni040E" unicode="&#x40e;" horiz-adv-x="582" 
d="M446 854v-61h-308v61h308zM486 700h76v-7l-326 -693h-76v8l95 200l-235 485v7h77l115 -241l81 -172l78 169z" />
    <glyph glyph-name="uni040F" unicode="&#x40f;" horiz-adv-x="713" 
d="M610 700v-700h-218v-145h-71v145h-218v700h71v-631h364v631h72z" />
    <glyph glyph-name="uni0410" unicode="&#x410;" horiz-adv-x="648" 
d="M350 700l282 -693v-7h-75l-71 179h-324l-72 -179h-74v7l282 693h52zM324 586l-136 -340h272z" />
    <glyph glyph-name="uni0411" unicode="&#x411;" horiz-adv-x="607" 
d="M348 422q50 0 91.5 -15t70.5 -43t45 -66.5t16 -86.5q0 -47 -16 -86t-45 -66.5t-70.5 -43t-91.5 -15.5h-245v700h416v-69h-345v-209h174zM342 69q72 0 114.5 38.5t42.5 103.5q0 66 -42.5 104.5t-114.5 38.5h-168v-285h168z" />
    <glyph glyph-name="uni0412" unicode="&#x412;" horiz-adv-x="631" 
d="M474 372q51 -23 80 -69t29 -106q0 -44 -14.5 -80t-41 -62t-63.5 -40.5t-81 -14.5h-280v700h266q40 0 73.5 -12.5t57.5 -36t37 -56t13 -72.5q0 -50 -20 -89t-56 -62zM174 631v-233h192q53 0 82 32t29 86t-31 84.5t-82 30.5h-190zM377 69q60 0 96.5 34.5t36.5 96.5
q0 60 -36.5 95.5t-97.5 35.5h-202v-262h203z" />
    <glyph glyph-name="uni0413" unicode="&#x413;" horiz-adv-x="492" 
d="M103 0v700h376v-69h-305v-631h-71z" />
    <glyph glyph-name="uni0414" unicode="&#x414;" horiz-adv-x="723" 
d="M605 69h87v-214h-68v145h-537v-145h-68v214h72q31 26 47 80.5t22 154.5l25 396h420v-631zM232 298q-5 -78 -17 -136t-39 -93h358v562h-282z" />
    <glyph glyph-name="uni0415" unicode="&#x415;" horiz-adv-x="570" 
d="M174 69h345v-69h-416v700h409v-69h-338v-242h319v-69h-319v-251z" />
    <glyph glyph-name="uni0416" unicode="&#x416;" horiz-adv-x="924" 
d="M34 700h83l273 -336v-24l-286 -340h-86v7l296 347l-280 339v7zM426 0v700h72v-700h-72zM610 354l296 -347v-7h-86l-286 340v24l273 336h83v-7z" />
    <glyph glyph-name="uni0417" unicode="&#x417;" horiz-adv-x="590" 
d="M423 367q57 -25 88 -72.5t31 -104.5q0 -47 -19 -84t-53 -63t-79.5 -40t-98.5 -14q-55 0 -100 14.5t-77.5 41t-50.5 63.5t-19 83h71q1 -60 48.5 -95.5t127.5 -35.5q81 0 129 36t48 97q0 30 -12 55.5t-34 44t-52.5 28.5t-67.5 10h-101v67h101q30 0 55.5 9t44 25.5t29 39
t10.5 50.5q0 27 -11.5 48.5t-32 37.5t-49 24.5t-63.5 8.5q-34 0 -62.5 -8.5t-49.5 -23.5t-33 -36t-12 -46h-71q1 41 18.5 74.5t47.5 58t71.5 38t90.5 13.5t91 -13.5t72.5 -38t47.5 -59t17 -76.5q0 -51 -24 -92.5t-67 -64.5z" />
    <glyph glyph-name="uni0418" unicode="&#x418;" horiz-adv-x="733" 
d="M576 700h55v-700h-72v557l-400 -557h-56v700h71v-561z" />
    <glyph glyph-name="uni0419" unicode="&#x419;" horiz-adv-x="733" 
d="M520 854v-61h-308v61h308zM576 700h55v-700h-72v557l-400 -557h-56v700h71v-561z" />
    <glyph glyph-name="uni041A" unicode="&#x41a;" horiz-adv-x="619" 
d="M103 0v700h71v-700h-71zM290 354l311 -347v-7h-88l-302 341v23l290 336h84v-7z" />
    <glyph glyph-name="uni041B" unicode="&#x41b;" horiz-adv-x="716" 
d="M195 700h418v-700h-72v631h-279l-28 -433q-7 -98 -52 -149t-132 -51h-15t-16 1v70q7 -1 14 -1.5t15 -0.5q55 0 82 34.5t31 102.5z" />
    <glyph glyph-name="uni041C" unicode="&#x41c;" horiz-adv-x="858" 
d="M699 700h56v-700h-71v559l-234 -337h-41l-235 337v-559h-71v700h56l270 -390z" />
    <glyph glyph-name="uni041D" unicode="&#x41d;" horiz-adv-x="734" 
d="M559 700h72v-700h-72v321h-385v-321h-71v700h71v-310h385v310z" />
    <glyph glyph-name="uni041E" unicode="&#x41e;" horiz-adv-x="826" 
d="M413 -11q-76 0 -140.5 27.5t-111.5 75.5t-73.5 114t-26.5 144t26.5 144t73.5 114t111.5 75.5t140.5 27.5t140.5 -27.5t112 -75.5t74 -114t26.5 -144t-26.5 -144t-74 -114t-112 -75.5t-140.5 -27.5zM413 60q61 0 112 22t88.5 60.5t58.5 91.5t21 116t-21 116t-58.5 91.5
t-88.5 60.5t-112 22q-60 0 -111.5 -22t-88.5 -60.5t-58 -91.5t-21 -116t21 -116t58 -91.5t88.5 -60.5t111.5 -22z" />
    <glyph glyph-name="uni041F" unicode="&#x41f;" horiz-adv-x="718" 
d="M103 0v700h513v-700h-72v631h-370v-631h-71z" />
    <glyph glyph-name="uni0420" unicode="&#x420;" horiz-adv-x="604" 
d="M352 700q50 0 91.5 -17t71 -47.5t45.5 -72.5t16 -93t-16 -93t-45.5 -72t-71 -47t-91.5 -17h-178v-241h-71v700h249zM345 308q36 0 65.5 11.5t50 33t32 51.5t11.5 66t-11.5 66t-32 51.5t-50 33t-65.5 11.5h-171v-324h171z" />
    <glyph glyph-name="uni0421" unicode="&#x421;" horiz-adv-x="785" 
d="M406 -11q-74 0 -137.5 27.5t-109.5 75.5t-72 114t-26 144t26 144t72 114t109.5 75.5t137.5 27.5q60 0 113 -17.5t95.5 -49.5t74 -77t47.5 -100h-74q-15 40 -39.5 72t-57.5 54.5t-73 34.5t-84 12q-59 0 -109.5 -21.5t-87 -60.5t-57 -92t-20.5 -116t20.5 -116t57 -92
t87 -60.5t109.5 -21.5q45 0 85 12.5t73 35.5t58 56t40 73h73q-16 -56 -47 -101.5t-74.5 -78t-96.5 -50.5t-113 -18z" />
    <glyph glyph-name="uni0422" unicode="&#x422;" horiz-adv-x="556" 
d="M528 700v-68h-214v-632h-72v632h-214v68h500z" />
    <glyph glyph-name="uni0423" unicode="&#x423;" horiz-adv-x="582" 
d="M486 700h76v-7l-326 -693h-76v8l95 200l-235 485v7h77l115 -241l81 -172l78 169z" />
    <glyph glyph-name="uni0424" unicode="&#x424;" horiz-adv-x="795" 
d="M744 355q0 -65 -22.5 -119t-63 -93.5t-98 -62t-127.5 -25.5v-72h-71v72q-73 2 -131 26t-98 64t-61 93.5t-21 116.5t21 116.5t61 93.5t98 64t131 26v70h71v-70q70 -3 127.5 -25.5t98 -61.5t63 -93t22.5 -120zM124 355q0 -51 16.5 -93.5t47 -73.5t75 -49t100.5 -20v473
q-56 -2 -100.5 -20t-75 -49t-47 -74t-16.5 -94zM432 119q54 2 98.5 19.5t75.5 48.5t48 73.5t17 94.5q0 53 -17 95.5t-48 73.5t-75.5 48.5t-98.5 19.5v-473z" />
    <glyph glyph-name="uni0425" unicode="&#x425;" horiz-adv-x="644" 
d="M370 364l250 -357v-7h-83l-177 253l-37 54l-217 -307h-83v7l251 357l-230 329v7h83l145 -206l50 -74l51 74l146 206h82v-7z" />
    <glyph glyph-name="uni0426" unicode="&#x426;" horiz-adv-x="728" 
d="M610 69h87v-214h-68v145h-526v700h71v-631h364v631h72v-631z" />
    <glyph glyph-name="uni0427" unicode="&#x427;" horiz-adv-x="643" 
d="M469 700h71v-700h-71v285q-43 -19 -85.5 -27.5t-82.5 -8.5q-57 0 -102 17t-77 48.5t-49 76.5t-17 101v208h72v-199q0 -89 45.5 -135t133.5 -46q41 0 78 7.5t84 26.5v346z" />
    <glyph glyph-name="uni0428" unicode="&#x428;" horiz-adv-x="1059" 
d="M885 700h71v-700h-853v700h71v-631h320v631h71v-631h320v631z" />
    <glyph glyph-name="uni0429" unicode="&#x429;" horiz-adv-x="1074" 
d="M956 69h88v-214h-68v145h-873v700h71v-631h320v631h71v-631h320v631h71v-631z" />
    <glyph glyph-name="uni042A" unicode="&#x42a;" horiz-adv-x="709" 
d="M454 450q49 0 89.5 -16.5t69.5 -46.5t45 -71t16 -91q0 -49 -16 -90.5t-45 -71.5t-69.5 -46.5t-89.5 -16.5h-254v631h-172v69h244v-250h182zM445 70q71 0 113.5 42.5t42.5 112.5q0 35 -11.5 63.5t-32 49t-49 31.5t-63.5 11h-173v-310h173z" />
    <glyph glyph-name="uni042B" unicode="&#x42b;" horiz-adv-x="874" 
d="M357 450q49 0 89.5 -16.5t69.5 -46.5t45 -71t16 -91q0 -49 -16 -90.5t-45 -71.5t-69.5 -46.5t-89.5 -16.5h-254v700h71v-250h183zM699 700h72v-700h-72v700zM348 70q71 0 113.5 42.5t42.5 112.5q0 35 -11.5 63.5t-32 49t-49 31.5t-63.5 11h-174v-310h174z" />
    <glyph glyph-name="uni042C" unicode="&#x42c;" horiz-adv-x="611" 
d="M357 450q49 0 89.5 -16.5t69.5 -46.5t45 -71t16 -91q0 -49 -16 -90.5t-45 -71.5t-69.5 -46.5t-89.5 -16.5h-254v700h71v-250h183zM348 70q71 0 113.5 42.5t42.5 112.5q0 35 -11.5 63.5t-32 49t-49 31.5t-63.5 11h-174v-310h174z" />
    <glyph glyph-name="uni042D" unicode="&#x42d;" horiz-adv-x="785" 
d="M379 711q75 0 138 -27.5t109.5 -75.5t72.5 -114t26 -144t-26 -144t-72.5 -114t-110 -75.5t-137.5 -27.5q-60 0 -113 18t-96 50.5t-74 78t-47 101.5h73q15 -40 40 -73t58 -56t72.5 -35.5t84.5 -12.5q56 0 103.5 19t83.5 53t58.5 81t27.5 104h-363v66h363q-5 57 -27.5 104
t-58.5 81t-83.5 53t-103.5 19q-44 0 -84 -12t-73 -34.5t-57.5 -54.5t-39.5 -72h-73q16 55 47 100t74 77t95.5 49.5t112.5 17.5z" />
    <glyph glyph-name="uni042E" unicode="&#x42e;" horiz-adv-x="1057" 
d="M646 711q75 0 139.5 -27.5t111 -75.5t73 -114t26.5 -144t-26.5 -144t-73 -114t-111 -75.5t-139.5 -27.5q-72 0 -133.5 25t-108 69t-74.5 105t-33 133h-123v-321h-71v700h71v-310h124q7 70 35.5 129t74.5 101.5t107 66.5t131 24zM646 60q60 0 111 22t87.5 60.5t57.5 91.5
t21 116t-21 116t-57.5 91.5t-87.5 60.5t-111 22t-111 -22t-87.5 -60.5t-57.5 -91.5t-21 -116t21 -116t57.5 -91.5t87.5 -60.5t111 -22z" />
    <glyph glyph-name="uni042F" unicode="&#x42f;" horiz-adv-x="629" 
d="M526 700v-700h-72v632h-175q-37 0 -65.5 -12t-48 -32.5t-29.5 -47t-10 -55.5q0 -30 10 -56.5t29.5 -46.5t48 -32t65.5 -12h124v-35l-277 -303h-88v7l249 264h-7q-55 0 -97.5 17.5t-71 46.5t-43.5 68t-15 81t14.5 81t43 69t70.5 48t96 18h249z" />
    <glyph glyph-name="uni0430" unicode="&#x430;" horiz-adv-x="693" 
d="M530 530h68v-530h-68v93q-35 -48 -89.5 -74.5t-121.5 -26.5q-58 0 -106.5 20.5t-83.5 57t-55 86.5t-20 109t20 109t55 86.5t83.5 57t106.5 20.5q67 0 121.5 -26.5t89.5 -74.5v93zM327 56q44 0 81.5 15.5t64.5 43.5t42.5 66.5t15.5 83.5t-15.5 83.5t-42.5 66.5t-64.5 43.5
t-81.5 15.5t-81.5 -15.5t-64.5 -43.5t-42.5 -66.5t-15.5 -83.5t15.5 -83.5t42.5 -66.5t64.5 -43.5t81.5 -15.5z" />
    <glyph glyph-name="uni0431" unicode="&#x431;" horiz-adv-x="665" 
d="M350 513q56 0 104 -19t83 -53.5t54.5 -82t19.5 -105.5q0 -57 -20.5 -105t-56.5 -83t-86 -54.5t-110 -19.5q-61 0 -111.5 21t-86.5 60t-56 95t-20 126q0 97 15 167.5t51.5 118.5t97.5 75t153 37l197 21v-67l-190 -19q-64 -7 -109.5 -23t-74.5 -42t-44.5 -62t-21.5 -84
q35 48 90.5 73t121.5 25zM338 55q45 0 82.5 15t64.5 41.5t42 62.5t15 79q0 45 -14.5 81t-41.5 62t-64.5 40t-83.5 14q-44 0 -81.5 -14t-64.5 -39.5t-42.5 -61t-15.5 -78.5t15 -80t42 -64t64.5 -42.5t82.5 -15.5z" />
    <glyph glyph-name="uni0432" unicode="&#x432;" horiz-adv-x="577" 
d="M447 281q39 -17 62.5 -50.5t23.5 -81.5q0 -33 -12.5 -60.5t-34 -47t-51 -30.5t-64.5 -11h-276v530h261q34 0 61.5 -9.5t47.5 -27.5t31 -42.5t11 -54.5q0 -37 -15.5 -67t-44.5 -48zM163 468v-164h188q42 0 64.5 23t22.5 61t-23 59t-65 21h-187zM358 62q50 0 78 25t28 67
t-28 67t-78 25h-195v-184h195z" />
    <glyph glyph-name="uni0433" unicode="&#x433;" horiz-adv-x="452" 
d="M432 530v-64h-269v-466h-68v530h337z" />
    <glyph glyph-name="uni0434" unicode="&#x434;" horiz-adv-x="627" 
d="M515 64h84v-209h-65v145h-455v-145h-64v209h66q21 24 30.5 59.5t12.5 90.5l19 316h372v-466zM207 466l-16 -257q-3 -48 -10 -82t-25 -63h291v402h-240z" />
    <glyph glyph-name="uni0435" unicode="&#x435;" horiz-adv-x="643" 
d="M124 243q3 -41 19 -75.5t42.5 -59t61.5 -38.5t76 -14q60 0 107.5 26t71.5 74h74q-29 -77 -96 -120.5t-157 -43.5q-58 0 -107.5 20.5t-85.5 56.5t-56 86t-20 110t20 110t56 86t85.5 56.5t107.5 20.5q61 0 112 -21.5t87 -60t55 -93t16 -120.5h-469zM323 474
q-39 0 -73 -12.5t-59.5 -35t-42 -54t-22.5 -70.5h396q-6 38 -23 69.5t-43 54t-60 35.5t-73 13z" />
    <glyph glyph-name="uni0436" unicode="&#x436;" horiz-adv-x="803" 
d="M33 530h81l219 -255v-20l-232 -255h-85v4l242 263l-225 259v4zM368 0v530h68v-530h-68zM546 267l241 -263v-4h-84l-232 255v20l219 255h80v-4z" />
    <glyph glyph-name="uni0437" unicode="&#x437;" horiz-adv-x="515" 
d="M369 277q47 -15 74.5 -50.5t27.5 -82.5q0 -35 -15.5 -63.5t-44 -48.5t-68.5 -31t-88 -11t-87 11.5t-67 32t-44 50t-17 65.5h66q1 -44 42.5 -70.5t106.5 -26.5q69 0 109 25.5t40 70.5t-36.5 70.5t-97.5 25.5h-96v59h96q50 0 81 23.5t31 65.5q0 40 -35.5 63t-95.5 23
q-63 0 -98 -21t-39 -63h-64q4 68 58 107t144 39q44 0 80 -10t62 -29t40.5 -45.5t14.5 -58.5q0 -40 -22.5 -71.5t-57.5 -48.5z" />
    <glyph glyph-name="uni0438" unicode="&#x438;" horiz-adv-x="637" 
d="M487 530h54v-530h-68v410l-323 -410h-55v530h68v-411z" />
    <glyph glyph-name="uni0439" unicode="&#x439;" horiz-adv-x="637" 
d="M458 688v-61h-282v61h282zM487 530h54v-530h-68v410l-323 -410h-55v530h68v-411z" />
    <glyph glyph-name="uni043A" unicode="&#x43a;" horiz-adv-x="542" 
d="M95 0v530h68v-530h-68zM275 267l250 -263v-4h-85l-241 255v20l229 255h80v-4z" />
    <glyph glyph-name="uni043B" unicode="&#x43b;" horiz-adv-x="607" 
d="M153 530h359v-530h-68v466h-227l-21 -318q-5 -72 -43 -111t-105 -39h-15t-15 1v64q6 -1 11.5 -1h11.5q37 0 60.5 21.5t27.5 78.5z" />
    <glyph glyph-name="uni043C" unicode="&#x43c;" horiz-adv-x="736" 
d="M585 530h56v-530h-68v405l-188 -259h-32l-190 258v-404h-68v530h56l218 -297z" />
    <glyph glyph-name="uni043D" unicode="&#x43d;" horiz-adv-x="637" 
d="M473 530h68v-530h-68v238h-310v-238h-68v530h68v-228h310v228z" />
    <glyph glyph-name="uni043E" unicode="&#x43e;" horiz-adv-x="654" 
d="M327 -8q-60 0 -110 20.5t-86 57t-56.5 86.5t-20.5 109t20.5 109t56.5 86.5t86 57t110 20.5t110 -20.5t86 -57t56.5 -86.5t20.5 -109t-20.5 -109t-56.5 -86.5t-86 -57t-110 -20.5zM327 56q44 0 81.5 15.5t64.5 43.5t42.5 66.5t15.5 83.5t-15.5 83.5t-42.5 66.5t-64.5 43.5
t-81.5 15.5t-81.5 -15.5t-64.5 -43.5t-42.5 -66.5t-15.5 -83.5t15.5 -83.5t42.5 -66.5t64.5 -43.5t81.5 -15.5z" />
    <glyph glyph-name="uni043F" unicode="&#x43f;" horiz-adv-x="631" 
d="M95 530h441v-530h-68v466h-305v-466h-68v530z" />
    <glyph glyph-name="uni0440" unicode="&#x440;" horiz-adv-x="694" 
d="M375 538q58 0 106.5 -20.5t84 -57t55 -86.5t19.5 -109t-19.5 -109t-55 -86.5t-84 -57t-106.5 -20.5q-68 0 -122.5 27.5t-89.5 75.5v-248h-68v683h68v-95q35 48 89.5 75.5t122.5 27.5zM367 56q45 0 82.5 15.5t64.5 43.5t42 66t15 84t-15 84.5t-42 66t-64.5 43t-82.5 15.5
t-82.5 -15.5t-64.5 -43t-42.5 -66t-15.5 -84.5t15.5 -84t42.5 -66t64.5 -43.5t82.5 -15.5z" />
    <glyph glyph-name="uni0441" unicode="&#x441;" horiz-adv-x="626" 
d="M323 -8q-59 0 -108.5 20t-85 56t-55.5 86t-20 110t20 110.5t55.5 87t85 56.5t108.5 20q48 0 90 -13.5t75 -38t56.5 -60.5t35.5 -81h-68q-22 61 -71 95t-116 34q-45 0 -82 -15.5t-63.5 -43t-41.5 -66t-15 -85.5q0 -46 15 -84t41.5 -65.5t63.5 -43t82 -15.5q69 0 117.5 34
t70.5 96h69q-12 -45 -35.5 -81t-57 -61t-76 -38.5t-90.5 -13.5z" />
    <glyph glyph-name="uni0442" unicode="&#x442;" horiz-adv-x="508" 
d="M488 530v-64h-200v-466h-68v466h-200v64h468z" />
    <glyph glyph-name="uni0443" unicode="&#x443;" horiz-adv-x="547" 
d="M453 530h76v-4l-322 -679h-74v3l100 209l-215 467v4h75l103 -227l74 -169l76 166z" />
    <glyph glyph-name="uni0444" unicode="&#x444;" horiz-adv-x="719" 
d="M666 264q0 -58 -20 -107t-56 -85.5t-86 -58t-110 -22.5v-144h-68v145q-60 1 -110 22.5t-86 58t-56 85.5t-20 107t20 107t56 85.5t86 58t110 22.5v162h68v-162q60 -1 110 -22.5t86 -58t56 -86t20 -107.5zM123 265q0 -45 15 -83t41.5 -66t64 -44t82.5 -18v422
q-45 -1 -82.5 -17.5t-64 -44.5t-41.5 -66t-15 -83zM393 53q45 2 82.5 18.5t64 44.5t41.5 66t15 82q0 45 -15 83t-41.5 66t-64 45t-82.5 18v-423z" />
    <glyph glyph-name="uni0445" unicode="&#x445;" horiz-adv-x="535" 
d="M308 269l206 -265v-4h-78l-112 142l-58 78l-56 -77l-112 -143h-77v4l204 266l-196 256v4h76l102 -131l60 -82l59 81l102 132h75v-4z" />
    <glyph glyph-name="uni0446" unicode="&#x446;" horiz-adv-x="645" 
d="M532 64h85v-209h-65v145h-457v530h68v-466h301v466h68v-466z" />
    <glyph glyph-name="uni0447" unicode="&#x447;" horiz-adv-x="562" 
d="M399 530h68v-530h-68v201q-73 -26 -143 -26q-94 0 -148 48.5t-54 145.5v161h68v-154q0 -70 37 -103.5t105 -33.5q32 0 66 6.5t69 21.5v263z" />
    <glyph glyph-name="uni0448" unicode="&#x448;" horiz-adv-x="951" 
d="M787 530h68v-530h-760v530h68v-466h278v466h68v-466h278v466z" />
    <glyph glyph-name="uni0449" unicode="&#x449;" horiz-adv-x="968" 
d="M856 64h84v-209h-65v145h-780v530h68v-466h279v466h68v-466h278v466h68v-466z" />
    <glyph glyph-name="uni044A" unicode="&#x44a;" horiz-adv-x="603" 
d="M385 357q41 0 74.5 -13t58.5 -36.5t38.5 -55.5t13.5 -71q0 -40 -13.5 -73t-38.5 -57t-58.5 -37.5t-74.5 -13.5h-205v467h-154v63h222v-173h137zM384 64q52 0 84.5 32.5t32.5 84.5q0 50 -33 81t-84 31h-136v-229h136z" />
    <glyph glyph-name="uni044B" unicode="&#x44b;" horiz-adv-x="776" 
d="M300 357q41 0 74.5 -13t58.5 -36.5t38.5 -55.5t13.5 -71q0 -40 -13.5 -73t-38.5 -57t-58.5 -37.5t-74.5 -13.5h-205v530h68v-173h137zM613 530h68v-530h-68v530zM299 64q52 0 84 32.5t32 84.5q0 50 -32.5 81t-83.5 31h-136v-229h136z" />
    <glyph glyph-name="uni044C" unicode="&#x44c;" horiz-adv-x="518" 
d="M300 357q41 0 74.5 -13t58.5 -36.5t38.5 -55.5t13.5 -71q0 -40 -13.5 -73t-38.5 -57t-58.5 -37.5t-74.5 -13.5h-205v530h68v-173h137zM299 64q52 0 84 32.5t32 84.5q0 50 -32.5 81t-83.5 31h-136v-229h136z" />
    <glyph glyph-name="uni044D" unicode="&#x44d;" horiz-adv-x="626" 
d="M302 538q60 0 109.5 -20.5t85.5 -56.5t55.5 -86.5t19.5 -110.5t-20 -110t-55.5 -86t-85 -56t-109.5 -20q-49 0 -91.5 14t-76 39.5t-56.5 61t-35 79.5h69q21 -61 70.5 -95.5t118.5 -34.5q41 0 76.5 13t62 37t43 57.5t20.5 74.5h-256v63h254q-5 39 -22 71t-43 54.5t-60 35
t-75 12.5q-69 0 -118 -34.5t-70 -94.5h-68q12 44 35 79.5t56 61t75 39t91 13.5z" />
    <glyph glyph-name="uni044E" unicode="&#x44e;" horiz-adv-x="872" 
d="M545 538q60 0 110 -20.5t86 -57t56.5 -86.5t20.5 -109t-20.5 -109t-56.5 -86.5t-86 -57t-110 -20.5q-56 0 -104 18.5t-84 51t-57.5 77.5t-26.5 99h-110v-238h-68v530h68v-228h111q6 52 29 95t58.5 74.5t82 49t101.5 17.5zM545 56q44 0 81.5 15.5t64.5 43.5t42.5 66.5
t15.5 83.5t-15.5 83.5t-42.5 66.5t-64.5 43.5t-81.5 15.5t-81.5 -15.5t-64.5 -43.5t-42.5 -66.5t-15.5 -83.5t15.5 -83.5t42.5 -66.5t64.5 -43.5t81.5 -15.5z" />
    <glyph glyph-name="uni044F" unicode="&#x44f;" horiz-adv-x="529" 
d="M434 530v-530h-68v466h-131q-54 0 -84.5 -27.5t-30.5 -73.5q0 -48 30.5 -75t84.5 -27h88v-32l-203 -231h-81v6l185 201h-3q-37 0 -68.5 11.5t-54 33t-35 51t-12.5 65.5q0 35 12.5 65t35 51.5t54 33.5t68.5 12h213z" />
    <glyph glyph-name="uni0450" unicode="&#x450;" horiz-adv-x="643" 
d="M375 587h-70l-93 127v6h85l78 -127v-6zM124 243q3 -41 19 -75.5t42.5 -59t61.5 -38.5t76 -14q60 0 107.5 26t71.5 74h74q-29 -77 -96 -120.5t-157 -43.5q-58 0 -107.5 20.5t-85.5 56.5t-56 86t-20 110t20 110t56 86t85.5 56.5t107.5 20.5q61 0 112 -21.5t87 -60t55 -93
t16 -120.5h-469zM323 474q-39 0 -73 -12.5t-59.5 -35t-42 -54t-22.5 -70.5h396q-6 38 -23 69.5t-43 54t-60 35.5t-73 13z" />
    <glyph glyph-name="uni0451" unicode="&#x451;" horiz-adv-x="643" 
d="M215 603q-21 0 -35.5 14.5t-14.5 36.5q0 21 14.5 35.5t35.5 14.5t36 -14.5t15 -35.5q0 -22 -15 -36.5t-36 -14.5zM432 603q-22 0 -36.5 14.5t-14.5 36.5q0 21 14.5 35.5t36.5 14.5q21 0 35.5 -14.5t14.5 -35.5q0 -22 -14.5 -36.5t-35.5 -14.5zM124 243q3 -41 19 -75.5
t42.5 -59t61.5 -38.5t76 -14q60 0 107.5 26t71.5 74h74q-29 -77 -96 -120.5t-157 -43.5q-58 0 -107.5 20.5t-85.5 56.5t-56 86t-20 110t20 110t56 86t85.5 56.5t107.5 20.5q61 0 112 -21.5t87 -60t55 -93t16 -120.5h-469zM323 474q-39 0 -73 -12.5t-59.5 -35t-42 -54
t-22.5 -70.5h396q-6 38 -23 69.5t-43 54t-60 35.5t-73 13z" />
    <glyph glyph-name="uni0452" unicode="&#x452;" horiz-adv-x="670" 
d="M358 534q108 0 167 -63.5t59 -180.5v-299q0 -89 -41.5 -129t-130.5 -40q-27 0 -59 3v63q26 -3 52 -3q60 0 85.5 26t25.5 87v290q0 90 -42.5 137t-123.5 47q-42 0 -76.5 -13.5t-59 -37.5t-38 -58t-13.5 -75v-288h-68v594h-94v47h94v59h68v-59h175v-47h-175v-161
q30 47 81 74t114 27z" />
    <glyph glyph-name="uni0453" unicode="&#x453;" horiz-adv-x="452" 
d="M378 714l-93 -127h-69v6l78 127h84v-6zM432 530v-64h-269v-466h-68v530h337z" />
    <glyph glyph-name="uni0454" unicode="&#x454;" horiz-adv-x="626" 
d="M582 186q-23 -88 -91 -141t-168 -53q-59 0 -108.5 20t-85 56t-55.5 86t-20 110t19.5 110.5t55 86.5t85 56.5t109.5 20.5q49 0 91 -13.5t75 -39t56 -61t35 -79.5h-67q-22 60 -70.5 94.5t-117.5 34.5q-41 0 -75.5 -12.5t-60.5 -35t-42.5 -54.5t-22.5 -71h254v-63h-255
q4 -41 20.5 -74.5t43 -57.5t61.5 -37t77 -13q69 0 118.5 34.5t69.5 95.5h69z" />
    <glyph glyph-name="uni0455" unicode="&#x455;" horiz-adv-x="554" 
d="M282 -8q-100 0 -159.5 46.5t-63.5 125.5h70q3 -51 44.5 -79.5t109.5 -28.5q69 0 109.5 23t40.5 68q0 20 -7.5 34.5t-25.5 25t-48 18t-75 13.5q-57 8 -96 20t-64 30t-36 43.5t-11 59.5q0 36 16 64t44 46.5t66.5 28t84.5 9.5q92 0 147 -42t60 -115h-69q-4 44 -41.5 69.5
t-98.5 25.5q-67 0 -103.5 -22.5t-36.5 -63.5q0 -20 7.5 -34.5t25.5 -25t48 -18t74 -12.5q49 -6 87.5 -17t65.5 -28.5t41 -43t14 -61.5q0 -39 -16.5 -69t-46 -50t-70 -30t-87.5 -10z" />
    <glyph glyph-name="uni0456" unicode="&#x456;" horiz-adv-x="259" 
d="M129 609q-23 0 -38.5 16t-15.5 39t15.5 39t38.5 16q24 0 39.5 -16t15.5 -39t-15.5 -39t-39.5 -16zM95 0v530h68v-530h-68z" />
    <glyph glyph-name="uni0457" unicode="&#x457;" horiz-adv-x="259" 
d="M33 603q-20 0 -34.5 14.5t-14.5 36.5q0 21 14.5 35.5t34.5 14.5q21 0 35.5 -14.5t14.5 -35.5q0 -22 -14.5 -36.5t-35.5 -14.5zM226 603q-21 0 -35.5 14.5t-14.5 36.5q0 21 14.5 35.5t35.5 14.5q20 0 34.5 -14.5t14.5 -35.5q0 -22 -14.5 -36.5t-34.5 -14.5zM95 0v530h68
v-530h-68z" />
    <glyph glyph-name="uni0458" unicode="&#x458;" horiz-adv-x="259" 
d="M129 609q-23 0 -38.5 16t-15.5 39t15.5 39t38.5 16q24 0 39.5 -16t15.5 -39t-15.5 -39t-39.5 -16zM7 -164q-25 0 -52 3v62q11 -1 21 -1.5t19 -0.5q57 0 78.5 26t21.5 84v521h68v-528q0 -86 -36.5 -126t-119.5 -40z" />
    <glyph glyph-name="uni0459" unicode="&#x459;" horiz-adv-x="866" 
d="M649 357q40 0 74 -13t58.5 -36.5t38 -55.5t13.5 -71q0 -40 -13.5 -73t-38 -57t-58.5 -37.5t-74 -13.5h-205v466h-228l-20 -318q-5 -72 -43 -111t-105 -39h-15t-15 1v64q6 -1 11.5 -1h11.5q37 0 60.5 21.5t27.5 78.5l23 368h360v-173h137zM648 64q51 0 83.5 32.5
t32.5 84.5q0 50 -32.5 81t-83.5 31h-136v-229h136z" />
    <glyph glyph-name="uni045A" unicode="&#x45a;" horiz-adv-x="888" 
d="M671 334q42 0 76 -12t58 -34t37.5 -52.5t13.5 -68.5q0 -37 -13.5 -68t-37.5 -53t-58 -34t-76 -12h-201v256h-307v-256h-68v530h68v-210h307v210h68v-196h133zM670 64q54 0 85 27.5t31 75.5t-31 75.5t-85 27.5h-132v-206h132z" />
    <glyph glyph-name="uni045B" unicode="&#x45b;" horiz-adv-x="649" 
d="M348 534q108 0 167 -63.5t59 -180.5v-290h-68v288q0 90 -42.5 137t-123.5 47q-42 0 -76.5 -13.5t-59 -37.5t-38 -58t-13.5 -75v-288h-68v591h-84v47h84v62h68v-62h185v-47h-185v-158q29 47 80.5 74t114.5 27z" />
    <glyph glyph-name="uni045C" unicode="&#x45c;" horiz-adv-x="542" 
d="M409 714l-93 -127h-69v6l78 127h84v-6zM95 0v530h68v-530h-68zM275 267l250 -263v-4h-85l-241 255v20l229 255h80v-4z" />
    <glyph glyph-name="uni045D" unicode="&#x45d;" horiz-adv-x="637" 
d="M368 587h-70l-93 127v6h85l78 -127v-6zM487 530h54v-530h-68v410l-323 -410h-55v530h68v-411z" />
    <glyph glyph-name="uni045E" unicode="&#x45e;" horiz-adv-x="547" 
d="M415 688v-61h-282v61h282zM453 530h76v-4l-322 -679h-74v3l100 209l-215 467v4h75l103 -227l74 -169l76 166z" />
    <glyph glyph-name="uni045F" unicode="&#x45f;" horiz-adv-x="628" 
d="M533 530v-530h-186v-147h-66v147h-186v530h68v-466h302v466h68z" />
    <glyph glyph-name="uni0462" unicode="&#x462;" horiz-adv-x="616" 
d="M361 450q49 0 89.5 -16.5t69.5 -46.5t45 -71t16 -91q0 -49 -16 -90.5t-45 -71.5t-69.5 -46.5t-89.5 -16.5h-254v578h-88v55h88v67h72v-67h164v-55h-164v-128h182zM352 70q71 0 114 42.5t43 112.5q0 35 -11.5 63.5t-32.5 49t-49.5 31.5t-63.5 11h-173v-310h173z" />
    <glyph glyph-name="uni0463" unicode="&#x463;" horiz-adv-x="520" 
d="M302 357q41 0 74.5 -13t58.5 -36.5t38.5 -55.5t13.5 -71q0 -40 -13.5 -73t-38.5 -57t-58.5 -37.5t-74.5 -13.5h-205v481h-76v49h76v170h68v-170h131v-49h-131v-124h137zM301 64q52 0 84 32.5t32 84.5q0 50 -32.5 81t-83.5 31h-136v-229h136z" />
    <glyph glyph-name="uni046A" unicode="&#x46a;" horiz-adv-x="708" 
d="M432 425q99 -10 154.5 -73t55.5 -178v-174h-68v168q0 103 -45.5 150t-135.5 47h-5v-365h-68v365h-5q-90 0 -135.5 -47t-45.5 -150v-168h-68v174q0 115 55.5 178t154.5 73l-189 231v44h534v-44zM516 633h-325l163 -205l65 83z" />
    <glyph glyph-name="uni046B" unicode="&#x46b;" horiz-adv-x="600" 
d="M372 323q78 -9 122.5 -58.5t44.5 -135.5v-129h-66v122q0 68 -33.5 105.5t-106.5 38.5v-266h-66v266q-31 0 -57 -7.5t-44.5 -24.5t-28.5 -44.5t-10 -67.5v-122h-67v129q0 86 44.5 135.5t122.5 58.5l-145 168v39h435v-39zM417 471h-234l62 -75l55 -71l55 71z" />
    <glyph glyph-name="uni0472" unicode="&#x472;" horiz-adv-x="826" 
d="M413 711q76 0 140.5 -27.5t112 -75.5t74 -114t26.5 -144t-26.5 -144t-74 -114t-112 -75.5t-140.5 -27.5t-140.5 27.5t-111.5 75.5t-73.5 114t-26.5 144t26.5 144t73.5 114t111.5 75.5t140.5 27.5zM413 640q-57 0 -105.5 -19t-85 -53.5t-59.5 -82t-28 -103.5q59 36 133 36
q51 0 86.5 -10.5t73.5 -27.5q35 -16 62 -23.5t63 -7.5q40 0 75.5 13t61.5 30q-6 54 -29.5 99.5t-60 78.5t-84 51.5t-103.5 18.5zM413 60q57 0 106 19t85.5 53.5t59.5 82t28 104.5q-28 -17 -60.5 -27t-73.5 -10q-26 0 -47 2.5t-39.5 7.5t-36.5 12t-37 16q-36 16 -63 23.5
t-62 7.5t-71.5 -11t-65.5 -31q7 -55 30 -100.5t59.5 -78.5t84.5 -51.5t103 -18.5z" />
    <glyph glyph-name="uni0473" unicode="&#x473;" horiz-adv-x="654" 
d="M327 538q60 0 110 -20.5t86 -57t56.5 -86.5t20.5 -109t-20.5 -109t-56.5 -86.5t-86 -57t-110 -20.5t-110 20.5t-86 57t-56.5 86.5t-20.5 109t20.5 109t56.5 86.5t86 57t110 20.5zM327 474q-41 0 -76.5 -13.5t-62 -38t-43.5 -58t-21 -74.5q43 28 100 28q19 0 34 -1.5
t28.5 -5t26 -8.5l27.5 -11q25 -11 43 -16t46 -5q32 0 56.5 11t42.5 24q-6 37 -24 68t-44 53t-60 34.5t-73 12.5zM327 56q41 0 76.5 13.5t62 38.5t43.5 59t21 74q-20 -14 -44.5 -22t-55.5 -8q-38 0 -64 7.5t-52 18.5t-45 16t-45 5q-27 0 -52 -9.5t-45 -25.5q6 -37 23.5 -68
t44 -53t60 -34t72.5 -12z" />
    <glyph glyph-name="uni0474" unicode="&#x474;" horiz-adv-x="689" 
d="M631 706q11 0 22.5 -1t23.5 -3v-62q-12 2 -19.5 2.5t-14.5 0.5q-20 0 -32.5 -9t-21.5 -32l-239 -602h-52l-278 693v7h74l230 -583l199 506q17 43 42.5 63t65.5 20z" />
    <glyph glyph-name="uni0475" unicode="&#x475;" horiz-adv-x="579" 
d="M528 533q9 0 18.5 -0.5t23.5 -2.5v-61q-11 1 -16 1h-13q-23 0 -37.5 -11.5t-28.5 -43.5l-178 -415h-50l-229 526v4h72l107 -254l75 -180l142 344q19 48 46 70.5t68 22.5z" />
    <glyph glyph-name="uni0490" unicode="&#x490;" horiz-adv-x="492" 
d="M414 804h65v-173h-305v-631h-71v700h311v104z" />
    <glyph glyph-name="uni0491" unicode="&#x491;" horiz-adv-x="445" 
d="M359 640h66v-174h-262v-466h-68v530h264v110z" />
    <glyph glyph-name="uni0492" unicode="&#x492;" horiz-adv-x="510" 
d="M497 632h-304v-238h173v-62h-173v-332h-72v332h-94v62h94v306h376v-68z" />
    <glyph glyph-name="uni0493" unicode="&#x493;" horiz-adv-x="450" 
d="M430 466h-262v-159h174v-56h-174v-251h-68v251h-76v56h76v223h330v-64z" />
    <glyph glyph-name="uni0494" unicode="&#x494;" horiz-adv-x="630" 
d="M331 455q59 0 105 -21.5t78.5 -61.5t49.5 -97.5t17 -128.5q0 -151 -59 -229.5t-171 -78.5q-20 0 -40 1.5t-38 5.5v69q35 -6 70 -6q83 0 124 60t41 178q0 117 -45.5 177.5t-136.5 60.5q-42 0 -77.5 -8.5t-74.5 -24.5v-351h-71v700h342v-67h-271v-213q38 17 76.5 26t80.5 9
z" />
    <glyph glyph-name="uni0495" unicode="&#x495;" horiz-adv-x="590" 
d="M338 378q106 0 156 -65.5t50 -208.5q0 -134 -42.5 -208t-136.5 -74q-23 0 -52 3v63q26 -3 45 -3q62 0 90 58t28 160q0 114 -35 163.5t-111 49.5q-37 0 -68 -12.5t-53 -35.5t-34 -55.5t-12 -73.5v-139h-68v530h330v-64h-262v-176q29 43 73.5 65.5t101.5 22.5z" />
    <glyph glyph-name="uni0496" unicode="&#x496;" horiz-adv-x="960" 
d="M34 700h83l273 -336v-24l-286 -340h-86v7l296 347l-280 339v7zM426 0v700h72v-700h-72zM853 69h107v-214h-68v145h-72l-286 340v24l273 336h83v-7l-280 -339z" />
    <glyph glyph-name="uni0497" unicode="&#x497;" horiz-adv-x="839" 
d="M33 530h81l219 -255v-20l-232 -255h-85v4l242 263l-225 259v4zM368 0v530h68v-530h-68zM732 64h107v-209h-66v145h-70l-232 255v20l219 255h80v-4l-224 -259z" />
    <glyph glyph-name="uni0498" unicode="&#x498;" horiz-adv-x="590" 
d="M542 190q0 -44 -17 -79.5t-47 -61.5t-71.5 -41t-89.5 -18l-19 -42q96 3 96 -67q0 -21 -9 -35.5t-24.5 -23.5t-36 -13t-43.5 -4q-20 0 -42 3.5t-43 8.5v50q26 -8 45 -10t36 -2q60 0 60 30q0 17 -15 23t-43 6q-19 0 -35 -4l-10 15l30 65q-99 8 -158 61.5t-61 139.5h71
q1 -60 48.5 -95.5t127.5 -35.5q81 0 129 36t48 97q0 30 -12 55.5t-34 44t-52.5 28.5t-67.5 10h-101v67h101q30 0 55.5 9t44 25.5t29 39t10.5 50.5q0 27 -11.5 48.5t-32 37.5t-49 24.5t-63.5 8.5q-34 0 -62.5 -8.5t-49.5 -23.5t-33 -36t-12 -46h-71q1 41 18.5 74.5t47.5 58
t71.5 38t90.5 13.5t91 -13.5t72.5 -38t47.5 -59t17 -76.5q0 -51 -24 -92.5t-67 -64.5q57 -25 88 -72.5t31 -104.5z" />
    <glyph glyph-name="uni0499" unicode="&#x499;" horiz-adv-x="515" 
d="M471 144q0 -64 -50 -104.5t-133 -48.5l-19 -37q47 0 69.5 -19t22.5 -51q0 -38 -26.5 -58.5t-77.5 -20.5q-18 0 -40.5 3.5t-45.5 8.5v50q39 -12 75 -12q26 0 42.5 7.5t16.5 25.5q0 17 -16.5 24t-39.5 7q-20 0 -36 -4l-10 15l30 61q-43 2 -78 14.5t-60.5 33t-39.5 48.5
t-15 62h66q1 -44 42.5 -70.5t106.5 -26.5q69 0 109 25.5t40 70.5t-36.5 70.5t-97.5 25.5h-96v59h96q50 0 81 23.5t31 65.5q0 40 -35.5 63t-95.5 23q-63 0 -98 -21t-39 -63h-64q4 68 58 107t144 39q44 0 80 -10t62 -29t40.5 -45.5t14.5 -58.5q0 -40 -22.5 -71.5t-57.5 -48.5
q47 -15 74.5 -50.5t27.5 -82.5z" />
    <glyph glyph-name="uni049A" unicode="&#x49a;" horiz-adv-x="653" 
d="M103 0v700h71v-700h-71zM545 69h108v-214h-68v145h-72l-302 341v23l290 336h84v-7l-295 -339z" />
    <glyph glyph-name="uni049B" unicode="&#x49b;" horiz-adv-x="576" 
d="M95 0v530h68v-530h-68zM468 64h108v-209h-66v145h-70l-241 255v20l229 255h80v-4l-233 -259z" />
    <glyph glyph-name="uni049C" unicode="&#x49c;" horiz-adv-x="631" 
d="M374 355l239 -348v-7h-80l-219 320h-29v-166h-58v166h-53v-320h-71v700h71v-311h53v162h58v-162h31l204 311h77v-7z" />
    <glyph glyph-name="uni049D" unicode="&#x49d;" horiz-adv-x="564" 
d="M338 267l210 -263v-4h-84l-183 236h-19v-136h-52v136h-47v-236h-68v530h68v-233h47v136h52v-136h20l169 233h80v-4z" />
    <glyph glyph-name="uni04A0" unicode="&#x4a0;" 
d="M306 700v-700h-72v631h-221v69h293zM421 354l311 -347v-7h-87l-303 341v23l290 336h84v-7z" />
    <glyph glyph-name="uni04A1" unicode="&#x4a1;" horiz-adv-x="646" 
d="M268 530v-530h-68v466h-180v64h248zM379 267l251 -263v-4h-85l-242 255v20l229 255h80v-4z" />
    <glyph glyph-name="uni04A2" unicode="&#x4a2;" horiz-adv-x="749" 
d="M631 69h87v-214h-68v145h-91v321h-385v-321h-71v700h71v-310h385v310h72v-631z" />
    <glyph glyph-name="uni04A3" unicode="&#x4a3;" horiz-adv-x="654" 
d="M541 64h86v-209h-66v145h-88v238h-310v-238h-68v530h68v-228h310v228h68v-466z" />
    <glyph glyph-name="uni04A4" unicode="&#x4a4;" horiz-adv-x="921" 
d="M549 700h359v-69h-287v-631h-72v321h-375v-321h-71v700h71v-310h375v310z" />
    <glyph glyph-name="uni04A5" unicode="&#x4a5;" horiz-adv-x="814" 
d="M794 530v-64h-259v-466h-68v238h-304v-238h-68v530h68v-228h304v228h327z" />
    <glyph glyph-name="uni04AA" unicode="&#x4aa;" horiz-adv-x="785" 
d="M737 237q-15 -53 -44 -97t-69.5 -76.5t-90 -51.5t-105.5 -22l-19 -42q96 3 96 -67q0 -21 -9 -35.5t-24.5 -23.5t-36 -13t-43.5 -4q-20 0 -42 3.5t-43 8.5v50q26 -8 45 -10t36 -2q60 0 60 30q0 17 -15 23t-43 6q-19 0 -35 -4l-10 15l30 65q-68 6 -125.5 35.5t-99.5 77
t-65.5 111t-23.5 136.5q0 78 26 144t72 114t109.5 75.5t137.5 27.5q60 0 113 -17.5t95.5 -49.5t74 -77t47.5 -100h-74q-15 40 -39.5 72t-57.5 54.5t-73 34.5t-84 12q-59 0 -109.5 -21.5t-87 -60.5t-57 -92t-20.5 -116t20.5 -116t57 -92t87 -60.5t109.5 -21.5q45 0 85 12.5
t73 35.5t58 56t40 73h73z" />
    <glyph glyph-name="uni04AB" unicode="&#x4ab;" horiz-adv-x="626" 
d="M582 186q-22 -84 -83 -134.5t-148 -58.5l-20 -39q47 0 69.5 -19t22.5 -51q0 -38 -26.5 -58.5t-77.5 -20.5q-18 0 -40.5 3.5t-45.5 8.5v50q39 -12 75 -12q26 0 42.5 7.5t16.5 25.5q0 17 -16.5 24t-39.5 7q-20 0 -36 -4l-10 15l32 63q-54 4 -98.5 26t-76.5 57.5t-50 83.5
t-18 104q0 60 20 110.5t55.5 87t85 56.5t108.5 20q48 0 90 -13.5t75 -38t56.5 -60.5t35.5 -81h-68q-22 61 -71 95t-116 34q-45 0 -82 -15.5t-63.5 -43t-41.5 -66t-15 -85.5q0 -46 15 -84t41.5 -65.5t63.5 -43t82 -15.5q69 0 117.5 34t70.5 96h69z" />
    <glyph glyph-name="uni04AE" unicode="&#x4ae;" horiz-adv-x="617" 
d="M600 700v-7l-255 -407v-286h-72v283l-256 410v7h81l132 -212l78 -127l79 127l134 212h79z" />
    <glyph glyph-name="uni04AF" unicode="&#x4af;" horiz-adv-x="535" 
d="M517 530v-4l-215 -457v-222h-68v220l-216 459v4h72l112 -245l66 -143l176 388h73z" />
    <glyph glyph-name="uni04B0" unicode="&#x4b0;" horiz-adv-x="617" 
d="M600 700v-7l-239 -381h162v-71h-178v-241h-72v241h-178v71h160l-238 381v7h81l132 -212l78 -127l79 127l134 212h79z" />
    <glyph glyph-name="uni04B1" unicode="&#x4b1;" horiz-adv-x="535" 
d="M517 530v-4l-209 -445h151v-52h-157v-182h-68v182h-158v52h151l-209 445v4h72l112 -245l66 -143l176 388h73z" />
    <glyph glyph-name="uni04B2" unicode="&#x4b2;" horiz-adv-x="679" 
d="M577 69h102v-214h-68v145h-74l-177 253l-37 54l-217 -307h-83v7l251 357l-230 329v7h83l145 -206l50 -74l51 74l146 206h82v-7l-231 -329z" />
    <glyph glyph-name="uni04B3" unicode="&#x4b3;" horiz-adv-x="574" 
d="M467 64h107v-209h-65v145h-73l-112 142l-58 78l-56 -77l-112 -143h-77v4l204 266l-196 256v4h76l102 -131l60 -82l59 81l102 132h75v-4l-195 -257z" />
    <glyph glyph-name="uni04B6" unicode="&#x4b6;" horiz-adv-x="658" 
d="M540 69h88v-214h-68v145h-91v285q-43 -19 -85.5 -27.5t-82.5 -8.5q-57 0 -102 17t-77 48.5t-49 76.5t-17 101v208h72v-199q0 -89 45.5 -135t133.5 -46q41 0 78 7.5t84 26.5v346h71v-631z" />
    <glyph glyph-name="uni04B7" unicode="&#x4b7;" horiz-adv-x="579" 
d="M467 64h85v-209h-66v145h-87v201q-73 -26 -143 -26q-94 0 -148 48.5t-54 145.5v161h68v-154q0 -70 37 -103.5t105 -33.5q32 0 66 6.5t69 21.5v263h68v-466z" />
    <glyph glyph-name="uni04B8" unicode="&#x4b8;" horiz-adv-x="643" 
d="M469 700h71v-700h-71v282q-68 -29 -134 -35v-143h-62v142q-51 4 -91 22.5t-68 50t-43 74.5t-15 95v212h72v-203q0 -80 37 -125.5t108 -53.5v179h62v-180q31 3 63.5 12.5t70.5 25.5v345z" />
    <glyph glyph-name="uni04B9" unicode="&#x4b9;" horiz-adv-x="566" 
d="M403 530h68v-530h-68v199q-27 -10 -54.5 -16t-54.5 -9v-116h-55v116q-85 5 -133 53.5t-48 139.5v163h68v-156q0 -63 29.5 -95.5t83.5 -39.5v139h55v-140q26 2 53 9.5t56 18.5v264z" />
    <glyph glyph-name="uni04BA" unicode="&#x4ba;" horiz-adv-x="643" 
d="M342 451q57 0 102 -17t77 -48.5t49 -76.5t17 -101v-208h-72v199q0 89 -45 135t-133 46q-42 0 -79 -7.5t-84 -26.5v-346h-71v700h71v-285q43 19 85.5 27.5t82.5 8.5z" />
    <glyph glyph-name="uni04BB" unicode="&#x4bb;" horiz-adv-x="670" 
d="M358 538q108 0 167 -64t59 -180v-294h-68v291q0 90 -42.5 137t-123.5 47q-42 0 -76.5 -13.5t-59 -37.5t-38 -57.5t-13.5 -74.5v-292h-68v700h68v-264q30 47 81 74.5t114 27.5z" />
    <glyph glyph-name="uni04C0" unicode="&#x4c0;" horiz-adv-x="463" 
d="M268 67h136v-67h-345v67h137v568h-134v65h339v-65h-133v-568z" />
    <glyph glyph-name="uni04C1" unicode="&#x4c1;" horiz-adv-x="924" 
d="M616 854v-61h-308v61h308zM34 700h83l273 -336v-24l-286 -340h-86v7l296 347l-280 339v7zM426 0v700h72v-700h-72zM610 354l296 -347v-7h-86l-286 340v24l273 336h83v-7z" />
    <glyph glyph-name="uni04C2" unicode="&#x4c2;" horiz-adv-x="803" 
d="M543 688v-61h-282v61h282zM33 530h81l219 -255v-20l-232 -255h-85v4l242 263l-225 259v4zM368 0v530h68v-530h-68zM546 267l241 -263v-4h-84l-232 255v20l219 255h80v-4z" />
    <glyph glyph-name="uni04CB" unicode="&#x4cb;" horiz-adv-x="643" 
d="M469 700h71v-700h-78v-145h-68v214h75v213q-43 -19 -85.5 -28t-82.5 -9q-57 0 -102 17t-77 48.5t-49 76.5t-17 101v212h72v-203q0 -89 45.5 -135t133.5 -46q38 0 76.5 9.5t85.5 29.5v345z" />
    <glyph glyph-name="uni04CC" unicode="&#x4cc;" horiz-adv-x="562" 
d="M399 530h68v-530h-75v-145h-65v209h72v135q-73 -26 -143 -26q-94 0 -148 48.5t-54 145.5v163h68v-156q0 -70 37 -103.5t105 -33.5q62 0 135 29v264z" />
    <glyph glyph-name="uni04CF" unicode="&#x4cf;" horiz-adv-x="259" 
d="M95 0v700h68v-700h-68z" />
    <glyph glyph-name="uni04D0" unicode="&#x4d0;" horiz-adv-x="648" 
d="M324 763q-69 0 -109.5 35.5t-40.5 95.5h59q0 -37 24.5 -57.5t66.5 -20.5t66.5 20.5t24.5 57.5h58q0 -60 -40 -95.5t-109 -35.5zM350 700l282 -693v-7h-75l-71 179h-324l-72 -179h-74v7l282 693h52zM324 586l-136 -340h272z" />
    <glyph glyph-name="uni04D1" unicode="&#x4d1;" horiz-adv-x="693" 
d="M341 593q-69 0 -109 35.5t-40 94.5h58q0 -35 24.5 -56.5t66.5 -21.5t67 21.5t25 56.5h58q0 -58 -40.5 -94t-109.5 -36zM530 530h68v-530h-68v93q-35 -48 -89.5 -74.5t-121.5 -26.5q-58 0 -106.5 20.5t-83.5 57t-55 86.5t-20 109t20 109t55 86.5t83.5 57t106.5 20.5
q67 0 121.5 -26.5t89.5 -74.5v93zM327 56q44 0 81.5 15.5t64.5 43.5t42.5 66.5t15.5 83.5t-15.5 83.5t-42.5 66.5t-64.5 43.5t-81.5 15.5t-81.5 -15.5t-64.5 -43.5t-42.5 -66.5t-15.5 -83.5t15.5 -83.5t42.5 -66.5t64.5 -43.5t81.5 -15.5z" />
    <glyph glyph-name="uni04D2" unicode="&#x4d2;" horiz-adv-x="648" 
d="M219 780q-21 0 -35.5 14.5t-14.5 35.5q0 22 14.5 36t35.5 14q22 0 36 -14t14 -36q0 -21 -14 -35.5t-36 -14.5zM429 780q-22 0 -36.5 14.5t-14.5 35.5q0 22 14.5 36t36.5 14q21 0 35.5 -14t14.5 -36q0 -21 -14.5 -35.5t-35.5 -14.5zM350 700l282 -693v-7h-75l-71 179h-324
l-72 -179h-74v7l282 693h52zM324 586l-136 -340h272z" />
    <glyph glyph-name="uni04D3" unicode="&#x4d3;" horiz-adv-x="693" 
d="M233 603q-21 0 -35.5 14.5t-14.5 36.5q0 21 14.5 35.5t35.5 14.5t36 -14.5t15 -35.5q0 -22 -15 -36.5t-36 -14.5zM450 603q-22 0 -36.5 14.5t-14.5 36.5q0 21 14.5 35.5t36.5 14.5q21 0 35.5 -14.5t14.5 -35.5q0 -22 -14.5 -36.5t-35.5 -14.5zM530 530h68v-530h-68v93
q-35 -48 -89.5 -74.5t-121.5 -26.5q-58 0 -106.5 20.5t-83.5 57t-55 86.5t-20 109t20 109t55 86.5t83.5 57t106.5 20.5q67 0 121.5 -26.5t89.5 -74.5v93zM327 56q44 0 81.5 15.5t64.5 43.5t42.5 66.5t15.5 83.5t-15.5 83.5t-42.5 66.5t-64.5 43.5t-81.5 15.5t-81.5 -15.5
t-64.5 -43.5t-42.5 -66.5t-15.5 -83.5t15.5 -83.5t42.5 -66.5t64.5 -43.5t81.5 -15.5z" />
    <glyph glyph-name="uni04D4" unicode="&#x4d4;" horiz-adv-x="899" 
d="M504 69h345v-69h-417v179h-242l-98 -179h-78v7l384 693h444v-69h-338v-242h318v-69h-318v-251zM225 246h207v379z" />
    <glyph glyph-name="uni04D5" unicode="&#x4d5;" horiz-adv-x="1120" 
d="M601 243q3 -41 19 -75.5t42.5 -59t61.5 -38.5t76 -14q61 0 108 26t71 74h74q-29 -77 -95 -120.5t-154 -43.5q-65 0 -118 24.5t-88 69.5v-86h-68v93q-35 -48 -89 -74.5t-122 -26.5q-58 0 -106.5 20.5t-83.5 57t-55 86.5t-20 109t20 109t55 86.5t83.5 57t106.5 20.5
q68 0 122 -26.5t89 -74.5v93h68v-86q35 45 88 69.5t118 24.5q62 0 112 -22t85 -61t53 -93t16 -119h-469zM327 56q44 0 81.5 15.5t64.5 43.5t42.5 66.5t15.5 83.5t-15.5 83.5t-42.5 66.5t-64.5 43.5t-81.5 15.5q-45 0 -82.5 -15.5t-64.5 -43.5t-42 -66.5t-15 -83.5t15 -83.5
t42 -66.5t64.5 -43.5t82.5 -15.5zM800 474q-39 0 -73 -12.5t-59.5 -35t-42 -54t-22.5 -70.5h396q-6 38 -23 69.5t-43.5 54t-60 35.5t-72.5 13z" />
    <glyph glyph-name="uni04D6" unicode="&#x4d6;" horiz-adv-x="570" 
d="M314 763q-69 0 -109.5 35.5t-40.5 95.5h59q0 -37 24.5 -57.5t66.5 -20.5t66.5 20.5t24.5 57.5h58q0 -60 -40 -95.5t-109 -35.5zM174 69h345v-69h-416v700h409v-69h-338v-242h319v-69h-319v-251z" />
    <glyph glyph-name="uni04D7" unicode="&#x4d7;" horiz-adv-x="643" 
d="M323 593q-69 0 -109 35.5t-40 94.5h58q0 -35 24.5 -56.5t66.5 -21.5t67 21.5t25 56.5h58q0 -58 -40.5 -94t-109.5 -36zM124 243q3 -41 19 -75.5t42.5 -59t61.5 -38.5t76 -14q60 0 107.5 26t71.5 74h74q-29 -77 -96 -120.5t-157 -43.5q-58 0 -107.5 20.5t-85.5 56.5
t-56 86t-20 110t20 110t56 86t85.5 56.5t107.5 20.5q61 0 112 -21.5t87 -60t55 -93t16 -120.5h-469zM323 474q-39 0 -73 -12.5t-59.5 -35t-42 -54t-22.5 -70.5h396q-6 38 -23 69.5t-43 54t-60 35.5t-73 13z" />
    <glyph glyph-name="uni04D8" unicode="&#x4d8;" horiz-adv-x="811" 
d="M402 711q76 0 139.5 -27t110 -75t72.5 -114.5t26 -144.5t-26 -144t-72.5 -114t-110.5 -75t-139 -27q-78 0 -142.5 28.5t-110.5 80t-70.5 122.5t-21.5 156h620q-4 58 -26.5 106.5t-58.5 83t-84.5 54t-105.5 19.5q-83 0 -147 -37t-97 -104h-78q19 49 50.5 88.5t73.5 67
t92 42t106 14.5zM402 60q56 0 103.5 18.5t83.5 51.5t58.5 79.5t28.5 101.5h-546q7 -55 29.5 -101.5t58.5 -79.5t82.5 -51.5t101.5 -18.5z" />
    <glyph glyph-name="uni04D9" unicode="&#x4d9;" horiz-adv-x="643" 
d="M320 538q59 0 108 -20.5t85 -56.5t56 -86t20 -110t-20 -110t-56 -86t-85 -56.5t-108 -20.5q-61 0 -112 21.5t-87 60t-55 93t-16 120.5h469q-3 41 -19 75.5t-42.5 59.5t-61.5 38.5t-76 13.5q-60 0 -107.5 -26t-71.5 -74h-74q29 77 96 120.5t157 43.5zM320 56q39 0 73 12.5
t59.5 35t42 54t22.5 70.5h-396q6 -37 23 -69t43 -54.5t60 -35.5t73 -13z" />
    <glyph glyph-name="uni04DC" unicode="&#x4dc;" horiz-adv-x="924" 
d="M357 880q22 0 36 -14t14 -36q0 -21 -14 -35.5t-36 -14.5q-21 0 -35.5 14.5t-14.5 35.5q0 22 14.5 36t35.5 14zM617 830q0 -21 -14.5 -35.5t-35.5 -14.5q-22 0 -36.5 14.5t-14.5 35.5q0 22 14.5 36t36.5 14q21 0 35.5 -14t14.5 -36zM34 700h83l273 -336v-24l-286 -340h-86
v7l296 347l-280 339v7zM426 0v700h72v-700h-72zM610 354l296 -347v-7h-86l-286 340v24l273 336h83v-7z" />
    <glyph glyph-name="uni04DD" unicode="&#x4dd;" horiz-adv-x="803" 
d="M293 704q21 0 36 -14.5t15 -35.5q0 -22 -15 -36.5t-36 -14.5t-35.5 14.5t-14.5 36.5q0 21 14.5 35.5t35.5 14.5zM510 603q-22 0 -36.5 14.5t-14.5 36.5q0 21 14.5 35.5t36.5 14.5q21 0 35.5 -14.5t14.5 -35.5q0 -22 -14.5 -36.5t-35.5 -14.5zM33 530h81l219 -255v-20
l-232 -255h-85v4l242 263l-225 259v4zM368 0v530h68v-530h-68zM546 267l241 -263v-4h-84l-232 255v20l219 255h80v-4z" />
    <glyph glyph-name="uni04DE" unicode="&#x4de;" horiz-adv-x="590" 
d="M191 780q-21 0 -35.5 14.5t-14.5 35.5q0 22 14.5 36t35.5 14q22 0 36 -14t14 -36q0 -21 -14 -35.5t-36 -14.5zM401 780q-22 0 -36.5 14.5t-14.5 35.5q0 22 14.5 36t36.5 14q21 0 35.5 -14t14.5 -36q0 -21 -14.5 -35.5t-35.5 -14.5zM423 367q57 -25 88 -72.5t31 -104.5
q0 -47 -19 -84t-53 -63t-79.5 -40t-98.5 -14q-55 0 -100 14.5t-77.5 41t-50.5 63.5t-19 83h71q1 -60 48.5 -95.5t127.5 -35.5q81 0 129 36t48 97q0 30 -12 55.5t-34 44t-52.5 28.5t-67.5 10h-101v67h101q30 0 55.5 9t44 25.5t29 39t10.5 50.5q0 27 -11.5 48.5t-32 37.5
t-49 24.5t-63.5 8.5q-34 0 -62.5 -8.5t-49.5 -23.5t-33 -36t-12 -46h-71q1 41 18.5 74.5t47.5 58t71.5 38t90.5 13.5t91 -13.5t72.5 -38t47.5 -59t17 -76.5q0 -51 -24 -92.5t-67 -64.5z" />
    <glyph glyph-name="uni04DF" unicode="&#x4df;" horiz-adv-x="515" 
d="M143 603q-21 0 -35.5 14.5t-14.5 36.5q0 21 14.5 35.5t35.5 14.5t36 -14.5t15 -35.5q0 -22 -15 -36.5t-36 -14.5zM360 603q-22 0 -36.5 14.5t-14.5 36.5q0 21 14.5 35.5t36.5 14.5q21 0 35.5 -14.5t14.5 -35.5q0 -22 -14.5 -36.5t-35.5 -14.5zM369 277q47 -15 74.5 -50.5
t27.5 -82.5q0 -35 -15.5 -63.5t-44 -48.5t-68.5 -31t-88 -11t-87 11.5t-67 32t-44 50t-17 65.5h66q1 -44 42.5 -70.5t106.5 -26.5q69 0 109 25.5t40 70.5t-36.5 70.5t-97.5 25.5h-96v59h96q50 0 81 23.5t31 65.5q0 40 -35.5 63t-95.5 23q-63 0 -98 -21t-39 -63h-64
q4 68 58 107t144 39q44 0 80 -10t62 -29t40.5 -45.5t14.5 -58.5q0 -40 -22.5 -71.5t-57.5 -48.5z" />
    <glyph glyph-name="uni04E2" unicode="&#x4e2;" horiz-adv-x="733" 
d="M522 860v-54h-311v54h311zM576 700h55v-700h-72v557l-400 -557h-56v700h71v-561z" />
    <glyph glyph-name="uni04E3" unicode="&#x4e3;" horiz-adv-x="637" 
d="M465 674v-54h-296v54h296zM487 530h54v-530h-68v410l-323 -410h-55v530h68v-411z" />
    <glyph glyph-name="uni04E4" unicode="&#x4e4;" horiz-adv-x="733" 
d="M261 780q-21 0 -35.5 14.5t-14.5 35.5q0 22 14.5 36t35.5 14q22 0 36 -14t14 -36q0 -21 -14 -35.5t-36 -14.5zM471 780q-22 0 -36.5 14.5t-14.5 35.5q0 22 14.5 36t36.5 14q21 0 35.5 -14t14.5 -36q0 -21 -14.5 -35.5t-35.5 -14.5zM576 700h55v-700h-72v557l-400 -557
h-56v700h71v-561z" />
    <glyph glyph-name="uni04E5" unicode="&#x4e5;" horiz-adv-x="637" 
d="M208 603q-21 0 -35.5 14.5t-14.5 36.5q0 21 14.5 35.5t35.5 14.5t36 -14.5t15 -35.5q0 -22 -15 -36.5t-36 -14.5zM425 603q-22 0 -36.5 14.5t-14.5 36.5q0 21 14.5 35.5t36.5 14.5q21 0 35.5 -14.5t14.5 -35.5q0 -22 -14.5 -36.5t-35.5 -14.5zM487 530h54v-530h-68v410
l-323 -410h-55v530h68v-411z" />
    <glyph glyph-name="uni04E6" unicode="&#x4e6;" horiz-adv-x="826" 
d="M308 780q-21 0 -35.5 14.5t-14.5 35.5q0 22 14.5 36t35.5 14q22 0 36 -14t14 -36q0 -21 -14 -35.5t-36 -14.5zM518 780q-22 0 -36.5 14.5t-14.5 35.5q0 22 14.5 36t36.5 14q21 0 35.5 -14t14.5 -36q0 -21 -14.5 -35.5t-35.5 -14.5zM413 -11q-76 0 -140.5 27.5
t-111.5 75.5t-73.5 114t-26.5 144t26.5 144t73.5 114t111.5 75.5t140.5 27.5t140.5 -27.5t112 -75.5t74 -114t26.5 -144t-26.5 -144t-74 -114t-112 -75.5t-140.5 -27.5zM413 60q61 0 112 22t88.5 60.5t58.5 91.5t21 116t-21 116t-58.5 91.5t-88.5 60.5t-112 22
q-60 0 -111.5 -22t-88.5 -60.5t-58 -91.5t-21 -116t21 -116t58 -91.5t88.5 -60.5t111.5 -22z" />
    <glyph glyph-name="uni04E7" unicode="&#x4e7;" horiz-adv-x="654" 
d="M219 603q-21 0 -35.5 14.5t-14.5 36.5q0 21 14.5 35.5t35.5 14.5t36 -14.5t15 -35.5q0 -22 -15 -36.5t-36 -14.5zM436 603q-22 0 -36.5 14.5t-14.5 36.5q0 21 14.5 35.5t36.5 14.5q21 0 35.5 -14.5t14.5 -35.5q0 -22 -14.5 -36.5t-35.5 -14.5zM327 -8q-60 0 -110 20.5
t-86 57t-56.5 86.5t-20.5 109t20.5 109t56.5 86.5t86 57t110 20.5t110 -20.5t86 -57t56.5 -86.5t20.5 -109t-20.5 -109t-56.5 -86.5t-86 -57t-110 -20.5zM327 56q44 0 81.5 15.5t64.5 43.5t42.5 66.5t15.5 83.5t-15.5 83.5t-42.5 66.5t-64.5 43.5t-81.5 15.5t-81.5 -15.5
t-64.5 -43.5t-42.5 -66.5t-15.5 -83.5t15.5 -83.5t42.5 -66.5t64.5 -43.5t81.5 -15.5z" />
    <glyph glyph-name="uni04E8" unicode="&#x4e8;" horiz-adv-x="826" 
d="M413 711q76 0 140.5 -27.5t112 -75.5t74 -114t26.5 -144t-26.5 -144t-74 -114t-112 -75.5t-140.5 -27.5t-140.5 27.5t-111.5 75.5t-73.5 114t-26.5 144t26.5 144t73.5 114t111.5 75.5t140.5 27.5zM413 640q-57 0 -105.5 -19t-85 -53.5t-59.5 -82t-28 -104.5h557
q-5 57 -28 104.5t-59.5 82t-85.5 53.5t-106 19zM413 60q57 0 106 19.5t85.5 54t59.5 82t28 104.5h-557q5 -57 28 -104.5t59.5 -82t85 -54t105.5 -19.5z" />
    <glyph glyph-name="uni04E9" unicode="&#x4e9;" horiz-adv-x="659" 
d="M329 538q60 0 110 -20.5t86.5 -57t57 -86.5t20.5 -109t-20.5 -109t-57 -86.5t-86.5 -57t-110 -20.5t-110 20.5t-86 57t-56.5 86.5t-20.5 109t20.5 109t56.5 86.5t86 57t110 20.5zM329 474q-40 0 -75 -13t-61.5 -37t-43.5 -57t-22 -72h404q-5 39 -22 72t-43 57t-61 37
t-76 13zM329 56q41 0 76 13t61 37t43 57t22 72h-404q5 -39 22 -72t43.5 -57t61.5 -37t75 -13z" />
    <glyph glyph-name="uni04EE" unicode="&#x4ee;" horiz-adv-x="582" 
d="M448 860v-54h-311v54h311zM486 700h76v-7l-326 -693h-76v8l95 200l-235 485v7h77l115 -241l81 -172l78 169z" />
    <glyph glyph-name="uni04EF" unicode="&#x4ef;" horiz-adv-x="547" 
d="M422 674v-54h-296v54h296zM453 530h76v-4l-322 -679h-74v3l100 209l-215 467v4h75l103 -227l74 -169l76 166z" />
    <glyph glyph-name="uni04F0" unicode="&#x4f0;" horiz-adv-x="582" 
d="M187 780q-21 0 -35.5 14.5t-14.5 35.5q0 22 14.5 36t35.5 14q22 0 36 -14t14 -36q0 -21 -14 -35.5t-36 -14.5zM397 780q-22 0 -36.5 14.5t-14.5 35.5q0 22 14.5 36t36.5 14q21 0 35.5 -14t14.5 -36q0 -21 -14.5 -35.5t-35.5 -14.5zM486 700h76v-7l-326 -693h-76v8l95 200
l-235 485v7h77l115 -241l81 -172l78 169z" />
    <glyph glyph-name="uni04F1" unicode="&#x4f1;" horiz-adv-x="547" 
d="M165 603q-21 0 -35.5 14.5t-14.5 36.5q0 21 14.5 35.5t35.5 14.5t36 -14.5t15 -35.5q0 -22 -15 -36.5t-36 -14.5zM382 603q-22 0 -36.5 14.5t-14.5 36.5q0 21 14.5 35.5t36.5 14.5q21 0 35.5 -14.5t14.5 -35.5q0 -22 -14.5 -36.5t-35.5 -14.5zM453 530h76v-4l-322 -679
h-74v3l100 209l-215 467v4h75l103 -227l74 -169l76 166z" />
    <glyph glyph-name="uni04F2" unicode="&#x4f2;" horiz-adv-x="582" 
d="M344 890l-99 -126h-68v5l86 127h81v-6zM327 764v5l102 127h81v-6l-114 -126h-69zM486 700h76v-7l-326 -693h-76v8l95 200l-235 485v7h77l115 -241l81 -172l78 169z" />
    <glyph glyph-name="uni04F3" unicode="&#x4f3;" horiz-adv-x="547" 
d="M318 713l-99 -126h-68v6l85 126h82v-6zM300 587v6l102 126h82v-6l-114 -126h-70zM453 530h76v-4l-322 -679h-74v3l100 209l-215 467v4h75l103 -227l74 -169l76 166z" />
    <glyph glyph-name="uni04F4" unicode="&#x4f4;" horiz-adv-x="643" 
d="M196 780q-21 0 -35.5 14.5t-14.5 35.5q0 22 14.5 36t35.5 14q22 0 36 -14t14 -36q0 -21 -14 -35.5t-36 -14.5zM406 780q-22 0 -36.5 14.5t-14.5 35.5q0 22 14.5 36t36.5 14q21 0 35.5 -14t14.5 -36q0 -21 -14.5 -35.5t-35.5 -14.5zM469 700h71v-700h-71v285
q-43 -19 -85.5 -27.5t-82.5 -8.5q-57 0 -102 17t-77 48.5t-49 76.5t-17 101v208h72v-199q0 -89 45.5 -135t133.5 -46q41 0 78 7.5t84 26.5v346z" />
    <glyph glyph-name="uni04F5" unicode="&#x4f5;" horiz-adv-x="562" 
d="M156 603q-21 0 -35.5 14.5t-14.5 36.5q0 21 14.5 35.5t35.5 14.5t36 -14.5t15 -35.5q0 -22 -15 -36.5t-36 -14.5zM373 603q-22 0 -36.5 14.5t-14.5 36.5q0 21 14.5 35.5t36.5 14.5q21 0 35.5 -14.5t14.5 -35.5q0 -22 -14.5 -36.5t-35.5 -14.5zM399 530h68v-530h-68v201
q-73 -26 -143 -26q-94 0 -148 48.5t-54 145.5v161h68v-154q0 -70 37 -103.5t105 -33.5q32 0 66 6.5t69 21.5v263z" />
    <glyph glyph-name="uni04F8" unicode="&#x4f8;" horiz-adv-x="874" 
d="M332 780q-21 0 -35.5 14.5t-14.5 35.5q0 22 14.5 36t35.5 14q22 0 36 -14t14 -36q0 -21 -14 -35.5t-36 -14.5zM542 880q21 0 35.5 -14t14.5 -36q0 -21 -14.5 -35.5t-35.5 -14.5q-22 0 -36.5 14.5t-14.5 35.5q0 22 14.5 36t36.5 14zM357 450q49 0 89.5 -16.5t69.5 -46.5
t45 -71t16 -91q0 -49 -16 -90.5t-45 -71.5t-69.5 -46.5t-89.5 -16.5h-254v700h71v-250h183zM699 700h72v-700h-72v700zM348 70q71 0 113.5 42.5t42.5 112.5q0 35 -11.5 63.5t-32 49t-49 31.5t-63.5 11h-174v-310h174z" />
    <glyph glyph-name="uni04F9" unicode="&#x4f9;" horiz-adv-x="776" 
d="M280 603q-21 0 -35.5 14.5t-14.5 36.5q0 21 14.5 35.5t35.5 14.5t36 -14.5t15 -35.5q0 -22 -15 -36.5t-36 -14.5zM497 704q21 0 35.5 -14.5t14.5 -35.5q0 -22 -14.5 -36.5t-35.5 -14.5q-22 0 -36.5 14.5t-14.5 36.5q0 21 14.5 35.5t36.5 14.5zM300 357q41 0 74.5 -13
t58.5 -36.5t38.5 -55.5t13.5 -71q0 -40 -13.5 -73t-38.5 -57t-58.5 -37.5t-74.5 -13.5h-205v530h68v-173h137zM613 530h68v-530h-68v530zM299 64q52 0 84 32.5t32 84.5q0 50 -32.5 81t-83.5 31h-136v-229h136z" />
    <glyph glyph-name="Wgrave" unicode="&#x1e80;" horiz-adv-x="981" 
d="M539 764h-67l-103 126v6h82l88 -127v-5zM888 700h71v-7l-227 -693h-51l-103 251l-87 213l-88 -213l-102 -251h-51l-228 693v7h73l60 -187l126 -384l186 448h48l187 -448l127 391z" />
    <glyph glyph-name="wgrave" unicode="&#x1e81;" horiz-adv-x="848" 
d="M476 587h-70l-93 127v6h85l78 -127v-6zM758 530h70v-4l-192 -526h-52l-84 203l-76 190l-76 -190l-85 -203h-51l-192 526v4h71l149 -426l160 389h49l159 -389l83 237z" />
    <glyph glyph-name="Wacute" unicode="&#x1e82;" horiz-adv-x="981" 
d="M611 890l-102 -126h-69v5l89 127h82v-6zM888 700h71v-7l-227 -693h-51l-103 251l-87 213l-88 -213l-102 -251h-51l-228 693v7h73l60 -187l126 -384l186 448h48l187 -448l127 391z" />
    <glyph glyph-name="wacute" unicode="&#x1e83;" horiz-adv-x="848" 
d="M538 714l-93 -127h-69v6l78 127h84v-6zM758 530h70v-4l-192 -526h-52l-84 203l-76 190l-76 -190l-85 -203h-51l-192 526v4h71l149 -426l160 389h49l159 -389l83 237z" />
    <glyph glyph-name="Wdieresis" unicode="&#x1e84;" horiz-adv-x="981" 
d="M387 780q-21 0 -35.5 14.5t-14.5 35.5q0 22 14.5 36t35.5 14q22 0 36 -14t14 -36q0 -21 -14 -35.5t-36 -14.5zM597 780q-22 0 -36.5 14.5t-14.5 35.5q0 22 14.5 36t36.5 14q21 0 35.5 -14t14.5 -36q0 -21 -14.5 -35.5t-35.5 -14.5zM888 700h71v-7l-227 -693h-51l-103 251
l-87 213l-88 -213l-102 -251h-51l-228 693v7h73l60 -187l126 -384l186 448h48l187 -448l127 391z" />
    <glyph glyph-name="wdieresis" unicode="&#x1e85;" horiz-adv-x="848" 
d="M316 603q-21 0 -35.5 14.5t-14.5 36.5q0 21 14.5 35.5t35.5 14.5t36 -14.5t15 -35.5q0 -22 -15 -36.5t-36 -14.5zM533 603q-22 0 -36.5 14.5t-14.5 36.5q0 21 14.5 35.5t36.5 14.5q21 0 35.5 -14.5t14.5 -35.5q0 -22 -14.5 -36.5t-35.5 -14.5zM758 530h70v-4l-192 -526
h-52l-84 203l-76 190l-76 -190l-85 -203h-51l-192 526v4h71l149 -426l160 389h49l159 -389l83 237z" />
    <glyph glyph-name="Germandbls" unicode="&#x1e9e;" horiz-adv-x="648" 
d="M412 442q94 -6 149 -61t55 -149q0 -119 -65.5 -179.5t-183.5 -60.5q-21 0 -41 1.5t-41 5.5v71q38 -7 75 -7q90 0 136.5 40.5t46.5 128.5q0 80 -48 115.5t-130 35.5h-39l-12 25l147 223h-157q-75 0 -109.5 -35.5t-34.5 -105.5v-490h-72v492q0 100 53.5 154t159.5 54h262
v-30z" />
    <glyph glyph-name="uni1EBC" unicode="&#x1ebc;" horiz-adv-x="570" 
d="M241 847q-48 0 -48 -77h-50q0 64 24.5 94.5t68.5 30.5q33 0 54.5 -16t38.5 -33q13 -14 26.5 -24.5t29.5 -10.5q48 0 48 78h51q0 -125 -93 -125q-33 0 -54.5 15.5t-38.5 32.5q-14 14 -27 24.5t-30 10.5zM174 69h345v-69h-416v700h409v-69h-338v-242h319v-69h-319v-251z
" />
    <glyph glyph-name="uni1EBD" unicode="&#x1ebd;" horiz-adv-x="643" 
d="M249 667q-48 0 -48 -77h-49q0 65 24.5 95t68.5 30q33 0 55.5 -15.5t39.5 -33.5q13 -14 26.5 -24t28.5 -10q49 0 49 77h49q0 -62 -24 -93.5t-69 -31.5q-33 0 -55.5 15.5t-39.5 32.5q-14 14 -27 24.5t-29 10.5zM124 243q3 -41 19 -75.5t42.5 -59t61.5 -38.5t76 -14
q60 0 107.5 26t71.5 74h74q-29 -77 -96 -120.5t-157 -43.5q-58 0 -107.5 20.5t-85.5 56.5t-56 86t-20 110t20 110t56 86t85.5 56.5t107.5 20.5q61 0 112 -21.5t87 -60t55 -93t16 -120.5h-469zM323 474q-39 0 -73 -12.5t-59.5 -35t-42 -54t-22.5 -70.5h396q-6 38 -23 69.5
t-43 54t-60 35.5t-73 13z" />
    <glyph glyph-name="Ygrave" unicode="&#x1ef2;" horiz-adv-x="617" 
d="M356 764h-67l-103 126v6h82l88 -127v-5zM600 700v-7l-255 -407v-286h-72v283l-256 410v7h81l132 -212l78 -127l79 127l134 212h79z" />
    <glyph glyph-name="ygrave" unicode="&#x1ef3;" horiz-adv-x="547" 
d="M325 587h-70l-93 127v6h85l78 -127v-6zM453 530h76v-4l-322 -679h-74v3l100 209l-215 467v4h75l103 -227l74 -169l76 166z" />
    <glyph glyph-name="uni1EF8" unicode="&#x1ef8;" horiz-adv-x="617" 
d="M236 847q-48 0 -48 -77h-50q0 64 24.5 94.5t68.5 30.5q33 0 54.5 -16t38.5 -33q13 -14 26.5 -24.5t29.5 -10.5q48 0 48 78h51q0 -125 -93 -125q-33 0 -54.5 15.5t-38.5 32.5q-14 14 -27 24.5t-30 10.5zM600 700v-7l-255 -407v-286h-72v283l-256 410v7h81l132 -212
l78 -127l79 127l134 212h79z" />
    <glyph glyph-name="uni1EF9" unicode="&#x1ef9;" horiz-adv-x="547" 
d="M200 667q-48 0 -48 -77h-49q0 65 24.5 95t68.5 30q33 0 55.5 -15.5t39.5 -33.5q13 -14 26.5 -24t28.5 -10q49 0 49 77h49q0 -62 -24 -93.5t-69 -31.5q-33 0 -55.5 15.5t-39.5 32.5q-14 14 -27 24.5t-29 10.5zM453 530h76v-4l-322 -679h-74v3l100 209l-215 467v4h75
l103 -227l74 -169l76 166z" />
    <glyph glyph-name="uni2009" unicode="&#x2009;" horiz-adv-x="14" 
 />
    <glyph glyph-name="uni200B" unicode="&#x200b;" horiz-adv-x="0" 
 />
    <glyph glyph-name="endash" unicode="&#x2013;" horiz-adv-x="561" 
d="M53 259v64h455v-64h-455z" />
    <glyph glyph-name="emdash" unicode="&#x2014;" horiz-adv-x="780" 
d="M54 259v64h673v-64h-673z" />
    <glyph glyph-name="uni2015" unicode="&#x2015;" horiz-adv-x="702" 
d="M48 259v64h606v-64h-606z" />
    <glyph glyph-name="quoteleft" unicode="&#x2018;" horiz-adv-x="283" 
d="M203 700v-5l-45 -195h-74v13l56 187h63z" />
    <glyph glyph-name="quoteright" unicode="&#x2019;" horiz-adv-x="283" 
d="M80 500v4l45 196h73v-13l-55 -187h-63z" />
    <glyph glyph-name="quotesinglbase" unicode="&#x201a;" horiz-adv-x="283" 
d="M80 -112v5l45 196h73v-14l-55 -187h-63z" />
    <glyph glyph-name="quotedblleft" unicode="&#x201c;" horiz-adv-x="418" 
d="M203 700v-5l-45 -195h-74v13l56 187h63zM339 700v-5l-45 -195h-74v13l56 187h63z" />
    <glyph glyph-name="quotedblright" unicode="&#x201d;" horiz-adv-x="418" 
d="M80 500v4l45 196h73v-13l-55 -187h-63zM215 500v4l45 196h74v-13l-56 -187h-63z" />
    <glyph glyph-name="quotedblbase" unicode="&#x201e;" horiz-adv-x="418" 
d="M80 -112v5l45 196h73v-14l-55 -187h-63zM215 -112v5l45 196h74v-14l-56 -187h-63z" />
    <glyph glyph-name="dagger" unicode="&#x2020;" horiz-adv-x="474" 
d="M454 478v-62h-181v-466h-72v466h-181v62h181v222h72v-222h181z" />
    <glyph glyph-name="daggerdbl" unicode="&#x2021;" horiz-adv-x="490" 
d="M462 417h-181v-179h181v-62h-181v-226h-72v226h-181v62h181v179h-181v62h181v221h72v-221h181v-62z" />
    <glyph glyph-name="bullet" unicode="&#x2022;" horiz-adv-x="271" 
d="M136 267q-25 0 -41.5 16.5t-16.5 41.5q0 24 16.5 41t41.5 17q24 0 41 -17t17 -41q0 -25 -17 -41.5t-41 -16.5z" />
    <glyph glyph-name="ellipsis" unicode="&#x2026;" horiz-adv-x="691" 
d="M126 -8q-20 0 -34 14t-14 34q0 21 14 35t34 14t34 -14t14 -35q0 -20 -14 -34t-34 -14zM342 -8q-20 0 -34 14t-14 34q0 21 14 35t34 14q21 0 35 -14t14 -35q0 -20 -14 -34t-35 -14zM565 -8q-20 0 -34 14t-14 34q0 21 14 35t34 14t34 -14t14 -35q0 -20 -14 -34t-34 -14z
" />
    <glyph glyph-name="perthousand" unicode="&#x2030;" horiz-adv-x="1292" 
d="M224 384q-36 0 -66.5 12.5t-52 34t-34 51.5t-12.5 65t12.5 65t34.5 52t52 34t66 12t66 -12t51.5 -34t34 -52t12.5 -65t-12.5 -65t-34 -51.5t-51.5 -34t-66 -12.5zM220 0l388 700h60l-389 -700h-59zM224 440q48 0 77.5 30t29.5 77q0 48 -29.5 77.5t-77.5 29.5t-77.5 -29.5
t-29.5 -77.5t29.5 -77.5t77.5 -29.5zM671 -10q-36 0 -66 12.5t-52 34t-34.5 51.5t-12.5 65t12.5 65t34.5 52t52 34t66 12t66 -12t52 -34t34.5 -52t12.5 -65t-12.5 -65t-34 -51.5t-52 -34t-66.5 -12.5zM1072 -10q-36 0 -66 12.5t-51.5 34t-34 51.5t-12.5 65t12.5 65t34 52
t51.5 34t66 12t66 -12t52 -34t34.5 -52t12.5 -65t-12.5 -65t-34 -51.5t-52 -34t-66.5 -12.5zM671 46q48 0 77.5 30t29.5 77q0 48 -29.5 77.5t-77.5 29.5t-77.5 -29.5t-29.5 -77.5t30 -77.5t77 -29.5zM1072 46q48 0 77.5 30t29.5 77q0 48 -29.5 77.5t-77.5 29.5
q-47 0 -77 -29.5t-30 -77.5t30 -77.5t77 -29.5z" />
    <glyph glyph-name="minute" unicode="&#x2032;" horiz-adv-x="283" 
d="M80 500v4l45 196h73v-13l-55 -187h-63z" />
    <glyph glyph-name="second" unicode="&#x2033;" horiz-adv-x="418" 
d="M80 500v4l45 196h73v-13l-55 -187h-63zM215 500v4l45 196h74v-13l-56 -187h-63z" />
    <glyph glyph-name="guilsinglleft" unicode="&#x2039;" horiz-adv-x="279" 
d="M250 499v-6l-158 -198l158 -196v-6h-78l-157 195v14l157 197h78z" />
    <glyph glyph-name="guilsinglright" unicode="&#x203a;" horiz-adv-x="280" 
d="M107 499l157 -197v-14l-157 -195h-78v6l158 196l-158 198v6h78z" />
    <glyph glyph-name="uni203D" unicode="&#x203d;" horiz-adv-x="512" 
d="M255 711q51 0 93 -15t72 -42t46 -65.5t16 -85.5q0 -30 -6 -54.5t-19.5 -47t-35.5 -44t-54 -45.5q-24 -18 -40 -32.5t-25 -28t-12.5 -27t-3.5 -30.5v-31h-67l-1 167v219h69v-222q5 4 10.5 8.5t12.5 10.5q30 22 49 41t30.5 37.5t16 37.5t4.5 41q0 63 -41.5 101t-113.5 38
t-114.5 -44t-42.5 -119h-70q0 53 16 95.5t46 73t72 47t93 16.5zM253 88q21 0 34.5 -14t13.5 -34t-13.5 -34t-34.5 -14t-34.5 14t-13.5 34t13.5 34t34.5 14z" />
    <glyph glyph-name="fraction" unicode="&#x2044;" horiz-adv-x="263" 
d="M-67 0l337 700h60l-338 -700h-59z" />
    <glyph glyph-name="uni2070" unicode="&#x2070;" horiz-adv-x="367" 
d="M183 393q-69 0 -107.5 51.5t-38.5 140.5t38.5 140.5t107.5 51.5t108 -51t39 -141t-39 -141t-108 -51zM183 443q45 0 69 37.5t24 104.5q0 68 -24 105t-69 37t-68.5 -37t-23.5 -105t24 -105t68 -37z" />
    <glyph glyph-name="uni2074" unicode="&#x2074;" horiz-adv-x="309" 
d="M293 533v-50h-45v-83h-53v83h-187v41l195 246h45v-237h45zM71 531h126v35l1 125z" />
    <glyph glyph-name="uni2075" unicode="&#x2075;" horiz-adv-x="324" 
d="M172 646q27 0 50 -9.5t39.5 -26.5t26 -40.5t9.5 -50.5t-10 -50.5t-27 -40t-41 -26t-52 -9.5q-56 0 -92 29.5t-38 78.5h52q2 -26 24 -42t54 -16q33 0 55 21.5t22 54.5q0 34 -21.5 56t-55.5 22q-37 0 -70 -26h-51l18 199h212v-50h-167l-9 -94q38 20 72 20z" />
    <glyph glyph-name="uni2076" unicode="&#x2076;" horiz-adv-x="327" 
d="M177 641q27 0 50 -9t39.5 -25.5t25.5 -38.5t9 -49t-10 -50.5t-28 -40t-43 -26t-54 -9.5q-61 0 -98.5 34.5t-37.5 91.5q0 27 10.5 52.5t36.5 62.5l93 136h59v-5l-90 -129q9 2 18 3.5t20 1.5zM165 442q37 0 60 21.5t23 56.5q0 34 -23 55.5t-60 21.5t-60 -21.5t-23 -55.5
q0 -35 23 -56.5t60 -21.5z" />
    <glyph glyph-name="uni2077" unicode="&#x2077;" horiz-adv-x="285" 
d="M12 770h263v-34l-177 -336h-58v5l168 315h-196v50z" />
    <glyph glyph-name="uni2078" unicode="&#x2078;" horiz-adv-x="334" 
d="M238 594q31 -14 48 -38t17 -56q0 -48 -38 -77.5t-98 -29.5t-98 29.5t-38 77.5q0 31 17 55.5t48 38.5q-23 14 -35.5 35.5t-12.5 47.5q0 43 33.5 71.5t85.5 28.5t85.5 -28.5t33.5 -71.5q0 -26 -12.5 -47.5t-35.5 -35.5zM167 731q-30 0 -49.5 -16.5t-19.5 -42.5t19 -42
t50 -16t50 16t19 42t-19.5 42.5t-49.5 16.5zM167 441q38 0 60 17.5t22 46.5t-22.5 46.5t-59.5 17.5t-59.5 -17.5t-22.5 -46.5t22 -46.5t60 -17.5z" />
    <glyph glyph-name="uni2079" unicode="&#x2079;" horiz-adv-x="326" 
d="M161 777q30 0 55 -9.5t42.5 -26t27.5 -40t10 -51.5q0 -26 -11 -51t-36 -62l-92 -137h-63l93 135q-18 -6 -38 -6q-55 0 -89 33.5t-34 87.5q0 28 10 51.5t27.5 40t42.5 26t55 9.5zM161 573q37 0 60 21.5t23 55.5q0 35 -23 56.5t-60 21.5t-60 -21.5t-23 -56.5
q0 -34 22.5 -55.5t60.5 -21.5z" />
    <glyph glyph-name="uni2080" unicode="&#x2080;" horiz-adv-x="367" 
d="M183 -77q-69 0 -107.5 51.5t-38.5 140.5t38.5 140.5t107.5 51.5t108 -51t39 -141t-39 -141t-108 -51zM183 -27q45 0 69 37.5t24 104.5q0 68 -24 105t-69 37t-68.5 -37t-23.5 -105t24 -105t68 -37z" />
    <glyph glyph-name="uni2081" unicode="&#x2081;" horiz-adv-x="217" 
d="M124 300h38v-370h-54v294l-74 -49l-26 41z" />
    <glyph glyph-name="uni2082" unicode="&#x2082;" horiz-adv-x="303" 
d="M277 -20v-50h-255v35l141 133q29 28 43 48t14 44q0 29 -18.5 47t-49.5 18q-33 0 -51.5 -20t-18.5 -53h-53q0 56 33.5 90.5t89.5 34.5q54 0 88 -32t34 -84q0 -35 -17.5 -64.5t-56.5 -64.5l-89 -82h166z" />
    <glyph glyph-name="uni2083" unicode="&#x2083;" horiz-adv-x="308" 
d="M221 125q26 -13 43 -37.5t17 -57.5q0 -48 -36 -77.5t-93 -29.5q-58 0 -92 30t-36 80h53q2 -29 22 -44.5t53 -15.5q34 0 55 16.5t21 45.5q0 28 -20 45.5t-51 17.5h-46v47h46q26 0 43 16.5t17 40.5q0 26 -19.5 41.5t-48.5 15.5t-47 -15.5t-19 -38.5h-52q2 48 34.5 75
t84.5 27q51 0 85 -27.5t34 -71.5q0 -26 -13 -48t-35 -35z" />
    <glyph glyph-name="uni2084" unicode="&#x2084;" horiz-adv-x="309" 
d="M293 63v-50h-45v-83h-53v83h-187v41l195 246h45v-237h45zM71 61h126v35l1 125z" />
    <glyph glyph-name="uni2085" unicode="&#x2085;" horiz-adv-x="324" 
d="M172 176q27 0 50 -9.5t39.5 -26.5t26 -40.5t9.5 -50.5t-10 -50.5t-27 -40t-41 -26t-52 -9.5q-56 0 -92 29.5t-38 78.5h52q2 -26 24 -42t54 -16q33 0 55 21.5t22 54.5q0 34 -21.5 56t-55.5 22q-37 0 -70 -26h-51l18 199h212v-50h-167l-9 -94q38 20 72 20z" />
    </font>
</defs>
</svg>
