<svg width="57" height="69" viewBox="0 0 57 69" fill="none" xmlns="http://www.w3.org/2000/svg">
<path d="M28.103 68.1196C13.3581 58.415 6.83873 43.3971 3.96743 32.5001C0.846458 20.7159 1.23485 11.0668 1.23831 10.9732L1.26259 10.3978L1.8417 10.4394C2.18848 10.4637 2.53525 10.4741 2.88203 10.4741C12.9905 10.4741 27.9608 0.966995 28.1099 0.873414L28.4151 0.679321L28.7202 0.873414C28.8694 0.966995 43.8431 10.4741 53.9481 10.4741C54.2949 10.4741 54.6417 10.4741 54.9885 10.4394L55.5676 10.3978L55.5918 10.9801C55.5918 11.0737 55.9698 20.7194 52.8627 32.5071C49.9914 43.404 43.4721 58.4289 28.7306 68.1266L28.4185 68.3311L28.103 68.1196ZM7.50107 15.8082C7.74254 21.1864 8.51969 26.5273 9.821 31.7515C11.1802 37.3206 13.2795 42.6827 16.063 47.6948L16.3092 48.1315C16.493 48.4469 16.6802 48.7658 16.8744 49.0777C19.496 53.4067 22.669 55.7254 26.3448 58.4115C27.0106 58.9002 27.6973 59.3993 28.3977 59.9296C29.0913 59.4028 29.7848 58.8898 30.4541 58.4115C34.1265 55.7254 37.2995 53.4067 39.9245 49.0777C40.1153 48.7658 40.3025 48.4469 40.4898 48.1246L40.7325 47.6948C43.5189 42.6841 45.6183 37.3216 46.9745 31.7515C48.2777 26.5277 49.0549 21.1866 49.2944 15.8082C45.0603 15.115 40.1708 13.4409 34.7299 10.786C32.129 9.51401 29.875 8.24547 28.37 7.35819C26.8615 8.24547 24.6144 9.51054 22.0136 10.786C16.6282 13.4409 11.7491 15.1288 7.50107 15.8082Z" fill="#2AB46C"/>
<path d="M28.4131 1.34132C28.4131 1.34132 43.5533 11.046 53.9461 11.046C54.2929 11.046 54.6709 11.046 55.0246 11.0113C55.0246 11.0113 56.6648 49.0812 28.4131 67.6621C0.164814 49.0674 1.80506 10.9974 1.80506 10.9974C2.15183 11.0217 2.51595 11.0321 2.88006 11.0321C13.2833 11.0321 28.4131 1.32746 28.4131 1.32746V1.34132ZM28.4131 60.5951C33.15 57.0044 37.1796 54.6753 40.4219 49.3308C40.6161 49.0119 40.8068 48.693 40.9941 48.3672L41.2403 47.9305C44.0524 42.8887 46.1751 37.4926 47.5516 31.8867C48.8986 26.4603 49.6841 20.9099 49.8958 15.3229C45.6027 14.7095 40.6126 13.0215 35.0053 10.2765C32.3351 8.96986 30.0256 7.66667 28.4166 6.69967C26.7902 7.66667 24.4807 8.96986 21.8278 10.2765C16.1997 13.0181 11.2096 14.7095 6.91999 15.3229C7.1327 20.9104 7.92175 26.4611 9.27459 31.8867C10.6485 37.5034 12.7712 42.9101 15.5859 47.9617L15.8356 48.3984C16.0228 48.7242 16.2101 49.0431 16.4043 49.362C19.6466 54.7064 23.6866 57.0356 28.4131 60.6263V60.5951ZM28.4131 0L27.8028 0.391652C27.6571 0.485232 12.8186 9.9022 2.88006 9.9022C2.53328 9.9022 2.20385 9.9022 1.88482 9.86754L0.726587 9.78782L0.674571 10.9489C0.653765 11.344 0.30699 20.7714 3.42796 32.6423C5.13342 39.3028 7.81403 45.675 11.383 51.5524C15.5355 58.3667 21.1379 64.1839 27.7924 68.591L28.4131 69L29.0338 68.591C35.6917 64.1856 41.2966 58.3682 45.4501 51.5524C49.0205 45.6757 51.7012 39.3033 53.4052 32.6423C56.5261 20.7714 56.1794 11.344 56.1516 10.9489L56.1031 9.78782L54.9448 9.86754C54.6223 9.8918 54.2894 9.9022 53.9461 9.9022C44.0006 9.9022 29.1725 0.485232 29.0234 0.391652L28.4131 0ZM8.09209 16.2899C12.2534 15.5552 17.0389 13.8638 22.3099 11.3024C24.765 10.1032 26.9116 8.90401 28.42 8.02366C29.932 8.90401 32.075 10.1032 34.5302 11.3024C39.7977 13.8776 44.5867 15.5552 48.748 16.2899C48.4864 21.4592 47.7234 26.5909 46.4697 31.6129C45.1203 37.1304 43.0349 42.4416 40.2693 47.4037L40.0231 47.8439C39.8428 48.1523 39.6555 48.4678 39.4717 48.7762C36.9021 53.0081 33.7742 55.2957 30.147 57.9471C29.5887 58.3561 29.013 58.7755 28.4131 59.2122C27.827 58.7755 27.2549 58.3561 26.6792 57.9471C23.0554 55.2957 19.924 53.0081 17.3579 48.7762C17.1707 48.4678 16.9834 48.1489 16.7996 47.8335L16.5569 47.4037C13.7943 42.4373 11.7112 37.1228 10.3635 31.6025C9.11446 26.5834 8.35379 21.4553 8.09209 16.2899Z" fill="black"/>
<path d="M29.4592 42.0488C30.1701 42.0488 30.881 42.0488 31.5884 42.0488C32.3231 42.0452 33.0428 41.8402 33.6691 41.4561C34.1863 41.1269 34.5848 40.6412 34.8065 40.0697C34.8521 39.954 34.9304 39.8541 35.0319 39.7821C36.4537 38.8393 37.8778 37.9035 39.3042 36.9747C39.8763 36.6003 40.4416 36.2156 41.038 35.8482C41.5134 35.5071 42.0862 35.3284 42.6714 35.3387C42.9551 35.3719 43.2194 35.4998 43.4214 35.7017C43.6234 35.9036 43.7513 36.1677 43.7845 36.4513C43.8022 36.8264 43.7292 37.2002 43.5717 37.5411C43.4141 37.882 43.1766 38.1799 42.8794 38.4096C42.3443 38.8629 41.7802 39.2809 41.1906 39.6608C39.0059 41.0957 36.8155 42.5213 34.6192 43.9378C33.4575 44.6864 32.275 45.4004 31.0994 46.1213C30.4959 46.5056 29.8071 46.736 29.0937 46.7922C28.3802 46.8484 27.6639 46.7287 27.0075 46.4436C26.2064 46.1213 25.4331 45.7193 24.6564 45.3345C23.238 44.6413 21.8232 43.9066 20.4083 43.1856C20.1584 43.0409 19.8711 42.9735 19.5828 42.992C19.2946 43.0105 19.0183 43.1141 18.7889 43.2896C18.2237 43.6709 17.6445 44.0175 17.0828 44.3641C16.9993 44.4334 16.9003 44.4814 16.7942 44.5042C16.6881 44.527 16.578 44.5238 16.4734 44.4948C16.3689 44.4659 16.2728 44.4121 16.1936 44.338C16.1143 44.2639 16.0541 44.1718 16.0182 44.0695C15.4495 42.8448 14.8854 41.6202 14.3259 40.3955C13.8196 39.2864 13.3145 38.1762 12.8105 37.0648C12.7487 36.9735 12.7096 36.8688 12.6964 36.7593C12.6832 36.6499 12.6963 36.5389 12.7346 36.4356C12.7729 36.3322 12.8353 36.2395 12.9167 36.1651C12.998 36.0906 13.096 36.0367 13.2023 36.0077C14.8773 35.2694 16.5522 34.5312 18.2306 33.8102C19.3104 33.3686 20.4812 33.195 21.6429 33.3042C22.0151 33.3297 22.3855 33.376 22.7526 33.4428C23.5052 33.6066 24.1871 34.0031 24.7014 34.5762C25.1141 34.9991 25.5129 35.4392 25.8909 35.8967C26.3001 36.3945 26.8727 36.7311 27.5069 36.8464C28.8464 37.1539 30.2142 37.3223 31.5884 37.349C32.0634 37.3466 32.5296 37.4775 32.9339 37.7268C33.1926 37.8821 33.3977 38.1127 33.5217 38.3877C33.6456 38.6627 33.6825 38.9691 33.6274 39.2656C33.5971 39.5673 33.4726 39.8517 33.2716 40.0788C33.0706 40.3058 32.8032 40.4639 32.5074 40.5307C32.1321 40.6412 31.7437 40.7007 31.3526 40.7075C30.1354 40.7317 28.9252 40.7525 27.701 40.7075C26.8791 40.6567 26.0607 40.5607 25.2493 40.4198C24.7292 40.3401 24.209 40.2049 23.7097 40.0732C23.6202 40.0477 23.5264 40.0404 23.4341 40.0518C23.3417 40.0632 23.2526 40.0931 23.172 40.1397C23.0914 40.1863 23.021 40.2486 22.9651 40.3229C22.9091 40.3972 22.8687 40.482 22.8462 40.5723C22.8248 40.6602 22.8214 40.7516 22.8361 40.8409C22.8509 40.9302 22.8835 41.0156 22.9321 41.0919C22.9807 41.1683 23.0442 41.2341 23.1188 41.2854C23.1934 41.3366 23.2776 41.3723 23.3663 41.3903C25.0953 41.8639 26.8831 42.088 28.6755 42.0557C28.9321 42.0557 29.1887 42.0557 29.4453 42.0557L29.4592 42.0488Z" fill="black"/>
<path d="M27.8298 15.7284C28.3327 15.7284 28.8355 15.7284 29.3348 15.7284C29.4838 15.7251 29.6292 15.7749 29.7448 15.8689C29.8604 15.9628 29.9388 16.0949 29.966 16.2413C30.0769 16.834 30.1706 17.4336 30.2607 18.0298C30.2596 18.1016 30.283 18.1717 30.3271 18.2285C30.3713 18.2852 30.4335 18.3251 30.5035 18.3417C30.7066 18.4052 30.9029 18.4888 31.0895 18.5913C31.1386 18.6181 31.1931 18.6335 31.249 18.6363C31.3112 18.6329 31.3707 18.6098 31.4189 18.5705C31.8593 18.2239 32.3136 17.9293 32.7609 17.6104C32.9114 17.483 33.0984 17.4066 33.295 17.392C33.4077 17.402 33.5171 17.4348 33.6167 17.4884C33.7163 17.542 33.8038 17.6154 33.8741 17.704L35.1364 18.9829C35.2761 19.1013 35.3634 19.2702 35.3789 19.4527C35.3945 19.6352 35.3372 19.8164 35.2196 19.9568C34.8485 20.4837 34.4705 20.9966 34.103 21.5269C34.2243 21.8319 34.3318 22.13 34.4497 22.4177C34.4719 22.4502 34.5006 22.4778 34.5341 22.4987C34.5675 22.5196 34.6049 22.5333 34.6439 22.539L36.4125 22.8405C36.5817 22.8572 36.7379 22.9387 36.8485 23.0679C36.959 23.1971 37.0152 23.364 37.0055 23.5337C37.0055 24.1957 37.0055 24.8542 37.0055 25.5128C37.0071 25.681 36.9475 25.844 36.8378 25.9716C36.728 26.0991 36.5757 26.1824 36.409 26.2059C35.8056 26.3065 35.2022 26.4035 34.6023 26.5109C34.5637 26.5187 34.5271 26.5345 34.4948 26.5571C34.4626 26.5798 34.4354 26.6089 34.4151 26.6427C34.3006 26.8783 34.2139 27.1279 34.103 27.3636C34.0806 27.4021 34.0712 27.4469 34.0762 27.4912C34.0812 27.5355 34.1003 27.577 34.1307 27.6097C34.4775 28.0845 34.8243 28.5628 35.171 29.0411C35.239 29.113 35.2908 29.1987 35.3229 29.2923C35.3551 29.3859 35.3667 29.4853 35.3572 29.5838C35.3477 29.6823 35.3172 29.7777 35.2677 29.8634C35.2182 29.9491 35.151 30.0233 35.0705 30.0809C34.6289 30.5153 34.1897 30.9497 33.7527 31.3841C33.688 31.4556 33.6095 31.5133 33.5219 31.5538C33.4343 31.5943 33.3394 31.6167 33.243 31.6198C33.086 31.616 32.9342 31.5626 32.8095 31.4673C32.3125 31.1207 31.82 30.7741 31.3322 30.4275C31.2896 30.3905 31.236 30.3685 31.1797 30.3651C31.1361 30.3677 31.0935 30.3795 31.0548 30.3997C30.8401 30.5014 30.6202 30.5916 30.396 30.6701C30.3463 30.6809 30.3014 30.7072 30.2678 30.7452C30.2341 30.7832 30.2134 30.831 30.2087 30.8815C30.1116 31.4777 30.0076 32.0738 29.9105 32.6699C29.8946 32.84 29.8136 32.9974 29.6843 33.1091C29.5551 33.2208 29.3876 33.2783 29.2169 33.2695H27.2473C27.0678 33.2783 26.8919 33.217 26.7567 33.0987C26.6215 32.9804 26.5376 32.8142 26.5225 32.6353C26.4254 32.0391 26.3248 31.443 26.2139 30.8503C26.2031 30.8128 26.1846 30.778 26.1595 30.7481C26.1344 30.7183 26.1033 30.694 26.0682 30.677C25.8359 30.5661 25.5966 30.4795 25.3747 30.372C25.3373 30.3559 25.2974 30.3465 25.2568 30.3443C25.2023 30.346 25.15 30.3655 25.1077 30.3997C24.6187 30.7463 24.1228 31.0929 23.6304 31.4395C23.5016 31.5351 23.3469 31.5895 23.1865 31.5955C23.0888 31.5912 22.9929 31.5672 22.9047 31.5249C22.8165 31.4826 22.7378 31.4229 22.6733 31.3494L21.3209 29.963C21.1908 29.8487 21.1102 29.6883 21.0959 29.5157C21.0817 29.3431 21.135 29.1717 21.2446 29.0376C21.5844 28.5593 21.9312 28.0845 22.2849 27.6131C22.3295 27.568 22.3572 27.509 22.3635 27.4459C22.3698 27.3829 22.3543 27.3196 22.3196 27.2665C22.2158 27.0533 22.1265 26.8333 22.0526 26.608C22.04 26.5622 22.0136 26.5213 21.977 26.4909C21.9404 26.4606 21.8954 26.4421 21.848 26.4382C21.2515 26.3377 20.6586 26.2233 20.0621 26.1158C19.8994 26.096 19.7501 26.0159 19.6435 25.8915C19.5369 25.767 19.4809 25.6072 19.4865 25.4434C19.4865 24.7502 19.4865 24.0848 19.4865 23.4089C19.4827 23.257 19.534 23.1088 19.6308 22.9917C19.7277 22.8745 19.8636 22.7962 20.0136 22.7712C20.5961 22.6637 21.1822 22.5702 21.7682 22.4835C21.8474 22.4858 21.9251 22.4609 21.9882 22.413C22.0512 22.3651 22.096 22.297 22.115 22.2201C22.1809 21.9983 22.3023 21.7973 22.382 21.5789C22.3967 21.5438 22.4043 21.5061 22.4043 21.468C22.4043 21.4299 22.3967 21.3922 22.382 21.3571C22.0352 20.8649 21.7127 20.3797 21.3764 19.891C21.3145 19.8224 21.2674 19.7417 21.2381 19.6541C21.2088 19.5665 21.1979 19.4737 21.206 19.3817C21.2141 19.2897 21.2412 19.2003 21.2854 19.1191C21.3296 19.038 21.3901 18.9669 21.4631 18.9101L22.7912 17.5896C22.8579 17.5149 22.9389 17.4543 23.0295 17.4114C23.12 17.3686 23.2182 17.3443 23.3183 17.3401C23.492 17.347 23.6588 17.4103 23.7934 17.5203C24.2685 17.8669 24.747 18.2135 25.2186 18.5601C25.2545 18.5905 25.2998 18.6077 25.3469 18.6086C25.387 18.6071 25.4261 18.5965 25.4614 18.5774C25.7006 18.47 25.9503 18.3868 26.1896 18.2759C26.2242 18.259 26.255 18.2353 26.2801 18.2061C26.3051 18.1769 26.3239 18.1428 26.3352 18.106C26.4531 17.5134 26.5572 16.9207 26.682 16.3245C26.697 16.1585 26.7751 16.0045 26.9002 15.8942C27.0254 15.784 27.188 15.7259 27.3548 15.7319H27.8472L27.8298 15.7284ZM28.2217 27.2492C28.9246 27.2241 29.5903 26.9273 30.0786 26.4215C30.567 25.9156 30.8399 25.2401 30.8399 24.5371C30.8399 23.8341 30.567 23.1586 30.0786 22.6527C29.5903 22.1468 28.9246 21.8501 28.2217 21.825C27.5186 21.8468 26.8513 22.1404 26.3606 22.6442C25.8698 23.1479 25.5937 23.8223 25.5906 24.5254C25.5874 25.2285 25.8574 25.9053 26.3437 26.4134C26.8299 26.9215 27.4945 27.2211 28.1974 27.2492H28.2182H28.2217ZM27.8298 14.342H27.327C26.8271 14.3224 26.3377 14.4887 25.9534 14.8088C25.5691 15.1289 25.3172 15.58 25.2464 16.075C25.2013 16.3107 25.1597 16.5464 25.1146 16.7682V16.7994L25.0175 16.73L24.5528 16.3835C24.1818 16.1006 23.7294 15.9451 23.2628 15.9398C22.9817 15.9429 22.7041 16.0021 22.4462 16.114C22.1883 16.2259 21.9555 16.3882 21.7613 16.5914L20.4297 17.9119C20.0576 18.26 19.8263 18.7325 19.7796 19.2398C19.7329 19.7471 19.8742 20.2538 20.1765 20.6639L20.4401 21.0417C20.4852 21.111 20.5337 21.1769 20.5823 21.2462C20.284 21.2947 20.0066 21.3467 19.7361 21.3952C19.2705 21.479 18.8493 21.724 18.5462 22.0871C18.2431 22.4502 18.0776 22.9083 18.0786 23.3812C18.0786 24.0744 18.0786 24.7676 18.0786 25.4365C18.0684 25.9277 18.2368 26.4059 18.5524 26.7825C18.868 27.1592 19.3095 27.4087 19.7951 27.4849L20.2494 27.5681L20.5441 27.6235L20.1037 28.2335C19.8043 28.6342 19.6616 29.1305 19.7024 29.6289C19.7433 30.1274 19.9649 30.5938 20.3257 30.9404L20.8285 31.4534L21.6815 32.3129C21.8749 32.5203 22.1089 32.6855 22.3691 32.7982C22.6293 32.9109 22.9099 32.9687 23.1935 32.968C23.6267 32.963 24.0485 32.8278 24.4037 32.5798L24.4557 32.5417L25.0314 32.1466C25.0764 32.41 25.1181 32.6561 25.1527 32.871C25.2211 33.3725 25.4701 33.832 25.8532 34.1631C26.2362 34.4943 26.7269 34.6744 27.2334 34.6698H29.21C29.7091 34.6794 30.1944 34.5054 30.5736 34.1807C30.9527 33.8561 31.1993 33.4035 31.2664 32.9091C31.308 32.6699 31.3461 32.4308 31.3877 32.1951L32.005 32.6283C32.4096 32.9262 32.909 33.0663 33.4095 33.0222C33.9101 32.9782 34.3774 32.7531 34.7237 32.3892C35.1583 31.9571 35.5952 31.5262 36.0345 31.0964C36.4285 30.7458 36.6745 30.2586 36.7228 29.7336C36.7711 29.2085 36.618 28.6847 36.2946 28.2682L35.9062 27.7275H36.0033L36.6448 27.6201C37.1364 27.5487 37.5853 27.3013 37.9081 26.9239C38.2309 26.5464 38.4055 26.0647 38.3995 25.5682C38.3995 24.9027 38.3995 24.2408 38.3995 23.5753C38.4109 23.08 38.241 22.5975 37.9218 22.2185C37.6025 21.8394 37.1559 21.5898 36.6656 21.5165L36.1455 21.4264L35.9374 21.3917C36.0796 21.1942 36.2218 20.9966 36.3605 20.7956C36.6639 20.3889 36.8081 19.8854 36.7659 19.3798C36.7238 18.8742 36.4982 18.4015 36.1316 18.0506L34.8589 16.7404C34.6608 16.5203 34.42 16.3426 34.1512 16.2181C33.8824 16.0936 33.5911 16.0249 33.295 16.0161C32.8068 16.0273 32.3351 16.1949 31.9495 16.4944C31.7935 16.6087 31.6339 16.7197 31.4744 16.841C31.4293 16.5602 31.3843 16.2864 31.3322 16.0091C31.247 15.5465 31.0022 15.1284 30.6405 14.8276C30.2787 14.5268 29.8228 14.3623 29.3522 14.3628C28.8459 14.3628 28.3396 14.3628 27.8298 14.3628V14.342ZM28.2217 25.8628C27.87 25.8574 27.5345 25.7141 27.2874 25.4639C27.0403 25.2137 26.9013 24.8765 26.9005 24.525C26.9012 24.1804 27.0383 23.8502 27.2819 23.6065C27.5343 23.3606 27.8727 23.2226 28.2252 23.2218C28.5738 23.2236 28.9075 23.3631 29.1537 23.6098C29.3999 23.8565 29.5385 24.1904 29.5394 24.5388C29.5358 24.8877 29.3961 25.2213 29.1499 25.4686C28.9038 25.716 28.5707 25.8574 28.2217 25.8628Z" fill="black"/>
<path d="M34.8865 38.2571C34.7194 37.6674 34.3683 37.1465 33.8843 36.7702L35.2055 35.9522C35.9337 35.5017 36.6516 35.0407 37.3867 34.6005C37.7345 34.3635 38.141 34.2271 38.5613 34.2063C38.9817 34.1855 39.3997 34.2811 39.7691 34.4827C39.9114 34.5744 40.0459 34.6776 40.1714 34.7911C38.3993 35.9522 36.6516 37.0856 34.8865 38.2571Z" fill="black"/>
<path d="M36.3116 33.682L33.8842 35.1758C33.423 35.4635 32.9618 35.7512 32.4971 36.0319C32.4186 36.0702 32.3306 36.0846 32.2439 36.0735C31.9353 36.0527 31.6267 36.0076 31.318 35.9903C30.68 35.9522 30.0419 35.9245 29.4038 35.8898V35.8343C29.5668 35.7338 29.7263 35.6264 29.8858 35.5259C30.7632 34.9852 31.6197 34.4203 32.5214 33.9038C33.3981 33.3588 34.4514 33.1726 35.462 33.384C35.7507 33.467 36.0344 33.5665 36.3116 33.682Z" fill="black"/>
</svg>
