<svg width="75" height="65" viewBox="0 0 75 65" fill="none" xmlns="http://www.w3.org/2000/svg">
<path d="M26.9284 50.0874H26.1816C25.5651 49.8948 25.0173 49.5285 24.6035 49.0323C23.5898 47.984 22.5389 46.9594 21.5082 45.9247C20.4776 44.8899 20.4235 43.6151 21.5082 42.5431L30.4731 33.5719C31.0036 33.041 31.4868 32.429 32.3755 32.3546C31.4564 31.4483 30.5947 30.5657 29.7364 29.7102C29.6851 29.6821 29.6284 29.6654 29.5701 29.6614C29.5117 29.6573 29.4532 29.6659 29.3985 29.6865C28.5686 29.928 27.6986 29.9993 26.8405 29.8962C25.8628 29.7893 24.9205 29.4688 24.0803 28.9573C23.24 28.4459 22.5223 27.7559 21.9778 26.9363C21.4334 26.1166 21.0755 25.1873 20.9296 24.214C20.7836 23.2407 20.8531 22.2472 21.1331 21.3037C21.3562 20.5395 21.9745 20.3738 22.5321 20.9317C23.3194 21.7162 24.1 22.5041 24.8975 23.2988C24.9971 23.4169 25.1213 23.5119 25.2614 23.577C25.4014 23.6422 25.554 23.6759 25.7085 23.6759C25.863 23.6759 26.0156 23.6422 26.1556 23.577C26.2957 23.5119 26.4199 23.4169 26.5195 23.2988C26.898 22.9302 27.2697 22.5549 27.6414 22.1761C28.182 21.6317 28.1786 21.0399 27.6414 20.4854C26.8506 19.6941 26.0565 18.9062 25.276 18.1183C24.7927 17.628 24.9381 16.9584 25.6139 16.7995C26.2319 16.631 26.8664 16.5301 27.5062 16.4985C28.5462 16.4836 29.5754 16.7109 30.5124 17.1624C31.4495 17.614 32.2689 18.2774 32.9057 19.1003C33.5425 19.9232 33.9794 20.8831 34.1818 21.904C34.3842 22.9249 34.3465 23.9789 34.0719 24.9828C34.0356 25.071 34.0285 25.1684 34.0516 25.2609C34.0747 25.3534 34.1268 25.4361 34.2003 25.4968C35.5519 26.8494 36.9036 28.202 38.2552 29.5546C38.3194 29.6155 38.387 29.6696 38.4478 29.7237C38.475 29.712 38.5001 29.696 38.5222 29.6764L46.1793 21.98C46.2976 21.8615 46.389 21.719 46.4473 21.562C46.5056 21.405 46.5294 21.2374 46.5172 21.0704C46.4848 20.5918 46.5909 20.114 46.8229 19.6942C47.0548 19.2743 47.4027 18.9303 47.825 18.7033C49.0719 17.9864 50.339 17.2966 51.5995 16.6C51.751 16.4948 51.9364 16.4504 52.1191 16.4755C52.3018 16.5005 52.4685 16.5932 52.5862 16.7352C52.9241 17.0531 53.2383 17.371 53.5526 17.7023C53.8669 18.0337 54.0662 18.284 54.3061 18.5985V18.9704C53.5796 20.2858 52.8565 21.6046 52.1232 22.9133C51.9054 23.3426 51.5689 23.7003 51.1537 23.9437C50.7385 24.1871 50.2622 24.306 49.7815 24.2862C49.5733 24.2749 49.3652 24.3089 49.1715 24.386C48.9778 24.4631 48.8032 24.5813 48.6596 24.7326C46.2041 27.1943 43.7452 29.6583 41.2829 32.1246C41.2052 32.2024 41.1343 32.2835 41.0498 32.3749C42.5028 33.8255 43.9356 35.2525 45.3616 36.6897C45.5069 36.8351 45.6319 36.7844 45.7806 36.7404C46.6389 36.5047 47.5354 36.4419 48.4181 36.5555C49.3008 36.6691 50.1523 36.957 50.923 37.4024C51.6937 37.8478 52.3684 38.4419 52.908 39.1502C53.4476 39.8585 53.8412 40.667 54.0662 41.5287C54.1676 41.9243 54.225 42.3369 54.3028 42.7393V43.6219C54.2014 44.1257 54.127 44.6363 53.9953 45.1368C53.7891 45.901 53.1572 46.0566 52.5963 45.4952C51.809 44.7107 51.0284 43.9228 50.2309 43.1282C50.1319 43.0101 50.0084 42.9153 49.8688 42.8501C49.7293 42.785 49.5772 42.7513 49.4233 42.7513C49.2693 42.7513 49.1173 42.785 48.9777 42.8501C48.8382 42.9153 48.7146 43.0101 48.6157 43.1282C48.2372 43.5001 47.8655 43.8755 47.4938 44.2508C47.3653 44.3511 47.2614 44.4793 47.1899 44.6258C47.1184 44.7723 47.0812 44.9332 47.0812 45.0962C47.0812 45.2592 47.1184 45.4201 47.1899 45.5666C47.2614 45.7131 47.3653 45.8414 47.4938 45.9416C48.2744 46.7295 49.0617 47.5106 49.8592 48.3087C50.3694 48.826 50.1971 49.4584 49.5213 49.6613C48.4568 49.9941 47.325 50.0489 46.2334 49.8202C45.3266 49.6376 44.4673 49.2693 43.7095 48.7386C42.9517 48.2078 42.3118 47.526 41.8298 46.736C41.3478 45.946 41.0342 45.0648 40.9087 44.1477C40.7832 43.2307 40.8485 42.2976 41.1005 41.4069C41.1298 41.332 41.1345 41.2496 41.1138 41.1717C41.0931 41.0939 41.0482 41.0247 40.9856 40.9741C40.624 40.636 40.2793 40.2708 39.9279 39.9191C39.4447 39.4389 38.9649 38.9553 38.431 38.421C38.3499 39.2597 37.8024 39.7365 37.2956 40.2403C34.367 43.1575 31.4508 46.078 28.547 49.0019C28.1189 49.5074 27.5583 49.8833 26.9284 50.0874ZM34.6598 33.4468L34.7139 33.5516C34.8231 33.7073 34.8687 33.8988 34.8411 34.087C34.8136 34.2752 34.7151 34.4457 34.5658 34.5634C34.4166 34.6812 34.2279 34.7373 34.0387 34.7202C33.8494 34.703 33.6738 34.614 33.5481 34.4714C33.4197 34.3531 33.298 34.2246 33.173 34.0994C33.1107 34.0101 33.0278 33.9372 32.9313 33.8869C32.8349 33.8365 32.7276 33.8102 32.6188 33.8102C32.51 33.8102 32.4028 33.8365 32.3063 33.8869C32.2098 33.9372 32.1269 34.0101 32.0647 34.0994C28.868 37.2916 25.6713 40.4894 22.4747 43.6929C22.3868 43.7554 22.3151 43.8381 22.2657 43.9339C22.2162 44.0298 22.1904 44.1362 22.1904 44.2441C22.1904 44.352 22.2162 44.4583 22.2657 44.5542C22.3151 44.6501 22.3868 44.7327 22.4747 44.7953L25.9957 48.3188C26.0581 48.4074 26.1409 48.4797 26.237 48.5297C26.3332 48.5796 26.4399 48.6056 26.5482 48.6056C26.6565 48.6056 26.7633 48.5796 26.8594 48.5297C26.9556 48.4797 27.0383 48.4074 27.1007 48.3188L36.6704 38.7457C37.0624 38.35 37.0624 38.0085 36.6704 37.6162C36.1602 37.0989 35.6567 36.6018 35.1295 36.0743C34.7612 35.7023 34.7274 35.2728 35.0417 34.9482C35.3559 34.6236 35.8087 34.6439 36.1906 35.026C36.5724 35.4081 36.934 35.7733 37.3598 36.2061C37.4916 36.0438 37.5929 35.9018 37.6977 35.7767C38.0356 35.4385 38.0356 35.1748 37.6977 34.84C37.2077 34.3463 36.6839 33.8729 36.2278 33.3623C35.5046 32.5405 35.2884 32.7198 34.6598 33.4468ZM22.4206 22.9302L22.3294 22.964C22.3564 23.3022 22.3496 23.6809 22.4105 24.0292C22.5299 24.7952 22.8185 25.525 23.2553 26.1653C23.6921 26.8056 24.2661 27.3404 24.9355 27.7307C25.6049 28.1211 26.3528 28.3571 27.1249 28.4217C27.8969 28.4862 28.6737 28.3777 29.3985 28.104C29.5825 28.0209 29.7886 28 29.9855 28.0446C30.1825 28.0891 30.3595 28.1966 30.49 28.3508C31.5882 29.4667 32.6999 30.5657 33.8049 31.6783C33.8741 31.7647 33.933 31.8589 33.9806 31.9589C34.768 31.2826 35.5418 31.1474 36.4001 31.5362C36.4389 31.5516 36.4808 31.5578 36.5224 31.5543C36.5641 31.5508 36.6043 31.5376 36.64 31.5159C36.8968 31.2995 37.1401 31.0628 37.424 30.8024L33.1156 26.5214C32.9804 26.6533 32.8655 26.7716 32.7405 26.8596C32.6012 26.9913 32.4163 27.0638 32.2247 27.0619C32.0331 27.06 31.8497 26.9838 31.7131 26.8493C31.5765 26.7148 31.4973 26.5325 31.4923 26.3408C31.4873 26.1491 31.5568 25.9629 31.6862 25.8214C31.8619 25.6185 32.0748 25.4461 32.2437 25.2398C32.3809 25.0893 32.4877 24.9136 32.558 24.7224C32.7617 24.0533 32.8291 23.3501 32.7563 22.6545C32.6835 21.9589 32.472 21.2849 32.1342 20.6725C31.7964 20.0602 31.3393 19.5219 30.7898 19.0896C30.2404 18.6572 29.6099 18.3396 28.9356 18.1555C28.3922 18.0019 27.8255 17.948 27.2629 17.9965C27.371 18.1149 27.4386 18.1893 27.5096 18.2603C27.9387 18.6965 28.3814 19.1192 28.8038 19.5622C29.2628 20.0308 29.5219 20.6596 29.5263 21.3158C29.5307 21.972 29.2801 22.6042 28.8274 23.079C28.3769 23.5659 27.9072 24.036 27.4183 24.4891C27.1515 24.7436 26.8303 24.934 26.479 25.0459C26.1277 25.1578 25.7556 25.1883 25.3909 25.135C24.8095 25.0668 24.2698 24.7991 23.8635 24.3775L22.4206 22.9302ZM47.8114 48.4778L47.8486 48.3628C47.3654 47.8826 46.872 47.4092 46.3922 46.9222C46.1472 46.6851 45.9525 46.4011 45.8194 46.0871C45.6864 45.7731 45.6178 45.4356 45.6178 45.0945C45.6178 44.7535 45.6864 44.4159 45.8194 44.1019C45.9525 43.7879 46.1472 43.5039 46.3922 43.2668C46.8045 42.8452 47.2223 42.427 47.6459 42.0122C47.8833 41.7714 48.1665 41.5805 48.4787 41.4507C48.7909 41.321 49.1259 41.2549 49.464 41.2565C49.8021 41.2581 50.1365 41.3272 50.4475 41.4599C50.7585 41.5926 51.0398 41.7861 51.2751 42.0292C51.6975 42.4451 52.1097 42.8678 52.5287 43.2837C52.5997 43.3547 52.674 43.419 52.8126 43.5441C52.8126 43.3547 52.8126 43.2465 52.8126 43.1383C52.7998 42.3055 52.5884 41.4878 52.196 40.7534C51.8035 40.0189 51.2414 39.3889 50.5564 38.9158C49.8714 38.4427 49.0834 38.1403 48.258 38.0336C47.4325 37.927 46.5936 38.0192 45.811 38.3027C45.6095 38.3933 45.3839 38.4156 45.1686 38.3662C44.9533 38.3168 44.76 38.1983 44.6182 38.0288C43.1719 36.5578 41.7053 35.1038 40.2455 33.6328C40.1678 33.555 40.0867 33.4806 39.982 33.3859C39.7387 33.6429 39.5089 33.8695 39.3061 34.1096C39.28 34.1418 39.2621 34.1798 39.2539 34.2204C39.2456 34.2611 39.2473 34.3031 39.2588 34.3429C39.4562 34.7235 39.5297 35.1562 39.4691 35.5807C39.4085 36.0051 39.2169 36.4 38.9209 36.71L42.1142 39.9055C42.2198 39.7634 42.3325 39.6269 42.4521 39.4964C42.5178 39.4168 42.5993 39.3518 42.6913 39.3053C42.7834 39.2588 42.8841 39.2318 42.987 39.2262C43.09 39.2206 43.193 39.2363 43.2896 39.2725C43.3862 39.3087 43.4742 39.3645 43.5482 39.4364C43.6221 39.5083 43.6804 39.5948 43.7194 39.6903C43.7583 39.7859 43.777 39.8885 43.7743 39.9916C43.7717 40.0948 43.7477 40.1963 43.7039 40.2897C43.6601 40.3832 43.5975 40.4665 43.5199 40.5345C43.3273 40.7374 43.1111 40.92 42.932 41.1364C42.7846 41.2977 42.6698 41.486 42.5941 41.691C42.3827 42.3821 42.3168 43.1096 42.4006 43.8275C42.4844 44.5454 42.716 45.2382 43.0809 45.862C43.4457 46.4857 43.9359 47.027 44.5204 47.4517C45.1049 47.8763 45.771 48.175 46.4767 48.329C46.8957 48.4203 47.3586 48.427 47.8114 48.4778ZM38.1843 33.1797C38.2546 33.0604 38.3348 32.9473 38.4242 32.8415C41.497 29.7778 44.5708 26.7074 47.6459 23.6302C47.9159 23.3416 48.2458 23.1158 48.6124 22.9685C48.9791 22.8213 49.3735 22.7563 49.768 22.778C49.9869 22.7936 50.2055 22.7429 50.3953 22.6325C50.5851 22.5222 50.7374 22.3573 50.8324 22.1592L52.4578 19.2207C52.5186 19.1158 52.5726 19.0076 52.6098 18.9366L51.863 18.1453C50.7614 18.7608 49.6632 19.3627 48.5717 19.9781C48.3854 20.0639 48.2295 20.2042 48.1245 20.3805C48.0196 20.5567 47.9705 20.7607 47.9838 20.9655C48.0064 21.3804 47.9363 21.7952 47.7784 22.1795C47.6206 22.5639 47.379 22.9081 47.0714 23.1872C44.0122 26.2351 40.9608 29.2864 37.9173 32.341C37.81 32.4294 37.6972 32.5107 37.5794 32.5845L38.1843 33.1797Z" fill="black"/>
<path d="M34.6599 33.4469C35.2884 32.7198 35.5046 32.5406 36.2481 33.3522C36.7178 33.8628 37.228 34.3362 37.718 34.8299C38.0559 35.1681 38.0559 35.4251 37.718 35.7666C37.5963 35.8917 37.495 36.0338 37.3801 36.1961C36.9543 35.7632 36.586 35.3879 36.2109 35.0159C35.8358 34.6439 35.383 34.6067 35.062 34.9381C34.741 35.2695 34.7815 35.6922 35.1498 36.0642C35.6635 36.5816 36.1636 37.0787 36.6907 37.6062C37.0793 37.9984 37.0793 38.34 36.6907 38.7356L27.1041 48.3088C27.0417 48.3974 26.959 48.4697 26.8628 48.5196C26.7667 48.5695 26.6599 48.5956 26.5516 48.5956C26.4433 48.5956 26.3366 48.5695 26.2404 48.5196C26.1443 48.4697 26.0615 48.3974 25.9991 48.3088L22.4781 44.7953C22.3902 44.7328 22.3185 44.6502 22.2691 44.5543C22.2196 44.4584 22.1938 44.352 22.1938 44.2441C22.1938 44.1362 22.2196 44.0299 22.2691 43.934C22.3185 43.8381 22.3902 43.7555 22.4781 43.693C25.6725 40.4895 28.868 37.2906 32.0647 34.0961C32.127 34.0068 32.2099 33.9339 32.3064 33.8836C32.4028 33.8332 32.51 33.8069 32.6189 33.8069C32.7277 33.8069 32.8349 33.8332 32.9314 33.8836C33.0279 33.9339 33.1108 34.0068 33.173 34.0961C33.2981 34.2212 33.4197 34.3497 33.5481 34.4681C33.6739 34.6107 33.8494 34.6997 34.0387 34.7169C34.228 34.734 34.4166 34.6779 34.5659 34.5601C34.7151 34.4424 34.8136 34.2719 34.8412 34.0837C34.8687 33.8955 34.8232 33.704 34.7139 33.5483L34.6599 33.4469ZM34.0381 39.7974C34.2744 39.5802 34.4558 39.3101 34.5674 39.0091C34.679 38.7081 34.7176 38.3849 34.6801 38.0661C34.6339 37.6441 34.4663 37.2447 34.1975 36.9164C33.9288 36.588 33.5705 36.3448 33.1663 36.2164C32.7835 36.0736 32.3663 36.0515 31.9706 36.1531C31.5749 36.2546 31.2198 36.475 30.9529 36.7845C29.6587 38.0864 28.3578 39.3781 27.0602 40.6766C26.8777 40.8592 26.6885 41.0351 26.5161 41.2312C26.414 41.3499 26.352 41.498 26.3393 41.6542C26.3265 41.8103 26.3636 41.9665 26.4452 42.1002C26.5247 42.2436 26.6509 42.3554 26.8028 42.417C26.9547 42.4785 27.123 42.4861 27.2798 42.4384C27.4513 42.3683 27.6057 42.2622 27.7326 42.1273C29.1586 40.7116 30.5824 39.2913 32.0039 37.8666C32.2978 37.5724 32.558 37.5284 32.8317 37.7178C32.9829 37.7998 33.097 37.9364 33.151 38.0998C33.205 38.2631 33.1947 38.4409 33.1224 38.597C33.1107 38.636 33.1077 38.6771 33.1136 38.7174C33.1194 38.7576 33.1339 38.7962 33.1561 38.8303C33.4332 39.1346 33.7238 39.4457 34.0381 39.7974ZM26.7256 47.1015L26.8574 46.9798C28.743 45.0974 30.6274 43.2116 32.5107 41.3225C32.5547 41.2785 32.5986 41.2346 32.6391 41.1872C32.7361 41.0646 32.7931 40.9151 32.8021 40.759C32.8112 40.6029 32.772 40.4478 32.6898 40.3148C32.6045 40.1765 32.4749 40.0712 32.3221 40.0159C32.1694 39.9606 32.0024 39.9587 31.8484 40.0104C31.6961 40.0732 31.5581 40.1664 31.4429 40.2844C29.5709 42.151 27.7 44.0221 25.8302 45.8977C25.7761 45.9518 25.7254 46.0161 25.6815 46.0668L26.7256 47.1015ZM24.2825 45.3634C24.419 45.3235 24.5472 45.2594 24.661 45.1741C25.2152 44.6465 25.7592 44.1055 26.2864 43.5509C26.4013 43.4087 26.4596 43.2289 26.45 43.0462C26.4404 42.8635 26.3636 42.6909 26.2343 42.5615C26.105 42.4321 25.9325 42.3552 25.7499 42.3456C25.5674 42.336 25.3877 42.3944 25.2456 42.5094C24.6846 43.0437 24.1372 43.5949 23.6033 44.1562C23.5079 44.2609 23.4477 44.393 23.4314 44.5338C23.415 44.6745 23.4432 44.8169 23.5121 44.9407C23.5818 45.0817 23.693 45.1978 23.8308 45.2734C23.9686 45.349 24.1263 45.3804 24.2825 45.3634Z" fill="#2AB46C"/>
<path d="M22.4203 22.9302L23.8599 24.3775C24.2661 24.7991 24.8059 25.0668 25.3872 25.135C25.752 25.1883 26.1241 25.1579 26.4754 25.046C26.8266 24.9341 27.1479 24.7436 27.4147 24.4891C27.9013 24.0382 28.371 23.5682 28.8238 23.079C29.2765 22.6043 29.5271 21.972 29.5227 21.3158C29.5183 20.6596 29.2592 20.0308 28.8002 19.5622C28.3845 19.1192 27.9385 18.6965 27.5093 18.2603C27.4384 18.1893 27.3708 18.1149 27.2626 17.9966C27.8252 17.948 28.3919 18.0019 28.9353 18.1555C29.6121 18.3387 30.2452 18.6563 30.7967 19.0895C31.3483 19.5227 31.807 20.0626 32.1457 20.6769C32.4844 21.2913 32.696 21.9676 32.7679 22.6655C32.8399 23.3635 32.7707 24.0687 32.5645 24.7394C32.4942 24.9305 32.3874 25.1062 32.2503 25.2567C32.0813 25.463 31.8684 25.6355 31.6927 25.8384C31.5633 25.9798 31.4938 26.166 31.4988 26.3577C31.5038 26.5494 31.583 26.7317 31.7196 26.8662C31.8562 27.0007 32.0396 27.0769 32.2312 27.0788C32.4228 27.0808 32.6077 27.0082 32.747 26.8765C32.872 26.7717 32.9869 26.6533 33.1221 26.5383L37.4237 30.8194C37.1399 31.0797 36.8966 31.3164 36.6398 31.5329C36.604 31.5546 36.5638 31.5677 36.5222 31.5712C36.4805 31.5747 36.4387 31.5686 36.3998 31.5532C35.5415 31.1643 34.7677 31.2995 33.9804 31.9758C33.9328 31.8758 33.8738 31.7817 33.8047 31.6952C32.6997 30.5827 31.5879 29.4837 30.4897 28.3677C30.3614 28.2107 30.1854 28.0999 29.9883 28.0522C29.7912 28.0046 29.584 28.0228 29.3983 28.104C28.6746 28.3777 27.8991 28.4867 27.1282 28.4231C26.3572 28.3596 25.61 28.125 24.9409 27.7364C24.2717 27.3479 23.6975 26.8151 23.2597 26.1768C22.822 25.5385 22.5318 24.8107 22.4102 24.0461C22.3494 23.708 22.3561 23.336 22.3291 22.9809L22.4203 22.9302Z" fill="white"/>
<path d="M47.8117 48.4778C47.3589 48.4271 46.896 48.4203 46.4601 48.3256C45.7544 48.1717 45.0882 47.8729 44.5037 47.4483C43.9192 47.0237 43.4291 46.4824 43.0642 45.8586C42.6994 45.2348 42.4677 44.5421 42.3839 43.8242C42.3001 43.1063 42.366 42.3788 42.5774 41.6876C42.6532 41.4827 42.7679 41.2943 42.9153 41.1331C43.0944 40.9166 43.3107 40.734 43.5033 40.5311C43.5809 40.4631 43.6435 40.3798 43.6873 40.2864C43.7311 40.1929 43.7551 40.0914 43.7577 39.9883C43.7604 39.8851 43.7416 39.7825 43.7027 39.687C43.6638 39.5914 43.6055 39.5049 43.5316 39.433C43.4576 39.3611 43.3695 39.3053 43.273 39.2692C43.1764 39.233 43.0734 39.2172 42.9704 39.2228C42.8674 39.2285 42.7667 39.2554 42.6747 39.3019C42.5826 39.3484 42.5012 39.4135 42.4355 39.493C42.3159 39.6235 42.2031 39.7601 42.0976 39.9022L38.9043 36.7066C39.2002 36.3966 39.3919 36.0017 39.4525 35.5773C39.5131 35.1529 39.4396 34.7201 39.2422 34.3395C39.2307 34.2997 39.229 34.2577 39.2372 34.2171C39.2455 34.1764 39.2634 34.1384 39.2895 34.1062C39.5024 33.8661 39.7322 33.6396 39.9653 33.3826C40.0701 33.4773 40.1512 33.5516 40.2289 33.6294C41.6887 35.0869 43.1553 36.5409 44.6015 38.0254C44.7434 38.1949 44.9367 38.3134 45.152 38.3628C45.3673 38.4123 45.5929 38.39 45.7944 38.2993C46.577 38.0159 47.4159 37.9236 48.2413 38.0303C49.0668 38.1369 49.8548 38.4394 50.5398 38.9124C51.2248 39.3855 51.7869 40.0155 52.1793 40.75C52.5718 41.4845 52.7832 42.3022 52.7959 43.1349C52.7959 43.2431 52.7959 43.3514 52.7959 43.5407C52.6574 43.4156 52.5831 43.3514 52.5121 43.2803C52.0931 42.8644 51.6808 42.4417 51.2584 42.0258C51.0232 41.7828 50.7418 41.5892 50.4308 41.4565C50.1198 41.3239 49.7855 41.2547 49.4474 41.2531C49.1093 41.2515 48.7743 41.3176 48.4621 41.4474C48.1499 41.5772 47.8667 41.7681 47.6292 42.0089C47.208 42.4214 46.7901 42.8396 46.3756 43.2634C46.1306 43.5006 45.9358 43.7846 45.8028 44.0986C45.6698 44.4125 45.6012 44.7501 45.6012 45.0912C45.6012 45.4322 45.6698 45.7698 45.8028 46.0838C45.9358 46.3978 46.1306 46.6818 46.3756 46.9189C46.8554 47.4058 47.3488 47.8792 47.832 48.3594L47.8117 48.4778Z" fill="white"/>
<path d="M38.1842 33.1797L37.5962 32.5947C37.7139 32.5209 37.8268 32.4396 37.9341 32.3512C40.9866 29.3011 44.038 26.2498 47.0882 23.1974C47.3942 22.9156 47.6333 22.569 47.7883 22.1829C47.9432 21.7967 48.01 21.3808 47.9837 20.9656C47.9633 20.7583 48.0071 20.5497 48.1093 20.3682C48.2115 20.1867 48.367 20.0411 48.5547 19.9511C49.6462 19.3357 50.7444 18.7338 51.846 18.1183L52.603 18.9366C52.5658 19.0077 52.5117 19.1159 52.4509 19.2207L50.8255 22.1593C50.7305 22.3573 50.5783 22.5222 50.3885 22.6326C50.1986 22.7429 49.9801 22.7936 49.7611 22.7781C49.3678 22.7573 48.9746 22.8228 48.6092 22.97C48.2439 23.1172 47.915 23.3425 47.6458 23.6302C44.582 26.7074 41.5126 29.7824 38.4376 32.8551C38.3442 32.956 38.2594 33.0646 38.1842 33.1797Z" fill="white"/>
<path d="M34.0382 39.7974C33.7239 39.4592 33.4333 39.1211 33.1562 38.8134C33.134 38.7793 33.1195 38.7407 33.1137 38.7004C33.1078 38.6601 33.1108 38.6191 33.1224 38.58C33.1948 38.424 33.2051 38.2462 33.1511 38.0829C33.0971 37.9195 32.9829 37.7829 32.8318 37.7008C32.5581 37.5115 32.2979 37.5554 32.0039 37.8496C30.5824 39.2699 29.1587 40.6901 27.7327 42.1104C27.6058 42.2453 27.4513 42.3514 27.2799 42.4215C27.1231 42.4691 26.9547 42.4616 26.8028 42.4C26.651 42.3385 26.5247 42.2267 26.4453 42.0833C26.3637 41.9496 26.3266 41.7934 26.3394 41.6372C26.3521 41.4811 26.414 41.333 26.5162 41.2143C26.6886 41.0181 26.8778 40.8423 27.0603 40.6597C28.3578 39.3612 29.6588 38.0694 30.953 36.7675C31.2199 36.458 31.575 36.2377 31.9707 36.1361C32.3663 36.0346 32.7836 36.0567 33.1664 36.1994C33.5706 36.3279 33.9289 36.5711 34.1976 36.8995C34.4663 37.2278 34.634 37.6272 34.6802 38.0491C34.7205 38.3707 34.6832 38.6972 34.5715 39.0014C34.4598 39.3055 34.2769 39.5785 34.0382 39.7974Z" fill="black"/>
<path d="M26.7258 47.1015L25.6816 46.0668C25.7256 46.0161 25.7763 45.9518 25.8303 45.8977C27.7024 44.0243 29.5733 42.1532 31.4431 40.2843C31.5582 40.1664 31.6962 40.0732 31.8486 40.0104C32.0026 39.9587 32.1695 39.9606 32.3223 40.0159C32.475 40.0711 32.6046 40.1765 32.69 40.3148C32.7721 40.4478 32.8114 40.6029 32.8023 40.759C32.7932 40.9151 32.7363 41.0646 32.6393 41.1872C32.5987 41.2346 32.5548 41.2785 32.5109 41.3225C30.6253 43.2094 28.7409 45.0951 26.8576 46.9798L26.7258 47.1015Z" fill="black"/>
<path d="M24.2824 45.3634C24.1262 45.3804 23.9685 45.349 23.8307 45.2734C23.693 45.1978 23.5817 45.0816 23.512 44.9407C23.4432 44.8168 23.4149 44.6745 23.4313 44.5337C23.4477 44.3929 23.5078 44.2609 23.6032 44.1562C24.1371 43.5948 24.6846 43.0436 25.2455 42.5093C25.3876 42.3943 25.5673 42.3359 25.7498 42.3456C25.9324 42.3552 26.1049 42.4321 26.2342 42.5614C26.3635 42.6908 26.4403 42.8635 26.4499 43.0462C26.4595 43.2289 26.4012 43.4086 26.2863 43.5509C25.7591 44.1054 25.2151 44.6465 24.6609 45.174C24.5471 45.2593 24.4189 45.3235 24.2824 45.3634Z" fill="black"/>
<path d="M19.1396 64.3237L0.780762 32.5L19.1396 0.6763H55.8607L74.2196 32.5L55.8607 64.3237H19.1396ZM52.5458 58.5751L67.583 32.5L52.5458 6.42492H22.4715L7.41401 32.5L22.4579 58.5751H52.5458Z" fill="#2AB46C"/>
<path d="M55.472 1.35262L73.4388 32.5L55.472 63.6474H19.5314L1.56116 32.5L19.5314 1.35262H55.472ZM22.0658 59.2514H52.9342L68.3668 32.5L52.9342 5.74862H22.0658L6.63325 32.5L22.0658 59.2514ZM56.2525 0H18.7441L18.3589 0.676308L0.388601 31.8237L0 32.5L0.388601 33.1763L18.3589 64.3237L18.7508 65H56.2593L56.6479 64.3237L74.6114 33.1763L75 32.5L74.6114 31.8237L56.6411 0.676308L56.2525 0ZM22.8464 7.10124H52.1536L66.809 32.5L52.1536 57.8988H22.8464L8.19441 32.5L22.8464 7.10124Z" fill="black"/>
</svg>
