<svg width="71" height="70" viewBox="0 0 71 70" fill="none" xmlns="http://www.w3.org/2000/svg">
<path d="M35.8348 69.3034C29.0468 69.3034 22.4111 67.2915 16.767 63.5222C11.1229 59.7529 6.72392 54.3955 4.12623 48.1274C1.52854 41.8593 0.848869 34.962 2.17316 28.3079C3.49745 21.6537 6.76622 15.5414 11.5661 10.744C16.366 5.94662 22.4815 2.67955 29.1391 1.35595C35.7968 0.0323517 42.6976 0.711671 48.969 3.308C55.2404 5.90434 60.6006 10.3011 64.3718 15.9422C68.1431 21.5834 70.156 28.2156 70.156 35.0001C70.1459 44.0948 66.5266 52.8141 60.0924 59.245C53.6581 65.6759 44.9343 69.2932 35.8348 69.3034ZM35.8348 6.47268C30.1896 6.47199 24.6709 8.14451 19.9766 11.2787C15.2824 14.4129 11.6236 18.8681 9.46272 24.0807C7.30189 29.2934 6.73616 35.0294 7.83707 40.5634C8.93799 46.0974 11.6561 51.1808 15.6477 55.1708C19.6393 59.1608 24.725 61.8781 30.2618 62.9791C35.7985 64.0801 41.5376 63.5154 46.7532 61.3563C51.9688 59.1973 56.4267 55.5408 59.5632 50.8494C62.6996 46.1581 64.3737 40.6424 64.3737 35.0001C64.3635 27.4379 61.3536 20.1882 56.0038 14.8406C50.6541 9.49296 43.401 6.48374 35.8348 6.47268Z" fill="#2AB46C"/>
<path d="M35.8356 1.39345C42.4859 1.39345 48.9867 3.36444 54.5162 7.05717C60.0456 10.7499 64.3553 15.9985 66.9002 22.1393C69.4452 28.2801 70.111 35.0373 68.8136 41.5563C67.5162 48.0753 64.3139 54.0634 59.6114 58.7634C54.909 63.4634 48.9178 66.6641 42.3954 67.9608C35.8729 69.2575 29.1123 68.592 22.9683 66.0484C16.8243 63.5048 11.5729 59.1974 7.87825 53.6708C4.18359 48.1442 2.21158 41.6467 2.21158 35C2.21158 26.087 5.7541 17.539 12.0598 11.2366C18.3656 4.93413 26.918 1.39345 35.8356 1.39345ZM35.8356 64.2206C41.6188 64.2206 47.2721 62.5066 52.0805 59.2952C56.889 56.0839 60.6367 51.5195 62.8496 46.1793C65.0626 40.8391 65.6414 34.9629 64.5129 29.2939C63.3844 23.6249 60.5993 18.4176 56.5098 14.3307C52.4202 10.2438 47.2099 7.4607 41.5378 6.33348C35.8657 5.20625 29.9865 5.78548 24.6438 7.99792C19.3011 10.2104 14.7347 13.9566 11.5223 18.763C8.30985 23.5693 6.59557 29.2199 6.59626 35C6.5958 38.8377 7.35182 42.638 8.82111 46.1836C10.2904 49.7292 12.4442 52.9508 15.1595 55.6644C17.8747 58.3779 21.0983 60.5302 24.6459 61.9983C28.1936 63.4664 31.9959 64.2216 35.8356 64.2206ZM35.8356 0C28.9097 0 22.1393 2.05271 16.3805 5.89856C10.6218 9.74441 6.13345 15.2107 3.483 21.6061C0.832556 28.0015 0.139078 35.0388 1.49026 41.8282C2.84145 48.6175 6.17661 54.8539 11.074 59.7487C15.9714 64.6436 22.211 67.977 29.0039 69.3275C35.7968 70.6779 42.8378 69.9848 49.2365 67.3358C55.6353 64.6867 61.1044 60.2007 64.9522 54.445C68.8001 48.6892 70.8539 41.9223 70.8539 35C70.8437 25.7205 67.1511 16.824 60.5861 10.2625C54.0211 3.70089 45.1199 0.010143 35.8356 0V0ZM35.8356 62.8272C30.3281 62.8279 24.944 61.1961 20.3644 58.1383C15.7847 55.0805 12.2152 50.734 10.1072 45.6485C7.99924 40.5629 7.44752 34.9668 8.52182 29.5679C9.59612 24.1689 12.2482 19.2096 16.1426 15.3172C20.0371 11.4248 24.9989 8.77415 30.4007 7.70041C35.8024 6.62667 41.4015 7.1781 46.4897 9.28497C51.5778 11.3918 55.9266 14.9595 58.986 19.5368C62.0454 24.114 63.678 29.4953 63.6774 35C63.6663 42.3768 60.7294 49.4484 55.5105 54.6646C50.2915 59.8808 43.2163 62.8161 35.8356 62.8272Z" fill="black"/>
<path d="M31.4686 48.6938C31.4686 49.0891 31.3929 49.4633 31.2415 49.8166C31.0901 50.1614 30.8756 50.4684 30.5981 50.7375C30.329 51.0067 30.001 51.2211 29.6141 51.3809C29.2356 51.5323 28.8109 51.608 28.3399 51.608C27.8689 51.608 27.4358 51.5365 27.0405 51.3935C26.6452 51.2506 26.3003 51.0403 26.006 50.7628C25.7116 50.4768 25.4803 50.1278 25.3121 49.7157C25.1523 49.2951 25.0724 48.8073 25.0724 48.2522C25.0724 47.4364 25.2028 46.6921 25.4635 46.0193C25.7242 45.338 26.0733 44.7493 26.5106 44.2531C26.9564 43.7484 27.4736 43.3405 28.0623 43.0293C28.6511 42.7182 29.2777 42.5163 29.9421 42.4238L30.3079 43.7989C29.8538 43.8662 29.4332 43.9965 29.0464 44.19C28.6679 44.375 28.3273 44.6021 28.0245 44.8712C27.7301 45.132 27.482 45.4263 27.2802 45.7543C27.0783 46.0739 26.9353 46.4019 26.8512 46.7384C27.0447 46.5281 27.2802 46.3473 27.5577 46.1959C27.8353 46.0361 28.1969 45.9562 28.6427 45.9562C29.0632 45.9562 29.4459 46.0193 29.7907 46.1454C30.1439 46.2716 30.4425 46.4524 30.6864 46.6879C30.9387 46.9234 31.1322 47.2093 31.2667 47.5458C31.4013 47.8822 31.4686 48.2649 31.4686 48.6938ZM29.7528 48.7695C29.7528 47.878 29.2524 47.4322 28.2516 47.4322C27.8815 47.4322 27.5703 47.5079 27.318 47.6593C27.0657 47.8023 26.8891 47.9747 26.7882 48.1765C26.7713 48.2691 26.7629 48.3405 26.7629 48.391C26.7629 48.4331 26.7629 48.4835 26.7629 48.5424C26.7629 48.7358 26.7924 48.9293 26.8512 49.1227C26.9185 49.3078 27.0152 49.476 27.1414 49.6274C27.2676 49.7787 27.4274 49.9007 27.6208 49.9932C27.8142 50.0857 28.0413 50.132 28.302 50.132C28.5123 50.132 28.7057 50.0983 28.8824 50.0311C29.059 49.9554 29.2104 49.8544 29.3365 49.7283C29.4711 49.6021 29.572 49.4591 29.6393 49.2993C29.715 49.1311 29.7528 48.9545 29.7528 48.7695ZM32.7153 47.0159H36.1594V48.5802H32.7153V47.0159ZM37.5676 49.2489C37.5676 48.9545 37.6096 48.6938 37.6937 48.4667C37.7778 48.2312 37.8956 48.021 38.047 47.8359C38.1984 47.6509 38.375 47.4869 38.5768 47.3439C38.7787 47.1925 39.0016 47.0537 39.2455 46.9276C38.7913 46.6669 38.4381 46.3683 38.1858 46.0319C37.9418 45.6955 37.8199 45.2749 37.8199 44.7703C37.8199 44.4507 37.883 44.1479 38.0091 43.862C38.1437 43.576 38.3329 43.3279 38.5768 43.1176C38.8292 42.899 39.1319 42.7308 39.4852 42.613C39.8468 42.4869 40.2547 42.4238 40.7089 42.4238C41.121 42.4238 41.4953 42.4785 41.8317 42.5878C42.1681 42.6887 42.4541 42.8359 42.6896 43.0293C42.9335 43.2144 43.1185 43.4415 43.2446 43.7106C43.3792 43.9713 43.4465 44.2573 43.4465 44.5685C43.4465 45.0647 43.3288 45.4852 43.0933 45.83C42.8662 46.1664 42.5129 46.4776 42.0335 46.7636C42.5718 47.058 42.9839 47.3776 43.2699 47.7224C43.5558 48.0672 43.6988 48.513 43.6988 49.0596C43.6988 49.4381 43.6231 49.7829 43.4717 50.0941C43.3203 50.4053 43.1059 50.6745 42.8283 50.9015C42.5592 51.1202 42.2312 51.2926 41.8443 51.4188C41.4658 51.5449 41.0453 51.608 40.5827 51.608C40.1286 51.608 39.7123 51.5491 39.3338 51.4314C38.9637 51.3221 38.6483 51.1623 38.3876 50.952C38.1269 50.7417 37.925 50.4936 37.782 50.2077C37.6391 49.9133 37.5676 49.5937 37.5676 49.2489ZM42.0083 49.0723C42.0083 48.8872 41.9536 48.719 41.8443 48.5676C41.7434 48.4162 41.6088 48.2775 41.4406 48.1513C41.2808 48.0252 41.1 47.9074 40.8981 47.7981C40.6963 47.6887 40.4944 47.5878 40.2926 47.4953C39.8721 47.714 39.5819 47.9537 39.4221 48.2144C39.2707 48.4751 39.195 48.7232 39.195 48.9587C39.195 49.2867 39.317 49.5643 39.5609 49.7914C39.8132 50.0184 40.1664 50.132 40.6206 50.132C41.0411 50.132 41.3775 50.0437 41.6298 49.867C41.8822 49.682 42.0083 49.4171 42.0083 49.0723ZM39.5104 44.7955C39.5104 44.9974 39.5525 45.174 39.6366 45.3254C39.7291 45.4768 39.8468 45.6114 39.9898 45.7291C40.1328 45.8384 40.2926 45.9394 40.4692 46.0319C40.6542 46.1244 40.8435 46.2127 41.0369 46.2968C41.5668 45.8763 41.8317 45.4179 41.8317 44.9217C41.8317 44.5853 41.7181 44.333 41.4911 44.1648C41.264 43.9881 40.9906 43.8998 40.671 43.8998C40.2673 43.8998 39.973 43.9881 39.7879 44.1648C39.6029 44.3414 39.5104 44.5516 39.5104 44.7955Z" fill="black"/>
<path d="M31.8593 56.191L31.9046 55.4211H31.8175L31.5003 56.0133L30.5384 57.4416H30.3153L29.2941 56.0133L29.0048 55.4211H28.9246L28.9909 56.184V58.3264H28.3774V54.5537H29.0745L30.2038 56.2119L30.4756 56.7379L30.7754 56.198L31.821 54.5537H32.5181V58.3264H31.8558L31.8593 56.191Z" fill="black"/>
<path d="M36.8602 58.0163C36.6708 58.1531 36.4583 58.2545 36.2329 58.3159C35.9689 58.3919 35.6954 58.4294 35.4208 58.4274C35.1401 58.4345 34.8608 58.3872 34.5982 58.2881C34.3774 58.2039 34.181 58.0663 34.0266 57.8874C33.8649 57.7085 33.7457 57.4953 33.6781 57.2639C33.6052 56.9938 33.5723 56.7144 33.5805 56.4348C33.5422 55.8971 33.7133 55.3654 34.058 54.9508C34.2358 54.7738 34.4493 54.6365 34.6843 54.5483C34.9192 54.46 35.1703 54.4226 35.4208 54.4387C35.6093 54.4394 35.7973 54.4593 35.9819 54.4979C36.1649 54.5376 36.3372 54.616 36.4873 54.7278C36.6372 54.8538 36.7564 55.0123 36.8358 55.1911C36.9382 55.4345 36.9858 55.6973 36.9753 55.961C36.9753 56.0377 36.9753 56.1282 36.9753 56.2293C36.9715 56.3272 36.9622 56.4249 36.9474 56.5219H34.2775C34.2586 56.8825 34.3713 57.2378 34.5947 57.5217C34.7315 57.6494 34.894 57.7466 35.0712 57.8066C35.2485 57.8667 35.4366 57.8883 35.6229 57.87C35.8194 57.871 36.0144 57.8356 36.198 57.7655C36.3547 57.7119 36.4992 57.6279 36.6232 57.5182L36.8602 58.0163ZM36.3688 56.0551C36.3885 55.911 36.3779 55.7644 36.3377 55.6246C36.2975 55.4848 36.2286 55.355 36.1353 55.2434C36.0406 55.1596 35.9303 55.0955 35.8106 55.0548C35.6909 55.0142 35.5643 54.9977 35.4382 55.0065C35.1526 54.9898 34.8702 55.0736 34.64 55.2434C34.5303 55.3483 34.4429 55.4743 34.383 55.6137C34.3231 55.7532 34.292 55.9033 34.2915 56.0551H36.3688Z" fill="black"/>
<path d="M40.8579 58.0684C40.6795 58.1928 40.4799 58.2837 40.2689 58.3367C40.0416 58.3978 39.8071 58.4283 39.5718 58.4272C39.2954 58.4341 39.0204 58.3855 38.7631 58.2844C38.5514 58.1964 38.3646 58.0576 38.2194 57.8803C38.0741 57.697 37.9706 57.4842 37.9161 57.2567C37.8507 56.99 37.8191 56.7162 37.822 56.4416C37.789 55.9089 37.9541 55.3829 38.2856 54.9645C38.4571 54.7864 38.6653 54.6477 38.8959 54.558C39.1264 54.4684 39.3737 54.43 39.6206 54.4455C39.8431 54.4415 40.0654 54.4637 40.2828 54.5117C40.4561 54.5532 40.6252 54.6104 40.7882 54.6824L40.6139 55.2223C40.4821 55.1508 40.3415 55.0969 40.1957 55.0621C40.036 55.0231 39.872 55.0043 39.7077 55.0063C38.9293 55.0063 38.5412 55.4848 38.5435 56.4416C38.5429 56.62 38.564 56.7978 38.6063 56.9711C38.645 57.1345 38.7161 57.2885 38.8154 57.4239C38.9124 57.5589 39.0403 57.6688 39.1883 57.7444C39.3653 57.8297 39.5601 57.8715 39.7565 57.8664C39.9355 57.8701 40.1138 57.8418 40.2828 57.7828C40.4177 57.7378 40.5447 57.6719 40.6592 57.5877L40.8579 58.0684Z" fill="black"/>
<path d="M44.3472 55.1146H43.0401V58.3264H42.3779V55.1146H41.0674V54.5537H44.3472V55.1146Z" fill="black"/>
<path d="M38.0659 32.1157H37.7627C37.6616 32.6312 37.564 33.1608 37.4664 33.6519C37.2085 34.9722 36.961 36.296 36.6961 37.6128C36.5947 38.0924 36.3093 38.5131 35.9012 38.7849C35.4931 39.0566 34.9947 39.1578 34.5129 39.0667C34.031 38.9755 33.6041 38.6994 33.3235 38.2974C33.043 37.8954 32.9311 37.3995 33.012 36.9161C33.4767 34.3614 33.9415 31.8184 34.4062 29.287C34.4861 28.8452 34.7201 28.446 35.0666 28.1603C35.4131 27.8746 35.8496 27.7208 36.2988 27.7263H39.1569C39.2579 27.2665 39.3625 26.8171 39.4636 26.3642C39.7494 25.0927 40.0282 23.8177 40.3245 22.5323C40.482 21.9182 40.8443 21.3761 41.3516 20.9955C41.8589 20.6149 42.4808 20.4186 43.1148 20.4389C43.7487 20.4592 44.3568 20.6949 44.8387 21.1072C45.3206 21.5194 45.6474 22.0835 45.7653 22.7064C45.8434 23.1652 45.816 23.6358 45.6851 24.0825C45.1274 26.1482 44.5837 28.221 44.026 30.2868C43.9406 30.5506 43.8417 30.8099 43.7298 31.0636C43.9388 31.0651 44.1475 31.0488 44.3537 31.0148C44.4852 30.9777 44.6029 30.9028 44.6921 30.7993C44.7813 30.6959 44.8382 30.5686 44.8556 30.4331C45.1414 29.1267 45.4342 27.8204 45.72 26.514C46.2149 24.2752 46.7087 22.0341 47.2013 19.7906C47.2571 19.4806 47.3756 19.1853 47.5495 18.9226C47.7234 18.6599 47.9491 18.4354 48.2128 18.2629C48.4765 18.0903 48.7726 17.9734 49.083 17.9191C49.3934 17.8648 49.7117 17.8743 50.0183 17.9472C50.3249 18.02 50.6134 18.1545 50.8663 18.3426C51.1191 18.5306 51.3309 18.7682 51.4887 19.0409C51.6465 19.3135 51.7471 19.6155 51.7842 19.9283C51.8213 20.2411 51.7942 20.5581 51.7045 20.8601C50.5427 25.2355 49.3809 29.6098 48.219 33.9829C48.1403 34.3523 47.9334 34.6819 47.6348 34.9133C47.3363 35.1448 46.9654 35.2631 46.5879 35.2474H46.4763V40.4485H48.5362C48.6114 40.4399 48.6875 40.4472 48.7596 40.4701C48.8317 40.493 48.8981 40.5308 48.9546 40.5811C49.011 40.6314 49.0562 40.6931 49.0871 40.7621C49.1181 40.8311 49.134 40.9059 49.134 40.9815C49.134 41.0571 49.1181 41.1318 49.0871 41.2008C49.0562 41.2698 49.011 41.3315 48.9546 41.3818C48.8981 41.4321 48.8317 41.47 48.7596 41.4928C48.6875 41.5157 48.6114 41.5231 48.5362 41.5145C48.4212 41.5145 48.3062 41.5145 48.1877 41.5145H20.5097C20.3982 41.5145 20.2901 41.5145 20.1611 41.5145C20.0275 41.501 19.9039 41.4376 19.815 41.3371C19.7261 41.2365 19.6784 41.1061 19.6815 40.9719C19.6846 40.8378 19.7382 40.7097 19.8316 40.6133C19.9251 40.5169 20.0515 40.4593 20.1855 40.452H24.0614V35.2544C23.682 35.2792 23.3029 35.2017 22.9637 35.03C22.6245 34.8582 22.3377 34.5986 22.1332 34.2782C21.9288 33.9578 21.8142 33.5884 21.8014 33.2086C21.7887 32.8288 21.8782 32.4525 22.0607 32.1192C21.7854 32.0808 21.7819 32.0808 21.7331 32.3317C21.402 34.0491 21.0674 35.7665 20.7397 37.4839C20.68 37.9026 20.481 38.289 20.175 38.581C19.8689 38.873 19.4735 39.0536 19.0523 39.0938C18.6311 39.134 18.2086 39.0314 17.8528 38.8026C17.4969 38.5738 17.2284 38.2321 17.0905 37.8323C16.979 37.4205 16.979 36.9865 17.0905 36.5747C17.5552 34.1547 18.0048 31.7325 18.4393 29.3079C18.5111 28.8515 18.7467 28.4368 19.102 28.1412C19.4574 27.8457 19.9082 27.6896 20.3703 27.7019H22.96C23.1063 27.7019 23.1691 27.6741 23.2039 27.5173C23.5525 25.8591 23.9429 24.2044 24.3158 22.5462C24.4754 21.9371 24.8367 21.3999 25.3408 21.0223C25.8449 20.6446 26.4622 20.4487 27.0919 20.4665C27.7216 20.4843 28.3268 20.7147 28.8088 21.1202C29.2908 21.5256 29.6212 22.0823 29.7461 22.6995C29.8254 23.1569 29.7991 23.6263 29.6695 24.072C29.1153 26.1448 28.5681 28.2175 28.0034 30.3077C27.9211 30.5632 27.8257 30.8144 27.7176 31.0601C28.0038 31.1074 28.2976 31.0597 28.5541 30.9243C28.7113 30.7982 28.8157 30.6181 28.8469 30.4192C29.2861 28.4126 29.7275 26.4083 30.1714 24.4064C30.5199 22.8423 30.8685 21.2712 31.217 19.7175C31.282 19.4148 31.407 19.1282 31.5848 18.8747C31.7626 18.6212 31.9896 18.406 32.2521 18.2417C32.5147 18.0775 32.8076 17.9676 33.1134 17.9186C33.4192 17.8696 33.7318 17.8824 34.0326 17.9563C34.3334 18.0303 34.6162 18.1638 34.8644 18.349C35.1126 18.5342 35.3211 18.7673 35.4775 19.0345C35.6339 19.3018 35.7351 19.5976 35.775 19.9046C35.8148 20.2116 35.7927 20.5235 35.7097 20.8218C34.8732 23.9989 34.0286 27.1747 33.1758 30.3495C32.8621 31.5339 32.5415 32.7218 32.2278 33.9097C32.1623 34.3021 31.9544 34.6566 31.6438 34.9053C31.3332 35.1541 30.9417 35.2796 30.5443 35.2579H30.4607V40.4415H40.0701V35.2509C39.6903 35.2769 39.3105 35.2001 38.9707 35.0287C38.6308 34.8573 38.3434 34.5975 38.1387 34.2767C37.9341 33.956 37.8196 33.586 37.8074 33.2057C37.7952 32.8254 37.8857 32.4489 38.0694 32.1157H38.0659ZM23.5664 31.0323C24.2635 31.0323 24.9955 31.0323 25.71 31.0323C25.9925 31.0322 26.2672 30.94 26.4925 30.7696C26.7177 30.5992 26.8811 30.3599 26.9578 30.0882C27.534 27.9446 28.1045 25.801 28.6691 23.6575C28.728 23.4368 28.7422 23.2067 28.7109 22.9805C28.6795 22.7543 28.6033 22.5367 28.4866 22.3403C28.3699 22.144 28.2152 21.973 28.0314 21.8373C27.8477 21.7016 27.6387 21.6039 27.4167 21.5501C27.1946 21.4962 26.9641 21.4872 26.7386 21.5237C26.513 21.5601 26.297 21.6413 26.1033 21.7623C25.9096 21.8833 25.742 22.0418 25.6104 22.2285C25.4788 22.4151 25.3859 22.6262 25.337 22.8493C24.9304 24.6491 24.5249 26.449 24.1206 28.2489C24.0265 28.6599 23.8697 28.7853 23.4479 28.7853H20.3947C20.17 28.765 19.9465 28.8347 19.7733 28.9791C19.6001 29.1235 19.4914 29.3307 19.471 29.5552C19.0621 31.7661 18.6531 33.9724 18.2441 36.1741C18.1884 36.4667 18.1291 36.7558 18.0803 37.0485C18.0579 37.1539 18.0568 37.2629 18.0772 37.3688C18.0975 37.4747 18.1388 37.5754 18.1987 37.6651C18.2586 37.7548 18.3359 37.8316 18.426 37.891C18.516 37.9504 18.6171 37.9912 18.7231 38.0109C18.8292 38.0307 18.9381 38.029 19.0436 38.0061C19.149 37.9831 19.2487 37.9393 19.3369 37.8772C19.4251 37.8151 19.5 37.736 19.5572 37.6445C19.6143 37.553 19.6526 37.451 19.6697 37.3446C19.6697 37.3028 19.6697 37.2575 19.6976 37.2122C20.0601 35.3194 20.4249 33.4255 20.792 31.5304C20.7966 31.4544 20.8168 31.3801 20.8515 31.3122C20.8861 31.2443 20.9343 31.1843 20.9932 31.1359C21.0521 31.0875 21.1203 31.0518 21.1937 31.031C21.267 31.0101 21.3438 31.0046 21.4194 31.0148L23.5664 31.0323ZM39.5542 31.0323C40.2513 31.0323 40.9832 31.0323 41.6978 31.0323C41.9907 31.0343 42.2758 30.9373 42.5067 30.7571C42.7376 30.5769 42.9008 30.324 42.97 30.0394L43.4928 28.0851C43.8866 26.6011 44.2909 25.1171 44.6743 23.6296C44.7356 23.4074 44.7514 23.1752 44.7209 22.9468C44.6903 22.7185 44.614 22.4986 44.4964 22.3003C44.3789 22.1021 44.2226 21.9296 44.0368 21.7931C43.8511 21.6566 43.6397 21.559 43.4153 21.506C43.1909 21.4531 42.9582 21.4459 42.7309 21.4849C42.5037 21.5239 42.2867 21.6083 42.0928 21.733C41.899 21.8578 41.7323 22.0203 41.6027 22.2109C41.4732 22.4015 41.3834 22.6162 41.3388 22.8423C40.9298 24.6468 40.5232 26.4525 40.1188 28.2593C40.1146 28.3391 40.0935 28.4172 40.0569 28.4882C40.0202 28.5592 39.9689 28.6217 39.9063 28.6714C39.8437 28.7212 39.7712 28.757 39.6937 28.7767C39.6162 28.7963 39.5354 28.7993 39.4566 28.7853H36.3685C36.1472 28.766 35.9273 28.835 35.7568 28.9773C35.5863 29.1197 35.4792 29.3237 35.4588 29.5448L35.281 30.5132C34.886 32.6986 34.4875 34.8793 34.0855 37.0554C34.0635 37.1603 34.0626 37.2685 34.083 37.3737C34.1034 37.479 34.1446 37.579 34.2041 37.6681C34.2637 37.7572 34.3405 37.8335 34.43 37.8925C34.5195 37.9516 34.6199 37.9921 34.7253 38.0118C34.8307 38.0316 34.939 38.03 35.0438 38.0074C35.1486 37.9847 35.2478 37.9414 35.3356 37.8798C35.4234 37.8183 35.498 37.7399 35.5551 37.6492C35.6121 37.5585 35.6505 37.4573 35.6679 37.3515C36.042 35.4356 36.4138 33.5172 36.7833 31.5966C36.8634 31.1751 37.0273 31.0323 37.449 31.0323H39.5542ZM43.2139 34.1675H46.5007C46.9225 34.1675 47.0723 34.0491 47.1978 33.638C47.8949 31.0508 48.5839 28.4602 49.2647 25.8661C49.7294 24.0941 50.1941 22.3232 50.6589 20.5536C50.7135 20.341 50.7105 20.1177 50.6503 19.9067C50.5901 19.6956 50.4748 19.5044 50.3162 19.3526C50.1576 19.2009 49.9614 19.094 49.7478 19.043C49.5343 18.9921 49.311 18.9988 49.1009 19.0626C48.875 19.1289 48.6724 19.2576 48.5164 19.4338C48.3604 19.6101 48.2574 19.8267 48.219 20.0589C47.4453 23.582 46.6692 27.1039 45.8908 30.6247C45.8208 31.0586 45.5927 31.4514 45.2504 31.7273C44.908 32.0032 44.4756 32.1428 44.0365 32.1192H39.9655C39.8244 32.113 39.6836 32.1355 39.5514 32.1853C39.4193 32.2351 39.2986 32.3111 39.1966 32.4088C39.0947 32.5064 39.0136 32.6237 38.9582 32.7536C38.9029 32.8834 38.8744 33.0231 38.8745 33.1642C38.8742 33.3047 38.9028 33.4437 38.9587 33.5725C39.0145 33.7014 39.0963 33.8173 39.1991 33.9131C39.3018 34.0089 39.4232 34.0825 39.5557 34.1293C39.6881 34.1761 39.8288 34.195 39.969 34.1849L43.2139 34.1675ZM27.2296 34.1675H30.5164C30.5934 34.1803 30.6722 34.1772 30.748 34.1584C30.8237 34.1395 30.8948 34.1054 30.9568 34.0581C31.0189 34.0108 31.0706 33.9512 31.1087 33.8832C31.1469 33.8151 31.1707 33.74 31.1787 33.6624C31.7131 31.6489 32.2487 29.6365 32.7855 27.6253L34.6467 20.6337C34.684 20.4736 34.6894 20.3077 34.6625 20.1455C34.6357 19.9833 34.5771 19.828 34.4902 19.6884C34.4033 19.5488 34.2898 19.4277 34.1561 19.332C34.0223 19.2362 33.871 19.1678 33.7108 19.1305C33.5506 19.0932 33.3847 19.0878 33.2224 19.1147C33.0601 19.1415 32.9047 19.2 32.765 19.2869C32.6254 19.3737 32.5042 19.4872 32.4084 19.6209C32.3127 19.7545 32.2442 19.9057 32.2069 20.0659C31.4447 23.5936 30.6744 27.1237 29.896 30.656C29.8223 31.0865 29.5932 31.475 29.2521 31.7478C28.911 32.0207 28.4816 32.159 28.0452 32.1366C26.6929 32.1366 25.3405 32.1366 23.9882 32.1366C23.8217 32.1372 23.6566 32.1667 23.5002 32.2237C23.2798 32.3141 23.0979 32.4787 22.9861 32.689C22.8743 32.8993 22.8396 33.1421 22.888 33.3752C22.9364 33.6084 23.0649 33.8174 23.2511 33.9659C23.4374 34.1144 23.6698 34.1931 23.908 34.1884C25.0164 34.178 26.1213 34.1745 27.2296 34.1745V34.1675ZM29.3593 35.2579H25.1767V40.445H29.3593V35.2579ZM41.161 35.2579V40.4415H45.3435V35.2579H41.161Z" fill="black" stroke="black" stroke-width="0.16174" stroke-miterlimit="10"/>
<path d="M41.4399 17.0211C41.4399 16.4342 41.614 15.8605 41.9402 15.3724C42.2663 14.8844 42.7299 14.504 43.2723 14.2792C43.8147 14.0545 44.4116 13.9955 44.9875 14.1098C45.5635 14.224 46.0926 14.5063 46.508 14.9211C46.9235 15.3358 47.2066 15.8644 47.3215 16.4399C47.4365 17.0154 47.3782 17.6121 47.154 18.1545C46.9298 18.6969 46.5497 19.1607 46.0618 19.4872C45.5739 19.8138 45.0001 19.9884 44.413 19.9891C44.0227 19.9896 43.6362 19.9132 43.2755 19.7642C42.9148 19.6152 42.587 19.3967 42.3109 19.121C42.0348 18.8454 41.8158 18.518 41.6663 18.1577C41.5169 17.7974 41.4399 17.4111 41.4399 17.0211ZM46.3195 17.0211C46.3222 16.6448 46.2131 16.2762 46.0059 15.9621C45.7987 15.648 45.5028 15.4025 45.1558 15.2567C44.8087 15.111 44.4262 15.0716 44.0567 15.1436C43.6872 15.2155 43.3475 15.3956 43.0805 15.6609C42.8136 15.9262 42.6316 16.2648 42.5576 16.6337C42.4835 17.0026 42.5208 17.3852 42.6647 17.7328C42.8086 18.0805 43.0526 18.3776 43.3657 18.5864C43.6788 18.7953 44.047 18.9064 44.4234 18.9057C44.92 18.9012 45.395 18.7025 45.7468 18.3522C46.0986 18.0019 46.2992 17.5278 46.3055 17.0315L46.3195 17.0211Z" fill="black" stroke="black" stroke-width="0.16174" stroke-miterlimit="10"/>
<path d="M28.4145 14.0565C29.0018 14.0572 29.5758 14.232 30.0637 14.5587C30.5517 14.8854 30.9318 15.3494 31.1559 15.892C31.38 16.4346 31.4381 17.0314 31.3229 17.6071C31.2076 18.1827 30.9242 18.7112 30.5084 19.1258C30.0926 19.5404 29.5631 19.8225 28.9869 19.9363C28.4108 20.0502 27.8137 19.9907 27.2714 19.7654C26.729 19.5401 26.2657 19.1592 25.9399 18.6707C25.6142 18.1822 25.4407 17.6082 25.4414 17.0211C25.4409 16.6311 25.5176 16.2448 25.6669 15.8845C25.8163 15.5241 26.0353 15.1968 26.3116 14.9213C26.5879 14.6459 26.9159 14.4277 27.2767 14.2793C27.6376 14.1309 28.0243 14.0552 28.4145 14.0565ZM28.4145 18.9162C28.9038 18.8953 29.366 18.6863 29.7048 18.3328C30.0436 17.9794 30.2327 17.5088 30.2327 17.0194C30.2327 16.5299 30.0436 16.0594 29.7048 15.7059C29.366 15.3525 28.9038 15.1435 28.4145 15.1225C28.1584 15.1116 27.9028 15.1525 27.663 15.2429C27.4231 15.3333 27.2041 15.4712 27.019 15.6484C26.834 15.8256 26.6867 16.0385 26.5861 16.2741C26.4854 16.5097 26.4336 16.7632 26.4336 17.0194C26.4336 17.2756 26.4854 17.5291 26.5861 17.7647C26.6867 18.0003 26.834 18.2131 27.019 18.3903C27.2041 18.5676 27.4231 18.7055 27.663 18.7959C27.9028 18.8863 28.1584 18.9272 28.4145 18.9162Z" fill="black" stroke="black" stroke-width="0.16174" stroke-miterlimit="10"/>
</svg>
