<svg width="69" height="68" viewBox="0 0 69 68" fill="none" xmlns="http://www.w3.org/2000/svg">
<path d="M68.5022 66.0119V68H0.466797V0H68.5022V24.3908C67.8934 23.0487 66.5965 23.7573 65.6457 23.4655C65.8526 21.9283 65.7403 20.365 65.3158 18.8731C64.8913 17.3812 64.1637 15.9928 63.1784 14.7944C62.1931 13.5961 60.9713 12.6136 59.5891 11.9083C58.207 11.203 56.6943 10.7899 55.1453 10.6949C53.6638 10.5846 52.1754 10.7772 50.7709 11.2609C49.3663 11.7446 48.0751 12.5093 46.9761 13.5083C44.0153 16.1675 42.806 19.5268 43.248 23.4822H22.4391C22.6101 23.2071 22.7435 23.0071 22.8561 22.7987C23.8153 21.0856 24.8244 19.3976 25.7085 17.6471C26.4758 16.1299 27.118 14.5253 27.1097 12.7873C27.0846 8.15667 25.0246 4.63892 20.9004 2.55078C16.7761 0.462642 12.7144 0.883604 8.97383 3.62611C5.52514 6.12688 3.11065 11.3576 5.3917 16.3759C6.40087 18.5974 7.66441 20.7022 8.81536 22.8612C8.91962 23.0571 9.04055 23.2488 9.20735 23.5364H2.25995C0.94636 23.5364 0.5919 23.8823 0.5919 25.1702V65.1825C0.5919 66.4329 0.94219 66.808 2.19322 66.808C23.7666 66.808 45.3358 66.808 66.9009 66.808C67.2167 66.849 67.5376 66.7952 67.8227 66.6534C68.1079 66.5117 68.3444 66.2884 68.5022 66.0119Z" fill="white"/>
<path d="M68.5016 66.0119C68.3497 66.2939 68.1168 66.5239 67.8329 66.6725C67.549 66.8211 67.2271 66.8813 66.9087 66.8455C45.3408 66.8455 23.7716 66.8455 2.20094 66.8455C0.949899 66.8455 0.599609 66.487 0.599609 65.22V25.2077C0.599609 23.9198 0.945729 23.5781 2.26766 23.5739H9.22342C9.05661 23.2863 8.93568 23.0946 8.83142 22.8987C7.68047 20.7397 6.41693 18.6349 5.40776 16.4134C3.1267 11.4118 5.5412 6.17691 8.98989 3.66364C12.743 0.937803 16.7922 0.496001 20.9164 2.58831C25.0407 4.68062 27.0882 8.15668 27.1132 12.7873C27.1132 14.5253 26.4794 16.1216 25.7121 17.6471C24.828 19.3976 23.8188 21.0856 22.8597 22.7987C22.7429 23.0071 22.6095 23.2155 22.4427 23.4822H43.2516C42.7929 19.5268 44.0189 16.1675 46.9797 13.5083C48.0787 12.5093 49.3699 11.7446 50.7745 11.2609C52.179 10.7772 53.6674 10.5846 55.1489 10.695C56.6975 10.7905 58.2098 11.2039 59.5914 11.9095C60.9731 12.6151 62.1944 13.5976 63.1793 14.7959C64.1641 15.9942 64.8914 17.3824 65.3156 18.874C65.7399 20.3657 65.852 21.9287 65.6451 23.4655C66.5959 23.7573 67.8928 23.0487 68.5016 24.3908V66.0119ZM2.96824 64.4448C3.2101 64.4448 3.38525 64.4906 3.55205 64.4906H39.7487C39.8934 64.5076 40.0397 64.4758 40.1643 64.4003C40.289 64.3248 40.3848 64.2099 40.4368 64.0738C41.2082 62.6609 42.0339 61.2771 42.8804 59.9059C42.9596 59.7673 43.0664 59.6465 43.1942 59.551C43.3221 59.4555 43.4682 59.3873 43.6236 59.3506C43.7789 59.314 43.9402 59.3097 44.0973 59.338C44.2544 59.3663 44.4039 59.4266 44.5367 59.5151C44.6695 59.6037 44.7826 59.7186 44.869 59.8527C44.9555 59.9869 45.0133 60.1374 45.0391 60.2948C45.0648 60.4523 45.0579 60.6133 45.0187 60.768C44.9795 60.9226 44.9089 61.0676 44.8112 61.1938C44.5944 61.5564 44.3483 61.8981 44.1315 62.2566C43.7145 62.961 43.2975 63.6737 42.8429 64.4573H66.1038V48.5732C65.0238 48.6691 63.9979 48.7525 62.9721 48.865C62.8102 48.8977 62.6434 48.8981 62.4814 48.8661C62.3194 48.834 62.1653 48.7703 62.0281 48.6784C61.8908 48.5866 61.7732 48.4685 61.6818 48.331C61.5905 48.1935 61.5273 48.0392 61.4959 47.8772C61.4761 47.7117 61.4911 47.544 61.5399 47.3847C61.5887 47.2253 61.6704 47.078 61.7795 46.952C61.8886 46.8261 62.0229 46.7243 62.1737 46.6532C62.3245 46.5821 62.4885 46.5433 62.6551 46.5393C63.8103 46.4059 64.9654 46.3142 66.1455 46.2017C66.1455 44.8638 66.1455 43.5592 66.1455 42.2588C66.1249 42.1529 66.0794 42.0534 66.0126 41.9687C65.9459 41.8839 65.86 41.8162 65.7619 41.7711C62.6385 40.7375 59.4483 40.104 56.1372 40.2999C55.8461 40.3444 55.5755 40.4768 55.3616 40.6791C55.1703 40.8795 54.9179 41.0107 54.6439 41.0522C54.3699 41.0937 54.0899 41.0431 53.8479 40.9084C53.6264 40.8008 53.3751 40.7714 53.1348 40.825C51.2013 41.3499 49.5096 42.5282 48.3475 44.1594C46.2014 47.2092 43.4958 49.8243 40.3742 51.8659C34.1983 55.8338 27.6887 57.0467 20.7371 54.0541C18.2893 52.9954 15.8873 51.8242 13.4477 50.7447C10.2785 49.3443 7.01742 48.9233 3.63129 49.9111C3.11836 50.057 2.93488 50.2487 2.93905 50.8031C2.96824 55.1127 2.96824 59.4391 2.96824 63.7696V64.4448ZM51.9254 38.6035C51.0914 37.4573 50.2574 36.282 49.39 35.1108C48.9438 34.4939 48.5935 33.5936 47.993 33.3602C47.3925 33.1268 46.4459 33.4853 45.6619 33.602C42.7428 34.0188 40.0323 35.0608 37.2675 35.9735C33.5435 37.2239 29.7612 38.1534 25.783 37.9075C22.0966 37.6824 19.019 36.0486 16.2334 33.7395C16.0178 33.5466 15.8825 33.2798 15.8543 32.9919C15.8261 32.7041 15.9071 32.4161 16.0811 32.185C16.2552 31.954 16.5097 31.7966 16.7942 31.7441C17.0788 31.6916 17.3727 31.7477 17.6179 31.9015C17.9675 32.1333 18.3043 32.3837 18.627 32.6517C21.3596 34.8544 24.8506 35.8922 28.3434 35.5401C30.8705 35.2836 33.3638 34.7639 35.7829 33.9896C38.4393 33.181 41.0873 32.3516 43.7562 31.5847C44.6944 31.3138 45.6828 31.2137 46.6294 31.0387C45.8287 29.4507 45.0322 27.9294 44.2983 26.3789C44.2427 26.2069 44.1292 26.0594 43.9772 25.9614C43.8252 25.8634 43.644 25.821 43.4643 25.8413C36.1082 25.8413 28.7507 25.8413 21.3918 25.8413C21.2088 25.835 21.0274 25.8786 20.8673 25.9674C20.7071 26.0562 20.5742 26.187 20.4827 26.3456C19.3151 27.9294 18.1391 29.5007 16.934 31.0554C16.2292 31.9681 15.4577 31.9681 14.7572 31.0554C13.5437 29.484 12.3719 27.8752 11.1458 26.3122C10.932 26.0711 10.6332 25.9218 10.3118 25.8955C8.05578 25.8621 5.80392 25.8746 3.54788 25.8955C3.38108 25.8955 3.2101 25.9246 3.03913 25.9413V47.6146C3.20176 47.5896 3.31019 47.5854 3.41444 47.5604C6.50454 46.6952 9.79187 46.8531 12.7847 48.0106C14.9031 48.8233 16.9548 49.8153 19.019 50.7489C21.7379 51.9993 24.4402 53.2497 27.501 53.358C28.7521 53.408 30.0031 53.2913 31.3834 53.2455C31.0165 51.7951 30.7204 50.5572 30.3868 49.3235C30.2492 48.8066 32.2842 47.5062 32.5677 48.4524C32.9639 49.7986 33.2808 51.1699 33.6436 52.5578C33.8688 52.4869 34.1232 52.4202 34.3692 52.3285C39.315 50.503 43.1682 47.2645 46.2707 43.0715C47.0892 41.8609 48.1377 40.8229 49.3566 40.0164C50.149 39.4954 51.0247 39.0787 51.9088 38.6035H51.9254ZM54.4692 38.0742C55.3825 36.8238 56.2248 35.736 57.0297 34.6023C59.0271 31.7973 60.9371 28.9339 62.3632 25.7871C62.9846 24.4158 63.5517 23.0196 63.4308 21.4649C63.0138 16.0466 58.4266 12.3371 53.0389 13.129C47.5093 13.9626 44.0147 19.9478 46.154 24.8493C47.6844 28.3504 49.7319 31.518 51.9254 34.6273C52.7094 35.7568 53.5518 36.8571 54.4525 38.0742H54.4692ZM15.7747 28.6463C15.856 28.5839 15.9314 28.5141 15.9999 28.4379C18.7229 24.8993 21.346 21.2899 23.2976 17.2595C23.986 15.9797 24.4593 14.5956 24.6987 13.1624C25.2742 8.29006 21.2584 3.88871 16.1625 3.66364C9.55285 3.36771 5.10334 10.224 7.55537 15.6215C9.69881 20.3479 12.6763 24.5075 15.7747 28.6463ZM66.1163 34.2939C64.3691 34.0063 62.651 33.7187 60.9329 33.4603C60.7828 33.4394 60.5534 33.6353 60.4408 33.7895C59.5609 35.0066 58.6977 36.2361 57.8345 37.4615C57.7861 37.5211 57.7519 37.591 57.7344 37.6657L66.1163 39.1787V34.2939ZM66.0872 31.9181V25.8996C64.9028 25.8121 64.9195 25.8204 64.4191 26.8332C64.0021 27.746 63.5184 28.6463 63.043 29.5382C62.7511 30.0967 62.4216 30.6344 62.088 31.2054L66.0872 31.9181Z" fill="black"/>
<path d="M2.96924 64.4448V63.7696C2.96924 59.4391 2.96924 55.1128 2.96924 50.7823C2.96924 50.2279 3.14855 50.0362 3.66148 49.8903C7.04761 48.9234 10.3086 49.3443 13.4779 50.7239C15.9174 51.8034 18.3194 52.9746 20.7673 54.0333C27.7189 57.0259 34.2284 55.813 40.4044 51.8451C43.5057 49.8112 46.1952 47.2108 48.3318 44.1802C49.4939 42.5491 51.1856 41.3708 53.1191 40.8459C53.3593 40.7922 53.6107 40.8216 53.8321 40.9292C54.0742 41.064 54.3542 41.1145 54.6282 41.0731C54.9022 41.0316 55.1546 40.9003 55.3459 40.7C55.5598 40.4976 55.8304 40.3653 56.1215 40.3207C59.4326 40.104 62.6228 40.7375 65.7462 41.792C65.8443 41.837 65.9302 41.9047 65.9969 41.9895C66.0637 42.0743 66.1092 42.1737 66.1298 42.2796C66.1632 43.58 66.1298 44.8846 66.1298 46.2225C64.9497 46.3351 63.7946 46.4268 62.6394 46.5601C62.4728 46.5642 62.3088 46.603 62.158 46.6741C62.0072 46.7451 61.8729 46.8469 61.7638 46.9729C61.6546 47.0988 61.573 47.2462 61.5242 47.4055C61.4753 47.5648 61.4603 47.7326 61.4801 47.898C61.5115 48.0601 61.5747 48.2143 61.6661 48.3519C61.7574 48.4894 61.8751 48.6075 62.0124 48.6993C62.1496 48.7911 62.3037 48.8549 62.4657 48.8869C62.6277 48.9189 62.7945 48.9186 62.9564 48.8858C63.9822 48.7733 65.0081 48.69 66.0881 48.5941V64.4782H42.8272C43.2859 63.6946 43.6946 62.9819 44.1158 62.2775C44.3326 61.9191 44.5787 61.5773 44.7955 61.2147C44.8932 61.0885 44.9638 60.9435 45.003 60.7889C45.0422 60.6342 45.0491 60.4732 45.0234 60.3157C44.9976 60.1583 44.9398 60.0078 44.8533 59.8737C44.7669 59.7395 44.6538 59.6246 44.521 59.536C44.3882 59.4475 44.2387 59.3872 44.0816 59.3589C43.9245 59.3306 43.7632 59.3349 43.6079 59.3715C43.4525 59.4082 43.3064 59.4764 43.1785 59.5719C43.0507 59.6674 42.9439 59.7882 42.8647 59.9268C42.0307 61.2939 41.1967 62.6776 40.4211 64.0947C40.3691 64.2308 40.2733 64.3457 40.1486 64.4212C40.024 64.4967 39.8777 64.5285 39.733 64.5115H3.53637C3.38625 64.4907 3.19442 64.4657 2.96924 64.4448ZM51.4177 53.4539C51.1632 53.0995 50.8679 52.7764 50.5378 52.4911C50.3381 52.3729 50.1031 52.3289 49.8742 52.3671C49.6453 52.4052 49.4372 52.5229 49.2867 52.6995C48.1691 53.7624 47.0557 54.8252 45.9756 55.9255C45.8538 56.0313 45.7556 56.1615 45.6875 56.3078C45.6195 56.4541 45.5831 56.6131 45.5807 56.7744C45.5783 56.9357 45.6101 57.0957 45.6738 57.2439C45.7376 57.3921 45.8319 57.5251 45.9506 57.6344C46.4427 58.1054 47.1433 58.0512 47.7062 57.4843C48.7321 56.4799 49.7913 55.4962 50.7755 54.4793C51.0164 54.1583 51.2259 53.815 51.401 53.4539H51.4177ZM33.8281 59.6225V58.2346C33.8281 57.3218 33.4111 56.7675 32.6813 56.7466C31.9515 56.7258 31.5179 57.2801 31.4762 58.1762C31.4178 59.5433 31.3441 60.909 31.2551 62.2733C31.2051 63.1069 31.6138 63.6946 32.3227 63.753C33.0316 63.8113 33.5404 63.2987 33.6029 62.4609C33.6905 61.5148 33.7489 60.5686 33.8281 59.6225ZM59.3075 49.1193C59.3075 48.0898 58.536 47.4521 57.7938 47.7772C56.2758 48.4149 54.7829 49.1276 53.3067 49.8611C53.1727 49.9302 53.0545 50.0265 52.9598 50.1438C52.8651 50.261 52.796 50.3968 52.7567 50.5423C52.7175 50.6878 52.709 50.8399 52.7319 50.9889C52.7548 51.1379 52.8086 51.2804 52.8897 51.4075C53.0305 51.6626 53.2627 51.8551 53.5395 51.9463C53.8164 52.0375 54.1176 52.0207 54.3826 51.8993C55.8255 51.2491 57.2683 50.5947 58.6778 49.8737C58.9822 49.7111 59.1657 49.2776 59.2908 49.1193H59.3075Z" fill="#2AB46C"/>
<path d="M51.9105 38.6035C51.0264 39.0787 50.1507 39.4955 49.325 39.9998C48.106 40.8062 47.0575 41.8443 46.2391 43.0549C43.1365 47.2479 39.2834 50.4864 34.3376 52.3119C33.3633 52.6821 32.366 52.9884 31.3518 53.2289C30.0632 53.3764 28.7644 53.4141 27.4694 53.3414C24.4252 53.2164 21.7063 51.9618 18.9874 50.7323C16.9024 49.7987 14.8715 48.8067 12.7531 47.9939C9.76153 46.8374 6.47582 46.6795 3.38703 47.5438C3.28278 47.5688 3.17435 47.573 3.01172 47.598V25.9246C3.18269 25.9246 3.35367 25.8788 3.52047 25.8788C5.7765 25.8788 8.02836 25.8788 10.2844 25.8788C10.6058 25.9051 10.9045 26.0544 11.1184 26.2956C12.3444 27.8585 13.5162 29.4674 14.7297 31.0387C15.4303 31.9431 16.2018 31.9431 16.9065 31.0387C18.1117 29.4841 19.2877 27.9127 20.4553 26.3289C20.5499 26.1715 20.6858 26.0428 20.8482 25.9569C21.0106 25.871 21.1934 25.831 21.3769 25.8413C28.733 25.8413 36.0904 25.8413 43.4493 25.8413C43.629 25.821 43.8103 25.8634 43.9623 25.9614C44.1143 26.0594 44.2277 26.2069 44.2833 26.3789C45.0173 27.9294 45.8138 29.4507 46.6144 31.0387C45.6678 31.2138 44.6795 31.3138 43.7412 31.5847C41.0723 32.3516 38.4243 33.181 35.768 33.9896C33.3494 34.7682 30.856 35.292 28.3285 35.5526C24.8356 35.9047 21.3447 34.8669 18.6121 32.6642C18.2894 32.3962 17.9525 32.1458 17.6029 31.914C17.3572 31.7441 17.0552 31.676 16.7604 31.7239C16.4655 31.7719 16.2006 31.9321 16.0215 32.1711C15.8423 32.41 15.7627 32.7091 15.7995 33.0054C15.8362 33.3018 15.9864 33.5723 16.2185 33.7604C19.0041 36.0569 22.0816 37.6908 25.768 37.9283C29.7463 38.1742 33.5286 37.2239 37.2525 35.9944C40.0173 35.0816 42.7487 34.0605 45.6469 33.6228C46.4309 33.5061 47.315 33.1352 47.978 33.3811C48.6411 33.627 48.9288 34.5148 49.375 35.1316C50.2341 36.282 51.0806 37.4573 51.9105 38.6035ZM12.7531 31.0095C12.5081 31.0334 12.2779 31.1382 12.099 31.3072C11.9201 31.4762 11.8025 31.7 11.7648 31.9431C11.2955 33.6421 11.3787 35.4462 12.0025 37.0947C12.0442 37.2436 12.1151 37.3827 12.2112 37.5038C12.3073 37.6249 12.4266 37.7257 12.5621 37.8002C12.6976 37.8747 12.8466 37.9215 13.0004 37.9378C13.1542 37.954 13.3097 37.9395 13.4579 37.895C13.6111 37.8534 13.754 37.7803 13.8775 37.6804C14.0009 37.5805 14.1022 37.456 14.1747 37.3148C14.2473 37.1737 14.2897 37.0189 14.2991 36.8604C14.3085 36.702 14.2847 36.5433 14.2293 36.3945C13.7869 35.0936 13.729 33.6929 14.0625 32.3599C14.2293 31.6264 13.633 30.997 12.7531 31.0095ZM19.9674 43.0966C20.7722 43.0966 21.2518 42.7256 21.3185 42.0921C21.3409 41.9447 21.3338 41.7944 21.2976 41.6498C21.2613 41.5052 21.1967 41.3692 21.1075 41.2498C21.0183 41.1304 20.9062 41.0299 20.7778 40.9541C20.6493 40.8783 20.5071 40.8288 20.3594 40.8084C20.1652 40.7649 19.969 40.7315 19.7714 40.7083C18.6059 40.6152 17.4821 40.2327 16.502 39.5955C16.3762 39.498 16.2314 39.4278 16.0769 39.3893C15.9224 39.3508 15.7615 39.3449 15.6046 39.372C15.4477 39.399 15.2981 39.4584 15.1655 39.5464C15.0328 39.6344 14.9199 39.7491 14.834 39.8831C14.7475 40.0187 14.6896 40.1705 14.6638 40.3292C14.638 40.488 14.6448 40.6503 14.6838 40.8063C14.7228 40.9623 14.7932 41.1088 14.8908 41.2367C14.9883 41.3646 15.1109 41.4713 15.251 41.5503C16.6772 42.5839 18.3452 42.9299 19.9674 43.1049V43.0966ZM25.13 41.4794C24.296 41.4377 23.7914 41.8045 23.6746 42.3589C23.5989 42.6412 23.6373 42.942 23.7817 43.1963C23.9261 43.4505 24.1647 43.6378 24.4461 43.7176C25.8236 44.1185 27.1077 44.7885 28.2242 45.6891C28.463 45.8396 28.7488 45.8972 29.0273 45.8508C29.3057 45.8045 29.5575 45.6575 29.7346 45.4378C29.9117 45.2181 30.0018 44.9409 29.9878 44.6591C29.9738 44.3773 29.8567 44.1105 29.6587 43.9093C28.7917 43.272 27.8834 42.6928 26.9398 42.1755C26.3557 41.8988 25.7505 41.6689 25.13 41.4878V41.4794Z" fill="#2AB46C"/>
<path d="M54.4512 38.0741C53.5505 36.8571 52.7081 35.7567 51.9075 34.6272C49.714 31.5305 47.6665 28.342 46.136 24.8493C43.9968 19.9478 47.4913 13.946 53.0084 13.1291C58.392 12.3371 62.9708 16.0466 63.4003 21.4649C63.5212 23.0195 62.9541 24.4158 62.3327 25.787C60.9066 28.9338 58.9967 31.7972 56.9992 34.6022C56.2069 35.7359 55.3645 36.8404 54.4512 38.0741ZM61.0775 21.2023C61.0784 19.8909 60.6899 18.6088 59.9613 17.5181C59.2326 16.4275 58.1966 15.5775 56.9844 15.0756C55.7722 14.5738 54.4383 14.4427 53.1515 14.6989C51.8647 14.9552 50.6829 15.5872 49.7557 16.5151C48.8285 17.443 48.1975 18.625 47.9428 19.9114C47.688 21.1979 47.8209 22.531 48.3245 23.7419C48.8281 24.9529 49.6799 25.9872 50.7721 26.7141C51.8642 27.441 53.1475 27.8276 54.4596 27.8252C55.3292 27.8246 56.1902 27.6529 56.9934 27.3198C57.7967 26.9866 58.5264 26.4986 59.1409 25.8837C59.7554 25.2687 60.2428 24.5387 60.5751 23.7355C60.9073 22.9323 61.0781 22.0715 61.0775 21.2023Z" fill="white"/>
<path d="M15.7756 28.6464C12.6772 24.5076 9.69972 20.348 7.55628 15.6215C5.10842 10.224 9.55793 3.36776 16.1676 3.66368C21.2634 3.88875 25.2793 8.2901 24.7038 13.1624C24.4644 14.5956 23.991 15.9797 23.3026 17.2595C21.351 21.2899 18.7155 24.8994 16.0049 28.438C15.9351 28.5144 15.8583 28.5842 15.7756 28.6464ZM15.7756 18.4474C17.0893 18.4631 18.3781 18.0883 19.4784 17.3706C20.5787 16.653 21.4409 15.6248 21.9555 14.4165C22.4701 13.2083 22.614 11.8745 22.3688 10.5844C22.1237 9.29426 21.5006 8.10602 20.5786 7.17046C19.6567 6.2349 18.4774 5.59419 17.1905 5.32965C15.9036 5.06511 14.567 5.18867 13.3505 5.68464C12.134 6.18061 11.0923 7.02664 10.3576 8.11534C9.62301 9.20405 9.22855 10.4864 9.22432 11.7995C9.22195 13.5454 9.90768 15.2219 11.133 16.4662C12.3584 17.7104 14.0248 18.4222 15.7714 18.4474H15.7756Z" fill="white"/>
<path d="M66.1168 34.2939V39.1787L57.7349 37.6533C57.7524 37.5785 57.7866 37.5087 57.8349 37.449C58.6982 36.2237 59.5614 34.9941 60.4413 33.7771C60.5539 33.6229 60.7832 33.427 60.9333 33.4478C62.6514 33.7187 64.3695 34.0063 66.1168 34.2939Z" fill="#2AB46C"/>
<path d="M66.0865 31.9181L62.104 31.222C62.4376 30.6344 62.7671 30.0967 63.059 29.5549C63.5344 28.6629 64.0014 27.7627 64.4351 26.8499C64.9188 25.8371 64.9022 25.8287 66.1031 25.9163L66.0865 31.9181Z" fill="#2AB46C"/>
<path d="M51.3998 53.4539C51.2128 53.8165 50.9908 54.1599 50.7368 54.4792C49.7318 55.4962 48.6935 56.4798 47.6676 57.4843C47.1047 58.0387 46.4166 58.1053 45.9121 57.6344C45.7933 57.5251 45.699 57.392 45.6352 57.2438C45.5715 57.0956 45.5398 56.9356 45.5421 56.7743C45.5445 56.613 45.5809 56.4541 45.6489 56.3078C45.717 56.1615 45.8152 56.0312 45.9371 55.9255C47.0171 54.8252 48.1305 53.7623 49.2481 52.6995C49.3986 52.5229 49.6066 52.4052 49.8355 52.367C50.0644 52.3289 50.2995 52.3728 50.4991 52.4911C50.8366 52.7751 51.1389 53.0983 51.3998 53.4539Z" fill="black"/>
<path d="M33.8288 59.6225C33.7662 60.5686 33.7079 61.5148 33.637 62.4609C33.5744 63.2945 33.0573 63.8113 32.3567 63.753C31.6562 63.6946 31.2392 63.1028 31.2892 62.2733C31.3754 60.909 31.4491 59.5433 31.5102 58.1762C31.5519 57.2801 31.994 56.7299 32.7154 56.7466C33.4368 56.7633 33.8663 57.3218 33.8622 58.2346V59.6225H33.8288Z" fill="black"/>
<path d="M28.0327 50.1321C28.5831 50.9073 29.1336 51.6784 29.7007 52.4536C30.1803 53.1372 30.1177 53.8624 29.5256 54.2625C28.9334 54.6626 28.2495 54.4667 27.7658 53.7915C26.9707 52.6801 26.1631 51.577 25.3429 50.4822C24.805 49.7611 24.7966 49.0526 25.368 48.6108C25.9393 48.169 26.619 48.3274 27.1986 49.0276L28.0785 50.1029L28.0327 50.1321Z" fill="black"/>
<path d="M35.0795 48.0022C35.63 48.7733 36.1846 49.5444 36.7476 50.3196C37.2313 51.0073 37.1646 51.7284 36.5766 52.1285C35.9886 52.5286 35.2963 52.3327 34.8126 51.6575C34.0147 50.5461 33.2071 49.4429 32.3897 48.3482C31.8518 47.6271 31.8476 46.9227 32.4148 46.4809C32.9819 46.0391 33.6658 46.1933 34.2455 46.8977C34.5374 47.2603 34.8335 47.6188 35.1254 47.9772L35.0795 48.0022Z" fill="black"/>
<path d="M39.6025 58.668C39.8068 59.5933 40.0195 60.5186 40.2113 61.448C40.3864 62.2816 40.0362 62.9027 39.3439 63.0444C38.6517 63.1861 38.0929 62.7318 37.9094 61.9232C37.6092 60.5895 37.2964 59.2557 36.9712 57.9303C36.7585 57.055 37.0295 56.4006 37.7259 56.2173C38.4223 56.0339 38.977 56.4465 39.2438 57.3218C39.3731 57.7677 39.5024 58.2137 39.6358 58.6555L39.6025 58.668Z" fill="black"/>
<path d="M59.2899 49.1192C59.1648 49.2776 58.9813 49.7111 58.6602 49.8778C57.2507 50.5988 55.8078 51.2532 54.3649 51.9034C54.0999 52.0248 53.7988 52.0416 53.5219 51.9504C53.245 51.8592 53.0128 51.6667 52.872 51.4116C52.7909 51.2845 52.7371 51.142 52.7142 50.993C52.6913 50.844 52.6998 50.6919 52.739 50.5464C52.7783 50.4009 52.8475 50.2652 52.9422 50.1479C53.0369 50.0306 53.155 49.9343 53.289 49.8653C54.7653 49.1276 56.2582 48.4149 57.7761 47.7813C58.5184 47.4688 59.2857 48.0898 59.2899 49.1192Z" fill="black"/>
<path d="M64.6414 54.4666C64.5163 54.625 64.3328 55.0585 64.0117 55.2252C62.6022 55.9421 61.1593 56.5964 59.7123 57.2508C59.4479 57.372 59.1474 57.3887 58.8712 57.2975C58.595 57.2062 58.3636 57.0138 58.2236 56.759C58.1424 56.632 58.0887 56.4894 58.0658 56.3404C58.0429 56.1915 58.0513 56.0394 58.0906 55.8938C58.1298 55.7483 58.199 55.6126 58.2937 55.4953C58.3884 55.378 58.5066 55.2818 58.6406 55.2127C60.1168 54.4708 61.6055 53.7622 63.1276 53.1287C63.8532 52.8161 64.6372 53.433 64.6414 54.4666Z" fill="black"/>
<path d="M12.7527 31.0094C13.6326 31.0094 14.2205 31.6263 14.0537 32.3598C13.7202 33.6927 13.7781 35.0935 14.2205 36.3944C14.2727 36.5414 14.2941 36.6975 14.2836 36.8531C14.273 37.0087 14.2307 37.1606 14.1592 37.2992C14.0877 37.4378 13.9885 37.5603 13.8678 37.6592C13.7471 37.7581 13.6075 37.8312 13.4574 37.874C13.3107 37.9189 13.1565 37.9343 13.0037 37.9194C12.851 37.9045 12.7027 37.8595 12.5674 37.7871C12.4321 37.7146 12.3125 37.6161 12.2155 37.4973C12.1185 37.3784 12.0459 37.2416 12.002 37.0946C11.3828 35.4523 11.2996 33.6563 11.7643 31.9639C11.7978 31.7169 11.9135 31.4884 12.0928 31.3152C12.2721 31.1421 12.5046 31.0343 12.7527 31.0094Z" fill="black"/>
<path d="M19.9662 43.1048C18.3441 42.9423 16.676 42.5838 15.2373 41.5377C15.0972 41.4587 14.9746 41.352 14.8771 41.2241C14.7796 41.0962 14.7092 40.9498 14.6701 40.7938C14.6311 40.6378 14.6243 40.4754 14.6501 40.3167C14.6759 40.158 14.7339 40.0062 14.8203 39.8706C14.9062 39.7366 15.0191 39.6219 15.1518 39.5339C15.2845 39.4459 15.434 39.3865 15.5909 39.3595C15.7479 39.3324 15.9087 39.3383 16.0632 39.3768C16.2177 39.4153 16.3625 39.4855 16.4884 39.583C17.4673 40.2246 18.5911 40.6114 19.7577 40.7083C19.9553 40.7315 20.1516 40.7649 20.3457 40.8083C20.495 40.8272 20.6389 40.8757 20.7691 40.9511C20.8993 41.0265 21.013 41.1272 21.1036 41.2473C21.1941 41.3673 21.2597 41.5043 21.2964 41.6501C21.3332 41.7959 21.3403 41.9476 21.3174 42.0962C21.2506 42.7339 20.7711 43.1173 19.9662 43.1048Z" fill="black"/>
<path d="M25.1282 41.4877C25.7515 41.6684 26.3595 41.8984 26.9463 42.1754C27.8871 42.6931 28.7926 43.2723 29.6569 43.9093C29.8752 44.1063 30.0098 44.3794 30.0329 44.6725C30.0561 44.9656 29.9661 45.2564 29.7814 45.4853C29.5968 45.7141 29.3315 45.8636 29.04 45.903C28.7485 45.9425 28.453 45.8689 28.2141 45.6974C27.0976 44.7969 25.8134 44.1268 24.4359 43.7259C24.1545 43.6461 23.9159 43.4588 23.7715 43.2046C23.6272 42.9503 23.5887 42.6495 23.6644 42.3672C23.7896 41.8128 24.29 41.446 25.1282 41.4877Z" fill="black"/>
<path d="M55.6404 60.0183C55.4518 60.38 55.2298 60.7233 54.9774 61.0437C53.9724 62.0607 52.9299 63.0443 51.9082 64.0488C51.341 64.6031 50.6571 64.6698 50.1484 64.1988C50.0296 64.0896 49.9353 63.9565 49.8716 63.8083C49.8078 63.6601 49.7761 63.5001 49.7784 63.3388C49.7808 63.1775 49.8172 63.0185 49.8853 62.8722C49.9533 62.726 50.0515 62.5957 50.1734 62.4899C51.2535 61.3896 52.3711 60.3268 53.5095 59.2639C53.6595 59.0867 53.8676 58.9684 54.0967 58.9302C54.3259 58.892 54.5611 58.9365 54.7605 59.0556C55.0895 59.342 55.3847 59.665 55.6404 60.0183Z" fill="black"/>
<path d="M33.8278 59.6224C33.411 65.9827 33.2193 68.05 33.636 62.4608L33.8278 59.6224Z" fill="black"/>
<path d="M7.18015 33.0435C8.06423 33.0435 8.64805 33.6645 8.48124 34.398C8.15218 35.7314 8.21004 37.1309 8.64805 38.4327C8.70152 38.5793 8.72412 38.7354 8.71443 38.8912C8.70473 39.047 8.66295 39.1991 8.5917 39.338C8.52044 39.4769 8.42126 39.5997 8.30036 39.6985C8.17945 39.7973 8.03944 39.8701 7.88908 39.9123C7.74041 39.9568 7.58437 39.9712 7.43006 39.9547C7.27576 39.9382 7.12629 39.8911 6.99039 39.8162C6.8545 39.7413 6.73491 39.6401 6.63861 39.5185C6.5423 39.3969 6.47123 39.2573 6.42953 39.1079C5.81333 37.4648 5.73161 35.6693 6.196 33.9771C6.23485 33.7351 6.35225 33.5126 6.53009 33.3439C6.70794 33.1752 6.93636 33.0696 7.18015 33.0435Z" fill="black"/>
<path d="M14.3934 45.143C12.7712 44.9805 11.1074 44.622 9.66452 43.5759C9.05152 43.1257 8.88471 42.4713 9.24751 41.9087C9.33298 41.7741 9.44567 41.659 9.57833 41.5706C9.71099 41.4823 9.86069 41.4226 10.0178 41.3955C10.1749 41.3684 10.3359 41.3745 10.4905 41.4134C10.6452 41.4522 10.7899 41.5229 10.9156 41.6211C11.8958 42.2625 13.0213 42.648 14.1891 42.7423C14.3854 42.7665 14.5803 42.8013 14.7729 42.8465C14.9208 42.8669 15.0631 42.9164 15.1917 42.9921C15.3204 43.0678 15.4327 43.1683 15.5223 43.2876C15.6118 43.407 15.6769 43.5429 15.7136 43.6875C15.7503 43.8321 15.758 43.9826 15.7362 44.1302C15.6778 44.7679 15.2024 45.1555 14.3934 45.143Z" fill="black"/>
<path d="M19.5618 43.5259C20.1838 43.7067 20.7904 43.9367 21.3758 44.2136C22.3203 44.7281 23.2286 45.3059 24.0947 45.9433C24.3267 46.1364 24.4734 46.4129 24.5034 46.7131C24.5333 47.0133 24.444 47.3133 24.2548 47.5483C24.0655 47.7834 23.7915 47.9347 23.4917 47.9698C23.1918 48.0048 22.8903 47.9207 22.6519 47.7355C21.5358 46.8336 20.2516 46.162 18.8738 45.7599C18.5929 45.6811 18.3546 45.4945 18.2108 45.2407C18.0671 44.9869 18.0296 44.6867 18.1065 44.4054C18.2232 43.851 18.7237 43.4842 19.5618 43.5259Z" fill="black"/>
<path d="M61.0802 21.2023C61.0827 22.5148 60.6952 23.7985 59.9668 24.8905C59.2385 25.9826 58.2021 26.8339 56.9891 27.3366C55.776 27.8392 54.441 27.9705 53.1532 27.7138C51.8654 27.4572 50.6828 26.8241 49.7554 25.8949C48.8281 24.9656 48.1977 23.7821 47.9441 22.4943C47.6906 21.2066 47.8253 19.8725 48.3313 18.6614C48.8372 17.4503 49.6916 16.4166 50.7861 15.6913C51.8805 14.9661 53.1658 14.5821 54.479 14.5878C56.2289 14.5999 57.9035 15.3012 59.1393 16.5395C60.3752 17.7778 61.0726 19.4533 61.0802 21.2023ZM58.7325 21.2023C58.7317 20.3575 58.4804 19.5318 58.0105 18.8294C57.5406 18.1271 56.8731 17.5797 56.0922 17.2561C55.3113 16.9326 54.452 16.8476 53.6228 17.0117C52.7936 17.1758 52.0316 17.5818 51.433 18.1783C50.8344 18.7749 50.426 19.5353 50.2594 20.3636C50.0928 21.1919 50.1754 22.051 50.4967 22.8324C50.8181 23.6139 51.3639 24.2826 52.0653 24.7543C52.7666 25.226 53.592 25.4795 54.4373 25.4828C55.0027 25.4878 55.5635 25.3802 56.0869 25.1662C56.6103 24.9522 57.0858 24.6362 57.4856 24.2366C57.8855 23.8369 58.2016 23.3617 58.4157 22.8386C58.6298 22.3155 58.7375 21.755 58.7325 21.1898V21.2023Z" fill="black"/>
<path d="M15.7721 18.4473C14.0425 18.3961 12.4015 17.6712 11.1994 16.4273C9.99728 15.1835 9.32927 13.5192 9.33797 11.7898C9.34668 10.0604 10.0314 8.40298 11.246 7.17128C12.4606 5.93957 14.1088 5.23122 15.8388 5.19743C16.7231 5.18016 17.6018 5.33989 18.4234 5.6672C19.245 5.99452 19.9927 6.4828 20.6226 7.10332C21.2525 7.72383 21.7519 8.46403 22.0912 9.28034C22.4306 10.0967 22.6031 10.9726 22.5987 11.8565C22.5942 12.7405 22.4129 13.6146 22.0653 14.4275C21.7177 15.2403 21.211 15.9755 20.5749 16.5896C19.9387 17.2038 19.1861 17.6845 18.3613 18.0035C17.5365 18.3226 16.6561 18.4735 15.7721 18.4473ZM20.1006 11.8286C20.1039 10.6923 19.6555 9.60113 18.8539 8.79526C18.0523 7.98939 16.9632 7.53479 15.8263 7.53147C14.6893 7.52816 13.5977 7.97639 12.7914 8.77757C11.9851 9.57875 11.5303 10.6673 11.5269 11.8036C11.5253 12.3663 11.6345 12.9238 11.8485 13.4442C12.0624 13.9647 12.3768 14.4379 12.7737 14.837C13.5753 15.6428 14.6643 16.0974 15.8013 16.1007C16.9382 16.1041 18.0299 15.6558 18.8362 14.8546C19.6425 14.0535 20.0973 12.965 20.1006 11.8286Z" fill="black"/>
<path d="M58.7319 21.1898C58.7327 22.0348 58.483 22.8612 58.0143 23.5645C57.5456 24.2679 56.8789 24.8166 56.0984 25.1415C55.3178 25.4664 54.4585 25.5529 53.6289 25.3901C52.7992 25.2272 52.0364 24.8223 51.4368 24.2265C50.8372 23.6307 50.4277 22.8707 50.2599 22.0425C50.0921 21.2142 50.1736 20.3548 50.4941 19.5728C50.8147 18.7908 51.3598 18.1213 52.0607 17.6487C52.7617 17.1762 53.587 16.9218 54.4325 16.9176C54.9964 16.9127 55.5557 17.0196 56.0779 17.2322C56.6001 17.4449 57.0749 17.759 57.4748 18.1563C57.8748 18.5537 58.1918 19.0264 58.4076 19.5471C58.6233 20.0678 58.7336 20.6262 58.7319 21.1898Z" fill="white"/>
<path d="M20.1001 11.8287C20.1017 12.6757 19.8521 13.5043 19.3828 14.2096C18.9135 14.9149 18.2456 15.4654 17.4634 15.7914C16.6811 16.1175 15.8198 16.2045 14.9881 16.0415C14.1565 15.8784 13.3918 15.4727 12.7908 14.8755C12.1898 14.2782 11.7794 13.5164 11.6114 12.6861C11.4434 11.8559 11.5255 10.9945 11.8471 10.2108C12.1688 9.42711 12.7156 8.7563 13.4186 8.28314C14.1215 7.80997 14.949 7.55567 15.7965 7.55237C16.9339 7.55125 18.0254 8.00064 18.832 8.80212C19.6386 9.60361 20.0946 10.6919 20.1001 11.8287Z" fill="white"/>
</svg>
