<svg width="84" height="67" viewBox="0 0 84 67" fill="none" xmlns="http://www.w3.org/2000/svg">
<path d="M0.996094 56.8696V0.701996H82.6274V56.8696H0.996094ZM76.2587 50.1587V7.20337H7.2214V50.1587H76.2587Z" fill="#2AB46C"/>
<path d="M81.9252 1.40759V56.1676H1.70227V1.40759H81.9252ZM6.51557 50.8643H76.9648V6.4977H6.51557V50.8643ZM83.3372 0H0.293945V57.5715H83.3372V0ZM7.92389 7.90529H75.5564V49.4568H7.92389V7.90529Z" fill="black"/>
<path d="M50.3427 56.1639H31.8911V59.8466H50.3427V56.1639Z" fill="black"/>
<path d="M59.6313 59.8464H22.5186V65.2894H59.6313V59.8464Z" stroke="black" stroke-width="3.37" stroke-miterlimit="10"/>
<path d="M9.60045 52.1985H9.59678C9.12588 52.1985 8.74414 52.5802 8.74414 53.0511V53.0548C8.74414 53.5257 9.12588 53.9074 9.59678 53.9074H9.60045C10.0714 53.9074 10.4531 53.5257 10.4531 53.0548V53.0511C10.4531 52.5802 10.0714 52.1985 9.60045 52.1985Z" fill="white"/>
<path d="M13.1117 52.1985H13.108C12.6371 52.1985 12.2554 52.5802 12.2554 53.0511V53.0548C12.2554 53.5257 12.6371 53.9074 13.108 53.9074H13.1117C13.5826 53.9074 13.9643 53.5257 13.9643 53.0548V53.0511C13.9643 52.5802 13.5826 52.1985 13.1117 52.1985Z" fill="white"/>
<path d="M16.8368 52.1985H16.8331C16.3622 52.1985 15.9805 52.5802 15.9805 53.0511V53.0548C15.9805 53.5257 16.3622 53.9074 16.8331 53.9074H16.8368C17.3077 53.9074 17.6894 53.5257 17.6894 53.0548V53.0511C17.6894 52.5802 17.3077 52.1985 16.8368 52.1985Z" fill="white"/>
<path d="M70.6729 18.8426C70.6756 19.1343 70.619 19.4234 70.5065 19.6926C70.3939 19.9617 70.2279 20.2052 70.0184 20.4082C67.5866 22.8339 65.1585 25.2607 62.7341 27.6888C60.6529 29.7689 58.5692 31.8515 56.4831 33.9366C56.3244 34.1 56.1232 34.2159 55.9021 34.271C53.9753 34.7598 52.0485 35.2412 50.1327 35.7411C49.6292 35.9066 49.1377 36.1067 48.6619 36.3401C48.239 36.5165 47.8198 36.7076 47.4007 36.8804C47.1947 36.9686 46.9999 37.02 46.8233 36.8363C46.6468 36.6525 46.7204 36.4688 46.8233 36.2703C47.0918 35.6492 47.3418 35.0171 47.6323 34.4033C47.9498 33.6235 48.196 32.8166 48.3677 31.9924C48.7354 30.5444 49.1031 29.0927 49.4709 27.6483C49.5245 27.4878 49.6181 27.3436 49.743 27.2294C51.6624 25.3036 53.5843 23.3802 55.5086 21.4593C58.0752 18.8941 60.6419 16.3214 63.2085 13.7415C63.5162 13.4172 63.9099 13.1873 64.3436 13.0786C64.7773 12.9699 65.233 12.9869 65.6574 13.1277C66.5061 13.3788 67.2893 13.8129 67.9519 14.3993C68.9547 15.1819 69.7595 16.189 70.3016 17.3395C70.5244 17.8108 70.6506 18.3218 70.6729 18.8426ZM62.5135 18.3759C62.4742 18.4404 62.4299 18.5019 62.3811 18.5596L54.935 25.9945C53.9324 26.9966 52.9298 28.0011 51.9271 29.0081C51.8987 29.0348 51.8763 29.0674 51.8617 29.1036C51.8471 29.1397 51.8406 29.1787 51.8426 29.2176C51.9529 29.6954 52.111 30.1622 52.1882 30.6436C52.2022 30.8716 52.2994 31.0866 52.4614 31.2478C52.6234 31.409 52.8389 31.5052 53.067 31.5183C53.5105 31.5976 53.9488 31.7031 54.3798 31.8344C54.4407 31.865 54.5103 31.874 54.5771 31.86C54.6439 31.846 54.704 31.8097 54.7475 31.7572L65.1941 21.316L65.3154 21.1837L62.5135 18.3759ZM61.1309 17.0124C61.1088 17.0307 61.0721 17.0602 61.0427 17.0896C57.4857 20.6398 53.9312 24.1924 50.3791 27.7476C50.335 27.7917 50.2761 27.8505 50.2725 27.9019C50.2725 28.1886 50.2725 28.4716 50.2725 28.7729C50.5188 28.7362 50.7542 28.7141 50.9821 28.6664C51.0935 28.6482 51.1978 28.5999 51.2837 28.5267C54.7965 25.0083 58.3143 21.4912 61.8369 17.9753C61.8884 17.9275 61.9325 17.876 61.973 17.8319L61.1309 17.0124ZM55.0821 33.4882C55.3027 33.4882 55.5013 33.4882 55.6925 33.4514C55.7923 33.4347 55.8854 33.3901 55.9609 33.3228L66.6245 22.6648C66.6515 22.6375 66.6761 22.608 66.698 22.5766L65.867 21.7386L65.7236 21.8746L61.2743 26.3363L55.2439 32.3673C55.1742 32.4233 55.1251 32.5008 55.1042 32.5878C55.0821 32.8744 55.0821 33.1611 55.0821 33.4882ZM68.8491 20.3862L63.3335 14.8734L61.7597 16.439L67.2753 21.9739L68.8491 20.3862ZM49.8386 29.5741L49.8202 29.5227C49.8202 29.5741 49.7761 29.6256 49.7613 29.6807C49.4304 30.967 49.1019 32.2509 48.7759 33.5323C48.7704 33.5768 48.774 33.6219 48.7867 33.6649C48.7993 33.7079 48.8207 33.7478 48.8494 33.7822C49.1877 34.1497 49.5444 34.4768 49.8827 34.8296C49.9167 34.8682 49.9616 34.8955 50.0115 34.908C50.0614 34.9205 50.114 34.9175 50.1621 34.8995L53.1038 34.1424L54.3026 33.83V32.9222C54.3026 32.6245 54.3025 32.6172 54.0121 32.5547C53.5451 32.4371 53.0744 32.3268 52.6037 32.2239C52.3283 32.1769 52.0742 32.0456 51.8766 31.8481C51.679 31.6506 51.5476 31.3967 51.5006 31.1214C51.394 30.6289 51.269 30.1438 51.155 29.6513C51.1182 29.4896 51.041 29.4492 50.8755 29.4786C50.5335 29.5153 50.1916 29.5484 49.8533 29.5925L49.8386 29.5741ZM69.4705 19.7982C69.5931 19.682 69.6911 19.5425 69.7586 19.3878C69.8262 19.2332 69.8621 19.0665 69.864 18.8977C69.8561 18.3064 69.6843 17.7288 69.3676 17.2292C68.7926 16.2037 67.9901 15.3236 67.0216 14.6566C66.4644 14.2278 65.8103 13.9426 65.1169 13.826C64.8971 13.7833 64.6703 13.7944 64.4558 13.8584C64.2412 13.9224 64.0454 14.0374 63.885 14.1935L69.4705 19.7982ZM48.4302 34.5466L47.8787 35.8366L49.1657 35.2817L48.4302 34.5466Z" fill="black" stroke="#010705" stroke-miterlimit="10"/>
<path d="M43.2828 36.1527C44.0756 36.1527 44.836 36.4675 45.3966 37.0278C45.9573 37.5881 46.2722 38.3481 46.2722 39.1406C46.2722 39.933 45.9573 40.693 45.3966 41.2533C44.836 41.8137 44.0756 42.1285 43.2828 42.1285H22.3565C20.3157 42.1285 16.1055 36.1527 16.1055 36.1527H43.3159H43.2828ZM43.3159 34.859H16.1055C15.8682 34.8587 15.6353 34.9237 15.4324 35.0467C15.2295 35.1698 15.0644 35.3463 14.955 35.5568C14.8457 35.7674 14.7964 36.0039 14.8126 36.2406C14.8287 36.4772 14.9096 36.7049 15.0465 36.8987C15.0943 36.9649 16.1496 38.468 17.5028 39.9932C20.1723 43.0326 21.5071 43.4221 22.3749 43.4221H43.3012C44.4373 43.4221 45.5269 42.971 46.3303 42.1681C47.1336 41.3651 47.585 40.2761 47.585 39.1406C47.585 38.005 47.1336 36.916 46.3303 36.113C45.5269 35.3101 44.4373 34.859 43.3012 34.859H43.3159Z" fill="#010705"/>
<path d="M20.4924 40.0043C20.1404 40.005 19.7961 39.9014 19.503 39.7065C19.2099 39.5117 18.9812 39.2343 18.8459 38.9096C18.7105 38.5848 18.6745 38.2272 18.7425 37.882C18.8104 37.5368 18.9793 37.2195 19.2276 36.9703C19.476 36.721 19.7928 36.5509 20.1379 36.4816C20.483 36.4122 20.8409 36.4467 21.1663 36.5807C21.4918 36.7146 21.7702 36.942 21.9664 37.2342C22.1626 37.5263 22.2676 37.87 22.2684 38.2218C22.2689 38.4554 22.2233 38.6868 22.1343 38.9028C22.0453 39.1188 21.9146 39.3152 21.7497 39.4807C21.5848 39.6462 21.3889 39.7776 21.1731 39.8675C20.9574 39.9573 20.7261 40.0038 20.4924 40.0043ZM20.4924 37.744C20.3959 37.7433 20.3014 37.7713 20.2209 37.8245C20.1405 37.8777 20.0777 37.9536 20.0406 38.0427C20.0036 38.1317 19.9939 38.2297 20.0128 38.3242C20.0317 38.4188 20.0784 38.5056 20.1468 38.5735C20.2153 38.6414 20.3025 38.6874 20.3972 38.7055C20.4919 38.7237 20.5899 38.7133 20.6787 38.6755C20.7675 38.6378 20.843 38.5745 20.8956 38.4937C20.9482 38.4128 20.9755 38.3182 20.974 38.2218C20.9721 38.095 20.9206 37.9741 20.8306 37.8848C20.7406 37.7955 20.6192 37.745 20.4924 37.744Z" fill="#010705"/>
<path d="M26.4746 41.9374C25.932 41.9374 25.4017 41.7766 24.9506 41.4753C24.4995 41.1741 24.1479 40.7459 23.9403 40.2449C23.7326 39.7439 23.6783 39.1926 23.7842 38.6608C23.89 38.129 24.1513 37.6404 24.5349 37.257C24.9185 36.8736 25.4073 36.6125 25.9394 36.5067C26.4715 36.4009 27.0231 36.4552 27.5243 36.6627C28.0256 36.8702 28.454 37.2216 28.7554 37.6725C29.0568 38.1233 29.2177 38.6534 29.2177 39.1957C29.2167 39.9225 28.9274 40.6193 28.4132 41.1333C27.899 41.6472 27.2018 41.9364 26.4746 41.9374ZM26.4746 37.7477C26.188 37.7477 25.9079 37.8326 25.6697 37.9917C25.4314 38.1508 25.2457 38.3769 25.1361 38.6415C25.0264 38.9061 24.9977 39.1973 25.0536 39.4782C25.1095 39.7591 25.2475 40.0171 25.4501 40.2196C25.6527 40.4221 25.9109 40.56 26.1919 40.6159C26.473 40.6718 26.7643 40.6431 27.029 40.5335C27.2937 40.4239 27.52 40.2383 27.6792 40.0002C27.8384 39.762 27.9234 39.4821 27.9234 39.1957C27.9224 38.8119 27.7694 38.4442 27.498 38.1728C27.2265 37.9015 26.8585 37.7486 26.4746 37.7477Z" fill="#010705"/>
<path d="M34.02 41.9374C33.4774 41.9374 32.9471 41.7766 32.496 41.4753C32.0449 41.1741 31.6933 40.7459 31.4857 40.2449C31.278 39.7439 31.2237 39.1926 31.3296 38.6608C31.4354 38.129 31.6967 37.6404 32.0803 37.257C32.4639 36.8736 32.9527 36.6125 33.4848 36.5067C34.0169 36.4009 34.5685 36.4552 35.0697 36.6627C35.571 36.8702 35.9994 37.2216 36.3008 37.6725C36.6022 38.1233 36.7631 38.6534 36.7631 39.1957C36.7621 39.9225 36.4728 40.6193 35.9586 41.1333C35.4444 41.6472 34.7472 41.9364 34.02 41.9374ZM34.02 37.7477C33.7344 37.752 33.4565 37.8406 33.2212 38.0023C32.9859 38.1641 32.8036 38.3917 32.6973 38.6567C32.591 38.9216 32.5655 39.212 32.6238 39.4915C32.6822 39.7709 32.8219 40.0268 33.0254 40.2271C33.2288 40.4274 33.487 40.5632 33.7674 40.6173C34.0478 40.6714 34.338 40.6415 34.6015 40.5312C34.8649 40.421 35.0899 40.2354 35.2481 39.9978C35.4064 39.7602 35.4908 39.4811 35.4908 39.1957C35.4904 39.0038 35.4518 38.8139 35.3775 38.637C35.3031 38.4601 35.1944 38.2997 35.0576 38.165C34.9209 38.0303 34.7587 37.9241 34.5806 37.8525C34.4025 37.7809 34.212 37.7452 34.02 37.7477Z" fill="#010705"/>
<path d="M41.5693 41.9374C41.0268 41.9374 40.4964 41.7766 40.0453 41.4753C39.5942 41.1741 39.2426 40.7459 39.035 40.2449C38.8274 39.7439 38.773 39.1926 38.8789 38.6608C38.9847 38.129 39.246 37.6404 39.6296 37.257C40.0133 36.8736 40.502 36.6125 41.0341 36.5067C41.5663 36.4009 42.1178 36.4552 42.6191 36.6627C43.1203 36.8702 43.5487 37.2216 43.8501 37.6725C44.1516 38.1233 44.3124 38.6534 44.3124 39.1957C44.3115 39.9225 44.0221 40.6193 43.5079 41.1333C42.9937 41.6472 42.2965 41.9364 41.5693 41.9374ZM41.5693 37.7477C41.2828 37.7477 41.0027 37.8326 40.7644 37.9917C40.5262 38.1508 40.3405 38.3769 40.2308 38.6415C40.1211 38.9061 40.0925 39.1973 40.1484 39.4782C40.2043 39.7591 40.3422 40.0171 40.5449 40.2196C40.7475 40.4221 41.0056 40.56 41.2867 40.6159C41.5677 40.6718 41.859 40.6431 42.1237 40.5335C42.3885 40.4239 42.6147 40.2383 42.7739 40.0002C42.9331 39.762 43.0181 39.4821 43.0181 39.1957C43.0181 38.8116 42.8655 38.4433 42.5938 38.1718C42.3221 37.9002 41.9535 37.7477 41.5693 37.7477Z" fill="#010705"/>
<path d="M45.6873 30.5444V21.871C45.6873 21.786 45.6706 21.7019 45.6381 21.6234C45.6056 21.5449 45.5579 21.4736 45.4978 21.4136C45.4377 21.3535 45.3664 21.3059 45.2878 21.2734C45.2093 21.2409 45.1252 21.2241 45.0402 21.2241H33.9501C33.8281 21.2248 33.7087 21.2596 33.6053 21.3245C33.502 21.3895 33.4189 21.482 33.3655 21.5916L29.0339 30.537L22.3306 28.229C22.2756 28.2103 22.2169 28.2048 22.1594 28.2131C22.1018 28.2214 22.0471 28.2433 21.9996 28.2768C21.9521 28.3106 21.9133 28.3552 21.8865 28.407C21.8596 28.4588 21.8455 28.5162 21.8452 28.5745V30.6804L15.6346 33.7124C15.5637 33.7505 15.5072 33.8108 15.4739 33.8841C15.4405 33.9574 15.4322 34.0396 15.4502 34.1181C15.4681 34.1966 15.5114 34.267 15.5733 34.3185C15.6352 34.37 15.7123 34.3998 15.7927 34.4033H45.6873C45.7849 34.4033 45.8784 34.3646 45.9474 34.2957C46.0163 34.2268 46.0551 34.1333 46.0551 34.0358V30.9082C46.0541 30.8114 46.0149 30.7189 45.9461 30.6507C45.8772 30.5826 45.7842 30.5444 45.6873 30.5444ZM39.2709 22.5178H44.393V30.2614H39.2709V22.5178ZM34.362 22.5178H37.9765V30.2614H30.6224L34.362 22.5178Z" fill="#010705"/>
</svg>
