<svg width="247" height="71" viewBox="0 0 247 71" fill="none" xmlns="http://www.w3.org/2000/svg">
<path d="M129.629 1.08687C129.55 0.948453 129.472 0.810043 129.394 0.671631L129.629 1.08687Z" fill="url(#paint0_radial_601:1578)"/>
<path d="M61.8303 20.8054H80.5945V40.8676H83.2759V50.542H77.1986L76.8427 45.8831H62.9007L62.5448 50.542H56.4675V40.8676H58.7903C59.4772 40.0879 60.006 39.1815 60.347 38.1992C60.6659 37.3282 60.8643 36.4176 60.9365 35.4926L61.8303 20.8054ZM74.1613 40.8676V25.821H67.5489L67.0056 34.7765C66.9187 36.2989 66.556 37.7927 65.9352 39.1848C65.6892 39.7719 65.39 40.3352 65.0414 40.8676H74.1613Z" fill="white"/>
<path d="M108.792 39.0422C108.792 41.5454 108.225 43.3631 107.09 44.4951C105.956 45.6272 104.135 46.1932 101.627 46.1932H92.675C90.1689 46.1932 88.3479 45.6272 87.212 44.4951C86.076 43.3631 85.5089 41.5454 85.5107 39.0422V27.6039C85.5107 25.1025 86.0778 23.2848 87.212 22.151C88.3461 21.0171 90.1671 20.4511 92.675 20.4529H101.627C104.135 20.4529 105.956 21.0189 107.09 22.151C108.225 23.283 108.792 25.1007 108.792 27.6039V39.0422ZM102.343 27.6039C102.343 26.1748 101.627 25.4602 100.196 25.4602H94.1067C92.675 25.4602 91.9591 26.1748 91.9591 27.6039V39.0422C91.9591 40.4731 92.675 41.1886 94.1067 41.1886H100.196C101.627 41.1886 102.343 40.4731 102.343 39.0422V27.6039Z" fill="white"/>
<path d="M118.773 30.4951H127.373C129.883 30.4951 131.705 31.064 132.84 32.202C133.975 33.3399 134.543 35.166 134.543 37.6804V38.7728C134.543 41.2871 133.975 43.1133 132.84 44.2512C131.705 45.3891 129.883 45.9581 127.373 45.9581H112.32V20.8054H132.205V25.836H118.773V30.4951ZM128.089 37.6804C128.089 36.2439 127.373 35.5256 125.94 35.5256H118.773V40.9139H125.94C127.373 40.9139 128.089 40.1956 128.089 38.7591V37.6804Z" fill="white"/>
<path d="M137.835 20.8054H152.89C155.399 20.8054 157.22 21.3717 158.355 22.5043C159.491 23.6369 160.058 25.4555 160.058 27.9599V31.5344C160.058 34.0388 159.491 35.8573 158.355 36.9899C157.22 38.1225 155.399 38.6888 152.89 38.6888H144.287V45.8405H137.835V20.8054ZM153.607 27.9599C153.607 26.5283 152.89 25.8124 151.457 25.8124H144.287V33.6818H151.457C152.89 33.6818 153.607 32.966 153.607 31.5344V27.9599Z" fill="white"/>
<path d="M169.682 29.4255H177.911C180.419 29.4255 182.239 29.9942 183.372 31.1315C184.504 32.2689 185.074 34.0986 185.081 36.6208V38.7772C185.081 41.2902 184.514 43.1154 183.38 44.2528C182.246 45.3901 180.423 45.9542 177.911 45.9451H163.234V20.8054H169.682V29.4255ZM178.635 36.6208C178.635 35.185 177.919 34.4671 176.487 34.4671H169.682V40.9308H176.487C177.919 40.9308 178.635 40.213 178.635 38.7772V36.6208ZM194.393 45.9588H187.947V20.8191H194.393V45.9588Z" fill="white"/>
<path d="M220.614 45.8405H214.159V35.6471H205.191V45.8405H198.744V20.8054H205.191V30.6401H214.153V20.8054H220.614V45.8405Z" fill="white"/>
<path d="M246.365 45.8405H239.915V37.616H235.076L230.598 45.8405H223.789L228.447 37.2572C226.92 36.8948 225.821 36.1701 225.151 35.0829C224.481 33.9957 224.146 32.4555 224.146 30.4623V27.9591C224.146 25.4568 224.713 23.6384 225.848 22.5041C226.983 21.3699 228.805 20.8036 231.314 20.8054H246.365V45.8405ZM230.598 30.4651C230.598 31.8947 231.314 32.6095 232.747 32.6095H239.915V25.8146H232.747C231.314 25.8146 230.598 26.5304 230.598 27.9618V30.4651Z" fill="white"/>
<path d="M51.5639 16.4065C41.6905 17.0991 26.2743 7.22949 26.2743 7.22949C26.2743 7.22949 10.858 17.0991 0.98465 16.4065C0.98465 16.4065 -0.574299 52.595 26.2743 70.2564C53.1228 52.595 51.5639 16.4065 51.5639 16.4065ZM38.4652 51.5336L38.2297 51.9491C38.0507 52.2573 37.87 52.5627 37.6875 52.8651C34.606 57.9471 30.7744 60.1582 26.2743 63.5727C21.7706 60.1582 17.9425 57.9471 14.861 52.8651C14.6774 52.5627 14.4961 52.2573 14.3171 51.9491L14.0833 51.5336C11.5162 47.0005 9.49824 41.87 8.08479 36.2548C6.80048 31.1007 6.04997 25.8282 5.84511 20.5205C9.92436 19.937 14.667 18.3302 19.9952 15.7225C22.5345 14.481 24.7274 13.243 26.2743 12.3236C27.8211 13.243 30.014 14.481 32.5534 15.7243C37.8815 18.3215 42.6242 19.937 46.7034 20.5205C46.4986 25.8282 45.748 31.1007 44.4637 36.2548C43.0486 41.87 41.0323 47.0005 38.4652 51.5336Z" fill="white"/>
<path d="M38.5552 41.5731V37.5301H35.7439V18.4956H18.1052V32.4879C18.1052 33.9793 17.8818 35.1914 17.4349 36.1241C16.988 37.0568 16.522 37.5254 16.037 37.5301H14V41.5766H15.3268V42.8977H14V48.3191V49.7268H15.2887V49.3511H17.6653V49.7268H18.954V49.3511H20.8213V49.7268H22.1083V46.3174H30.4383V49.3545V49.7303H31.727V49.3545H34.107V49.7303H35.3975V49.3545H37.2648V49.7303H38.5552V42.8977H37.2284V41.5714L38.5552 41.5731ZM18.3183 42.8389C17.8917 42.8389 17.4747 42.7124 17.12 42.4754C16.7653 42.2385 16.4889 41.9017 16.3257 41.5077C16.1626 41.1137 16.12 40.6801 16.2033 40.2619C16.2867 39.8437 16.4922 39.4596 16.794 39.1582C17.0958 38.8568 17.4802 38.6516 17.8986 38.5686C18.3171 38.4856 18.7507 38.5286 19.1448 38.692C19.5388 38.8554 19.8755 39.132 20.1122 39.4867C20.349 39.8415 20.4752 40.2584 20.4748 40.6849C20.4749 40.9686 20.4188 41.2495 20.3098 41.5116C20.2009 41.7736 20.0412 42.0115 19.84 42.2116C19.6389 42.4118 19.4001 42.5702 19.1374 42.6779C18.8748 42.7855 18.5935 42.8402 18.3096 42.8389H18.3183ZM28.8551 37.1838H23.7105V33.0801C23.7105 30.9192 24.3197 28.6919 25.538 26.3982C26.6443 24.6286 27.75 22.8561 28.8551 21.0807V37.1838ZM34.398 42.8389C33.9714 42.8389 33.5544 42.7124 33.1997 42.4754C32.8451 42.2385 32.5686 41.9017 32.4055 41.5077C32.2423 41.1137 32.1997 40.6801 32.283 40.2619C32.3664 39.8437 32.572 39.4596 32.8737 39.1582C33.1755 38.8568 33.5599 38.6516 33.9784 38.5686C34.3968 38.4856 34.8305 38.5286 35.2245 38.692C35.6185 38.8554 35.9552 39.132 36.192 39.4867C36.4287 39.8415 36.5549 40.2584 36.5546 40.6849C36.5546 40.9679 36.4988 41.2481 36.3904 41.5096C36.282 41.771 36.1231 42.0085 35.9228 42.2086C35.7226 42.4086 35.4848 42.5672 35.2232 42.6754C34.9615 42.7835 34.6811 42.8391 34.398 42.8389Z" fill="white"/>
<defs>
<radialGradient id="paint0_radial_601:1578" cx="0" cy="0" r="1" gradientUnits="userSpaceOnUse" gradientTransform="translate(129.511 0.879248) scale(0.169553)">
<stop offset="0.3" stop-color="#004331"/>
<stop offset="0.91" stop-color="#698929"/>
</radialGradient>
</defs>
</svg>
