<svg width="17" height="17" viewBox="0 0 17 17" fill="none" xmlns="http://www.w3.org/2000/svg">
<path d="M14.0638 1.59766H3.26018C2.40779 1.59766 1.7168 2.28839 1.7168 3.14044V13.94C1.7168 14.792 2.40779 15.4827 3.26018 15.4827H14.0638C14.9162 15.4827 15.6072 14.792 15.6072 13.94V3.14044C15.6072 2.28839 14.9162 1.59766 14.0638 1.59766Z" stroke="black" stroke-width="1.54279" stroke-linecap="round" stroke-linejoin="round"/>
<path d="M5.96033 6.9972C6.59938 6.9972 7.11744 6.47914 7.11744 5.84009C7.11744 5.20104 6.59938 4.68298 5.96033 4.68298C5.32128 4.68298 4.80322 5.20104 4.80322 5.84009C4.80322 6.47914 5.32128 6.9972 5.96033 6.9972Z" stroke="black" stroke-width="1.54279" stroke-linecap="round" stroke-linejoin="round"/>
<path d="M15.607 10.8547L11.7486 6.99768L3.26001 15.483" stroke="black" stroke-width="1.54279" stroke-linecap="round" stroke-linejoin="round"/>
</svg>
