<svg width="1482" height="936" viewBox="0 0 1482 936" fill="none" xmlns="http://www.w3.org/2000/svg">
<path d="M-328.59 201.113L-239.332 355.711H-417.848L-328.59 201.113Z" fill="url(#paint0_linear_601:1005)" fill-opacity="0.1"/>
<path d="M-198.699 347.946L-287.956 193.347L-109.441 193.347L-198.699 347.946Z" fill="url(#paint1_linear_601:1005)" fill-opacity="0.1"/>
<path d="M-68.8076 201.112L20.4501 355.711H-158.065L-68.8076 201.112Z" fill="url(#paint2_linear_601:1005)" fill-opacity="0.1"/>
<path d="M61.0836 347.946L-28.174 193.347L150.341 193.347L61.0836 347.946Z" fill="url(#paint3_linear_601:1005)" fill-opacity="0.1"/>
<path d="M188.151 201.113L277.409 355.711H98.8934L188.151 201.113Z" fill="url(#paint4_linear_601:1005)" fill-opacity="0.1"/>
<path d="M318.042 347.946L228.785 193.347L407.3 193.347L318.042 347.946Z" fill="url(#paint5_linear_601:1005)" fill-opacity="0.1"/>
<path d="M447.933 201.112L537.191 355.711H358.676L447.933 201.112Z" fill="url(#paint6_linear_601:1005)" fill-opacity="0.1"/>
<path d="M577.825 347.946L488.567 193.347L667.082 193.347L577.825 347.946Z" fill="url(#paint7_linear_601:1005)" fill-opacity="0.1"/>
<path d="M704.892 201.112L794.15 355.711H615.635L704.892 201.112Z" fill="url(#paint8_linear_601:1005)" fill-opacity="0.1"/>
<path d="M834.783 347.946L745.526 193.347L924.041 193.347L834.783 347.946Z" fill="url(#paint9_linear_601:1005)" fill-opacity="0.1"/>
<path d="M964.674 201.112L1053.93 355.711H875.417L964.674 201.112Z" fill="url(#paint10_linear_601:1005)" fill-opacity="0.1"/>
<path d="M1094.57 347.946L1005.31 193.347L1183.82 193.347L1094.57 347.946Z" fill="url(#paint11_linear_601:1005)" fill-opacity="0.1"/>
<path d="M1221.63 201.112L1310.89 355.711H1132.38L1221.63 201.112Z" fill="url(#paint12_linear_601:1005)" fill-opacity="0.1"/>
<path d="M1351.52 347.946L1262.27 193.347L1440.78 193.347L1351.52 347.946Z" fill="url(#paint13_linear_601:1005)" fill-opacity="0.1"/>
<path d="M1481.42 201.112L1570.67 355.711H1392.16L1481.42 201.112Z" fill="url(#paint14_linear_601:1005)" fill-opacity="0.1"/>
<path d="M1611.31 347.946L1522.05 193.347L1700.56 193.347L1611.31 347.946Z" fill="url(#paint15_linear_601:1005)" fill-opacity="0.1"/>
<path d="M1738.37 201.112L1827.63 355.711H1649.12L1738.37 201.112Z" fill="url(#paint16_linear_601:1005)" fill-opacity="0.1"/>
<path d="M1868.27 347.946L1779.01 193.347L1957.52 193.347L1868.27 347.946Z" fill="url(#paint17_linear_601:1005)" fill-opacity="0.1"/>
<path d="M1998.16 201.112L2087.41 355.711H1908.9L1998.16 201.112Z" fill="url(#paint18_linear_601:1005)" fill-opacity="0.1"/>
<path d="M2128.05 347.946L2038.79 193.347L2217.31 193.347L2128.05 347.946Z" fill="url(#paint19_linear_601:1005)" fill-opacity="0.1"/>
<path d="M-200.675 7.96959L-111.418 162.568H-289.933L-200.675 7.96959Z" fill="url(#paint20_linear_601:1005)" fill-opacity="0.1"/>
<path d="M-70.7842 154.803L-160.042 0.204348L18.4734 0.204364L-70.7842 154.803Z" fill="url(#paint21_linear_601:1005)" fill-opacity="0.1"/>
<path d="M59.1071 7.96959L148.365 162.568H-30.1505L59.1071 7.96959Z" fill="url(#paint22_linear_601:1005)" fill-opacity="0.1"/>
<path d="M188.998 154.803L99.7407 0.204346L278.256 0.204361L188.998 154.803Z" fill="url(#paint23_linear_601:1005)" fill-opacity="0.1"/>
<path d="M316.066 7.96959L405.323 162.568H226.808L316.066 7.96959Z" fill="url(#paint24_linear_601:1005)" fill-opacity="0.1"/>
<path d="M445.957 154.803L356.699 0.204348L535.214 0.204364L445.957 154.803Z" fill="url(#paint25_linear_601:1005)" fill-opacity="0.1"/>
<path d="M575.848 7.96959L665.106 162.568H486.59L575.848 7.96959Z" fill="url(#paint26_linear_601:1005)" fill-opacity="0.1"/>
<path d="M705.739 154.803L616.482 0.204351L794.997 0.204367L705.739 154.803Z" fill="url(#paint27_linear_601:1005)" fill-opacity="0.1"/>
<path d="M832.807 7.96959L922.064 162.568H743.549L832.807 7.96959Z" fill="url(#paint28_linear_601:1005)" fill-opacity="0.1"/>
<path d="M962.698 154.803L873.44 0.204348L1051.96 0.204364L962.698 154.803Z" fill="url(#paint29_linear_601:1005)" fill-opacity="0.1"/>
<path d="M1092.59 7.96959L1181.85 162.568H1003.33L1092.59 7.96959Z" fill="url(#paint30_linear_601:1005)" fill-opacity="0.1"/>
<path d="M1222.48 154.803L1133.22 0.204348L1311.74 0.204364L1222.48 154.803Z" fill="url(#paint31_linear_601:1005)" fill-opacity="0.1"/>
<path d="M1349.55 7.96959L1438.81 162.568H1260.29L1349.55 7.96959Z" fill="url(#paint32_linear_601:1005)" fill-opacity="0.1"/>
<path d="M1479.44 154.803L1390.18 0.204348L1568.7 0.204364L1479.44 154.803Z" fill="url(#paint33_linear_601:1005)" fill-opacity="0.1"/>
<path d="M1609.33 7.96959L1698.59 162.568H1520.07L1609.33 7.96959Z" fill="url(#paint34_linear_601:1005)" fill-opacity="0.1"/>
<path d="M1739.22 154.803L1649.96 0.204348L1828.48 0.204364L1739.22 154.803Z" fill="url(#paint35_linear_601:1005)" fill-opacity="0.1"/>
<path d="M1866.29 7.96959L1955.55 162.568H1777.03L1866.29 7.96959Z" fill="url(#paint36_linear_601:1005)" fill-opacity="0.1"/>
<path d="M1996.18 154.803L1906.92 0.204348L2085.44 0.204364L1996.18 154.803Z" fill="url(#paint37_linear_601:1005)" fill-opacity="0.1"/>
<path d="M2126.07 7.96959L2215.33 162.568H2036.81L2126.07 7.96959Z" fill="url(#paint38_linear_601:1005)" fill-opacity="0.1"/>
<path d="M2255.96 154.803L2166.7 0.204348L2345.22 0.204364L2255.96 154.803Z" fill="url(#paint39_linear_601:1005)" fill-opacity="0.1"/>
<path d="M-200.675 394.255L-111.418 548.854H-289.933L-200.675 394.255Z" fill="url(#paint40_linear_601:1005)" fill-opacity="0.1"/>
<path d="M-70.7842 541.088L-160.042 386.49L18.4734 386.49L-70.7842 541.088Z" fill="url(#paint41_linear_601:1005)" fill-opacity="0.1"/>
<path d="M59.1071 394.255L148.365 548.854H-30.1505L59.1071 394.255Z" fill="url(#paint42_linear_601:1005)" fill-opacity="0.1"/>
<path d="M188.998 541.088L99.7407 386.49L278.256 386.49L188.998 541.088Z" fill="url(#paint43_linear_601:1005)" fill-opacity="0.1"/>
<path d="M316.066 394.255L405.323 548.854H226.808L316.066 394.255Z" fill="url(#paint44_linear_601:1005)" fill-opacity="0.1"/>
<path d="M445.957 541.088L356.699 386.49L535.214 386.49L445.957 541.088Z" fill="url(#paint45_linear_601:1005)" fill-opacity="0.1"/>
<path d="M575.848 394.255L665.106 548.854H486.59L575.848 394.255Z" fill="url(#paint46_linear_601:1005)" fill-opacity="0.1"/>
<path d="M705.739 541.088L616.482 386.49L794.997 386.49L705.739 541.088Z" fill="url(#paint47_linear_601:1005)" fill-opacity="0.1"/>
<path d="M832.807 394.255L922.064 548.854H743.549L832.807 394.255Z" fill="url(#paint48_linear_601:1005)" fill-opacity="0.1"/>
<path d="M962.698 541.088L873.44 386.49L1051.96 386.49L962.698 541.088Z" fill="url(#paint49_linear_601:1005)" fill-opacity="0.1"/>
<path d="M1092.59 394.255L1181.85 548.853H1003.33L1092.59 394.255Z" fill="url(#paint50_linear_601:1005)" fill-opacity="0.1"/>
<path d="M1222.48 541.088L1133.22 386.489L1311.74 386.489L1222.48 541.088Z" fill="url(#paint51_linear_601:1005)" fill-opacity="0.1"/>
<path d="M1349.55 394.255L1438.81 548.854H1260.29L1349.55 394.255Z" fill="url(#paint52_linear_601:1005)" fill-opacity="0.1"/>
<path d="M1479.44 541.088L1390.18 386.49L1568.7 386.49L1479.44 541.088Z" fill="url(#paint53_linear_601:1005)" fill-opacity="0.1"/>
<path d="M1609.33 394.255L1698.59 548.853H1520.07L1609.33 394.255Z" fill="url(#paint54_linear_601:1005)" fill-opacity="0.1"/>
<path d="M1739.22 541.088L1649.96 386.489L1828.48 386.489L1739.22 541.088Z" fill="url(#paint55_linear_601:1005)" fill-opacity="0.1"/>
<path d="M1866.29 394.255L1955.55 548.854H1777.03L1866.29 394.255Z" fill="url(#paint56_linear_601:1005)" fill-opacity="0.1"/>
<path d="M1996.18 541.088L1906.92 386.49L2085.44 386.49L1996.18 541.088Z" fill="url(#paint57_linear_601:1005)" fill-opacity="0.1"/>
<path d="M2126.07 394.255L2215.33 548.853H2036.81L2126.07 394.255Z" fill="url(#paint58_linear_601:1005)" fill-opacity="0.1"/>
<path d="M2255.96 541.088L2166.7 386.489L2345.22 386.489L2255.96 541.088Z" fill="url(#paint59_linear_601:1005)" fill-opacity="0.1"/>
<path d="M-68.5252 589.656L20.7324 744.255H-157.783L-68.5252 589.656Z" fill="url(#paint60_linear_601:1005)" fill-opacity="0.1"/>
<path d="M61.366 736.49L-27.8916 581.891H150.624L61.366 736.49Z" fill="url(#paint61_linear_601:1005)" fill-opacity="0.1"/>
<path d="M191.257 589.656L280.515 744.255H101.999L191.257 589.656Z" fill="url(#paint62_linear_601:1005)" fill-opacity="0.1"/>
<path d="M321.148 736.49L231.891 581.891H410.406L321.148 736.49Z" fill="url(#paint63_linear_601:1005)" fill-opacity="0.1"/>
<path d="M448.216 589.656L537.474 744.255H358.958L448.216 589.656Z" fill="url(#paint64_linear_601:1005)" fill-opacity="0.1"/>
<path d="M578.107 736.49L488.849 581.891H667.365L578.107 736.49Z" fill="url(#paint65_linear_601:1005)" fill-opacity="0.1"/>
<path d="M707.998 589.656L797.256 744.255H618.741L707.998 589.656Z" fill="url(#paint66_linear_601:1005)" fill-opacity="0.1"/>
<path d="M837.89 736.49L748.632 581.891H927.147L837.89 736.49Z" fill="url(#paint67_linear_601:1005)" fill-opacity="0.1"/>
<path d="M964.957 589.656L1054.21 744.255H875.699L964.957 589.656Z" fill="url(#paint68_linear_601:1005)" fill-opacity="0.1"/>
<path d="M1094.85 736.49L1005.59 581.891H1184.11L1094.85 736.49Z" fill="url(#paint69_linear_601:1005)" fill-opacity="0.1"/>
<path d="M1224.74 589.656L1314 744.255H1135.48L1224.74 589.656Z" fill="url(#paint70_linear_601:1005)" fill-opacity="0.1"/>
<path d="M1354.63 736.49L1265.37 581.891H1443.89L1354.63 736.49Z" fill="url(#paint71_linear_601:1005)" fill-opacity="0.1"/>
<path d="M1481.7 589.656L1570.96 744.255H1392.44L1481.7 589.656Z" fill="url(#paint72_linear_601:1005)" fill-opacity="0.1"/>
<path d="M1611.59 736.49L1522.33 581.891H1700.85L1611.59 736.49Z" fill="url(#paint73_linear_601:1005)" fill-opacity="0.1"/>
<path d="M1741.48 589.656L1830.74 744.255H1652.22L1741.48 589.656Z" fill="url(#paint74_linear_601:1005)" fill-opacity="0.1"/>
<path d="M1871.37 736.49L1782.11 581.891H1960.63L1871.37 736.49Z" fill="url(#paint75_linear_601:1005)" fill-opacity="0.1"/>
<path d="M1998.44 589.656L2087.7 744.255H1909.18L1998.44 589.656Z" fill="url(#paint76_linear_601:1005)" fill-opacity="0.1"/>
<path d="M2128.33 736.49L2039.07 581.891H2217.59L2128.33 736.49Z" fill="url(#paint77_linear_601:1005)" fill-opacity="0.1"/>
<path d="M2258.22 589.656L2347.48 744.255H2168.96L2258.22 589.656Z" fill="url(#paint78_linear_601:1005)" fill-opacity="0.1"/>
<path d="M2388.11 736.49L2298.85 581.891H2477.37L2388.11 736.49Z" fill="url(#paint79_linear_601:1005)" fill-opacity="0.1"/>
<path d="M-200.675 780.54L-111.418 935.138H-289.933L-200.675 780.54Z" fill="url(#paint80_linear_601:1005)" fill-opacity="0.1"/>
<path d="M-70.7841 927.373L-160.042 772.774H18.4735L-70.7841 927.373Z" fill="url(#paint81_linear_601:1005)" fill-opacity="0.1"/>
<path d="M59.1072 780.54L148.365 935.139H-30.1505L59.1072 780.54Z" fill="url(#paint82_linear_601:1005)" fill-opacity="0.1"/>
<path d="M188.998 927.373L99.7407 772.775H278.256L188.998 927.373Z" fill="url(#paint83_linear_601:1005)" fill-opacity="0.1"/>
<path d="M316.065 780.54L405.323 935.138H226.808L316.065 780.54Z" fill="url(#paint84_linear_601:1005)" fill-opacity="0.1"/>
<path d="M445.957 927.373L356.699 772.775H535.214L445.957 927.373Z" fill="url(#paint85_linear_601:1005)" fill-opacity="0.1"/>
<path d="M575.848 780.54L665.105 935.139H486.59L575.848 780.54Z" fill="url(#paint86_linear_601:1005)" fill-opacity="0.1"/>
<path d="M705.739 927.373L616.481 772.775H794.997L705.739 927.373Z" fill="url(#paint87_linear_601:1005)" fill-opacity="0.1"/>
<path d="M832.807 780.54L922.064 935.138H743.549L832.807 780.54Z" fill="url(#paint88_linear_601:1005)" fill-opacity="0.1"/>
<path d="M962.698 927.373L873.44 772.775H1051.96L962.698 927.373Z" fill="url(#paint89_linear_601:1005)" fill-opacity="0.1"/>
<path d="M1092.59 780.54L1181.85 935.139H1003.33L1092.59 780.54Z" fill="url(#paint90_linear_601:1005)" fill-opacity="0.1"/>
<path d="M1222.48 927.373L1133.22 772.775H1311.74L1222.48 927.373Z" fill="url(#paint91_linear_601:1005)" fill-opacity="0.1"/>
<path d="M1349.55 780.54L1438.81 935.138H1260.29L1349.55 780.54Z" fill="url(#paint92_linear_601:1005)" fill-opacity="0.1"/>
<path d="M1479.44 927.373L1390.18 772.775H1568.7L1479.44 927.373Z" fill="url(#paint93_linear_601:1005)" fill-opacity="0.1"/>
<path d="M1609.33 780.54L1698.59 935.139H1520.07L1609.33 780.54Z" fill="url(#paint94_linear_601:1005)" fill-opacity="0.1"/>
<path d="M1739.22 927.373L1649.96 772.775H1828.48L1739.22 927.373Z" fill="url(#paint95_linear_601:1005)" fill-opacity="0.1"/>
<path d="M1866.29 780.54L1955.55 935.138H1777.03L1866.29 780.54Z" fill="url(#paint96_linear_601:1005)" fill-opacity="0.1"/>
<path d="M1996.18 927.373L1906.92 772.775H2085.44L1996.18 927.373Z" fill="url(#paint97_linear_601:1005)" fill-opacity="0.1"/>
<path d="M2126.07 780.54L2215.33 935.139H2036.81L2126.07 780.54Z" fill="url(#paint98_linear_601:1005)" fill-opacity="0.1"/>
<path d="M2255.96 927.373L2166.7 772.775H2345.22L2255.96 927.373Z" fill="url(#paint99_linear_601:1005)" fill-opacity="0.1"/>
<defs>
<linearGradient id="paint0_linear_601:1005" x1="1029.76" y1="-699.328" x2="1029.76" y2="1290.17" gradientUnits="userSpaceOnUse">
<stop stop-color="#B6B6B6"/>
<stop offset="1" stop-color="#B6B6B6" stop-opacity="0"/>
</linearGradient>
<linearGradient id="paint1_linear_601:1005" x1="1029.76" y1="-699.328" x2="1029.76" y2="1290.17" gradientUnits="userSpaceOnUse">
<stop stop-color="#B6B6B6"/>
<stop offset="1" stop-color="#B6B6B6" stop-opacity="0"/>
</linearGradient>
<linearGradient id="paint2_linear_601:1005" x1="1029.76" y1="-699.328" x2="1029.76" y2="1290.17" gradientUnits="userSpaceOnUse">
<stop stop-color="#B6B6B6"/>
<stop offset="1" stop-color="#B6B6B6" stop-opacity="0"/>
</linearGradient>
<linearGradient id="paint3_linear_601:1005" x1="1029.76" y1="-699.328" x2="1029.76" y2="1290.17" gradientUnits="userSpaceOnUse">
<stop stop-color="#B6B6B6"/>
<stop offset="1" stop-color="#B6B6B6" stop-opacity="0"/>
</linearGradient>
<linearGradient id="paint4_linear_601:1005" x1="1029.76" y1="-699.328" x2="1029.76" y2="1290.17" gradientUnits="userSpaceOnUse">
<stop stop-color="#B6B6B6"/>
<stop offset="1" stop-color="#B6B6B6" stop-opacity="0"/>
</linearGradient>
<linearGradient id="paint5_linear_601:1005" x1="1029.76" y1="-699.328" x2="1029.76" y2="1290.17" gradientUnits="userSpaceOnUse">
<stop stop-color="#B6B6B6"/>
<stop offset="1" stop-color="#B6B6B6" stop-opacity="0"/>
</linearGradient>
<linearGradient id="paint6_linear_601:1005" x1="1029.76" y1="-699.328" x2="1029.76" y2="1290.17" gradientUnits="userSpaceOnUse">
<stop stop-color="#B6B6B6"/>
<stop offset="1" stop-color="#B6B6B6" stop-opacity="0"/>
</linearGradient>
<linearGradient id="paint7_linear_601:1005" x1="1029.76" y1="-699.328" x2="1029.76" y2="1290.17" gradientUnits="userSpaceOnUse">
<stop stop-color="#B6B6B6"/>
<stop offset="1" stop-color="#B6B6B6" stop-opacity="0"/>
</linearGradient>
<linearGradient id="paint8_linear_601:1005" x1="1029.76" y1="-699.328" x2="1029.76" y2="1290.17" gradientUnits="userSpaceOnUse">
<stop stop-color="#B6B6B6"/>
<stop offset="1" stop-color="#B6B6B6" stop-opacity="0"/>
</linearGradient>
<linearGradient id="paint9_linear_601:1005" x1="1029.76" y1="-699.328" x2="1029.76" y2="1290.17" gradientUnits="userSpaceOnUse">
<stop stop-color="#B6B6B6"/>
<stop offset="1" stop-color="#B6B6B6" stop-opacity="0"/>
</linearGradient>
<linearGradient id="paint10_linear_601:1005" x1="1029.76" y1="-699.328" x2="1029.76" y2="1290.17" gradientUnits="userSpaceOnUse">
<stop stop-color="#B6B6B6"/>
<stop offset="1" stop-color="#B6B6B6" stop-opacity="0"/>
</linearGradient>
<linearGradient id="paint11_linear_601:1005" x1="1029.76" y1="-699.328" x2="1029.76" y2="1290.17" gradientUnits="userSpaceOnUse">
<stop stop-color="#B6B6B6"/>
<stop offset="1" stop-color="#B6B6B6" stop-opacity="0"/>
</linearGradient>
<linearGradient id="paint12_linear_601:1005" x1="1029.76" y1="-699.328" x2="1029.76" y2="1290.17" gradientUnits="userSpaceOnUse">
<stop stop-color="#B6B6B6"/>
<stop offset="1" stop-color="#B6B6B6" stop-opacity="0"/>
</linearGradient>
<linearGradient id="paint13_linear_601:1005" x1="1029.76" y1="-699.328" x2="1029.76" y2="1290.17" gradientUnits="userSpaceOnUse">
<stop stop-color="#B6B6B6"/>
<stop offset="1" stop-color="#B6B6B6" stop-opacity="0"/>
</linearGradient>
<linearGradient id="paint14_linear_601:1005" x1="1029.76" y1="-699.328" x2="1029.76" y2="1290.17" gradientUnits="userSpaceOnUse">
<stop stop-color="#B6B6B6"/>
<stop offset="1" stop-color="#B6B6B6" stop-opacity="0"/>
</linearGradient>
<linearGradient id="paint15_linear_601:1005" x1="1029.76" y1="-699.328" x2="1029.76" y2="1290.17" gradientUnits="userSpaceOnUse">
<stop stop-color="#B6B6B6"/>
<stop offset="1" stop-color="#B6B6B6" stop-opacity="0"/>
</linearGradient>
<linearGradient id="paint16_linear_601:1005" x1="1029.76" y1="-699.328" x2="1029.76" y2="1290.17" gradientUnits="userSpaceOnUse">
<stop stop-color="#B6B6B6"/>
<stop offset="1" stop-color="#B6B6B6" stop-opacity="0"/>
</linearGradient>
<linearGradient id="paint17_linear_601:1005" x1="1029.76" y1="-699.328" x2="1029.76" y2="1290.17" gradientUnits="userSpaceOnUse">
<stop stop-color="#B6B6B6"/>
<stop offset="1" stop-color="#B6B6B6" stop-opacity="0"/>
</linearGradient>
<linearGradient id="paint18_linear_601:1005" x1="1029.76" y1="-699.328" x2="1029.76" y2="1290.17" gradientUnits="userSpaceOnUse">
<stop stop-color="#B6B6B6"/>
<stop offset="1" stop-color="#B6B6B6" stop-opacity="0"/>
</linearGradient>
<linearGradient id="paint19_linear_601:1005" x1="1029.76" y1="-699.328" x2="1029.76" y2="1290.17" gradientUnits="userSpaceOnUse">
<stop stop-color="#B6B6B6"/>
<stop offset="1" stop-color="#B6B6B6" stop-opacity="0"/>
</linearGradient>
<linearGradient id="paint20_linear_601:1005" x1="1029.76" y1="-699.328" x2="1029.76" y2="1290.17" gradientUnits="userSpaceOnUse">
<stop stop-color="#B6B6B6"/>
<stop offset="1" stop-color="#B6B6B6" stop-opacity="0"/>
</linearGradient>
<linearGradient id="paint21_linear_601:1005" x1="1029.76" y1="-699.328" x2="1029.76" y2="1290.17" gradientUnits="userSpaceOnUse">
<stop stop-color="#B6B6B6"/>
<stop offset="1" stop-color="#B6B6B6" stop-opacity="0"/>
</linearGradient>
<linearGradient id="paint22_linear_601:1005" x1="1029.76" y1="-699.328" x2="1029.76" y2="1290.17" gradientUnits="userSpaceOnUse">
<stop stop-color="#B6B6B6"/>
<stop offset="1" stop-color="#B6B6B6" stop-opacity="0"/>
</linearGradient>
<linearGradient id="paint23_linear_601:1005" x1="1029.76" y1="-699.328" x2="1029.76" y2="1290.17" gradientUnits="userSpaceOnUse">
<stop stop-color="#B6B6B6"/>
<stop offset="1" stop-color="#B6B6B6" stop-opacity="0"/>
</linearGradient>
<linearGradient id="paint24_linear_601:1005" x1="1029.76" y1="-699.328" x2="1029.76" y2="1290.17" gradientUnits="userSpaceOnUse">
<stop stop-color="#B6B6B6"/>
<stop offset="1" stop-color="#B6B6B6" stop-opacity="0"/>
</linearGradient>
<linearGradient id="paint25_linear_601:1005" x1="1029.76" y1="-699.328" x2="1029.76" y2="1290.17" gradientUnits="userSpaceOnUse">
<stop stop-color="#B6B6B6"/>
<stop offset="1" stop-color="#B6B6B6" stop-opacity="0"/>
</linearGradient>
<linearGradient id="paint26_linear_601:1005" x1="1029.76" y1="-699.328" x2="1029.76" y2="1290.17" gradientUnits="userSpaceOnUse">
<stop stop-color="#B6B6B6"/>
<stop offset="1" stop-color="#B6B6B6" stop-opacity="0"/>
</linearGradient>
<linearGradient id="paint27_linear_601:1005" x1="1029.76" y1="-699.328" x2="1029.76" y2="1290.17" gradientUnits="userSpaceOnUse">
<stop stop-color="#B6B6B6"/>
<stop offset="1" stop-color="#B6B6B6" stop-opacity="0"/>
</linearGradient>
<linearGradient id="paint28_linear_601:1005" x1="1029.76" y1="-699.328" x2="1029.76" y2="1290.17" gradientUnits="userSpaceOnUse">
<stop stop-color="#B6B6B6"/>
<stop offset="1" stop-color="#B6B6B6" stop-opacity="0"/>
</linearGradient>
<linearGradient id="paint29_linear_601:1005" x1="1029.76" y1="-699.328" x2="1029.76" y2="1290.17" gradientUnits="userSpaceOnUse">
<stop stop-color="#B6B6B6"/>
<stop offset="1" stop-color="#B6B6B6" stop-opacity="0"/>
</linearGradient>
<linearGradient id="paint30_linear_601:1005" x1="1029.76" y1="-699.328" x2="1029.76" y2="1290.17" gradientUnits="userSpaceOnUse">
<stop stop-color="#B6B6B6"/>
<stop offset="1" stop-color="#B6B6B6" stop-opacity="0"/>
</linearGradient>
<linearGradient id="paint31_linear_601:1005" x1="1029.76" y1="-699.328" x2="1029.76" y2="1290.17" gradientUnits="userSpaceOnUse">
<stop stop-color="#B6B6B6"/>
<stop offset="1" stop-color="#B6B6B6" stop-opacity="0"/>
</linearGradient>
<linearGradient id="paint32_linear_601:1005" x1="1029.76" y1="-699.328" x2="1029.76" y2="1290.17" gradientUnits="userSpaceOnUse">
<stop stop-color="#B6B6B6"/>
<stop offset="1" stop-color="#B6B6B6" stop-opacity="0"/>
</linearGradient>
<linearGradient id="paint33_linear_601:1005" x1="1029.76" y1="-699.328" x2="1029.76" y2="1290.17" gradientUnits="userSpaceOnUse">
<stop stop-color="#B6B6B6"/>
<stop offset="1" stop-color="#B6B6B6" stop-opacity="0"/>
</linearGradient>
<linearGradient id="paint34_linear_601:1005" x1="1029.76" y1="-699.328" x2="1029.76" y2="1290.17" gradientUnits="userSpaceOnUse">
<stop stop-color="#B6B6B6"/>
<stop offset="1" stop-color="#B6B6B6" stop-opacity="0"/>
</linearGradient>
<linearGradient id="paint35_linear_601:1005" x1="1029.76" y1="-699.328" x2="1029.76" y2="1290.17" gradientUnits="userSpaceOnUse">
<stop stop-color="#B6B6B6"/>
<stop offset="1" stop-color="#B6B6B6" stop-opacity="0"/>
</linearGradient>
<linearGradient id="paint36_linear_601:1005" x1="1029.76" y1="-699.328" x2="1029.76" y2="1290.17" gradientUnits="userSpaceOnUse">
<stop stop-color="#B6B6B6"/>
<stop offset="1" stop-color="#B6B6B6" stop-opacity="0"/>
</linearGradient>
<linearGradient id="paint37_linear_601:1005" x1="1029.76" y1="-699.328" x2="1029.76" y2="1290.17" gradientUnits="userSpaceOnUse">
<stop stop-color="#B6B6B6"/>
<stop offset="1" stop-color="#B6B6B6" stop-opacity="0"/>
</linearGradient>
<linearGradient id="paint38_linear_601:1005" x1="1029.76" y1="-699.328" x2="1029.76" y2="1290.17" gradientUnits="userSpaceOnUse">
<stop stop-color="#B6B6B6"/>
<stop offset="1" stop-color="#B6B6B6" stop-opacity="0"/>
</linearGradient>
<linearGradient id="paint39_linear_601:1005" x1="1029.76" y1="-699.328" x2="1029.76" y2="1290.17" gradientUnits="userSpaceOnUse">
<stop stop-color="#B6B6B6"/>
<stop offset="1" stop-color="#B6B6B6" stop-opacity="0"/>
</linearGradient>
<linearGradient id="paint40_linear_601:1005" x1="1029.76" y1="-699.328" x2="1029.76" y2="1290.17" gradientUnits="userSpaceOnUse">
<stop stop-color="#B6B6B6"/>
<stop offset="1" stop-color="#B6B6B6" stop-opacity="0"/>
</linearGradient>
<linearGradient id="paint41_linear_601:1005" x1="1029.76" y1="-699.328" x2="1029.76" y2="1290.17" gradientUnits="userSpaceOnUse">
<stop stop-color="#B6B6B6"/>
<stop offset="1" stop-color="#B6B6B6" stop-opacity="0"/>
</linearGradient>
<linearGradient id="paint42_linear_601:1005" x1="1029.76" y1="-699.328" x2="1029.76" y2="1290.17" gradientUnits="userSpaceOnUse">
<stop stop-color="#B6B6B6"/>
<stop offset="1" stop-color="#B6B6B6" stop-opacity="0"/>
</linearGradient>
<linearGradient id="paint43_linear_601:1005" x1="1029.76" y1="-699.328" x2="1029.76" y2="1290.17" gradientUnits="userSpaceOnUse">
<stop stop-color="#B6B6B6"/>
<stop offset="1" stop-color="#B6B6B6" stop-opacity="0"/>
</linearGradient>
<linearGradient id="paint44_linear_601:1005" x1="1029.76" y1="-699.328" x2="1029.76" y2="1290.17" gradientUnits="userSpaceOnUse">
<stop stop-color="#B6B6B6"/>
<stop offset="1" stop-color="#B6B6B6" stop-opacity="0"/>
</linearGradient>
<linearGradient id="paint45_linear_601:1005" x1="1029.76" y1="-699.328" x2="1029.76" y2="1290.17" gradientUnits="userSpaceOnUse">
<stop stop-color="#B6B6B6"/>
<stop offset="1" stop-color="#B6B6B6" stop-opacity="0"/>
</linearGradient>
<linearGradient id="paint46_linear_601:1005" x1="1029.76" y1="-699.328" x2="1029.76" y2="1290.17" gradientUnits="userSpaceOnUse">
<stop stop-color="#B6B6B6"/>
<stop offset="1" stop-color="#B6B6B6" stop-opacity="0"/>
</linearGradient>
<linearGradient id="paint47_linear_601:1005" x1="1029.76" y1="-699.328" x2="1029.76" y2="1290.17" gradientUnits="userSpaceOnUse">
<stop stop-color="#B6B6B6"/>
<stop offset="1" stop-color="#B6B6B6" stop-opacity="0"/>
</linearGradient>
<linearGradient id="paint48_linear_601:1005" x1="1029.76" y1="-699.328" x2="1029.76" y2="1290.17" gradientUnits="userSpaceOnUse">
<stop stop-color="#B6B6B6"/>
<stop offset="1" stop-color="#B6B6B6" stop-opacity="0"/>
</linearGradient>
<linearGradient id="paint49_linear_601:1005" x1="1029.76" y1="-699.328" x2="1029.76" y2="1290.17" gradientUnits="userSpaceOnUse">
<stop stop-color="#B6B6B6"/>
<stop offset="1" stop-color="#B6B6B6" stop-opacity="0"/>
</linearGradient>
<linearGradient id="paint50_linear_601:1005" x1="1029.76" y1="-699.328" x2="1029.76" y2="1290.17" gradientUnits="userSpaceOnUse">
<stop stop-color="#B6B6B6"/>
<stop offset="1" stop-color="#B6B6B6" stop-opacity="0"/>
</linearGradient>
<linearGradient id="paint51_linear_601:1005" x1="1029.76" y1="-699.328" x2="1029.76" y2="1290.17" gradientUnits="userSpaceOnUse">
<stop stop-color="#B6B6B6"/>
<stop offset="1" stop-color="#B6B6B6" stop-opacity="0"/>
</linearGradient>
<linearGradient id="paint52_linear_601:1005" x1="1029.76" y1="-699.328" x2="1029.76" y2="1290.17" gradientUnits="userSpaceOnUse">
<stop stop-color="#B6B6B6"/>
<stop offset="1" stop-color="#B6B6B6" stop-opacity="0"/>
</linearGradient>
<linearGradient id="paint53_linear_601:1005" x1="1029.76" y1="-699.328" x2="1029.76" y2="1290.17" gradientUnits="userSpaceOnUse">
<stop stop-color="#B6B6B6"/>
<stop offset="1" stop-color="#B6B6B6" stop-opacity="0"/>
</linearGradient>
<linearGradient id="paint54_linear_601:1005" x1="1029.76" y1="-699.328" x2="1029.76" y2="1290.17" gradientUnits="userSpaceOnUse">
<stop stop-color="#B6B6B6"/>
<stop offset="1" stop-color="#B6B6B6" stop-opacity="0"/>
</linearGradient>
<linearGradient id="paint55_linear_601:1005" x1="1029.76" y1="-699.328" x2="1029.76" y2="1290.17" gradientUnits="userSpaceOnUse">
<stop stop-color="#B6B6B6"/>
<stop offset="1" stop-color="#B6B6B6" stop-opacity="0"/>
</linearGradient>
<linearGradient id="paint56_linear_601:1005" x1="1029.76" y1="-699.328" x2="1029.76" y2="1290.17" gradientUnits="userSpaceOnUse">
<stop stop-color="#B6B6B6"/>
<stop offset="1" stop-color="#B6B6B6" stop-opacity="0"/>
</linearGradient>
<linearGradient id="paint57_linear_601:1005" x1="1029.76" y1="-699.328" x2="1029.76" y2="1290.17" gradientUnits="userSpaceOnUse">
<stop stop-color="#B6B6B6"/>
<stop offset="1" stop-color="#B6B6B6" stop-opacity="0"/>
</linearGradient>
<linearGradient id="paint58_linear_601:1005" x1="1029.76" y1="-699.328" x2="1029.76" y2="1290.17" gradientUnits="userSpaceOnUse">
<stop stop-color="#B6B6B6"/>
<stop offset="1" stop-color="#B6B6B6" stop-opacity="0"/>
</linearGradient>
<linearGradient id="paint59_linear_601:1005" x1="1029.76" y1="-699.328" x2="1029.76" y2="1290.17" gradientUnits="userSpaceOnUse">
<stop stop-color="#B6B6B6"/>
<stop offset="1" stop-color="#B6B6B6" stop-opacity="0"/>
</linearGradient>
<linearGradient id="paint60_linear_601:1005" x1="1029.76" y1="-699.328" x2="1029.76" y2="1290.17" gradientUnits="userSpaceOnUse">
<stop stop-color="#B6B6B6"/>
<stop offset="1" stop-color="#B6B6B6" stop-opacity="0"/>
</linearGradient>
<linearGradient id="paint61_linear_601:1005" x1="1029.76" y1="-699.328" x2="1029.76" y2="1290.17" gradientUnits="userSpaceOnUse">
<stop stop-color="#B6B6B6"/>
<stop offset="1" stop-color="#B6B6B6" stop-opacity="0"/>
</linearGradient>
<linearGradient id="paint62_linear_601:1005" x1="1029.76" y1="-699.328" x2="1029.76" y2="1290.17" gradientUnits="userSpaceOnUse">
<stop stop-color="#B6B6B6"/>
<stop offset="1" stop-color="#B6B6B6" stop-opacity="0"/>
</linearGradient>
<linearGradient id="paint63_linear_601:1005" x1="1029.76" y1="-699.328" x2="1029.76" y2="1290.17" gradientUnits="userSpaceOnUse">
<stop stop-color="#B6B6B6"/>
<stop offset="1" stop-color="#B6B6B6" stop-opacity="0"/>
</linearGradient>
<linearGradient id="paint64_linear_601:1005" x1="1029.76" y1="-699.328" x2="1029.76" y2="1290.17" gradientUnits="userSpaceOnUse">
<stop stop-color="#B6B6B6"/>
<stop offset="1" stop-color="#B6B6B6" stop-opacity="0"/>
</linearGradient>
<linearGradient id="paint65_linear_601:1005" x1="1029.76" y1="-699.328" x2="1029.76" y2="1290.17" gradientUnits="userSpaceOnUse">
<stop stop-color="#B6B6B6"/>
<stop offset="1" stop-color="#B6B6B6" stop-opacity="0"/>
</linearGradient>
<linearGradient id="paint66_linear_601:1005" x1="1029.76" y1="-699.328" x2="1029.76" y2="1290.17" gradientUnits="userSpaceOnUse">
<stop stop-color="#B6B6B6"/>
<stop offset="1" stop-color="#B6B6B6" stop-opacity="0"/>
</linearGradient>
<linearGradient id="paint67_linear_601:1005" x1="1029.76" y1="-699.328" x2="1029.76" y2="1290.17" gradientUnits="userSpaceOnUse">
<stop stop-color="#B6B6B6"/>
<stop offset="1" stop-color="#B6B6B6" stop-opacity="0"/>
</linearGradient>
<linearGradient id="paint68_linear_601:1005" x1="1029.76" y1="-699.328" x2="1029.76" y2="1290.17" gradientUnits="userSpaceOnUse">
<stop stop-color="#B6B6B6"/>
<stop offset="1" stop-color="#B6B6B6" stop-opacity="0"/>
</linearGradient>
<linearGradient id="paint69_linear_601:1005" x1="1029.76" y1="-699.328" x2="1029.76" y2="1290.17" gradientUnits="userSpaceOnUse">
<stop stop-color="#B6B6B6"/>
<stop offset="1" stop-color="#B6B6B6" stop-opacity="0"/>
</linearGradient>
<linearGradient id="paint70_linear_601:1005" x1="1029.76" y1="-699.328" x2="1029.76" y2="1290.17" gradientUnits="userSpaceOnUse">
<stop stop-color="#B6B6B6"/>
<stop offset="1" stop-color="#B6B6B6" stop-opacity="0"/>
</linearGradient>
<linearGradient id="paint71_linear_601:1005" x1="1029.76" y1="-699.328" x2="1029.76" y2="1290.17" gradientUnits="userSpaceOnUse">
<stop stop-color="#B6B6B6"/>
<stop offset="1" stop-color="#B6B6B6" stop-opacity="0"/>
</linearGradient>
<linearGradient id="paint72_linear_601:1005" x1="1029.76" y1="-699.328" x2="1029.76" y2="1290.17" gradientUnits="userSpaceOnUse">
<stop stop-color="#B6B6B6"/>
<stop offset="1" stop-color="#B6B6B6" stop-opacity="0"/>
</linearGradient>
<linearGradient id="paint73_linear_601:1005" x1="1029.76" y1="-699.328" x2="1029.76" y2="1290.17" gradientUnits="userSpaceOnUse">
<stop stop-color="#B6B6B6"/>
<stop offset="1" stop-color="#B6B6B6" stop-opacity="0"/>
</linearGradient>
<linearGradient id="paint74_linear_601:1005" x1="1029.76" y1="-699.328" x2="1029.76" y2="1290.17" gradientUnits="userSpaceOnUse">
<stop stop-color="#B6B6B6"/>
<stop offset="1" stop-color="#B6B6B6" stop-opacity="0"/>
</linearGradient>
<linearGradient id="paint75_linear_601:1005" x1="1029.76" y1="-699.328" x2="1029.76" y2="1290.17" gradientUnits="userSpaceOnUse">
<stop stop-color="#B6B6B6"/>
<stop offset="1" stop-color="#B6B6B6" stop-opacity="0"/>
</linearGradient>
<linearGradient id="paint76_linear_601:1005" x1="1029.76" y1="-699.328" x2="1029.76" y2="1290.17" gradientUnits="userSpaceOnUse">
<stop stop-color="#B6B6B6"/>
<stop offset="1" stop-color="#B6B6B6" stop-opacity="0"/>
</linearGradient>
<linearGradient id="paint77_linear_601:1005" x1="1029.76" y1="-699.328" x2="1029.76" y2="1290.17" gradientUnits="userSpaceOnUse">
<stop stop-color="#B6B6B6"/>
<stop offset="1" stop-color="#B6B6B6" stop-opacity="0"/>
</linearGradient>
<linearGradient id="paint78_linear_601:1005" x1="1029.76" y1="-699.328" x2="1029.76" y2="1290.17" gradientUnits="userSpaceOnUse">
<stop stop-color="#B6B6B6"/>
<stop offset="1" stop-color="#B6B6B6" stop-opacity="0"/>
</linearGradient>
<linearGradient id="paint79_linear_601:1005" x1="1029.76" y1="-699.328" x2="1029.76" y2="1290.17" gradientUnits="userSpaceOnUse">
<stop stop-color="#B6B6B6"/>
<stop offset="1" stop-color="#B6B6B6" stop-opacity="0"/>
</linearGradient>
<linearGradient id="paint80_linear_601:1005" x1="1029.76" y1="-699.328" x2="1029.76" y2="1290.17" gradientUnits="userSpaceOnUse">
<stop stop-color="#B6B6B6"/>
<stop offset="1" stop-color="#B6B6B6" stop-opacity="0"/>
</linearGradient>
<linearGradient id="paint81_linear_601:1005" x1="1029.76" y1="-699.328" x2="1029.76" y2="1290.17" gradientUnits="userSpaceOnUse">
<stop stop-color="#B6B6B6"/>
<stop offset="1" stop-color="#B6B6B6" stop-opacity="0"/>
</linearGradient>
<linearGradient id="paint82_linear_601:1005" x1="1029.76" y1="-699.328" x2="1029.76" y2="1290.17" gradientUnits="userSpaceOnUse">
<stop stop-color="#B6B6B6"/>
<stop offset="1" stop-color="#B6B6B6" stop-opacity="0"/>
</linearGradient>
<linearGradient id="paint83_linear_601:1005" x1="1029.76" y1="-699.328" x2="1029.76" y2="1290.17" gradientUnits="userSpaceOnUse">
<stop stop-color="#B6B6B6"/>
<stop offset="1" stop-color="#B6B6B6" stop-opacity="0"/>
</linearGradient>
<linearGradient id="paint84_linear_601:1005" x1="1029.76" y1="-699.328" x2="1029.76" y2="1290.17" gradientUnits="userSpaceOnUse">
<stop stop-color="#B6B6B6"/>
<stop offset="1" stop-color="#B6B6B6" stop-opacity="0"/>
</linearGradient>
<linearGradient id="paint85_linear_601:1005" x1="1029.76" y1="-699.328" x2="1029.76" y2="1290.17" gradientUnits="userSpaceOnUse">
<stop stop-color="#B6B6B6"/>
<stop offset="1" stop-color="#B6B6B6" stop-opacity="0"/>
</linearGradient>
<linearGradient id="paint86_linear_601:1005" x1="1029.76" y1="-699.328" x2="1029.76" y2="1290.17" gradientUnits="userSpaceOnUse">
<stop stop-color="#B6B6B6"/>
<stop offset="1" stop-color="#B6B6B6" stop-opacity="0"/>
</linearGradient>
<linearGradient id="paint87_linear_601:1005" x1="1029.76" y1="-699.328" x2="1029.76" y2="1290.17" gradientUnits="userSpaceOnUse">
<stop stop-color="#B6B6B6"/>
<stop offset="1" stop-color="#B6B6B6" stop-opacity="0"/>
</linearGradient>
<linearGradient id="paint88_linear_601:1005" x1="1029.76" y1="-699.328" x2="1029.76" y2="1290.17" gradientUnits="userSpaceOnUse">
<stop stop-color="#B6B6B6"/>
<stop offset="1" stop-color="#B6B6B6" stop-opacity="0"/>
</linearGradient>
<linearGradient id="paint89_linear_601:1005" x1="1029.76" y1="-699.328" x2="1029.76" y2="1290.17" gradientUnits="userSpaceOnUse">
<stop stop-color="#B6B6B6"/>
<stop offset="1" stop-color="#B6B6B6" stop-opacity="0"/>
</linearGradient>
<linearGradient id="paint90_linear_601:1005" x1="1029.76" y1="-699.328" x2="1029.76" y2="1290.17" gradientUnits="userSpaceOnUse">
<stop stop-color="#B6B6B6"/>
<stop offset="1" stop-color="#B6B6B6" stop-opacity="0"/>
</linearGradient>
<linearGradient id="paint91_linear_601:1005" x1="1029.76" y1="-699.328" x2="1029.76" y2="1290.17" gradientUnits="userSpaceOnUse">
<stop stop-color="#B6B6B6"/>
<stop offset="1" stop-color="#B6B6B6" stop-opacity="0"/>
</linearGradient>
<linearGradient id="paint92_linear_601:1005" x1="1029.76" y1="-699.328" x2="1029.76" y2="1290.17" gradientUnits="userSpaceOnUse">
<stop stop-color="#B6B6B6"/>
<stop offset="1" stop-color="#B6B6B6" stop-opacity="0"/>
</linearGradient>
<linearGradient id="paint93_linear_601:1005" x1="1029.76" y1="-699.328" x2="1029.76" y2="1290.17" gradientUnits="userSpaceOnUse">
<stop stop-color="#B6B6B6"/>
<stop offset="1" stop-color="#B6B6B6" stop-opacity="0"/>
</linearGradient>
<linearGradient id="paint94_linear_601:1005" x1="1029.76" y1="-699.328" x2="1029.76" y2="1290.17" gradientUnits="userSpaceOnUse">
<stop stop-color="#B6B6B6"/>
<stop offset="1" stop-color="#B6B6B6" stop-opacity="0"/>
</linearGradient>
<linearGradient id="paint95_linear_601:1005" x1="1029.76" y1="-699.328" x2="1029.76" y2="1290.17" gradientUnits="userSpaceOnUse">
<stop stop-color="#B6B6B6"/>
<stop offset="1" stop-color="#B6B6B6" stop-opacity="0"/>
</linearGradient>
<linearGradient id="paint96_linear_601:1005" x1="1029.76" y1="-699.328" x2="1029.76" y2="1290.17" gradientUnits="userSpaceOnUse">
<stop stop-color="#B6B6B6"/>
<stop offset="1" stop-color="#B6B6B6" stop-opacity="0"/>
</linearGradient>
<linearGradient id="paint97_linear_601:1005" x1="1029.76" y1="-699.328" x2="1029.76" y2="1290.17" gradientUnits="userSpaceOnUse">
<stop stop-color="#B6B6B6"/>
<stop offset="1" stop-color="#B6B6B6" stop-opacity="0"/>
</linearGradient>
<linearGradient id="paint98_linear_601:1005" x1="1029.76" y1="-699.328" x2="1029.76" y2="1290.17" gradientUnits="userSpaceOnUse">
<stop stop-color="#B6B6B6"/>
<stop offset="1" stop-color="#B6B6B6" stop-opacity="0"/>
</linearGradient>
<linearGradient id="paint99_linear_601:1005" x1="1029.76" y1="-699.328" x2="1029.76" y2="1290.17" gradientUnits="userSpaceOnUse">
<stop stop-color="#B6B6B6"/>
<stop offset="1" stop-color="#B6B6B6" stop-opacity="0"/>
</linearGradient>
</defs>
</svg>
